G04 #@! TF.GenerationSoftware,KiCad,Pcbnew,8.0.1*
G04 #@! TF.CreationDate,2025-02-25T21:27:59-07:00*
G04 #@! TF.ProjectId,LEDDisplay,4c454444-6973-4706-9c61-792e6b696361,rev?*
G04 #@! TF.SameCoordinates,Original*
G04 #@! TF.FileFunction,Copper,L2,Bot*
G04 #@! TF.FilePolarity,Positive*
%FSLAX46Y46*%
G04 Gerber Fmt 4.6, Leading zero omitted, Abs format (unit mm)*
G04 Created by KiCad (PCBNEW 8.0.1) date 2025-02-25 21:27:59*
%MOMM*%
%LPD*%
G01*
G04 APERTURE LIST*
G04 #@! TA.AperFunction,ComponentPad*
%ADD10R,1.700000X1.700000*%
G04 #@! TD*
G04 #@! TA.AperFunction,ComponentPad*
%ADD11O,1.700000X1.700000*%
G04 #@! TD*
G04 #@! TA.AperFunction,ViaPad*
%ADD12C,0.600000*%
G04 #@! TD*
G04 #@! TA.AperFunction,Conductor*
%ADD13C,0.152400*%
G04 #@! TD*
G04 APERTURE END LIST*
D10*
X199610000Y-59730000D03*
D11*
X202150000Y-59730000D03*
X204690000Y-59730000D03*
X207230000Y-59730000D03*
D12*
X197070000Y-97740000D03*
X198490000Y-81060000D03*
X198450000Y-98400000D03*
X201530000Y-82330000D03*
X204330000Y-82210000D03*
X198410000Y-96640000D03*
X207320000Y-82510000D03*
X199610000Y-96090000D03*
X199970000Y-87710000D03*
X201470000Y-95830000D03*
X202940000Y-95920000D03*
X202960000Y-87700000D03*
X205970000Y-87483800D03*
X204340000Y-94350000D03*
X207080000Y-96760000D03*
X209070000Y-87430000D03*
X207825000Y-109975000D03*
X207750000Y-105910000D03*
X209900000Y-94390000D03*
X201910000Y-104470000D03*
X201250000Y-106250000D03*
X207510000Y-95000000D03*
X199900000Y-106510000D03*
X206820000Y-93960000D03*
X206290000Y-64390000D03*
X206380000Y-62720000D03*
X206800000Y-65250000D03*
X205930000Y-67350000D03*
X201615000Y-62595000D03*
X195650000Y-65530000D03*
X201480000Y-65610000D03*
X208830000Y-67460000D03*
X210280000Y-105910000D03*
X196470000Y-110020000D03*
X203160000Y-102950000D03*
X211860000Y-89300000D03*
D13*
X197070000Y-97740000D02*
X196487600Y-97157600D01*
X196487600Y-83062400D02*
X198490000Y-81060000D01*
X196487600Y-97157600D02*
X196487600Y-83062400D01*
X196957600Y-85422400D02*
X200050000Y-82330000D01*
X196957600Y-96507600D02*
X196957600Y-85422400D01*
X200050000Y-82330000D02*
X201530000Y-82330000D01*
X198450000Y-98000000D02*
X196957600Y-96507600D01*
X198450000Y-98400000D02*
X198450000Y-98000000D01*
X197310000Y-85910000D02*
X197310000Y-95570000D01*
X204330000Y-82210000D02*
X203600000Y-82940000D01*
X203600000Y-82940000D02*
X200280000Y-82940000D01*
X198380000Y-96640000D02*
X198410000Y-96640000D01*
X200280000Y-82940000D02*
X197310000Y-85910000D01*
X197310000Y-95570000D02*
X198380000Y-96640000D01*
X207320000Y-82690000D02*
X206540000Y-83470000D01*
X197840000Y-86110000D02*
X197840000Y-94320000D01*
X200480000Y-83470000D02*
X197840000Y-86110000D01*
X207320000Y-82510000D02*
X207320000Y-82690000D01*
X197840000Y-94320000D02*
X199610000Y-96090000D01*
X206540000Y-83470000D02*
X200480000Y-83470000D01*
X201470000Y-95830000D02*
X199970000Y-94330000D01*
X199970000Y-94330000D02*
X199970000Y-87710000D01*
X202940000Y-95920000D02*
X202940000Y-87720000D01*
X202940000Y-87720000D02*
X202960000Y-87700000D01*
X204340000Y-93700000D02*
X205970000Y-92070000D01*
X205970000Y-92070000D02*
X205970000Y-87483800D01*
X204340000Y-94350000D02*
X204340000Y-93700000D01*
X209070000Y-94810000D02*
X209070000Y-87430000D01*
X207080000Y-96760000D02*
X207120000Y-96760000D01*
X207120000Y-96760000D02*
X209070000Y-94810000D01*
X209080000Y-104580000D02*
X209080000Y-97990000D01*
X208480000Y-61720000D02*
X200430000Y-61720000D01*
X199610000Y-60900000D02*
X199610000Y-59730000D01*
X200430000Y-61720000D02*
X199610000Y-60900000D01*
X207825000Y-109975000D02*
X207285000Y-109975000D01*
X206910000Y-106750000D02*
X207750000Y-105910000D01*
X207750000Y-105910000D02*
X209080000Y-104580000D01*
X210630000Y-96440000D02*
X210630000Y-63870000D01*
X209080000Y-97990000D02*
X210630000Y-96440000D01*
X210630000Y-63870000D02*
X208480000Y-61720000D01*
X207285000Y-109975000D02*
X206910000Y-109600000D01*
X206910000Y-109600000D02*
X206910000Y-106750000D01*
X201900000Y-104460000D02*
X201900000Y-103310000D01*
X201900000Y-103310000D02*
X209900000Y-95310000D01*
X201910000Y-104470000D02*
X201900000Y-104460000D01*
X209900000Y-95310000D02*
X209900000Y-94390000D01*
X201240000Y-106240000D02*
X201250000Y-106250000D01*
X207510000Y-95000000D02*
X207190000Y-95000000D01*
X201240000Y-100950000D02*
X201240000Y-106240000D01*
X207190000Y-95000000D02*
X201240000Y-100950000D01*
X199910000Y-106500000D02*
X199900000Y-106510000D01*
X206820000Y-93960000D02*
X199910000Y-100870000D01*
X199910000Y-100870000D02*
X199910000Y-106500000D01*
X206310000Y-62790000D02*
X206380000Y-62720000D01*
X206310000Y-64370000D02*
X206310000Y-62790000D01*
X206290000Y-64390000D02*
X206310000Y-64370000D01*
X206410000Y-66870000D02*
X205930000Y-67350000D01*
X206410000Y-65640000D02*
X206410000Y-66870000D01*
X206800000Y-65250000D02*
X206410000Y-65640000D01*
X199780000Y-63560000D02*
X196790000Y-63560000D01*
X196790000Y-63560000D02*
X195650000Y-64700000D01*
X195650000Y-64700000D02*
X195650000Y-65530000D01*
X201615000Y-62595000D02*
X200745000Y-62595000D01*
X200745000Y-62595000D02*
X199780000Y-63560000D01*
G04 #@! TA.AperFunction,Conductor*
G36*
X212982638Y-57848093D02*
G01*
X213008358Y-57892642D01*
X213009500Y-57905700D01*
X213009500Y-110614300D01*
X212991907Y-110662638D01*
X212947358Y-110688358D01*
X212934300Y-110689500D01*
X194725700Y-110689500D01*
X194677362Y-110671907D01*
X194651642Y-110627358D01*
X194650500Y-110614300D01*
X194650500Y-106510000D01*
X199394353Y-106510000D01*
X199414835Y-106652459D01*
X199474622Y-106783372D01*
X199474624Y-106783375D01*
X199525931Y-106842586D01*
X199568872Y-106892143D01*
X199689947Y-106969953D01*
X199828039Y-107010500D01*
X199828042Y-107010500D01*
X199971958Y-107010500D01*
X199971961Y-107010500D01*
X200110053Y-106969953D01*
X200231128Y-106892143D01*
X200325377Y-106783373D01*
X200385165Y-106652457D01*
X200405647Y-106510000D01*
X200385165Y-106367543D01*
X200325377Y-106236627D01*
X200231128Y-106127857D01*
X200231126Y-106127855D01*
X200231124Y-106127854D01*
X200221241Y-106121502D01*
X200190090Y-106080567D01*
X200186700Y-106058242D01*
X200186700Y-101015760D01*
X200204293Y-100967422D01*
X200208715Y-100962597D01*
X206688875Y-94482436D01*
X206735494Y-94460697D01*
X206742660Y-94460901D01*
X206742660Y-94460500D01*
X206891958Y-94460500D01*
X206891961Y-94460500D01*
X207030053Y-94419953D01*
X207151128Y-94342143D01*
X207245377Y-94233373D01*
X207305165Y-94102457D01*
X207325647Y-93960000D01*
X207305165Y-93817543D01*
X207295976Y-93797423D01*
X207245377Y-93686627D01*
X207245375Y-93686624D01*
X207151127Y-93577856D01*
X207151125Y-93577855D01*
X207126722Y-93562172D01*
X207030053Y-93500047D01*
X207030052Y-93500046D01*
X206891963Y-93459500D01*
X206891961Y-93459500D01*
X206748039Y-93459500D01*
X206748036Y-93459500D01*
X206609948Y-93500046D01*
X206488874Y-93577855D01*
X206488872Y-93577856D01*
X206394624Y-93686624D01*
X206394622Y-93686627D01*
X206334835Y-93817540D01*
X206314353Y-93960000D01*
X206323368Y-94022703D01*
X206312832Y-94073052D01*
X206302107Y-94086578D01*
X199688585Y-100700101D01*
X199688583Y-100700103D01*
X199652155Y-100763196D01*
X199652156Y-100763197D01*
X199633300Y-100833573D01*
X199633300Y-106045389D01*
X199615707Y-106093727D01*
X199598757Y-106108651D01*
X199568871Y-106127857D01*
X199568869Y-106127859D01*
X199474624Y-106236625D01*
X199474622Y-106236627D01*
X199414835Y-106367540D01*
X199394353Y-106510000D01*
X194650500Y-106510000D01*
X194650500Y-97194028D01*
X196210900Y-97194028D01*
X196229756Y-97264403D01*
X196266185Y-97327498D01*
X196266186Y-97327499D01*
X196552107Y-97613420D01*
X196573847Y-97660040D01*
X196573368Y-97677295D01*
X196564353Y-97739999D01*
X196584835Y-97882459D01*
X196644622Y-98013372D01*
X196644624Y-98013375D01*
X196704597Y-98082587D01*
X196738872Y-98122143D01*
X196859947Y-98199953D01*
X196998039Y-98240500D01*
X196998042Y-98240500D01*
X197141958Y-98240500D01*
X197141961Y-98240500D01*
X197280053Y-98199953D01*
X197401128Y-98122143D01*
X197495377Y-98013373D01*
X197555165Y-97882457D01*
X197575647Y-97740000D01*
X197570348Y-97703145D01*
X197580882Y-97652796D01*
X197621316Y-97620998D01*
X197672730Y-97622629D01*
X197697956Y-97639269D01*
X198049714Y-97991027D01*
X198071454Y-98037647D01*
X198058140Y-98087334D01*
X198053374Y-98093445D01*
X198024622Y-98126627D01*
X198024622Y-98126628D01*
X197964835Y-98257540D01*
X197944353Y-98400000D01*
X197964835Y-98542459D01*
X198024622Y-98673372D01*
X198024624Y-98673375D01*
X198118872Y-98782143D01*
X198239947Y-98859953D01*
X198378039Y-98900500D01*
X198378042Y-98900500D01*
X198521958Y-98900500D01*
X198521961Y-98900500D01*
X198660053Y-98859953D01*
X198781128Y-98782143D01*
X198875377Y-98673373D01*
X198935165Y-98542457D01*
X198955647Y-98400000D01*
X198935165Y-98257543D01*
X198927381Y-98240499D01*
X198875377Y-98126627D01*
X198875375Y-98126624D01*
X198781127Y-98017856D01*
X198781123Y-98017853D01*
X198757405Y-98002610D01*
X198726253Y-97961676D01*
X198725424Y-97958811D01*
X198724020Y-97953572D01*
X198707844Y-97893198D01*
X198671415Y-97830102D01*
X198619898Y-97778585D01*
X197256326Y-96415013D01*
X197234586Y-96368393D01*
X197234300Y-96361839D01*
X197234300Y-96067161D01*
X197251893Y-96018823D01*
X197296442Y-95993103D01*
X197347100Y-96002036D01*
X197362674Y-96013987D01*
X197888336Y-96539649D01*
X197910076Y-96586269D01*
X197909597Y-96603524D01*
X197904353Y-96639999D01*
X197924835Y-96782459D01*
X197984622Y-96913372D01*
X197984624Y-96913375D01*
X198069944Y-97011839D01*
X198078872Y-97022143D01*
X198199947Y-97099953D01*
X198338039Y-97140500D01*
X198338042Y-97140500D01*
X198481958Y-97140500D01*
X198481961Y-97140500D01*
X198620053Y-97099953D01*
X198741128Y-97022143D01*
X198835377Y-96913373D01*
X198895165Y-96782457D01*
X198915647Y-96640000D01*
X198895165Y-96497543D01*
X198890178Y-96486624D01*
X198835377Y-96366627D01*
X198835375Y-96366624D01*
X198741127Y-96257856D01*
X198741125Y-96257855D01*
X198669995Y-96212143D01*
X198620053Y-96180047D01*
X198620052Y-96180046D01*
X198481963Y-96139500D01*
X198481961Y-96139500D01*
X198338039Y-96139500D01*
X198328875Y-96142190D01*
X198277539Y-96138923D01*
X198254521Y-96123208D01*
X197608726Y-95477413D01*
X197586986Y-95430793D01*
X197586700Y-95424239D01*
X197586700Y-94639561D01*
X197604293Y-94591223D01*
X197648842Y-94565503D01*
X197699500Y-94574436D01*
X197715074Y-94586387D01*
X199092107Y-95963420D01*
X199113847Y-96010040D01*
X199113368Y-96027295D01*
X199104353Y-96089999D01*
X199124835Y-96232459D01*
X199184622Y-96363372D01*
X199184624Y-96363375D01*
X199234123Y-96420500D01*
X199278872Y-96472143D01*
X199399947Y-96549953D01*
X199538039Y-96590500D01*
X199538042Y-96590500D01*
X199681958Y-96590500D01*
X199681961Y-96590500D01*
X199820053Y-96549953D01*
X199941128Y-96472143D01*
X200035377Y-96363373D01*
X200095165Y-96232457D01*
X200115647Y-96090000D01*
X200095165Y-95947543D01*
X200082586Y-95920000D01*
X200035377Y-95816627D01*
X200035375Y-95816624D01*
X199941127Y-95707856D01*
X199941125Y-95707855D01*
X199820051Y-95630046D01*
X199820052Y-95630046D01*
X199681963Y-95589500D01*
X199681961Y-95589500D01*
X199538039Y-95589500D01*
X199532661Y-95589500D01*
X199532661Y-95586710D01*
X199492402Y-95578288D01*
X199478875Y-95567562D01*
X198138726Y-94227413D01*
X198116986Y-94180793D01*
X198116700Y-94174239D01*
X198116700Y-87710000D01*
X199464353Y-87710000D01*
X199484835Y-87852459D01*
X199544622Y-87983372D01*
X199544624Y-87983375D01*
X199584488Y-88029380D01*
X199638872Y-88092143D01*
X199638873Y-88092143D01*
X199638874Y-88092145D01*
X199658756Y-88104922D01*
X199689909Y-88145855D01*
X199693300Y-88168184D01*
X199693300Y-94293572D01*
X199693300Y-94366428D01*
X199712156Y-94436803D01*
X199748585Y-94499898D01*
X199748586Y-94499899D01*
X200952107Y-95703420D01*
X200973847Y-95750040D01*
X200973368Y-95767295D01*
X200964353Y-95829999D01*
X200984835Y-95972459D01*
X201044622Y-96103372D01*
X201044624Y-96103375D01*
X201138872Y-96212143D01*
X201259947Y-96289953D01*
X201398039Y-96330500D01*
X201398042Y-96330500D01*
X201541958Y-96330500D01*
X201541961Y-96330500D01*
X201680053Y-96289953D01*
X201801128Y-96212143D01*
X201895377Y-96103373D01*
X201955165Y-95972457D01*
X201962707Y-95920000D01*
X202434353Y-95920000D01*
X202454835Y-96062459D01*
X202514622Y-96193372D01*
X202514624Y-96193375D01*
X202587110Y-96277028D01*
X202608872Y-96302143D01*
X202729947Y-96379953D01*
X202868039Y-96420500D01*
X202868042Y-96420500D01*
X203011958Y-96420500D01*
X203011961Y-96420500D01*
X203150053Y-96379953D01*
X203271128Y-96302143D01*
X203365377Y-96193373D01*
X203425165Y-96062457D01*
X203445647Y-95920000D01*
X203425165Y-95777543D01*
X203365377Y-95646627D01*
X203365375Y-95646624D01*
X203330050Y-95605857D01*
X203271128Y-95537857D01*
X203251242Y-95525077D01*
X203220091Y-95484144D01*
X203216700Y-95461816D01*
X203216700Y-94350000D01*
X203834353Y-94350000D01*
X203854835Y-94492459D01*
X203914622Y-94623372D01*
X203914624Y-94623375D01*
X204004092Y-94726627D01*
X204008872Y-94732143D01*
X204129947Y-94809953D01*
X204268039Y-94850500D01*
X204268042Y-94850500D01*
X204411958Y-94850500D01*
X204411961Y-94850500D01*
X204550053Y-94809953D01*
X204671128Y-94732143D01*
X204765377Y-94623373D01*
X204825165Y-94492457D01*
X204845647Y-94350000D01*
X204825165Y-94207543D01*
X204824180Y-94205387D01*
X204765377Y-94076627D01*
X204765375Y-94076624D01*
X204711266Y-94014179D01*
X204671128Y-93967857D01*
X204651242Y-93955077D01*
X204620091Y-93914144D01*
X204616700Y-93891816D01*
X204616700Y-93845761D01*
X204634293Y-93797423D01*
X204638726Y-93792587D01*
X204971813Y-93459500D01*
X206191415Y-92239898D01*
X206227844Y-92176803D01*
X206246700Y-92106428D01*
X206246700Y-92033572D01*
X206246700Y-87941984D01*
X206264293Y-87893646D01*
X206281244Y-87878722D01*
X206301125Y-87865945D01*
X206301125Y-87865944D01*
X206301128Y-87865943D01*
X206395377Y-87757173D01*
X206455165Y-87626257D01*
X206475647Y-87483800D01*
X206455165Y-87341343D01*
X206449005Y-87327855D01*
X206395377Y-87210427D01*
X206395375Y-87210424D01*
X206301127Y-87101656D01*
X206301125Y-87101655D01*
X206180051Y-87023846D01*
X206180052Y-87023846D01*
X206041963Y-86983300D01*
X206041961Y-86983300D01*
X205898039Y-86983300D01*
X205898036Y-86983300D01*
X205759948Y-87023846D01*
X205638874Y-87101655D01*
X205638872Y-87101656D01*
X205544624Y-87210424D01*
X205544622Y-87210427D01*
X205484835Y-87341340D01*
X205464353Y-87483800D01*
X205484835Y-87626259D01*
X205544622Y-87757172D01*
X205544624Y-87757175D01*
X205584488Y-87803180D01*
X205638872Y-87865943D01*
X205638873Y-87865943D01*
X205638874Y-87865945D01*
X205658756Y-87878722D01*
X205689909Y-87919655D01*
X205693300Y-87941984D01*
X205693300Y-91924239D01*
X205675707Y-91972577D01*
X205671274Y-91977413D01*
X204118586Y-93530100D01*
X204082156Y-93593197D01*
X204074305Y-93622500D01*
X204063300Y-93663573D01*
X204063300Y-93891816D01*
X204045707Y-93940154D01*
X204028758Y-93955076D01*
X204021098Y-93960000D01*
X204008872Y-93967857D01*
X203914624Y-94076624D01*
X203914622Y-94076627D01*
X203854835Y-94207540D01*
X203834353Y-94350000D01*
X203216700Y-94350000D01*
X203216700Y-88171037D01*
X203234293Y-88122699D01*
X203251244Y-88107775D01*
X203291125Y-88082145D01*
X203291125Y-88082144D01*
X203291128Y-88082143D01*
X203385377Y-87973373D01*
X203445165Y-87842457D01*
X203465647Y-87700000D01*
X203445165Y-87557543D01*
X203385377Y-87426627D01*
X203385375Y-87426624D01*
X203291127Y-87317856D01*
X203291125Y-87317855D01*
X203185613Y-87250047D01*
X203170053Y-87240047D01*
X203170052Y-87240046D01*
X203031963Y-87199500D01*
X203031961Y-87199500D01*
X202888039Y-87199500D01*
X202888036Y-87199500D01*
X202749948Y-87240046D01*
X202628874Y-87317855D01*
X202628872Y-87317856D01*
X202534624Y-87426624D01*
X202534622Y-87426627D01*
X202474835Y-87557540D01*
X202454353Y-87700000D01*
X202474835Y-87842459D01*
X202534622Y-87973372D01*
X202534624Y-87973375D01*
X202574488Y-88019380D01*
X202628872Y-88082143D01*
X202628875Y-88082145D01*
X202632939Y-88085667D01*
X202632168Y-88086555D01*
X202659906Y-88122992D01*
X202663300Y-88145330D01*
X202663300Y-95461816D01*
X202645707Y-95510154D01*
X202628758Y-95525076D01*
X202608872Y-95537857D01*
X202514624Y-95646624D01*
X202514622Y-95646627D01*
X202454835Y-95777540D01*
X202434353Y-95920000D01*
X201962707Y-95920000D01*
X201975647Y-95830000D01*
X201955165Y-95687543D01*
X201895377Y-95556627D01*
X201895375Y-95556624D01*
X201801127Y-95447856D01*
X201801125Y-95447855D01*
X201698876Y-95382144D01*
X201680053Y-95370047D01*
X201680052Y-95370046D01*
X201541963Y-95329500D01*
X201541961Y-95329500D01*
X201398039Y-95329500D01*
X201392661Y-95329500D01*
X201392661Y-95326710D01*
X201352402Y-95318288D01*
X201338875Y-95307562D01*
X200268726Y-94237413D01*
X200246986Y-94190793D01*
X200246700Y-94184239D01*
X200246700Y-88168184D01*
X200264293Y-88119846D01*
X200281244Y-88104922D01*
X200301125Y-88092145D01*
X200301125Y-88092144D01*
X200301128Y-88092143D01*
X200395377Y-87983373D01*
X200455165Y-87852457D01*
X200475647Y-87710000D01*
X200455165Y-87567543D01*
X200416920Y-87483800D01*
X200395377Y-87436627D01*
X200395375Y-87436624D01*
X200301127Y-87327856D01*
X200301125Y-87327855D01*
X200180051Y-87250046D01*
X200180052Y-87250046D01*
X200041963Y-87209500D01*
X200041961Y-87209500D01*
X199898039Y-87209500D01*
X199898036Y-87209500D01*
X199759948Y-87250046D01*
X199638874Y-87327855D01*
X199638872Y-87327856D01*
X199544624Y-87436624D01*
X199544622Y-87436627D01*
X199484835Y-87567540D01*
X199464353Y-87710000D01*
X198116700Y-87710000D01*
X198116700Y-86255761D01*
X198134293Y-86207423D01*
X198138726Y-86202587D01*
X200572587Y-83768726D01*
X200619207Y-83746986D01*
X200625761Y-83746700D01*
X206576427Y-83746700D01*
X206576428Y-83746700D01*
X206646803Y-83727844D01*
X206709898Y-83691415D01*
X207376764Y-83024548D01*
X207408748Y-83005570D01*
X207530053Y-82969953D01*
X207651128Y-82892143D01*
X207745377Y-82783373D01*
X207805165Y-82652457D01*
X207825647Y-82510000D01*
X207805165Y-82367543D01*
X207798276Y-82352459D01*
X207745377Y-82236627D01*
X207745375Y-82236624D01*
X207651127Y-82127856D01*
X207651125Y-82127855D01*
X207557277Y-82067543D01*
X207530053Y-82050047D01*
X207530052Y-82050046D01*
X207391963Y-82009500D01*
X207391961Y-82009500D01*
X207248039Y-82009500D01*
X207248036Y-82009500D01*
X207109948Y-82050046D01*
X206988874Y-82127855D01*
X206988872Y-82127856D01*
X206894624Y-82236624D01*
X206894622Y-82236627D01*
X206834835Y-82367540D01*
X206814353Y-82510000D01*
X206834835Y-82652460D01*
X206854338Y-82695163D01*
X206858415Y-82746441D01*
X206839108Y-82779577D01*
X206447412Y-83171274D01*
X206400793Y-83193014D01*
X206394239Y-83193300D01*
X203919561Y-83193300D01*
X203871223Y-83175707D01*
X203845503Y-83131158D01*
X203854436Y-83080500D01*
X203866383Y-83064929D01*
X204198874Y-82732437D01*
X204245494Y-82710698D01*
X204252660Y-82710897D01*
X204252660Y-82710500D01*
X204401958Y-82710500D01*
X204401961Y-82710500D01*
X204540053Y-82669953D01*
X204661128Y-82592143D01*
X204755377Y-82483373D01*
X204815165Y-82352457D01*
X204835647Y-82210000D01*
X204815165Y-82067543D01*
X204810178Y-82056624D01*
X204755377Y-81936627D01*
X204755375Y-81936624D01*
X204661127Y-81827856D01*
X204661125Y-81827855D01*
X204540051Y-81750046D01*
X204540052Y-81750046D01*
X204401963Y-81709500D01*
X204401961Y-81709500D01*
X204258039Y-81709500D01*
X204258036Y-81709500D01*
X204119948Y-81750046D01*
X203998874Y-81827855D01*
X203998872Y-81827856D01*
X203904624Y-81936624D01*
X203904622Y-81936627D01*
X203844835Y-82067540D01*
X203824353Y-82210000D01*
X203833368Y-82272701D01*
X203822832Y-82323051D01*
X203812108Y-82336577D01*
X203507413Y-82641274D01*
X203460792Y-82663014D01*
X203454238Y-82663300D01*
X202045023Y-82663300D01*
X201996685Y-82645707D01*
X201970965Y-82601158D01*
X201976619Y-82556860D01*
X202015164Y-82472459D01*
X202015163Y-82472459D01*
X202015165Y-82472457D01*
X202035647Y-82330000D01*
X202015165Y-82187543D01*
X201962468Y-82072155D01*
X201955377Y-82056627D01*
X201955375Y-82056624D01*
X201861127Y-81947856D01*
X201861125Y-81947855D01*
X201740051Y-81870046D01*
X201740052Y-81870046D01*
X201601963Y-81829500D01*
X201601961Y-81829500D01*
X201458039Y-81829500D01*
X201458036Y-81829500D01*
X201319948Y-81870046D01*
X201198874Y-81947855D01*
X201198869Y-81947859D01*
X201129995Y-82027345D01*
X201085045Y-82052355D01*
X201073163Y-82053300D01*
X200086428Y-82053300D01*
X200013572Y-82053300D01*
X200001155Y-82056627D01*
X199943199Y-82072155D01*
X199880100Y-82108586D01*
X196892674Y-85096013D01*
X196846054Y-85117753D01*
X196796367Y-85104439D01*
X196766862Y-85062302D01*
X196764300Y-85042839D01*
X196764300Y-83208160D01*
X196781893Y-83159822D01*
X196786315Y-83154997D01*
X198358875Y-81582436D01*
X198405494Y-81560697D01*
X198412660Y-81560901D01*
X198412660Y-81560500D01*
X198561958Y-81560500D01*
X198561961Y-81560500D01*
X198700053Y-81519953D01*
X198821128Y-81442143D01*
X198915377Y-81333373D01*
X198975165Y-81202457D01*
X198995647Y-81060000D01*
X198975165Y-80917543D01*
X198915377Y-80786627D01*
X198915375Y-80786624D01*
X198821127Y-80677856D01*
X198821125Y-80677855D01*
X198700051Y-80600046D01*
X198700052Y-80600046D01*
X198561963Y-80559500D01*
X198561961Y-80559500D01*
X198418039Y-80559500D01*
X198418036Y-80559500D01*
X198279948Y-80600046D01*
X198158874Y-80677855D01*
X198158872Y-80677856D01*
X198064624Y-80786624D01*
X198064622Y-80786627D01*
X198004835Y-80917540D01*
X197984353Y-81060000D01*
X197993368Y-81122703D01*
X197982832Y-81173052D01*
X197972107Y-81186578D01*
X196266184Y-82892501D01*
X196229755Y-82955596D01*
X196229756Y-82955597D01*
X196229756Y-82955598D01*
X196210900Y-83025972D01*
X196210900Y-97121172D01*
X196210900Y-97194028D01*
X194650500Y-97194028D01*
X194650500Y-67350000D01*
X205424353Y-67350000D01*
X205444835Y-67492459D01*
X205504622Y-67623372D01*
X205504624Y-67623375D01*
X205598872Y-67732143D01*
X205719947Y-67809953D01*
X205858039Y-67850500D01*
X205858042Y-67850500D01*
X206001958Y-67850500D01*
X206001961Y-67850500D01*
X206140053Y-67809953D01*
X206261128Y-67732143D01*
X206355377Y-67623373D01*
X206415165Y-67492457D01*
X206435647Y-67350000D01*
X206426631Y-67287295D01*
X206437167Y-67236947D01*
X206447887Y-67223424D01*
X206631415Y-67039898D01*
X206667844Y-66976802D01*
X206686700Y-66906428D01*
X206686700Y-66833572D01*
X206686700Y-65825700D01*
X206704293Y-65777362D01*
X206748842Y-65751642D01*
X206761900Y-65750500D01*
X206871958Y-65750500D01*
X206871961Y-65750500D01*
X207010053Y-65709953D01*
X207131128Y-65632143D01*
X207225377Y-65523373D01*
X207285165Y-65392457D01*
X207305647Y-65250000D01*
X207285165Y-65107543D01*
X207285163Y-65107539D01*
X207225377Y-64976627D01*
X207225375Y-64976624D01*
X207131127Y-64867856D01*
X207131125Y-64867855D01*
X207096746Y-64845761D01*
X207010053Y-64790047D01*
X207010052Y-64790046D01*
X206871963Y-64749500D01*
X206871961Y-64749500D01*
X206793058Y-64749500D01*
X206744720Y-64731907D01*
X206719000Y-64687358D01*
X206724654Y-64643060D01*
X206775164Y-64532460D01*
X206775164Y-64532458D01*
X206775165Y-64532457D01*
X206795647Y-64390000D01*
X206775165Y-64247543D01*
X206715377Y-64116627D01*
X206621128Y-64007857D01*
X206621126Y-64007856D01*
X206617066Y-64004338D01*
X206617833Y-64003452D01*
X206590090Y-63966992D01*
X206586700Y-63944669D01*
X206586700Y-63223170D01*
X206604293Y-63174832D01*
X206621244Y-63159908D01*
X206636701Y-63149974D01*
X206711128Y-63102143D01*
X206805377Y-62993373D01*
X206865165Y-62862457D01*
X206885647Y-62720000D01*
X206865165Y-62577543D01*
X206805377Y-62446627D01*
X206805375Y-62446624D01*
X206711127Y-62337856D01*
X206711125Y-62337855D01*
X206590051Y-62260046D01*
X206590052Y-62260046D01*
X206451963Y-62219500D01*
X206451961Y-62219500D01*
X206308039Y-62219500D01*
X206308036Y-62219500D01*
X206169948Y-62260046D01*
X206048874Y-62337855D01*
X206048872Y-62337856D01*
X205954624Y-62446624D01*
X205954622Y-62446627D01*
X205894835Y-62577540D01*
X205874353Y-62720000D01*
X205894835Y-62862459D01*
X205954623Y-62993373D01*
X206014932Y-63062974D01*
X206033291Y-63111026D01*
X206033300Y-63112219D01*
X206033300Y-63918963D01*
X206015707Y-63967301D01*
X205998756Y-63982225D01*
X205958874Y-64007855D01*
X205958872Y-64007856D01*
X205864624Y-64116624D01*
X205864622Y-64116627D01*
X205804835Y-64247540D01*
X205784353Y-64390000D01*
X205804835Y-64532459D01*
X205864622Y-64663372D01*
X205864624Y-64663375D01*
X205939252Y-64749500D01*
X205958872Y-64772143D01*
X206079947Y-64849953D01*
X206218039Y-64890500D01*
X206218042Y-64890500D01*
X206296942Y-64890500D01*
X206345280Y-64908093D01*
X206371000Y-64952642D01*
X206365346Y-64996940D01*
X206314835Y-65107539D01*
X206294353Y-65250000D01*
X206303368Y-65312703D01*
X206292832Y-65363052D01*
X206282108Y-65376578D01*
X206188584Y-65470102D01*
X206152155Y-65533196D01*
X206152156Y-65533197D01*
X206133300Y-65603573D01*
X206133300Y-66724237D01*
X206115707Y-66772575D01*
X206111274Y-66777412D01*
X206061123Y-66827562D01*
X206014502Y-66849301D01*
X206007339Y-66849106D01*
X206007339Y-66849500D01*
X205858036Y-66849500D01*
X205719948Y-66890046D01*
X205598874Y-66967855D01*
X205598872Y-66967856D01*
X205504624Y-67076624D01*
X205504622Y-67076627D01*
X205444835Y-67207540D01*
X205424353Y-67350000D01*
X194650500Y-67350000D01*
X194650500Y-65530000D01*
X195144353Y-65530000D01*
X195164835Y-65672459D01*
X195224622Y-65803372D01*
X195224624Y-65803375D01*
X195243969Y-65825700D01*
X195318872Y-65912143D01*
X195439947Y-65989953D01*
X195578039Y-66030500D01*
X195578042Y-66030500D01*
X195721958Y-66030500D01*
X195721961Y-66030500D01*
X195860053Y-65989953D01*
X195981128Y-65912143D01*
X196075377Y-65803373D01*
X196135165Y-65672457D01*
X196155647Y-65530000D01*
X196135165Y-65387543D01*
X196130157Y-65376578D01*
X196075377Y-65256627D01*
X196075375Y-65256624D01*
X196040050Y-65215857D01*
X195981128Y-65147857D01*
X195961242Y-65135077D01*
X195930091Y-65094144D01*
X195926700Y-65071816D01*
X195926700Y-64845761D01*
X195944293Y-64797423D01*
X195948726Y-64792587D01*
X196882587Y-63858726D01*
X196929207Y-63836986D01*
X196935761Y-63836700D01*
X199816427Y-63836700D01*
X199816428Y-63836700D01*
X199886803Y-63817844D01*
X199949898Y-63781415D01*
X200837587Y-62893726D01*
X200884207Y-62871986D01*
X200890761Y-62871700D01*
X201158163Y-62871700D01*
X201206501Y-62889293D01*
X201214995Y-62897655D01*
X201283869Y-62977140D01*
X201283872Y-62977143D01*
X201404947Y-63054953D01*
X201543039Y-63095500D01*
X201543042Y-63095500D01*
X201686958Y-63095500D01*
X201686961Y-63095500D01*
X201825053Y-63054953D01*
X201946128Y-62977143D01*
X202040377Y-62868373D01*
X202100165Y-62737457D01*
X202120647Y-62595000D01*
X202100165Y-62452543D01*
X202097463Y-62446627D01*
X202040377Y-62321627D01*
X202040375Y-62321624D01*
X201946127Y-62212856D01*
X201946125Y-62212855D01*
X201825232Y-62135162D01*
X201794079Y-62094228D01*
X201796527Y-62042847D01*
X201831429Y-62005060D01*
X201865888Y-61996700D01*
X208334239Y-61996700D01*
X208382577Y-62014293D01*
X208387413Y-62018726D01*
X210331274Y-63962587D01*
X210353014Y-64009207D01*
X210353300Y-64015761D01*
X210353300Y-93949054D01*
X210335707Y-93997392D01*
X210291158Y-94023112D01*
X210240500Y-94014179D01*
X210235669Y-94010740D01*
X210235653Y-94010765D01*
X210214844Y-93997392D01*
X210110053Y-93930047D01*
X210110052Y-93930046D01*
X209971963Y-93889500D01*
X209971961Y-93889500D01*
X209828039Y-93889500D01*
X209828036Y-93889500D01*
X209689948Y-93930046D01*
X209568874Y-94007855D01*
X209568872Y-94007856D01*
X209478732Y-94111884D01*
X209433781Y-94136893D01*
X209383271Y-94127158D01*
X209350836Y-94087233D01*
X209346700Y-94062638D01*
X209346700Y-87888184D01*
X209364293Y-87839846D01*
X209381244Y-87824922D01*
X209401125Y-87812145D01*
X209401125Y-87812144D01*
X209401128Y-87812143D01*
X209495377Y-87703373D01*
X209555165Y-87572457D01*
X209575647Y-87430000D01*
X209555165Y-87287543D01*
X209495377Y-87156627D01*
X209495375Y-87156624D01*
X209401127Y-87047856D01*
X209401125Y-87047855D01*
X209280051Y-86970046D01*
X209280052Y-86970046D01*
X209141963Y-86929500D01*
X209141961Y-86929500D01*
X208998039Y-86929500D01*
X208998036Y-86929500D01*
X208859948Y-86970046D01*
X208738874Y-87047855D01*
X208738872Y-87047856D01*
X208644624Y-87156624D01*
X208644622Y-87156627D01*
X208584835Y-87287540D01*
X208564353Y-87430000D01*
X208584835Y-87572459D01*
X208644622Y-87703372D01*
X208644624Y-87703375D01*
X208650365Y-87710000D01*
X208738872Y-87812143D01*
X208738873Y-87812143D01*
X208738874Y-87812145D01*
X208758756Y-87824922D01*
X208789909Y-87865855D01*
X208793300Y-87888184D01*
X208793300Y-94664238D01*
X208775707Y-94712576D01*
X208771274Y-94717412D01*
X207243207Y-96245478D01*
X207196587Y-96267218D01*
X207168848Y-96264458D01*
X207151961Y-96259500D01*
X207008039Y-96259500D01*
X207008036Y-96259500D01*
X206869948Y-96300046D01*
X206748874Y-96377855D01*
X206748872Y-96377856D01*
X206654624Y-96486624D01*
X206654622Y-96486627D01*
X206594835Y-96617540D01*
X206574353Y-96760000D01*
X206594835Y-96902459D01*
X206654622Y-97033372D01*
X206654624Y-97033375D01*
X206712314Y-97099953D01*
X206748872Y-97142143D01*
X206869947Y-97219953D01*
X207008039Y-97260500D01*
X207008042Y-97260500D01*
X207151958Y-97260500D01*
X207151961Y-97260500D01*
X207290053Y-97219953D01*
X207411128Y-97142143D01*
X207505377Y-97033373D01*
X207565165Y-96902457D01*
X207585647Y-96760000D01*
X207581659Y-96732268D01*
X207592192Y-96681921D01*
X207602915Y-96668396D01*
X209291415Y-94979898D01*
X209327843Y-94916803D01*
X209327844Y-94916802D01*
X209346700Y-94846428D01*
X209346700Y-94717361D01*
X209364293Y-94669023D01*
X209408842Y-94643303D01*
X209459500Y-94652236D01*
X209478732Y-94668116D01*
X209568869Y-94772140D01*
X209568874Y-94772145D01*
X209588756Y-94784922D01*
X209619909Y-94825855D01*
X209623300Y-94848184D01*
X209623300Y-95164239D01*
X209605707Y-95212577D01*
X209601274Y-95217413D01*
X201678585Y-103140101D01*
X201657024Y-103177445D01*
X201617618Y-103210509D01*
X201566178Y-103210507D01*
X201526774Y-103177441D01*
X201516700Y-103139843D01*
X201516700Y-101095760D01*
X201534293Y-101047422D01*
X201538715Y-101042597D01*
X207148378Y-95432933D01*
X207194997Y-95411194D01*
X207242207Y-95422846D01*
X207299947Y-95459953D01*
X207438039Y-95500500D01*
X207438042Y-95500500D01*
X207581958Y-95500500D01*
X207581961Y-95500500D01*
X207720053Y-95459953D01*
X207841128Y-95382143D01*
X207935377Y-95273373D01*
X207995165Y-95142457D01*
X208015647Y-95000000D01*
X207995165Y-94857543D01*
X207980693Y-94825855D01*
X207935377Y-94726627D01*
X207935375Y-94726624D01*
X207841127Y-94617856D01*
X207841125Y-94617855D01*
X207799685Y-94591223D01*
X207720053Y-94540047D01*
X207720052Y-94540046D01*
X207581963Y-94499500D01*
X207581961Y-94499500D01*
X207438039Y-94499500D01*
X207438036Y-94499500D01*
X207299948Y-94540046D01*
X207178874Y-94617855D01*
X207178873Y-94617856D01*
X207084623Y-94726626D01*
X207081716Y-94731151D01*
X207080417Y-94730316D01*
X207054686Y-94758616D01*
X207020100Y-94778585D01*
X201018585Y-100780101D01*
X201018583Y-100780103D01*
X200982155Y-100843196D01*
X200982156Y-100843197D01*
X200963300Y-100913573D01*
X200963300Y-105798242D01*
X200945707Y-105846580D01*
X200928759Y-105861502D01*
X200918875Y-105867854D01*
X200918869Y-105867859D01*
X200824624Y-105976625D01*
X200824622Y-105976627D01*
X200764835Y-106107540D01*
X200744353Y-106250000D01*
X200764835Y-106392459D01*
X200824622Y-106523372D01*
X200824624Y-106523375D01*
X200918872Y-106632143D01*
X201039947Y-106709953D01*
X201178039Y-106750500D01*
X201178042Y-106750500D01*
X201321958Y-106750500D01*
X201321961Y-106750500D01*
X201460053Y-106709953D01*
X201581128Y-106632143D01*
X201675377Y-106523373D01*
X201735165Y-106392457D01*
X201755647Y-106250000D01*
X201735165Y-106107543D01*
X201731402Y-106099304D01*
X201675377Y-105976627D01*
X201675375Y-105976625D01*
X201581130Y-105867859D01*
X201581128Y-105867857D01*
X201581123Y-105867854D01*
X201551242Y-105848650D01*
X201520091Y-105807716D01*
X201516700Y-105785389D01*
X201516700Y-104949905D01*
X201534293Y-104901567D01*
X201578842Y-104875847D01*
X201629500Y-104884780D01*
X201632539Y-104886633D01*
X201699947Y-104929953D01*
X201838039Y-104970500D01*
X201838042Y-104970500D01*
X201981958Y-104970500D01*
X201981961Y-104970500D01*
X202120053Y-104929953D01*
X202241128Y-104852143D01*
X202335377Y-104743373D01*
X202395165Y-104612457D01*
X202415647Y-104470000D01*
X202395165Y-104327543D01*
X202335377Y-104196627D01*
X202241128Y-104087857D01*
X202211242Y-104068650D01*
X202180091Y-104027716D01*
X202176700Y-104005389D01*
X202176700Y-103455761D01*
X202194293Y-103407423D01*
X202198726Y-103402587D01*
X210121414Y-95479899D01*
X210121415Y-95479898D01*
X210157843Y-95416803D01*
X210157844Y-95416802D01*
X210176700Y-95346428D01*
X210176700Y-94848184D01*
X210194293Y-94799846D01*
X210211244Y-94784922D01*
X210235652Y-94769236D01*
X210236828Y-94771067D01*
X210276902Y-94755755D01*
X210325513Y-94772575D01*
X210351940Y-94816708D01*
X210353300Y-94830945D01*
X210353300Y-96294239D01*
X210335707Y-96342577D01*
X210331274Y-96347413D01*
X208858586Y-97820100D01*
X208858585Y-97820102D01*
X208822156Y-97883197D01*
X208822155Y-97883200D01*
X208822154Y-97883200D01*
X208817787Y-97899498D01*
X208817788Y-97899499D01*
X208803300Y-97953573D01*
X208803300Y-104434238D01*
X208785707Y-104482576D01*
X208781274Y-104487412D01*
X207881124Y-105387561D01*
X207834504Y-105409301D01*
X207827339Y-105409106D01*
X207827339Y-105409500D01*
X207678036Y-105409500D01*
X207539948Y-105450046D01*
X207418874Y-105527855D01*
X207418872Y-105527856D01*
X207324624Y-105636624D01*
X207324622Y-105636627D01*
X207264835Y-105767540D01*
X207244353Y-105910000D01*
X207253368Y-105972703D01*
X207242832Y-106023052D01*
X207232107Y-106036578D01*
X206688588Y-106580097D01*
X206688585Y-106580101D01*
X206688585Y-106580102D01*
X206652156Y-106643197D01*
X206634272Y-106709946D01*
X206634269Y-106709956D01*
X206633300Y-106713568D01*
X206633300Y-106713572D01*
X206633300Y-109563572D01*
X206633300Y-109636428D01*
X206652156Y-109706803D01*
X206688585Y-109769898D01*
X207115102Y-110196415D01*
X207178197Y-110232844D01*
X207248572Y-110251700D01*
X207321428Y-110251700D01*
X207368163Y-110251700D01*
X207416501Y-110269293D01*
X207424995Y-110277655D01*
X207493869Y-110357140D01*
X207493872Y-110357143D01*
X207614947Y-110434953D01*
X207753039Y-110475500D01*
X207753042Y-110475500D01*
X207896958Y-110475500D01*
X207896961Y-110475500D01*
X208035053Y-110434953D01*
X208156128Y-110357143D01*
X208250377Y-110248373D01*
X208310165Y-110117457D01*
X208330647Y-109975000D01*
X208310165Y-109832543D01*
X208250377Y-109701627D01*
X208250375Y-109701624D01*
X208156127Y-109592856D01*
X208156125Y-109592855D01*
X208131722Y-109577172D01*
X208035053Y-109515047D01*
X208035052Y-109515046D01*
X207896963Y-109474500D01*
X207896961Y-109474500D01*
X207753039Y-109474500D01*
X207753036Y-109474500D01*
X207614948Y-109515046D01*
X207493874Y-109592855D01*
X207493872Y-109592857D01*
X207454055Y-109638808D01*
X207409104Y-109663818D01*
X207358594Y-109654082D01*
X207344049Y-109642736D01*
X207208726Y-109507413D01*
X207186986Y-109460793D01*
X207186700Y-109454239D01*
X207186700Y-106895760D01*
X207204293Y-106847422D01*
X207208715Y-106842597D01*
X207618874Y-106432437D01*
X207665494Y-106410698D01*
X207672660Y-106410897D01*
X207672660Y-106410500D01*
X207821958Y-106410500D01*
X207821961Y-106410500D01*
X207960053Y-106369953D01*
X208081128Y-106292143D01*
X208175377Y-106183373D01*
X208235165Y-106052457D01*
X208255647Y-105910000D01*
X208246631Y-105847295D01*
X208257167Y-105796946D01*
X208267888Y-105783423D01*
X209301415Y-104749898D01*
X209337844Y-104686803D01*
X209356700Y-104616428D01*
X209356700Y-104543572D01*
X209356700Y-98135761D01*
X209374293Y-98087423D01*
X209378726Y-98082587D01*
X210103456Y-97357857D01*
X210851415Y-96609898D01*
X210887844Y-96546803D01*
X210906700Y-96476428D01*
X210906700Y-96403572D01*
X210906700Y-63833572D01*
X210887844Y-63763198D01*
X210887844Y-63763197D01*
X210887844Y-63763196D01*
X210851416Y-63700103D01*
X208649899Y-61498586D01*
X208649898Y-61498585D01*
X208586803Y-61462156D01*
X208586800Y-61462155D01*
X208586801Y-61462155D01*
X208542183Y-61450200D01*
X208516428Y-61443300D01*
X208516427Y-61443300D01*
X200575761Y-61443300D01*
X200527423Y-61425707D01*
X200522587Y-61421274D01*
X200010187Y-60908874D01*
X199988447Y-60862254D01*
X200001761Y-60812567D01*
X200043898Y-60783062D01*
X200063361Y-60780500D01*
X200479749Y-60780500D01*
X200499242Y-60776622D01*
X200538231Y-60768867D01*
X200604552Y-60724552D01*
X200648867Y-60658231D01*
X200660500Y-60599748D01*
X200660500Y-59916817D01*
X200678093Y-59868479D01*
X200722642Y-59842759D01*
X200773300Y-59851692D01*
X200806365Y-59891097D01*
X200810614Y-59910263D01*
X200815430Y-59965316D01*
X200876569Y-60193490D01*
X200876570Y-60193494D01*
X200976398Y-60407576D01*
X201111885Y-60601072D01*
X201111896Y-60601085D01*
X201278914Y-60768103D01*
X201278927Y-60768114D01*
X201472423Y-60903601D01*
X201472423Y-60903602D01*
X201686505Y-61003429D01*
X201900000Y-61060634D01*
X201900000Y-60163012D01*
X201957007Y-60195925D01*
X202084174Y-60230000D01*
X202215826Y-60230000D01*
X202342993Y-60195925D01*
X202400000Y-60163012D01*
X202400000Y-61060634D01*
X202613494Y-61003429D01*
X202827576Y-60903602D01*
X202827576Y-60903601D01*
X203021072Y-60768114D01*
X203021085Y-60768103D01*
X203188103Y-60601085D01*
X203188114Y-60601072D01*
X203323601Y-60407576D01*
X203323602Y-60407576D01*
X203423429Y-60193494D01*
X203423430Y-60193490D01*
X203484569Y-59965316D01*
X203495479Y-59840615D01*
X203517218Y-59793995D01*
X203563839Y-59772255D01*
X203613526Y-59785569D01*
X203643031Y-59827706D01*
X203645231Y-59839798D01*
X203654699Y-59935932D01*
X203714765Y-60133947D01*
X203714770Y-60133959D01*
X203746593Y-60193494D01*
X203812315Y-60316450D01*
X203943590Y-60476410D01*
X204103550Y-60607685D01*
X204286046Y-60705232D01*
X204286050Y-60705233D01*
X204286052Y-60705234D01*
X204349733Y-60724551D01*
X204484066Y-60765300D01*
X204690000Y-60785583D01*
X204895934Y-60765300D01*
X205093954Y-60705232D01*
X205276450Y-60607685D01*
X205436410Y-60476410D01*
X205567685Y-60316450D01*
X205665232Y-60133954D01*
X205725300Y-59935934D01*
X205734768Y-59839797D01*
X205757014Y-59793418D01*
X205803869Y-59772188D01*
X205853408Y-59786043D01*
X205882451Y-59828499D01*
X205884520Y-59840615D01*
X205895430Y-59965316D01*
X205956569Y-60193490D01*
X205956570Y-60193494D01*
X206056398Y-60407576D01*
X206191885Y-60601072D01*
X206191896Y-60601085D01*
X206358914Y-60768103D01*
X206358927Y-60768114D01*
X206552423Y-60903601D01*
X206552423Y-60903602D01*
X206766505Y-61003429D01*
X206980000Y-61060634D01*
X206980000Y-60163012D01*
X207037007Y-60195925D01*
X207164174Y-60230000D01*
X207295826Y-60230000D01*
X207422993Y-60195925D01*
X207480000Y-60163012D01*
X207480000Y-61060634D01*
X207693494Y-61003429D01*
X207907576Y-60903602D01*
X207907576Y-60903601D01*
X208101072Y-60768114D01*
X208101085Y-60768103D01*
X208268103Y-60601085D01*
X208268114Y-60601072D01*
X208403601Y-60407576D01*
X208403602Y-60407576D01*
X208503429Y-60193494D01*
X208503431Y-60193490D01*
X208560636Y-59980000D01*
X207663012Y-59980000D01*
X207695925Y-59922993D01*
X207730000Y-59795826D01*
X207730000Y-59664174D01*
X207695925Y-59537007D01*
X207663012Y-59480000D01*
X208560636Y-59480000D01*
X208503431Y-59266509D01*
X208503429Y-59266505D01*
X208403603Y-59052427D01*
X208268107Y-58858918D01*
X208101085Y-58691896D01*
X208101072Y-58691885D01*
X207907576Y-58556398D01*
X207907576Y-58556397D01*
X207693494Y-58456570D01*
X207693490Y-58456568D01*
X207480000Y-58399364D01*
X207480000Y-59296988D01*
X207422993Y-59264075D01*
X207295826Y-59230000D01*
X207164174Y-59230000D01*
X207037007Y-59264075D01*
X206980000Y-59296988D01*
X206980000Y-58399364D01*
X206766509Y-58456568D01*
X206766505Y-58456570D01*
X206552427Y-58556396D01*
X206358918Y-58691892D01*
X206191892Y-58858918D01*
X206056396Y-59052427D01*
X205956570Y-59266505D01*
X205956569Y-59266509D01*
X205895430Y-59494683D01*
X205884520Y-59619384D01*
X205862780Y-59666005D01*
X205816160Y-59687744D01*
X205766473Y-59674430D01*
X205736968Y-59632293D01*
X205734769Y-59620205D01*
X205725300Y-59524066D01*
X205687598Y-59399778D01*
X205665234Y-59326052D01*
X205665229Y-59326040D01*
X205567687Y-59143554D01*
X205567684Y-59143549D01*
X205436410Y-58983590D01*
X205276450Y-58852315D01*
X205276445Y-58852312D01*
X205093959Y-58754770D01*
X205093947Y-58754765D01*
X204895932Y-58694699D01*
X204690000Y-58674417D01*
X204484067Y-58694699D01*
X204286052Y-58754765D01*
X204286040Y-58754770D01*
X204103554Y-58852312D01*
X204103549Y-58852315D01*
X203943590Y-58983590D01*
X203812315Y-59143549D01*
X203812312Y-59143554D01*
X203714770Y-59326040D01*
X203714765Y-59326052D01*
X203654699Y-59524067D01*
X203645231Y-59620201D01*
X203622984Y-59666582D01*
X203576129Y-59687811D01*
X203526590Y-59673956D01*
X203497547Y-59631499D01*
X203495479Y-59619384D01*
X203484569Y-59494683D01*
X203423430Y-59266509D01*
X203423429Y-59266505D01*
X203323603Y-59052427D01*
X203188107Y-58858918D01*
X203021085Y-58691896D01*
X203021072Y-58691885D01*
X202827576Y-58556398D01*
X202827576Y-58556397D01*
X202613494Y-58456570D01*
X202613490Y-58456568D01*
X202400000Y-58399364D01*
X202400000Y-59296988D01*
X202342993Y-59264075D01*
X202215826Y-59230000D01*
X202084174Y-59230000D01*
X201957007Y-59264075D01*
X201900000Y-59296988D01*
X201900000Y-58399364D01*
X201686509Y-58456568D01*
X201686505Y-58456570D01*
X201472427Y-58556396D01*
X201278918Y-58691892D01*
X201111892Y-58858918D01*
X200976396Y-59052427D01*
X200876570Y-59266505D01*
X200876569Y-59266509D01*
X200815430Y-59494683D01*
X200810614Y-59549736D01*
X200788874Y-59596356D01*
X200742254Y-59618096D01*
X200692567Y-59604782D01*
X200663062Y-59562645D01*
X200660500Y-59543182D01*
X200660500Y-58860251D01*
X200648867Y-58801770D01*
X200648866Y-58801768D01*
X200604552Y-58735448D01*
X200538231Y-58691133D01*
X200538229Y-58691132D01*
X200479749Y-58679500D01*
X200479748Y-58679500D01*
X198740252Y-58679500D01*
X198740251Y-58679500D01*
X198681770Y-58691132D01*
X198681768Y-58691133D01*
X198615448Y-58735448D01*
X198571133Y-58801768D01*
X198571132Y-58801770D01*
X198559500Y-58860251D01*
X198559500Y-60599748D01*
X198571132Y-60658229D01*
X198571133Y-60658231D01*
X198615448Y-60724552D01*
X198681769Y-60768867D01*
X198711010Y-60774683D01*
X198740251Y-60780500D01*
X198740252Y-60780500D01*
X199258100Y-60780500D01*
X199306438Y-60798093D01*
X199332158Y-60842642D01*
X199333300Y-60855700D01*
X199333300Y-60863572D01*
X199333300Y-60936428D01*
X199352156Y-61006803D01*
X199388585Y-61069898D01*
X200260102Y-61941415D01*
X200323197Y-61977844D01*
X200393572Y-61996700D01*
X200466428Y-61996700D01*
X201364112Y-61996700D01*
X201412450Y-62014293D01*
X201438170Y-62058842D01*
X201429237Y-62109500D01*
X201404768Y-62135162D01*
X201283874Y-62212855D01*
X201283869Y-62212859D01*
X201214995Y-62292345D01*
X201170045Y-62317355D01*
X201158163Y-62318300D01*
X200781428Y-62318300D01*
X200708572Y-62318300D01*
X200696155Y-62321627D01*
X200638199Y-62337155D01*
X200638197Y-62337155D01*
X200638197Y-62337156D01*
X200636985Y-62337856D01*
X200575100Y-62373586D01*
X199687413Y-63261274D01*
X199640793Y-63283014D01*
X199634239Y-63283300D01*
X196753572Y-63283300D01*
X196734717Y-63288352D01*
X196683199Y-63302155D01*
X196683197Y-63302156D01*
X196620099Y-63338586D01*
X195428585Y-64530101D01*
X195428583Y-64530103D01*
X195392155Y-64593196D01*
X195392156Y-64593197D01*
X195392156Y-64593198D01*
X195373354Y-64663373D01*
X195373300Y-64663573D01*
X195373300Y-65071816D01*
X195355707Y-65120154D01*
X195338758Y-65135076D01*
X195318872Y-65147857D01*
X195224624Y-65256624D01*
X195224622Y-65256627D01*
X195164835Y-65387540D01*
X195144353Y-65530000D01*
X194650500Y-65530000D01*
X194650500Y-57905700D01*
X194668093Y-57857362D01*
X194712642Y-57831642D01*
X194725700Y-57830500D01*
X212934300Y-57830500D01*
X212982638Y-57848093D01*
G37*
G04 #@! TD.AperFunction*
M02*
