M48
; DRILL file {KiCad 8.0.1} date 2025-02-25T21:28:10-0700
; FORMAT={-:-/ absolute / metric / decimal}
; #@! TF.CreationDate,2025-02-25T21:28:10-07:00
; #@! TF.GenerationSoftware,Kicad,Pcbnew,8.0.1
; #@! TF.FileFunction,Plated,1,2,PTH
FMAT,2
METRIC
; #@! TA.AperFunction,Plated,PTH,ViaDrill
T1C0.300
; #@! TA.AperFunction,Plated,PTH,ComponentDrill
T2C1.000
%
G90
G05
T1
X195.65Y-65.53
X196.47Y-110.02
X197.07Y-97.74
X198.41Y-96.64
X198.45Y-98.4
X198.49Y-81.06
X199.61Y-96.09
X199.9Y-106.51
X199.97Y-87.71
X201.25Y-106.25
X201.47Y-95.83
X201.48Y-65.61
X201.53Y-82.33
X201.615Y-62.595
X201.91Y-104.47
X202.94Y-95.92
X202.96Y-87.7
X203.16Y-102.95
X204.33Y-82.21
X204.34Y-94.35
X205.93Y-67.35
X205.97Y-87.484
X206.29Y-64.39
X206.38Y-62.72
X206.8Y-65.25
X206.82Y-93.96
X207.08Y-96.76
X207.32Y-82.51
X207.51Y-95.0
X207.75Y-105.91
X207.825Y-109.975
X208.83Y-67.46
X209.07Y-87.43
X209.9Y-94.39
X210.28Y-105.91
X211.86Y-89.3
T2
X199.61Y-59.73
X202.15Y-59.73
X204.69Y-59.73
X207.23Y-59.73
M30
