G04 #@! TF.GenerationSoftware,KiCad,Pcbnew,8.0.1*
G04 #@! TF.CreationDate,2025-02-25T21:27:59-07:00*
G04 #@! TF.ProjectId,LEDDisplay,4c454444-6973-4706-9c61-792e6b696361,rev?*
G04 #@! TF.SameCoordinates,Original*
G04 #@! TF.FileFunction,Copper,L1,Top*
G04 #@! TF.FilePolarity,Positive*
%FSLAX46Y46*%
G04 Gerber Fmt 4.6, Leading zero omitted, Abs format (unit mm)*
G04 Created by KiCad (PCBNEW 8.0.1) date 2025-02-25 21:27:59*
%MOMM*%
%LPD*%
G01*
G04 APERTURE LIST*
G04 Aperture macros list*
%AMRoundRect*
0 Rectangle with rounded corners*
0 $1 Rounding radius*
0 $2 $3 $4 $5 $6 $7 $8 $9 X,Y pos of 4 corners*
0 Add a 4 corners polygon primitive as box body*
4,1,4,$2,$3,$4,$5,$6,$7,$8,$9,$2,$3,0*
0 Add four circle primitives for the rounded corners*
1,1,$1+$1,$2,$3*
1,1,$1+$1,$4,$5*
1,1,$1+$1,$6,$7*
1,1,$1+$1,$8,$9*
0 Add four rect primitives between the rounded corners*
20,1,$1+$1,$2,$3,$4,$5,0*
20,1,$1+$1,$4,$5,$6,$7,0*
20,1,$1+$1,$6,$7,$8,$9,0*
20,1,$1+$1,$8,$9,$2,$3,0*%
G04 Aperture macros list end*
G04 #@! TA.AperFunction,SMDPad,CuDef*
%ADD10RoundRect,0.237500X-0.250000X-0.237500X0.250000X-0.237500X0.250000X0.237500X-0.250000X0.237500X0*%
G04 #@! TD*
G04 #@! TA.AperFunction,SMDPad,CuDef*
%ADD11RoundRect,0.237500X0.237500X-0.300000X0.237500X0.300000X-0.237500X0.300000X-0.237500X-0.300000X0*%
G04 #@! TD*
G04 #@! TA.AperFunction,ComponentPad*
%ADD12R,1.700000X1.700000*%
G04 #@! TD*
G04 #@! TA.AperFunction,ComponentPad*
%ADD13O,1.700000X1.700000*%
G04 #@! TD*
G04 #@! TA.AperFunction,SMDPad,CuDef*
%ADD14RoundRect,0.150000X0.150000X-0.512500X0.150000X0.512500X-0.150000X0.512500X-0.150000X-0.512500X0*%
G04 #@! TD*
G04 #@! TA.AperFunction,SMDPad,CuDef*
%ADD15RoundRect,0.250000X-0.450000X0.325000X-0.450000X-0.325000X0.450000X-0.325000X0.450000X0.325000X0*%
G04 #@! TD*
G04 #@! TA.AperFunction,SMDPad,CuDef*
%ADD16RoundRect,0.200000X-0.200000X-0.275000X0.200000X-0.275000X0.200000X0.275000X-0.200000X0.275000X0*%
G04 #@! TD*
G04 #@! TA.AperFunction,SMDPad,CuDef*
%ADD17RoundRect,0.225000X0.225000X0.250000X-0.225000X0.250000X-0.225000X-0.250000X0.225000X-0.250000X0*%
G04 #@! TD*
G04 #@! TA.AperFunction,SMDPad,CuDef*
%ADD18R,1.320800X0.508000*%
G04 #@! TD*
G04 #@! TA.AperFunction,SMDPad,CuDef*
%ADD19RoundRect,0.237500X-0.237500X0.300000X-0.237500X-0.300000X0.237500X-0.300000X0.237500X0.300000X0*%
G04 #@! TD*
G04 #@! TA.AperFunction,SMDPad,CuDef*
%ADD20RoundRect,0.075000X-0.225000X0.950000X-0.225000X-0.950000X0.225000X-0.950000X0.225000X0.950000X0*%
G04 #@! TD*
G04 #@! TA.AperFunction,SMDPad,CuDef*
%ADD21RoundRect,0.225000X0.250000X-0.225000X0.250000X0.225000X-0.250000X0.225000X-0.250000X-0.225000X0*%
G04 #@! TD*
G04 #@! TA.AperFunction,SMDPad,CuDef*
%ADD22RoundRect,0.200000X0.200000X0.275000X-0.200000X0.275000X-0.200000X-0.275000X0.200000X-0.275000X0*%
G04 #@! TD*
G04 #@! TA.AperFunction,SMDPad,CuDef*
%ADD23R,1.700000X0.650000*%
G04 #@! TD*
G04 #@! TA.AperFunction,ViaPad*
%ADD24C,0.600000*%
G04 #@! TD*
G04 #@! TA.AperFunction,Conductor*
%ADD25C,0.152400*%
G04 #@! TD*
G04 APERTURE END LIST*
D10*
X208200000Y-103830000D03*
X210025000Y-103830000D03*
D11*
X211810000Y-105060000D03*
X211810000Y-103335000D03*
D12*
X199610000Y-59730000D03*
D13*
X202150000Y-59730000D03*
X204690000Y-59730000D03*
X207230000Y-59730000D03*
D14*
X203030000Y-66050000D03*
X203980000Y-66050000D03*
X204930000Y-66050000D03*
X204930000Y-63775000D03*
X203030000Y-63775000D03*
D15*
X209000000Y-73975000D03*
X209000000Y-76025000D03*
D16*
X207890000Y-63780000D03*
X209540000Y-63780000D03*
D15*
X203000000Y-83975000D03*
X203000000Y-86025000D03*
X206000000Y-73975000D03*
X206000000Y-76025000D03*
X200000000Y-73975000D03*
X200000000Y-76025000D03*
X203000000Y-68975000D03*
X203000000Y-71025000D03*
D17*
X209490000Y-66050000D03*
X207940000Y-66050000D03*
D15*
X206020000Y-68975000D03*
X206020000Y-71025000D03*
D18*
X208990000Y-107200000D03*
X208990000Y-108150001D03*
X208990000Y-109100002D03*
X211580800Y-109100002D03*
X211580800Y-107200000D03*
D19*
X206770000Y-107195000D03*
X206770000Y-108920000D03*
D15*
X206000000Y-78975000D03*
X206000000Y-81025000D03*
D20*
X211150000Y-91530000D03*
X209880000Y-91530000D03*
X208610000Y-91530000D03*
X207340000Y-91530000D03*
X206070000Y-91530000D03*
X204800000Y-91530000D03*
X203530000Y-91530000D03*
X202260000Y-91530000D03*
X200990000Y-91530000D03*
X199720000Y-91530000D03*
X198450000Y-91530000D03*
X197180000Y-91530000D03*
X197180000Y-100840000D03*
X198450000Y-100840000D03*
X199720000Y-100840000D03*
X200990000Y-100840000D03*
X202260000Y-100840000D03*
X203530000Y-100840000D03*
X204800000Y-100840000D03*
X206070000Y-100840000D03*
X207340000Y-100840000D03*
X208610000Y-100840000D03*
X209880000Y-100840000D03*
X211150000Y-100840000D03*
D15*
X200000000Y-83975000D03*
X200000000Y-86025000D03*
X200000000Y-78975000D03*
X200000000Y-81025000D03*
X209000000Y-83975000D03*
X209000000Y-86025000D03*
D21*
X206090000Y-104550000D03*
X206090000Y-103000000D03*
D15*
X209000000Y-68975000D03*
X209000000Y-71025000D03*
D17*
X198900000Y-63700000D03*
X197350000Y-63700000D03*
D15*
X203000000Y-78975000D03*
X203000000Y-81025000D03*
D22*
X198880000Y-66200000D03*
X197230000Y-66200000D03*
D11*
X211820000Y-69225000D03*
X211820000Y-67500000D03*
D23*
X196710000Y-104580000D03*
X196710000Y-105850000D03*
X196710000Y-107120000D03*
X196710000Y-108390000D03*
X204010000Y-108390000D03*
X204010000Y-107120000D03*
X204010000Y-105850000D03*
X204010000Y-104580000D03*
D15*
X206000000Y-83975000D03*
X206000000Y-86025000D03*
X203000000Y-73975000D03*
X203000000Y-76025000D03*
D21*
X211810000Y-65280000D03*
X211810000Y-63730000D03*
D15*
X200000000Y-68975000D03*
X200000000Y-71025000D03*
X209000000Y-78975000D03*
X209000000Y-81025000D03*
D24*
X197070000Y-97740000D03*
X198490000Y-81060000D03*
X198450000Y-98400000D03*
X201530000Y-82330000D03*
X204330000Y-82210000D03*
X198410000Y-96640000D03*
X207320000Y-82510000D03*
X199610000Y-96090000D03*
X199970000Y-87710000D03*
X201470000Y-95830000D03*
X202940000Y-95920000D03*
X202960000Y-87700000D03*
X205970000Y-87483800D03*
X204340000Y-94350000D03*
X207080000Y-96760000D03*
X209070000Y-87430000D03*
X207825000Y-109975000D03*
X207750000Y-105910000D03*
X209900000Y-94390000D03*
X201910000Y-104470000D03*
X201250000Y-106250000D03*
X207510000Y-95000000D03*
X199900000Y-106510000D03*
X206820000Y-93960000D03*
X206290000Y-64390000D03*
X206380000Y-62720000D03*
X206800000Y-65250000D03*
X205930000Y-67350000D03*
X201615000Y-62595000D03*
X195650000Y-65530000D03*
X201480000Y-65610000D03*
X208830000Y-67460000D03*
X210280000Y-105910000D03*
X196470000Y-110020000D03*
X203160000Y-102950000D03*
X211860000Y-89300000D03*
D25*
X209698368Y-89850000D02*
X212330000Y-87218368D01*
X206070000Y-90505001D02*
X206725001Y-89850000D01*
X212330000Y-87218368D02*
X212330000Y-72490000D01*
X206725001Y-89850000D02*
X209698368Y-89850000D01*
X210865000Y-71025000D02*
X209000000Y-71025000D01*
X206070000Y-91530000D02*
X206070000Y-90505001D01*
X212330000Y-72490000D02*
X210865000Y-71025000D01*
X204800000Y-90060000D02*
X205510000Y-89350000D01*
X211910000Y-73060000D02*
X210935200Y-72085200D01*
X209700000Y-89350000D02*
X211910000Y-87140000D01*
X205510000Y-89350000D02*
X209700000Y-89350000D01*
X211910000Y-87140000D02*
X211910000Y-73060000D01*
X207815200Y-72085200D02*
X206755000Y-71025000D01*
X210935200Y-72085200D02*
X207815200Y-72085200D01*
X204800000Y-91530000D02*
X204800000Y-90060000D01*
X206755000Y-71025000D02*
X206020000Y-71025000D01*
X203530000Y-91530000D02*
X203530000Y-89940000D01*
X211550000Y-73320000D02*
X210667600Y-72437600D01*
X210667600Y-72437600D02*
X205237600Y-72437600D01*
X211550000Y-86958368D02*
X211550000Y-73320000D01*
X203530000Y-89940000D02*
X204500000Y-88970000D01*
X203825000Y-71025000D02*
X203000000Y-71025000D01*
X209538368Y-88970000D02*
X211550000Y-86958368D01*
X205237600Y-72437600D02*
X203825000Y-71025000D01*
X204500000Y-88970000D02*
X209538368Y-88970000D01*
X202600000Y-72790000D02*
X210450000Y-72790000D01*
X211197600Y-73537600D02*
X211197600Y-86812400D01*
X211197600Y-86812400D02*
X210230000Y-87780000D01*
X210230000Y-87780000D02*
X210200000Y-87780000D01*
X200000000Y-71025000D02*
X200835000Y-71025000D01*
X200835000Y-71025000D02*
X202600000Y-72790000D01*
X203460000Y-88580000D02*
X202260000Y-89780000D01*
X202260000Y-89780000D02*
X202260000Y-91530000D01*
X210200000Y-87780000D02*
X209400000Y-88580000D01*
X209400000Y-88580000D02*
X203460000Y-88580000D01*
X210450000Y-72790000D02*
X211197600Y-73537600D01*
X207985000Y-76025000D02*
X206190000Y-77820000D01*
X206190000Y-77820000D02*
X198760000Y-77820000D01*
X198760000Y-77820000D02*
X197320000Y-79260000D01*
X197320000Y-86500000D02*
X200990000Y-90170000D01*
X200990000Y-91530000D02*
X200990000Y-90505001D01*
X197320000Y-79260000D02*
X197320000Y-86500000D01*
X209000000Y-76025000D02*
X207985000Y-76025000D01*
X200990000Y-90170000D02*
X200990000Y-91530000D01*
X199720000Y-91530000D02*
X199720000Y-89640000D01*
X196967600Y-86887600D02*
X196967600Y-79032400D01*
X206000000Y-76250000D02*
X206000000Y-76025000D01*
X205225000Y-76025000D02*
X206000000Y-76025000D01*
X199720000Y-89640000D02*
X196967600Y-86887600D01*
X196967600Y-79032400D02*
X198532400Y-77467600D01*
X198532400Y-77467600D02*
X203782400Y-77467600D01*
X203782400Y-77467600D02*
X205225000Y-76025000D01*
X198450000Y-89810000D02*
X198450000Y-91530000D01*
X200984800Y-77115200D02*
X198314800Y-77115200D01*
X196615200Y-78814800D02*
X196615200Y-87975200D01*
X196615200Y-87975200D02*
X198450000Y-89810000D01*
X202075000Y-76025000D02*
X200984800Y-77115200D01*
X203000000Y-76025000D02*
X202075000Y-76025000D01*
X198314800Y-77115200D02*
X196615200Y-78814800D01*
X196262800Y-78517200D02*
X196262800Y-88192800D01*
X198755000Y-76025000D02*
X196262800Y-78517200D01*
X197180000Y-89110000D02*
X197180000Y-91530000D01*
X196262800Y-88192800D02*
X197180000Y-89110000D01*
X200000000Y-76025000D02*
X198755000Y-76025000D01*
X197180000Y-97850000D02*
X197180000Y-100840000D01*
X197070000Y-97740000D02*
X197180000Y-97850000D01*
X198490000Y-81060000D02*
X199965000Y-81060000D01*
X199965000Y-81060000D02*
X200000000Y-81025000D01*
X201530000Y-82330000D02*
X201530000Y-81580000D01*
X198450000Y-98400000D02*
X198450000Y-100840000D01*
X202085000Y-81025000D02*
X203000000Y-81025000D01*
X198450000Y-100840000D02*
X198450000Y-99850000D01*
X201530000Y-81580000D02*
X202085000Y-81025000D01*
X205145000Y-81025000D02*
X206000000Y-81025000D01*
X204330000Y-82210000D02*
X204330000Y-81840000D01*
X199720000Y-97950000D02*
X199720000Y-100840000D01*
X204330000Y-81840000D02*
X205145000Y-81025000D01*
X198410000Y-96640000D02*
X199720000Y-97950000D01*
X207320000Y-82510000D02*
X207320000Y-81770000D01*
X200990000Y-100840000D02*
X200990000Y-97470000D01*
X208065000Y-81025000D02*
X209000000Y-81025000D01*
X200990000Y-97470000D02*
X199610000Y-96090000D01*
X207320000Y-81770000D02*
X208065000Y-81025000D01*
X199970000Y-87710000D02*
X200000000Y-87680000D01*
X202260000Y-96620000D02*
X202260000Y-100840000D01*
X201470000Y-95830000D02*
X202260000Y-96620000D01*
X200000000Y-87680000D02*
X200000000Y-86025000D01*
X202960000Y-87700000D02*
X202940000Y-87680000D01*
X202940000Y-86085000D02*
X203000000Y-86025000D01*
X202940000Y-95920000D02*
X203530000Y-96510000D01*
X203530000Y-96510000D02*
X203530000Y-100840000D01*
X202940000Y-87680000D02*
X202940000Y-86085000D01*
X205970000Y-87483800D02*
X205970000Y-86055000D01*
X204340000Y-94350000D02*
X204800000Y-94810000D01*
X205970000Y-86055000D02*
X206000000Y-86025000D01*
X204800000Y-94810000D02*
X204800000Y-100840000D01*
X209070000Y-86095000D02*
X209000000Y-86025000D01*
X206070000Y-97770000D02*
X206070000Y-100840000D01*
X207080000Y-96760000D02*
X206070000Y-97770000D01*
X209070000Y-87430000D02*
X209070000Y-86095000D01*
X208970000Y-107220000D02*
X206970000Y-107220000D01*
X207090000Y-105910000D02*
X206770000Y-106230000D01*
X209010000Y-109120002D02*
X208990000Y-109100002D01*
X208505000Y-109975000D02*
X208990000Y-109490000D01*
X207750000Y-105910000D02*
X207090000Y-105910000D01*
X208990000Y-107200000D02*
X208970000Y-107220000D01*
X207825000Y-109975000D02*
X208505000Y-109975000D01*
X206770000Y-107286402D02*
X206770000Y-107020000D01*
X206770000Y-106230000D02*
X206770000Y-107020000D01*
X208990000Y-109490000D02*
X208990000Y-109100002D01*
X206970000Y-107220000D02*
X206770000Y-107020000D01*
X208990000Y-109100002D02*
X208583600Y-109100002D01*
X201910000Y-104470000D02*
X201910000Y-105080000D01*
X202690000Y-105860000D02*
X204530000Y-105860000D01*
X201910000Y-105080000D02*
X202690000Y-105860000D01*
X209900000Y-94390000D02*
X209880000Y-94370000D01*
X204530000Y-105860000D02*
X204620000Y-105770000D01*
X209880000Y-94370000D02*
X209880000Y-91530000D01*
X202040000Y-107040000D02*
X204620000Y-107040000D01*
X207510000Y-95000000D02*
X208610000Y-93900000D01*
X201250000Y-106250000D02*
X202040000Y-107040000D01*
X208610000Y-93900000D02*
X208610000Y-91530000D01*
X206090000Y-104550000D02*
X204040000Y-104550000D01*
X210555000Y-69225000D02*
X210305000Y-68975000D01*
X211580800Y-107200000D02*
X211580800Y-106249200D01*
X210305000Y-68975000D02*
X209000000Y-68975000D01*
X200000000Y-69000000D02*
X208975000Y-69000000D01*
X204040000Y-104550000D02*
X204010000Y-104580000D01*
X200000000Y-78975000D02*
X209000000Y-78975000D01*
X198975000Y-63775000D02*
X198900000Y-63700000D01*
X200000000Y-73975000D02*
X209000000Y-73975000D01*
X208975000Y-69000000D02*
X209000000Y-68975000D01*
X211810000Y-106020000D02*
X211810000Y-105235000D01*
X201595000Y-63775000D02*
X203030000Y-63775000D01*
X211820000Y-69225000D02*
X210555000Y-69225000D01*
X211580800Y-106249200D02*
X211810000Y-106020000D01*
X203030000Y-63775000D02*
X198975000Y-63775000D01*
X200000000Y-83975000D02*
X209000000Y-83975000D01*
X199325000Y-73975000D02*
X200000000Y-73975000D01*
X205450000Y-106650000D02*
X206170000Y-105930000D01*
X206170000Y-105930000D02*
X206571631Y-105930000D01*
X207340000Y-105161632D02*
X207340000Y-100840000D01*
X206571631Y-105930000D02*
X207340000Y-105161632D01*
X205450000Y-108180000D02*
X205450000Y-106650000D01*
X205240000Y-108390000D02*
X205450000Y-108180000D01*
X204010000Y-108390000D02*
X205240000Y-108390000D01*
X199900000Y-106510000D02*
X199290000Y-107120000D01*
X197320000Y-107040000D02*
X197400000Y-107120000D01*
X207340000Y-93440000D02*
X207340000Y-91530000D01*
X206820000Y-93960000D02*
X207340000Y-93440000D01*
X199290000Y-107120000D02*
X196710000Y-107120000D01*
X209880000Y-102430000D02*
X209880000Y-100840000D01*
X210025000Y-102575000D02*
X209880000Y-102430000D01*
X210025000Y-103830000D02*
X210025000Y-102575000D01*
X209870000Y-100850000D02*
X209880000Y-100840000D01*
X204690000Y-59730000D02*
X204690000Y-61030000D01*
X201267600Y-67277600D02*
X204622400Y-67277600D01*
X198880000Y-66200000D02*
X200190000Y-66200000D01*
X206290000Y-64390000D02*
X206290000Y-64470000D01*
X200190000Y-66200000D02*
X201267600Y-67277600D01*
X206290000Y-64470000D02*
X205760000Y-65000000D01*
X204930000Y-65300000D02*
X204930000Y-66050000D01*
X204622400Y-67277600D02*
X204930000Y-66970000D01*
X205760000Y-65000000D02*
X205230000Y-65000000D01*
X205230000Y-65000000D02*
X204930000Y-65300000D01*
X207940000Y-66050000D02*
X204930000Y-66050000D01*
X204930000Y-66970000D02*
X204930000Y-66050000D01*
X204690000Y-61030000D02*
X206380000Y-62720000D01*
X197290000Y-68950000D02*
X197290000Y-76060000D01*
X198610000Y-67630000D02*
X197290000Y-68950000D01*
X205930000Y-67350000D02*
X205650000Y-67630000D01*
X209540000Y-63780000D02*
X211760000Y-63780000D01*
X205650000Y-67630000D02*
X198610000Y-67630000D01*
X195540000Y-77810000D02*
X195540000Y-102390000D01*
X206800000Y-65250000D02*
X207310000Y-64740000D01*
X195140000Y-102790000D02*
X195140000Y-105360000D01*
X207310000Y-64740000D02*
X209150000Y-64740000D01*
X195140000Y-105360000D02*
X195630000Y-105850000D01*
X195540000Y-102390000D02*
X195140000Y-102790000D01*
X209150000Y-64740000D02*
X209540000Y-64350000D01*
X197290000Y-76060000D02*
X195540000Y-77810000D01*
X211760000Y-63780000D02*
X211810000Y-63730000D01*
X195630000Y-105850000D02*
X196710000Y-105850000D01*
X209540000Y-64350000D02*
X209540000Y-63780000D01*
X204575000Y-62595000D02*
X204930000Y-62950000D01*
X196320000Y-66200000D02*
X195650000Y-65530000D01*
X201615000Y-62595000D02*
X204575000Y-62595000D01*
X204930000Y-62950000D02*
X204930000Y-63775000D01*
X204935000Y-63780000D02*
X204930000Y-63775000D01*
X207890000Y-63780000D02*
X204935000Y-63780000D01*
X197230000Y-66200000D02*
X196320000Y-66200000D01*
X203980000Y-66050000D02*
X203030000Y-66050000D01*
X198460000Y-61550000D02*
X201510000Y-61550000D01*
X209490000Y-66050000D02*
X209490000Y-66800000D01*
X209490000Y-66050000D02*
X210130000Y-66050000D01*
X201920000Y-66050000D02*
X201480000Y-65610000D01*
X208990000Y-108150001D02*
X209769999Y-108150001D01*
X203160000Y-102950000D02*
X203210000Y-103000000D01*
X211150000Y-91530000D02*
X211150000Y-95490000D01*
X196710000Y-109780000D02*
X196470000Y-110020000D01*
X208990000Y-108150001D02*
X208159999Y-108150001D01*
X210200000Y-105990000D02*
X210280000Y-105910000D01*
X211820000Y-67500000D02*
X211820000Y-65290000D01*
X196710000Y-108390000D02*
X196710000Y-109780000D01*
X198320000Y-108390000D02*
X196710000Y-108390000D01*
X209490000Y-66800000D02*
X208830000Y-67460000D01*
X211150000Y-95490000D02*
X212670000Y-97010000D01*
X211810000Y-102510000D02*
X211810000Y-103160000D01*
X209769999Y-108150001D02*
X210200000Y-107720000D01*
X210130000Y-66050000D02*
X210900000Y-65280000D01*
X212670000Y-97010000D02*
X212670000Y-101650000D01*
X208159999Y-108150001D02*
X207390000Y-108920000D01*
X208200000Y-104680000D02*
X208200000Y-103830000D01*
X197350000Y-62660000D02*
X198460000Y-61550000D01*
X210200000Y-107720000D02*
X210200000Y-105990000D01*
X210900000Y-65280000D02*
X211810000Y-65280000D01*
X202150000Y-60910000D02*
X202150000Y-59730000D01*
X199640000Y-109710000D02*
X198320000Y-108390000D01*
X201510000Y-61550000D02*
X202150000Y-60910000D01*
X205270000Y-109710000D02*
X199640000Y-109710000D01*
X203210000Y-103000000D02*
X206090000Y-103000000D01*
X211150000Y-91530000D02*
X211150000Y-90010000D01*
X209460000Y-105090000D02*
X208610000Y-105090000D01*
X211820000Y-65290000D02*
X211810000Y-65280000D01*
X197350000Y-63700000D02*
X197350000Y-62660000D01*
X203030000Y-66050000D02*
X201920000Y-66050000D01*
X206060000Y-108920000D02*
X205270000Y-109710000D01*
X206770000Y-108920000D02*
X206060000Y-108920000D01*
X210280000Y-105910000D02*
X209460000Y-105090000D01*
X212670000Y-101650000D02*
X211810000Y-102510000D01*
X208610000Y-105090000D02*
X208200000Y-104680000D01*
X207390000Y-108920000D02*
X206770000Y-108920000D01*
X211150000Y-90010000D02*
X211860000Y-89300000D01*
G04 #@! TA.AperFunction,Conductor*
G36*
X212987826Y-57852174D02*
G01*
X213009500Y-57904500D01*
X213009500Y-96779535D01*
X212987826Y-96831861D01*
X212935500Y-96853535D01*
X212883174Y-96831861D01*
X211448374Y-95397061D01*
X211426700Y-95344735D01*
X211426700Y-92811343D01*
X211448374Y-92759017D01*
X211476464Y-92744008D01*
X211475759Y-92742306D01*
X211482492Y-92739516D01*
X211482492Y-92739515D01*
X211482495Y-92739515D01*
X211573624Y-92678624D01*
X211634515Y-92587495D01*
X211650500Y-92507133D01*
X211650499Y-90552868D01*
X211634515Y-90472505D01*
X211573624Y-90381376D01*
X211550684Y-90366048D01*
X211482495Y-90320484D01*
X211475763Y-90317696D01*
X211476890Y-90314974D01*
X211439166Y-90289760D01*
X211426700Y-90248656D01*
X211426700Y-90155264D01*
X211448373Y-90102939D01*
X211729300Y-89822011D01*
X211781625Y-89800338D01*
X211783878Y-89800500D01*
X211788039Y-89800500D01*
X211931963Y-89800500D01*
X211931964Y-89800499D01*
X212070053Y-89759953D01*
X212191128Y-89682143D01*
X212285377Y-89573373D01*
X212345165Y-89442457D01*
X212365647Y-89300000D01*
X212345165Y-89157543D01*
X212285377Y-89026627D01*
X212247597Y-88983026D01*
X212191131Y-88917860D01*
X212191129Y-88917859D01*
X212191128Y-88917857D01*
X212095966Y-88856700D01*
X212070054Y-88840047D01*
X212070050Y-88840046D01*
X211931964Y-88799500D01*
X211931961Y-88799500D01*
X211788039Y-88799500D01*
X211788036Y-88799500D01*
X211649949Y-88840046D01*
X211649945Y-88840047D01*
X211528875Y-88917855D01*
X211528868Y-88917860D01*
X211434623Y-89026626D01*
X211374834Y-89157545D01*
X211354353Y-89300000D01*
X211363453Y-89363297D01*
X211349446Y-89418174D01*
X211342532Y-89426153D01*
X210928584Y-89840103D01*
X210928583Y-89840105D01*
X210892159Y-89903190D01*
X210892157Y-89903194D01*
X210892156Y-89903196D01*
X210892156Y-89903197D01*
X210879995Y-89948585D01*
X210879995Y-89948586D01*
X210879994Y-89948585D01*
X210873300Y-89973571D01*
X210873300Y-90248656D01*
X210851626Y-90300982D01*
X210823535Y-90315999D01*
X210824238Y-90317696D01*
X210817505Y-90320484D01*
X210726377Y-90381375D01*
X210726375Y-90381377D01*
X210665485Y-90472504D01*
X210649500Y-90552868D01*
X210649500Y-92507130D01*
X210665485Y-92587495D01*
X210665485Y-92587496D01*
X210705986Y-92648108D01*
X210726376Y-92678624D01*
X210817504Y-92739514D01*
X210817505Y-92739515D01*
X210824238Y-92742304D01*
X210823109Y-92745029D01*
X210860825Y-92770225D01*
X210873300Y-92811343D01*
X210873300Y-95453572D01*
X210873300Y-95526428D01*
X210892156Y-95596803D01*
X210928585Y-95659898D01*
X212371626Y-97102939D01*
X212393300Y-97155264D01*
X212393300Y-101504734D01*
X212371626Y-101557060D01*
X212076326Y-101852360D01*
X212024000Y-101874034D01*
X211971674Y-101852360D01*
X211950000Y-101800034D01*
X211950000Y-101090000D01*
X211400000Y-101090000D01*
X211400000Y-102365000D01*
X211412688Y-102365000D01*
X211458064Y-102359026D01*
X211512771Y-102373685D01*
X211541090Y-102422734D01*
X211539202Y-102451544D01*
X211533300Y-102473571D01*
X211533300Y-102532170D01*
X211511626Y-102584496D01*
X211483741Y-102602017D01*
X211365526Y-102643382D01*
X211259290Y-102721788D01*
X211259288Y-102721790D01*
X211180882Y-102828026D01*
X211137276Y-102952645D01*
X211137275Y-102952649D01*
X211137275Y-102952651D01*
X211134500Y-102982244D01*
X211134500Y-103687756D01*
X211137275Y-103717349D01*
X211137275Y-103717351D01*
X211137276Y-103717354D01*
X211180882Y-103841973D01*
X211203242Y-103872269D01*
X211259289Y-103948211D01*
X211259292Y-103948213D01*
X211259293Y-103948214D01*
X211274119Y-103959156D01*
X211303350Y-104007667D01*
X211289717Y-104062638D01*
X211261454Y-104085761D01*
X211258701Y-104087044D01*
X211111962Y-104177554D01*
X210990054Y-104299462D01*
X210899548Y-104446194D01*
X210899546Y-104446200D01*
X210845319Y-104609846D01*
X210835000Y-104710856D01*
X210835000Y-104810000D01*
X212784999Y-104810000D01*
X212784999Y-104710861D01*
X212784998Y-104710855D01*
X212774680Y-104609846D01*
X212720453Y-104446200D01*
X212720451Y-104446194D01*
X212629945Y-104299462D01*
X212508037Y-104177554D01*
X212361301Y-104087046D01*
X212358549Y-104085763D01*
X212357675Y-104084810D01*
X212357635Y-104084785D01*
X212357642Y-104084773D01*
X212320285Y-104044006D01*
X212322755Y-103987423D01*
X212345877Y-103959158D01*
X212360711Y-103948211D01*
X212439116Y-103841975D01*
X212482725Y-103717349D01*
X212485500Y-103687756D01*
X212485500Y-102982244D01*
X212482725Y-102952651D01*
X212465916Y-102904613D01*
X212439117Y-102828026D01*
X212384168Y-102753573D01*
X212360711Y-102721789D01*
X212254475Y-102643384D01*
X212254473Y-102643383D01*
X212227444Y-102633925D01*
X212185213Y-102596185D01*
X212182038Y-102539637D01*
X212199557Y-102511754D01*
X212883175Y-101828137D01*
X212935500Y-101806464D01*
X212987826Y-101828138D01*
X213009500Y-101880464D01*
X213009500Y-110615500D01*
X212987826Y-110667826D01*
X212935500Y-110689500D01*
X194724500Y-110689500D01*
X194672174Y-110667826D01*
X194650500Y-110615500D01*
X194650500Y-108734746D01*
X195659500Y-108734746D01*
X195671133Y-108793232D01*
X195693199Y-108826255D01*
X195715448Y-108859552D01*
X195759560Y-108889027D01*
X195781767Y-108903866D01*
X195781768Y-108903866D01*
X195781769Y-108903867D01*
X195840252Y-108915500D01*
X196359300Y-108915500D01*
X196411626Y-108937174D01*
X196433300Y-108989500D01*
X196433300Y-109453750D01*
X196411626Y-109506076D01*
X196380149Y-109524752D01*
X196259947Y-109560046D01*
X196259945Y-109560047D01*
X196138875Y-109637855D01*
X196138868Y-109637860D01*
X196044623Y-109746626D01*
X195984834Y-109877545D01*
X195964353Y-110020000D01*
X195984834Y-110162454D01*
X195984834Y-110162455D01*
X195984835Y-110162457D01*
X196000344Y-110196416D01*
X196044623Y-110293373D01*
X196138868Y-110402139D01*
X196138869Y-110402140D01*
X196138872Y-110402143D01*
X196259947Y-110479953D01*
X196366403Y-110511211D01*
X196398035Y-110520499D01*
X196398037Y-110520500D01*
X196398039Y-110520500D01*
X196541963Y-110520500D01*
X196541964Y-110520499D01*
X196680053Y-110479953D01*
X196801128Y-110402143D01*
X196895377Y-110293373D01*
X196955165Y-110162457D01*
X196975647Y-110020000D01*
X196962309Y-109927233D01*
X196966792Y-109891542D01*
X196966588Y-109891488D01*
X196966985Y-109890005D01*
X196967189Y-109888383D01*
X196967843Y-109886804D01*
X196970324Y-109877545D01*
X196986700Y-109816428D01*
X196986700Y-108989500D01*
X197008374Y-108937174D01*
X197060700Y-108915500D01*
X197579746Y-108915500D01*
X197579748Y-108915500D01*
X197638231Y-108903867D01*
X197704552Y-108859552D01*
X197748867Y-108793231D01*
X197760500Y-108734748D01*
X197760500Y-108734745D01*
X197760629Y-108733439D01*
X197760837Y-108733048D01*
X197761209Y-108731182D01*
X197761775Y-108731294D01*
X197787333Y-108683492D01*
X197834272Y-108666700D01*
X198174735Y-108666700D01*
X198227061Y-108688374D01*
X199470102Y-109931415D01*
X199533197Y-109967844D01*
X199603572Y-109986700D01*
X199603573Y-109986700D01*
X205306427Y-109986700D01*
X205306428Y-109986700D01*
X205376803Y-109967844D01*
X205439898Y-109931415D01*
X206006661Y-109364650D01*
X206058986Y-109342977D01*
X206111312Y-109364651D01*
X206128833Y-109392537D01*
X206140882Y-109426972D01*
X206140883Y-109426973D01*
X206140884Y-109426975D01*
X206219289Y-109533211D01*
X206297695Y-109591076D01*
X206325526Y-109611617D01*
X206450145Y-109655223D01*
X206450151Y-109655225D01*
X206479744Y-109658000D01*
X206479751Y-109658000D01*
X207060249Y-109658000D01*
X207060256Y-109658000D01*
X207089849Y-109655225D01*
X207146532Y-109635390D01*
X207214473Y-109611617D01*
X207214473Y-109611616D01*
X207214475Y-109611616D01*
X207320711Y-109533211D01*
X207399116Y-109426975D01*
X207417741Y-109373750D01*
X207442723Y-109302354D01*
X207442722Y-109302354D01*
X207442725Y-109302349D01*
X207445500Y-109272756D01*
X207445500Y-109248373D01*
X207467174Y-109196047D01*
X207492931Y-109181178D01*
X207492320Y-109179701D01*
X207496805Y-109177843D01*
X207503472Y-109173993D01*
X207559898Y-109141415D01*
X208026675Y-108674637D01*
X208078999Y-108652964D01*
X208131325Y-108674638D01*
X208152999Y-108726964D01*
X208142761Y-108760718D01*
X208143523Y-108761034D01*
X208140733Y-108767768D01*
X208129100Y-108826255D01*
X208129100Y-109373748D01*
X208141202Y-109434590D01*
X208130153Y-109490139D01*
X208083061Y-109521605D01*
X208037886Y-109516341D01*
X208035054Y-109515048D01*
X208035053Y-109515047D01*
X208035050Y-109515046D01*
X207896964Y-109474500D01*
X207896961Y-109474500D01*
X207753039Y-109474500D01*
X207753036Y-109474500D01*
X207614949Y-109515046D01*
X207614945Y-109515047D01*
X207493875Y-109592855D01*
X207493868Y-109592860D01*
X207399623Y-109701626D01*
X207339834Y-109832545D01*
X207319353Y-109975000D01*
X207339834Y-110117454D01*
X207399623Y-110248373D01*
X207493868Y-110357139D01*
X207493869Y-110357140D01*
X207493872Y-110357143D01*
X207614947Y-110434953D01*
X207721403Y-110466211D01*
X207753035Y-110475499D01*
X207753037Y-110475500D01*
X207753039Y-110475500D01*
X207896963Y-110475500D01*
X207896964Y-110475499D01*
X208035053Y-110434953D01*
X208156128Y-110357143D01*
X208225364Y-110277239D01*
X208276010Y-110251889D01*
X208281289Y-110251700D01*
X208541427Y-110251700D01*
X208541428Y-110251700D01*
X208611803Y-110232844D01*
X208674898Y-110196415D01*
X209211415Y-109659898D01*
X209247844Y-109596803D01*
X209250270Y-109592602D01*
X209252651Y-109593977D01*
X209286490Y-109560136D01*
X209314811Y-109554502D01*
X209670146Y-109554502D01*
X209670148Y-109554502D01*
X209728631Y-109542869D01*
X209794952Y-109498554D01*
X209839267Y-109432233D01*
X209850900Y-109373750D01*
X209850900Y-109373748D01*
X210719900Y-109373748D01*
X210731533Y-109432234D01*
X210745910Y-109453750D01*
X210775848Y-109498554D01*
X210819960Y-109528029D01*
X210842167Y-109542868D01*
X210842168Y-109542868D01*
X210842169Y-109542869D01*
X210900652Y-109554502D01*
X210900654Y-109554502D01*
X212260946Y-109554502D01*
X212260948Y-109554502D01*
X212319431Y-109542869D01*
X212385752Y-109498554D01*
X212430067Y-109432233D01*
X212441700Y-109373750D01*
X212441700Y-108826254D01*
X212430067Y-108767771D01*
X212425565Y-108761034D01*
X212405693Y-108731294D01*
X212385752Y-108701450D01*
X212333746Y-108666700D01*
X212319432Y-108657135D01*
X212319433Y-108657135D01*
X212290189Y-108651318D01*
X212260948Y-108645502D01*
X210900652Y-108645502D01*
X210871410Y-108651318D01*
X210842167Y-108657135D01*
X210775849Y-108701449D01*
X210775847Y-108701451D01*
X210731533Y-108767769D01*
X210719900Y-108826255D01*
X210719900Y-109373748D01*
X209850900Y-109373748D01*
X209850900Y-108826254D01*
X209839267Y-108767771D01*
X209834765Y-108761034D01*
X209814893Y-108731294D01*
X209794952Y-108701450D01*
X209772620Y-108686528D01*
X209741157Y-108639436D01*
X209752207Y-108583887D01*
X209772619Y-108563475D01*
X209794952Y-108548553D01*
X209839267Y-108482232D01*
X209844572Y-108455559D01*
X209876035Y-108408470D01*
X209880148Y-108405913D01*
X209881489Y-108405139D01*
X209939897Y-108371416D01*
X210421415Y-107889898D01*
X210454237Y-107833047D01*
X210459985Y-107828634D01*
X210483963Y-107806052D01*
X210483965Y-107806051D01*
X210485472Y-107809066D01*
X210499161Y-107798558D01*
X210555316Y-107805935D01*
X210562680Y-107810791D01*
X210678311Y-107897353D01*
X210678312Y-107897354D01*
X210813019Y-107947596D01*
X210813024Y-107947597D01*
X210872571Y-107954000D01*
X211330800Y-107954000D01*
X211330800Y-107450000D01*
X211830800Y-107450000D01*
X211830800Y-107954000D01*
X212289029Y-107954000D01*
X212348575Y-107947597D01*
X212348580Y-107947596D01*
X212483287Y-107897354D01*
X212483288Y-107897353D01*
X212598388Y-107811188D01*
X212684553Y-107696088D01*
X212684554Y-107696087D01*
X212734796Y-107561380D01*
X212734797Y-107561375D01*
X212741200Y-107501828D01*
X212741200Y-107450000D01*
X211830800Y-107450000D01*
X211330800Y-107450000D01*
X211330800Y-106446000D01*
X211830800Y-106446000D01*
X211830800Y-106950000D01*
X212741200Y-106950000D01*
X212741200Y-106898171D01*
X212734797Y-106838624D01*
X212734796Y-106838619D01*
X212684554Y-106703912D01*
X212684553Y-106703911D01*
X212598388Y-106588811D01*
X212483288Y-106502646D01*
X212483287Y-106502645D01*
X212348580Y-106452403D01*
X212348575Y-106452402D01*
X212289029Y-106446000D01*
X211830800Y-106446000D01*
X211330800Y-106446000D01*
X210872571Y-106446000D01*
X210813024Y-106452402D01*
X210813019Y-106452403D01*
X210678312Y-106502645D01*
X210678311Y-106502646D01*
X210595047Y-106564978D01*
X210540169Y-106578985D01*
X210491460Y-106550085D01*
X210476700Y-106505738D01*
X210476700Y-106418941D01*
X210498374Y-106366615D01*
X210510689Y-106356690D01*
X210611128Y-106292143D01*
X210705377Y-106183373D01*
X210765165Y-106052457D01*
X210785647Y-105910000D01*
X210765165Y-105767543D01*
X210705377Y-105636627D01*
X210611128Y-105527857D01*
X210551996Y-105489855D01*
X210490054Y-105450047D01*
X210490050Y-105450046D01*
X210351964Y-105409500D01*
X210351961Y-105409500D01*
X210208039Y-105409500D01*
X210202747Y-105409500D01*
X210202747Y-105406508D01*
X210157270Y-105394894D01*
X210149300Y-105387987D01*
X210071313Y-105310000D01*
X210835001Y-105310000D01*
X210835001Y-105409144D01*
X210845319Y-105510153D01*
X210899546Y-105673799D01*
X210899548Y-105673805D01*
X210990054Y-105820537D01*
X211111962Y-105942445D01*
X211258694Y-106032951D01*
X211258700Y-106032953D01*
X211422346Y-106087180D01*
X211523357Y-106097499D01*
X211559999Y-106097498D01*
X211560000Y-106097498D01*
X211560000Y-105310000D01*
X212060000Y-105310000D01*
X212060000Y-106097499D01*
X212096639Y-106097499D01*
X212096644Y-106097498D01*
X212197653Y-106087180D01*
X212361299Y-106032953D01*
X212361305Y-106032951D01*
X212508037Y-105942445D01*
X212629945Y-105820537D01*
X212720451Y-105673805D01*
X212720453Y-105673799D01*
X212774680Y-105510153D01*
X212784999Y-105409143D01*
X212785000Y-105409141D01*
X212785000Y-105310000D01*
X212060000Y-105310000D01*
X211560000Y-105310000D01*
X210835001Y-105310000D01*
X210071313Y-105310000D01*
X209908400Y-105147087D01*
X209629898Y-104868585D01*
X209604660Y-104854013D01*
X209566809Y-104832159D01*
X209566803Y-104832156D01*
X209558756Y-104830000D01*
X209496428Y-104813300D01*
X209496427Y-104813300D01*
X208755265Y-104813300D01*
X208702939Y-104791626D01*
X208527982Y-104616669D01*
X208506308Y-104564343D01*
X208527982Y-104512017D01*
X208555867Y-104494496D01*
X208592287Y-104481751D01*
X208656975Y-104459116D01*
X208763211Y-104380711D01*
X208841616Y-104274475D01*
X208885225Y-104149849D01*
X208888000Y-104120256D01*
X209337000Y-104120256D01*
X209339775Y-104149849D01*
X209339775Y-104149851D01*
X209339776Y-104149854D01*
X209383382Y-104274473D01*
X209401825Y-104299462D01*
X209461789Y-104380711D01*
X209540049Y-104438469D01*
X209568026Y-104459117D01*
X209692645Y-104502723D01*
X209692651Y-104502725D01*
X209722244Y-104505500D01*
X209722251Y-104505500D01*
X210327749Y-104505500D01*
X210327756Y-104505500D01*
X210357349Y-104502725D01*
X210450871Y-104470000D01*
X210481973Y-104459117D01*
X210481973Y-104459116D01*
X210481975Y-104459116D01*
X210588211Y-104380711D01*
X210666616Y-104274475D01*
X210710225Y-104149849D01*
X210713000Y-104120256D01*
X210713000Y-103539744D01*
X210710225Y-103510151D01*
X210699052Y-103478220D01*
X210666617Y-103385526D01*
X210627219Y-103332144D01*
X210588211Y-103279289D01*
X210508829Y-103220703D01*
X210481973Y-103200882D01*
X210353099Y-103155787D01*
X210353855Y-103153624D01*
X210313411Y-103125489D01*
X210301700Y-103085538D01*
X210301700Y-102538573D01*
X210301699Y-102538570D01*
X210301227Y-102536809D01*
X210297201Y-102521780D01*
X210294929Y-102513298D01*
X210294929Y-102513297D01*
X210282845Y-102468201D01*
X210282844Y-102468197D01*
X210281821Y-102466426D01*
X210258753Y-102426472D01*
X210246415Y-102405102D01*
X210178374Y-102337061D01*
X210156700Y-102284735D01*
X210156700Y-102121343D01*
X210178374Y-102069017D01*
X210206464Y-102054008D01*
X210205759Y-102052306D01*
X210212492Y-102049516D01*
X210212492Y-102049515D01*
X210212495Y-102049515D01*
X210292307Y-101996185D01*
X210347854Y-101985136D01*
X210394946Y-102016601D01*
X210401785Y-102029396D01*
X210422737Y-102079979D01*
X210514905Y-102200094D01*
X210635020Y-102292262D01*
X210774895Y-102350200D01*
X210887312Y-102365000D01*
X210900000Y-102365000D01*
X210900000Y-99315000D01*
X211400000Y-99315000D01*
X211400000Y-100590000D01*
X211950000Y-100590000D01*
X211950000Y-99852311D01*
X211935200Y-99739895D01*
X211877262Y-99600020D01*
X211785094Y-99479905D01*
X211664979Y-99387737D01*
X211525104Y-99329799D01*
X211412688Y-99315000D01*
X211400000Y-99315000D01*
X210900000Y-99315000D01*
X210887312Y-99315000D01*
X210774895Y-99329799D01*
X210635020Y-99387737D01*
X210514905Y-99479905D01*
X210422738Y-99600019D01*
X210401785Y-99650604D01*
X210361736Y-99690652D01*
X210305099Y-99690652D01*
X210292305Y-99683813D01*
X210212495Y-99630485D01*
X210212490Y-99630484D01*
X210132133Y-99614500D01*
X210132131Y-99614500D01*
X209627869Y-99614500D01*
X209547504Y-99630485D01*
X209547503Y-99630485D01*
X209456377Y-99691375D01*
X209456375Y-99691377D01*
X209395485Y-99782504D01*
X209379500Y-99862868D01*
X209379500Y-101817130D01*
X209395485Y-101897495D01*
X209395485Y-101897496D01*
X209435986Y-101958108D01*
X209456376Y-101988624D01*
X209517395Y-102029396D01*
X209547505Y-102049515D01*
X209554238Y-102052304D01*
X209553109Y-102055029D01*
X209590825Y-102080225D01*
X209603300Y-102121343D01*
X209603300Y-102393572D01*
X209603300Y-102466428D01*
X209615444Y-102511752D01*
X209622156Y-102536803D01*
X209622159Y-102536809D01*
X209640087Y-102567860D01*
X209658585Y-102599898D01*
X209726626Y-102667939D01*
X209748300Y-102720264D01*
X209748300Y-103085538D01*
X209726626Y-103137864D01*
X209696409Y-103154381D01*
X209696901Y-103155787D01*
X209568026Y-103200882D01*
X209461790Y-103279288D01*
X209461788Y-103279290D01*
X209383382Y-103385526D01*
X209339776Y-103510145D01*
X209339775Y-103510149D01*
X209339775Y-103510151D01*
X209337000Y-103539744D01*
X209337000Y-104120256D01*
X208888000Y-104120256D01*
X208888000Y-103539744D01*
X208885225Y-103510151D01*
X208874052Y-103478220D01*
X208841617Y-103385526D01*
X208802219Y-103332144D01*
X208763211Y-103279289D01*
X208683829Y-103220703D01*
X208656973Y-103200882D01*
X208532354Y-103157276D01*
X208532355Y-103157276D01*
X208532350Y-103157275D01*
X208532349Y-103157275D01*
X208502756Y-103154500D01*
X207897244Y-103154500D01*
X207867651Y-103157275D01*
X207867649Y-103157275D01*
X207867645Y-103157276D01*
X207743026Y-103200882D01*
X207734642Y-103207071D01*
X207679670Y-103220703D01*
X207631159Y-103191472D01*
X207616700Y-103147530D01*
X207616700Y-102121343D01*
X207638374Y-102069017D01*
X207666464Y-102054008D01*
X207665759Y-102052306D01*
X207672492Y-102049516D01*
X207672492Y-102049515D01*
X207672495Y-102049515D01*
X207763624Y-101988624D01*
X207824515Y-101897495D01*
X207840500Y-101817133D01*
X207840500Y-101817130D01*
X208109500Y-101817130D01*
X208125485Y-101897495D01*
X208125485Y-101897496D01*
X208165986Y-101958108D01*
X208186376Y-101988624D01*
X208277505Y-102049515D01*
X208357867Y-102065500D01*
X208862132Y-102065499D01*
X208942495Y-102049515D01*
X209033624Y-101988624D01*
X209094515Y-101897495D01*
X209110500Y-101817133D01*
X209110499Y-99862868D01*
X209094515Y-99782505D01*
X209033624Y-99691376D01*
X208942495Y-99630485D01*
X208862133Y-99614500D01*
X208862131Y-99614500D01*
X208357869Y-99614500D01*
X208277504Y-99630485D01*
X208277503Y-99630485D01*
X208186377Y-99691375D01*
X208186375Y-99691377D01*
X208125485Y-99782504D01*
X208109500Y-99862868D01*
X208109500Y-101817130D01*
X207840500Y-101817130D01*
X207840499Y-99862868D01*
X207824515Y-99782505D01*
X207763624Y-99691376D01*
X207672495Y-99630485D01*
X207592133Y-99614500D01*
X207592131Y-99614500D01*
X207087869Y-99614500D01*
X207007504Y-99630485D01*
X207007503Y-99630485D01*
X206916377Y-99691375D01*
X206916375Y-99691377D01*
X206855485Y-99782504D01*
X206839500Y-99862868D01*
X206839500Y-101817130D01*
X206855485Y-101897495D01*
X206855485Y-101897496D01*
X206895986Y-101958108D01*
X206916376Y-101988624D01*
X206977395Y-102029396D01*
X207007505Y-102049515D01*
X207014238Y-102052304D01*
X207013109Y-102055029D01*
X207050825Y-102080225D01*
X207063300Y-102121343D01*
X207063300Y-103855702D01*
X207041626Y-103908028D01*
X206989300Y-103929702D01*
X206936974Y-103908028D01*
X206926318Y-103894551D01*
X206912574Y-103872269D01*
X206792731Y-103752426D01*
X206648484Y-103663454D01*
X206645243Y-103661942D01*
X206606983Y-103620181D01*
X206609457Y-103563598D01*
X206624193Y-103542554D01*
X206688528Y-103478220D01*
X206749719Y-103358126D01*
X206765500Y-103258488D01*
X206765500Y-102741512D01*
X206749719Y-102641874D01*
X206688528Y-102521780D01*
X206593220Y-102426472D01*
X206593219Y-102426471D01*
X206473126Y-102365281D01*
X206473125Y-102365280D01*
X206373489Y-102349500D01*
X206373488Y-102349500D01*
X205806512Y-102349500D01*
X205806511Y-102349500D01*
X205706874Y-102365280D01*
X205706873Y-102365281D01*
X205586780Y-102426471D01*
X205491471Y-102521780D01*
X205430282Y-102641871D01*
X205430280Y-102641877D01*
X205427271Y-102660877D01*
X205397678Y-102709168D01*
X205354182Y-102723300D01*
X203654249Y-102723300D01*
X203601923Y-102701626D01*
X203586937Y-102680043D01*
X203585377Y-102676627D01*
X203520728Y-102602017D01*
X203491131Y-102567860D01*
X203491129Y-102567859D01*
X203491128Y-102567857D01*
X203419431Y-102521780D01*
X203370054Y-102490047D01*
X203370050Y-102490046D01*
X203231964Y-102449500D01*
X203231961Y-102449500D01*
X203088039Y-102449500D01*
X203088036Y-102449500D01*
X202949949Y-102490046D01*
X202949945Y-102490047D01*
X202828875Y-102567855D01*
X202828868Y-102567860D01*
X202734623Y-102676626D01*
X202674834Y-102807545D01*
X202654353Y-102950000D01*
X202674834Y-103092454D01*
X202674834Y-103092455D01*
X202674835Y-103092457D01*
X202703757Y-103155787D01*
X202734623Y-103223373D01*
X202828868Y-103332139D01*
X202828869Y-103332140D01*
X202828872Y-103332143D01*
X202949947Y-103409953D01*
X203056403Y-103441211D01*
X203088035Y-103450499D01*
X203088037Y-103450500D01*
X203088039Y-103450500D01*
X203231963Y-103450500D01*
X203231964Y-103450499D01*
X203370053Y-103409953D01*
X203491128Y-103332143D01*
X203517038Y-103302241D01*
X203567685Y-103276889D01*
X203572964Y-103276700D01*
X205354182Y-103276700D01*
X205406508Y-103298374D01*
X205427271Y-103339123D01*
X205430280Y-103358122D01*
X205430282Y-103358128D01*
X205491471Y-103478219D01*
X205555803Y-103542551D01*
X205577477Y-103594877D01*
X205555803Y-103647203D01*
X205534759Y-103661940D01*
X205531520Y-103663450D01*
X205387268Y-103752426D01*
X205276653Y-103863042D01*
X205224327Y-103884716D01*
X205179980Y-103869956D01*
X205102088Y-103811646D01*
X205102087Y-103811645D01*
X204967380Y-103761403D01*
X204967375Y-103761402D01*
X204907829Y-103755000D01*
X204260000Y-103755000D01*
X204260000Y-104330000D01*
X205072000Y-104330000D01*
X205080326Y-104321674D01*
X205132652Y-104300000D01*
X206266000Y-104300000D01*
X206318326Y-104321674D01*
X206340000Y-104374000D01*
X206340000Y-105499999D01*
X206388307Y-105499999D01*
X206388312Y-105499998D01*
X206428650Y-105495878D01*
X206482907Y-105512122D01*
X206509787Y-105561975D01*
X206493543Y-105616232D01*
X206488499Y-105621818D01*
X206478695Y-105631623D01*
X206426370Y-105653300D01*
X206206428Y-105653300D01*
X206133572Y-105653300D01*
X206098384Y-105662728D01*
X206063196Y-105672156D01*
X206063190Y-105672159D01*
X206000105Y-105708583D01*
X206000103Y-105708584D01*
X205228584Y-106480103D01*
X205228583Y-106480105D01*
X205192159Y-106543190D01*
X205192157Y-106543194D01*
X205192156Y-106543196D01*
X205192156Y-106543197D01*
X205181817Y-106581788D01*
X205181816Y-106581790D01*
X205173300Y-106613573D01*
X205173300Y-106659050D01*
X205151626Y-106711376D01*
X205099300Y-106733050D01*
X205046974Y-106711376D01*
X205037772Y-106700164D01*
X205029661Y-106688025D01*
X205004552Y-106650448D01*
X204949366Y-106613573D01*
X204938232Y-106606133D01*
X204938233Y-106606133D01*
X204908989Y-106600316D01*
X204879748Y-106594500D01*
X203140252Y-106594500D01*
X203111010Y-106600316D01*
X203081767Y-106606133D01*
X203015449Y-106650447D01*
X203015447Y-106650449D01*
X202971133Y-106716767D01*
X202970782Y-106717616D01*
X202970131Y-106718266D01*
X202967083Y-106722829D01*
X202966175Y-106722222D01*
X202930736Y-106757666D01*
X202902414Y-106763300D01*
X202185265Y-106763300D01*
X202132939Y-106741626D01*
X201767466Y-106376153D01*
X201745792Y-106323827D01*
X201746543Y-106313310D01*
X201755647Y-106250000D01*
X201735165Y-106107543D01*
X201675377Y-105976627D01*
X201581128Y-105867857D01*
X201524182Y-105831260D01*
X201460054Y-105790047D01*
X201460050Y-105790046D01*
X201321964Y-105749500D01*
X201321961Y-105749500D01*
X201178039Y-105749500D01*
X201178036Y-105749500D01*
X201039949Y-105790046D01*
X201039945Y-105790047D01*
X200918875Y-105867855D01*
X200918868Y-105867860D01*
X200824623Y-105976626D01*
X200764834Y-106107545D01*
X200744353Y-106250000D01*
X200764834Y-106392454D01*
X200764834Y-106392455D01*
X200764835Y-106392457D01*
X200804862Y-106480102D01*
X200824623Y-106523373D01*
X200918868Y-106632139D01*
X200918869Y-106632140D01*
X200918872Y-106632143D01*
X201039947Y-106709953D01*
X201146403Y-106741211D01*
X201178035Y-106750499D01*
X201178037Y-106750500D01*
X201327254Y-106750500D01*
X201327254Y-106753512D01*
X201372662Y-106765055D01*
X201380699Y-106772012D01*
X201870102Y-107261415D01*
X201933197Y-107297844D01*
X202003572Y-107316700D01*
X202076428Y-107316700D01*
X202885500Y-107316700D01*
X202937826Y-107338374D01*
X202959500Y-107390700D01*
X202959500Y-107464748D01*
X202965856Y-107496700D01*
X202971133Y-107523232D01*
X202982228Y-107539836D01*
X203015448Y-107589552D01*
X203051246Y-107613472D01*
X203081767Y-107633866D01*
X203081768Y-107633866D01*
X203081769Y-107633867D01*
X203140252Y-107645500D01*
X203140254Y-107645500D01*
X204879746Y-107645500D01*
X204879748Y-107645500D01*
X204938231Y-107633867D01*
X205004552Y-107589552D01*
X205037772Y-107539836D01*
X205084865Y-107508371D01*
X205140413Y-107519421D01*
X205171878Y-107566514D01*
X205173300Y-107580949D01*
X205173300Y-107929050D01*
X205151626Y-107981376D01*
X205099300Y-108003050D01*
X205046974Y-107981376D01*
X205037772Y-107970164D01*
X205026971Y-107954000D01*
X205004552Y-107920448D01*
X204969990Y-107897354D01*
X204938232Y-107876133D01*
X204938233Y-107876133D01*
X204908989Y-107870316D01*
X204879748Y-107864500D01*
X203140252Y-107864500D01*
X203111010Y-107870316D01*
X203081767Y-107876133D01*
X203015449Y-107920447D01*
X203015447Y-107920449D01*
X202971133Y-107986767D01*
X202959500Y-108045253D01*
X202959500Y-108734746D01*
X202971133Y-108793232D01*
X202993199Y-108826255D01*
X203015448Y-108859552D01*
X203059560Y-108889027D01*
X203081767Y-108903866D01*
X203081768Y-108903866D01*
X203081769Y-108903867D01*
X203140252Y-108915500D01*
X203140254Y-108915500D01*
X204879746Y-108915500D01*
X204879748Y-108915500D01*
X204938231Y-108903867D01*
X205004552Y-108859552D01*
X205048867Y-108793231D01*
X205060500Y-108734748D01*
X205060500Y-108734745D01*
X205060629Y-108733439D01*
X205060837Y-108733048D01*
X205061209Y-108731182D01*
X205061775Y-108731294D01*
X205087333Y-108683492D01*
X205134272Y-108666700D01*
X205276427Y-108666700D01*
X205276428Y-108666700D01*
X205346803Y-108647844D01*
X205409898Y-108611415D01*
X205671415Y-108349898D01*
X205707844Y-108286803D01*
X205726700Y-108216428D01*
X205726700Y-108143572D01*
X205726700Y-106795265D01*
X205748374Y-106742939D01*
X206262939Y-106228374D01*
X206315265Y-106206700D01*
X206419300Y-106206700D01*
X206471626Y-106228374D01*
X206493300Y-106280700D01*
X206493300Y-106392170D01*
X206471626Y-106444496D01*
X206443741Y-106462017D01*
X206325526Y-106503382D01*
X206242067Y-106564978D01*
X206219289Y-106581789D01*
X206195832Y-106613573D01*
X206140882Y-106688026D01*
X206097276Y-106812645D01*
X206097275Y-106812649D01*
X206097275Y-106812651D01*
X206094500Y-106842244D01*
X206094500Y-107547756D01*
X206097275Y-107577349D01*
X206097275Y-107577351D01*
X206097276Y-107577354D01*
X206140882Y-107701973D01*
X206144691Y-107707134D01*
X206219289Y-107808211D01*
X206255914Y-107835241D01*
X206325526Y-107886617D01*
X206450145Y-107930223D01*
X206450151Y-107930225D01*
X206479744Y-107933000D01*
X206479751Y-107933000D01*
X207060249Y-107933000D01*
X207060256Y-107933000D01*
X207089849Y-107930225D01*
X207183791Y-107897353D01*
X207214473Y-107886617D01*
X207214473Y-107886616D01*
X207214475Y-107886616D01*
X207320711Y-107808211D01*
X207399116Y-107701975D01*
X207401177Y-107696087D01*
X207438455Y-107589552D01*
X207442725Y-107577349D01*
X207443996Y-107563788D01*
X207470462Y-107513717D01*
X207517673Y-107496700D01*
X208077438Y-107496700D01*
X208129764Y-107518374D01*
X208138966Y-107529587D01*
X208151107Y-107547756D01*
X208185048Y-107598552D01*
X208207377Y-107613472D01*
X208238842Y-107660565D01*
X208227792Y-107716113D01*
X208207379Y-107736527D01*
X208185049Y-107751448D01*
X208185047Y-107751450D01*
X208140733Y-107817768D01*
X208140732Y-107817770D01*
X208139007Y-107826442D01*
X208107538Y-107873532D01*
X208085584Y-107883478D01*
X208053199Y-107892156D01*
X208053197Y-107892156D01*
X208053196Y-107892157D01*
X208053194Y-107892157D01*
X208053189Y-107892160D01*
X207990104Y-107928584D01*
X207990102Y-107928585D01*
X207505162Y-108413523D01*
X207452836Y-108435197D01*
X207400510Y-108413523D01*
X207393296Y-108405139D01*
X207320714Y-108306793D01*
X207320713Y-108306792D01*
X207320711Y-108306789D01*
X207270135Y-108269462D01*
X207214473Y-108228382D01*
X207089854Y-108184776D01*
X207089855Y-108184776D01*
X207089850Y-108184775D01*
X207089849Y-108184775D01*
X207060256Y-108182000D01*
X206479744Y-108182000D01*
X206450151Y-108184775D01*
X206450149Y-108184775D01*
X206450145Y-108184776D01*
X206325526Y-108228382D01*
X206219290Y-108306788D01*
X206219288Y-108306790D01*
X206140882Y-108413026D01*
X206097276Y-108537645D01*
X206094500Y-108567249D01*
X206094500Y-108569300D01*
X206072826Y-108621626D01*
X206028051Y-108640172D01*
X206028380Y-108642667D01*
X206023574Y-108643299D01*
X205953196Y-108662156D01*
X205953190Y-108662159D01*
X205890105Y-108698583D01*
X205890103Y-108698584D01*
X205177061Y-109411626D01*
X205124735Y-109433300D01*
X199785265Y-109433300D01*
X199732939Y-109411626D01*
X199114544Y-108793231D01*
X198489898Y-108168585D01*
X198446576Y-108143572D01*
X198426809Y-108132159D01*
X198426803Y-108132156D01*
X198356428Y-108113300D01*
X198356427Y-108113300D01*
X197834272Y-108113300D01*
X197781946Y-108091626D01*
X197761654Y-108048729D01*
X197761209Y-108048818D01*
X197760855Y-108047039D01*
X197760629Y-108046561D01*
X197760500Y-108045254D01*
X197752105Y-108003050D01*
X197748867Y-107986769D01*
X197745263Y-107981376D01*
X197726971Y-107954000D01*
X197704552Y-107920448D01*
X197669990Y-107897354D01*
X197638232Y-107876133D01*
X197638233Y-107876133D01*
X197608989Y-107870316D01*
X197579748Y-107864500D01*
X195840252Y-107864500D01*
X195811010Y-107870316D01*
X195781767Y-107876133D01*
X195715449Y-107920447D01*
X195715447Y-107920449D01*
X195671133Y-107986767D01*
X195659500Y-108045253D01*
X195659500Y-108734746D01*
X194650500Y-108734746D01*
X194650500Y-107464748D01*
X195659500Y-107464748D01*
X195665856Y-107496700D01*
X195671133Y-107523232D01*
X195682228Y-107539836D01*
X195715448Y-107589552D01*
X195751246Y-107613472D01*
X195781767Y-107633866D01*
X195781768Y-107633866D01*
X195781769Y-107633867D01*
X195840252Y-107645500D01*
X195840254Y-107645500D01*
X197579746Y-107645500D01*
X197579748Y-107645500D01*
X197638231Y-107633867D01*
X197704552Y-107589552D01*
X197748867Y-107523231D01*
X197760500Y-107464748D01*
X197760500Y-107464745D01*
X197760629Y-107463439D01*
X197760837Y-107463048D01*
X197761209Y-107461182D01*
X197761775Y-107461294D01*
X197787333Y-107413492D01*
X197834272Y-107396700D01*
X199326427Y-107396700D01*
X199326428Y-107396700D01*
X199396803Y-107377844D01*
X199459898Y-107341415D01*
X199769300Y-107032011D01*
X199821625Y-107010338D01*
X199823878Y-107010500D01*
X199828039Y-107010500D01*
X199971963Y-107010500D01*
X199971964Y-107010499D01*
X200110053Y-106969953D01*
X200231128Y-106892143D01*
X200325377Y-106783373D01*
X200385165Y-106652457D01*
X200405647Y-106510000D01*
X200385165Y-106367543D01*
X200325377Y-106236627D01*
X200254861Y-106155246D01*
X200231131Y-106127860D01*
X200231129Y-106127859D01*
X200231128Y-106127857D01*
X200143304Y-106071416D01*
X200110054Y-106050047D01*
X200110050Y-106050046D01*
X199971964Y-106009500D01*
X199971961Y-106009500D01*
X199828039Y-106009500D01*
X199828036Y-106009500D01*
X199689949Y-106050046D01*
X199689945Y-106050047D01*
X199568875Y-106127855D01*
X199568868Y-106127860D01*
X199474623Y-106236626D01*
X199414834Y-106367545D01*
X199394353Y-106510000D01*
X199403453Y-106573297D01*
X199389446Y-106628174D01*
X199382532Y-106636153D01*
X199197061Y-106821626D01*
X199144735Y-106843300D01*
X197834272Y-106843300D01*
X197781946Y-106821626D01*
X197761654Y-106778729D01*
X197761209Y-106778818D01*
X197760855Y-106777039D01*
X197760629Y-106776561D01*
X197760500Y-106775254D01*
X197760500Y-106775252D01*
X197748867Y-106716769D01*
X197745263Y-106711376D01*
X197729661Y-106688026D01*
X197704552Y-106650448D01*
X197649366Y-106613573D01*
X197638232Y-106606133D01*
X197638233Y-106606133D01*
X197608989Y-106600316D01*
X197579748Y-106594500D01*
X195840252Y-106594500D01*
X195811010Y-106600316D01*
X195781767Y-106606133D01*
X195715449Y-106650447D01*
X195715447Y-106650449D01*
X195671133Y-106716767D01*
X195666104Y-106742050D01*
X195659500Y-106775252D01*
X195659500Y-107464748D01*
X194650500Y-107464748D01*
X194650500Y-105396428D01*
X194863300Y-105396428D01*
X194882156Y-105466803D01*
X194918585Y-105529898D01*
X195460102Y-106071415D01*
X195523197Y-106107844D01*
X195593572Y-106126700D01*
X195593577Y-106126700D01*
X195595340Y-106126932D01*
X195596120Y-106127382D01*
X195598257Y-106127955D01*
X195598103Y-106128527D01*
X195644392Y-106155246D01*
X195658613Y-106191217D01*
X195658791Y-106191182D01*
X195658985Y-106192159D01*
X195659330Y-106193031D01*
X195659498Y-106194739D01*
X195671133Y-106253232D01*
X195689487Y-106280700D01*
X195715448Y-106319552D01*
X195752954Y-106344613D01*
X195781767Y-106363866D01*
X195781768Y-106363866D01*
X195781769Y-106363867D01*
X195840252Y-106375500D01*
X195840254Y-106375500D01*
X197579746Y-106375500D01*
X197579748Y-106375500D01*
X197638231Y-106363867D01*
X197704552Y-106319552D01*
X197748867Y-106253231D01*
X197760500Y-106194748D01*
X197760500Y-105505252D01*
X197748867Y-105446769D01*
X197743747Y-105439107D01*
X197723726Y-105409144D01*
X197704552Y-105380448D01*
X197663299Y-105352883D01*
X197638232Y-105336133D01*
X197638233Y-105336133D01*
X197608989Y-105330316D01*
X197579748Y-105324500D01*
X195840252Y-105324500D01*
X195811010Y-105330316D01*
X195781767Y-105336133D01*
X195715449Y-105380447D01*
X195715447Y-105380449D01*
X195699977Y-105403600D01*
X195652883Y-105435064D01*
X195597335Y-105424012D01*
X195586124Y-105414811D01*
X195438374Y-105267061D01*
X195416700Y-105214735D01*
X195416700Y-104924748D01*
X195659500Y-104924748D01*
X195667255Y-104963736D01*
X195671133Y-104983232D01*
X195690610Y-105012380D01*
X195715448Y-105049552D01*
X195759560Y-105079027D01*
X195781767Y-105093866D01*
X195781768Y-105093866D01*
X195781769Y-105093867D01*
X195840252Y-105105500D01*
X195840254Y-105105500D01*
X197579746Y-105105500D01*
X197579748Y-105105500D01*
X197638231Y-105093867D01*
X197704552Y-105049552D01*
X197748867Y-104983231D01*
X197760500Y-104924748D01*
X197760500Y-104470000D01*
X201404353Y-104470000D01*
X201424834Y-104612454D01*
X201424834Y-104612455D01*
X201424835Y-104612457D01*
X201484623Y-104743373D01*
X201578868Y-104852140D01*
X201578870Y-104852141D01*
X201578872Y-104852143D01*
X201599307Y-104865275D01*
X201631608Y-104911796D01*
X201633300Y-104927528D01*
X201633300Y-105043572D01*
X201633300Y-105116428D01*
X201652156Y-105186803D01*
X201688585Y-105249898D01*
X202520102Y-106081415D01*
X202583197Y-106117844D01*
X202653572Y-106136700D01*
X202726428Y-106136700D01*
X202887224Y-106136700D01*
X202939550Y-106158374D01*
X202959801Y-106196262D01*
X202966189Y-106228374D01*
X202971133Y-106253232D01*
X202989487Y-106280700D01*
X203015448Y-106319552D01*
X203052954Y-106344613D01*
X203081767Y-106363866D01*
X203081768Y-106363866D01*
X203081769Y-106363867D01*
X203140252Y-106375500D01*
X203140254Y-106375500D01*
X204879746Y-106375500D01*
X204879748Y-106375500D01*
X204938231Y-106363867D01*
X205004552Y-106319552D01*
X205048867Y-106253231D01*
X205060500Y-106194748D01*
X205060500Y-105505252D01*
X205048867Y-105446769D01*
X205048866Y-105446767D01*
X205047445Y-105439621D01*
X205050026Y-105439107D01*
X205050028Y-105392931D01*
X205090077Y-105352883D01*
X205092536Y-105351916D01*
X205102089Y-105348353D01*
X205214291Y-105264357D01*
X205269169Y-105250349D01*
X205310965Y-105271270D01*
X205387268Y-105347573D01*
X205531517Y-105436547D01*
X205692391Y-105489855D01*
X205791689Y-105499999D01*
X205791690Y-105499999D01*
X205839999Y-105499998D01*
X205840000Y-105499998D01*
X205840000Y-104800000D01*
X205403000Y-104800000D01*
X205394674Y-104808326D01*
X205342348Y-104830000D01*
X202660000Y-104830000D01*
X202660000Y-104952828D01*
X202666402Y-105012375D01*
X202666403Y-105012380D01*
X202716645Y-105147087D01*
X202716646Y-105147088D01*
X202802811Y-105262188D01*
X202917911Y-105348353D01*
X202917912Y-105348354D01*
X202927465Y-105351917D01*
X202968918Y-105390510D01*
X202970658Y-105439243D01*
X202972555Y-105439621D01*
X202971134Y-105446767D01*
X202971133Y-105446769D01*
X202962332Y-105491018D01*
X202959500Y-105505253D01*
X202959500Y-105509300D01*
X202937826Y-105561626D01*
X202885500Y-105583300D01*
X202835265Y-105583300D01*
X202782939Y-105561626D01*
X202208374Y-104987061D01*
X202186700Y-104934735D01*
X202186700Y-104927528D01*
X202208374Y-104875202D01*
X202220688Y-104865278D01*
X202241128Y-104852143D01*
X202243074Y-104849898D01*
X202286310Y-104800000D01*
X202335377Y-104743373D01*
X202395165Y-104612457D01*
X202415647Y-104470000D01*
X202395518Y-104330000D01*
X202660000Y-104330000D01*
X203760000Y-104330000D01*
X203760000Y-103755000D01*
X203112171Y-103755000D01*
X203052624Y-103761402D01*
X203052619Y-103761403D01*
X202917912Y-103811645D01*
X202917911Y-103811646D01*
X202802811Y-103897811D01*
X202716646Y-104012911D01*
X202716645Y-104012912D01*
X202666403Y-104147619D01*
X202666402Y-104147624D01*
X202660000Y-104207171D01*
X202660000Y-104330000D01*
X202395518Y-104330000D01*
X202395165Y-104327543D01*
X202335377Y-104196627D01*
X202269202Y-104120256D01*
X202241131Y-104087860D01*
X202241129Y-104087859D01*
X202241128Y-104087857D01*
X202184182Y-104051260D01*
X202120054Y-104010047D01*
X202120050Y-104010046D01*
X201981964Y-103969500D01*
X201981961Y-103969500D01*
X201838039Y-103969500D01*
X201838036Y-103969500D01*
X201699949Y-104010046D01*
X201699945Y-104010047D01*
X201578875Y-104087855D01*
X201578868Y-104087860D01*
X201484623Y-104196626D01*
X201424834Y-104327545D01*
X201404353Y-104470000D01*
X197760500Y-104470000D01*
X197760500Y-104235252D01*
X197748867Y-104176769D01*
X197704552Y-104110448D01*
X197666183Y-104084810D01*
X197638232Y-104066133D01*
X197638233Y-104066133D01*
X197608989Y-104060316D01*
X197579748Y-104054500D01*
X195840252Y-104054500D01*
X195811010Y-104060316D01*
X195781767Y-104066133D01*
X195715449Y-104110447D01*
X195715447Y-104110449D01*
X195671133Y-104176767D01*
X195667183Y-104196626D01*
X195659500Y-104235252D01*
X195659500Y-104924748D01*
X195416700Y-104924748D01*
X195416700Y-102935264D01*
X195438373Y-102882939D01*
X195761415Y-102559898D01*
X195777432Y-102532156D01*
X195797844Y-102496802D01*
X195816700Y-102426428D01*
X195816700Y-97740000D01*
X196564353Y-97740000D01*
X196584834Y-97882454D01*
X196584834Y-97882455D01*
X196584835Y-97882457D01*
X196611136Y-97940047D01*
X196644623Y-98013373D01*
X196738868Y-98122139D01*
X196738869Y-98122140D01*
X196738872Y-98122143D01*
X196859947Y-98199953D01*
X196859950Y-98199954D01*
X196860036Y-98199993D01*
X196860075Y-98200035D01*
X196864399Y-98202814D01*
X196863690Y-98203917D01*
X196898632Y-98241443D01*
X196903300Y-98267308D01*
X196903300Y-99558656D01*
X196881626Y-99610982D01*
X196853535Y-99625999D01*
X196854238Y-99627696D01*
X196847505Y-99630484D01*
X196756377Y-99691375D01*
X196756375Y-99691377D01*
X196695485Y-99782504D01*
X196679500Y-99862868D01*
X196679500Y-101817130D01*
X196695485Y-101897495D01*
X196695485Y-101897496D01*
X196735986Y-101958108D01*
X196756376Y-101988624D01*
X196847505Y-102049515D01*
X196927867Y-102065500D01*
X197432132Y-102065499D01*
X197512495Y-102049515D01*
X197603624Y-101988624D01*
X197664515Y-101897495D01*
X197680500Y-101817133D01*
X197680499Y-99862868D01*
X197664515Y-99782505D01*
X197603624Y-99691376D01*
X197580684Y-99676048D01*
X197512495Y-99630484D01*
X197505763Y-99627696D01*
X197506890Y-99624974D01*
X197469166Y-99599760D01*
X197456700Y-99558656D01*
X197456700Y-98400000D01*
X197944353Y-98400000D01*
X197964834Y-98542454D01*
X198024623Y-98673373D01*
X198118868Y-98782140D01*
X198118870Y-98782141D01*
X198118872Y-98782143D01*
X198139307Y-98795275D01*
X198171608Y-98841796D01*
X198173300Y-98857528D01*
X198173300Y-99558656D01*
X198151626Y-99610982D01*
X198123535Y-99625999D01*
X198124238Y-99627696D01*
X198117505Y-99630484D01*
X198026377Y-99691375D01*
X198026375Y-99691377D01*
X197965485Y-99782504D01*
X197949500Y-99862868D01*
X197949500Y-101817130D01*
X197965485Y-101897495D01*
X197965485Y-101897496D01*
X198005986Y-101958108D01*
X198026376Y-101988624D01*
X198117505Y-102049515D01*
X198197867Y-102065500D01*
X198702132Y-102065499D01*
X198782495Y-102049515D01*
X198873624Y-101988624D01*
X198934515Y-101897495D01*
X198950500Y-101817133D01*
X198950499Y-99862868D01*
X198934515Y-99782505D01*
X198873624Y-99691376D01*
X198850684Y-99676048D01*
X198782495Y-99630484D01*
X198775763Y-99627696D01*
X198776890Y-99624974D01*
X198739166Y-99599760D01*
X198726700Y-99558656D01*
X198726700Y-98857528D01*
X198748374Y-98805202D01*
X198760688Y-98795278D01*
X198781128Y-98782143D01*
X198875377Y-98673373D01*
X198935165Y-98542457D01*
X198955647Y-98400000D01*
X198935165Y-98257543D01*
X198875377Y-98126627D01*
X198781128Y-98017857D01*
X198724182Y-97981260D01*
X198660054Y-97940047D01*
X198660050Y-97940046D01*
X198521964Y-97899500D01*
X198521961Y-97899500D01*
X198378039Y-97899500D01*
X198378036Y-97899500D01*
X198239949Y-97940046D01*
X198239945Y-97940047D01*
X198118875Y-98017855D01*
X198118868Y-98017860D01*
X198024623Y-98126626D01*
X197964834Y-98257545D01*
X197944353Y-98400000D01*
X197456700Y-98400000D01*
X197456700Y-98085608D01*
X197474773Y-98037149D01*
X197495377Y-98013373D01*
X197555165Y-97882457D01*
X197575647Y-97740000D01*
X197555165Y-97597543D01*
X197495377Y-97466627D01*
X197401128Y-97357857D01*
X197311261Y-97300103D01*
X197280054Y-97280047D01*
X197280050Y-97280046D01*
X197141964Y-97239500D01*
X197141961Y-97239500D01*
X196998039Y-97239500D01*
X196998036Y-97239500D01*
X196859949Y-97280046D01*
X196859945Y-97280047D01*
X196738875Y-97357855D01*
X196738868Y-97357860D01*
X196644623Y-97466626D01*
X196584834Y-97597545D01*
X196564353Y-97740000D01*
X195816700Y-97740000D01*
X195816700Y-96640000D01*
X197904353Y-96640000D01*
X197924834Y-96782454D01*
X197924834Y-96782455D01*
X197924835Y-96782457D01*
X197951161Y-96840102D01*
X197984623Y-96913373D01*
X198078868Y-97022139D01*
X198078869Y-97022140D01*
X198078872Y-97022143D01*
X198199947Y-97099953D01*
X198306403Y-97131211D01*
X198338035Y-97140499D01*
X198338037Y-97140500D01*
X198487254Y-97140500D01*
X198487254Y-97143512D01*
X198532662Y-97155055D01*
X198540699Y-97162012D01*
X199421626Y-98042939D01*
X199443300Y-98095265D01*
X199443300Y-99558656D01*
X199421626Y-99610982D01*
X199393535Y-99625999D01*
X199394238Y-99627696D01*
X199387505Y-99630484D01*
X199296377Y-99691375D01*
X199296375Y-99691377D01*
X199235485Y-99782504D01*
X199219500Y-99862868D01*
X199219500Y-101817130D01*
X199235485Y-101897495D01*
X199235485Y-101897496D01*
X199275986Y-101958108D01*
X199296376Y-101988624D01*
X199387505Y-102049515D01*
X199467867Y-102065500D01*
X199972132Y-102065499D01*
X200052495Y-102049515D01*
X200143624Y-101988624D01*
X200204515Y-101897495D01*
X200220500Y-101817133D01*
X200220499Y-99862868D01*
X200204515Y-99782505D01*
X200143624Y-99691376D01*
X200120684Y-99676048D01*
X200052495Y-99630484D01*
X200045763Y-99627696D01*
X200046890Y-99624974D01*
X200009166Y-99599760D01*
X199996700Y-99558656D01*
X199996700Y-97913573D01*
X199992929Y-97899500D01*
X199977844Y-97843198D01*
X199977844Y-97843197D01*
X199977843Y-97843194D01*
X199959629Y-97811649D01*
X199941415Y-97780102D01*
X198927466Y-96766153D01*
X198905792Y-96713827D01*
X198906543Y-96703310D01*
X198915647Y-96640000D01*
X198895165Y-96497543D01*
X198835377Y-96366627D01*
X198741128Y-96257857D01*
X198669997Y-96212144D01*
X198620054Y-96180047D01*
X198620050Y-96180046D01*
X198481964Y-96139500D01*
X198481961Y-96139500D01*
X198338039Y-96139500D01*
X198338036Y-96139500D01*
X198199949Y-96180046D01*
X198199945Y-96180047D01*
X198078875Y-96257855D01*
X198078868Y-96257860D01*
X197984623Y-96366626D01*
X197924834Y-96497545D01*
X197904353Y-96640000D01*
X195816700Y-96640000D01*
X195816700Y-96090000D01*
X199104353Y-96090000D01*
X199124834Y-96232454D01*
X199124834Y-96232455D01*
X199124835Y-96232457D01*
X199165751Y-96322050D01*
X199184623Y-96363373D01*
X199278868Y-96472139D01*
X199278869Y-96472140D01*
X199278872Y-96472143D01*
X199399947Y-96549953D01*
X199506403Y-96581211D01*
X199538035Y-96590499D01*
X199538037Y-96590500D01*
X199687254Y-96590500D01*
X199687254Y-96593512D01*
X199732662Y-96605055D01*
X199740699Y-96612012D01*
X200691626Y-97562939D01*
X200713300Y-97615265D01*
X200713300Y-99558656D01*
X200691626Y-99610982D01*
X200663535Y-99625999D01*
X200664238Y-99627696D01*
X200657505Y-99630484D01*
X200566377Y-99691375D01*
X200566375Y-99691377D01*
X200505485Y-99782504D01*
X200489500Y-99862868D01*
X200489500Y-101817130D01*
X200505485Y-101897495D01*
X200505485Y-101897496D01*
X200545986Y-101958108D01*
X200566376Y-101988624D01*
X200657505Y-102049515D01*
X200737867Y-102065500D01*
X201242132Y-102065499D01*
X201322495Y-102049515D01*
X201413624Y-101988624D01*
X201474515Y-101897495D01*
X201490500Y-101817133D01*
X201490499Y-99862868D01*
X201474515Y-99782505D01*
X201413624Y-99691376D01*
X201390684Y-99676048D01*
X201322495Y-99630484D01*
X201315763Y-99627696D01*
X201316890Y-99624974D01*
X201279166Y-99599760D01*
X201266700Y-99558656D01*
X201266700Y-97433573D01*
X201247844Y-97363198D01*
X201247844Y-97363197D01*
X201247843Y-97363194D01*
X201229629Y-97331649D01*
X201211415Y-97300102D01*
X200127466Y-96216153D01*
X200105792Y-96163827D01*
X200106543Y-96153310D01*
X200115647Y-96090000D01*
X200095165Y-95947543D01*
X200041484Y-95830000D01*
X200964353Y-95830000D01*
X200984834Y-95972454D01*
X200984834Y-95972455D01*
X200984835Y-95972457D01*
X201006530Y-96019961D01*
X201044623Y-96103373D01*
X201138868Y-96212139D01*
X201138869Y-96212140D01*
X201138872Y-96212143D01*
X201259947Y-96289953D01*
X201366403Y-96321211D01*
X201398035Y-96330499D01*
X201398037Y-96330500D01*
X201547254Y-96330500D01*
X201547254Y-96333512D01*
X201592662Y-96345055D01*
X201600699Y-96352012D01*
X201961626Y-96712939D01*
X201983300Y-96765265D01*
X201983300Y-99558656D01*
X201961626Y-99610982D01*
X201933535Y-99625999D01*
X201934238Y-99627696D01*
X201927505Y-99630484D01*
X201836377Y-99691375D01*
X201836375Y-99691377D01*
X201775485Y-99782504D01*
X201759500Y-99862868D01*
X201759500Y-101817130D01*
X201775485Y-101897495D01*
X201775485Y-101897496D01*
X201815986Y-101958108D01*
X201836376Y-101988624D01*
X201927505Y-102049515D01*
X202007867Y-102065500D01*
X202512132Y-102065499D01*
X202592495Y-102049515D01*
X202683624Y-101988624D01*
X202744515Y-101897495D01*
X202760500Y-101817133D01*
X202760499Y-99862868D01*
X202744515Y-99782505D01*
X202683624Y-99691376D01*
X202660684Y-99676048D01*
X202592495Y-99630484D01*
X202585763Y-99627696D01*
X202586890Y-99624974D01*
X202549166Y-99599760D01*
X202536700Y-99558656D01*
X202536700Y-96583573D01*
X202517844Y-96513198D01*
X202517844Y-96513197D01*
X202517843Y-96513194D01*
X202492959Y-96470097D01*
X202481415Y-96450102D01*
X201987466Y-95956153D01*
X201972491Y-95920000D01*
X202434353Y-95920000D01*
X202454834Y-96062454D01*
X202514623Y-96193373D01*
X202608868Y-96302139D01*
X202608869Y-96302140D01*
X202608872Y-96302143D01*
X202675645Y-96345055D01*
X202726685Y-96377857D01*
X202729947Y-96379953D01*
X202809086Y-96403190D01*
X202868035Y-96420499D01*
X202868037Y-96420500D01*
X203017254Y-96420500D01*
X203017254Y-96423512D01*
X203062662Y-96435055D01*
X203070699Y-96442012D01*
X203231626Y-96602939D01*
X203253300Y-96655265D01*
X203253300Y-99558656D01*
X203231626Y-99610982D01*
X203203535Y-99625999D01*
X203204238Y-99627696D01*
X203197505Y-99630484D01*
X203106377Y-99691375D01*
X203106375Y-99691377D01*
X203045485Y-99782504D01*
X203029500Y-99862868D01*
X203029500Y-101817130D01*
X203045485Y-101897495D01*
X203045485Y-101897496D01*
X203085986Y-101958108D01*
X203106376Y-101988624D01*
X203197505Y-102049515D01*
X203277867Y-102065500D01*
X203782132Y-102065499D01*
X203862495Y-102049515D01*
X203953624Y-101988624D01*
X204014515Y-101897495D01*
X204030500Y-101817133D01*
X204030499Y-99862868D01*
X204014515Y-99782505D01*
X203953624Y-99691376D01*
X203930684Y-99676048D01*
X203862495Y-99630484D01*
X203855763Y-99627696D01*
X203856890Y-99624974D01*
X203819166Y-99599760D01*
X203806700Y-99558656D01*
X203806700Y-96473572D01*
X203805770Y-96470103D01*
X203805770Y-96470102D01*
X203787844Y-96403197D01*
X203751415Y-96340102D01*
X203457466Y-96046153D01*
X203435792Y-95993827D01*
X203436543Y-95983310D01*
X203445647Y-95920000D01*
X203425165Y-95777543D01*
X203365377Y-95646627D01*
X203287392Y-95556627D01*
X203271131Y-95537860D01*
X203271129Y-95537859D01*
X203271128Y-95537857D01*
X203212998Y-95500499D01*
X203150054Y-95460047D01*
X203150050Y-95460046D01*
X203011964Y-95419500D01*
X203011961Y-95419500D01*
X202868039Y-95419500D01*
X202868036Y-95419500D01*
X202729949Y-95460046D01*
X202729945Y-95460047D01*
X202608875Y-95537855D01*
X202608868Y-95537860D01*
X202514623Y-95646626D01*
X202454834Y-95777545D01*
X202434353Y-95920000D01*
X201972491Y-95920000D01*
X201965792Y-95903827D01*
X201966543Y-95893310D01*
X201975647Y-95830000D01*
X201955165Y-95687543D01*
X201895377Y-95556627D01*
X201811690Y-95460046D01*
X201801131Y-95447860D01*
X201801129Y-95447859D01*
X201801128Y-95447857D01*
X201722088Y-95397061D01*
X201680054Y-95370047D01*
X201680050Y-95370046D01*
X201541964Y-95329500D01*
X201541961Y-95329500D01*
X201398039Y-95329500D01*
X201398036Y-95329500D01*
X201259949Y-95370046D01*
X201259945Y-95370047D01*
X201138875Y-95447855D01*
X201138868Y-95447860D01*
X201044623Y-95556626D01*
X200984834Y-95687545D01*
X200964353Y-95830000D01*
X200041484Y-95830000D01*
X200035377Y-95816627D01*
X199941128Y-95707857D01*
X199866496Y-95659894D01*
X199820054Y-95630047D01*
X199820050Y-95630046D01*
X199681964Y-95589500D01*
X199681961Y-95589500D01*
X199538039Y-95589500D01*
X199538036Y-95589500D01*
X199399949Y-95630046D01*
X199399945Y-95630047D01*
X199278875Y-95707855D01*
X199278868Y-95707860D01*
X199184623Y-95816626D01*
X199124834Y-95947545D01*
X199104353Y-96090000D01*
X195816700Y-96090000D01*
X195816700Y-94350000D01*
X203834353Y-94350000D01*
X203854834Y-94492454D01*
X203854834Y-94492455D01*
X203854835Y-94492457D01*
X203876569Y-94540047D01*
X203914623Y-94623373D01*
X204008868Y-94732139D01*
X204008869Y-94732140D01*
X204008872Y-94732143D01*
X204129947Y-94809953D01*
X204236403Y-94841211D01*
X204268035Y-94850499D01*
X204268037Y-94850500D01*
X204417254Y-94850500D01*
X204417254Y-94853512D01*
X204462662Y-94865055D01*
X204470699Y-94872012D01*
X204501626Y-94902939D01*
X204523300Y-94955265D01*
X204523300Y-99558656D01*
X204501626Y-99610982D01*
X204473535Y-99625999D01*
X204474238Y-99627696D01*
X204467505Y-99630484D01*
X204376377Y-99691375D01*
X204376375Y-99691377D01*
X204315485Y-99782504D01*
X204299500Y-99862868D01*
X204299500Y-101817130D01*
X204315485Y-101897495D01*
X204315485Y-101897496D01*
X204355986Y-101958108D01*
X204376376Y-101988624D01*
X204467505Y-102049515D01*
X204547867Y-102065500D01*
X205052132Y-102065499D01*
X205132495Y-102049515D01*
X205223624Y-101988624D01*
X205284515Y-101897495D01*
X205300500Y-101817133D01*
X205300500Y-101817130D01*
X205569500Y-101817130D01*
X205585485Y-101897495D01*
X205585485Y-101897496D01*
X205625986Y-101958108D01*
X205646376Y-101988624D01*
X205737505Y-102049515D01*
X205817867Y-102065500D01*
X206322132Y-102065499D01*
X206402495Y-102049515D01*
X206493624Y-101988624D01*
X206554515Y-101897495D01*
X206570500Y-101817133D01*
X206570499Y-99862868D01*
X206554515Y-99782505D01*
X206493624Y-99691376D01*
X206470684Y-99676048D01*
X206402495Y-99630484D01*
X206395763Y-99627696D01*
X206396890Y-99624974D01*
X206359166Y-99599760D01*
X206346700Y-99558656D01*
X206346700Y-97915264D01*
X206368373Y-97862939D01*
X206949300Y-97282011D01*
X207001625Y-97260338D01*
X207003878Y-97260500D01*
X207008039Y-97260500D01*
X207151963Y-97260500D01*
X207151964Y-97260499D01*
X207290053Y-97219953D01*
X207411128Y-97142143D01*
X207505377Y-97033373D01*
X207565165Y-96902457D01*
X207585647Y-96760000D01*
X207565165Y-96617543D01*
X207505377Y-96486627D01*
X207433085Y-96403197D01*
X207411131Y-96377860D01*
X207411129Y-96377859D01*
X207411128Y-96377857D01*
X207352385Y-96340105D01*
X207290054Y-96300047D01*
X207290050Y-96300046D01*
X207151964Y-96259500D01*
X207151961Y-96259500D01*
X207008039Y-96259500D01*
X207008036Y-96259500D01*
X206869949Y-96300046D01*
X206869945Y-96300047D01*
X206748875Y-96377855D01*
X206748868Y-96377860D01*
X206654623Y-96486626D01*
X206594834Y-96617545D01*
X206574353Y-96760000D01*
X206583453Y-96823296D01*
X206569446Y-96878174D01*
X206562532Y-96886153D01*
X205848584Y-97600103D01*
X205848583Y-97600105D01*
X205812159Y-97663190D01*
X205812154Y-97663201D01*
X205804396Y-97692155D01*
X205804397Y-97692156D01*
X205793300Y-97733573D01*
X205793300Y-99558656D01*
X205771626Y-99610982D01*
X205743535Y-99625999D01*
X205744238Y-99627696D01*
X205737505Y-99630484D01*
X205646377Y-99691375D01*
X205646375Y-99691377D01*
X205585485Y-99782504D01*
X205569500Y-99862868D01*
X205569500Y-101817130D01*
X205300500Y-101817130D01*
X205300499Y-99862868D01*
X205284515Y-99782505D01*
X205223624Y-99691376D01*
X205200684Y-99676048D01*
X205132495Y-99630484D01*
X205125763Y-99627696D01*
X205126890Y-99624974D01*
X205089166Y-99599760D01*
X205076700Y-99558656D01*
X205076700Y-95000000D01*
X207004353Y-95000000D01*
X207024834Y-95142454D01*
X207084623Y-95273373D01*
X207178868Y-95382139D01*
X207178869Y-95382140D01*
X207178872Y-95382143D01*
X207299947Y-95459953D01*
X207406403Y-95491211D01*
X207438035Y-95500499D01*
X207438037Y-95500500D01*
X207438039Y-95500500D01*
X207581963Y-95500500D01*
X207581964Y-95500499D01*
X207720053Y-95459953D01*
X207841128Y-95382143D01*
X207935377Y-95273373D01*
X207995165Y-95142457D01*
X208015647Y-95000000D01*
X208006545Y-94936700D01*
X208020551Y-94881825D01*
X208027459Y-94873852D01*
X208831415Y-94069898D01*
X208867844Y-94006803D01*
X208886700Y-93936428D01*
X208886700Y-93863572D01*
X208886700Y-92811343D01*
X208908374Y-92759017D01*
X208936464Y-92744008D01*
X208935759Y-92742306D01*
X208942492Y-92739516D01*
X208942492Y-92739515D01*
X208942495Y-92739515D01*
X209033624Y-92678624D01*
X209094515Y-92587495D01*
X209110500Y-92507133D01*
X209110500Y-92507130D01*
X209379500Y-92507130D01*
X209395485Y-92587495D01*
X209395485Y-92587496D01*
X209435986Y-92648108D01*
X209456376Y-92678624D01*
X209547504Y-92739514D01*
X209547505Y-92739515D01*
X209554238Y-92742304D01*
X209553109Y-92745029D01*
X209590825Y-92770225D01*
X209603300Y-92811343D01*
X209603300Y-93945324D01*
X209581626Y-93997650D01*
X209569313Y-94007573D01*
X209568878Y-94007852D01*
X209568868Y-94007860D01*
X209474623Y-94116626D01*
X209414834Y-94247545D01*
X209394353Y-94390000D01*
X209414834Y-94532454D01*
X209414834Y-94532455D01*
X209414835Y-94532457D01*
X209463995Y-94640101D01*
X209474623Y-94663373D01*
X209568868Y-94772139D01*
X209568869Y-94772140D01*
X209568872Y-94772143D01*
X209627706Y-94809953D01*
X209677649Y-94842050D01*
X209689947Y-94849953D01*
X209771317Y-94873845D01*
X209828035Y-94890499D01*
X209828037Y-94890500D01*
X209828039Y-94890500D01*
X209971963Y-94890500D01*
X209971964Y-94890499D01*
X210110053Y-94849953D01*
X210231128Y-94772143D01*
X210325377Y-94663373D01*
X210385165Y-94532457D01*
X210405647Y-94390000D01*
X210385165Y-94247543D01*
X210325377Y-94116627D01*
X210290716Y-94076626D01*
X210231131Y-94007860D01*
X210231129Y-94007859D01*
X210231128Y-94007857D01*
X210190691Y-93981869D01*
X210158391Y-93935348D01*
X210156700Y-93919618D01*
X210156700Y-92811343D01*
X210178374Y-92759017D01*
X210206464Y-92744008D01*
X210205759Y-92742306D01*
X210212492Y-92739516D01*
X210212492Y-92739515D01*
X210212495Y-92739515D01*
X210303624Y-92678624D01*
X210364515Y-92587495D01*
X210380500Y-92507133D01*
X210380499Y-90552868D01*
X210364515Y-90472505D01*
X210303624Y-90381376D01*
X210212495Y-90320485D01*
X210132133Y-90304500D01*
X210132131Y-90304500D01*
X209627869Y-90304500D01*
X209547504Y-90320485D01*
X209547503Y-90320485D01*
X209456377Y-90381375D01*
X209456375Y-90381377D01*
X209395485Y-90472504D01*
X209379500Y-90552868D01*
X209379500Y-92507130D01*
X209110500Y-92507130D01*
X209110499Y-90552868D01*
X209094515Y-90472505D01*
X209033624Y-90381376D01*
X208942495Y-90320485D01*
X208862133Y-90304500D01*
X208862131Y-90304500D01*
X208357869Y-90304500D01*
X208277504Y-90320485D01*
X208277503Y-90320485D01*
X208186377Y-90381375D01*
X208186375Y-90381377D01*
X208125485Y-90472504D01*
X208109500Y-90552868D01*
X208109500Y-92507130D01*
X208125485Y-92587495D01*
X208125485Y-92587496D01*
X208165986Y-92648108D01*
X208186376Y-92678624D01*
X208277504Y-92739514D01*
X208277505Y-92739515D01*
X208284238Y-92742304D01*
X208283109Y-92745029D01*
X208320825Y-92770225D01*
X208333300Y-92811343D01*
X208333300Y-93754734D01*
X208311626Y-93807060D01*
X207640699Y-94477986D01*
X207588373Y-94499660D01*
X207586122Y-94499500D01*
X207581961Y-94499500D01*
X207438039Y-94499500D01*
X207438036Y-94499500D01*
X207299949Y-94540046D01*
X207299945Y-94540047D01*
X207178875Y-94617855D01*
X207178868Y-94617860D01*
X207084623Y-94726626D01*
X207024834Y-94857545D01*
X207004353Y-95000000D01*
X205076700Y-95000000D01*
X205076700Y-94773573D01*
X205076316Y-94772139D01*
X205057844Y-94703198D01*
X205021415Y-94640102D01*
X204999168Y-94617855D01*
X204969898Y-94588584D01*
X204969898Y-94588585D01*
X204857466Y-94476153D01*
X204835792Y-94423827D01*
X204836543Y-94413310D01*
X204845647Y-94350000D01*
X204825165Y-94207543D01*
X204765377Y-94076627D01*
X204671128Y-93967857D01*
X204658902Y-93960000D01*
X206314353Y-93960000D01*
X206334834Y-94102454D01*
X206334834Y-94102455D01*
X206334835Y-94102457D01*
X206382827Y-94207543D01*
X206394623Y-94233373D01*
X206488868Y-94342139D01*
X206488869Y-94342140D01*
X206488872Y-94342143D01*
X206609947Y-94419953D01*
X206712146Y-94449961D01*
X206748035Y-94460499D01*
X206748037Y-94460500D01*
X206748039Y-94460500D01*
X206891963Y-94460500D01*
X206891964Y-94460499D01*
X207030053Y-94419953D01*
X207151128Y-94342143D01*
X207245377Y-94233373D01*
X207305165Y-94102457D01*
X207325647Y-93960000D01*
X207316545Y-93896700D01*
X207330551Y-93841825D01*
X207337458Y-93833853D01*
X207561415Y-93609898D01*
X207597844Y-93546803D01*
X207616700Y-93476428D01*
X207616700Y-93403572D01*
X207616700Y-92811343D01*
X207638374Y-92759017D01*
X207666464Y-92744008D01*
X207665759Y-92742306D01*
X207672492Y-92739516D01*
X207672492Y-92739515D01*
X207672495Y-92739515D01*
X207763624Y-92678624D01*
X207824515Y-92587495D01*
X207840500Y-92507133D01*
X207840499Y-90552868D01*
X207824515Y-90472505D01*
X207763624Y-90381376D01*
X207672495Y-90320485D01*
X207592133Y-90304500D01*
X207592131Y-90304500D01*
X207087869Y-90304500D01*
X207007504Y-90320485D01*
X207007503Y-90320485D01*
X206916377Y-90381375D01*
X206916375Y-90381377D01*
X206855485Y-90472504D01*
X206839500Y-90552868D01*
X206839500Y-92507130D01*
X206855485Y-92587495D01*
X206855485Y-92587496D01*
X206895986Y-92648108D01*
X206916376Y-92678624D01*
X207007504Y-92739514D01*
X207007505Y-92739515D01*
X207014238Y-92742304D01*
X207013109Y-92745029D01*
X207050825Y-92770225D01*
X207063300Y-92811343D01*
X207063300Y-93294734D01*
X207041626Y-93347060D01*
X206950699Y-93437987D01*
X206898373Y-93459661D01*
X206896122Y-93459500D01*
X206891961Y-93459500D01*
X206748039Y-93459500D01*
X206748036Y-93459500D01*
X206609949Y-93500046D01*
X206609945Y-93500047D01*
X206488875Y-93577855D01*
X206488868Y-93577860D01*
X206394623Y-93686626D01*
X206334834Y-93817545D01*
X206314353Y-93960000D01*
X204658902Y-93960000D01*
X204614182Y-93931260D01*
X204550054Y-93890047D01*
X204550050Y-93890046D01*
X204411964Y-93849500D01*
X204411961Y-93849500D01*
X204268039Y-93849500D01*
X204268036Y-93849500D01*
X204129949Y-93890046D01*
X204129945Y-93890047D01*
X204008875Y-93967855D01*
X204008868Y-93967860D01*
X203914623Y-94076626D01*
X203854834Y-94207545D01*
X203834353Y-94350000D01*
X195816700Y-94350000D01*
X195816700Y-88229228D01*
X195986100Y-88229228D01*
X196000139Y-88281626D01*
X196004956Y-88299603D01*
X196004959Y-88299609D01*
X196026813Y-88337460D01*
X196041385Y-88362698D01*
X196881626Y-89202939D01*
X196903300Y-89255264D01*
X196903300Y-90248656D01*
X196881626Y-90300982D01*
X196853535Y-90315999D01*
X196854238Y-90317696D01*
X196847505Y-90320484D01*
X196756377Y-90381375D01*
X196756375Y-90381377D01*
X196695485Y-90472504D01*
X196679500Y-90552868D01*
X196679500Y-92507130D01*
X196695485Y-92587495D01*
X196695485Y-92587496D01*
X196735986Y-92648108D01*
X196756376Y-92678624D01*
X196847505Y-92739515D01*
X196927867Y-92755500D01*
X197432132Y-92755499D01*
X197512495Y-92739515D01*
X197603624Y-92678624D01*
X197664515Y-92587495D01*
X197680500Y-92507133D01*
X197680499Y-90552868D01*
X197664515Y-90472505D01*
X197603624Y-90381376D01*
X197580684Y-90366048D01*
X197512495Y-90320484D01*
X197505763Y-90317696D01*
X197506890Y-90314974D01*
X197469166Y-90289760D01*
X197456700Y-90248656D01*
X197456700Y-89386665D01*
X197478374Y-89334339D01*
X197530700Y-89312665D01*
X197583026Y-89334339D01*
X198151626Y-89902939D01*
X198173300Y-89955265D01*
X198173300Y-90248656D01*
X198151626Y-90300982D01*
X198123535Y-90315999D01*
X198124238Y-90317696D01*
X198117505Y-90320484D01*
X198026377Y-90381375D01*
X198026375Y-90381377D01*
X197965485Y-90472504D01*
X197949500Y-90552868D01*
X197949500Y-92507130D01*
X197965485Y-92587495D01*
X197965485Y-92587496D01*
X198005986Y-92648108D01*
X198026376Y-92678624D01*
X198117505Y-92739515D01*
X198197867Y-92755500D01*
X198702132Y-92755499D01*
X198782495Y-92739515D01*
X198873624Y-92678624D01*
X198934515Y-92587495D01*
X198950500Y-92507133D01*
X198950499Y-90552868D01*
X198934515Y-90472505D01*
X198873624Y-90381376D01*
X198850684Y-90366048D01*
X198782495Y-90320484D01*
X198775763Y-90317696D01*
X198776890Y-90314974D01*
X198739166Y-90289760D01*
X198726700Y-90248656D01*
X198726700Y-89773573D01*
X198725770Y-89770103D01*
X198707844Y-89703198D01*
X198707844Y-89703197D01*
X198707843Y-89703194D01*
X198689629Y-89671649D01*
X198671415Y-89640102D01*
X196913574Y-87882261D01*
X196891900Y-87829935D01*
X196891900Y-87381865D01*
X196913574Y-87329539D01*
X196965900Y-87307865D01*
X197018226Y-87329539D01*
X199421626Y-89732939D01*
X199443300Y-89785265D01*
X199443300Y-90248656D01*
X199421626Y-90300982D01*
X199393535Y-90315999D01*
X199394238Y-90317696D01*
X199387505Y-90320484D01*
X199296377Y-90381375D01*
X199296375Y-90381377D01*
X199235485Y-90472504D01*
X199219500Y-90552868D01*
X199219500Y-92507130D01*
X199235485Y-92587495D01*
X199235485Y-92587496D01*
X199275986Y-92648108D01*
X199296376Y-92678624D01*
X199387505Y-92739515D01*
X199467867Y-92755500D01*
X199972132Y-92755499D01*
X200052495Y-92739515D01*
X200143624Y-92678624D01*
X200204515Y-92587495D01*
X200220500Y-92507133D01*
X200220499Y-90552868D01*
X200204515Y-90472505D01*
X200143624Y-90381376D01*
X200120684Y-90366048D01*
X200052495Y-90320484D01*
X200045763Y-90317696D01*
X200046890Y-90314974D01*
X200009166Y-90289760D01*
X199996700Y-90248656D01*
X199996700Y-89746665D01*
X200018374Y-89694339D01*
X200070700Y-89672665D01*
X200123026Y-89694339D01*
X200648696Y-90220009D01*
X200670370Y-90272335D01*
X200648696Y-90324661D01*
X200637483Y-90333863D01*
X200566377Y-90381375D01*
X200566375Y-90381377D01*
X200505485Y-90472504D01*
X200489500Y-90552868D01*
X200489500Y-92507130D01*
X200505485Y-92587495D01*
X200505485Y-92587496D01*
X200545986Y-92648108D01*
X200566376Y-92678624D01*
X200657505Y-92739515D01*
X200737867Y-92755500D01*
X201242132Y-92755499D01*
X201322495Y-92739515D01*
X201413624Y-92678624D01*
X201474515Y-92587495D01*
X201490500Y-92507133D01*
X201490499Y-90552868D01*
X201474515Y-90472505D01*
X201413624Y-90381376D01*
X201390684Y-90366048D01*
X201322495Y-90320484D01*
X201315763Y-90317696D01*
X201316890Y-90314974D01*
X201279166Y-90289760D01*
X201266700Y-90248656D01*
X201266700Y-90133571D01*
X201260357Y-90109897D01*
X201260357Y-90109896D01*
X201247845Y-90063201D01*
X201247844Y-90063197D01*
X201211415Y-90000102D01*
X197618374Y-86407061D01*
X197617216Y-86404266D01*
X199099500Y-86404266D01*
X199102354Y-86434699D01*
X199102354Y-86434701D01*
X199102355Y-86434704D01*
X199147206Y-86562881D01*
X199147207Y-86562883D01*
X199227846Y-86672146D01*
X199227853Y-86672153D01*
X199337116Y-86752792D01*
X199337118Y-86752793D01*
X199465295Y-86797644D01*
X199465301Y-86797646D01*
X199495734Y-86800500D01*
X199649300Y-86800500D01*
X199701626Y-86822174D01*
X199723300Y-86874500D01*
X199723300Y-87233190D01*
X199701626Y-87285516D01*
X199689309Y-87295442D01*
X199638874Y-87327855D01*
X199638868Y-87327860D01*
X199544623Y-87436626D01*
X199484834Y-87567545D01*
X199464353Y-87710000D01*
X199484834Y-87852454D01*
X199484834Y-87852455D01*
X199484835Y-87852457D01*
X199526529Y-87943753D01*
X199544623Y-87983373D01*
X199638868Y-88092139D01*
X199638869Y-88092140D01*
X199638872Y-88092143D01*
X199731474Y-88151654D01*
X199744386Y-88159953D01*
X199759947Y-88169953D01*
X199863978Y-88200499D01*
X199898035Y-88210499D01*
X199898037Y-88210500D01*
X199898039Y-88210500D01*
X200041963Y-88210500D01*
X200041964Y-88210499D01*
X200180053Y-88169953D01*
X200301128Y-88092143D01*
X200395377Y-87983373D01*
X200455165Y-87852457D01*
X200475647Y-87710000D01*
X200455165Y-87567543D01*
X200395377Y-87436627D01*
X200301128Y-87327857D01*
X200301127Y-87327856D01*
X200297662Y-87323857D01*
X200299120Y-87322593D01*
X200276888Y-87278166D01*
X200276700Y-87272895D01*
X200276700Y-86874500D01*
X200298374Y-86822174D01*
X200350700Y-86800500D01*
X200504258Y-86800500D01*
X200504266Y-86800500D01*
X200534699Y-86797646D01*
X200662882Y-86752793D01*
X200772150Y-86672150D01*
X200852793Y-86562882D01*
X200897646Y-86434699D01*
X200900500Y-86404266D01*
X202099500Y-86404266D01*
X202102354Y-86434699D01*
X202102354Y-86434701D01*
X202102355Y-86434704D01*
X202147206Y-86562881D01*
X202147207Y-86562883D01*
X202227846Y-86672146D01*
X202227853Y-86672153D01*
X202337116Y-86752792D01*
X202337118Y-86752793D01*
X202465295Y-86797644D01*
X202465301Y-86797646D01*
X202495734Y-86800500D01*
X202589300Y-86800500D01*
X202641626Y-86822174D01*
X202663300Y-86874500D01*
X202663300Y-87255324D01*
X202641626Y-87307650D01*
X202629313Y-87317573D01*
X202628878Y-87317852D01*
X202628868Y-87317860D01*
X202534623Y-87426626D01*
X202474834Y-87557545D01*
X202454353Y-87700000D01*
X202474834Y-87842454D01*
X202474834Y-87842455D01*
X202474835Y-87842457D01*
X202496526Y-87889953D01*
X202534623Y-87973373D01*
X202628868Y-88082139D01*
X202628869Y-88082140D01*
X202628872Y-88082143D01*
X202721474Y-88141654D01*
X202744374Y-88156372D01*
X202749947Y-88159953D01*
X202856403Y-88191211D01*
X202888035Y-88200499D01*
X202888037Y-88200500D01*
X202888039Y-88200500D01*
X203031963Y-88200500D01*
X203031964Y-88200499D01*
X203170053Y-88159953D01*
X203291128Y-88082143D01*
X203385377Y-87973373D01*
X203445165Y-87842457D01*
X203465647Y-87700000D01*
X203445165Y-87557543D01*
X203385377Y-87426627D01*
X203346591Y-87381865D01*
X203291131Y-87317860D01*
X203291129Y-87317859D01*
X203291128Y-87317857D01*
X203250691Y-87291869D01*
X203218391Y-87245348D01*
X203216700Y-87229618D01*
X203216700Y-86874500D01*
X203238374Y-86822174D01*
X203290700Y-86800500D01*
X203504258Y-86800500D01*
X203504266Y-86800500D01*
X203534699Y-86797646D01*
X203662882Y-86752793D01*
X203772150Y-86672150D01*
X203852793Y-86562882D01*
X203897646Y-86434699D01*
X203900500Y-86404266D01*
X205099500Y-86404266D01*
X205102354Y-86434699D01*
X205102354Y-86434701D01*
X205102355Y-86434704D01*
X205147206Y-86562881D01*
X205147207Y-86562883D01*
X205227846Y-86672146D01*
X205227853Y-86672153D01*
X205337116Y-86752792D01*
X205337118Y-86752793D01*
X205465295Y-86797644D01*
X205465301Y-86797646D01*
X205495734Y-86800500D01*
X205619300Y-86800500D01*
X205671626Y-86822174D01*
X205693300Y-86874500D01*
X205693300Y-87026270D01*
X205671626Y-87078596D01*
X205659310Y-87088521D01*
X205638876Y-87101653D01*
X205638868Y-87101660D01*
X205544623Y-87210426D01*
X205484834Y-87341345D01*
X205464353Y-87483800D01*
X205484834Y-87626254D01*
X205544623Y-87757173D01*
X205638868Y-87865939D01*
X205638869Y-87865940D01*
X205638872Y-87865943D01*
X205759947Y-87943753D01*
X205860825Y-87973373D01*
X205898035Y-87984299D01*
X205898037Y-87984300D01*
X205898039Y-87984300D01*
X206041963Y-87984300D01*
X206041964Y-87984299D01*
X206045118Y-87983373D01*
X206180053Y-87943753D01*
X206301128Y-87865943D01*
X206395377Y-87757173D01*
X206455165Y-87626257D01*
X206475647Y-87483800D01*
X206455165Y-87341343D01*
X206395377Y-87210427D01*
X206370693Y-87181940D01*
X206301131Y-87101660D01*
X206301123Y-87101653D01*
X206280690Y-87088521D01*
X206248390Y-87041997D01*
X206246700Y-87026270D01*
X206246700Y-86874500D01*
X206268374Y-86822174D01*
X206320700Y-86800500D01*
X206504258Y-86800500D01*
X206504266Y-86800500D01*
X206534699Y-86797646D01*
X206662882Y-86752793D01*
X206772150Y-86672150D01*
X206852793Y-86562882D01*
X206897646Y-86434699D01*
X206900500Y-86404266D01*
X208099500Y-86404266D01*
X208102354Y-86434699D01*
X208102354Y-86434701D01*
X208102355Y-86434704D01*
X208147206Y-86562881D01*
X208147207Y-86562883D01*
X208227846Y-86672146D01*
X208227853Y-86672153D01*
X208337116Y-86752792D01*
X208337118Y-86752793D01*
X208465295Y-86797644D01*
X208465301Y-86797646D01*
X208495734Y-86800500D01*
X208719300Y-86800500D01*
X208771626Y-86822174D01*
X208793300Y-86874500D01*
X208793300Y-86972470D01*
X208771626Y-87024796D01*
X208759310Y-87034721D01*
X208738876Y-87047853D01*
X208738868Y-87047860D01*
X208644623Y-87156626D01*
X208584834Y-87287545D01*
X208564353Y-87430000D01*
X208584834Y-87572454D01*
X208644623Y-87703373D01*
X208738868Y-87812139D01*
X208738869Y-87812140D01*
X208738872Y-87812143D01*
X208859947Y-87889953D01*
X208966403Y-87921211D01*
X208998035Y-87930499D01*
X208998037Y-87930500D01*
X208998039Y-87930500D01*
X209141963Y-87930500D01*
X209141964Y-87930499D01*
X209280053Y-87889953D01*
X209401128Y-87812143D01*
X209495377Y-87703373D01*
X209555165Y-87572457D01*
X209575647Y-87430000D01*
X209555165Y-87287543D01*
X209495377Y-87156627D01*
X209436363Y-87088521D01*
X209401131Y-87047860D01*
X209401123Y-87047853D01*
X209380690Y-87034721D01*
X209348390Y-86988197D01*
X209346700Y-86972470D01*
X209346700Y-86874500D01*
X209368374Y-86822174D01*
X209420700Y-86800500D01*
X209504258Y-86800500D01*
X209504266Y-86800500D01*
X209534699Y-86797646D01*
X209662882Y-86752793D01*
X209772150Y-86672150D01*
X209852793Y-86562882D01*
X209897646Y-86434699D01*
X209900500Y-86404266D01*
X209900500Y-85645734D01*
X209897646Y-85615301D01*
X209852793Y-85487118D01*
X209852792Y-85487116D01*
X209772153Y-85377853D01*
X209772146Y-85377846D01*
X209662883Y-85297207D01*
X209662881Y-85297206D01*
X209534704Y-85252355D01*
X209534705Y-85252355D01*
X209534700Y-85252354D01*
X209534699Y-85252354D01*
X209504266Y-85249500D01*
X208495734Y-85249500D01*
X208465301Y-85252354D01*
X208465299Y-85252354D01*
X208465295Y-85252355D01*
X208337118Y-85297206D01*
X208337116Y-85297207D01*
X208227853Y-85377846D01*
X208227846Y-85377853D01*
X208147207Y-85487116D01*
X208147206Y-85487118D01*
X208102355Y-85615295D01*
X208102354Y-85615299D01*
X208102354Y-85615301D01*
X208099500Y-85645734D01*
X208099500Y-86404266D01*
X206900500Y-86404266D01*
X206900500Y-85645734D01*
X206897646Y-85615301D01*
X206852793Y-85487118D01*
X206852792Y-85487116D01*
X206772153Y-85377853D01*
X206772146Y-85377846D01*
X206662883Y-85297207D01*
X206662881Y-85297206D01*
X206534704Y-85252355D01*
X206534705Y-85252355D01*
X206534700Y-85252354D01*
X206534699Y-85252354D01*
X206504266Y-85249500D01*
X205495734Y-85249500D01*
X205465301Y-85252354D01*
X205465299Y-85252354D01*
X205465295Y-85252355D01*
X205337118Y-85297206D01*
X205337116Y-85297207D01*
X205227853Y-85377846D01*
X205227846Y-85377853D01*
X205147207Y-85487116D01*
X205147206Y-85487118D01*
X205102355Y-85615295D01*
X205102354Y-85615299D01*
X205102354Y-85615301D01*
X205099500Y-85645734D01*
X205099500Y-86404266D01*
X203900500Y-86404266D01*
X203900500Y-85645734D01*
X203897646Y-85615301D01*
X203852793Y-85487118D01*
X203852792Y-85487116D01*
X203772153Y-85377853D01*
X203772146Y-85377846D01*
X203662883Y-85297207D01*
X203662881Y-85297206D01*
X203534704Y-85252355D01*
X203534705Y-85252355D01*
X203534700Y-85252354D01*
X203534699Y-85252354D01*
X203504266Y-85249500D01*
X202495734Y-85249500D01*
X202465301Y-85252354D01*
X202465299Y-85252354D01*
X202465295Y-85252355D01*
X202337118Y-85297206D01*
X202337116Y-85297207D01*
X202227853Y-85377846D01*
X202227846Y-85377853D01*
X202147207Y-85487116D01*
X202147206Y-85487118D01*
X202102355Y-85615295D01*
X202102354Y-85615299D01*
X202102354Y-85615301D01*
X202099500Y-85645734D01*
X202099500Y-86404266D01*
X200900500Y-86404266D01*
X200900500Y-85645734D01*
X200897646Y-85615301D01*
X200852793Y-85487118D01*
X200852792Y-85487116D01*
X200772153Y-85377853D01*
X200772146Y-85377846D01*
X200662883Y-85297207D01*
X200662881Y-85297206D01*
X200534704Y-85252355D01*
X200534705Y-85252355D01*
X200534700Y-85252354D01*
X200534699Y-85252354D01*
X200504266Y-85249500D01*
X199495734Y-85249500D01*
X199465301Y-85252354D01*
X199465299Y-85252354D01*
X199465295Y-85252355D01*
X199337118Y-85297206D01*
X199337116Y-85297207D01*
X199227853Y-85377846D01*
X199227846Y-85377853D01*
X199147207Y-85487116D01*
X199147206Y-85487118D01*
X199102355Y-85615295D01*
X199102354Y-85615299D01*
X199102354Y-85615301D01*
X199099500Y-85645734D01*
X199099500Y-86404266D01*
X197617216Y-86404266D01*
X197596700Y-86354735D01*
X197596700Y-84225000D01*
X198800001Y-84225000D01*
X198800001Y-84349976D01*
X198810494Y-84452696D01*
X198865642Y-84619121D01*
X198957683Y-84768343D01*
X198957686Y-84768347D01*
X199081653Y-84892314D01*
X199081656Y-84892316D01*
X199230878Y-84984357D01*
X199397302Y-85039505D01*
X199500025Y-85049999D01*
X199750000Y-85049999D01*
X199750000Y-84225000D01*
X200250000Y-84225000D01*
X200250000Y-85049999D01*
X200499971Y-85049999D01*
X200499976Y-85049998D01*
X200602696Y-85039505D01*
X200769121Y-84984357D01*
X200918343Y-84892316D01*
X200918347Y-84892314D01*
X201042314Y-84768347D01*
X201042316Y-84768343D01*
X201134357Y-84619121D01*
X201189505Y-84452697D01*
X201199999Y-84349975D01*
X201200000Y-84349973D01*
X201200000Y-84225000D01*
X201800001Y-84225000D01*
X201800001Y-84349976D01*
X201810494Y-84452696D01*
X201865642Y-84619121D01*
X201957683Y-84768343D01*
X201957686Y-84768347D01*
X202081653Y-84892314D01*
X202081656Y-84892316D01*
X202230878Y-84984357D01*
X202397302Y-85039505D01*
X202500025Y-85049999D01*
X202750000Y-85049999D01*
X202750000Y-84225000D01*
X203250000Y-84225000D01*
X203250000Y-85049999D01*
X203499971Y-85049999D01*
X203499976Y-85049998D01*
X203602696Y-85039505D01*
X203769121Y-84984357D01*
X203918343Y-84892316D01*
X203918347Y-84892314D01*
X204042314Y-84768347D01*
X204042316Y-84768343D01*
X204134357Y-84619121D01*
X204189505Y-84452697D01*
X204199999Y-84349975D01*
X204200000Y-84349973D01*
X204200000Y-84225000D01*
X204800001Y-84225000D01*
X204800001Y-84349976D01*
X204810494Y-84452696D01*
X204865642Y-84619121D01*
X204957683Y-84768343D01*
X204957686Y-84768347D01*
X205081653Y-84892314D01*
X205081656Y-84892316D01*
X205230878Y-84984357D01*
X205397302Y-85039505D01*
X205500025Y-85049999D01*
X205750000Y-85049999D01*
X205750000Y-84225000D01*
X206250000Y-84225000D01*
X206250000Y-85049999D01*
X206499971Y-85049999D01*
X206499976Y-85049998D01*
X206602696Y-85039505D01*
X206769121Y-84984357D01*
X206918343Y-84892316D01*
X206918347Y-84892314D01*
X207042314Y-84768347D01*
X207042316Y-84768343D01*
X207134357Y-84619121D01*
X207189505Y-84452697D01*
X207199999Y-84349975D01*
X207200000Y-84349973D01*
X207200000Y-84225000D01*
X207800001Y-84225000D01*
X207800001Y-84349976D01*
X207810494Y-84452696D01*
X207865642Y-84619121D01*
X207957683Y-84768343D01*
X207957686Y-84768347D01*
X208081653Y-84892314D01*
X208081656Y-84892316D01*
X208230878Y-84984357D01*
X208397302Y-85039505D01*
X208500025Y-85049999D01*
X208750000Y-85049999D01*
X208750000Y-84225000D01*
X209250000Y-84225000D01*
X209250000Y-85049999D01*
X209499971Y-85049999D01*
X209499976Y-85049998D01*
X209602696Y-85039505D01*
X209769121Y-84984357D01*
X209918343Y-84892316D01*
X209918347Y-84892314D01*
X210042314Y-84768347D01*
X210042316Y-84768343D01*
X210134357Y-84619121D01*
X210189505Y-84452697D01*
X210199999Y-84349975D01*
X210200000Y-84349973D01*
X210200000Y-84225000D01*
X209250000Y-84225000D01*
X208750000Y-84225000D01*
X207800001Y-84225000D01*
X207200000Y-84225000D01*
X206250000Y-84225000D01*
X205750000Y-84225000D01*
X204800001Y-84225000D01*
X204200000Y-84225000D01*
X203250000Y-84225000D01*
X202750000Y-84225000D01*
X201800001Y-84225000D01*
X201200000Y-84225000D01*
X200250000Y-84225000D01*
X199750000Y-84225000D01*
X198800001Y-84225000D01*
X197596700Y-84225000D01*
X197596700Y-83725000D01*
X198800000Y-83725000D01*
X199750000Y-83725000D01*
X199750000Y-82900000D01*
X200250000Y-82900000D01*
X200250000Y-83725000D01*
X201199999Y-83725000D01*
X201800000Y-83725000D01*
X202750000Y-83725000D01*
X202750000Y-82900000D01*
X203250000Y-82900000D01*
X203250000Y-83725000D01*
X204199999Y-83725000D01*
X204800000Y-83725000D01*
X205750000Y-83725000D01*
X205750000Y-82900000D01*
X206250000Y-82900000D01*
X206250000Y-83725000D01*
X207199999Y-83725000D01*
X207800000Y-83725000D01*
X208750000Y-83725000D01*
X208750000Y-82900000D01*
X209250000Y-82900000D01*
X209250000Y-83725000D01*
X210199999Y-83725000D01*
X210199999Y-83600029D01*
X210199998Y-83600023D01*
X210189505Y-83497303D01*
X210134357Y-83330878D01*
X210042316Y-83181656D01*
X210042314Y-83181653D01*
X209918347Y-83057686D01*
X209918343Y-83057683D01*
X209769121Y-82965642D01*
X209602697Y-82910494D01*
X209499975Y-82900000D01*
X209250000Y-82900000D01*
X208750000Y-82900000D01*
X208500029Y-82900000D01*
X208500023Y-82900001D01*
X208397303Y-82910494D01*
X208230878Y-82965642D01*
X208081656Y-83057683D01*
X207957683Y-83181656D01*
X207865642Y-83330878D01*
X207810494Y-83497302D01*
X207800000Y-83600024D01*
X207800000Y-83725000D01*
X207199999Y-83725000D01*
X207199999Y-83600029D01*
X207199998Y-83600023D01*
X207189505Y-83497303D01*
X207134357Y-83330878D01*
X207042316Y-83181656D01*
X207042314Y-83181653D01*
X206918347Y-83057686D01*
X206918343Y-83057683D01*
X206769121Y-82965642D01*
X206602697Y-82910494D01*
X206499975Y-82900000D01*
X206250000Y-82900000D01*
X205750000Y-82900000D01*
X205500029Y-82900000D01*
X205500023Y-82900001D01*
X205397303Y-82910494D01*
X205230878Y-82965642D01*
X205081656Y-83057683D01*
X204957683Y-83181656D01*
X204865642Y-83330878D01*
X204810494Y-83497302D01*
X204800000Y-83600024D01*
X204800000Y-83725000D01*
X204199999Y-83725000D01*
X204199999Y-83600029D01*
X204199998Y-83600023D01*
X204189505Y-83497303D01*
X204134357Y-83330878D01*
X204042316Y-83181656D01*
X204042314Y-83181653D01*
X203918347Y-83057686D01*
X203918343Y-83057683D01*
X203769121Y-82965642D01*
X203602697Y-82910494D01*
X203499975Y-82900000D01*
X203250000Y-82900000D01*
X202750000Y-82900000D01*
X202500029Y-82900000D01*
X202500023Y-82900001D01*
X202397303Y-82910494D01*
X202230878Y-82965642D01*
X202081656Y-83057683D01*
X201957683Y-83181656D01*
X201865642Y-83330878D01*
X201810494Y-83497302D01*
X201800000Y-83600024D01*
X201800000Y-83725000D01*
X201199999Y-83725000D01*
X201199999Y-83600029D01*
X201199998Y-83600023D01*
X201189505Y-83497303D01*
X201134357Y-83330878D01*
X201042316Y-83181656D01*
X201042314Y-83181653D01*
X200918347Y-83057686D01*
X200918343Y-83057683D01*
X200769121Y-82965642D01*
X200602697Y-82910494D01*
X200499975Y-82900000D01*
X200250000Y-82900000D01*
X199750000Y-82900000D01*
X199500029Y-82900000D01*
X199500023Y-82900001D01*
X199397303Y-82910494D01*
X199230878Y-82965642D01*
X199081656Y-83057683D01*
X198957683Y-83181656D01*
X198865642Y-83330878D01*
X198810494Y-83497302D01*
X198800000Y-83600024D01*
X198800000Y-83725000D01*
X197596700Y-83725000D01*
X197596700Y-82330000D01*
X201024353Y-82330000D01*
X201044834Y-82472454D01*
X201044834Y-82472455D01*
X201044835Y-82472457D01*
X201061981Y-82510000D01*
X201104623Y-82603373D01*
X201198868Y-82712139D01*
X201198869Y-82712140D01*
X201198872Y-82712143D01*
X201319947Y-82789953D01*
X201426403Y-82821211D01*
X201458035Y-82830499D01*
X201458037Y-82830500D01*
X201458039Y-82830500D01*
X201601963Y-82830500D01*
X201601964Y-82830499D01*
X201740053Y-82789953D01*
X201861128Y-82712143D01*
X201955377Y-82603373D01*
X202015165Y-82472457D01*
X202035647Y-82330000D01*
X202018394Y-82210000D01*
X203824353Y-82210000D01*
X203844834Y-82352454D01*
X203904623Y-82483373D01*
X203998868Y-82592139D01*
X203998869Y-82592140D01*
X203998872Y-82592143D01*
X204119947Y-82669953D01*
X204226403Y-82701211D01*
X204258035Y-82710499D01*
X204258037Y-82710500D01*
X204258039Y-82710500D01*
X204401963Y-82710500D01*
X204401964Y-82710499D01*
X204540053Y-82669953D01*
X204661128Y-82592143D01*
X204732305Y-82510000D01*
X206814353Y-82510000D01*
X206834834Y-82652454D01*
X206834834Y-82652455D01*
X206834835Y-82652457D01*
X206894623Y-82783373D01*
X206988868Y-82892139D01*
X206988869Y-82892140D01*
X206988872Y-82892143D01*
X207109947Y-82969953D01*
X207216403Y-83001211D01*
X207248035Y-83010499D01*
X207248037Y-83010500D01*
X207248039Y-83010500D01*
X207391963Y-83010500D01*
X207391964Y-83010499D01*
X207530053Y-82969953D01*
X207651128Y-82892143D01*
X207745377Y-82783373D01*
X207805165Y-82652457D01*
X207825647Y-82510000D01*
X207805165Y-82367543D01*
X207745377Y-82236627D01*
X207651128Y-82127857D01*
X207651126Y-82127855D01*
X207651123Y-82127853D01*
X207630690Y-82114721D01*
X207598390Y-82068197D01*
X207596700Y-82052470D01*
X207596700Y-81915265D01*
X207618374Y-81862939D01*
X207811211Y-81670102D01*
X208004629Y-81476683D01*
X208056954Y-81455010D01*
X208109280Y-81476684D01*
X208126801Y-81504568D01*
X208147207Y-81562883D01*
X208227846Y-81672146D01*
X208227853Y-81672153D01*
X208337116Y-81752792D01*
X208337118Y-81752793D01*
X208465295Y-81797644D01*
X208465301Y-81797646D01*
X208495734Y-81800500D01*
X208495741Y-81800500D01*
X209504258Y-81800500D01*
X209504266Y-81800500D01*
X209534699Y-81797646D01*
X209662882Y-81752793D01*
X209772150Y-81672150D01*
X209773662Y-81670102D01*
X209825323Y-81600103D01*
X209852793Y-81562882D01*
X209897646Y-81434699D01*
X209900500Y-81404266D01*
X209900500Y-80645734D01*
X209897646Y-80615301D01*
X209892308Y-80600047D01*
X209852793Y-80487118D01*
X209852792Y-80487116D01*
X209772153Y-80377853D01*
X209772146Y-80377846D01*
X209662883Y-80297207D01*
X209662881Y-80297206D01*
X209534704Y-80252355D01*
X209534705Y-80252355D01*
X209534700Y-80252354D01*
X209534699Y-80252354D01*
X209504266Y-80249500D01*
X208495734Y-80249500D01*
X208465301Y-80252354D01*
X208465299Y-80252354D01*
X208465295Y-80252355D01*
X208337118Y-80297206D01*
X208337116Y-80297207D01*
X208227853Y-80377846D01*
X208227846Y-80377853D01*
X208147207Y-80487116D01*
X208147206Y-80487118D01*
X208102355Y-80615295D01*
X208102354Y-80615299D01*
X208102354Y-80615301D01*
X208099500Y-80645734D01*
X208099500Y-80645740D01*
X208099500Y-80674300D01*
X208077826Y-80726626D01*
X208033051Y-80745172D01*
X208033380Y-80747667D01*
X208028574Y-80748299D01*
X207958196Y-80767156D01*
X207958190Y-80767159D01*
X207895105Y-80803583D01*
X207895103Y-80803584D01*
X207098584Y-81600103D01*
X207098583Y-81600105D01*
X207062156Y-81663194D01*
X207062156Y-81663197D01*
X207062156Y-81663198D01*
X207043401Y-81733197D01*
X207043300Y-81733573D01*
X207043300Y-82052470D01*
X207021626Y-82104796D01*
X207009310Y-82114721D01*
X206988876Y-82127853D01*
X206988868Y-82127860D01*
X206894623Y-82236626D01*
X206834834Y-82367545D01*
X206814353Y-82510000D01*
X204732305Y-82510000D01*
X204755377Y-82483373D01*
X204815165Y-82352457D01*
X204835647Y-82210000D01*
X204815165Y-82067543D01*
X204755377Y-81936627D01*
X204755375Y-81936625D01*
X204755375Y-81936624D01*
X204755373Y-81936622D01*
X204739822Y-81918674D01*
X204721937Y-81864935D01*
X204743421Y-81817890D01*
X205025366Y-81535945D01*
X205077691Y-81514272D01*
X205130017Y-81535946D01*
X205144049Y-81558275D01*
X205144614Y-81557977D01*
X205147207Y-81562883D01*
X205227846Y-81672146D01*
X205227853Y-81672153D01*
X205337116Y-81752792D01*
X205337118Y-81752793D01*
X205465295Y-81797644D01*
X205465301Y-81797646D01*
X205495734Y-81800500D01*
X205495741Y-81800500D01*
X206504258Y-81800500D01*
X206504266Y-81800500D01*
X206534699Y-81797646D01*
X206662882Y-81752793D01*
X206772150Y-81672150D01*
X206773662Y-81670102D01*
X206825323Y-81600103D01*
X206852793Y-81562882D01*
X206897646Y-81434699D01*
X206900500Y-81404266D01*
X206900500Y-80645734D01*
X206897646Y-80615301D01*
X206892308Y-80600047D01*
X206852793Y-80487118D01*
X206852792Y-80487116D01*
X206772153Y-80377853D01*
X206772146Y-80377846D01*
X206662883Y-80297207D01*
X206662881Y-80297206D01*
X206534704Y-80252355D01*
X206534705Y-80252355D01*
X206534700Y-80252354D01*
X206534699Y-80252354D01*
X206504266Y-80249500D01*
X205495734Y-80249500D01*
X205465301Y-80252354D01*
X205465299Y-80252354D01*
X205465295Y-80252355D01*
X205337118Y-80297206D01*
X205337116Y-80297207D01*
X205227853Y-80377846D01*
X205227846Y-80377853D01*
X205147207Y-80487116D01*
X205147206Y-80487118D01*
X205102355Y-80615295D01*
X205102354Y-80615299D01*
X205102354Y-80615301D01*
X205099500Y-80645734D01*
X205099500Y-80645740D01*
X205099500Y-80693947D01*
X205077826Y-80746273D01*
X205044657Y-80765424D01*
X205038202Y-80767153D01*
X205038193Y-80767157D01*
X204975105Y-80803583D01*
X204975103Y-80803584D01*
X204108584Y-81670103D01*
X204108583Y-81670105D01*
X204072155Y-81733197D01*
X204072155Y-81733200D01*
X204064163Y-81763023D01*
X204032694Y-81806120D01*
X203998874Y-81827855D01*
X203998868Y-81827860D01*
X203904623Y-81936626D01*
X203844834Y-82067545D01*
X203824353Y-82210000D01*
X202018394Y-82210000D01*
X202015165Y-82187543D01*
X201955377Y-82056627D01*
X201861128Y-81947857D01*
X201861126Y-81947855D01*
X201861123Y-81947853D01*
X201840690Y-81934721D01*
X201808390Y-81888197D01*
X201806700Y-81872470D01*
X201806700Y-81725265D01*
X201828374Y-81672939D01*
X201901211Y-81600102D01*
X202009814Y-81491498D01*
X202062139Y-81469825D01*
X202114465Y-81491499D01*
X202131986Y-81519384D01*
X202147206Y-81562881D01*
X202147207Y-81562883D01*
X202227846Y-81672146D01*
X202227853Y-81672153D01*
X202337116Y-81752792D01*
X202337118Y-81752793D01*
X202465295Y-81797644D01*
X202465301Y-81797646D01*
X202495734Y-81800500D01*
X202495741Y-81800500D01*
X203504258Y-81800500D01*
X203504266Y-81800500D01*
X203534699Y-81797646D01*
X203662882Y-81752793D01*
X203772150Y-81672150D01*
X203773662Y-81670102D01*
X203825323Y-81600103D01*
X203852793Y-81562882D01*
X203897646Y-81434699D01*
X203900500Y-81404266D01*
X203900500Y-80645734D01*
X203897646Y-80615301D01*
X203892308Y-80600047D01*
X203852793Y-80487118D01*
X203852792Y-80487116D01*
X203772153Y-80377853D01*
X203772146Y-80377846D01*
X203662883Y-80297207D01*
X203662881Y-80297206D01*
X203534704Y-80252355D01*
X203534705Y-80252355D01*
X203534700Y-80252354D01*
X203534699Y-80252354D01*
X203504266Y-80249500D01*
X202495734Y-80249500D01*
X202465301Y-80252354D01*
X202465299Y-80252354D01*
X202465295Y-80252355D01*
X202337118Y-80297206D01*
X202337116Y-80297207D01*
X202227853Y-80377846D01*
X202227846Y-80377853D01*
X202147207Y-80487116D01*
X202147206Y-80487118D01*
X202102355Y-80615295D01*
X202102354Y-80615299D01*
X202102354Y-80615301D01*
X202099500Y-80645734D01*
X202099500Y-80645740D01*
X202099500Y-80677871D01*
X202077826Y-80730197D01*
X202044653Y-80749349D01*
X201978202Y-80767154D01*
X201978193Y-80767158D01*
X201915105Y-80803582D01*
X201308584Y-81410103D01*
X201308583Y-81410105D01*
X201272157Y-81473193D01*
X201272156Y-81473195D01*
X201267252Y-81491499D01*
X201259628Y-81519953D01*
X201259628Y-81519954D01*
X201259627Y-81519953D01*
X201253300Y-81543570D01*
X201253300Y-81872470D01*
X201231626Y-81924796D01*
X201219310Y-81934721D01*
X201198876Y-81947853D01*
X201198868Y-81947860D01*
X201104623Y-82056626D01*
X201044834Y-82187545D01*
X201024353Y-82330000D01*
X197596700Y-82330000D01*
X197596700Y-81060000D01*
X197984353Y-81060000D01*
X198004834Y-81202454D01*
X198064623Y-81333373D01*
X198158868Y-81442139D01*
X198158869Y-81442140D01*
X198158872Y-81442143D01*
X198235672Y-81491499D01*
X198279061Y-81519384D01*
X198279947Y-81519953D01*
X198360387Y-81543572D01*
X198418035Y-81560499D01*
X198418037Y-81560500D01*
X198418039Y-81560500D01*
X198561963Y-81560500D01*
X198561964Y-81560499D01*
X198700053Y-81519953D01*
X198821128Y-81442143D01*
X198890364Y-81362239D01*
X198941010Y-81336889D01*
X198946289Y-81336700D01*
X199025779Y-81336700D01*
X199078105Y-81358374D01*
X199099456Y-81403791D01*
X199099500Y-81404259D01*
X199099500Y-81404266D01*
X199102354Y-81434699D01*
X199102354Y-81434701D01*
X199102355Y-81434704D01*
X199147206Y-81562881D01*
X199147207Y-81562883D01*
X199227846Y-81672146D01*
X199227853Y-81672153D01*
X199337116Y-81752792D01*
X199337118Y-81752793D01*
X199465295Y-81797644D01*
X199465301Y-81797646D01*
X199495734Y-81800500D01*
X199495741Y-81800500D01*
X200504258Y-81800500D01*
X200504266Y-81800500D01*
X200534699Y-81797646D01*
X200662882Y-81752793D01*
X200772150Y-81672150D01*
X200773662Y-81670102D01*
X200825323Y-81600103D01*
X200852793Y-81562882D01*
X200897646Y-81434699D01*
X200900500Y-81404266D01*
X200900500Y-80645734D01*
X200897646Y-80615301D01*
X200892308Y-80600047D01*
X200852793Y-80487118D01*
X200852792Y-80487116D01*
X200772153Y-80377853D01*
X200772146Y-80377846D01*
X200662883Y-80297207D01*
X200662881Y-80297206D01*
X200534704Y-80252355D01*
X200534705Y-80252355D01*
X200534700Y-80252354D01*
X200534699Y-80252354D01*
X200504266Y-80249500D01*
X199495734Y-80249500D01*
X199465301Y-80252354D01*
X199465299Y-80252354D01*
X199465295Y-80252355D01*
X199337118Y-80297206D01*
X199337116Y-80297207D01*
X199227853Y-80377846D01*
X199227846Y-80377853D01*
X199147207Y-80487116D01*
X199147206Y-80487118D01*
X199102355Y-80615295D01*
X199102354Y-80615299D01*
X199102354Y-80615301D01*
X199099500Y-80645734D01*
X199099500Y-80645740D01*
X199099500Y-80709300D01*
X199077826Y-80761626D01*
X199025500Y-80783300D01*
X198946289Y-80783300D01*
X198893963Y-80761626D01*
X198890372Y-80757770D01*
X198821128Y-80677857D01*
X198723789Y-80615301D01*
X198700054Y-80600047D01*
X198700050Y-80600046D01*
X198561964Y-80559500D01*
X198561961Y-80559500D01*
X198418039Y-80559500D01*
X198418036Y-80559500D01*
X198279949Y-80600046D01*
X198279945Y-80600047D01*
X198158875Y-80677855D01*
X198158868Y-80677860D01*
X198064623Y-80786626D01*
X198004834Y-80917545D01*
X197984353Y-81060000D01*
X197596700Y-81060000D01*
X197596700Y-79405265D01*
X197618374Y-79352939D01*
X197746313Y-79225000D01*
X198800001Y-79225000D01*
X198800001Y-79349976D01*
X198810494Y-79452696D01*
X198865642Y-79619121D01*
X198957683Y-79768343D01*
X198957686Y-79768347D01*
X199081653Y-79892314D01*
X199081656Y-79892316D01*
X199230878Y-79984357D01*
X199397302Y-80039505D01*
X199500025Y-80049999D01*
X199750000Y-80049999D01*
X199750000Y-79225000D01*
X200250000Y-79225000D01*
X200250000Y-80049999D01*
X200499971Y-80049999D01*
X200499976Y-80049998D01*
X200602696Y-80039505D01*
X200769121Y-79984357D01*
X200918343Y-79892316D01*
X200918347Y-79892314D01*
X201042314Y-79768347D01*
X201042316Y-79768343D01*
X201134357Y-79619121D01*
X201189505Y-79452697D01*
X201199999Y-79349975D01*
X201200000Y-79349973D01*
X201200000Y-79225000D01*
X201800001Y-79225000D01*
X201800001Y-79349976D01*
X201810494Y-79452696D01*
X201865642Y-79619121D01*
X201957683Y-79768343D01*
X201957686Y-79768347D01*
X202081653Y-79892314D01*
X202081656Y-79892316D01*
X202230878Y-79984357D01*
X202397302Y-80039505D01*
X202500025Y-80049999D01*
X202750000Y-80049999D01*
X202750000Y-79225000D01*
X203250000Y-79225000D01*
X203250000Y-80049999D01*
X203499971Y-80049999D01*
X203499976Y-80049998D01*
X203602696Y-80039505D01*
X203769121Y-79984357D01*
X203918343Y-79892316D01*
X203918347Y-79892314D01*
X204042314Y-79768347D01*
X204042316Y-79768343D01*
X204134357Y-79619121D01*
X204189505Y-79452697D01*
X204199999Y-79349975D01*
X204200000Y-79349973D01*
X204200000Y-79225000D01*
X204800001Y-79225000D01*
X204800001Y-79349976D01*
X204810494Y-79452696D01*
X204865642Y-79619121D01*
X204957683Y-79768343D01*
X204957686Y-79768347D01*
X205081653Y-79892314D01*
X205081656Y-79892316D01*
X205230878Y-79984357D01*
X205397302Y-80039505D01*
X205500025Y-80049999D01*
X205750000Y-80049999D01*
X205750000Y-79225000D01*
X206250000Y-79225000D01*
X206250000Y-80049999D01*
X206499971Y-80049999D01*
X206499976Y-80049998D01*
X206602696Y-80039505D01*
X206769121Y-79984357D01*
X206918343Y-79892316D01*
X206918347Y-79892314D01*
X207042314Y-79768347D01*
X207042316Y-79768343D01*
X207134357Y-79619121D01*
X207189505Y-79452697D01*
X207199999Y-79349975D01*
X207200000Y-79349973D01*
X207200000Y-79225000D01*
X207800001Y-79225000D01*
X207800001Y-79349976D01*
X207810494Y-79452696D01*
X207865642Y-79619121D01*
X207957683Y-79768343D01*
X207957686Y-79768347D01*
X208081653Y-79892314D01*
X208081656Y-79892316D01*
X208230878Y-79984357D01*
X208397302Y-80039505D01*
X208500025Y-80049999D01*
X208750000Y-80049999D01*
X208750000Y-79225000D01*
X209250000Y-79225000D01*
X209250000Y-80049999D01*
X209499971Y-80049999D01*
X209499976Y-80049998D01*
X209602696Y-80039505D01*
X209769121Y-79984357D01*
X209918343Y-79892316D01*
X209918347Y-79892314D01*
X210042314Y-79768347D01*
X210042316Y-79768343D01*
X210134357Y-79619121D01*
X210189505Y-79452697D01*
X210199999Y-79349975D01*
X210200000Y-79349973D01*
X210200000Y-79225000D01*
X209250000Y-79225000D01*
X208750000Y-79225000D01*
X207800001Y-79225000D01*
X207200000Y-79225000D01*
X206250000Y-79225000D01*
X205750000Y-79225000D01*
X204800001Y-79225000D01*
X204200000Y-79225000D01*
X203250000Y-79225000D01*
X202750000Y-79225000D01*
X201800001Y-79225000D01*
X201200000Y-79225000D01*
X200250000Y-79225000D01*
X199750000Y-79225000D01*
X198800001Y-79225000D01*
X197746313Y-79225000D01*
X198780474Y-78190838D01*
X198832799Y-78169165D01*
X198885125Y-78190839D01*
X198906799Y-78243165D01*
X198895782Y-78282013D01*
X198865642Y-78330878D01*
X198810494Y-78497302D01*
X198800000Y-78600024D01*
X198800000Y-78725000D01*
X201199999Y-78725000D01*
X201199999Y-78600029D01*
X201199998Y-78600023D01*
X201189505Y-78497303D01*
X201134357Y-78330878D01*
X201059520Y-78209548D01*
X201050498Y-78153634D01*
X201083655Y-78107717D01*
X201122503Y-78096700D01*
X201877497Y-78096700D01*
X201929823Y-78118374D01*
X201951497Y-78170700D01*
X201940480Y-78209548D01*
X201865642Y-78330878D01*
X201810494Y-78497302D01*
X201800000Y-78600024D01*
X201800000Y-78725000D01*
X204199999Y-78725000D01*
X204199999Y-78600029D01*
X204199998Y-78600023D01*
X204189505Y-78497303D01*
X204134357Y-78330878D01*
X204059520Y-78209548D01*
X204050498Y-78153634D01*
X204083655Y-78107717D01*
X204122503Y-78096700D01*
X204877497Y-78096700D01*
X204929823Y-78118374D01*
X204951497Y-78170700D01*
X204940480Y-78209548D01*
X204865642Y-78330878D01*
X204810494Y-78497302D01*
X204800000Y-78600024D01*
X204800000Y-78725000D01*
X207199999Y-78725000D01*
X207800000Y-78725000D01*
X208750000Y-78725000D01*
X208750000Y-77900000D01*
X209250000Y-77900000D01*
X209250000Y-78725000D01*
X210199999Y-78725000D01*
X210199999Y-78600029D01*
X210199998Y-78600023D01*
X210189505Y-78497303D01*
X210134357Y-78330878D01*
X210042316Y-78181656D01*
X210042314Y-78181653D01*
X209918347Y-78057686D01*
X209918343Y-78057683D01*
X209769121Y-77965642D01*
X209602697Y-77910494D01*
X209499975Y-77900000D01*
X209250000Y-77900000D01*
X208750000Y-77900000D01*
X208500029Y-77900000D01*
X208500023Y-77900001D01*
X208397303Y-77910494D01*
X208230878Y-77965642D01*
X208081656Y-78057683D01*
X207957683Y-78181656D01*
X207865642Y-78330878D01*
X207810494Y-78497302D01*
X207800000Y-78600024D01*
X207800000Y-78725000D01*
X207199999Y-78725000D01*
X207199999Y-78600029D01*
X207199998Y-78600023D01*
X207189505Y-78497303D01*
X207134357Y-78330878D01*
X207042316Y-78181656D01*
X207042314Y-78181653D01*
X206918347Y-78057686D01*
X206918343Y-78057683D01*
X206769121Y-77965642D01*
X206632545Y-77920385D01*
X206589693Y-77883352D01*
X206585578Y-77826864D01*
X206603492Y-77797820D01*
X207983892Y-76417420D01*
X208036217Y-76395747D01*
X208088543Y-76417421D01*
X208106064Y-76445306D01*
X208147206Y-76562881D01*
X208147207Y-76562883D01*
X208227846Y-76672146D01*
X208227853Y-76672153D01*
X208337116Y-76752792D01*
X208337118Y-76752793D01*
X208465295Y-76797644D01*
X208465301Y-76797646D01*
X208495734Y-76800500D01*
X208495741Y-76800500D01*
X209504258Y-76800500D01*
X209504266Y-76800500D01*
X209534699Y-76797646D01*
X209662882Y-76752793D01*
X209772150Y-76672150D01*
X209852793Y-76562882D01*
X209897646Y-76434699D01*
X209900500Y-76404266D01*
X209900500Y-75645734D01*
X209897646Y-75615301D01*
X209852793Y-75487118D01*
X209852792Y-75487116D01*
X209772153Y-75377853D01*
X209772146Y-75377846D01*
X209662883Y-75297207D01*
X209662881Y-75297206D01*
X209534704Y-75252355D01*
X209534705Y-75252355D01*
X209534700Y-75252354D01*
X209534699Y-75252354D01*
X209504266Y-75249500D01*
X208495734Y-75249500D01*
X208465301Y-75252354D01*
X208465299Y-75252354D01*
X208465295Y-75252355D01*
X208337118Y-75297206D01*
X208337116Y-75297207D01*
X208227853Y-75377846D01*
X208227846Y-75377853D01*
X208147207Y-75487116D01*
X208147206Y-75487118D01*
X208102355Y-75615295D01*
X208102354Y-75615299D01*
X208102354Y-75615301D01*
X208099500Y-75645734D01*
X208099500Y-75645740D01*
X208099500Y-75674300D01*
X208077826Y-75726626D01*
X208025500Y-75748300D01*
X207948572Y-75748300D01*
X207913385Y-75757728D01*
X207878197Y-75767156D01*
X207878191Y-75767159D01*
X207817577Y-75802156D01*
X207815101Y-75803585D01*
X206972384Y-76646302D01*
X206920058Y-76667976D01*
X206867732Y-76646302D01*
X206846058Y-76593976D01*
X206852357Y-76568604D01*
X206850962Y-76568116D01*
X206897644Y-76434704D01*
X206897643Y-76434704D01*
X206897646Y-76434699D01*
X206900500Y-76404266D01*
X206900500Y-75645734D01*
X206897646Y-75615301D01*
X206852793Y-75487118D01*
X206852792Y-75487116D01*
X206772153Y-75377853D01*
X206772146Y-75377846D01*
X206662883Y-75297207D01*
X206662881Y-75297206D01*
X206534704Y-75252355D01*
X206534705Y-75252355D01*
X206534700Y-75252354D01*
X206534699Y-75252354D01*
X206504266Y-75249500D01*
X205495734Y-75249500D01*
X205465301Y-75252354D01*
X205465299Y-75252354D01*
X205465295Y-75252355D01*
X205337118Y-75297206D01*
X205337116Y-75297207D01*
X205227853Y-75377846D01*
X205227846Y-75377853D01*
X205147207Y-75487116D01*
X205147206Y-75487118D01*
X205102355Y-75615295D01*
X205102354Y-75615299D01*
X205102354Y-75615301D01*
X205099500Y-75645734D01*
X205099500Y-75645740D01*
X205099500Y-75735228D01*
X205077826Y-75787554D01*
X205062501Y-75799313D01*
X205057577Y-75802156D01*
X205055101Y-75803585D01*
X203689461Y-77169226D01*
X203637135Y-77190900D01*
X201479065Y-77190900D01*
X201426739Y-77169226D01*
X201405065Y-77116900D01*
X201426739Y-77064574D01*
X201705870Y-76785443D01*
X202007222Y-76484090D01*
X202059547Y-76462417D01*
X202111873Y-76484091D01*
X202129394Y-76511977D01*
X202147205Y-76562880D01*
X202147207Y-76562883D01*
X202227846Y-76672146D01*
X202227853Y-76672153D01*
X202337116Y-76752792D01*
X202337118Y-76752793D01*
X202465295Y-76797644D01*
X202465301Y-76797646D01*
X202495734Y-76800500D01*
X202495741Y-76800500D01*
X203504258Y-76800500D01*
X203504266Y-76800500D01*
X203534699Y-76797646D01*
X203662882Y-76752793D01*
X203772150Y-76672150D01*
X203852793Y-76562882D01*
X203897646Y-76434699D01*
X203900500Y-76404266D01*
X203900500Y-75645734D01*
X203897646Y-75615301D01*
X203852793Y-75487118D01*
X203852792Y-75487116D01*
X203772153Y-75377853D01*
X203772146Y-75377846D01*
X203662883Y-75297207D01*
X203662881Y-75297206D01*
X203534704Y-75252355D01*
X203534705Y-75252355D01*
X203534700Y-75252354D01*
X203534699Y-75252354D01*
X203504266Y-75249500D01*
X202495734Y-75249500D01*
X202465301Y-75252354D01*
X202465299Y-75252354D01*
X202465295Y-75252355D01*
X202337118Y-75297206D01*
X202337116Y-75297207D01*
X202227853Y-75377846D01*
X202227846Y-75377853D01*
X202147207Y-75487116D01*
X202147206Y-75487118D01*
X202102355Y-75615295D01*
X202102354Y-75615299D01*
X202102354Y-75615301D01*
X202099500Y-75645734D01*
X202099500Y-75645740D01*
X202099500Y-75675382D01*
X202077826Y-75727708D01*
X202042716Y-75745027D01*
X202043257Y-75747045D01*
X202038573Y-75748300D01*
X202038572Y-75748300D01*
X202004871Y-75757329D01*
X201968196Y-75767156D01*
X201968190Y-75767159D01*
X201905105Y-75803583D01*
X201905103Y-75803584D01*
X200891861Y-76816826D01*
X200839535Y-76838500D01*
X200771637Y-76838500D01*
X200719311Y-76816826D01*
X200697637Y-76764500D01*
X200719311Y-76712174D01*
X200727694Y-76704960D01*
X200735758Y-76699007D01*
X200772150Y-76672150D01*
X200852793Y-76562882D01*
X200897646Y-76434699D01*
X200900500Y-76404266D01*
X200900500Y-75645734D01*
X200897646Y-75615301D01*
X200852793Y-75487118D01*
X200852792Y-75487116D01*
X200772153Y-75377853D01*
X200772146Y-75377846D01*
X200662883Y-75297207D01*
X200662881Y-75297206D01*
X200534704Y-75252355D01*
X200534705Y-75252355D01*
X200534700Y-75252354D01*
X200534699Y-75252354D01*
X200504266Y-75249500D01*
X199495734Y-75249500D01*
X199465301Y-75252354D01*
X199465299Y-75252354D01*
X199465295Y-75252355D01*
X199337118Y-75297206D01*
X199337116Y-75297207D01*
X199227853Y-75377846D01*
X199227846Y-75377853D01*
X199147207Y-75487116D01*
X199147206Y-75487118D01*
X199102355Y-75615295D01*
X199102354Y-75615299D01*
X199102354Y-75615301D01*
X199099500Y-75645734D01*
X199099500Y-75645740D01*
X199099500Y-75674300D01*
X199077826Y-75726626D01*
X199025500Y-75748300D01*
X198791428Y-75748300D01*
X198718572Y-75748300D01*
X198683384Y-75757728D01*
X198648196Y-75767156D01*
X198648190Y-75767159D01*
X198585105Y-75803583D01*
X198585103Y-75803584D01*
X196041384Y-78347303D01*
X196041383Y-78347305D01*
X196004956Y-78410394D01*
X196004956Y-78410397D01*
X196004956Y-78410398D01*
X195986100Y-78480772D01*
X195986100Y-88156372D01*
X195986100Y-88229228D01*
X195816700Y-88229228D01*
X195816700Y-77955264D01*
X195838373Y-77902939D01*
X197511415Y-76229898D01*
X197547844Y-76166803D01*
X197566700Y-76096428D01*
X197566700Y-76023572D01*
X197566700Y-74225000D01*
X198800001Y-74225000D01*
X198800001Y-74349976D01*
X198810494Y-74452696D01*
X198865642Y-74619121D01*
X198957683Y-74768343D01*
X198957686Y-74768347D01*
X199081653Y-74892314D01*
X199081656Y-74892316D01*
X199230878Y-74984357D01*
X199397302Y-75039505D01*
X199500025Y-75049999D01*
X199750000Y-75049999D01*
X199750000Y-74225000D01*
X200250000Y-74225000D01*
X200250000Y-75049999D01*
X200499971Y-75049999D01*
X200499976Y-75049998D01*
X200602696Y-75039505D01*
X200769121Y-74984357D01*
X200918343Y-74892316D01*
X200918347Y-74892314D01*
X201042314Y-74768347D01*
X201042316Y-74768343D01*
X201134357Y-74619121D01*
X201189505Y-74452697D01*
X201199999Y-74349975D01*
X201200000Y-74349973D01*
X201200000Y-74225000D01*
X201800001Y-74225000D01*
X201800001Y-74349976D01*
X201810494Y-74452696D01*
X201865642Y-74619121D01*
X201957683Y-74768343D01*
X201957686Y-74768347D01*
X202081653Y-74892314D01*
X202081656Y-74892316D01*
X202230878Y-74984357D01*
X202397302Y-75039505D01*
X202500025Y-75049999D01*
X202750000Y-75049999D01*
X202750000Y-74225000D01*
X203250000Y-74225000D01*
X203250000Y-75049999D01*
X203499971Y-75049999D01*
X203499976Y-75049998D01*
X203602696Y-75039505D01*
X203769121Y-74984357D01*
X203918343Y-74892316D01*
X203918347Y-74892314D01*
X204042314Y-74768347D01*
X204042316Y-74768343D01*
X204134357Y-74619121D01*
X204189505Y-74452697D01*
X204199999Y-74349975D01*
X204200000Y-74349973D01*
X204200000Y-74225000D01*
X204800001Y-74225000D01*
X204800001Y-74349976D01*
X204810494Y-74452696D01*
X204865642Y-74619121D01*
X204957683Y-74768343D01*
X204957686Y-74768347D01*
X205081653Y-74892314D01*
X205081656Y-74892316D01*
X205230878Y-74984357D01*
X205397302Y-75039505D01*
X205500025Y-75049999D01*
X205750000Y-75049999D01*
X205750000Y-74225000D01*
X206250000Y-74225000D01*
X206250000Y-75049999D01*
X206499971Y-75049999D01*
X206499976Y-75049998D01*
X206602696Y-75039505D01*
X206769121Y-74984357D01*
X206918343Y-74892316D01*
X206918347Y-74892314D01*
X207042314Y-74768347D01*
X207042316Y-74768343D01*
X207134357Y-74619121D01*
X207189505Y-74452697D01*
X207199999Y-74349975D01*
X207200000Y-74349973D01*
X207200000Y-74225000D01*
X207800001Y-74225000D01*
X207800001Y-74349976D01*
X207810494Y-74452696D01*
X207865642Y-74619121D01*
X207957683Y-74768343D01*
X207957686Y-74768347D01*
X208081653Y-74892314D01*
X208081656Y-74892316D01*
X208230878Y-74984357D01*
X208397302Y-75039505D01*
X208500025Y-75049999D01*
X208750000Y-75049999D01*
X208750000Y-74225000D01*
X209250000Y-74225000D01*
X209250000Y-75049999D01*
X209499971Y-75049999D01*
X209499976Y-75049998D01*
X209602696Y-75039505D01*
X209769121Y-74984357D01*
X209918343Y-74892316D01*
X209918347Y-74892314D01*
X210042314Y-74768347D01*
X210042316Y-74768343D01*
X210134357Y-74619121D01*
X210189505Y-74452697D01*
X210199999Y-74349975D01*
X210200000Y-74349973D01*
X210200000Y-74225000D01*
X209250000Y-74225000D01*
X208750000Y-74225000D01*
X207800001Y-74225000D01*
X207200000Y-74225000D01*
X206250000Y-74225000D01*
X205750000Y-74225000D01*
X204800001Y-74225000D01*
X204200000Y-74225000D01*
X203250000Y-74225000D01*
X202750000Y-74225000D01*
X201800001Y-74225000D01*
X201200000Y-74225000D01*
X200250000Y-74225000D01*
X199750000Y-74225000D01*
X198800001Y-74225000D01*
X197566700Y-74225000D01*
X197566700Y-73725000D01*
X198800000Y-73725000D01*
X199750000Y-73725000D01*
X199750000Y-72900000D01*
X200250000Y-72900000D01*
X200250000Y-73725000D01*
X201199999Y-73725000D01*
X201199999Y-73600029D01*
X201199998Y-73600023D01*
X201189505Y-73497303D01*
X201134357Y-73330878D01*
X201042316Y-73181656D01*
X201042314Y-73181653D01*
X200918347Y-73057686D01*
X200918343Y-73057683D01*
X200769121Y-72965642D01*
X200602697Y-72910494D01*
X200499975Y-72900000D01*
X200250000Y-72900000D01*
X199750000Y-72900000D01*
X199500029Y-72900000D01*
X199500023Y-72900001D01*
X199397303Y-72910494D01*
X199230878Y-72965642D01*
X199081656Y-73057683D01*
X198957683Y-73181656D01*
X198865642Y-73330878D01*
X198810494Y-73497302D01*
X198800000Y-73600024D01*
X198800000Y-73725000D01*
X197566700Y-73725000D01*
X197566700Y-71404266D01*
X199099500Y-71404266D01*
X199102354Y-71434699D01*
X199102354Y-71434701D01*
X199102355Y-71434704D01*
X199147206Y-71562881D01*
X199147207Y-71562883D01*
X199227846Y-71672146D01*
X199227853Y-71672153D01*
X199337116Y-71752792D01*
X199337118Y-71752793D01*
X199465295Y-71797644D01*
X199465301Y-71797646D01*
X199495734Y-71800500D01*
X199495741Y-71800500D01*
X200504258Y-71800500D01*
X200504266Y-71800500D01*
X200534699Y-71797646D01*
X200662882Y-71752793D01*
X200772150Y-71672150D01*
X200813950Y-71615513D01*
X200856086Y-71558421D01*
X200858800Y-71560424D01*
X200893924Y-71531193D01*
X200950325Y-71536356D01*
X200968218Y-71549531D01*
X202261303Y-72842616D01*
X202282977Y-72894942D01*
X202261303Y-72947268D01*
X202234714Y-72963668D01*
X202234785Y-72963820D01*
X202233491Y-72964423D01*
X202232258Y-72965184D01*
X202230882Y-72965639D01*
X202230881Y-72965640D01*
X202081656Y-73057683D01*
X201957683Y-73181656D01*
X201865642Y-73330878D01*
X201810494Y-73497302D01*
X201800000Y-73600024D01*
X201800000Y-73725000D01*
X204199999Y-73725000D01*
X204199999Y-73600029D01*
X204199998Y-73600023D01*
X204189505Y-73497303D01*
X204134357Y-73330878D01*
X204041016Y-73179548D01*
X204031994Y-73123634D01*
X204065151Y-73077717D01*
X204103999Y-73066700D01*
X204896001Y-73066700D01*
X204948327Y-73088374D01*
X204970001Y-73140700D01*
X204958984Y-73179548D01*
X204865642Y-73330878D01*
X204810494Y-73497302D01*
X204800000Y-73600024D01*
X204800000Y-73725000D01*
X207199999Y-73725000D01*
X207199999Y-73600029D01*
X207199998Y-73600023D01*
X207189505Y-73497303D01*
X207134357Y-73330878D01*
X207041016Y-73179548D01*
X207031994Y-73123634D01*
X207065151Y-73077717D01*
X207103999Y-73066700D01*
X207896001Y-73066700D01*
X207948327Y-73088374D01*
X207970001Y-73140700D01*
X207958984Y-73179548D01*
X207865642Y-73330878D01*
X207810494Y-73497302D01*
X207800000Y-73600024D01*
X207800000Y-73725000D01*
X210199999Y-73725000D01*
X210199999Y-73600029D01*
X210199998Y-73600023D01*
X210189505Y-73497303D01*
X210134357Y-73330878D01*
X210041016Y-73179548D01*
X210031994Y-73123634D01*
X210065151Y-73077717D01*
X210103999Y-73066700D01*
X210304735Y-73066700D01*
X210357061Y-73088374D01*
X210899226Y-73630539D01*
X210920900Y-73682865D01*
X210920900Y-86667134D01*
X210899226Y-86719460D01*
X210107971Y-87510714D01*
X210092647Y-87522473D01*
X210030103Y-87558584D01*
X209307061Y-88281626D01*
X209254735Y-88303300D01*
X203423572Y-88303300D01*
X203388385Y-88312728D01*
X203353197Y-88322156D01*
X203353193Y-88322158D01*
X203290105Y-88358582D01*
X202038584Y-89610103D01*
X202038583Y-89610105D01*
X202002156Y-89673194D01*
X202002155Y-89673198D01*
X202000306Y-89680101D01*
X202000306Y-89680102D01*
X201983300Y-89743572D01*
X201983300Y-90248656D01*
X201961626Y-90300982D01*
X201933535Y-90315999D01*
X201934238Y-90317696D01*
X201927505Y-90320484D01*
X201836377Y-90381375D01*
X201836375Y-90381377D01*
X201775485Y-90472504D01*
X201759500Y-90552868D01*
X201759500Y-92507130D01*
X201775485Y-92587495D01*
X201775485Y-92587496D01*
X201815986Y-92648108D01*
X201836376Y-92678624D01*
X201927505Y-92739515D01*
X202007867Y-92755500D01*
X202512132Y-92755499D01*
X202592495Y-92739515D01*
X202683624Y-92678624D01*
X202744515Y-92587495D01*
X202760500Y-92507133D01*
X202760499Y-90552868D01*
X202744515Y-90472505D01*
X202683624Y-90381376D01*
X202660684Y-90366048D01*
X202592495Y-90320484D01*
X202585763Y-90317696D01*
X202586890Y-90314974D01*
X202549166Y-90289760D01*
X202536700Y-90248656D01*
X202536700Y-89925265D01*
X202558374Y-89872939D01*
X203552939Y-88878374D01*
X203605265Y-88856700D01*
X204043335Y-88856700D01*
X204095661Y-88878374D01*
X204117335Y-88930700D01*
X204095661Y-88983026D01*
X203308584Y-89770103D01*
X203308583Y-89770105D01*
X203272159Y-89833190D01*
X203272157Y-89833194D01*
X203272156Y-89833196D01*
X203272156Y-89833197D01*
X203257793Y-89886803D01*
X203257793Y-89886804D01*
X203257792Y-89886803D01*
X203253300Y-89903571D01*
X203253300Y-90248656D01*
X203231626Y-90300982D01*
X203203535Y-90315999D01*
X203204238Y-90317696D01*
X203197505Y-90320484D01*
X203106377Y-90381375D01*
X203106375Y-90381377D01*
X203045485Y-90472504D01*
X203029500Y-90552868D01*
X203029500Y-92507130D01*
X203045485Y-92587495D01*
X203045485Y-92587496D01*
X203085986Y-92648108D01*
X203106376Y-92678624D01*
X203197505Y-92739515D01*
X203277867Y-92755500D01*
X203782132Y-92755499D01*
X203862495Y-92739515D01*
X203953624Y-92678624D01*
X204014515Y-92587495D01*
X204030500Y-92507133D01*
X204030499Y-90552868D01*
X204014515Y-90472505D01*
X203953624Y-90381376D01*
X203930684Y-90366048D01*
X203862495Y-90320484D01*
X203855763Y-90317696D01*
X203856890Y-90314974D01*
X203819166Y-90289760D01*
X203806700Y-90248656D01*
X203806700Y-90085265D01*
X203828374Y-90032939D01*
X204592939Y-89268374D01*
X204645265Y-89246700D01*
X205043335Y-89246700D01*
X205095661Y-89268374D01*
X205117335Y-89320700D01*
X205095661Y-89373026D01*
X204578584Y-89890103D01*
X204578583Y-89890105D01*
X204542159Y-89953190D01*
X204542156Y-89953197D01*
X204529238Y-90001413D01*
X204529237Y-90001416D01*
X204523300Y-90023571D01*
X204523300Y-90248656D01*
X204501626Y-90300982D01*
X204473535Y-90315999D01*
X204474238Y-90317696D01*
X204467505Y-90320484D01*
X204376377Y-90381375D01*
X204376375Y-90381377D01*
X204315485Y-90472504D01*
X204299500Y-90552868D01*
X204299500Y-92507130D01*
X204315485Y-92587495D01*
X204315485Y-92587496D01*
X204355986Y-92648108D01*
X204376376Y-92678624D01*
X204467505Y-92739515D01*
X204547867Y-92755500D01*
X205052132Y-92755499D01*
X205132495Y-92739515D01*
X205223624Y-92678624D01*
X205284515Y-92587495D01*
X205300500Y-92507133D01*
X205300499Y-90552868D01*
X205284515Y-90472505D01*
X205223624Y-90381376D01*
X205200684Y-90366048D01*
X205132495Y-90320484D01*
X205125763Y-90317696D01*
X205126890Y-90314974D01*
X205089166Y-90289760D01*
X205076700Y-90248656D01*
X205076700Y-90205265D01*
X205098374Y-90152939D01*
X205602939Y-89648374D01*
X205655265Y-89626700D01*
X206378336Y-89626700D01*
X206430662Y-89648374D01*
X206452336Y-89700700D01*
X206430662Y-89753026D01*
X205900860Y-90282826D01*
X205848536Y-90304500D01*
X205817868Y-90304500D01*
X205737504Y-90320485D01*
X205737503Y-90320485D01*
X205646377Y-90381375D01*
X205646375Y-90381377D01*
X205585485Y-90472504D01*
X205569500Y-90552868D01*
X205569500Y-92507130D01*
X205585485Y-92587495D01*
X205585485Y-92587496D01*
X205625986Y-92648108D01*
X205646376Y-92678624D01*
X205737505Y-92739515D01*
X205817867Y-92755500D01*
X206322132Y-92755499D01*
X206402495Y-92739515D01*
X206493624Y-92678624D01*
X206554515Y-92587495D01*
X206570500Y-92507133D01*
X206570499Y-90552868D01*
X206554515Y-90472505D01*
X206554514Y-90472504D01*
X206553093Y-90465357D01*
X206555655Y-90464847D01*
X206555657Y-90418621D01*
X206571697Y-90394616D01*
X206693979Y-90272335D01*
X206817940Y-90148374D01*
X206870266Y-90126700D01*
X209734795Y-90126700D01*
X209734796Y-90126700D01*
X209805171Y-90107844D01*
X209868266Y-90071415D01*
X212551415Y-87388266D01*
X212587844Y-87325171D01*
X212606700Y-87254796D01*
X212606700Y-87181940D01*
X212606700Y-72453572D01*
X212587844Y-72383198D01*
X212587844Y-72383197D01*
X212587843Y-72383194D01*
X212569629Y-72351649D01*
X212551415Y-72320102D01*
X211034898Y-70803585D01*
X210977498Y-70770444D01*
X210971809Y-70767159D01*
X210971803Y-70767156D01*
X210901428Y-70748300D01*
X210901427Y-70748300D01*
X209974500Y-70748300D01*
X209922174Y-70726626D01*
X209900500Y-70674300D01*
X209900500Y-70645740D01*
X209900500Y-70645734D01*
X209897646Y-70615301D01*
X209852793Y-70487118D01*
X209852792Y-70487116D01*
X209772153Y-70377853D01*
X209772146Y-70377846D01*
X209662883Y-70297207D01*
X209662881Y-70297206D01*
X209534704Y-70252355D01*
X209534705Y-70252355D01*
X209534700Y-70252354D01*
X209534699Y-70252354D01*
X209504266Y-70249500D01*
X208495734Y-70249500D01*
X208465301Y-70252354D01*
X208465299Y-70252354D01*
X208465295Y-70252355D01*
X208337118Y-70297206D01*
X208337116Y-70297207D01*
X208227853Y-70377846D01*
X208227846Y-70377853D01*
X208147207Y-70487116D01*
X208147206Y-70487118D01*
X208102355Y-70615295D01*
X208102354Y-70615299D01*
X208102354Y-70615301D01*
X208099500Y-70645734D01*
X208099500Y-71404266D01*
X208102354Y-71434699D01*
X208102354Y-71434701D01*
X208102355Y-71434704D01*
X208147206Y-71562881D01*
X208147207Y-71562883D01*
X208227846Y-71672146D01*
X208227847Y-71672147D01*
X208227848Y-71672148D01*
X208227850Y-71672150D01*
X208231658Y-71674960D01*
X208260888Y-71723472D01*
X208247254Y-71778444D01*
X208198742Y-71807674D01*
X208187714Y-71808500D01*
X207960465Y-71808500D01*
X207908139Y-71786826D01*
X206942174Y-70820861D01*
X206920500Y-70768535D01*
X206920500Y-70645740D01*
X206920500Y-70645734D01*
X206917646Y-70615301D01*
X206872793Y-70487118D01*
X206872792Y-70487116D01*
X206792153Y-70377853D01*
X206792146Y-70377846D01*
X206682883Y-70297207D01*
X206682881Y-70297206D01*
X206554704Y-70252355D01*
X206554705Y-70252355D01*
X206554700Y-70252354D01*
X206554699Y-70252354D01*
X206524266Y-70249500D01*
X205515734Y-70249500D01*
X205485301Y-70252354D01*
X205485299Y-70252354D01*
X205485295Y-70252355D01*
X205357118Y-70297206D01*
X205357116Y-70297207D01*
X205247853Y-70377846D01*
X205247846Y-70377853D01*
X205167207Y-70487116D01*
X205167206Y-70487118D01*
X205122355Y-70615295D01*
X205122354Y-70615299D01*
X205122354Y-70615301D01*
X205119500Y-70645734D01*
X205119500Y-71404266D01*
X205122354Y-71434699D01*
X205122354Y-71434701D01*
X205122355Y-71434704D01*
X205167206Y-71562881D01*
X205167207Y-71562883D01*
X205247846Y-71672146D01*
X205247853Y-71672153D01*
X205357116Y-71752792D01*
X205357118Y-71752793D01*
X205485295Y-71797644D01*
X205485301Y-71797646D01*
X205515734Y-71800500D01*
X205515741Y-71800500D01*
X206524258Y-71800500D01*
X206524266Y-71800500D01*
X206554699Y-71797646D01*
X206682882Y-71752793D01*
X206792150Y-71672150D01*
X206833950Y-71615512D01*
X206882460Y-71586282D01*
X206937432Y-71599914D01*
X206945816Y-71607129D01*
X207373261Y-72034574D01*
X207394935Y-72086900D01*
X207373261Y-72139226D01*
X207320935Y-72160900D01*
X205382865Y-72160900D01*
X205330539Y-72139226D01*
X204666207Y-71474894D01*
X203994898Y-70803585D01*
X203977034Y-70793271D01*
X203937499Y-70770444D01*
X203903021Y-70725510D01*
X203900500Y-70706359D01*
X203900500Y-70645740D01*
X203900500Y-70645734D01*
X203897646Y-70615301D01*
X203852793Y-70487118D01*
X203852792Y-70487116D01*
X203772153Y-70377853D01*
X203772146Y-70377846D01*
X203662883Y-70297207D01*
X203662881Y-70297206D01*
X203534704Y-70252355D01*
X203534705Y-70252355D01*
X203534700Y-70252354D01*
X203534699Y-70252354D01*
X203504266Y-70249500D01*
X202495734Y-70249500D01*
X202465301Y-70252354D01*
X202465299Y-70252354D01*
X202465295Y-70252355D01*
X202337118Y-70297206D01*
X202337116Y-70297207D01*
X202227853Y-70377846D01*
X202227846Y-70377853D01*
X202147207Y-70487116D01*
X202147206Y-70487118D01*
X202102355Y-70615295D01*
X202102354Y-70615299D01*
X202102354Y-70615301D01*
X202099500Y-70645734D01*
X202099500Y-71404266D01*
X202102354Y-71434699D01*
X202102354Y-71434701D01*
X202102355Y-71434704D01*
X202147206Y-71562881D01*
X202147207Y-71562883D01*
X202227846Y-71672146D01*
X202227853Y-71672153D01*
X202337116Y-71752792D01*
X202337118Y-71752793D01*
X202465295Y-71797644D01*
X202465301Y-71797646D01*
X202495734Y-71800500D01*
X202495741Y-71800500D01*
X203504258Y-71800500D01*
X203504266Y-71800500D01*
X203534699Y-71797646D01*
X203662882Y-71752793D01*
X203772150Y-71672150D01*
X203852168Y-71563728D01*
X203900677Y-71534499D01*
X203955649Y-71548131D01*
X203964033Y-71555346D01*
X204795661Y-72386974D01*
X204817335Y-72439300D01*
X204795661Y-72491626D01*
X204743335Y-72513300D01*
X202745265Y-72513300D01*
X202692939Y-72491626D01*
X201873459Y-71672146D01*
X201004898Y-70803585D01*
X200947498Y-70770444D01*
X200937602Y-70764730D01*
X200939163Y-70762024D01*
X200906054Y-70728730D01*
X200900500Y-70700602D01*
X200900500Y-70645740D01*
X200900500Y-70645734D01*
X200897646Y-70615301D01*
X200852793Y-70487118D01*
X200852792Y-70487116D01*
X200772153Y-70377853D01*
X200772146Y-70377846D01*
X200662883Y-70297207D01*
X200662881Y-70297206D01*
X200534704Y-70252355D01*
X200534705Y-70252355D01*
X200534700Y-70252354D01*
X200534699Y-70252354D01*
X200504266Y-70249500D01*
X199495734Y-70249500D01*
X199465301Y-70252354D01*
X199465299Y-70252354D01*
X199465295Y-70252355D01*
X199337118Y-70297206D01*
X199337116Y-70297207D01*
X199227853Y-70377846D01*
X199227846Y-70377853D01*
X199147207Y-70487116D01*
X199147206Y-70487118D01*
X199102355Y-70615295D01*
X199102354Y-70615299D01*
X199102354Y-70615301D01*
X199099500Y-70645734D01*
X199099500Y-71404266D01*
X197566700Y-71404266D01*
X197566700Y-69225000D01*
X198800001Y-69225000D01*
X198800001Y-69349976D01*
X198810494Y-69452696D01*
X198865642Y-69619121D01*
X198957683Y-69768343D01*
X198957686Y-69768347D01*
X199081653Y-69892314D01*
X199081656Y-69892316D01*
X199230878Y-69984357D01*
X199397302Y-70039505D01*
X199500025Y-70049999D01*
X199750000Y-70049999D01*
X199750000Y-69225000D01*
X200250000Y-69225000D01*
X200250000Y-70049999D01*
X200499971Y-70049999D01*
X200499976Y-70049998D01*
X200602696Y-70039505D01*
X200769121Y-69984357D01*
X200918343Y-69892316D01*
X200918347Y-69892314D01*
X201042314Y-69768347D01*
X201042316Y-69768343D01*
X201134357Y-69619121D01*
X201189505Y-69452697D01*
X201199999Y-69349975D01*
X201200000Y-69349973D01*
X201200000Y-69225000D01*
X201800001Y-69225000D01*
X201800001Y-69349976D01*
X201810494Y-69452696D01*
X201865642Y-69619121D01*
X201957683Y-69768343D01*
X201957686Y-69768347D01*
X202081653Y-69892314D01*
X202081656Y-69892316D01*
X202230878Y-69984357D01*
X202397302Y-70039505D01*
X202500025Y-70049999D01*
X202750000Y-70049999D01*
X202750000Y-69225000D01*
X203250000Y-69225000D01*
X203250000Y-70049999D01*
X203499971Y-70049999D01*
X203499976Y-70049998D01*
X203602696Y-70039505D01*
X203769121Y-69984357D01*
X203918343Y-69892316D01*
X203918347Y-69892314D01*
X204042314Y-69768347D01*
X204042316Y-69768343D01*
X204134357Y-69619121D01*
X204189505Y-69452697D01*
X204199999Y-69349975D01*
X204200000Y-69349973D01*
X204200000Y-69225000D01*
X204820001Y-69225000D01*
X204820001Y-69349976D01*
X204830494Y-69452696D01*
X204885642Y-69619121D01*
X204977683Y-69768343D01*
X204977686Y-69768347D01*
X205101653Y-69892314D01*
X205101656Y-69892316D01*
X205250878Y-69984357D01*
X205417302Y-70039505D01*
X205520025Y-70049999D01*
X205770000Y-70049999D01*
X205770000Y-69225000D01*
X206270000Y-69225000D01*
X206270000Y-70049999D01*
X206519971Y-70049999D01*
X206519976Y-70049998D01*
X206622696Y-70039505D01*
X206789121Y-69984357D01*
X206938343Y-69892316D01*
X206938347Y-69892314D01*
X207062314Y-69768347D01*
X207062316Y-69768343D01*
X207154357Y-69619121D01*
X207209505Y-69452697D01*
X207219999Y-69349975D01*
X207220000Y-69349973D01*
X207220000Y-69225000D01*
X207800001Y-69225000D01*
X207800001Y-69349976D01*
X207810494Y-69452696D01*
X207865642Y-69619121D01*
X207957683Y-69768343D01*
X207957686Y-69768347D01*
X208081653Y-69892314D01*
X208081656Y-69892316D01*
X208230878Y-69984357D01*
X208397302Y-70039505D01*
X208500025Y-70049999D01*
X208750000Y-70049999D01*
X208750000Y-69225000D01*
X209250000Y-69225000D01*
X209250000Y-70049999D01*
X209499971Y-70049999D01*
X209499976Y-70049998D01*
X209602696Y-70039505D01*
X209769121Y-69984357D01*
X209918343Y-69892316D01*
X209918347Y-69892314D01*
X210042314Y-69768347D01*
X210042316Y-69768343D01*
X210134357Y-69619121D01*
X210182114Y-69475000D01*
X210845001Y-69475000D01*
X210845001Y-69574144D01*
X210855319Y-69675153D01*
X210909546Y-69838799D01*
X210909548Y-69838805D01*
X211000054Y-69985537D01*
X211121962Y-70107445D01*
X211268694Y-70197951D01*
X211268700Y-70197953D01*
X211432346Y-70252180D01*
X211533357Y-70262499D01*
X211569999Y-70262498D01*
X211570000Y-70262498D01*
X211570000Y-69475000D01*
X212070000Y-69475000D01*
X212070000Y-70262499D01*
X212106639Y-70262499D01*
X212106644Y-70262498D01*
X212207653Y-70252180D01*
X212371299Y-70197953D01*
X212371305Y-70197951D01*
X212518037Y-70107445D01*
X212639945Y-69985537D01*
X212730451Y-69838805D01*
X212730453Y-69838799D01*
X212784680Y-69675153D01*
X212794999Y-69574143D01*
X212795000Y-69574141D01*
X212795000Y-69475000D01*
X212070000Y-69475000D01*
X211570000Y-69475000D01*
X210845001Y-69475000D01*
X210182114Y-69475000D01*
X210189505Y-69452697D01*
X210199999Y-69349975D01*
X210200000Y-69349973D01*
X210200000Y-69225000D01*
X209250000Y-69225000D01*
X208750000Y-69225000D01*
X207800001Y-69225000D01*
X207220000Y-69225000D01*
X206270000Y-69225000D01*
X205770000Y-69225000D01*
X204820001Y-69225000D01*
X204200000Y-69225000D01*
X203250000Y-69225000D01*
X202750000Y-69225000D01*
X201800001Y-69225000D01*
X201200000Y-69225000D01*
X200250000Y-69225000D01*
X199750000Y-69225000D01*
X198800001Y-69225000D01*
X197566700Y-69225000D01*
X197566700Y-69095265D01*
X197588374Y-69042939D01*
X198702939Y-67928374D01*
X198755265Y-67906700D01*
X199065506Y-67906700D01*
X199117832Y-67928374D01*
X199139506Y-67980700D01*
X199117832Y-68033026D01*
X199104355Y-68043682D01*
X199081658Y-68057681D01*
X198957683Y-68181656D01*
X198865642Y-68330878D01*
X198810494Y-68497302D01*
X198800000Y-68600024D01*
X198800000Y-68725000D01*
X201199999Y-68725000D01*
X201199999Y-68600029D01*
X201199998Y-68600023D01*
X201189505Y-68497303D01*
X201134357Y-68330878D01*
X201042316Y-68181656D01*
X201042314Y-68181653D01*
X200918347Y-68057686D01*
X200918341Y-68057681D01*
X200895645Y-68043682D01*
X200862489Y-67997765D01*
X200871512Y-67941851D01*
X200917429Y-67908695D01*
X200934494Y-67906700D01*
X202065506Y-67906700D01*
X202117832Y-67928374D01*
X202139506Y-67980700D01*
X202117832Y-68033026D01*
X202104355Y-68043682D01*
X202081658Y-68057681D01*
X201957683Y-68181656D01*
X201865642Y-68330878D01*
X201810494Y-68497302D01*
X201800000Y-68600024D01*
X201800000Y-68725000D01*
X204199999Y-68725000D01*
X204199999Y-68600029D01*
X204199998Y-68600023D01*
X204189505Y-68497303D01*
X204134357Y-68330878D01*
X204042316Y-68181656D01*
X204042314Y-68181653D01*
X203918347Y-68057686D01*
X203918341Y-68057681D01*
X203895645Y-68043682D01*
X203862489Y-67997765D01*
X203871512Y-67941851D01*
X203917429Y-67908695D01*
X203934494Y-67906700D01*
X205085506Y-67906700D01*
X205137832Y-67928374D01*
X205159506Y-67980700D01*
X205137832Y-68033026D01*
X205124355Y-68043682D01*
X205101658Y-68057681D01*
X204977683Y-68181656D01*
X204885642Y-68330878D01*
X204830494Y-68497302D01*
X204820000Y-68600024D01*
X204820000Y-68725000D01*
X207219999Y-68725000D01*
X207800000Y-68725000D01*
X210199999Y-68725000D01*
X210199999Y-68600029D01*
X210199998Y-68600023D01*
X210189505Y-68497303D01*
X210134357Y-68330878D01*
X210042316Y-68181656D01*
X210042314Y-68181653D01*
X209918347Y-68057686D01*
X209918343Y-68057683D01*
X209769121Y-67965642D01*
X209602697Y-67910494D01*
X209499975Y-67900000D01*
X209273032Y-67900000D01*
X209220706Y-67878326D01*
X209199032Y-67826000D01*
X209217106Y-67777541D01*
X209255376Y-67733374D01*
X209255375Y-67733374D01*
X209255377Y-67733373D01*
X209315165Y-67602457D01*
X209335647Y-67460000D01*
X209326545Y-67396700D01*
X209340551Y-67341825D01*
X209347459Y-67333852D01*
X209711415Y-66969898D01*
X209747844Y-66906803D01*
X209766700Y-66836428D01*
X209766700Y-66785817D01*
X209788374Y-66733491D01*
X209829125Y-66712728D01*
X209848126Y-66709719D01*
X209968220Y-66648528D01*
X210063528Y-66553220D01*
X210124719Y-66433126D01*
X210132956Y-66381118D01*
X210162549Y-66332828D01*
X210186889Y-66321217D01*
X210236803Y-66307844D01*
X210299898Y-66271415D01*
X210992939Y-65578374D01*
X211045265Y-65556700D01*
X211074182Y-65556700D01*
X211126508Y-65578374D01*
X211147271Y-65619123D01*
X211150280Y-65638122D01*
X211150282Y-65638128D01*
X211208535Y-65752457D01*
X211211472Y-65758220D01*
X211306780Y-65853528D01*
X211426873Y-65914718D01*
X211426873Y-65914719D01*
X211480876Y-65923272D01*
X211529167Y-65952865D01*
X211543300Y-65996361D01*
X211543300Y-66697170D01*
X211521626Y-66749496D01*
X211493741Y-66767017D01*
X211375526Y-66808382D01*
X211269290Y-66886788D01*
X211269288Y-66886790D01*
X211190882Y-66993026D01*
X211147276Y-67117645D01*
X211147275Y-67117649D01*
X211147275Y-67117651D01*
X211144500Y-67147244D01*
X211144500Y-67852756D01*
X211147275Y-67882349D01*
X211147275Y-67882351D01*
X211147276Y-67882354D01*
X211190882Y-68006973D01*
X211210110Y-68033026D01*
X211269289Y-68113211D01*
X211269292Y-68113213D01*
X211269293Y-68113214D01*
X211284119Y-68124156D01*
X211313350Y-68172667D01*
X211299717Y-68227638D01*
X211271454Y-68250761D01*
X211268701Y-68252044D01*
X211121962Y-68342554D01*
X211000054Y-68464462D01*
X210909548Y-68611194D01*
X210909546Y-68611200D01*
X210855319Y-68774846D01*
X210845000Y-68875856D01*
X210845000Y-68975000D01*
X212794999Y-68975000D01*
X212794999Y-68875861D01*
X212794998Y-68875855D01*
X212784680Y-68774846D01*
X212730453Y-68611200D01*
X212730451Y-68611194D01*
X212639945Y-68464462D01*
X212518037Y-68342554D01*
X212371301Y-68252046D01*
X212368549Y-68250763D01*
X212367675Y-68249810D01*
X212367635Y-68249785D01*
X212367642Y-68249773D01*
X212330285Y-68209006D01*
X212332755Y-68152423D01*
X212355877Y-68124158D01*
X212370711Y-68113211D01*
X212449116Y-68006975D01*
X212465379Y-67960500D01*
X212479567Y-67919953D01*
X212492725Y-67882349D01*
X212495500Y-67852756D01*
X212495500Y-67147244D01*
X212492725Y-67117651D01*
X212492723Y-67117645D01*
X212449117Y-66993026D01*
X212414231Y-66945757D01*
X212370711Y-66886789D01*
X212302471Y-66836426D01*
X212264473Y-66808382D01*
X212146259Y-66767017D01*
X212104028Y-66729277D01*
X212096700Y-66697170D01*
X212096700Y-65993193D01*
X212118374Y-65940867D01*
X212159124Y-65920104D01*
X212193126Y-65914719D01*
X212313220Y-65853528D01*
X212408528Y-65758220D01*
X212469719Y-65638126D01*
X212485500Y-65538488D01*
X212485500Y-65021512D01*
X212481751Y-64997844D01*
X212469719Y-64921874D01*
X212469718Y-64921873D01*
X212464776Y-64912174D01*
X212408528Y-64801780D01*
X212313220Y-64706472D01*
X212313219Y-64706471D01*
X212193126Y-64645281D01*
X212193125Y-64645280D01*
X212093489Y-64629500D01*
X212093488Y-64629500D01*
X211526512Y-64629500D01*
X211526511Y-64629500D01*
X211426874Y-64645280D01*
X211426873Y-64645281D01*
X211306780Y-64706471D01*
X211211471Y-64801780D01*
X211150282Y-64921871D01*
X211150280Y-64921877D01*
X211147271Y-64940877D01*
X211117678Y-64989168D01*
X211074182Y-65003300D01*
X210863572Y-65003300D01*
X210828385Y-65012728D01*
X210793197Y-65022156D01*
X210793193Y-65022158D01*
X210730105Y-65058582D01*
X210195758Y-65592928D01*
X210143432Y-65614602D01*
X210091106Y-65592928D01*
X210077499Y-65574200D01*
X210063528Y-65546780D01*
X209968220Y-65451472D01*
X209968219Y-65451471D01*
X209848126Y-65390281D01*
X209848125Y-65390280D01*
X209748489Y-65374500D01*
X209748488Y-65374500D01*
X209231512Y-65374500D01*
X209231511Y-65374500D01*
X209131874Y-65390280D01*
X209131873Y-65390281D01*
X209011780Y-65451471D01*
X208916471Y-65546780D01*
X208855281Y-65666873D01*
X208855280Y-65666874D01*
X208839500Y-65766511D01*
X208839500Y-66333488D01*
X208855280Y-66433125D01*
X208855281Y-66433126D01*
X208909289Y-66539124D01*
X208916472Y-66553220D01*
X209011780Y-66648528D01*
X209078945Y-66682750D01*
X209115727Y-66725817D01*
X209111283Y-66782280D01*
X209097675Y-66801010D01*
X208960699Y-66937986D01*
X208908373Y-66959660D01*
X208906122Y-66959500D01*
X208901961Y-66959500D01*
X208758039Y-66959500D01*
X208758036Y-66959500D01*
X208619949Y-67000046D01*
X208619945Y-67000047D01*
X208498875Y-67077855D01*
X208498868Y-67077860D01*
X208404623Y-67186626D01*
X208344834Y-67317545D01*
X208324353Y-67460000D01*
X208344834Y-67602454D01*
X208404623Y-67733373D01*
X208451782Y-67787798D01*
X208469667Y-67841537D01*
X208444315Y-67892183D01*
X208403377Y-67909874D01*
X208397302Y-67910494D01*
X208230878Y-67965642D01*
X208081656Y-68057683D01*
X207957683Y-68181656D01*
X207865642Y-68330878D01*
X207810494Y-68497302D01*
X207800000Y-68600024D01*
X207800000Y-68725000D01*
X207219999Y-68725000D01*
X207219999Y-68600029D01*
X207219998Y-68600023D01*
X207209505Y-68497303D01*
X207154357Y-68330878D01*
X207062316Y-68181656D01*
X207062314Y-68181653D01*
X206938347Y-68057686D01*
X206938343Y-68057683D01*
X206789121Y-67965642D01*
X206622697Y-67910494D01*
X206519975Y-67900000D01*
X206251958Y-67900000D01*
X206199632Y-67878326D01*
X206177958Y-67826000D01*
X206199632Y-67773674D01*
X206211951Y-67763747D01*
X206261128Y-67732143D01*
X206355377Y-67623373D01*
X206415165Y-67492457D01*
X206435647Y-67350000D01*
X206415165Y-67207543D01*
X206355377Y-67076627D01*
X206282936Y-66993025D01*
X206261131Y-66967860D01*
X206261129Y-66967859D01*
X206261128Y-66967857D01*
X206175769Y-66913000D01*
X206140054Y-66890047D01*
X206140050Y-66890046D01*
X206001964Y-66849500D01*
X206001961Y-66849500D01*
X205858039Y-66849500D01*
X205858036Y-66849500D01*
X205719949Y-66890046D01*
X205719945Y-66890047D01*
X205598875Y-66967855D01*
X205598868Y-66967860D01*
X205504623Y-67076626D01*
X205444834Y-67207545D01*
X205433004Y-67289831D01*
X205404104Y-67338540D01*
X205359757Y-67353300D01*
X205116664Y-67353300D01*
X205064338Y-67331626D01*
X205042664Y-67279300D01*
X205064337Y-67226975D01*
X205151415Y-67139898D01*
X205187844Y-67076803D01*
X205206700Y-67006428D01*
X205206700Y-66936894D01*
X205228374Y-66884568D01*
X205248200Y-66870413D01*
X205268181Y-66860645D01*
X205286483Y-66851698D01*
X205369198Y-66768983D01*
X205420573Y-66663893D01*
X205430500Y-66595760D01*
X205430500Y-66400700D01*
X205452174Y-66348374D01*
X205504500Y-66326700D01*
X207225223Y-66326700D01*
X207277549Y-66348374D01*
X207298312Y-66389124D01*
X207305281Y-66433126D01*
X207359289Y-66539124D01*
X207366472Y-66553220D01*
X207461780Y-66648528D01*
X207581874Y-66709719D01*
X207681511Y-66725500D01*
X207681512Y-66725500D01*
X208198489Y-66725500D01*
X208248841Y-66717525D01*
X208298126Y-66709719D01*
X208418220Y-66648528D01*
X208513528Y-66553220D01*
X208574719Y-66433126D01*
X208590500Y-66333488D01*
X208590500Y-65766512D01*
X208588273Y-65752454D01*
X208574719Y-65666874D01*
X208574718Y-65666873D01*
X208573737Y-65664948D01*
X208513528Y-65546780D01*
X208418220Y-65451472D01*
X208418219Y-65451471D01*
X208298126Y-65390281D01*
X208298125Y-65390280D01*
X208198489Y-65374500D01*
X208198488Y-65374500D01*
X207681512Y-65374500D01*
X207681511Y-65374500D01*
X207581874Y-65390280D01*
X207581873Y-65390281D01*
X207461780Y-65451471D01*
X207377128Y-65536123D01*
X207324802Y-65557797D01*
X207272476Y-65536123D01*
X207250802Y-65483797D01*
X207257490Y-65453056D01*
X207285165Y-65392457D01*
X207285871Y-65387545D01*
X207305647Y-65250000D01*
X207296545Y-65186700D01*
X207310551Y-65131825D01*
X207317459Y-65123852D01*
X207402940Y-65038373D01*
X207455265Y-65016700D01*
X209186427Y-65016700D01*
X209186428Y-65016700D01*
X209256803Y-64997844D01*
X209319898Y-64961415D01*
X209761415Y-64519898D01*
X209776377Y-64493983D01*
X209783675Y-64481342D01*
X209828608Y-64446867D01*
X209836175Y-64445258D01*
X209865304Y-64440646D01*
X209978342Y-64383050D01*
X210068050Y-64293342D01*
X210125646Y-64180304D01*
X210135336Y-64119124D01*
X210164929Y-64070833D01*
X210208425Y-64056700D01*
X211088921Y-64056700D01*
X211141247Y-64078374D01*
X211154855Y-64097104D01*
X211184079Y-64154460D01*
X211211472Y-64208220D01*
X211306780Y-64303528D01*
X211426874Y-64364719D01*
X211526511Y-64380500D01*
X211526512Y-64380500D01*
X212093489Y-64380500D01*
X212143307Y-64372609D01*
X212193126Y-64364719D01*
X212313220Y-64303528D01*
X212408528Y-64208220D01*
X212469719Y-64088126D01*
X212485500Y-63988488D01*
X212485500Y-63471512D01*
X212469719Y-63371874D01*
X212408528Y-63251780D01*
X212313220Y-63156472D01*
X212313219Y-63156471D01*
X212193126Y-63095281D01*
X212193125Y-63095280D01*
X212093489Y-63079500D01*
X212093488Y-63079500D01*
X211526512Y-63079500D01*
X211526511Y-63079500D01*
X211426874Y-63095280D01*
X211426873Y-63095281D01*
X211306780Y-63156471D01*
X211211471Y-63251780D01*
X211150281Y-63371873D01*
X211150280Y-63371874D01*
X211139352Y-63440876D01*
X211109759Y-63489167D01*
X211066263Y-63503300D01*
X210208424Y-63503300D01*
X210156098Y-63481626D01*
X210135335Y-63440875D01*
X210125646Y-63379695D01*
X210125645Y-63379693D01*
X210068049Y-63266657D01*
X209978343Y-63176951D01*
X209978342Y-63176950D01*
X209865304Y-63119354D01*
X209865302Y-63119353D01*
X209865301Y-63119353D01*
X209771519Y-63104500D01*
X209308480Y-63104500D01*
X209214695Y-63119353D01*
X209214693Y-63119354D01*
X209101657Y-63176950D01*
X209011951Y-63266656D01*
X208954353Y-63379698D01*
X208939500Y-63473480D01*
X208939500Y-64086519D01*
X208954353Y-64180304D01*
X208954354Y-64180306D01*
X209011950Y-64293342D01*
X209055582Y-64336974D01*
X209077256Y-64389300D01*
X209055582Y-64441626D01*
X209003256Y-64463300D01*
X208426744Y-64463300D01*
X208374418Y-64441626D01*
X208352744Y-64389300D01*
X208374418Y-64336974D01*
X208390639Y-64320753D01*
X208418050Y-64293342D01*
X208475646Y-64180304D01*
X208490500Y-64086519D01*
X208490499Y-63473482D01*
X208481476Y-63416511D01*
X208475646Y-63379695D01*
X208475645Y-63379693D01*
X208418049Y-63266657D01*
X208328343Y-63176951D01*
X208328342Y-63176950D01*
X208215304Y-63119354D01*
X208215302Y-63119353D01*
X208215301Y-63119353D01*
X208121519Y-63104500D01*
X207658480Y-63104500D01*
X207564695Y-63119353D01*
X207564693Y-63119354D01*
X207451657Y-63176950D01*
X207361951Y-63266656D01*
X207304353Y-63379698D01*
X207294664Y-63440876D01*
X207265071Y-63489167D01*
X207221575Y-63503300D01*
X205504500Y-63503300D01*
X205452174Y-63481626D01*
X205430500Y-63429300D01*
X205430500Y-63229246D01*
X205430500Y-63229240D01*
X205420573Y-63161107D01*
X205369198Y-63056017D01*
X205286483Y-62973302D01*
X205286482Y-62973301D01*
X205286483Y-62973301D01*
X205243350Y-62952215D01*
X205205860Y-62909761D01*
X205204372Y-62904884D01*
X205195481Y-62871698D01*
X205195481Y-62871697D01*
X205187845Y-62843201D01*
X205187844Y-62843197D01*
X205151415Y-62780102D01*
X204744898Y-62373585D01*
X204719660Y-62359013D01*
X204681809Y-62337159D01*
X204681803Y-62337156D01*
X204611428Y-62318300D01*
X204611427Y-62318300D01*
X202071289Y-62318300D01*
X202018963Y-62296626D01*
X202015372Y-62292770D01*
X201946128Y-62212857D01*
X201889182Y-62176260D01*
X201825054Y-62135047D01*
X201825050Y-62135046D01*
X201686964Y-62094500D01*
X201686961Y-62094500D01*
X201543039Y-62094500D01*
X201543036Y-62094500D01*
X201404949Y-62135046D01*
X201404945Y-62135047D01*
X201283875Y-62212855D01*
X201283868Y-62212860D01*
X201189623Y-62321626D01*
X201129834Y-62452545D01*
X201109353Y-62595000D01*
X201129834Y-62737454D01*
X201129834Y-62737455D01*
X201129835Y-62737457D01*
X201146804Y-62774613D01*
X201189623Y-62868373D01*
X201283868Y-62977139D01*
X201283869Y-62977140D01*
X201283872Y-62977143D01*
X201404947Y-63054953D01*
X201511403Y-63086211D01*
X201543035Y-63095499D01*
X201543037Y-63095500D01*
X201543039Y-63095500D01*
X201686963Y-63095500D01*
X201686964Y-63095499D01*
X201825053Y-63054953D01*
X201946128Y-62977143D01*
X202015364Y-62897239D01*
X202066010Y-62871889D01*
X202071289Y-62871700D01*
X202226220Y-62871700D01*
X202278546Y-62893374D01*
X202300220Y-62945700D01*
X202289915Y-62983370D01*
X202278717Y-63002303D01*
X202232900Y-63160006D01*
X202230000Y-63196858D01*
X202230000Y-63525000D01*
X203830000Y-63525000D01*
X203830000Y-63196858D01*
X203827099Y-63160006D01*
X203781282Y-63002303D01*
X203770085Y-62983370D01*
X203762105Y-62927298D01*
X203796110Y-62882005D01*
X203833780Y-62871700D01*
X204429735Y-62871700D01*
X204482061Y-62893374D01*
X204515427Y-62926740D01*
X204537101Y-62979066D01*
X204515427Y-63031392D01*
X204490801Y-63056017D01*
X204439427Y-63161105D01*
X204439427Y-63161106D01*
X204429500Y-63229235D01*
X204429500Y-64320764D01*
X204439427Y-64388893D01*
X204439427Y-64388894D01*
X204490800Y-64493980D01*
X204490801Y-64493982D01*
X204490802Y-64493983D01*
X204573517Y-64576698D01*
X204678607Y-64628073D01*
X204746740Y-64638000D01*
X204746746Y-64638000D01*
X205027431Y-64638000D01*
X205079757Y-64659674D01*
X205101431Y-64712000D01*
X205079757Y-64764326D01*
X205064432Y-64776085D01*
X205060105Y-64778583D01*
X205060103Y-64778584D01*
X204708584Y-65130103D01*
X204677912Y-65183227D01*
X204646328Y-65212706D01*
X204573516Y-65248302D01*
X204507326Y-65314493D01*
X204455000Y-65336167D01*
X204402674Y-65314493D01*
X204336482Y-65248301D01*
X204231394Y-65196927D01*
X204163264Y-65187000D01*
X204163260Y-65187000D01*
X203796740Y-65187000D01*
X203796735Y-65187000D01*
X203728606Y-65196927D01*
X203728605Y-65196927D01*
X203623517Y-65248301D01*
X203557326Y-65314493D01*
X203505000Y-65336167D01*
X203452674Y-65314493D01*
X203386482Y-65248301D01*
X203281394Y-65196927D01*
X203213264Y-65187000D01*
X203213260Y-65187000D01*
X202846740Y-65187000D01*
X202846735Y-65187000D01*
X202778606Y-65196927D01*
X202778605Y-65196927D01*
X202673517Y-65248301D01*
X202590801Y-65331017D01*
X202539427Y-65436105D01*
X202539427Y-65436106D01*
X202529500Y-65504235D01*
X202529500Y-65699300D01*
X202507826Y-65751626D01*
X202455500Y-65773300D01*
X202065265Y-65773300D01*
X202012939Y-65751626D01*
X201997466Y-65736153D01*
X201975792Y-65683827D01*
X201976543Y-65673310D01*
X201985647Y-65610000D01*
X201965165Y-65467543D01*
X201905377Y-65336627D01*
X201859966Y-65284219D01*
X201811131Y-65227860D01*
X201811129Y-65227859D01*
X201811128Y-65227857D01*
X201741682Y-65183227D01*
X201690054Y-65150047D01*
X201690050Y-65150046D01*
X201551964Y-65109500D01*
X201551961Y-65109500D01*
X201408039Y-65109500D01*
X201408036Y-65109500D01*
X201269949Y-65150046D01*
X201269945Y-65150047D01*
X201148875Y-65227855D01*
X201148868Y-65227860D01*
X201054623Y-65336626D01*
X200994834Y-65467545D01*
X200974353Y-65610000D01*
X200994834Y-65752454D01*
X200994834Y-65752455D01*
X200994835Y-65752457D01*
X201018088Y-65803373D01*
X201054623Y-65883373D01*
X201148868Y-65992139D01*
X201148869Y-65992140D01*
X201148872Y-65992143D01*
X201269947Y-66069953D01*
X201376403Y-66101211D01*
X201408035Y-66110499D01*
X201408037Y-66110500D01*
X201557254Y-66110500D01*
X201557254Y-66113509D01*
X201602670Y-66125060D01*
X201610692Y-66132005D01*
X201750102Y-66271415D01*
X201813197Y-66307844D01*
X201883572Y-66326700D01*
X202455500Y-66326700D01*
X202507826Y-66348374D01*
X202529500Y-66400700D01*
X202529500Y-66595764D01*
X202539427Y-66663893D01*
X202539427Y-66663894D01*
X202590801Y-66768982D01*
X202673517Y-66851698D01*
X202691356Y-66860419D01*
X202728846Y-66902872D01*
X202725337Y-66959400D01*
X202682884Y-66996890D01*
X202658856Y-67000900D01*
X201412865Y-67000900D01*
X201360539Y-66979226D01*
X200872146Y-66490833D01*
X200359898Y-65978585D01*
X200315351Y-65952865D01*
X200296809Y-65942159D01*
X200296803Y-65942156D01*
X200291992Y-65940867D01*
X200226428Y-65923300D01*
X200226427Y-65923300D01*
X199548424Y-65923300D01*
X199496098Y-65901626D01*
X199475335Y-65860875D01*
X199465646Y-65799695D01*
X199465645Y-65799693D01*
X199433269Y-65736153D01*
X199408050Y-65686658D01*
X199318342Y-65596950D01*
X199205304Y-65539354D01*
X199205302Y-65539353D01*
X199205301Y-65539353D01*
X199111519Y-65524500D01*
X198648480Y-65524500D01*
X198554695Y-65539353D01*
X198554693Y-65539354D01*
X198441657Y-65596950D01*
X198351951Y-65686656D01*
X198351950Y-65686658D01*
X198307804Y-65773300D01*
X198294353Y-65799698D01*
X198279500Y-65893480D01*
X198279500Y-66506519D01*
X198294353Y-66600304D01*
X198294354Y-66600306D01*
X198342985Y-66695748D01*
X198351950Y-66713342D01*
X198441658Y-66803050D01*
X198554696Y-66860646D01*
X198648481Y-66875500D01*
X199111518Y-66875499D01*
X199111519Y-66875499D01*
X199205304Y-66860646D01*
X199205306Y-66860645D01*
X199243651Y-66841107D01*
X199318342Y-66803050D01*
X199408050Y-66713342D01*
X199465646Y-66600304D01*
X199475336Y-66539124D01*
X199504929Y-66490833D01*
X199548425Y-66476700D01*
X200044735Y-66476700D01*
X200097061Y-66498374D01*
X200825661Y-67226974D01*
X200847335Y-67279300D01*
X200825661Y-67331626D01*
X200773335Y-67353300D01*
X198646428Y-67353300D01*
X198573572Y-67353300D01*
X198548424Y-67360038D01*
X198503196Y-67372156D01*
X198503190Y-67372159D01*
X198440105Y-67408583D01*
X198440103Y-67408584D01*
X197068584Y-68780103D01*
X197068583Y-68780105D01*
X197032156Y-68843194D01*
X197032156Y-68843198D01*
X197013300Y-68913573D01*
X197013300Y-75914735D01*
X196991626Y-75967061D01*
X195318584Y-77640103D01*
X195318583Y-77640105D01*
X195282157Y-77703193D01*
X195282154Y-77703200D01*
X195276194Y-77725442D01*
X195276195Y-77725443D01*
X195263300Y-77773571D01*
X195263300Y-102244735D01*
X195241626Y-102297061D01*
X194918584Y-102620103D01*
X194918583Y-102620105D01*
X194882156Y-102683194D01*
X194880437Y-102689613D01*
X194863300Y-102753572D01*
X194863300Y-105323572D01*
X194863300Y-105396428D01*
X194650500Y-105396428D01*
X194650500Y-65530000D01*
X195144353Y-65530000D01*
X195164834Y-65672454D01*
X195164834Y-65672455D01*
X195164835Y-65672457D01*
X195200991Y-65751626D01*
X195224623Y-65803373D01*
X195318868Y-65912139D01*
X195318869Y-65912140D01*
X195318872Y-65912143D01*
X195439947Y-65989953D01*
X195546403Y-66021211D01*
X195578035Y-66030499D01*
X195578037Y-66030500D01*
X195727254Y-66030500D01*
X195727254Y-66033512D01*
X195772662Y-66045055D01*
X195780699Y-66052012D01*
X196150102Y-66421415D01*
X196213197Y-66457844D01*
X196283572Y-66476700D01*
X196561576Y-66476700D01*
X196613902Y-66498374D01*
X196634665Y-66539125D01*
X196644353Y-66600304D01*
X196644354Y-66600306D01*
X196692985Y-66695748D01*
X196701950Y-66713342D01*
X196791658Y-66803050D01*
X196904696Y-66860646D01*
X196998481Y-66875500D01*
X197461518Y-66875499D01*
X197461519Y-66875499D01*
X197555304Y-66860646D01*
X197555306Y-66860645D01*
X197593651Y-66841107D01*
X197668342Y-66803050D01*
X197758050Y-66713342D01*
X197815646Y-66600304D01*
X197830500Y-66506519D01*
X197830499Y-65893482D01*
X197824171Y-65853528D01*
X197815646Y-65799695D01*
X197815645Y-65799693D01*
X197783269Y-65736153D01*
X197758050Y-65686658D01*
X197668342Y-65596950D01*
X197555304Y-65539354D01*
X197555302Y-65539353D01*
X197555301Y-65539353D01*
X197461519Y-65524500D01*
X196998480Y-65524500D01*
X196904695Y-65539353D01*
X196904693Y-65539354D01*
X196791657Y-65596950D01*
X196701951Y-65686656D01*
X196701950Y-65686658D01*
X196657804Y-65773300D01*
X196644353Y-65799698D01*
X196634664Y-65860876D01*
X196605071Y-65909167D01*
X196561575Y-65923300D01*
X196465265Y-65923300D01*
X196412939Y-65901626D01*
X196167466Y-65656153D01*
X196145792Y-65603827D01*
X196146543Y-65593310D01*
X196155647Y-65530000D01*
X196135165Y-65387543D01*
X196075377Y-65256627D01*
X196020415Y-65193197D01*
X195981131Y-65147860D01*
X195981129Y-65147859D01*
X195981128Y-65147857D01*
X195918398Y-65107543D01*
X195860054Y-65070047D01*
X195860050Y-65070046D01*
X195721964Y-65029500D01*
X195721961Y-65029500D01*
X195578039Y-65029500D01*
X195578036Y-65029500D01*
X195439949Y-65070046D01*
X195439945Y-65070047D01*
X195318875Y-65147855D01*
X195318868Y-65147860D01*
X195224623Y-65256626D01*
X195164834Y-65387545D01*
X195144353Y-65530000D01*
X194650500Y-65530000D01*
X194650500Y-63983488D01*
X196699500Y-63983488D01*
X196715280Y-64083125D01*
X196715281Y-64083126D01*
X196764796Y-64180306D01*
X196776472Y-64203220D01*
X196871780Y-64298528D01*
X196991874Y-64359719D01*
X197091511Y-64375500D01*
X197091512Y-64375500D01*
X197608489Y-64375500D01*
X197676563Y-64364718D01*
X197708126Y-64359719D01*
X197828220Y-64298528D01*
X197892552Y-64234195D01*
X197944876Y-64212522D01*
X197997203Y-64234196D01*
X198011942Y-64255243D01*
X198013454Y-64258484D01*
X198102426Y-64402731D01*
X198222268Y-64522573D01*
X198366517Y-64611547D01*
X198527391Y-64664855D01*
X198626689Y-64674999D01*
X198650000Y-64674999D01*
X198650000Y-63950000D01*
X199150000Y-63950000D01*
X199150000Y-64674999D01*
X199173307Y-64674999D01*
X199173312Y-64674998D01*
X199272608Y-64664855D01*
X199433482Y-64611547D01*
X199577731Y-64522573D01*
X199697573Y-64402731D01*
X199786547Y-64258482D01*
X199839855Y-64097608D01*
X199847273Y-64025000D01*
X202230000Y-64025000D01*
X202230000Y-64353141D01*
X202232900Y-64389993D01*
X202278718Y-64547699D01*
X202362317Y-64689056D01*
X202478443Y-64805182D01*
X202619800Y-64888781D01*
X202777506Y-64934599D01*
X202780000Y-64934795D01*
X202780000Y-64025000D01*
X203280000Y-64025000D01*
X203280000Y-64934795D01*
X203282493Y-64934599D01*
X203440199Y-64888781D01*
X203581556Y-64805182D01*
X203697682Y-64689056D01*
X203781281Y-64547699D01*
X203827099Y-64389993D01*
X203830000Y-64353141D01*
X203830000Y-64025000D01*
X203280000Y-64025000D01*
X202780000Y-64025000D01*
X202230000Y-64025000D01*
X199847273Y-64025000D01*
X199849999Y-63998311D01*
X199850000Y-63998309D01*
X199850000Y-63950000D01*
X199150000Y-63950000D01*
X198650000Y-63950000D01*
X198650000Y-62725000D01*
X199150000Y-62725000D01*
X199150000Y-63450000D01*
X199849999Y-63450000D01*
X199849999Y-63401693D01*
X199849998Y-63401687D01*
X199839855Y-63302391D01*
X199786547Y-63141517D01*
X199697573Y-62997268D01*
X199577731Y-62877426D01*
X199433482Y-62788452D01*
X199272608Y-62735144D01*
X199173311Y-62725000D01*
X199150000Y-62725000D01*
X198650000Y-62725000D01*
X198626693Y-62725000D01*
X198626686Y-62725001D01*
X198527391Y-62735144D01*
X198366517Y-62788452D01*
X198222268Y-62877426D01*
X198102426Y-62997268D01*
X198013450Y-63141520D01*
X198011940Y-63144759D01*
X197970178Y-63183017D01*
X197913595Y-63180540D01*
X197892551Y-63165803D01*
X197828219Y-63101471D01*
X197708128Y-63040282D01*
X197708127Y-63040281D01*
X197708126Y-63040281D01*
X197708124Y-63040280D01*
X197708122Y-63040280D01*
X197689123Y-63037271D01*
X197640832Y-63007678D01*
X197626700Y-62964182D01*
X197626700Y-62805265D01*
X197648374Y-62752939D01*
X198552939Y-61848374D01*
X198605265Y-61826700D01*
X201546427Y-61826700D01*
X201546428Y-61826700D01*
X201616803Y-61807844D01*
X201679898Y-61771415D01*
X202371415Y-61079898D01*
X202407844Y-61016803D01*
X202426700Y-60946428D01*
X202426700Y-60873572D01*
X202426700Y-60798715D01*
X202448374Y-60746389D01*
X202479217Y-60727902D01*
X202553954Y-60705232D01*
X202736450Y-60607685D01*
X202896410Y-60476410D01*
X203027685Y-60316450D01*
X203125232Y-60133954D01*
X203185300Y-59935934D01*
X203205583Y-59730000D01*
X203634417Y-59730000D01*
X203654700Y-59935934D01*
X203714768Y-60133954D01*
X203812315Y-60316450D01*
X203943590Y-60476410D01*
X204103550Y-60607685D01*
X204286046Y-60705232D01*
X204360781Y-60727902D01*
X204404562Y-60763831D01*
X204413300Y-60798715D01*
X204413300Y-60993572D01*
X204413300Y-61066428D01*
X204432156Y-61136803D01*
X204468585Y-61199898D01*
X205363187Y-62094500D01*
X205862532Y-62593845D01*
X205884206Y-62646171D01*
X205883453Y-62656701D01*
X205874353Y-62719999D01*
X205874353Y-62720000D01*
X205876863Y-62737457D01*
X205894834Y-62862454D01*
X205894834Y-62862455D01*
X205894835Y-62862457D01*
X205947211Y-62977143D01*
X205954623Y-62993373D01*
X206048868Y-63102139D01*
X206048869Y-63102140D01*
X206048872Y-63102143D01*
X206110144Y-63141520D01*
X206165275Y-63176951D01*
X206169947Y-63179953D01*
X206276403Y-63211211D01*
X206308035Y-63220499D01*
X206308037Y-63220500D01*
X206308039Y-63220500D01*
X206451963Y-63220500D01*
X206451964Y-63220499D01*
X206590053Y-63179953D01*
X206711128Y-63102143D01*
X206805377Y-62993373D01*
X206865165Y-62862457D01*
X206885647Y-62720000D01*
X206865165Y-62577543D01*
X206805377Y-62446627D01*
X206742086Y-62373585D01*
X206711131Y-62337860D01*
X206711129Y-62337859D01*
X206711128Y-62337857D01*
X206640956Y-62292760D01*
X206590054Y-62260047D01*
X206590050Y-62260046D01*
X206451964Y-62219500D01*
X206451961Y-62219500D01*
X206308039Y-62219500D01*
X206302747Y-62219500D01*
X206302747Y-62216508D01*
X206257270Y-62204894D01*
X206249300Y-62197987D01*
X204988374Y-60937061D01*
X204966700Y-60884735D01*
X204966700Y-60798715D01*
X204988374Y-60746389D01*
X205019217Y-60727902D01*
X205093954Y-60705232D01*
X205276450Y-60607685D01*
X205436410Y-60476410D01*
X205567685Y-60316450D01*
X205665232Y-60133954D01*
X205725300Y-59935934D01*
X205745583Y-59730000D01*
X206174417Y-59730000D01*
X206194700Y-59935934D01*
X206254768Y-60133954D01*
X206352315Y-60316450D01*
X206483590Y-60476410D01*
X206643550Y-60607685D01*
X206826046Y-60705232D01*
X207024066Y-60765300D01*
X207230000Y-60785583D01*
X207435934Y-60765300D01*
X207633954Y-60705232D01*
X207816450Y-60607685D01*
X207976410Y-60476410D01*
X208107685Y-60316450D01*
X208205232Y-60133954D01*
X208265300Y-59935934D01*
X208285583Y-59730000D01*
X208265300Y-59524066D01*
X208205232Y-59326046D01*
X208107685Y-59143550D01*
X207976410Y-58983590D01*
X207816450Y-58852315D01*
X207633954Y-58754768D01*
X207522158Y-58720855D01*
X207435935Y-58694700D01*
X207230000Y-58674417D01*
X207024064Y-58694700D01*
X206826043Y-58754769D01*
X206643549Y-58852315D01*
X206483590Y-58983589D01*
X206483589Y-58983590D01*
X206352315Y-59143549D01*
X206254769Y-59326043D01*
X206194700Y-59524064D01*
X206194700Y-59524066D01*
X206174417Y-59730000D01*
X205745583Y-59730000D01*
X205725300Y-59524066D01*
X205665232Y-59326046D01*
X205567685Y-59143550D01*
X205436410Y-58983590D01*
X205276450Y-58852315D01*
X205093954Y-58754768D01*
X204982158Y-58720855D01*
X204895935Y-58694700D01*
X204690000Y-58674417D01*
X204484064Y-58694700D01*
X204286043Y-58754769D01*
X204103549Y-58852315D01*
X203943590Y-58983589D01*
X203943589Y-58983590D01*
X203812315Y-59143549D01*
X203714769Y-59326043D01*
X203654700Y-59524064D01*
X203654700Y-59524066D01*
X203634417Y-59730000D01*
X203205583Y-59730000D01*
X203185300Y-59524066D01*
X203125232Y-59326046D01*
X203027685Y-59143550D01*
X202896410Y-58983590D01*
X202736450Y-58852315D01*
X202553954Y-58754768D01*
X202442158Y-58720855D01*
X202355935Y-58694700D01*
X202150000Y-58674417D01*
X201944064Y-58694700D01*
X201746043Y-58754769D01*
X201563549Y-58852315D01*
X201403590Y-58983589D01*
X201403589Y-58983590D01*
X201272315Y-59143549D01*
X201174769Y-59326043D01*
X201114700Y-59524064D01*
X201114700Y-59524066D01*
X201094417Y-59730000D01*
X201114700Y-59935934D01*
X201174768Y-60133954D01*
X201272315Y-60316450D01*
X201403590Y-60476410D01*
X201563550Y-60607685D01*
X201746046Y-60705232D01*
X201794710Y-60719993D01*
X201838489Y-60755921D01*
X201844042Y-60812286D01*
X201825554Y-60843132D01*
X201417061Y-61251626D01*
X201364735Y-61273300D01*
X198496428Y-61273300D01*
X198423572Y-61273300D01*
X198388384Y-61282728D01*
X198353196Y-61292156D01*
X198353190Y-61292159D01*
X198290105Y-61328583D01*
X198290103Y-61328584D01*
X197128584Y-62490103D01*
X197128583Y-62490105D01*
X197092159Y-62553190D01*
X197092156Y-62553195D01*
X197092156Y-62553197D01*
X197076846Y-62610339D01*
X197074247Y-62620038D01*
X197073300Y-62623572D01*
X197073300Y-62964182D01*
X197051626Y-63016508D01*
X197010877Y-63037271D01*
X196991877Y-63040280D01*
X196991871Y-63040282D01*
X196871780Y-63101471D01*
X196776471Y-63196780D01*
X196715281Y-63316873D01*
X196715280Y-63316874D01*
X196699500Y-63416511D01*
X196699500Y-63983488D01*
X194650500Y-63983488D01*
X194650500Y-60599746D01*
X198559500Y-60599746D01*
X198571133Y-60658232D01*
X198600608Y-60702343D01*
X198615448Y-60724552D01*
X198644304Y-60743833D01*
X198681767Y-60768866D01*
X198681768Y-60768866D01*
X198681769Y-60768867D01*
X198740252Y-60780500D01*
X198740254Y-60780500D01*
X200479746Y-60780500D01*
X200479748Y-60780500D01*
X200538231Y-60768867D01*
X200604552Y-60724552D01*
X200648867Y-60658231D01*
X200660500Y-60599748D01*
X200660500Y-58860252D01*
X200648867Y-58801769D01*
X200604552Y-58735448D01*
X200582343Y-58720608D01*
X200538232Y-58691133D01*
X200538233Y-58691133D01*
X200508989Y-58685316D01*
X200479748Y-58679500D01*
X198740252Y-58679500D01*
X198711010Y-58685316D01*
X198681767Y-58691133D01*
X198615449Y-58735447D01*
X198615447Y-58735449D01*
X198571133Y-58801767D01*
X198559500Y-58860253D01*
X198559500Y-60599746D01*
X194650500Y-60599746D01*
X194650500Y-57904500D01*
X194672174Y-57852174D01*
X194724500Y-57830500D01*
X212935500Y-57830500D01*
X212987826Y-57852174D01*
G37*
G04 #@! TD.AperFunction*
M02*
