G04 #@! TF.GenerationSoftware,KiCad,Pcbnew,8.0.1*
G04 #@! TF.CreationDate,2025-03-18T23:24:49-06:00*
G04 #@! TF.ProjectId,AlcoholSensor_Rev3,416c636f-686f-46c5-9365-6e736f725f52,rev?*
G04 #@! TF.SameCoordinates,Original*
G04 #@! TF.FileFunction,Legend,Bot*
G04 #@! TF.FilePolarity,Positive*
%FSLAX46Y46*%
G04 Gerber Fmt 4.6, Leading zero omitted, Abs format (unit mm)*
G04 Created by KiCad (PCBNEW 8.0.1) date 2025-03-18 23:24:49*
%MOMM*%
%LPD*%
G01*
G04 APERTURE LIST*
G04 Aperture macros list*
%AMRoundRect*
0 Rectangle with rounded corners*
0 $1 Rounding radius*
0 $2 $3 $4 $5 $6 $7 $8 $9 X,Y pos of 4 corners*
0 Add a 4 corners polygon primitive as box body*
4,1,4,$2,$3,$4,$5,$6,$7,$8,$9,$2,$3,0*
0 Add four circle primitives for the rounded corners*
1,1,$1+$1,$2,$3*
1,1,$1+$1,$4,$5*
1,1,$1+$1,$6,$7*
1,1,$1+$1,$8,$9*
0 Add four rect primitives between the rounded corners*
20,1,$1+$1,$2,$3,$4,$5,0*
20,1,$1+$1,$4,$5,$6,$7,0*
20,1,$1+$1,$6,$7,$8,$9,0*
20,1,$1+$1,$8,$9,$2,$3,0*%
G04 Aperture macros list end*
%ADD10C,0.150000*%
%ADD11C,0.152400*%
%ADD12C,0.120000*%
%ADD13C,0.127000*%
%ADD14C,0.200000*%
%ADD15R,0.508000X1.320800*%
%ADD16R,0.508000X1.003300*%
%ADD17C,2.500000*%
%ADD18R,1.000000X1.000000*%
%ADD19O,1.000000X1.000000*%
%ADD20R,1.700000X1.700000*%
%ADD21O,1.700000X1.700000*%
%ADD22RoundRect,0.237500X-0.300000X-0.237500X0.300000X-0.237500X0.300000X0.237500X-0.300000X0.237500X0*%
%ADD23RoundRect,0.237500X0.237500X-0.250000X0.237500X0.250000X-0.237500X0.250000X-0.237500X-0.250000X0*%
%ADD24RoundRect,0.237500X0.300000X0.237500X-0.300000X0.237500X-0.300000X-0.237500X0.300000X-0.237500X0*%
%ADD25RoundRect,0.237500X-0.250000X-0.237500X0.250000X-0.237500X0.250000X0.237500X-0.250000X0.237500X0*%
%ADD26RoundRect,0.237500X0.250000X0.237500X-0.250000X0.237500X-0.250000X-0.237500X0.250000X-0.237500X0*%
%ADD27R,0.450000X0.800000*%
%ADD28RoundRect,0.050000X-0.650000X-0.750000X0.650000X-0.750000X0.650000X0.750000X-0.650000X0.750000X0*%
G04 APERTURE END LIST*
D10*
X183560476Y-78077704D02*
X183560476Y-77430085D01*
X183560476Y-77430085D02*
X183598571Y-77353895D01*
X183598571Y-77353895D02*
X183636666Y-77315800D01*
X183636666Y-77315800D02*
X183712857Y-77277704D01*
X183712857Y-77277704D02*
X183865238Y-77277704D01*
X183865238Y-77277704D02*
X183941428Y-77315800D01*
X183941428Y-77315800D02*
X183979523Y-77353895D01*
X183979523Y-77353895D02*
X184017619Y-77430085D01*
X184017619Y-77430085D02*
X184017619Y-78077704D01*
X184741428Y-77811038D02*
X184741428Y-77277704D01*
X184550952Y-78115800D02*
X184360475Y-77544371D01*
X184360475Y-77544371D02*
X184855714Y-77544371D01*
X173610476Y-77187704D02*
X173610476Y-76540085D01*
X173610476Y-76540085D02*
X173648571Y-76463895D01*
X173648571Y-76463895D02*
X173686666Y-76425800D01*
X173686666Y-76425800D02*
X173762857Y-76387704D01*
X173762857Y-76387704D02*
X173915238Y-76387704D01*
X173915238Y-76387704D02*
X173991428Y-76425800D01*
X173991428Y-76425800D02*
X174029523Y-76463895D01*
X174029523Y-76463895D02*
X174067619Y-76540085D01*
X174067619Y-76540085D02*
X174067619Y-77187704D01*
X174372380Y-77187704D02*
X174867618Y-77187704D01*
X174867618Y-77187704D02*
X174600952Y-76882942D01*
X174600952Y-76882942D02*
X174715237Y-76882942D01*
X174715237Y-76882942D02*
X174791428Y-76844847D01*
X174791428Y-76844847D02*
X174829523Y-76806752D01*
X174829523Y-76806752D02*
X174867618Y-76730561D01*
X174867618Y-76730561D02*
X174867618Y-76540085D01*
X174867618Y-76540085D02*
X174829523Y-76463895D01*
X174829523Y-76463895D02*
X174791428Y-76425800D01*
X174791428Y-76425800D02*
X174715237Y-76387704D01*
X174715237Y-76387704D02*
X174486666Y-76387704D01*
X174486666Y-76387704D02*
X174410475Y-76425800D01*
X174410475Y-76425800D02*
X174372380Y-76463895D01*
X175226104Y-81326667D02*
X175264200Y-81288571D01*
X175264200Y-81288571D02*
X175302295Y-81174286D01*
X175302295Y-81174286D02*
X175302295Y-81098095D01*
X175302295Y-81098095D02*
X175264200Y-80983809D01*
X175264200Y-80983809D02*
X175188009Y-80907619D01*
X175188009Y-80907619D02*
X175111819Y-80869524D01*
X175111819Y-80869524D02*
X174959438Y-80831428D01*
X174959438Y-80831428D02*
X174845152Y-80831428D01*
X174845152Y-80831428D02*
X174692771Y-80869524D01*
X174692771Y-80869524D02*
X174616580Y-80907619D01*
X174616580Y-80907619D02*
X174540390Y-80983809D01*
X174540390Y-80983809D02*
X174502295Y-81098095D01*
X174502295Y-81098095D02*
X174502295Y-81174286D01*
X174502295Y-81174286D02*
X174540390Y-81288571D01*
X174540390Y-81288571D02*
X174578485Y-81326667D01*
X174578485Y-81631428D02*
X174540390Y-81669524D01*
X174540390Y-81669524D02*
X174502295Y-81745714D01*
X174502295Y-81745714D02*
X174502295Y-81936190D01*
X174502295Y-81936190D02*
X174540390Y-82012381D01*
X174540390Y-82012381D02*
X174578485Y-82050476D01*
X174578485Y-82050476D02*
X174654676Y-82088571D01*
X174654676Y-82088571D02*
X174730866Y-82088571D01*
X174730866Y-82088571D02*
X174845152Y-82050476D01*
X174845152Y-82050476D02*
X175302295Y-81593333D01*
X175302295Y-81593333D02*
X175302295Y-82088571D01*
X177152295Y-87469167D02*
X176771342Y-87202500D01*
X177152295Y-87012024D02*
X176352295Y-87012024D01*
X176352295Y-87012024D02*
X176352295Y-87316786D01*
X176352295Y-87316786D02*
X176390390Y-87392976D01*
X176390390Y-87392976D02*
X176428485Y-87431071D01*
X176428485Y-87431071D02*
X176504676Y-87469167D01*
X176504676Y-87469167D02*
X176618961Y-87469167D01*
X176618961Y-87469167D02*
X176695152Y-87431071D01*
X176695152Y-87431071D02*
X176733247Y-87392976D01*
X176733247Y-87392976D02*
X176771342Y-87316786D01*
X176771342Y-87316786D02*
X176771342Y-87012024D01*
X177152295Y-88231071D02*
X177152295Y-87773928D01*
X177152295Y-88002500D02*
X176352295Y-88002500D01*
X176352295Y-88002500D02*
X176466580Y-87926309D01*
X176466580Y-87926309D02*
X176542771Y-87850119D01*
X176542771Y-87850119D02*
X176580866Y-87773928D01*
X183896104Y-81486667D02*
X183934200Y-81448571D01*
X183934200Y-81448571D02*
X183972295Y-81334286D01*
X183972295Y-81334286D02*
X183972295Y-81258095D01*
X183972295Y-81258095D02*
X183934200Y-81143809D01*
X183934200Y-81143809D02*
X183858009Y-81067619D01*
X183858009Y-81067619D02*
X183781819Y-81029524D01*
X183781819Y-81029524D02*
X183629438Y-80991428D01*
X183629438Y-80991428D02*
X183515152Y-80991428D01*
X183515152Y-80991428D02*
X183362771Y-81029524D01*
X183362771Y-81029524D02*
X183286580Y-81067619D01*
X183286580Y-81067619D02*
X183210390Y-81143809D01*
X183210390Y-81143809D02*
X183172295Y-81258095D01*
X183172295Y-81258095D02*
X183172295Y-81334286D01*
X183172295Y-81334286D02*
X183210390Y-81448571D01*
X183210390Y-81448571D02*
X183248485Y-81486667D01*
X183438961Y-82172381D02*
X183972295Y-82172381D01*
X183134200Y-81981905D02*
X183705628Y-81791428D01*
X183705628Y-81791428D02*
X183705628Y-82286667D01*
X184663332Y-76136104D02*
X184701428Y-76174200D01*
X184701428Y-76174200D02*
X184815713Y-76212295D01*
X184815713Y-76212295D02*
X184891904Y-76212295D01*
X184891904Y-76212295D02*
X185006190Y-76174200D01*
X185006190Y-76174200D02*
X185082380Y-76098009D01*
X185082380Y-76098009D02*
X185120475Y-76021819D01*
X185120475Y-76021819D02*
X185158571Y-75869438D01*
X185158571Y-75869438D02*
X185158571Y-75755152D01*
X185158571Y-75755152D02*
X185120475Y-75602771D01*
X185120475Y-75602771D02*
X185082380Y-75526580D01*
X185082380Y-75526580D02*
X185006190Y-75450390D01*
X185006190Y-75450390D02*
X184891904Y-75412295D01*
X184891904Y-75412295D02*
X184815713Y-75412295D01*
X184815713Y-75412295D02*
X184701428Y-75450390D01*
X184701428Y-75450390D02*
X184663332Y-75488485D01*
X184396666Y-75412295D02*
X183901428Y-75412295D01*
X183901428Y-75412295D02*
X184168094Y-75717057D01*
X184168094Y-75717057D02*
X184053809Y-75717057D01*
X184053809Y-75717057D02*
X183977618Y-75755152D01*
X183977618Y-75755152D02*
X183939523Y-75793247D01*
X183939523Y-75793247D02*
X183901428Y-75869438D01*
X183901428Y-75869438D02*
X183901428Y-76059914D01*
X183901428Y-76059914D02*
X183939523Y-76136104D01*
X183939523Y-76136104D02*
X183977618Y-76174200D01*
X183977618Y-76174200D02*
X184053809Y-76212295D01*
X184053809Y-76212295D02*
X184282380Y-76212295D01*
X184282380Y-76212295D02*
X184358571Y-76174200D01*
X184358571Y-76174200D02*
X184396666Y-76136104D01*
X175342295Y-83286667D02*
X174961342Y-83020000D01*
X175342295Y-82829524D02*
X174542295Y-82829524D01*
X174542295Y-82829524D02*
X174542295Y-83134286D01*
X174542295Y-83134286D02*
X174580390Y-83210476D01*
X174580390Y-83210476D02*
X174618485Y-83248571D01*
X174618485Y-83248571D02*
X174694676Y-83286667D01*
X174694676Y-83286667D02*
X174808961Y-83286667D01*
X174808961Y-83286667D02*
X174885152Y-83248571D01*
X174885152Y-83248571D02*
X174923247Y-83210476D01*
X174923247Y-83210476D02*
X174961342Y-83134286D01*
X174961342Y-83134286D02*
X174961342Y-82829524D01*
X174542295Y-83553333D02*
X174542295Y-84048571D01*
X174542295Y-84048571D02*
X174847057Y-83781905D01*
X174847057Y-83781905D02*
X174847057Y-83896190D01*
X174847057Y-83896190D02*
X174885152Y-83972381D01*
X174885152Y-83972381D02*
X174923247Y-84010476D01*
X174923247Y-84010476D02*
X174999438Y-84048571D01*
X174999438Y-84048571D02*
X175189914Y-84048571D01*
X175189914Y-84048571D02*
X175266104Y-84010476D01*
X175266104Y-84010476D02*
X175304200Y-83972381D01*
X175304200Y-83972381D02*
X175342295Y-83896190D01*
X175342295Y-83896190D02*
X175342295Y-83667619D01*
X175342295Y-83667619D02*
X175304200Y-83591428D01*
X175304200Y-83591428D02*
X175266104Y-83553333D01*
X183952295Y-83326667D02*
X183571342Y-83060000D01*
X183952295Y-82869524D02*
X183152295Y-82869524D01*
X183152295Y-82869524D02*
X183152295Y-83174286D01*
X183152295Y-83174286D02*
X183190390Y-83250476D01*
X183190390Y-83250476D02*
X183228485Y-83288571D01*
X183228485Y-83288571D02*
X183304676Y-83326667D01*
X183304676Y-83326667D02*
X183418961Y-83326667D01*
X183418961Y-83326667D02*
X183495152Y-83288571D01*
X183495152Y-83288571D02*
X183533247Y-83250476D01*
X183533247Y-83250476D02*
X183571342Y-83174286D01*
X183571342Y-83174286D02*
X183571342Y-82869524D01*
X183418961Y-84012381D02*
X183952295Y-84012381D01*
X183114200Y-83821905D02*
X183685628Y-83631428D01*
X183685628Y-83631428D02*
X183685628Y-84126667D01*
X177321104Y-72396667D02*
X177359200Y-72358571D01*
X177359200Y-72358571D02*
X177397295Y-72244286D01*
X177397295Y-72244286D02*
X177397295Y-72168095D01*
X177397295Y-72168095D02*
X177359200Y-72053809D01*
X177359200Y-72053809D02*
X177283009Y-71977619D01*
X177283009Y-71977619D02*
X177206819Y-71939524D01*
X177206819Y-71939524D02*
X177054438Y-71901428D01*
X177054438Y-71901428D02*
X176940152Y-71901428D01*
X176940152Y-71901428D02*
X176787771Y-71939524D01*
X176787771Y-71939524D02*
X176711580Y-71977619D01*
X176711580Y-71977619D02*
X176635390Y-72053809D01*
X176635390Y-72053809D02*
X176597295Y-72168095D01*
X176597295Y-72168095D02*
X176597295Y-72244286D01*
X176597295Y-72244286D02*
X176635390Y-72358571D01*
X176635390Y-72358571D02*
X176673485Y-72396667D01*
X177397295Y-73158571D02*
X177397295Y-72701428D01*
X177397295Y-72930000D02*
X176597295Y-72930000D01*
X176597295Y-72930000D02*
X176711580Y-72853809D01*
X176711580Y-72853809D02*
X176787771Y-72777619D01*
X176787771Y-72777619D02*
X176825866Y-72701428D01*
D11*
X183166399Y-78664100D02*
X183166399Y-76606700D01*
X181126738Y-78664100D02*
X181853260Y-78664100D01*
X179813599Y-76606700D02*
X179813599Y-78664100D01*
X178905599Y-78500450D02*
X178905599Y-76544650D01*
X176916738Y-78500450D02*
X177643260Y-78500450D01*
X175654399Y-76544650D02*
X175654399Y-78500450D01*
D12*
X177293767Y-81030000D02*
X177001233Y-81030000D01*
X177293767Y-82050000D02*
X177001233Y-82050000D01*
X175027500Y-86775276D02*
X175027500Y-87284724D01*
X176072500Y-86775276D02*
X176072500Y-87284724D01*
X181181233Y-81110000D02*
X181473767Y-81110000D01*
X181181233Y-82130000D02*
X181473767Y-82130000D01*
X182573767Y-73510000D02*
X182281233Y-73510000D01*
X182573767Y-74530000D02*
X182281233Y-74530000D01*
X177417224Y-83007500D02*
X176907776Y-83007500D01*
X177417224Y-84052500D02*
X176907776Y-84052500D01*
X180942776Y-82997500D02*
X181452224Y-82997500D01*
X180942776Y-84042500D02*
X181452224Y-84042500D01*
D13*
X182130000Y-84770000D02*
X179130000Y-84770000D01*
X182130000Y-87250000D02*
X179130000Y-87250000D01*
D14*
X178730000Y-86510000D02*
G75*
G02*
X178530000Y-86510000I-100000J0D01*
G01*
X178530000Y-86510000D02*
G75*
G02*
X178730000Y-86510000I100000J0D01*
G01*
D12*
X177333767Y-73450000D02*
X177041233Y-73450000D01*
X177333767Y-74470000D02*
X177041233Y-74470000D01*
%LPC*%
D15*
X180539998Y-76340000D03*
X181489999Y-76340000D03*
X182440000Y-76340000D03*
X182440000Y-78930800D03*
X180539998Y-78930800D03*
D16*
X176329998Y-76170000D03*
X177279999Y-76170000D03*
X178230000Y-76170000D03*
X178230000Y-78875100D03*
X176329998Y-78875100D03*
D17*
X174560000Y-70740000D03*
D18*
X187550000Y-80050000D03*
D19*
X187550000Y-81320000D03*
X187550000Y-82590000D03*
X187550000Y-83860000D03*
D17*
X185090000Y-70960000D03*
D18*
X173740000Y-79980000D03*
D19*
X173740000Y-81250000D03*
X173740000Y-82520000D03*
X173740000Y-83790000D03*
D20*
X178420000Y-70830000D03*
D21*
X180960000Y-70830000D03*
D22*
X176285000Y-81540000D03*
X178010000Y-81540000D03*
D23*
X175550000Y-87942500D03*
X175550000Y-86117500D03*
D24*
X182190000Y-81620000D03*
X180465000Y-81620000D03*
D22*
X181565000Y-74020000D03*
X183290000Y-74020000D03*
D25*
X176250000Y-83530000D03*
X178075000Y-83530000D03*
D26*
X182110000Y-83520000D03*
X180285000Y-83520000D03*
D27*
X179420000Y-86550000D03*
X179420000Y-85470000D03*
X181840000Y-85470000D03*
X181840000Y-86550000D03*
D28*
X180630000Y-86010000D03*
D22*
X176325000Y-73960000D03*
X178050000Y-73960000D03*
%LPD*%
M02*
