G04 #@! TF.GenerationSoftware,KiCad,Pcbnew,8.0.1*
G04 #@! TF.CreationDate,2025-03-18T23:24:49-06:00*
G04 #@! TF.ProjectId,AlcoholSensor_Rev3,416c636f-686f-46c5-9365-6e736f725f52,rev?*
G04 #@! TF.SameCoordinates,Original*
G04 #@! TF.FileFunction,Copper,L1,Top*
G04 #@! TF.FilePolarity,Positive*
%FSLAX46Y46*%
G04 Gerber Fmt 4.6, Leading zero omitted, Abs format (unit mm)*
G04 Created by KiCad (PCBNEW 8.0.1) date 2025-03-18 23:24:49*
%MOMM*%
%LPD*%
G01*
G04 APERTURE LIST*
G04 Aperture macros list*
%AMRoundRect*
0 Rectangle with rounded corners*
0 $1 Rounding radius*
0 $2 $3 $4 $5 $6 $7 $8 $9 X,Y pos of 4 corners*
0 Add a 4 corners polygon primitive as box body*
4,1,4,$2,$3,$4,$5,$6,$7,$8,$9,$2,$3,0*
0 Add four circle primitives for the rounded corners*
1,1,$1+$1,$2,$3*
1,1,$1+$1,$4,$5*
1,1,$1+$1,$6,$7*
1,1,$1+$1,$8,$9*
0 Add four rect primitives between the rounded corners*
20,1,$1+$1,$2,$3,$4,$5,0*
20,1,$1+$1,$4,$5,$6,$7,0*
20,1,$1+$1,$6,$7,$8,$9,0*
20,1,$1+$1,$8,$9,$2,$3,0*%
G04 Aperture macros list end*
G04 #@! TA.AperFunction,SMDPad,CuDef*
%ADD10RoundRect,0.237500X-0.237500X0.300000X-0.237500X-0.300000X0.237500X-0.300000X0.237500X0.300000X0*%
G04 #@! TD*
G04 #@! TA.AperFunction,SMDPad,CuDef*
%ADD11RoundRect,0.237500X0.237500X-0.250000X0.237500X0.250000X-0.237500X0.250000X-0.237500X-0.250000X0*%
G04 #@! TD*
G04 #@! TA.AperFunction,ComponentPad*
%ADD12C,2.500000*%
G04 #@! TD*
G04 #@! TA.AperFunction,ComponentPad*
%ADD13R,1.000000X1.000000*%
G04 #@! TD*
G04 #@! TA.AperFunction,ComponentPad*
%ADD14O,1.000000X1.000000*%
G04 #@! TD*
G04 #@! TA.AperFunction,SMDPad,CuDef*
%ADD15R,1.700000X0.650000*%
G04 #@! TD*
G04 #@! TA.AperFunction,SMDPad,CuDef*
%ADD16RoundRect,0.250000X-0.325000X-0.450000X0.325000X-0.450000X0.325000X0.450000X-0.325000X0.450000X0*%
G04 #@! TD*
G04 #@! TA.AperFunction,ComponentPad*
%ADD17R,1.700000X1.700000*%
G04 #@! TD*
G04 #@! TA.AperFunction,ComponentPad*
%ADD18O,1.700000X1.700000*%
G04 #@! TD*
G04 #@! TA.AperFunction,ViaPad*
%ADD19C,0.600000*%
G04 #@! TD*
G04 #@! TA.AperFunction,Conductor*
%ADD20C,0.152400*%
G04 #@! TD*
G04 APERTURE END LIST*
D10*
X186120000Y-75495000D03*
X186120000Y-77220000D03*
D11*
X184410000Y-87590000D03*
X184410000Y-85765000D03*
D12*
X174560000Y-70740000D03*
D13*
X187550000Y-80050000D03*
D14*
X187550000Y-81320000D03*
X187550000Y-82590000D03*
X187550000Y-83860000D03*
D12*
X185090000Y-70960000D03*
D13*
X173740000Y-79980000D03*
D14*
X173740000Y-81250000D03*
X173740000Y-82520000D03*
X173740000Y-83790000D03*
D15*
X177110000Y-80040000D03*
X177110000Y-81310000D03*
X177110000Y-82580000D03*
X177110000Y-83850000D03*
X184410000Y-83850000D03*
X184410000Y-82580000D03*
X184410000Y-81310000D03*
X184410000Y-80040000D03*
D16*
X179560000Y-87410000D03*
X181610000Y-87410000D03*
D17*
X178420000Y-70830000D03*
D18*
X180960000Y-70830000D03*
D19*
X186660000Y-73720000D03*
X179100000Y-82640000D03*
X178440000Y-85350000D03*
X177400000Y-87900000D03*
D20*
X186120000Y-74260000D02*
X186660000Y-73720000D01*
X186120000Y-75495000D02*
X186120000Y-74260000D01*
X185390000Y-77220000D02*
X186120000Y-77220000D01*
X184410000Y-78200000D02*
X185390000Y-77220000D01*
X184410000Y-80040000D02*
X184410000Y-78200000D01*
X183230000Y-87590000D02*
X183050000Y-87410000D01*
X183050000Y-87410000D02*
X181610000Y-87410000D01*
X184410000Y-87590000D02*
X183230000Y-87590000D01*
X177110000Y-80040000D02*
X173800000Y-80040000D01*
X173800000Y-80040000D02*
X173740000Y-79980000D01*
X177110000Y-82580000D02*
X173800000Y-82580000D01*
X173800000Y-82580000D02*
X173740000Y-82520000D01*
X184410000Y-82580000D02*
X187540000Y-82580000D01*
X187540000Y-82580000D02*
X187550000Y-82590000D01*
X173800000Y-81310000D02*
X173740000Y-81250000D01*
X179100000Y-82230000D02*
X178180000Y-81310000D01*
X177110000Y-81310000D02*
X173800000Y-81310000D01*
X179100000Y-82640000D02*
X179100000Y-82230000D01*
X178180000Y-81310000D02*
X177110000Y-81310000D01*
X178420000Y-70830000D02*
X174650000Y-70830000D01*
X174650000Y-70830000D02*
X174560000Y-70740000D01*
X177400000Y-87900000D02*
X177850000Y-87450000D01*
X177850000Y-87450000D02*
X177850000Y-85940000D01*
X177850000Y-85940000D02*
X178440000Y-85350000D01*
X184410000Y-81310000D02*
X187540000Y-81310000D01*
X187540000Y-81310000D02*
X187550000Y-81320000D01*
X184410000Y-85765000D02*
X184410000Y-83850000D01*
X184420000Y-83860000D02*
X184410000Y-83850000D01*
X187550000Y-83860000D02*
X184420000Y-83860000D01*
X178790000Y-83850000D02*
X177110000Y-83850000D01*
X173800000Y-83850000D02*
X173740000Y-83790000D01*
X177110000Y-83850000D02*
X173800000Y-83850000D01*
X184960000Y-70830000D02*
X185090000Y-70960000D01*
X180960000Y-70830000D02*
X184960000Y-70830000D01*
X179560000Y-84620000D02*
X178790000Y-83850000D01*
X179560000Y-87410000D02*
X179560000Y-84620000D01*
X187540000Y-80040000D02*
X187550000Y-80050000D01*
X184410000Y-80040000D02*
X187540000Y-80040000D01*
G04 #@! TA.AperFunction,Conductor*
G36*
X173861049Y-69285185D02*
G01*
X173906804Y-69337989D01*
X173916748Y-69407147D01*
X173887723Y-69470703D01*
X173853029Y-69498554D01*
X173829702Y-69511177D01*
X173776114Y-69540178D01*
X173776108Y-69540182D01*
X173589329Y-69685558D01*
X173589326Y-69685561D01*
X173429003Y-69859718D01*
X173299543Y-70057873D01*
X173204458Y-70274644D01*
X173146351Y-70504107D01*
X173126805Y-70739994D01*
X173126805Y-70740005D01*
X173146351Y-70975892D01*
X173200782Y-71190840D01*
X173204459Y-71205358D01*
X173213258Y-71225417D01*
X173299543Y-71422126D01*
X173429003Y-71620281D01*
X173429006Y-71620285D01*
X173429008Y-71620287D01*
X173589323Y-71794436D01*
X173589326Y-71794438D01*
X173589329Y-71794441D01*
X173776108Y-71939817D01*
X173776114Y-71939821D01*
X173776117Y-71939823D01*
X173984292Y-72052482D01*
X174208171Y-72129340D01*
X174441648Y-72168300D01*
X174678352Y-72168300D01*
X174911829Y-72129340D01*
X175135708Y-72052482D01*
X175343883Y-71939823D01*
X175530677Y-71794436D01*
X175690992Y-71620287D01*
X175820457Y-71422125D01*
X175915541Y-71205358D01*
X175922454Y-71178059D01*
X175957994Y-71117904D01*
X176020415Y-71086512D01*
X176042660Y-71084500D01*
X177267701Y-71084500D01*
X177334740Y-71104185D01*
X177380495Y-71156989D01*
X177391701Y-71208500D01*
X177391701Y-71697560D01*
X177402045Y-71749569D01*
X177441453Y-71808547D01*
X177500431Y-71847955D01*
X177500432Y-71847955D01*
X177500433Y-71847956D01*
X177531578Y-71854150D01*
X177552439Y-71858300D01*
X179287560Y-71858299D01*
X179339569Y-71847955D01*
X179398547Y-71808547D01*
X179437955Y-71749569D01*
X179448300Y-71697561D01*
X179448299Y-70830000D01*
X179926724Y-70830000D01*
X179946577Y-71031580D01*
X179946578Y-71031582D01*
X179996420Y-71195892D01*
X180005378Y-71225420D01*
X180100864Y-71404060D01*
X180229363Y-71560636D01*
X180328659Y-71642126D01*
X180385943Y-71689138D01*
X180564582Y-71784623D01*
X180758418Y-71843422D01*
X180960000Y-71863276D01*
X181161582Y-71843422D01*
X181355418Y-71784623D01*
X181534057Y-71689138D01*
X181690636Y-71560636D01*
X181819138Y-71404057D01*
X181914623Y-71225418D01*
X181920708Y-71205358D01*
X181930675Y-71172504D01*
X181968973Y-71114065D01*
X182032785Y-71085609D01*
X182049335Y-71084500D01*
X183552971Y-71084500D01*
X183620010Y-71104185D01*
X183665765Y-71156989D01*
X183674648Y-71190983D01*
X183675508Y-71190840D01*
X183676350Y-71195890D01*
X183734458Y-71425355D01*
X183829543Y-71642126D01*
X183959003Y-71840281D01*
X183959006Y-71840285D01*
X183959008Y-71840287D01*
X184119323Y-72014436D01*
X184119326Y-72014438D01*
X184119329Y-72014441D01*
X184306108Y-72159817D01*
X184306114Y-72159821D01*
X184306117Y-72159823D01*
X184514292Y-72272482D01*
X184738171Y-72349340D01*
X184971648Y-72388300D01*
X185208352Y-72388300D01*
X185441829Y-72349340D01*
X185665708Y-72272482D01*
X185873883Y-72159823D01*
X186060677Y-72014436D01*
X186220992Y-71840287D01*
X186350457Y-71642125D01*
X186445541Y-71425358D01*
X186503648Y-71195896D01*
X186521878Y-70975896D01*
X186523195Y-70960005D01*
X186523195Y-70959994D01*
X186510163Y-70802736D01*
X186503648Y-70724104D01*
X186445541Y-70494642D01*
X186350457Y-70277875D01*
X186348345Y-70274642D01*
X186220996Y-70079718D01*
X186220993Y-70079715D01*
X186220992Y-70079713D01*
X186060677Y-69905564D01*
X186060672Y-69905560D01*
X186060670Y-69905558D01*
X185873891Y-69760182D01*
X185873885Y-69760178D01*
X185665709Y-69647518D01*
X185665700Y-69647515D01*
X185441831Y-69570660D01*
X185208352Y-69531700D01*
X184971648Y-69531700D01*
X184738168Y-69570660D01*
X184514299Y-69647515D01*
X184514290Y-69647518D01*
X184306114Y-69760178D01*
X184306108Y-69760182D01*
X184119329Y-69905558D01*
X184119326Y-69905561D01*
X183959003Y-70079718D01*
X183829543Y-70277873D01*
X183732399Y-70499339D01*
X183730630Y-70498563D01*
X183695061Y-70548779D01*
X183630262Y-70574909D01*
X183618166Y-70575500D01*
X182049335Y-70575500D01*
X181982296Y-70555815D01*
X181936541Y-70503011D01*
X181930675Y-70487496D01*
X181914623Y-70434582D01*
X181914621Y-70434579D01*
X181819138Y-70255943D01*
X181819135Y-70255939D01*
X181690636Y-70099363D01*
X181534060Y-69970864D01*
X181534058Y-69970863D01*
X181534057Y-69970862D01*
X181355418Y-69875377D01*
X181258500Y-69845977D01*
X181161580Y-69816577D01*
X180960000Y-69796724D01*
X180758419Y-69816577D01*
X180564579Y-69875378D01*
X180385939Y-69970864D01*
X180229363Y-70099363D01*
X180100864Y-70255939D01*
X180005378Y-70434579D01*
X179946577Y-70628419D01*
X179926724Y-70830000D01*
X179448299Y-70830000D01*
X179448299Y-69962440D01*
X179437955Y-69910431D01*
X179398547Y-69851453D01*
X179339569Y-69812045D01*
X179339568Y-69812044D01*
X179339567Y-69812044D01*
X179339566Y-69812043D01*
X179287563Y-69801700D01*
X177552441Y-69801700D01*
X177500430Y-69812045D01*
X177461022Y-69838377D01*
X177441455Y-69851452D01*
X177441452Y-69851454D01*
X177402044Y-69910432D01*
X177402043Y-69910433D01*
X177391700Y-69962434D01*
X177391700Y-70451500D01*
X177372015Y-70518539D01*
X177319211Y-70564294D01*
X177267700Y-70575500D01*
X176088241Y-70575500D01*
X176021202Y-70555815D01*
X175975447Y-70503011D01*
X175968035Y-70481940D01*
X175960327Y-70451500D01*
X175915541Y-70274642D01*
X175820457Y-70057875D01*
X175820456Y-70057873D01*
X175690996Y-69859718D01*
X175690993Y-69859715D01*
X175690992Y-69859713D01*
X175530677Y-69685564D01*
X175530672Y-69685560D01*
X175530670Y-69685558D01*
X175343891Y-69540182D01*
X175343885Y-69540178D01*
X175325980Y-69530488D01*
X175266971Y-69498554D01*
X175217382Y-69449335D01*
X175202274Y-69381119D01*
X175226444Y-69315563D01*
X175282220Y-69273482D01*
X175325990Y-69265500D01*
X188765500Y-69265500D01*
X188832539Y-69285185D01*
X188878294Y-69337989D01*
X188889500Y-69389500D01*
X188889500Y-88585500D01*
X188869815Y-88652539D01*
X188817011Y-88698294D01*
X188765500Y-88709500D01*
X172004500Y-88709500D01*
X171937461Y-88689815D01*
X171891706Y-88637011D01*
X171880500Y-88585500D01*
X171880500Y-87900000D01*
X176844750Y-87900000D01*
X176863670Y-88043708D01*
X176863671Y-88043712D01*
X176919137Y-88177622D01*
X176919138Y-88177624D01*
X176919139Y-88177625D01*
X177007379Y-88292621D01*
X177122375Y-88380861D01*
X177256291Y-88436330D01*
X177383280Y-88453048D01*
X177399999Y-88455250D01*
X177400000Y-88455250D01*
X177400001Y-88455250D01*
X177414977Y-88453278D01*
X177543709Y-88436330D01*
X177677625Y-88380861D01*
X177792621Y-88292621D01*
X177880861Y-88177625D01*
X177936330Y-88043709D01*
X177955250Y-87900000D01*
X177940506Y-87788015D01*
X177951271Y-87718983D01*
X177975761Y-87684154D01*
X177976721Y-87683195D01*
X177976724Y-87683193D01*
X177994162Y-87665755D01*
X177994163Y-87665755D01*
X178065755Y-87594163D01*
X178065755Y-87594161D01*
X178065757Y-87594160D01*
X178085127Y-87547393D01*
X178104500Y-87500623D01*
X178104500Y-86096780D01*
X178124185Y-86029741D01*
X178140819Y-86009099D01*
X178224153Y-85925765D01*
X178285476Y-85892280D01*
X178328018Y-85890507D01*
X178404154Y-85900530D01*
X178439999Y-85905250D01*
X178440000Y-85905250D01*
X178440001Y-85905250D01*
X178454977Y-85903278D01*
X178583709Y-85886330D01*
X178717625Y-85830861D01*
X178832621Y-85742621D01*
X178920861Y-85627625D01*
X178976330Y-85493709D01*
X178995250Y-85350000D01*
X178976330Y-85206291D01*
X178938359Y-85114619D01*
X178920862Y-85072377D01*
X178920861Y-85072376D01*
X178920861Y-85072375D01*
X178832621Y-84957379D01*
X178717625Y-84869139D01*
X178717624Y-84869138D01*
X178717622Y-84869137D01*
X178583712Y-84813671D01*
X178583710Y-84813670D01*
X178583709Y-84813670D01*
X178511854Y-84804210D01*
X178440001Y-84794750D01*
X178439999Y-84794750D01*
X178296291Y-84813670D01*
X178296287Y-84813671D01*
X178162377Y-84869137D01*
X178047379Y-84957379D01*
X177959137Y-85072377D01*
X177903671Y-85206287D01*
X177903670Y-85206291D01*
X177884750Y-85349999D01*
X177884750Y-85350002D01*
X177899492Y-85461980D01*
X177888726Y-85531015D01*
X177864234Y-85565846D01*
X177705837Y-85724245D01*
X177634244Y-85795837D01*
X177634242Y-85795839D01*
X177595501Y-85889373D01*
X177595500Y-85889378D01*
X177595500Y-87229093D01*
X177575815Y-87296132D01*
X177523011Y-87341887D01*
X177455315Y-87352032D01*
X177400002Y-87344750D01*
X177399999Y-87344750D01*
X177256291Y-87363670D01*
X177256287Y-87363671D01*
X177122377Y-87419137D01*
X177007379Y-87507379D01*
X176919137Y-87622377D01*
X176863671Y-87756287D01*
X176863670Y-87756291D01*
X176844750Y-87899999D01*
X176844750Y-87900000D01*
X171880500Y-87900000D01*
X171880500Y-83861457D01*
X173014499Y-83861457D01*
X173042379Y-84001614D01*
X173042381Y-84001620D01*
X173097069Y-84133650D01*
X173097074Y-84133659D01*
X173176467Y-84252478D01*
X173176470Y-84252482D01*
X173277517Y-84353529D01*
X173277521Y-84353532D01*
X173396340Y-84432925D01*
X173396346Y-84432928D01*
X173396347Y-84432929D01*
X173528380Y-84487619D01*
X173528384Y-84487619D01*
X173528385Y-84487620D01*
X173668542Y-84515500D01*
X173668545Y-84515500D01*
X173811457Y-84515500D01*
X173905751Y-84496742D01*
X173951620Y-84487619D01*
X174083653Y-84432929D01*
X174202479Y-84353532D01*
X174303532Y-84252479D01*
X174365586Y-84159609D01*
X174419198Y-84114804D01*
X174468688Y-84104500D01*
X175962421Y-84104500D01*
X176029460Y-84124185D01*
X176075215Y-84176989D01*
X176084037Y-84204306D01*
X176092045Y-84244569D01*
X176131453Y-84303547D01*
X176190431Y-84342955D01*
X176190432Y-84342955D01*
X176190433Y-84342956D01*
X176221578Y-84349150D01*
X176242439Y-84353300D01*
X177977560Y-84353299D01*
X178029569Y-84342955D01*
X178088547Y-84303547D01*
X178127955Y-84244569D01*
X178131896Y-84224753D01*
X178135964Y-84204308D01*
X178168349Y-84142397D01*
X178229065Y-84107823D01*
X178257581Y-84104500D01*
X178633220Y-84104500D01*
X178700259Y-84124185D01*
X178720901Y-84140819D01*
X179269181Y-84689098D01*
X179302666Y-84750421D01*
X179305500Y-84776779D01*
X179305500Y-86407700D01*
X179285815Y-86474739D01*
X179233011Y-86520494D01*
X179186266Y-86530687D01*
X179186308Y-86531565D01*
X179183416Y-86531700D01*
X179154479Y-86534412D01*
X179154476Y-86534412D01*
X179154475Y-86534413D01*
X179032608Y-86577056D01*
X179032607Y-86577056D01*
X179032606Y-86577057D01*
X178928725Y-86653725D01*
X178852055Y-86757609D01*
X178809414Y-86879467D01*
X178809412Y-86879479D01*
X178806700Y-86908402D01*
X178806700Y-87911590D01*
X178809412Y-87940520D01*
X178809412Y-87940522D01*
X178809413Y-87940525D01*
X178852056Y-88062392D01*
X178928725Y-88166275D01*
X179032608Y-88242944D01*
X179069346Y-88255799D01*
X179154467Y-88285585D01*
X179154471Y-88285585D01*
X179154475Y-88285587D01*
X179183407Y-88288300D01*
X179936592Y-88288299D01*
X179965525Y-88285587D01*
X180087392Y-88242944D01*
X180191275Y-88166275D01*
X180267944Y-88062392D01*
X180300241Y-87970093D01*
X180310585Y-87940532D01*
X180310585Y-87940529D01*
X180310587Y-87940525D01*
X180313300Y-87911593D01*
X180313300Y-87911590D01*
X180856700Y-87911590D01*
X180859412Y-87940520D01*
X180859412Y-87940522D01*
X180859413Y-87940525D01*
X180902056Y-88062392D01*
X180978725Y-88166275D01*
X181082608Y-88242944D01*
X181119346Y-88255799D01*
X181204467Y-88285585D01*
X181204471Y-88285585D01*
X181204475Y-88285587D01*
X181233407Y-88288300D01*
X181986592Y-88288299D01*
X182015525Y-88285587D01*
X182137392Y-88242944D01*
X182241275Y-88166275D01*
X182317944Y-88062392D01*
X182350241Y-87970093D01*
X182360585Y-87940532D01*
X182360585Y-87940529D01*
X182360587Y-87940525D01*
X182363300Y-87911593D01*
X182363300Y-87788500D01*
X182382985Y-87721461D01*
X182435789Y-87675706D01*
X182487300Y-87664500D01*
X182893220Y-87664500D01*
X182960259Y-87684185D01*
X182980901Y-87700819D01*
X183014245Y-87734163D01*
X183085837Y-87805755D01*
X183151974Y-87833149D01*
X183151977Y-87833151D01*
X183151978Y-87833151D01*
X183163327Y-87837851D01*
X183179376Y-87844500D01*
X183179377Y-87844500D01*
X183646323Y-87844500D01*
X183713362Y-87864185D01*
X183759117Y-87916989D01*
X183768796Y-87949102D01*
X183772119Y-87970086D01*
X183772119Y-87970087D01*
X183772120Y-87970090D01*
X183772121Y-87970091D01*
X183831918Y-88087448D01*
X183831920Y-88087450D01*
X183831922Y-88087453D01*
X183925046Y-88180577D01*
X183925055Y-88180584D01*
X184042406Y-88240378D01*
X184042411Y-88240380D01*
X184139769Y-88255799D01*
X184139775Y-88255800D01*
X184680224Y-88255799D01*
X184777591Y-88240379D01*
X184894948Y-88180582D01*
X184988082Y-88087448D01*
X185047879Y-87970091D01*
X185047879Y-87970090D01*
X185047880Y-87970088D01*
X185063299Y-87872730D01*
X185063300Y-87872725D01*
X185063299Y-87307276D01*
X185047879Y-87209909D01*
X184988082Y-87092552D01*
X184988078Y-87092548D01*
X184988077Y-87092546D01*
X184894953Y-86999422D01*
X184894944Y-86999415D01*
X184777593Y-86939621D01*
X184777588Y-86939619D01*
X184680230Y-86924200D01*
X184139776Y-86924200D01*
X184055721Y-86937512D01*
X184042409Y-86939621D01*
X183925052Y-86999418D01*
X183925051Y-86999419D01*
X183925046Y-86999422D01*
X183831922Y-87092546D01*
X183831915Y-87092555D01*
X183772121Y-87209906D01*
X183772119Y-87209911D01*
X183768796Y-87230898D01*
X183738867Y-87294033D01*
X183679555Y-87330964D01*
X183646323Y-87335500D01*
X183386780Y-87335500D01*
X183319741Y-87315815D01*
X183299098Y-87299181D01*
X183194163Y-87194245D01*
X183194158Y-87194242D01*
X183100626Y-87155501D01*
X183100624Y-87155500D01*
X183100623Y-87155500D01*
X183100621Y-87155500D01*
X182487299Y-87155500D01*
X182420260Y-87135815D01*
X182374505Y-87083011D01*
X182363299Y-87031500D01*
X182363299Y-86908409D01*
X182360587Y-86879479D01*
X182360587Y-86879475D01*
X182317944Y-86757608D01*
X182241275Y-86653725D01*
X182137392Y-86577056D01*
X182137390Y-86577055D01*
X182015532Y-86534414D01*
X182015520Y-86534412D01*
X181986597Y-86531700D01*
X181233409Y-86531700D01*
X181204479Y-86534412D01*
X181204476Y-86534412D01*
X181204475Y-86534413D01*
X181082608Y-86577056D01*
X181082607Y-86577056D01*
X181082606Y-86577057D01*
X180978725Y-86653725D01*
X180902055Y-86757609D01*
X180859414Y-86879467D01*
X180859412Y-86879479D01*
X180856700Y-86908402D01*
X180856700Y-87911590D01*
X180313300Y-87911590D01*
X180313299Y-86908408D01*
X180310587Y-86879475D01*
X180267944Y-86757608D01*
X180191275Y-86653725D01*
X180087392Y-86577056D01*
X180087390Y-86577055D01*
X179965532Y-86534414D01*
X179965520Y-86534412D01*
X179936590Y-86531699D01*
X179933697Y-86531564D01*
X179933755Y-86530306D01*
X179871461Y-86512015D01*
X179825706Y-86459211D01*
X179814500Y-86407700D01*
X179814500Y-84569378D01*
X179814498Y-84569373D01*
X179775757Y-84475839D01*
X179697098Y-84397180D01*
X179697091Y-84397174D01*
X178934162Y-83634244D01*
X178934160Y-83634242D01*
X178840626Y-83595501D01*
X178840624Y-83595500D01*
X178840623Y-83595500D01*
X178840621Y-83595500D01*
X178257579Y-83595500D01*
X178190540Y-83575815D01*
X178144785Y-83523011D01*
X178135962Y-83495692D01*
X178127955Y-83455431D01*
X178088547Y-83396453D01*
X178029569Y-83357045D01*
X178029568Y-83357044D01*
X178029567Y-83357044D01*
X178029566Y-83357043D01*
X177977563Y-83346700D01*
X176242441Y-83346700D01*
X176190430Y-83357045D01*
X176151022Y-83383377D01*
X176131455Y-83396452D01*
X176131452Y-83396454D01*
X176092044Y-83455432D01*
X176092044Y-83455433D01*
X176084036Y-83495692D01*
X176051651Y-83557603D01*
X175990935Y-83592177D01*
X175962419Y-83595500D01*
X174527564Y-83595500D01*
X174460525Y-83575815D01*
X174414770Y-83523011D01*
X174413003Y-83518952D01*
X174382932Y-83446353D01*
X174382925Y-83446340D01*
X174303532Y-83327521D01*
X174303529Y-83327517D01*
X174218693Y-83242681D01*
X174185208Y-83181358D01*
X174190192Y-83111666D01*
X174218693Y-83067319D01*
X174303529Y-82982482D01*
X174303532Y-82982479D01*
X174365586Y-82889609D01*
X174419198Y-82844804D01*
X174468688Y-82834500D01*
X175962421Y-82834500D01*
X176029460Y-82854185D01*
X176075215Y-82906989D01*
X176084037Y-82934306D01*
X176092045Y-82974569D01*
X176131453Y-83033547D01*
X176190431Y-83072955D01*
X176190432Y-83072955D01*
X176190433Y-83072956D01*
X176221578Y-83079150D01*
X176242439Y-83083300D01*
X177977560Y-83083299D01*
X178029569Y-83072955D01*
X178088547Y-83033547D01*
X178127955Y-82974569D01*
X178138300Y-82922561D01*
X178138299Y-82237440D01*
X178127955Y-82185431D01*
X178088547Y-82126453D01*
X178029569Y-82087045D01*
X178029568Y-82087044D01*
X178029567Y-82087044D01*
X178029566Y-82087043D01*
X177977563Y-82076700D01*
X176242441Y-82076700D01*
X176190430Y-82087045D01*
X176162509Y-82105702D01*
X176131455Y-82126452D01*
X176131452Y-82126454D01*
X176092044Y-82185432D01*
X176092044Y-82185433D01*
X176084036Y-82225692D01*
X176051651Y-82287603D01*
X175990935Y-82322177D01*
X175962419Y-82325500D01*
X174527564Y-82325500D01*
X174460525Y-82305815D01*
X174414770Y-82253011D01*
X174413003Y-82248952D01*
X174382932Y-82176353D01*
X174382925Y-82176340D01*
X174303532Y-82057521D01*
X174303529Y-82057517D01*
X174218693Y-81972681D01*
X174185208Y-81911358D01*
X174190192Y-81841666D01*
X174218693Y-81797319D01*
X174303529Y-81712482D01*
X174303532Y-81712479D01*
X174365586Y-81619609D01*
X174419198Y-81574804D01*
X174468688Y-81564500D01*
X175962421Y-81564500D01*
X176029460Y-81584185D01*
X176075215Y-81636989D01*
X176084037Y-81664306D01*
X176092045Y-81704569D01*
X176131453Y-81763547D01*
X176190431Y-81802955D01*
X176190432Y-81802955D01*
X176190433Y-81802956D01*
X176221578Y-81809150D01*
X176242439Y-81813300D01*
X177977560Y-81813299D01*
X178029569Y-81802955D01*
X178088547Y-81763547D01*
X178088551Y-81763540D01*
X178093404Y-81758689D01*
X178154725Y-81725202D01*
X178224417Y-81730184D01*
X178268766Y-81758684D01*
X178438417Y-81928334D01*
X178652229Y-82142146D01*
X178685714Y-82203469D01*
X178680730Y-82273161D01*
X178662924Y-82305313D01*
X178619139Y-82362374D01*
X178619138Y-82362376D01*
X178563671Y-82496287D01*
X178563670Y-82496291D01*
X178544750Y-82640000D01*
X178556811Y-82731614D01*
X178563670Y-82783708D01*
X178563671Y-82783712D01*
X178619137Y-82917622D01*
X178619138Y-82917624D01*
X178619139Y-82917625D01*
X178707379Y-83032621D01*
X178822375Y-83120861D01*
X178956291Y-83176330D01*
X179083280Y-83193048D01*
X179099999Y-83195250D01*
X179100000Y-83195250D01*
X179100001Y-83195250D01*
X179114977Y-83193278D01*
X179243709Y-83176330D01*
X179377625Y-83120861D01*
X179492621Y-83032621D01*
X179580861Y-82917625D01*
X179636330Y-82783709D01*
X179655250Y-82640000D01*
X179636330Y-82496291D01*
X179599350Y-82407013D01*
X179580862Y-82362377D01*
X179580861Y-82362376D01*
X179580861Y-82362375D01*
X179492621Y-82247379D01*
X179377625Y-82159139D01*
X179377623Y-82159138D01*
X179377615Y-82159132D01*
X179372660Y-82156271D01*
X179324447Y-82105702D01*
X179320113Y-82096359D01*
X179315755Y-82085837D01*
X179244163Y-82014245D01*
X179237098Y-82007180D01*
X179237091Y-82007174D01*
X178324162Y-81094244D01*
X178324160Y-81094242D01*
X178219340Y-81050826D01*
X178220130Y-81048918D01*
X178172082Y-81023784D01*
X178137509Y-80963067D01*
X178136575Y-80958775D01*
X178127955Y-80915431D01*
X178088547Y-80856453D01*
X178029569Y-80817045D01*
X178029568Y-80817044D01*
X178029567Y-80817044D01*
X178029566Y-80817043D01*
X177977563Y-80806700D01*
X176242441Y-80806700D01*
X176190430Y-80817045D01*
X176151022Y-80843377D01*
X176131455Y-80856452D01*
X176131452Y-80856454D01*
X176092044Y-80915432D01*
X176092044Y-80915433D01*
X176084036Y-80955692D01*
X176051651Y-81017603D01*
X175990935Y-81052177D01*
X175962419Y-81055500D01*
X174527564Y-81055500D01*
X174460525Y-81035815D01*
X174414770Y-80983011D01*
X174413003Y-80978952D01*
X174382932Y-80906353D01*
X174382925Y-80906340D01*
X174309815Y-80796924D01*
X174288937Y-80730247D01*
X174307421Y-80662867D01*
X174344024Y-80624932D01*
X174368547Y-80608547D01*
X174407955Y-80549569D01*
X174409203Y-80543299D01*
X174418299Y-80497565D01*
X174418300Y-80497562D01*
X174418300Y-80418500D01*
X174437985Y-80351461D01*
X174490789Y-80305706D01*
X174542300Y-80294500D01*
X175962421Y-80294500D01*
X176029460Y-80314185D01*
X176075215Y-80366989D01*
X176084037Y-80394306D01*
X176092045Y-80434569D01*
X176131453Y-80493547D01*
X176190431Y-80532955D01*
X176190432Y-80532955D01*
X176190433Y-80532956D01*
X176221578Y-80539150D01*
X176242439Y-80543300D01*
X177977560Y-80543299D01*
X178029569Y-80532955D01*
X178088547Y-80493547D01*
X178127955Y-80434569D01*
X178131152Y-80418500D01*
X178132277Y-80412844D01*
X183060000Y-80412844D01*
X183066401Y-80472372D01*
X183066403Y-80472379D01*
X183116645Y-80607086D01*
X183116649Y-80607093D01*
X183202809Y-80722187D01*
X183202812Y-80722190D01*
X183317910Y-80808353D01*
X183324028Y-80811694D01*
X183373434Y-80861099D01*
X183388286Y-80929372D01*
X183386220Y-80944713D01*
X183383431Y-80958740D01*
X183381700Y-80967440D01*
X183381700Y-81652558D01*
X183384038Y-81664312D01*
X183392045Y-81704569D01*
X183431453Y-81763547D01*
X183490431Y-81802955D01*
X183490432Y-81802955D01*
X183490433Y-81802956D01*
X183521578Y-81809150D01*
X183542439Y-81813300D01*
X185277560Y-81813299D01*
X185329569Y-81802955D01*
X185388547Y-81763547D01*
X185427955Y-81704569D01*
X185435963Y-81664312D01*
X185435964Y-81664308D01*
X185468349Y-81602397D01*
X185529065Y-81567823D01*
X185557581Y-81564500D01*
X186783146Y-81564500D01*
X186850185Y-81584185D01*
X186895940Y-81636989D01*
X186897707Y-81641047D01*
X186907069Y-81663649D01*
X186907074Y-81663659D01*
X186986467Y-81782478D01*
X186986470Y-81782482D01*
X187071307Y-81867319D01*
X187104792Y-81928642D01*
X187099808Y-81998334D01*
X187071307Y-82042681D01*
X186986470Y-82127517D01*
X186986467Y-82127521D01*
X186907074Y-82246340D01*
X186907066Y-82246354D01*
X186905989Y-82248957D01*
X186905060Y-82250109D01*
X186904201Y-82251717D01*
X186903896Y-82251554D01*
X186862146Y-82303359D01*
X186795851Y-82325421D01*
X186791430Y-82325500D01*
X185557579Y-82325500D01*
X185490540Y-82305815D01*
X185444785Y-82253011D01*
X185435962Y-82225692D01*
X185427955Y-82185431D01*
X185388547Y-82126453D01*
X185329569Y-82087045D01*
X185329568Y-82087044D01*
X185329567Y-82087044D01*
X185329566Y-82087043D01*
X185277563Y-82076700D01*
X183542441Y-82076700D01*
X183490430Y-82087045D01*
X183462509Y-82105702D01*
X183431455Y-82126452D01*
X183431452Y-82126454D01*
X183392044Y-82185432D01*
X183392043Y-82185433D01*
X183381700Y-82237434D01*
X183381700Y-82922558D01*
X183384038Y-82934312D01*
X183392045Y-82974569D01*
X183431453Y-83033547D01*
X183490431Y-83072955D01*
X183490432Y-83072955D01*
X183490433Y-83072956D01*
X183521578Y-83079150D01*
X183542439Y-83083300D01*
X185277560Y-83083299D01*
X185329569Y-83072955D01*
X185388547Y-83033547D01*
X185427955Y-82974569D01*
X185435963Y-82934312D01*
X185435964Y-82934308D01*
X185468349Y-82872397D01*
X185529065Y-82837823D01*
X185557581Y-82834500D01*
X186783146Y-82834500D01*
X186850185Y-82854185D01*
X186895940Y-82906989D01*
X186897707Y-82911047D01*
X186907069Y-82933649D01*
X186907074Y-82933659D01*
X186986467Y-83052478D01*
X186986470Y-83052482D01*
X187071307Y-83137319D01*
X187104792Y-83198642D01*
X187099808Y-83268334D01*
X187071307Y-83312681D01*
X186986470Y-83397517D01*
X186986467Y-83397521D01*
X186907073Y-83516342D01*
X186907071Y-83516347D01*
X186901849Y-83528952D01*
X186858011Y-83583355D01*
X186791717Y-83605421D01*
X186787289Y-83605500D01*
X185559568Y-83605500D01*
X185492529Y-83585815D01*
X185446774Y-83533011D01*
X185437951Y-83505692D01*
X185427955Y-83455431D01*
X185388547Y-83396453D01*
X185329569Y-83357045D01*
X185329568Y-83357044D01*
X185329567Y-83357044D01*
X185329566Y-83357043D01*
X185277563Y-83346700D01*
X183542441Y-83346700D01*
X183490430Y-83357045D01*
X183451022Y-83383377D01*
X183431455Y-83396452D01*
X183431452Y-83396454D01*
X183392044Y-83455432D01*
X183392043Y-83455433D01*
X183381700Y-83507434D01*
X183381700Y-84192558D01*
X183384038Y-84204312D01*
X183392045Y-84244569D01*
X183431453Y-84303547D01*
X183490431Y-84342955D01*
X183490432Y-84342955D01*
X183490433Y-84342956D01*
X183521578Y-84349150D01*
X183542439Y-84353300D01*
X184031500Y-84353299D01*
X184098539Y-84372983D01*
X184144294Y-84425787D01*
X184155500Y-84477299D01*
X184155500Y-84990803D01*
X184135815Y-85057842D01*
X184083011Y-85103597D01*
X184050898Y-85113276D01*
X184042412Y-85114619D01*
X183984894Y-85143926D01*
X183925052Y-85174418D01*
X183925051Y-85174419D01*
X183925046Y-85174422D01*
X183831922Y-85267546D01*
X183831915Y-85267555D01*
X183772121Y-85384906D01*
X183772119Y-85384911D01*
X183756700Y-85482269D01*
X183756700Y-86047723D01*
X183764470Y-86096780D01*
X183772121Y-86145091D01*
X183831918Y-86262448D01*
X183831920Y-86262450D01*
X183831922Y-86262453D01*
X183925046Y-86355577D01*
X183925055Y-86355584D01*
X184042406Y-86415378D01*
X184042411Y-86415380D01*
X184139769Y-86430799D01*
X184139775Y-86430800D01*
X184680224Y-86430799D01*
X184777591Y-86415379D01*
X184894948Y-86355582D01*
X184988082Y-86262448D01*
X185047879Y-86145091D01*
X185047879Y-86145090D01*
X185047880Y-86145088D01*
X185063299Y-86047730D01*
X185063300Y-86047725D01*
X185063299Y-85482276D01*
X185047879Y-85384909D01*
X184988082Y-85267552D01*
X184988078Y-85267548D01*
X184988077Y-85267546D01*
X184894953Y-85174422D01*
X184894944Y-85174415D01*
X184777593Y-85114621D01*
X184777590Y-85114620D01*
X184769097Y-85113275D01*
X184705963Y-85083342D01*
X184669035Y-85024029D01*
X184664500Y-84990802D01*
X184664500Y-84477299D01*
X184684185Y-84410260D01*
X184736989Y-84364505D01*
X184788500Y-84353299D01*
X185277558Y-84353299D01*
X185277560Y-84353299D01*
X185329569Y-84342955D01*
X185388547Y-84303547D01*
X185427955Y-84244569D01*
X185430656Y-84230985D01*
X185433975Y-84214308D01*
X185466360Y-84152397D01*
X185527076Y-84117823D01*
X185555592Y-84114500D01*
X186787289Y-84114500D01*
X186854328Y-84134185D01*
X186900083Y-84186989D01*
X186901836Y-84191016D01*
X186902477Y-84192561D01*
X186907073Y-84203657D01*
X186986467Y-84322478D01*
X186986470Y-84322482D01*
X187087517Y-84423529D01*
X187087521Y-84423532D01*
X187206340Y-84502925D01*
X187206346Y-84502928D01*
X187206347Y-84502929D01*
X187338380Y-84557619D01*
X187338384Y-84557619D01*
X187338385Y-84557620D01*
X187478542Y-84585500D01*
X187478545Y-84585500D01*
X187621457Y-84585500D01*
X187715751Y-84566742D01*
X187761620Y-84557619D01*
X187893653Y-84502929D01*
X188012479Y-84423532D01*
X188113532Y-84322479D01*
X188192929Y-84203653D01*
X188247619Y-84071620D01*
X188275500Y-83931455D01*
X188275500Y-83788545D01*
X188275500Y-83788542D01*
X188247620Y-83648385D01*
X188247619Y-83648384D01*
X188247619Y-83648380D01*
X188205318Y-83546258D01*
X188192930Y-83516349D01*
X188192925Y-83516340D01*
X188113532Y-83397521D01*
X188113529Y-83397517D01*
X188028693Y-83312681D01*
X187995208Y-83251358D01*
X188000192Y-83181666D01*
X188028693Y-83137319D01*
X188113529Y-83052482D01*
X188113532Y-83052479D01*
X188192929Y-82933653D01*
X188247619Y-82801620D01*
X188275500Y-82661455D01*
X188275500Y-82518545D01*
X188275500Y-82518542D01*
X188247620Y-82378385D01*
X188247619Y-82378384D01*
X188247619Y-82378380D01*
X188194008Y-82248952D01*
X188192930Y-82246349D01*
X188192925Y-82246340D01*
X188113532Y-82127521D01*
X188113529Y-82127517D01*
X188028693Y-82042681D01*
X187995208Y-81981358D01*
X188000192Y-81911666D01*
X188028693Y-81867319D01*
X188113529Y-81782482D01*
X188113532Y-81782479D01*
X188192929Y-81663653D01*
X188247619Y-81531620D01*
X188275500Y-81391455D01*
X188275500Y-81248545D01*
X188275500Y-81248542D01*
X188248711Y-81113870D01*
X188254938Y-81044278D01*
X188296017Y-80990411D01*
X188407191Y-80907186D01*
X188493350Y-80792093D01*
X188493354Y-80792086D01*
X188543596Y-80657379D01*
X188543598Y-80657372D01*
X188549999Y-80597844D01*
X188550000Y-80597827D01*
X188550000Y-80300000D01*
X187759618Y-80300000D01*
X187810064Y-80249554D01*
X187852851Y-80175445D01*
X187875000Y-80092787D01*
X187875000Y-80007213D01*
X187852851Y-79924555D01*
X187810064Y-79850446D01*
X187749554Y-79789936D01*
X187675445Y-79747149D01*
X187592787Y-79725000D01*
X187507213Y-79725000D01*
X187424555Y-79747149D01*
X187350446Y-79789936D01*
X187289936Y-79850446D01*
X187247149Y-79924555D01*
X187225000Y-80007213D01*
X187225000Y-80092787D01*
X187247149Y-80175445D01*
X187289936Y-80249554D01*
X187340382Y-80300000D01*
X186550000Y-80300000D01*
X186550000Y-80597844D01*
X186556401Y-80657372D01*
X186556403Y-80657379D01*
X186606645Y-80792086D01*
X186606646Y-80792088D01*
X186655381Y-80857189D01*
X186679798Y-80922653D01*
X186664947Y-80990926D01*
X186615542Y-81040332D01*
X186556114Y-81055500D01*
X185557579Y-81055500D01*
X185490540Y-81035815D01*
X185444785Y-80983011D01*
X185435963Y-80955698D01*
X185433779Y-80944715D01*
X185440006Y-80875127D01*
X185482868Y-80819949D01*
X185495976Y-80811690D01*
X185502095Y-80808348D01*
X185617187Y-80722190D01*
X185617190Y-80722187D01*
X185703350Y-80607093D01*
X185703354Y-80607086D01*
X185753596Y-80472379D01*
X185753598Y-80472372D01*
X185759999Y-80412844D01*
X185760000Y-80412827D01*
X185760000Y-80290000D01*
X183060000Y-80290000D01*
X183060000Y-80412844D01*
X178132277Y-80412844D01*
X178138299Y-80382565D01*
X178138300Y-80382561D01*
X178138299Y-79800000D01*
X186550000Y-79800000D01*
X187300000Y-79800000D01*
X187300000Y-79050000D01*
X187800000Y-79050000D01*
X187800000Y-79800000D01*
X188550000Y-79800000D01*
X188550000Y-79502172D01*
X188549999Y-79502155D01*
X188543598Y-79442627D01*
X188543596Y-79442620D01*
X188493354Y-79307913D01*
X188493350Y-79307906D01*
X188407190Y-79192812D01*
X188407187Y-79192809D01*
X188292093Y-79106649D01*
X188292086Y-79106645D01*
X188157379Y-79056403D01*
X188157372Y-79056401D01*
X188097844Y-79050000D01*
X187800000Y-79050000D01*
X187300000Y-79050000D01*
X187002155Y-79050000D01*
X186942627Y-79056401D01*
X186942620Y-79056403D01*
X186807913Y-79106645D01*
X186807906Y-79106649D01*
X186692812Y-79192809D01*
X186692809Y-79192812D01*
X186606649Y-79307906D01*
X186606645Y-79307913D01*
X186556403Y-79442620D01*
X186556401Y-79442627D01*
X186550000Y-79502155D01*
X186550000Y-79800000D01*
X178138299Y-79800000D01*
X178138299Y-79790000D01*
X183060000Y-79790000D01*
X184160000Y-79790000D01*
X184160000Y-79215000D01*
X184660000Y-79215000D01*
X184660000Y-79790000D01*
X185760000Y-79790000D01*
X185760000Y-79667172D01*
X185759999Y-79667155D01*
X185753598Y-79607627D01*
X185753596Y-79607620D01*
X185703354Y-79472913D01*
X185703350Y-79472906D01*
X185617190Y-79357812D01*
X185617187Y-79357809D01*
X185502093Y-79271649D01*
X185502086Y-79271645D01*
X185367379Y-79221403D01*
X185367372Y-79221401D01*
X185307844Y-79215000D01*
X184660000Y-79215000D01*
X184160000Y-79215000D01*
X183512155Y-79215000D01*
X183452627Y-79221401D01*
X183452620Y-79221403D01*
X183317913Y-79271645D01*
X183317906Y-79271649D01*
X183202812Y-79357809D01*
X183202809Y-79357812D01*
X183116649Y-79472906D01*
X183116645Y-79472913D01*
X183066403Y-79607620D01*
X183066401Y-79607627D01*
X183060000Y-79667155D01*
X183060000Y-79790000D01*
X178138299Y-79790000D01*
X178138299Y-79697440D01*
X178127955Y-79645431D01*
X178088547Y-79586453D01*
X178029569Y-79547045D01*
X178029568Y-79547044D01*
X178029567Y-79547044D01*
X178029566Y-79547043D01*
X177977563Y-79536700D01*
X176242441Y-79536700D01*
X176190430Y-79547045D01*
X176151022Y-79573377D01*
X176131455Y-79586452D01*
X176131452Y-79586454D01*
X176092044Y-79645432D01*
X176092044Y-79645433D01*
X176084036Y-79685692D01*
X176051651Y-79747603D01*
X175990935Y-79782177D01*
X175962419Y-79785500D01*
X174542299Y-79785500D01*
X174475260Y-79765815D01*
X174429505Y-79713011D01*
X174418299Y-79661500D01*
X174418299Y-79462441D01*
X174407955Y-79410433D01*
X174407955Y-79410431D01*
X174368547Y-79351453D01*
X174309569Y-79312045D01*
X174309568Y-79312044D01*
X174309567Y-79312044D01*
X174309566Y-79312043D01*
X174257565Y-79301700D01*
X174257561Y-79301700D01*
X174022925Y-79301700D01*
X173975472Y-79292261D01*
X173951620Y-79282381D01*
X173951614Y-79282379D01*
X173811457Y-79254500D01*
X173811455Y-79254500D01*
X173668545Y-79254500D01*
X173668543Y-79254500D01*
X173528381Y-79282380D01*
X173528378Y-79282381D01*
X173504523Y-79292262D01*
X173457073Y-79301700D01*
X173222441Y-79301700D01*
X173170430Y-79312045D01*
X173131022Y-79338377D01*
X173111455Y-79351452D01*
X173111452Y-79351454D01*
X173072044Y-79410432D01*
X173072043Y-79410433D01*
X173061700Y-79462434D01*
X173061700Y-79697075D01*
X173052262Y-79744523D01*
X173042381Y-79768380D01*
X173042380Y-79768383D01*
X173042379Y-79768386D01*
X173014500Y-79908542D01*
X173014500Y-79908545D01*
X173014500Y-80051455D01*
X173014500Y-80051457D01*
X173014499Y-80051457D01*
X173042379Y-80191613D01*
X173042380Y-80191617D01*
X173042381Y-80191620D01*
X173052261Y-80215474D01*
X173061700Y-80262923D01*
X173061700Y-80497558D01*
X173068741Y-80532956D01*
X173072045Y-80549569D01*
X173111453Y-80608547D01*
X173135974Y-80624931D01*
X173180777Y-80678541D01*
X173189485Y-80747866D01*
X173170185Y-80796922D01*
X173097073Y-80906342D01*
X173097069Y-80906349D01*
X173042381Y-81038379D01*
X173042379Y-81038385D01*
X173014500Y-81178542D01*
X173014500Y-81178545D01*
X173014500Y-81321455D01*
X173014500Y-81321457D01*
X173014499Y-81321457D01*
X173042379Y-81461614D01*
X173042381Y-81461620D01*
X173097069Y-81593650D01*
X173097074Y-81593659D01*
X173176467Y-81712478D01*
X173176470Y-81712482D01*
X173261307Y-81797319D01*
X173294792Y-81858642D01*
X173289808Y-81928334D01*
X173261307Y-81972681D01*
X173176470Y-82057517D01*
X173176467Y-82057521D01*
X173097074Y-82176340D01*
X173097069Y-82176349D01*
X173042381Y-82308379D01*
X173042379Y-82308385D01*
X173014500Y-82448542D01*
X173014500Y-82448545D01*
X173014500Y-82591455D01*
X173014500Y-82591457D01*
X173014499Y-82591457D01*
X173042379Y-82731614D01*
X173042381Y-82731620D01*
X173097069Y-82863650D01*
X173097074Y-82863659D01*
X173176467Y-82982478D01*
X173176470Y-82982482D01*
X173261307Y-83067319D01*
X173294792Y-83128642D01*
X173289808Y-83198334D01*
X173261307Y-83242681D01*
X173176470Y-83327517D01*
X173176467Y-83327521D01*
X173097074Y-83446340D01*
X173097069Y-83446349D01*
X173042381Y-83578379D01*
X173042379Y-83578385D01*
X173014500Y-83718542D01*
X173014500Y-83718545D01*
X173014500Y-83861455D01*
X173014500Y-83861457D01*
X173014499Y-83861457D01*
X171880500Y-83861457D01*
X171880500Y-77470000D01*
X185145001Y-77470000D01*
X185145001Y-77569154D01*
X185155319Y-77670152D01*
X185209546Y-77833800D01*
X185209551Y-77833811D01*
X185300052Y-77980534D01*
X185300055Y-77980538D01*
X185421961Y-78102444D01*
X185421965Y-78102447D01*
X185568688Y-78192948D01*
X185568699Y-78192953D01*
X185732347Y-78247180D01*
X185833352Y-78257499D01*
X185870000Y-78257499D01*
X185870000Y-77470000D01*
X186370000Y-77470000D01*
X186370000Y-78257499D01*
X186406640Y-78257499D01*
X186406654Y-78257498D01*
X186507652Y-78247180D01*
X186671300Y-78192953D01*
X186671311Y-78192948D01*
X186818034Y-78102447D01*
X186818038Y-78102444D01*
X186939944Y-77980538D01*
X186939947Y-77980534D01*
X187030448Y-77833811D01*
X187030453Y-77833800D01*
X187084680Y-77670152D01*
X187094999Y-77569154D01*
X187095000Y-77569141D01*
X187095000Y-77470000D01*
X186370000Y-77470000D01*
X185870000Y-77470000D01*
X185145001Y-77470000D01*
X171880500Y-77470000D01*
X171880500Y-76970000D01*
X185145000Y-76970000D01*
X187094999Y-76970000D01*
X187094999Y-76870860D01*
X187094998Y-76870845D01*
X187084680Y-76769847D01*
X187030453Y-76606199D01*
X187030448Y-76606188D01*
X186939947Y-76459465D01*
X186939944Y-76459461D01*
X186818038Y-76337555D01*
X186818034Y-76337552D01*
X186694796Y-76261537D01*
X186648071Y-76209589D01*
X186636850Y-76140626D01*
X186664693Y-76076544D01*
X186672202Y-76068327D01*
X186698082Y-76042448D01*
X186757879Y-75925091D01*
X186757879Y-75925090D01*
X186757880Y-75925088D01*
X186773299Y-75827730D01*
X186773300Y-75827725D01*
X186773299Y-75162276D01*
X186757879Y-75064909D01*
X186698082Y-74947552D01*
X186698078Y-74947548D01*
X186698077Y-74947546D01*
X186604953Y-74854422D01*
X186604944Y-74854415D01*
X186487593Y-74794621D01*
X186487590Y-74794620D01*
X186479097Y-74793275D01*
X186415963Y-74763342D01*
X186379035Y-74704029D01*
X186374500Y-74670802D01*
X186374500Y-74416779D01*
X186394185Y-74349740D01*
X186410812Y-74329104D01*
X186444153Y-74295763D01*
X186505472Y-74262280D01*
X186548018Y-74260507D01*
X186659999Y-74275250D01*
X186660000Y-74275250D01*
X186660001Y-74275250D01*
X186674977Y-74273278D01*
X186803709Y-74256330D01*
X186937625Y-74200861D01*
X187052621Y-74112621D01*
X187140861Y-73997625D01*
X187196330Y-73863709D01*
X187215250Y-73720000D01*
X187196330Y-73576291D01*
X187140861Y-73442375D01*
X187052621Y-73327379D01*
X186937625Y-73239139D01*
X186937624Y-73239138D01*
X186937622Y-73239137D01*
X186803712Y-73183671D01*
X186803710Y-73183670D01*
X186803709Y-73183670D01*
X186731854Y-73174210D01*
X186660001Y-73164750D01*
X186659999Y-73164750D01*
X186516291Y-73183670D01*
X186516287Y-73183671D01*
X186382377Y-73239137D01*
X186267379Y-73327379D01*
X186179137Y-73442377D01*
X186123671Y-73576287D01*
X186123670Y-73576291D01*
X186104750Y-73719999D01*
X186104750Y-73720002D01*
X186119492Y-73831980D01*
X186108726Y-73901015D01*
X186084235Y-73935846D01*
X185975837Y-74044244D01*
X185958397Y-74061685D01*
X185958395Y-74061685D01*
X185958396Y-74061686D01*
X185904242Y-74115839D01*
X185865501Y-74209373D01*
X185865500Y-74209378D01*
X185865500Y-74670803D01*
X185845815Y-74737842D01*
X185793011Y-74783597D01*
X185760898Y-74793276D01*
X185752412Y-74794619D01*
X185694894Y-74823926D01*
X185635052Y-74854418D01*
X185635051Y-74854419D01*
X185635046Y-74854422D01*
X185541922Y-74947546D01*
X185541915Y-74947555D01*
X185482121Y-75064906D01*
X185482119Y-75064911D01*
X185466700Y-75162269D01*
X185466700Y-75827723D01*
X185477904Y-75898465D01*
X185482121Y-75925091D01*
X185541918Y-76042448D01*
X185541920Y-76042450D01*
X185541922Y-76042453D01*
X185567787Y-76068318D01*
X185601272Y-76129641D01*
X185596288Y-76199333D01*
X185554416Y-76255266D01*
X185545204Y-76261537D01*
X185421962Y-76337554D01*
X185300055Y-76459461D01*
X185300052Y-76459465D01*
X185209551Y-76606188D01*
X185209546Y-76606199D01*
X185155319Y-76769847D01*
X185145000Y-76870845D01*
X185145000Y-76970000D01*
X171880500Y-76970000D01*
X171880500Y-69389500D01*
X171900185Y-69322461D01*
X171952989Y-69276706D01*
X172004500Y-69265500D01*
X173794010Y-69265500D01*
X173861049Y-69285185D01*
G37*
G04 #@! TD.AperFunction*
M02*
