G04 #@! TF.GenerationSoftware,KiCad,Pcbnew,8.0.1*
G04 #@! TF.CreationDate,2025-03-18T23:24:49-06:00*
G04 #@! TF.ProjectId,AlcoholSensor_Rev3,416c636f-686f-46c5-9365-6e736f725f52,rev?*
G04 #@! TF.SameCoordinates,Original*
G04 #@! TF.FileFunction,Copper,L2,Bot*
G04 #@! TF.FilePolarity,Positive*
%FSLAX46Y46*%
G04 Gerber Fmt 4.6, Leading zero omitted, Abs format (unit mm)*
G04 Created by KiCad (PCBNEW 8.0.1) date 2025-03-18 23:24:49*
%MOMM*%
%LPD*%
G01*
G04 APERTURE LIST*
G04 Aperture macros list*
%AMRoundRect*
0 Rectangle with rounded corners*
0 $1 Rounding radius*
0 $2 $3 $4 $5 $6 $7 $8 $9 X,Y pos of 4 corners*
0 Add a 4 corners polygon primitive as box body*
4,1,4,$2,$3,$4,$5,$6,$7,$8,$9,$2,$3,0*
0 Add four circle primitives for the rounded corners*
1,1,$1+$1,$2,$3*
1,1,$1+$1,$4,$5*
1,1,$1+$1,$6,$7*
1,1,$1+$1,$8,$9*
0 Add four rect primitives between the rounded corners*
20,1,$1+$1,$2,$3,$4,$5,0*
20,1,$1+$1,$4,$5,$6,$7,0*
20,1,$1+$1,$6,$7,$8,$9,0*
20,1,$1+$1,$8,$9,$2,$3,0*%
G04 Aperture macros list end*
G04 #@! TA.AperFunction,SMDPad,CuDef*
%ADD10R,0.508000X1.320800*%
G04 #@! TD*
G04 #@! TA.AperFunction,SMDPad,CuDef*
%ADD11R,0.508000X1.003300*%
G04 #@! TD*
G04 #@! TA.AperFunction,ComponentPad*
%ADD12C,2.500000*%
G04 #@! TD*
G04 #@! TA.AperFunction,ComponentPad*
%ADD13R,1.000000X1.000000*%
G04 #@! TD*
G04 #@! TA.AperFunction,ComponentPad*
%ADD14O,1.000000X1.000000*%
G04 #@! TD*
G04 #@! TA.AperFunction,ComponentPad*
%ADD15R,1.700000X1.700000*%
G04 #@! TD*
G04 #@! TA.AperFunction,ComponentPad*
%ADD16O,1.700000X1.700000*%
G04 #@! TD*
G04 #@! TA.AperFunction,SMDPad,CuDef*
%ADD17RoundRect,0.237500X-0.300000X-0.237500X0.300000X-0.237500X0.300000X0.237500X-0.300000X0.237500X0*%
G04 #@! TD*
G04 #@! TA.AperFunction,SMDPad,CuDef*
%ADD18RoundRect,0.237500X0.237500X-0.250000X0.237500X0.250000X-0.237500X0.250000X-0.237500X-0.250000X0*%
G04 #@! TD*
G04 #@! TA.AperFunction,SMDPad,CuDef*
%ADD19RoundRect,0.237500X0.300000X0.237500X-0.300000X0.237500X-0.300000X-0.237500X0.300000X-0.237500X0*%
G04 #@! TD*
G04 #@! TA.AperFunction,SMDPad,CuDef*
%ADD20RoundRect,0.237500X-0.250000X-0.237500X0.250000X-0.237500X0.250000X0.237500X-0.250000X0.237500X0*%
G04 #@! TD*
G04 #@! TA.AperFunction,SMDPad,CuDef*
%ADD21RoundRect,0.237500X0.250000X0.237500X-0.250000X0.237500X-0.250000X-0.237500X0.250000X-0.237500X0*%
G04 #@! TD*
G04 #@! TA.AperFunction,SMDPad,CuDef*
%ADD22R,0.450000X0.800000*%
G04 #@! TD*
G04 #@! TA.AperFunction,SMDPad,CuDef*
%ADD23R,1.300000X1.500000*%
G04 #@! TD*
G04 #@! TA.AperFunction,ViaPad*
%ADD24C,0.600000*%
G04 #@! TD*
G04 #@! TA.AperFunction,Conductor*
%ADD25C,0.152400*%
G04 #@! TD*
G04 APERTURE END LIST*
D10*
X180539998Y-76340000D03*
X181489999Y-76340000D03*
X182440000Y-76340000D03*
X182440000Y-78930800D03*
X180539998Y-78930800D03*
D11*
X176329998Y-76170000D03*
X177279999Y-76170000D03*
X178230000Y-76170000D03*
X178230000Y-78875100D03*
X176329998Y-78875100D03*
D12*
X174560000Y-70740000D03*
D13*
X187550000Y-80050000D03*
D14*
X187550000Y-81320000D03*
X187550000Y-82590000D03*
X187550000Y-83860000D03*
D12*
X185090000Y-70960000D03*
D13*
X173740000Y-79980000D03*
D14*
X173740000Y-81250000D03*
X173740000Y-82520000D03*
X173740000Y-83790000D03*
D15*
X178420000Y-70830000D03*
D16*
X180960000Y-70830000D03*
D17*
X176285000Y-81540000D03*
X178010000Y-81540000D03*
D18*
X175550000Y-87942500D03*
X175550000Y-86117500D03*
D19*
X182190000Y-81620000D03*
X180465000Y-81620000D03*
D17*
X181565000Y-74020000D03*
X183290000Y-74020000D03*
D20*
X176250000Y-83530000D03*
X178075000Y-83530000D03*
D21*
X182110000Y-83520000D03*
X180285000Y-83520000D03*
D22*
X179420000Y-86550000D03*
X179420000Y-85470000D03*
X181840000Y-85470000D03*
X181840000Y-86550000D03*
D23*
X180630000Y-86010000D03*
D17*
X176325000Y-73960000D03*
X178050000Y-73960000D03*
D24*
X186660000Y-73720000D03*
X179100000Y-82640000D03*
X178440000Y-85350000D03*
X177400000Y-87900000D03*
D25*
X179080000Y-83520000D02*
X178085000Y-83520000D01*
X177330000Y-85130000D02*
X177960000Y-84500000D01*
X177330000Y-86060000D02*
X177330000Y-85130000D01*
X180285000Y-83520000D02*
X179080000Y-83520000D01*
X179080000Y-82660000D02*
X179100000Y-82640000D01*
X179080000Y-83520000D02*
X179080000Y-82660000D01*
X177960000Y-83645000D02*
X178075000Y-83530000D01*
X178085000Y-83520000D02*
X178075000Y-83530000D01*
X177960000Y-84500000D02*
X177960000Y-83645000D01*
X179420000Y-86550000D02*
X177820000Y-86550000D01*
X177820000Y-86550000D02*
X177330000Y-86060000D01*
X176250000Y-81575000D02*
X176285000Y-81540000D01*
X176250000Y-83530000D02*
X176250000Y-81575000D01*
X176250000Y-84690000D02*
X176250000Y-83530000D01*
X176285000Y-78920098D02*
X176329998Y-78875100D01*
X175550000Y-86117500D02*
X175550000Y-85390000D01*
X175550000Y-85390000D02*
X176250000Y-84690000D01*
X176285000Y-81540000D02*
X176285000Y-78920098D01*
X182440000Y-75410000D02*
X181565000Y-74535000D01*
X178230000Y-76170000D02*
X180369998Y-76170000D01*
X180539998Y-74069998D02*
X180190000Y-73720000D01*
X177510000Y-70830000D02*
X178420000Y-70830000D01*
X181565000Y-74020000D02*
X180490000Y-74020000D01*
X176329998Y-73964998D02*
X176325000Y-73960000D01*
X176325000Y-72015000D02*
X177510000Y-70830000D01*
X180539998Y-76340000D02*
X180539998Y-74069998D01*
X180190000Y-73720000D02*
X178420000Y-71950000D01*
X180369998Y-76170000D02*
X180539998Y-76340000D01*
X181565000Y-74025000D02*
X181565000Y-74020000D01*
X181565000Y-74535000D02*
X181565000Y-74020000D01*
X176325000Y-73960000D02*
X176325000Y-72015000D01*
X178460000Y-70830000D02*
X178420000Y-70830000D01*
X182440000Y-76340000D02*
X182440000Y-75410000D01*
X176329998Y-76170000D02*
X176329998Y-73964998D01*
X178420000Y-71950000D02*
X178420000Y-70830000D01*
X180490000Y-74020000D02*
X180190000Y-73720000D01*
X178560000Y-85470000D02*
X178440000Y-85350000D01*
X177400000Y-87900000D02*
X177357500Y-87942500D01*
X179420000Y-85470000D02*
X178560000Y-85470000D01*
X177357500Y-87942500D02*
X175550000Y-87942500D01*
X181840000Y-85470000D02*
X181840000Y-86550000D01*
X177279999Y-76170000D02*
X177320000Y-76129999D01*
X177320000Y-76129999D02*
X177320000Y-75420000D01*
X178050000Y-74690000D02*
X178050000Y-73960000D01*
X177320000Y-75420000D02*
X178050000Y-74690000D01*
X178120000Y-81650000D02*
X178010000Y-81540000D01*
X181570000Y-80300000D02*
X180900000Y-80300000D01*
X186470000Y-80050000D02*
X187550000Y-80050000D01*
X183310000Y-81620000D02*
X184120000Y-80810000D01*
X182110000Y-83520000D02*
X182110000Y-81700000D01*
X180900000Y-80300000D02*
X180539998Y-79939998D01*
X182190000Y-81620000D02*
X183310000Y-81620000D01*
X180539998Y-79939998D02*
X180539998Y-78930800D01*
X182110000Y-81760000D02*
X182000000Y-81650000D01*
X185710000Y-80810000D02*
X186470000Y-80050000D01*
X182190000Y-80920000D02*
X181570000Y-80300000D01*
X184120000Y-80810000D02*
X185710000Y-80810000D01*
X182110000Y-81700000D02*
X182190000Y-81620000D01*
X182190000Y-81620000D02*
X182190000Y-80920000D01*
G04 #@! TA.AperFunction,Conductor*
G36*
X173861049Y-69285185D02*
G01*
X173906804Y-69337989D01*
X173916748Y-69407147D01*
X173887723Y-69470703D01*
X173853029Y-69498554D01*
X173834693Y-69508477D01*
X173776114Y-69540178D01*
X173776108Y-69540182D01*
X173589329Y-69685558D01*
X173589326Y-69685561D01*
X173429003Y-69859718D01*
X173299543Y-70057873D01*
X173204458Y-70274644D01*
X173146351Y-70504107D01*
X173126805Y-70739994D01*
X173126805Y-70740005D01*
X173146351Y-70975892D01*
X173146351Y-70975895D01*
X173146352Y-70975896D01*
X173204459Y-71205358D01*
X173211562Y-71221550D01*
X173299543Y-71422126D01*
X173429003Y-71620281D01*
X173429006Y-71620285D01*
X173429008Y-71620287D01*
X173589323Y-71794436D01*
X173589326Y-71794438D01*
X173589329Y-71794441D01*
X173776108Y-71939817D01*
X173776114Y-71939821D01*
X173776117Y-71939823D01*
X173984292Y-72052482D01*
X174208171Y-72129340D01*
X174441648Y-72168300D01*
X174678352Y-72168300D01*
X174911829Y-72129340D01*
X175135708Y-72052482D01*
X175343883Y-71939823D01*
X175344986Y-71938965D01*
X175432514Y-71870839D01*
X175530677Y-71794436D01*
X175690992Y-71620287D01*
X175699297Y-71607576D01*
X175820456Y-71422126D01*
X175820457Y-71422125D01*
X175915541Y-71205358D01*
X175973648Y-70975896D01*
X175993195Y-70740000D01*
X175989752Y-70698454D01*
X175973648Y-70504107D01*
X175973648Y-70504104D01*
X175915541Y-70274642D01*
X175820457Y-70057875D01*
X175820456Y-70057873D01*
X175690996Y-69859718D01*
X175690993Y-69859715D01*
X175690992Y-69859713D01*
X175530677Y-69685564D01*
X175530672Y-69685560D01*
X175530670Y-69685558D01*
X175343891Y-69540182D01*
X175343885Y-69540178D01*
X175286781Y-69509275D01*
X175266971Y-69498554D01*
X175217382Y-69449335D01*
X175202274Y-69381119D01*
X175226444Y-69315563D01*
X175282220Y-69273482D01*
X175325990Y-69265500D01*
X180640919Y-69265500D01*
X180707958Y-69285185D01*
X180753713Y-69337989D01*
X180763657Y-69407147D01*
X180734632Y-69470703D01*
X180675854Y-69508477D01*
X180673012Y-69509275D01*
X180496516Y-69556566D01*
X180496507Y-69556570D01*
X180282422Y-69656399D01*
X180282420Y-69656400D01*
X180088926Y-69791886D01*
X180088920Y-69791891D01*
X179921891Y-69958920D01*
X179921886Y-69958926D01*
X179786400Y-70152420D01*
X179786399Y-70152422D01*
X179684681Y-70370557D01*
X179638508Y-70422996D01*
X179571315Y-70442148D01*
X179504434Y-70421932D01*
X179459099Y-70368767D01*
X179448299Y-70318152D01*
X179448299Y-69962441D01*
X179448298Y-69962434D01*
X179437955Y-69910431D01*
X179398547Y-69851453D01*
X179339569Y-69812045D01*
X179339568Y-69812044D01*
X179339567Y-69812044D01*
X179339566Y-69812043D01*
X179287563Y-69801700D01*
X177552441Y-69801700D01*
X177500430Y-69812045D01*
X177461022Y-69838377D01*
X177441455Y-69851452D01*
X177441452Y-69851454D01*
X177402044Y-69910432D01*
X177402043Y-69910433D01*
X177391700Y-69962434D01*
X177391700Y-70537019D01*
X177372015Y-70604058D01*
X177355382Y-70624700D01*
X177294245Y-70685837D01*
X177294244Y-70685838D01*
X176731947Y-71248135D01*
X176163396Y-71816685D01*
X176163395Y-71816685D01*
X176163396Y-71816686D01*
X176109242Y-71870839D01*
X176070501Y-71964373D01*
X176070500Y-71964378D01*
X176070500Y-73188404D01*
X176050815Y-73255443D01*
X175998011Y-73301198D01*
X175965898Y-73310877D01*
X175894912Y-73322119D01*
X175837394Y-73351426D01*
X175777552Y-73381918D01*
X175777551Y-73381919D01*
X175777546Y-73381922D01*
X175684422Y-73475046D01*
X175684415Y-73475055D01*
X175624621Y-73592406D01*
X175624619Y-73592411D01*
X175609200Y-73689769D01*
X175609200Y-74230223D01*
X175615500Y-74270000D01*
X175624621Y-74327591D01*
X175684418Y-74444948D01*
X175684420Y-74444950D01*
X175684422Y-74444953D01*
X175777546Y-74538077D01*
X175777555Y-74538084D01*
X175894906Y-74597878D01*
X175894907Y-74597878D01*
X175894909Y-74597879D01*
X175970897Y-74609914D01*
X176034030Y-74639842D01*
X176070962Y-74699154D01*
X176075498Y-74732387D01*
X176075498Y-75388931D01*
X176055813Y-75455970D01*
X176015041Y-75491298D01*
X176016585Y-75493609D01*
X176006429Y-75500394D01*
X176006429Y-75500395D01*
X175947453Y-75539802D01*
X175947450Y-75539804D01*
X175908042Y-75598782D01*
X175908041Y-75598783D01*
X175897698Y-75650784D01*
X175897698Y-76689208D01*
X175908042Y-76741216D01*
X175908043Y-76741219D01*
X175947451Y-76800197D01*
X176006429Y-76839605D01*
X176006430Y-76839605D01*
X176006431Y-76839606D01*
X176037576Y-76845800D01*
X176058437Y-76849950D01*
X176474241Y-76849949D01*
X176541280Y-76869633D01*
X176576393Y-76907341D01*
X176577332Y-76906639D01*
X176668812Y-77028840D01*
X176783905Y-77115000D01*
X176783912Y-77115004D01*
X176918619Y-77165246D01*
X176918626Y-77165248D01*
X176978154Y-77171649D01*
X176978171Y-77171650D01*
X177029999Y-77171650D01*
X177029999Y-75168350D01*
X176978154Y-75168350D01*
X176918626Y-75174751D01*
X176918619Y-75174753D01*
X176783912Y-75224995D01*
X176783906Y-75224998D01*
X176782807Y-75225822D01*
X176781520Y-75226301D01*
X176776127Y-75229247D01*
X176775703Y-75228471D01*
X176717342Y-75250238D01*
X176649069Y-75235385D01*
X176599665Y-75185979D01*
X176584498Y-75126554D01*
X176584498Y-74730803D01*
X176604183Y-74663764D01*
X176656987Y-74618009D01*
X176689097Y-74608330D01*
X176755091Y-74597879D01*
X176872448Y-74538082D01*
X176898318Y-74512211D01*
X176959639Y-74478727D01*
X177029331Y-74483711D01*
X177085265Y-74525581D01*
X177091537Y-74534796D01*
X177167552Y-74658034D01*
X177167555Y-74658038D01*
X177289461Y-74779944D01*
X177289465Y-74779947D01*
X177436188Y-74870448D01*
X177436199Y-74870453D01*
X177605772Y-74926644D01*
X177634441Y-74946493D01*
X177691436Y-74934095D01*
X177695205Y-74934422D01*
X177700856Y-74934999D01*
X177700857Y-74934999D01*
X177800000Y-74934998D01*
X177800000Y-74210000D01*
X178300000Y-74210000D01*
X178300000Y-74934999D01*
X178399140Y-74934999D01*
X178399154Y-74934998D01*
X178500152Y-74924680D01*
X178663800Y-74870453D01*
X178663811Y-74870448D01*
X178810534Y-74779947D01*
X178810538Y-74779944D01*
X178932444Y-74658038D01*
X178932447Y-74658034D01*
X179022948Y-74511311D01*
X179022953Y-74511300D01*
X179077180Y-74347652D01*
X179087499Y-74246654D01*
X179087500Y-74246641D01*
X179087500Y-74210000D01*
X178300000Y-74210000D01*
X177800000Y-74210000D01*
X177800000Y-72985000D01*
X178300000Y-72985000D01*
X178300000Y-73710000D01*
X179087499Y-73710000D01*
X179087499Y-73673360D01*
X179087498Y-73673345D01*
X179077180Y-73572347D01*
X179022953Y-73408699D01*
X179022948Y-73408688D01*
X178932447Y-73261965D01*
X178932444Y-73261961D01*
X178810538Y-73140055D01*
X178810534Y-73140052D01*
X178663811Y-73049551D01*
X178663800Y-73049546D01*
X178500152Y-72995319D01*
X178399154Y-72985000D01*
X178300000Y-72985000D01*
X177800000Y-72985000D01*
X177800000Y-72984999D01*
X177700860Y-72985000D01*
X177700844Y-72985001D01*
X177599847Y-72995319D01*
X177436199Y-73049546D01*
X177436188Y-73049551D01*
X177289465Y-73140052D01*
X177289461Y-73140055D01*
X177167554Y-73261962D01*
X177091537Y-73385204D01*
X177039589Y-73431928D01*
X176970626Y-73443149D01*
X176906544Y-73415305D01*
X176898318Y-73407787D01*
X176872453Y-73381922D01*
X176872444Y-73381915D01*
X176755093Y-73322121D01*
X176755088Y-73322120D01*
X176684101Y-73310876D01*
X176620967Y-73280946D01*
X176584036Y-73221634D01*
X176579500Y-73188403D01*
X176579500Y-72171778D01*
X176599185Y-72104739D01*
X176615815Y-72084101D01*
X177180021Y-71519894D01*
X177241342Y-71486411D01*
X177311033Y-71491395D01*
X177366967Y-71533266D01*
X177391384Y-71598731D01*
X177391700Y-71607576D01*
X177391700Y-71697557D01*
X177399496Y-71736751D01*
X177402045Y-71749569D01*
X177441453Y-71808547D01*
X177500431Y-71847955D01*
X177500432Y-71847955D01*
X177500433Y-71847956D01*
X177531578Y-71854150D01*
X177552439Y-71858300D01*
X178041500Y-71858299D01*
X178108539Y-71877983D01*
X178154294Y-71930787D01*
X178165500Y-71982299D01*
X178165500Y-72000621D01*
X178165501Y-72000626D01*
X178204242Y-72094160D01*
X180249179Y-74139097D01*
X180282664Y-74200420D01*
X180285498Y-74226778D01*
X180285498Y-75400181D01*
X180265813Y-75467220D01*
X180225041Y-75502548D01*
X180226585Y-75504859D01*
X180216429Y-75511644D01*
X180216429Y-75511645D01*
X180157453Y-75551052D01*
X180157450Y-75551054D01*
X180118042Y-75610032D01*
X180118041Y-75610033D01*
X180107698Y-75662034D01*
X180107698Y-75791500D01*
X180088013Y-75858539D01*
X180035209Y-75904294D01*
X179983698Y-75915500D01*
X178786299Y-75915500D01*
X178719260Y-75895815D01*
X178673505Y-75843011D01*
X178662299Y-75791500D01*
X178662299Y-75650791D01*
X178662298Y-75650784D01*
X178651955Y-75598781D01*
X178612547Y-75539803D01*
X178553569Y-75500395D01*
X178553568Y-75500394D01*
X178553567Y-75500394D01*
X178553566Y-75500393D01*
X178501565Y-75490050D01*
X178085756Y-75490050D01*
X178018717Y-75470365D01*
X177983609Y-75432656D01*
X177982668Y-75433361D01*
X177891189Y-75311162D01*
X177891186Y-75311159D01*
X177776092Y-75224999D01*
X177776087Y-75224996D01*
X177639256Y-75173961D01*
X177614297Y-75155276D01*
X177566768Y-75168350D01*
X177529999Y-75168350D01*
X177529999Y-77171650D01*
X177581827Y-77171650D01*
X177581843Y-77171649D01*
X177641371Y-77165248D01*
X177641378Y-77165246D01*
X177776085Y-77115004D01*
X177776092Y-77115000D01*
X177891186Y-77028840D01*
X177891189Y-77028837D01*
X177982668Y-76906639D01*
X177983891Y-76907554D01*
X178026332Y-76865116D01*
X178085754Y-76849949D01*
X178501560Y-76849949D01*
X178553569Y-76839605D01*
X178612547Y-76800197D01*
X178651955Y-76741219D01*
X178662300Y-76689211D01*
X178662300Y-76548500D01*
X178681985Y-76481461D01*
X178734789Y-76435706D01*
X178786300Y-76424500D01*
X179983699Y-76424500D01*
X180050738Y-76444185D01*
X180096493Y-76496989D01*
X180107699Y-76548500D01*
X180107699Y-77017960D01*
X180118043Y-77069969D01*
X180157451Y-77128947D01*
X180216429Y-77168355D01*
X180216430Y-77168355D01*
X180216431Y-77168356D01*
X180247576Y-77174550D01*
X180268437Y-77178700D01*
X180684241Y-77178699D01*
X180751280Y-77198383D01*
X180786393Y-77236091D01*
X180787332Y-77235389D01*
X180878812Y-77357590D01*
X180993905Y-77443750D01*
X180993912Y-77443754D01*
X181128619Y-77493996D01*
X181128626Y-77493998D01*
X181188154Y-77500399D01*
X181188171Y-77500400D01*
X181239999Y-77500400D01*
X181239999Y-75179600D01*
X181188154Y-75179600D01*
X181128626Y-75186001D01*
X181128619Y-75186003D01*
X180993912Y-75236245D01*
X180993906Y-75236248D01*
X180992807Y-75237072D01*
X180991520Y-75237551D01*
X180986127Y-75240497D01*
X180985703Y-75239721D01*
X180927342Y-75261488D01*
X180859069Y-75246635D01*
X180809665Y-75197229D01*
X180794498Y-75137804D01*
X180794498Y-74674391D01*
X180814183Y-74607352D01*
X180866987Y-74561597D01*
X180936145Y-74551653D01*
X180999701Y-74580678D01*
X181006179Y-74586710D01*
X181017546Y-74598077D01*
X181017555Y-74598084D01*
X181134906Y-74657878D01*
X181134911Y-74657880D01*
X181209540Y-74669699D01*
X181232275Y-74673300D01*
X181292017Y-74673299D01*
X181359056Y-74692983D01*
X181379699Y-74709618D01*
X181707159Y-75037077D01*
X181740644Y-75098400D01*
X181738510Y-75128238D01*
X181739999Y-75128238D01*
X181739999Y-77500400D01*
X181791827Y-77500400D01*
X181791843Y-77500399D01*
X181851371Y-77493998D01*
X181851378Y-77493996D01*
X181986085Y-77443754D01*
X181986092Y-77443750D01*
X182101186Y-77357590D01*
X182101189Y-77357587D01*
X182192668Y-77235389D01*
X182193891Y-77236304D01*
X182236332Y-77193866D01*
X182295754Y-77178699D01*
X182711560Y-77178699D01*
X182763569Y-77168355D01*
X182822547Y-77128947D01*
X182861955Y-77069969D01*
X182872300Y-77017961D01*
X182872299Y-75662040D01*
X182861955Y-75610031D01*
X182822547Y-75551053D01*
X182763569Y-75511645D01*
X182763568Y-75511644D01*
X182753414Y-75504860D01*
X182755292Y-75502047D01*
X182716640Y-75470894D01*
X182694580Y-75404599D01*
X182694501Y-75400182D01*
X182694501Y-75359378D01*
X182694501Y-75359377D01*
X182655755Y-75265837D01*
X182497769Y-75107851D01*
X182464284Y-75046528D01*
X182469268Y-74976836D01*
X182511140Y-74920903D01*
X182576604Y-74896486D01*
X182644877Y-74911338D01*
X182650548Y-74914632D01*
X182676192Y-74930450D01*
X182676199Y-74930453D01*
X182839847Y-74984680D01*
X182940851Y-74994999D01*
X183040000Y-74994998D01*
X183040000Y-74270000D01*
X183540000Y-74270000D01*
X183540000Y-74994999D01*
X183639140Y-74994999D01*
X183639154Y-74994998D01*
X183740152Y-74984680D01*
X183903800Y-74930453D01*
X183903811Y-74930448D01*
X184050534Y-74839947D01*
X184050538Y-74839944D01*
X184172444Y-74718038D01*
X184172447Y-74718034D01*
X184262948Y-74571311D01*
X184262953Y-74571300D01*
X184317180Y-74407652D01*
X184327499Y-74306654D01*
X184327500Y-74306641D01*
X184327500Y-74270000D01*
X183540000Y-74270000D01*
X183040000Y-74270000D01*
X183040000Y-73045000D01*
X183540000Y-73045000D01*
X183540000Y-73770000D01*
X184327499Y-73770000D01*
X184327499Y-73733360D01*
X184327498Y-73733345D01*
X184317180Y-73632347D01*
X184262953Y-73468699D01*
X184262948Y-73468688D01*
X184172447Y-73321965D01*
X184172444Y-73321961D01*
X184050538Y-73200055D01*
X184050534Y-73200052D01*
X183903811Y-73109551D01*
X183903800Y-73109546D01*
X183740152Y-73055319D01*
X183639154Y-73045000D01*
X183540000Y-73045000D01*
X183040000Y-73045000D01*
X183040000Y-73044999D01*
X182940860Y-73045000D01*
X182940844Y-73045001D01*
X182839847Y-73055319D01*
X182676199Y-73109546D01*
X182676188Y-73109551D01*
X182529465Y-73200052D01*
X182529461Y-73200055D01*
X182407554Y-73321962D01*
X182331537Y-73445204D01*
X182279589Y-73491928D01*
X182210626Y-73503149D01*
X182146544Y-73475305D01*
X182138318Y-73467787D01*
X182112453Y-73441922D01*
X182112444Y-73441915D01*
X181995093Y-73382121D01*
X181995088Y-73382119D01*
X181897730Y-73366700D01*
X181232276Y-73366700D01*
X181148221Y-73380012D01*
X181134909Y-73382121D01*
X181017552Y-73441918D01*
X181017551Y-73441919D01*
X181017546Y-73441922D01*
X180924422Y-73535046D01*
X180924415Y-73535055D01*
X180864621Y-73652406D01*
X180863277Y-73660897D01*
X180833348Y-73724032D01*
X180774037Y-73760964D01*
X180740803Y-73765500D01*
X180646780Y-73765500D01*
X180579741Y-73745815D01*
X180559099Y-73729181D01*
X178899898Y-72069980D01*
X178866413Y-72008657D01*
X178871397Y-71938965D01*
X178913269Y-71883032D01*
X178978733Y-71858615D01*
X178987579Y-71858299D01*
X179287558Y-71858299D01*
X179287560Y-71858299D01*
X179339569Y-71847955D01*
X179398547Y-71808547D01*
X179437955Y-71749569D01*
X179448300Y-71697561D01*
X179448299Y-71341845D01*
X179467983Y-71274809D01*
X179520787Y-71229054D01*
X179589946Y-71219110D01*
X179653501Y-71248135D01*
X179684681Y-71289443D01*
X179786399Y-71507578D01*
X179921894Y-71701082D01*
X180088917Y-71868105D01*
X180282421Y-72003600D01*
X180496507Y-72103429D01*
X180496516Y-72103433D01*
X180710000Y-72160634D01*
X180710000Y-71263012D01*
X180767007Y-71295925D01*
X180894174Y-71330000D01*
X181025826Y-71330000D01*
X181152993Y-71295925D01*
X181210000Y-71263012D01*
X181210000Y-72160633D01*
X181423483Y-72103433D01*
X181423492Y-72103429D01*
X181637578Y-72003600D01*
X181831082Y-71868105D01*
X181998105Y-71701082D01*
X182133600Y-71507578D01*
X182233429Y-71293492D01*
X182233432Y-71293486D01*
X182290636Y-71080000D01*
X181393012Y-71080000D01*
X181425925Y-71022993D01*
X181460000Y-70895826D01*
X181460000Y-70764174D01*
X181425925Y-70637007D01*
X181393012Y-70580000D01*
X182290636Y-70580000D01*
X182290635Y-70579999D01*
X182233432Y-70366513D01*
X182233429Y-70366507D01*
X182133600Y-70152422D01*
X182133599Y-70152420D01*
X181998113Y-69958926D01*
X181998108Y-69958920D01*
X181831082Y-69791894D01*
X181637578Y-69656399D01*
X181423492Y-69556570D01*
X181423483Y-69556566D01*
X181246988Y-69509275D01*
X181187327Y-69472910D01*
X181156798Y-69410063D01*
X181165093Y-69340687D01*
X181209578Y-69286810D01*
X181276130Y-69265535D01*
X181279081Y-69265500D01*
X184066793Y-69265500D01*
X184133832Y-69285185D01*
X184179587Y-69337989D01*
X184189531Y-69407147D01*
X184160506Y-69470703D01*
X184136644Y-69491954D01*
X184040830Y-69557277D01*
X184580979Y-70097426D01*
X184452537Y-70183249D01*
X184313249Y-70322537D01*
X184227426Y-70450979D01*
X183687874Y-69911427D01*
X183640028Y-69971425D01*
X183508883Y-70198573D01*
X183413058Y-70442729D01*
X183354693Y-70698449D01*
X183354692Y-70698454D01*
X183335093Y-70959995D01*
X183335093Y-70960004D01*
X183354692Y-71221545D01*
X183354693Y-71221550D01*
X183413058Y-71477270D01*
X183508883Y-71721426D01*
X183508882Y-71721426D01*
X183640027Y-71948573D01*
X183687874Y-72008571D01*
X184227425Y-71469020D01*
X184313249Y-71597463D01*
X184452537Y-71736751D01*
X184580978Y-71822573D01*
X184040830Y-72362720D01*
X184212546Y-72479793D01*
X184212550Y-72479795D01*
X184448854Y-72593594D01*
X184448858Y-72593595D01*
X184699494Y-72670907D01*
X184699500Y-72670909D01*
X184958848Y-72709999D01*
X184958857Y-72710000D01*
X185221143Y-72710000D01*
X185221151Y-72709999D01*
X185480499Y-72670909D01*
X185480505Y-72670907D01*
X185731143Y-72593595D01*
X185967445Y-72479798D01*
X185967447Y-72479797D01*
X186139168Y-72362720D01*
X185599020Y-71822573D01*
X185727463Y-71736751D01*
X185866751Y-71597463D01*
X185952573Y-71469020D01*
X186492125Y-72008572D01*
X186539971Y-71948573D01*
X186671116Y-71721426D01*
X186766941Y-71477270D01*
X186825306Y-71221550D01*
X186825307Y-71221545D01*
X186844907Y-70960004D01*
X186844907Y-70959995D01*
X186825307Y-70698454D01*
X186825306Y-70698449D01*
X186766941Y-70442729D01*
X186671116Y-70198573D01*
X186671117Y-70198573D01*
X186539972Y-69971426D01*
X186492124Y-69911427D01*
X185952573Y-70450978D01*
X185866751Y-70322537D01*
X185727463Y-70183249D01*
X185599020Y-70097426D01*
X186139168Y-69557278D01*
X186043355Y-69491954D01*
X185999053Y-69437925D01*
X185990993Y-69368522D01*
X186021736Y-69305779D01*
X186081520Y-69269617D01*
X186113206Y-69265500D01*
X188765500Y-69265500D01*
X188832539Y-69285185D01*
X188878294Y-69337989D01*
X188889500Y-69389500D01*
X188889500Y-88585500D01*
X188869815Y-88652539D01*
X188817011Y-88698294D01*
X188765500Y-88709500D01*
X176157893Y-88709500D01*
X176090854Y-88689815D01*
X176045099Y-88637011D01*
X176035155Y-88567853D01*
X176064180Y-88504297D01*
X176070212Y-88497819D01*
X176128077Y-88439953D01*
X176128082Y-88439948D01*
X176187879Y-88322591D01*
X176187879Y-88322590D01*
X176187880Y-88322588D01*
X176191204Y-88301602D01*
X176221133Y-88238467D01*
X176280445Y-88201536D01*
X176313677Y-88197000D01*
X176872856Y-88197000D01*
X176939895Y-88216685D01*
X176971231Y-88245513D01*
X177007376Y-88292618D01*
X177007377Y-88292619D01*
X177007379Y-88292621D01*
X177122375Y-88380861D01*
X177256291Y-88436330D01*
X177383280Y-88453048D01*
X177399999Y-88455250D01*
X177400000Y-88455250D01*
X177400001Y-88455250D01*
X177414977Y-88453278D01*
X177543709Y-88436330D01*
X177677625Y-88380861D01*
X177792621Y-88292621D01*
X177880861Y-88177625D01*
X177936330Y-88043709D01*
X177955250Y-87900000D01*
X177936330Y-87756291D01*
X177880861Y-87622375D01*
X177792621Y-87507379D01*
X177677625Y-87419139D01*
X177677624Y-87419138D01*
X177677622Y-87419137D01*
X177543712Y-87363671D01*
X177543710Y-87363670D01*
X177543709Y-87363670D01*
X177454453Y-87351919D01*
X177400001Y-87344750D01*
X177399999Y-87344750D01*
X177256291Y-87363670D01*
X177256287Y-87363671D01*
X177122377Y-87419137D01*
X177082156Y-87450000D01*
X177007379Y-87507379D01*
X177007378Y-87507380D01*
X177007377Y-87507381D01*
X176919138Y-87622374D01*
X176917047Y-87625998D01*
X176914481Y-87628444D01*
X176914190Y-87628824D01*
X176914130Y-87628778D01*
X176866481Y-87674214D01*
X176809659Y-87688000D01*
X176313677Y-87688000D01*
X176246638Y-87668315D01*
X176200883Y-87615511D01*
X176191204Y-87583398D01*
X176187880Y-87562413D01*
X176187880Y-87562412D01*
X176187879Y-87562410D01*
X176187879Y-87562409D01*
X176128082Y-87445052D01*
X176128078Y-87445048D01*
X176128077Y-87445046D01*
X176034953Y-87351922D01*
X176034944Y-87351915D01*
X175917593Y-87292121D01*
X175917588Y-87292119D01*
X175820230Y-87276700D01*
X175279776Y-87276700D01*
X175195721Y-87290012D01*
X175182409Y-87292121D01*
X175065052Y-87351918D01*
X175065051Y-87351919D01*
X175065046Y-87351922D01*
X174971922Y-87445046D01*
X174971915Y-87445055D01*
X174912121Y-87562406D01*
X174912119Y-87562411D01*
X174896700Y-87659769D01*
X174896700Y-88225223D01*
X174898798Y-88238467D01*
X174912121Y-88322591D01*
X174971918Y-88439948D01*
X174971920Y-88439950D01*
X174971922Y-88439953D01*
X175029788Y-88497819D01*
X175063273Y-88559142D01*
X175058289Y-88628834D01*
X175016417Y-88684767D01*
X174950953Y-88709184D01*
X174942107Y-88709500D01*
X172004500Y-88709500D01*
X171937461Y-88689815D01*
X171891706Y-88637011D01*
X171880500Y-88585500D01*
X171880500Y-86400223D01*
X174896700Y-86400223D01*
X174907904Y-86470965D01*
X174912121Y-86497591D01*
X174971918Y-86614948D01*
X174971920Y-86614950D01*
X174971922Y-86614953D01*
X175065046Y-86708077D01*
X175065055Y-86708084D01*
X175182406Y-86767878D01*
X175182411Y-86767880D01*
X175279769Y-86783299D01*
X175279775Y-86783300D01*
X175820224Y-86783299D01*
X175917591Y-86767879D01*
X176034948Y-86708082D01*
X176128082Y-86614948D01*
X176187879Y-86497591D01*
X176187879Y-86497590D01*
X176187880Y-86497588D01*
X176203299Y-86400230D01*
X176203300Y-86400225D01*
X176203299Y-86110621D01*
X177075500Y-86110621D01*
X177075501Y-86110626D01*
X177114242Y-86204160D01*
X177114245Y-86204163D01*
X177675837Y-86765755D01*
X177769377Y-86804501D01*
X177769378Y-86804501D01*
X177885057Y-86804501D01*
X177885065Y-86804500D01*
X178892701Y-86804500D01*
X178959740Y-86824185D01*
X179005495Y-86876989D01*
X179016701Y-86928500D01*
X179016701Y-86967560D01*
X179027045Y-87019569D01*
X179066453Y-87078547D01*
X179125431Y-87117955D01*
X179125432Y-87117955D01*
X179125433Y-87117956D01*
X179156578Y-87124150D01*
X179177439Y-87128300D01*
X179662560Y-87128299D01*
X179714569Y-87117955D01*
X179773547Y-87078547D01*
X179812955Y-87019569D01*
X179812956Y-87019561D01*
X179816489Y-87011035D01*
X179860330Y-86956631D01*
X179926624Y-86934565D01*
X179955238Y-86936867D01*
X179962439Y-86938300D01*
X180997216Y-86938299D01*
X181064255Y-86957983D01*
X181110010Y-87010787D01*
X181120505Y-87049036D01*
X181121402Y-87057375D01*
X181121403Y-87057379D01*
X181171645Y-87192086D01*
X181171649Y-87192093D01*
X181257809Y-87307187D01*
X181257812Y-87307190D01*
X181372906Y-87393350D01*
X181372913Y-87393354D01*
X181507620Y-87443596D01*
X181507627Y-87443598D01*
X181567155Y-87449999D01*
X181567172Y-87450000D01*
X181615000Y-87450000D01*
X181615000Y-86775000D01*
X182065000Y-86775000D01*
X182065000Y-87450000D01*
X182112828Y-87450000D01*
X182112844Y-87449999D01*
X182172372Y-87443598D01*
X182172379Y-87443596D01*
X182307086Y-87393354D01*
X182307093Y-87393350D01*
X182422187Y-87307190D01*
X182422190Y-87307187D01*
X182508350Y-87192093D01*
X182508354Y-87192086D01*
X182558596Y-87057379D01*
X182558598Y-87057372D01*
X182564999Y-86997844D01*
X182565000Y-86997827D01*
X182565000Y-86775000D01*
X182065000Y-86775000D01*
X181615000Y-86775000D01*
X181615000Y-85695000D01*
X182065000Y-85695000D01*
X182065000Y-86325000D01*
X182565000Y-86325000D01*
X182565000Y-86102172D01*
X182564999Y-86102155D01*
X182558598Y-86042630D01*
X182557628Y-86038523D01*
X182557628Y-85981477D01*
X182558598Y-85977369D01*
X182564999Y-85917844D01*
X182565000Y-85917827D01*
X182565000Y-85695000D01*
X182065000Y-85695000D01*
X181615000Y-85695000D01*
X181615000Y-84570000D01*
X182065000Y-84570000D01*
X182065000Y-85245000D01*
X182565000Y-85245000D01*
X182565000Y-85022172D01*
X182564999Y-85022155D01*
X182558598Y-84962627D01*
X182558596Y-84962620D01*
X182508354Y-84827913D01*
X182508350Y-84827906D01*
X182422190Y-84712812D01*
X182422187Y-84712809D01*
X182307093Y-84626649D01*
X182307086Y-84626645D01*
X182172379Y-84576403D01*
X182172372Y-84576401D01*
X182112844Y-84570000D01*
X182065000Y-84570000D01*
X181615000Y-84570000D01*
X181567155Y-84570000D01*
X181507627Y-84576401D01*
X181507620Y-84576403D01*
X181372913Y-84626645D01*
X181372906Y-84626649D01*
X181257812Y-84712809D01*
X181257809Y-84712812D01*
X181171649Y-84827906D01*
X181171645Y-84827913D01*
X181121403Y-84962620D01*
X181121401Y-84962626D01*
X181120506Y-84970957D01*
X181093768Y-85035507D01*
X181036375Y-85075355D01*
X180997217Y-85081700D01*
X179962442Y-85081700D01*
X179957073Y-85082768D01*
X179955235Y-85083133D01*
X179885645Y-85076903D01*
X179830470Y-85034037D01*
X179816486Y-85008959D01*
X179812955Y-85000434D01*
X179812955Y-85000431D01*
X179773547Y-84941453D01*
X179714569Y-84902045D01*
X179714568Y-84902044D01*
X179714567Y-84902044D01*
X179714566Y-84902043D01*
X179662563Y-84891700D01*
X179177441Y-84891700D01*
X179125430Y-84902045D01*
X179107172Y-84914245D01*
X179066455Y-84941452D01*
X179066452Y-84941454D01*
X179048059Y-84968981D01*
X178994446Y-85013785D01*
X178925121Y-85022491D01*
X178862094Y-84992335D01*
X178846585Y-84975577D01*
X178832621Y-84957379D01*
X178717625Y-84869139D01*
X178717624Y-84869138D01*
X178717622Y-84869137D01*
X178583712Y-84813671D01*
X178583710Y-84813670D01*
X178583709Y-84813670D01*
X178490754Y-84801432D01*
X178440001Y-84794750D01*
X178439998Y-84794750D01*
X178307477Y-84812197D01*
X178238442Y-84801432D01*
X178186186Y-84755052D01*
X178167301Y-84687783D01*
X178176731Y-84641805D01*
X178200054Y-84585500D01*
X178200435Y-84584582D01*
X178204285Y-84575285D01*
X178214501Y-84550623D01*
X178214501Y-84449376D01*
X178214501Y-84439387D01*
X178214500Y-84439373D01*
X178214500Y-84307299D01*
X178234185Y-84240260D01*
X178286989Y-84194505D01*
X178338500Y-84183299D01*
X178357723Y-84183299D01*
X178357724Y-84183299D01*
X178455091Y-84167879D01*
X178572448Y-84108082D01*
X178665582Y-84014948D01*
X178725379Y-83897591D01*
X178725379Y-83897590D01*
X178725380Y-83897588D01*
X178728308Y-83879102D01*
X178758237Y-83815967D01*
X178817549Y-83779036D01*
X178850781Y-83774500D01*
X179029377Y-83774500D01*
X179130623Y-83774500D01*
X179510803Y-83774500D01*
X179577842Y-83794185D01*
X179623597Y-83846989D01*
X179633276Y-83879102D01*
X179634619Y-83887587D01*
X179634620Y-83887590D01*
X179634621Y-83887591D01*
X179694418Y-84004948D01*
X179694420Y-84004950D01*
X179694422Y-84004953D01*
X179787546Y-84098077D01*
X179787555Y-84098084D01*
X179904906Y-84157878D01*
X179904911Y-84157880D01*
X180002269Y-84173299D01*
X180002275Y-84173300D01*
X180567724Y-84173299D01*
X180665091Y-84157879D01*
X180782448Y-84098082D01*
X180875582Y-84004948D01*
X180935379Y-83887591D01*
X180935379Y-83887590D01*
X180935380Y-83887588D01*
X180950799Y-83790230D01*
X180950800Y-83790225D01*
X180950799Y-83249776D01*
X180935379Y-83152409D01*
X180875582Y-83035052D01*
X180875578Y-83035048D01*
X180875577Y-83035046D01*
X180782453Y-82941922D01*
X180782444Y-82941915D01*
X180665093Y-82882121D01*
X180665088Y-82882119D01*
X180567730Y-82866700D01*
X180002276Y-82866700D01*
X179904908Y-82882121D01*
X179811476Y-82929727D01*
X179742807Y-82942623D01*
X179678067Y-82916346D01*
X179637810Y-82859239D01*
X179634818Y-82789434D01*
X179635409Y-82787140D01*
X179636323Y-82783725D01*
X179636330Y-82783709D01*
X179655250Y-82640000D01*
X179655250Y-82631872D01*
X179658915Y-82631872D01*
X179666737Y-82579599D01*
X179712794Y-82527058D01*
X179779945Y-82507758D01*
X179844334Y-82526219D01*
X179851195Y-82530451D01*
X179851199Y-82530453D01*
X180014847Y-82584680D01*
X180115851Y-82594999D01*
X180215000Y-82594998D01*
X180215000Y-81870000D01*
X179427501Y-81870000D01*
X179427501Y-81906657D01*
X179435526Y-81985209D01*
X179422756Y-82053902D01*
X179374875Y-82104786D01*
X179307085Y-82121706D01*
X179264716Y-82112371D01*
X179243712Y-82103671D01*
X179243710Y-82103670D01*
X179243709Y-82103670D01*
X179222274Y-82100848D01*
X179138620Y-82089834D01*
X179074724Y-82061567D01*
X179036254Y-82003242D01*
X179035423Y-81933377D01*
X179037105Y-81927879D01*
X179037181Y-81927648D01*
X179047499Y-81826654D01*
X179047500Y-81826641D01*
X179047500Y-81790000D01*
X178260000Y-81790000D01*
X178260000Y-82514999D01*
X178359140Y-82514999D01*
X178359154Y-82514998D01*
X178408148Y-82509993D01*
X178476841Y-82522762D01*
X178527725Y-82570643D01*
X178544750Y-82633351D01*
X178544750Y-82640000D01*
X178558884Y-82747356D01*
X178548119Y-82816392D01*
X178501739Y-82868648D01*
X178434470Y-82887533D01*
X178416548Y-82886016D01*
X178357725Y-82876700D01*
X177792276Y-82876700D01*
X177715904Y-82888796D01*
X177694909Y-82892121D01*
X177577552Y-82951918D01*
X177577551Y-82951919D01*
X177577546Y-82951922D01*
X177484422Y-83045046D01*
X177484415Y-83045055D01*
X177424621Y-83162406D01*
X177424619Y-83162411D01*
X177409200Y-83259769D01*
X177409200Y-83800223D01*
X177411694Y-83815967D01*
X177424621Y-83897591D01*
X177484418Y-84014948D01*
X177484420Y-84014950D01*
X177484422Y-84014953D01*
X177577546Y-84108077D01*
X177577548Y-84108078D01*
X177577552Y-84108082D01*
X177637796Y-84138778D01*
X177688591Y-84186752D01*
X177705500Y-84249262D01*
X177705500Y-84343219D01*
X177685815Y-84410258D01*
X177669181Y-84430900D01*
X177168395Y-84931685D01*
X177168396Y-84931686D01*
X177114242Y-84985839D01*
X177075501Y-85079373D01*
X177075500Y-85079378D01*
X177075500Y-86110621D01*
X176203299Y-86110621D01*
X176203299Y-85834776D01*
X176187879Y-85737409D01*
X176128082Y-85620052D01*
X176128078Y-85620048D01*
X176128077Y-85620046D01*
X176034953Y-85526922D01*
X176034948Y-85526918D01*
X176013483Y-85515981D01*
X175962688Y-85468005D01*
X175945894Y-85400184D01*
X175968433Y-85334050D01*
X175982089Y-85317827D01*
X176376721Y-84923194D01*
X176376724Y-84923193D01*
X176394162Y-84905755D01*
X176394163Y-84905755D01*
X176465755Y-84834163D01*
X176465755Y-84834161D01*
X176465757Y-84834160D01*
X176498523Y-84755052D01*
X176504500Y-84740623D01*
X176504500Y-84293676D01*
X176524185Y-84226637D01*
X176576989Y-84180882D01*
X176609101Y-84171203D01*
X176630091Y-84167879D01*
X176747448Y-84108082D01*
X176840582Y-84014948D01*
X176900379Y-83897591D01*
X176900379Y-83897590D01*
X176900380Y-83897588D01*
X176915799Y-83800230D01*
X176915800Y-83800225D01*
X176915799Y-83259776D01*
X176900379Y-83162409D01*
X176840582Y-83045052D01*
X176840578Y-83045048D01*
X176840577Y-83045046D01*
X176747453Y-82951922D01*
X176747444Y-82951915D01*
X176630093Y-82892121D01*
X176630088Y-82892119D01*
X176609102Y-82888796D01*
X176545967Y-82858867D01*
X176509036Y-82799555D01*
X176504500Y-82766323D01*
X176504500Y-82316834D01*
X176524185Y-82249795D01*
X176576989Y-82204040D01*
X176613014Y-82194711D01*
X176612912Y-82194061D01*
X176617723Y-82193299D01*
X176617724Y-82193299D01*
X176715091Y-82177879D01*
X176832448Y-82118082D01*
X176858318Y-82092211D01*
X176919639Y-82058727D01*
X176989331Y-82063711D01*
X177045265Y-82105581D01*
X177051537Y-82114796D01*
X177127552Y-82238034D01*
X177127555Y-82238038D01*
X177249461Y-82359944D01*
X177249465Y-82359947D01*
X177396188Y-82450448D01*
X177396199Y-82450453D01*
X177559847Y-82504680D01*
X177660851Y-82514999D01*
X177760000Y-82514998D01*
X177760000Y-81370000D01*
X179427500Y-81370000D01*
X180215000Y-81370000D01*
X180215000Y-80644999D01*
X180115860Y-80645000D01*
X180115844Y-80645001D01*
X180014847Y-80655319D01*
X179851199Y-80709546D01*
X179851188Y-80709551D01*
X179704465Y-80800052D01*
X179704461Y-80800055D01*
X179582555Y-80921961D01*
X179582552Y-80921965D01*
X179492051Y-81068688D01*
X179492046Y-81068699D01*
X179437819Y-81232347D01*
X179427500Y-81333345D01*
X179427500Y-81370000D01*
X177760000Y-81370000D01*
X177760000Y-80565000D01*
X178260000Y-80565000D01*
X178260000Y-81290000D01*
X179047499Y-81290000D01*
X179047499Y-81253360D01*
X179047498Y-81253345D01*
X179037180Y-81152347D01*
X178982953Y-80988699D01*
X178982948Y-80988688D01*
X178892447Y-80841965D01*
X178892444Y-80841961D01*
X178770538Y-80720055D01*
X178770534Y-80720052D01*
X178623811Y-80629551D01*
X178623800Y-80629546D01*
X178460152Y-80575319D01*
X178359154Y-80565000D01*
X178260000Y-80565000D01*
X177760000Y-80565000D01*
X177760000Y-80564999D01*
X177660860Y-80565000D01*
X177660844Y-80565001D01*
X177559847Y-80575319D01*
X177396199Y-80629546D01*
X177396188Y-80629551D01*
X177249465Y-80720052D01*
X177249461Y-80720055D01*
X177127554Y-80841962D01*
X177051537Y-80965204D01*
X176999589Y-81011928D01*
X176930626Y-81023149D01*
X176866544Y-80995305D01*
X176858318Y-80987787D01*
X176832453Y-80961922D01*
X176832444Y-80961915D01*
X176715093Y-80902121D01*
X176715088Y-80902120D01*
X176644101Y-80890876D01*
X176580967Y-80860946D01*
X176544036Y-80801634D01*
X176539500Y-80768403D01*
X176539500Y-79669157D01*
X176557235Y-79608758D01*
X180107698Y-79608758D01*
X180111340Y-79627067D01*
X180118043Y-79660769D01*
X180157451Y-79719747D01*
X180216429Y-79759155D01*
X180226584Y-79765940D01*
X180224704Y-79768752D01*
X180263353Y-79799896D01*
X180285419Y-79866190D01*
X180285498Y-79870618D01*
X180285498Y-79990619D01*
X180285499Y-79990624D01*
X180324240Y-80084158D01*
X180712360Y-80472278D01*
X180745845Y-80533601D01*
X180740861Y-80603293D01*
X180715000Y-80643532D01*
X180715000Y-82594999D01*
X180814140Y-82594999D01*
X180814154Y-82594998D01*
X180915152Y-82584680D01*
X181078800Y-82530453D01*
X181078811Y-82530448D01*
X181225534Y-82439947D01*
X181225538Y-82439944D01*
X181347443Y-82318039D01*
X181423461Y-82194796D01*
X181475409Y-82148072D01*
X181544372Y-82136849D01*
X181608454Y-82164693D01*
X181616681Y-82172212D01*
X181642546Y-82198077D01*
X181642555Y-82198084D01*
X181759903Y-82257877D01*
X181769192Y-82260895D01*
X181767998Y-82264566D01*
X181813988Y-82286342D01*
X181850948Y-82345636D01*
X181855500Y-82378925D01*
X181855500Y-82756323D01*
X181835815Y-82823362D01*
X181783011Y-82869117D01*
X181750898Y-82878796D01*
X181729913Y-82882119D01*
X181729912Y-82882119D01*
X181673400Y-82910914D01*
X181612552Y-82941918D01*
X181612551Y-82941919D01*
X181612546Y-82941922D01*
X181519422Y-83035046D01*
X181519415Y-83035055D01*
X181459621Y-83152406D01*
X181459619Y-83152411D01*
X181444200Y-83249769D01*
X181444200Y-83790223D01*
X181453191Y-83846989D01*
X181459621Y-83887591D01*
X181519418Y-84004948D01*
X181519420Y-84004950D01*
X181519422Y-84004953D01*
X181612546Y-84098077D01*
X181612555Y-84098084D01*
X181729906Y-84157878D01*
X181729911Y-84157880D01*
X181827269Y-84173299D01*
X181827275Y-84173300D01*
X182392724Y-84173299D01*
X182490091Y-84157879D01*
X182607448Y-84098082D01*
X182700582Y-84004948D01*
X182760379Y-83887591D01*
X182760379Y-83887590D01*
X182760380Y-83887588D01*
X182775799Y-83790230D01*
X182775800Y-83790225D01*
X182775799Y-83249776D01*
X182760379Y-83152409D01*
X182700582Y-83035052D01*
X182700578Y-83035048D01*
X182700577Y-83035046D01*
X182607453Y-82941922D01*
X182607444Y-82941915D01*
X182490093Y-82882121D01*
X182490088Y-82882119D01*
X182469102Y-82878796D01*
X182405967Y-82848867D01*
X182369036Y-82789555D01*
X182364500Y-82756323D01*
X182364500Y-82397299D01*
X182384185Y-82330260D01*
X182436989Y-82284505D01*
X182488500Y-82273299D01*
X182522723Y-82273299D01*
X182522724Y-82273299D01*
X182620091Y-82257879D01*
X182737448Y-82198082D01*
X182830582Y-82104948D01*
X182890379Y-81987591D01*
X182891723Y-81979101D01*
X182921652Y-81915968D01*
X182980963Y-81879036D01*
X183014197Y-81874500D01*
X183360621Y-81874500D01*
X183360623Y-81874500D01*
X183407393Y-81855127D01*
X183454160Y-81835757D01*
X183454161Y-81835755D01*
X183454163Y-81835755D01*
X184189099Y-81100819D01*
X184250422Y-81067334D01*
X184276780Y-81064500D01*
X185760621Y-81064500D01*
X185760623Y-81064500D01*
X185815149Y-81041915D01*
X185854160Y-81025757D01*
X185854161Y-81025755D01*
X185854163Y-81025755D01*
X186539098Y-80340818D01*
X186600421Y-80307334D01*
X186626779Y-80304500D01*
X186747700Y-80304500D01*
X186814739Y-80324185D01*
X186860494Y-80376989D01*
X186871700Y-80428499D01*
X186871700Y-80567558D01*
X186877008Y-80594244D01*
X186882045Y-80619569D01*
X186921453Y-80678547D01*
X186945974Y-80694931D01*
X186990777Y-80748541D01*
X186999485Y-80817866D01*
X186980185Y-80866922D01*
X186907073Y-80976342D01*
X186907069Y-80976349D01*
X186852381Y-81108379D01*
X186852379Y-81108385D01*
X186824500Y-81248542D01*
X186824500Y-81248545D01*
X186824500Y-81391455D01*
X186824500Y-81391457D01*
X186824499Y-81391457D01*
X186852379Y-81531614D01*
X186852381Y-81531620D01*
X186907069Y-81663650D01*
X186907074Y-81663659D01*
X186986467Y-81782478D01*
X186986470Y-81782482D01*
X187071307Y-81867319D01*
X187104792Y-81928642D01*
X187099808Y-81998334D01*
X187071307Y-82042681D01*
X186986470Y-82127517D01*
X186986467Y-82127521D01*
X186907074Y-82246340D01*
X186907069Y-82246349D01*
X186852381Y-82378379D01*
X186852379Y-82378385D01*
X186824500Y-82518542D01*
X186824500Y-82518545D01*
X186824500Y-82661455D01*
X186824500Y-82661457D01*
X186824499Y-82661457D01*
X186852379Y-82801614D01*
X186852381Y-82801620D01*
X186907069Y-82933650D01*
X186907074Y-82933659D01*
X186986467Y-83052478D01*
X186986470Y-83052482D01*
X187071307Y-83137319D01*
X187104792Y-83198642D01*
X187099808Y-83268334D01*
X187071307Y-83312681D01*
X186986470Y-83397517D01*
X186986467Y-83397521D01*
X186907074Y-83516340D01*
X186907069Y-83516349D01*
X186852381Y-83648379D01*
X186852379Y-83648385D01*
X186824500Y-83788542D01*
X186824500Y-83788545D01*
X186824500Y-83931455D01*
X186824500Y-83931457D01*
X186824499Y-83931457D01*
X186852379Y-84071614D01*
X186852381Y-84071620D01*
X186907069Y-84203650D01*
X186907074Y-84203659D01*
X186986467Y-84322478D01*
X186986470Y-84322482D01*
X187087517Y-84423529D01*
X187087521Y-84423532D01*
X187206340Y-84502925D01*
X187206346Y-84502928D01*
X187206347Y-84502929D01*
X187338380Y-84557619D01*
X187338384Y-84557619D01*
X187338385Y-84557620D01*
X187478542Y-84585500D01*
X187478545Y-84585500D01*
X187621457Y-84585500D01*
X187715751Y-84566742D01*
X187761620Y-84557619D01*
X187893653Y-84502929D01*
X188012479Y-84423532D01*
X188113532Y-84322479D01*
X188192929Y-84203653D01*
X188247619Y-84071620D01*
X188275500Y-83931455D01*
X188275500Y-83788545D01*
X188275500Y-83788542D01*
X188247620Y-83648385D01*
X188247619Y-83648384D01*
X188247619Y-83648380D01*
X188192929Y-83516347D01*
X188192928Y-83516346D01*
X188192925Y-83516340D01*
X188113532Y-83397521D01*
X188113529Y-83397517D01*
X188028693Y-83312681D01*
X187995208Y-83251358D01*
X188000192Y-83181666D01*
X188028693Y-83137319D01*
X188113529Y-83052482D01*
X188113532Y-83052479D01*
X188192929Y-82933653D01*
X188247619Y-82801620D01*
X188275500Y-82661455D01*
X188275500Y-82518545D01*
X188275500Y-82518542D01*
X188247620Y-82378385D01*
X188247619Y-82378384D01*
X188247619Y-82378380D01*
X188194357Y-82249795D01*
X188192930Y-82246349D01*
X188192925Y-82246340D01*
X188113532Y-82127521D01*
X188113529Y-82127517D01*
X188028693Y-82042681D01*
X187995208Y-81981358D01*
X188000192Y-81911666D01*
X188028693Y-81867319D01*
X188113529Y-81782482D01*
X188113532Y-81782479D01*
X188192929Y-81663653D01*
X188247619Y-81531620D01*
X188275500Y-81391455D01*
X188275500Y-81248545D01*
X188275500Y-81248542D01*
X188247620Y-81108385D01*
X188247619Y-81108384D01*
X188247619Y-81108380D01*
X188192929Y-80976347D01*
X188192926Y-80976342D01*
X188192925Y-80976340D01*
X188119815Y-80866924D01*
X188098937Y-80800247D01*
X188117421Y-80732867D01*
X188154024Y-80694932D01*
X188178547Y-80678547D01*
X188217955Y-80619569D01*
X188220148Y-80608547D01*
X188228299Y-80567564D01*
X188228300Y-80567561D01*
X188228299Y-80332926D01*
X188237740Y-80285469D01*
X188247617Y-80261625D01*
X188247620Y-80261616D01*
X188275500Y-80121457D01*
X188275500Y-79978542D01*
X188247620Y-79838385D01*
X188247619Y-79838384D01*
X188247619Y-79838380D01*
X188245905Y-79834242D01*
X188237738Y-79814524D01*
X188228299Y-79767072D01*
X188228299Y-79532441D01*
X188226613Y-79523964D01*
X188217955Y-79480431D01*
X188178547Y-79421453D01*
X188119569Y-79382045D01*
X188119568Y-79382044D01*
X188119567Y-79382044D01*
X188119566Y-79382043D01*
X188067565Y-79371700D01*
X188067561Y-79371700D01*
X187832925Y-79371700D01*
X187785472Y-79362261D01*
X187761620Y-79352381D01*
X187761614Y-79352379D01*
X187621457Y-79324500D01*
X187621455Y-79324500D01*
X187478545Y-79324500D01*
X187478543Y-79324500D01*
X187338381Y-79352380D01*
X187338378Y-79352381D01*
X187314523Y-79362262D01*
X187267073Y-79371700D01*
X187032441Y-79371700D01*
X186980430Y-79382045D01*
X186941022Y-79408377D01*
X186921455Y-79421452D01*
X186921452Y-79421454D01*
X186882044Y-79480432D01*
X186882043Y-79480433D01*
X186871700Y-79532434D01*
X186871700Y-79671500D01*
X186852015Y-79738539D01*
X186799211Y-79784294D01*
X186747700Y-79795500D01*
X186419377Y-79795500D01*
X186419375Y-79795500D01*
X186419373Y-79795501D01*
X186325839Y-79834242D01*
X186325837Y-79834244D01*
X185640901Y-80519181D01*
X185579578Y-80552666D01*
X185553220Y-80555500D01*
X184170623Y-80555500D01*
X184069377Y-80555500D01*
X184069375Y-80555500D01*
X184069373Y-80555501D01*
X183975839Y-80594242D01*
X183975837Y-80594244D01*
X183240901Y-81329181D01*
X183179578Y-81362666D01*
X183153220Y-81365500D01*
X183014197Y-81365500D01*
X182947158Y-81345815D01*
X182901403Y-81293011D01*
X182891724Y-81260898D01*
X182890380Y-81252412D01*
X182890379Y-81252410D01*
X182890379Y-81252409D01*
X182830582Y-81135052D01*
X182830578Y-81135048D01*
X182830577Y-81135046D01*
X182737453Y-81041922D01*
X182737444Y-81041915D01*
X182620093Y-80982121D01*
X182620088Y-80982120D01*
X182547301Y-80970591D01*
X182484167Y-80940661D01*
X182447236Y-80881349D01*
X182445081Y-80872303D01*
X182444500Y-80869385D01*
X182444500Y-80869377D01*
X182433146Y-80841965D01*
X182405757Y-80775839D01*
X182327098Y-80697180D01*
X182327091Y-80697174D01*
X181714162Y-80084244D01*
X181714160Y-80084242D01*
X181620626Y-80045501D01*
X181620624Y-80045500D01*
X181620623Y-80045500D01*
X181620621Y-80045500D01*
X181056780Y-80045500D01*
X180989741Y-80025815D01*
X180969099Y-80009181D01*
X180883788Y-79923870D01*
X180850303Y-79862547D01*
X180855287Y-79792855D01*
X180897159Y-79736922D01*
X180902541Y-79733113D01*
X180922545Y-79719747D01*
X180961953Y-79660769D01*
X180972298Y-79608761D01*
X180972298Y-79608758D01*
X182007700Y-79608758D01*
X182011342Y-79627067D01*
X182018045Y-79660769D01*
X182057453Y-79719747D01*
X182116431Y-79759155D01*
X182116432Y-79759155D01*
X182116433Y-79759156D01*
X182147578Y-79765350D01*
X182168439Y-79769500D01*
X182711560Y-79769499D01*
X182763569Y-79759155D01*
X182822547Y-79719747D01*
X182861955Y-79660769D01*
X182872300Y-79608761D01*
X182872299Y-78252840D01*
X182861955Y-78200831D01*
X182822547Y-78141853D01*
X182763569Y-78102445D01*
X182763568Y-78102444D01*
X182763567Y-78102444D01*
X182763566Y-78102443D01*
X182711563Y-78092100D01*
X182168441Y-78092100D01*
X182116430Y-78102445D01*
X182077022Y-78128777D01*
X182057455Y-78141852D01*
X182057452Y-78141854D01*
X182018044Y-78200832D01*
X182018043Y-78200833D01*
X182007700Y-78252834D01*
X182007700Y-79608758D01*
X180972298Y-79608758D01*
X180972297Y-78252840D01*
X180961953Y-78200831D01*
X180922545Y-78141853D01*
X180863567Y-78102445D01*
X180863566Y-78102444D01*
X180863565Y-78102444D01*
X180863564Y-78102443D01*
X180811561Y-78092100D01*
X180268439Y-78092100D01*
X180216428Y-78102445D01*
X180177020Y-78128777D01*
X180157453Y-78141852D01*
X180157450Y-78141854D01*
X180118042Y-78200832D01*
X180118041Y-78200833D01*
X180107698Y-78252834D01*
X180107698Y-79608758D01*
X176557235Y-79608758D01*
X176559185Y-79602118D01*
X176611989Y-79556363D01*
X176639302Y-79547542D01*
X176653567Y-79544705D01*
X176712545Y-79505297D01*
X176751953Y-79446319D01*
X176762298Y-79394311D01*
X176762298Y-79394308D01*
X177797700Y-79394308D01*
X177808044Y-79446316D01*
X177808045Y-79446319D01*
X177847453Y-79505297D01*
X177906431Y-79544705D01*
X177906432Y-79544705D01*
X177906433Y-79544706D01*
X177937578Y-79550900D01*
X177958439Y-79555050D01*
X178501560Y-79555049D01*
X178553569Y-79544705D01*
X178612547Y-79505297D01*
X178651955Y-79446319D01*
X178662300Y-79394311D01*
X178662299Y-78355890D01*
X178651955Y-78303881D01*
X178612547Y-78244903D01*
X178553569Y-78205495D01*
X178553568Y-78205494D01*
X178553567Y-78205494D01*
X178553566Y-78205493D01*
X178501563Y-78195150D01*
X177958441Y-78195150D01*
X177906430Y-78205495D01*
X177867022Y-78231827D01*
X177847455Y-78244902D01*
X177847452Y-78244904D01*
X177808044Y-78303882D01*
X177808043Y-78303883D01*
X177797700Y-78355884D01*
X177797700Y-79394308D01*
X176762298Y-79394308D01*
X176762297Y-78355890D01*
X176751953Y-78303881D01*
X176712545Y-78244903D01*
X176653567Y-78205495D01*
X176653566Y-78205494D01*
X176653565Y-78205494D01*
X176653564Y-78205493D01*
X176601561Y-78195150D01*
X176058439Y-78195150D01*
X176006428Y-78205495D01*
X175967020Y-78231827D01*
X175947453Y-78244902D01*
X175947450Y-78244904D01*
X175908042Y-78303882D01*
X175908041Y-78303883D01*
X175897698Y-78355884D01*
X175897698Y-79394308D01*
X175908042Y-79446316D01*
X175908043Y-79446319D01*
X175947451Y-79505297D01*
X175975392Y-79523966D01*
X176020195Y-79577576D01*
X176030500Y-79627067D01*
X176030500Y-80768404D01*
X176010815Y-80835443D01*
X175958011Y-80881198D01*
X175925898Y-80890877D01*
X175854912Y-80902119D01*
X175815971Y-80921961D01*
X175737552Y-80961918D01*
X175737551Y-80961919D01*
X175737546Y-80961922D01*
X175644422Y-81055046D01*
X175644415Y-81055055D01*
X175584621Y-81172406D01*
X175584619Y-81172411D01*
X175569200Y-81269769D01*
X175569200Y-81810223D01*
X175574180Y-81841666D01*
X175584621Y-81907591D01*
X175644418Y-82024948D01*
X175644420Y-82024950D01*
X175644422Y-82024953D01*
X175737546Y-82118077D01*
X175737555Y-82118084D01*
X175854906Y-82177878D01*
X175854907Y-82177878D01*
X175854909Y-82177879D01*
X175890898Y-82183579D01*
X175954031Y-82213507D01*
X175990963Y-82272818D01*
X175995500Y-82306052D01*
X175995500Y-82766323D01*
X175975815Y-82833362D01*
X175923011Y-82879117D01*
X175890898Y-82888796D01*
X175869913Y-82892119D01*
X175869912Y-82892119D01*
X175833026Y-82910914D01*
X175752552Y-82951918D01*
X175752551Y-82951919D01*
X175752546Y-82951922D01*
X175659422Y-83045046D01*
X175659415Y-83045055D01*
X175599621Y-83162406D01*
X175599619Y-83162411D01*
X175584200Y-83259769D01*
X175584200Y-83800223D01*
X175586694Y-83815967D01*
X175599621Y-83897591D01*
X175659418Y-84014948D01*
X175659420Y-84014950D01*
X175659422Y-84014953D01*
X175752546Y-84108077D01*
X175752555Y-84108084D01*
X175850281Y-84157878D01*
X175869909Y-84167879D01*
X175890896Y-84171202D01*
X175954030Y-84201130D01*
X175990963Y-84260440D01*
X175995500Y-84293676D01*
X175995500Y-84533219D01*
X175975815Y-84600258D01*
X175959181Y-84620900D01*
X175388395Y-85191685D01*
X175388396Y-85191686D01*
X175334242Y-85245839D01*
X175295501Y-85339373D01*
X175295500Y-85339378D01*
X175295500Y-85343303D01*
X175275815Y-85410342D01*
X175223011Y-85456097D01*
X175190898Y-85465776D01*
X175182412Y-85467119D01*
X175130230Y-85493708D01*
X175065052Y-85526918D01*
X175065051Y-85526919D01*
X175065046Y-85526922D01*
X174971922Y-85620046D01*
X174971915Y-85620055D01*
X174912121Y-85737406D01*
X174912119Y-85737411D01*
X174896700Y-85834769D01*
X174896700Y-86400223D01*
X171880500Y-86400223D01*
X171880500Y-84040000D01*
X172770840Y-84040000D01*
X172811652Y-84174541D01*
X172904503Y-84348253D01*
X172904507Y-84348260D01*
X173029471Y-84500528D01*
X173181739Y-84625491D01*
X173355465Y-84718349D01*
X173490000Y-84759159D01*
X173490000Y-84040000D01*
X172770840Y-84040000D01*
X171880500Y-84040000D01*
X171880500Y-83539999D01*
X172770839Y-83539999D01*
X172770840Y-83540000D01*
X173530382Y-83540000D01*
X173479936Y-83590446D01*
X173437149Y-83664555D01*
X173415000Y-83747213D01*
X173415000Y-83832787D01*
X173437149Y-83915445D01*
X173479936Y-83989554D01*
X173540446Y-84050064D01*
X173614555Y-84092851D01*
X173697213Y-84115000D01*
X173782787Y-84115000D01*
X173865445Y-84092851D01*
X173939554Y-84050064D01*
X173949618Y-84040000D01*
X173990000Y-84040000D01*
X173990000Y-84759159D01*
X174124534Y-84718349D01*
X174298260Y-84625491D01*
X174450528Y-84500528D01*
X174575492Y-84348260D01*
X174575496Y-84348253D01*
X174668347Y-84174541D01*
X174709160Y-84040000D01*
X173990000Y-84040000D01*
X173949618Y-84040000D01*
X174000064Y-83989554D01*
X174042851Y-83915445D01*
X174065000Y-83832787D01*
X174065000Y-83747213D01*
X174042851Y-83664555D01*
X174000064Y-83590446D01*
X173949618Y-83540000D01*
X174709160Y-83540000D01*
X174709160Y-83539999D01*
X174668347Y-83405458D01*
X174575496Y-83231746D01*
X174575492Y-83231739D01*
X174450528Y-83079471D01*
X174400611Y-83038505D01*
X174361277Y-82980759D01*
X174359406Y-82910914D01*
X174376173Y-82873762D01*
X174382929Y-82863653D01*
X174437619Y-82731620D01*
X174457166Y-82633351D01*
X174465500Y-82591457D01*
X174465500Y-82448542D01*
X174437620Y-82308385D01*
X174437619Y-82308384D01*
X174437619Y-82308380D01*
X174382929Y-82176347D01*
X174382928Y-82176346D01*
X174382925Y-82176340D01*
X174303532Y-82057521D01*
X174303529Y-82057517D01*
X174218693Y-81972681D01*
X174185208Y-81911358D01*
X174190192Y-81841666D01*
X174218693Y-81797319D01*
X174303529Y-81712482D01*
X174303532Y-81712479D01*
X174382929Y-81593653D01*
X174437619Y-81461620D01*
X174456739Y-81365500D01*
X174465500Y-81321457D01*
X174465500Y-81178542D01*
X174437620Y-81038385D01*
X174437619Y-81038384D01*
X174437619Y-81038380D01*
X174382929Y-80906347D01*
X174382926Y-80906342D01*
X174382925Y-80906340D01*
X174309815Y-80796924D01*
X174288937Y-80730247D01*
X174307421Y-80662867D01*
X174344024Y-80624932D01*
X174368547Y-80608547D01*
X174407955Y-80549569D01*
X174418300Y-80497561D01*
X174418299Y-80262926D01*
X174427740Y-80215469D01*
X174437617Y-80191625D01*
X174437620Y-80191616D01*
X174465500Y-80051457D01*
X174465500Y-79908542D01*
X174437620Y-79768385D01*
X174437619Y-79768384D01*
X174437619Y-79768380D01*
X174436608Y-79765940D01*
X174427738Y-79744524D01*
X174418299Y-79697072D01*
X174418299Y-79462441D01*
X174418298Y-79462434D01*
X174407955Y-79410431D01*
X174368547Y-79351453D01*
X174309569Y-79312045D01*
X174309568Y-79312044D01*
X174309567Y-79312044D01*
X174309566Y-79312043D01*
X174257565Y-79301700D01*
X174257561Y-79301700D01*
X174022925Y-79301700D01*
X173975472Y-79292261D01*
X173951620Y-79282381D01*
X173951614Y-79282379D01*
X173811457Y-79254500D01*
X173811455Y-79254500D01*
X173668545Y-79254500D01*
X173668543Y-79254500D01*
X173528381Y-79282380D01*
X173528378Y-79282381D01*
X173504523Y-79292262D01*
X173457073Y-79301700D01*
X173222441Y-79301700D01*
X173170430Y-79312045D01*
X173131022Y-79338377D01*
X173111455Y-79351452D01*
X173111452Y-79351454D01*
X173072044Y-79410432D01*
X173072043Y-79410433D01*
X173061700Y-79462434D01*
X173061700Y-79697075D01*
X173052262Y-79744523D01*
X173046202Y-79759155D01*
X173042380Y-79768383D01*
X173042379Y-79768386D01*
X173014500Y-79908542D01*
X173014500Y-79908545D01*
X173014500Y-80051455D01*
X173014500Y-80051457D01*
X173014499Y-80051457D01*
X173042379Y-80191613D01*
X173042380Y-80191616D01*
X173042381Y-80191620D01*
X173052261Y-80215474D01*
X173061700Y-80262923D01*
X173061700Y-80497558D01*
X173066001Y-80519181D01*
X173072045Y-80549569D01*
X173111453Y-80608547D01*
X173135974Y-80624931D01*
X173180777Y-80678541D01*
X173189485Y-80747866D01*
X173170185Y-80796922D01*
X173097073Y-80906342D01*
X173097069Y-80906349D01*
X173042381Y-81038379D01*
X173042379Y-81038385D01*
X173014500Y-81178542D01*
X173014500Y-81178545D01*
X173014500Y-81321455D01*
X173014500Y-81321457D01*
X173014499Y-81321457D01*
X173042379Y-81461614D01*
X173042381Y-81461620D01*
X173097069Y-81593650D01*
X173097074Y-81593659D01*
X173176467Y-81712478D01*
X173176470Y-81712482D01*
X173261307Y-81797319D01*
X173294792Y-81858642D01*
X173289808Y-81928334D01*
X173261307Y-81972681D01*
X173176470Y-82057517D01*
X173176467Y-82057521D01*
X173097074Y-82176340D01*
X173097069Y-82176349D01*
X173042381Y-82308379D01*
X173042379Y-82308385D01*
X173014500Y-82448542D01*
X173014500Y-82448545D01*
X173014500Y-82591455D01*
X173014500Y-82591457D01*
X173014499Y-82591457D01*
X173042379Y-82731614D01*
X173042381Y-82731620D01*
X173097069Y-82863650D01*
X173097074Y-82863659D01*
X173103825Y-82873762D01*
X173124703Y-82940439D01*
X173106219Y-83007820D01*
X173079389Y-83038505D01*
X173029469Y-83079473D01*
X172904507Y-83231739D01*
X172904503Y-83231746D01*
X172811652Y-83405458D01*
X172770839Y-83539999D01*
X171880500Y-83539999D01*
X171880500Y-69389500D01*
X171900185Y-69322461D01*
X171952989Y-69276706D01*
X172004500Y-69265500D01*
X173794010Y-69265500D01*
X173861049Y-69285185D01*
G37*
G04 #@! TD.AperFunction*
M02*
