G04 #@! TF.GenerationSoftware,KiCad,Pcbnew,8.0.1*
G04 #@! TF.CreationDate,2025-02-25T23:45:37-07:00*
G04 #@! TF.ProjectId,ColorSensing,436f6c6f-7253-4656-9e73-696e672e6b69,rev?*
G04 #@! TF.SameCoordinates,Original*
G04 #@! TF.FileFunction,Soldermask,Bot*
G04 #@! TF.FilePolarity,Negative*
%FSLAX46Y46*%
G04 Gerber Fmt 4.6, Leading zero omitted, Abs format (unit mm)*
G04 Created by KiCad (PCBNEW 8.0.1) date 2025-02-25 23:45:37*
%MOMM*%
%LPD*%
G01*
G04 APERTURE LIST*
G04 Aperture macros list*
%AMRoundRect*
0 Rectangle with rounded corners*
0 $1 Rounding radius*
0 $2 $3 $4 $5 $6 $7 $8 $9 X,Y pos of 4 corners*
0 Add a 4 corners polygon primitive as box body*
4,1,4,$2,$3,$4,$5,$6,$7,$8,$9,$2,$3,0*
0 Add four circle primitives for the rounded corners*
1,1,$1+$1,$2,$3*
1,1,$1+$1,$4,$5*
1,1,$1+$1,$6,$7*
1,1,$1+$1,$8,$9*
0 Add four rect primitives between the rounded corners*
20,1,$1+$1,$2,$3,$4,$5,0*
20,1,$1+$1,$4,$5,$6,$7,0*
20,1,$1+$1,$6,$7,$8,$9,0*
20,1,$1+$1,$8,$9,$2,$3,0*%
G04 Aperture macros list end*
%ADD10RoundRect,0.237500X0.300000X0.237500X-0.300000X0.237500X-0.300000X-0.237500X0.300000X-0.237500X0*%
%ADD11C,2.500000*%
%ADD12R,1.800000X1.800000*%
%ADD13C,1.800000*%
%ADD14R,0.508000X1.320800*%
%ADD15RoundRect,0.237500X0.237500X-0.300000X0.237500X0.300000X-0.237500X0.300000X-0.237500X-0.300000X0*%
%ADD16RoundRect,0.237500X-0.237500X0.300000X-0.237500X-0.300000X0.237500X-0.300000X0.237500X0.300000X0*%
%ADD17RoundRect,0.237500X0.250000X0.237500X-0.250000X0.237500X-0.250000X-0.237500X0.250000X-0.237500X0*%
%ADD18RoundRect,0.250000X0.325000X0.450000X-0.325000X0.450000X-0.325000X-0.450000X0.325000X-0.450000X0*%
%ADD19RoundRect,0.237500X-0.250000X-0.237500X0.250000X-0.237500X0.250000X0.237500X-0.250000X0.237500X0*%
%ADD20RoundRect,0.102000X-0.571500X0.508000X-0.571500X-0.508000X0.571500X-0.508000X0.571500X0.508000X0*%
%ADD21R,1.700000X0.650000*%
%ADD22R,1.700000X1.700000*%
%ADD23O,1.700000X1.700000*%
G04 APERTURE END LIST*
D10*
X120895000Y-79700000D03*
X119170000Y-79700000D03*
D11*
X135000000Y-93640000D03*
D12*
X132500000Y-88780000D03*
D13*
X135040000Y-88780000D03*
D11*
X118500000Y-70000000D03*
D12*
X119000000Y-75000000D03*
D13*
X121540000Y-75000000D03*
D12*
X119000000Y-88780000D03*
D13*
X121540000Y-88780000D03*
D11*
X118500000Y-93640000D03*
X135000000Y-70000000D03*
D12*
X132500000Y-75000000D03*
D13*
X135040000Y-75000000D03*
D14*
X125969999Y-73630000D03*
X126920000Y-73630000D03*
X127870001Y-73630000D03*
X127870001Y-76220800D03*
X125969999Y-76220800D03*
D15*
X124160000Y-75720000D03*
X124160000Y-73995000D03*
D16*
X129650000Y-74055000D03*
X129650000Y-75780000D03*
D17*
X135040000Y-77540000D03*
X133215000Y-77540000D03*
X121530000Y-77610000D03*
X119705000Y-77610000D03*
X121550000Y-86010000D03*
X119725000Y-86010000D03*
X120490000Y-82380000D03*
X118665000Y-82380000D03*
D18*
X128090000Y-92880000D03*
X126040000Y-92880000D03*
D19*
X133670000Y-82270000D03*
X135495000Y-82270000D03*
D20*
X127846000Y-86935000D03*
X127846000Y-88713000D03*
X125814000Y-87824000D03*
D17*
X135045000Y-86310000D03*
X133220000Y-86310000D03*
D21*
X130490000Y-79780000D03*
X130490000Y-81050000D03*
X130490000Y-82320000D03*
X130490000Y-83590000D03*
X123190000Y-83590000D03*
X123190000Y-82320000D03*
X123190000Y-81050000D03*
X123190000Y-79780000D03*
D22*
X128215000Y-70500000D03*
D23*
X125675000Y-70500000D03*
M02*
