G04 #@! TF.GenerationSoftware,KiCad,Pcbnew,8.0.1*
G04 #@! TF.CreationDate,2025-02-25T23:45:37-07:00*
G04 #@! TF.ProjectId,ColorSensing,436f6c6f-7253-4656-9e73-696e672e6b69,rev?*
G04 #@! TF.SameCoordinates,Original*
G04 #@! TF.FileFunction,Copper,L2,Bot*
G04 #@! TF.FilePolarity,Positive*
%FSLAX46Y46*%
G04 Gerber Fmt 4.6, Leading zero omitted, Abs format (unit mm)*
G04 Created by KiCad (PCBNEW 8.0.1) date 2025-02-25 23:45:37*
%MOMM*%
%LPD*%
G01*
G04 APERTURE LIST*
G04 Aperture macros list*
%AMRoundRect*
0 Rectangle with rounded corners*
0 $1 Rounding radius*
0 $2 $3 $4 $5 $6 $7 $8 $9 X,Y pos of 4 corners*
0 Add a 4 corners polygon primitive as box body*
4,1,4,$2,$3,$4,$5,$6,$7,$8,$9,$2,$3,0*
0 Add four circle primitives for the rounded corners*
1,1,$1+$1,$2,$3*
1,1,$1+$1,$4,$5*
1,1,$1+$1,$6,$7*
1,1,$1+$1,$8,$9*
0 Add four rect primitives between the rounded corners*
20,1,$1+$1,$2,$3,$4,$5,0*
20,1,$1+$1,$4,$5,$6,$7,0*
20,1,$1+$1,$6,$7,$8,$9,0*
20,1,$1+$1,$8,$9,$2,$3,0*%
G04 Aperture macros list end*
G04 #@! TA.AperFunction,SMDPad,CuDef*
%ADD10RoundRect,0.237500X0.300000X0.237500X-0.300000X0.237500X-0.300000X-0.237500X0.300000X-0.237500X0*%
G04 #@! TD*
G04 #@! TA.AperFunction,ComponentPad*
%ADD11C,2.500000*%
G04 #@! TD*
G04 #@! TA.AperFunction,ComponentPad*
%ADD12R,1.800000X1.800000*%
G04 #@! TD*
G04 #@! TA.AperFunction,ComponentPad*
%ADD13C,1.800000*%
G04 #@! TD*
G04 #@! TA.AperFunction,SMDPad,CuDef*
%ADD14R,0.508000X1.320800*%
G04 #@! TD*
G04 #@! TA.AperFunction,SMDPad,CuDef*
%ADD15RoundRect,0.237500X0.237500X-0.300000X0.237500X0.300000X-0.237500X0.300000X-0.237500X-0.300000X0*%
G04 #@! TD*
G04 #@! TA.AperFunction,SMDPad,CuDef*
%ADD16RoundRect,0.237500X-0.237500X0.300000X-0.237500X-0.300000X0.237500X-0.300000X0.237500X0.300000X0*%
G04 #@! TD*
G04 #@! TA.AperFunction,SMDPad,CuDef*
%ADD17RoundRect,0.237500X0.250000X0.237500X-0.250000X0.237500X-0.250000X-0.237500X0.250000X-0.237500X0*%
G04 #@! TD*
G04 #@! TA.AperFunction,SMDPad,CuDef*
%ADD18RoundRect,0.250000X0.325000X0.450000X-0.325000X0.450000X-0.325000X-0.450000X0.325000X-0.450000X0*%
G04 #@! TD*
G04 #@! TA.AperFunction,SMDPad,CuDef*
%ADD19RoundRect,0.237500X-0.250000X-0.237500X0.250000X-0.237500X0.250000X0.237500X-0.250000X0.237500X0*%
G04 #@! TD*
G04 #@! TA.AperFunction,SMDPad,CuDef*
%ADD20R,1.143000X1.016000*%
G04 #@! TD*
G04 #@! TA.AperFunction,SMDPad,CuDef*
%ADD21R,1.700000X0.650000*%
G04 #@! TD*
G04 #@! TA.AperFunction,ComponentPad*
%ADD22R,1.700000X1.700000*%
G04 #@! TD*
G04 #@! TA.AperFunction,ComponentPad*
%ADD23O,1.700000X1.700000*%
G04 #@! TD*
G04 #@! TA.AperFunction,ViaPad*
%ADD24C,0.600000*%
G04 #@! TD*
G04 #@! TA.AperFunction,Conductor*
%ADD25C,0.152400*%
G04 #@! TD*
G04 APERTURE END LIST*
D10*
X120895000Y-79700000D03*
X119170000Y-79700000D03*
D11*
X135000000Y-93640000D03*
D12*
X132500000Y-88780000D03*
D13*
X135040000Y-88780000D03*
D11*
X118500000Y-70000000D03*
D12*
X119000000Y-75000000D03*
D13*
X121540000Y-75000000D03*
D12*
X119000000Y-88780000D03*
D13*
X121540000Y-88780000D03*
D11*
X118500000Y-93640000D03*
X135000000Y-70000000D03*
D12*
X132500000Y-75000000D03*
D13*
X135040000Y-75000000D03*
D14*
X125969999Y-73630000D03*
X126920000Y-73630000D03*
X127870001Y-73630000D03*
X127870001Y-76220800D03*
X125969999Y-76220800D03*
D15*
X124160000Y-75720000D03*
X124160000Y-73995000D03*
D16*
X129650000Y-74055000D03*
X129650000Y-75780000D03*
D17*
X135040000Y-77540000D03*
X133215000Y-77540000D03*
X121530000Y-77610000D03*
X119705000Y-77610000D03*
X121550000Y-86010000D03*
X119725000Y-86010000D03*
X120490000Y-82380000D03*
X118665000Y-82380000D03*
D18*
X128090000Y-92880000D03*
X126040000Y-92880000D03*
D19*
X133670000Y-82270000D03*
X135495000Y-82270000D03*
D20*
X127846000Y-86935000D03*
X127846000Y-88713000D03*
X125814000Y-87824000D03*
D17*
X135045000Y-86310000D03*
X133220000Y-86310000D03*
D21*
X130490000Y-79780000D03*
X130490000Y-81050000D03*
X130490000Y-82320000D03*
X130490000Y-83590000D03*
X123190000Y-83590000D03*
X123190000Y-82320000D03*
X123190000Y-81050000D03*
X123190000Y-79780000D03*
D22*
X128215000Y-70500000D03*
D23*
X125675000Y-70500000D03*
D24*
X127340000Y-72090000D03*
X124580000Y-77980000D03*
X117400000Y-83300000D03*
X128260000Y-85220000D03*
X129740000Y-93300000D03*
X129170000Y-77820000D03*
X129790000Y-89150000D03*
X129670000Y-85830000D03*
X117250000Y-79550000D03*
X136150000Y-80070000D03*
X126180000Y-81050000D03*
X127580000Y-80210000D03*
X131200000Y-78420000D03*
X122670000Y-85100000D03*
X124100000Y-91870000D03*
X124060000Y-87740000D03*
D25*
X128370000Y-72290000D02*
X128360000Y-72280000D01*
X133720000Y-72290000D02*
X128370000Y-72290000D01*
X135000000Y-71010000D02*
X135000000Y-70000000D01*
X133720000Y-72290000D02*
X135000000Y-71010000D01*
X134500000Y-70500000D02*
X135000000Y-70000000D01*
X128215000Y-70500000D02*
X134500000Y-70500000D01*
X127340000Y-72090000D02*
X126920000Y-72510000D01*
X126920000Y-72510000D02*
X126920000Y-73630000D01*
X127750000Y-70500000D02*
X128215000Y-70500000D01*
X125969999Y-72280001D02*
X127750000Y-70500000D01*
X125969999Y-73630000D02*
X125969999Y-72280001D01*
X119000000Y-70500000D02*
X118500000Y-70000000D01*
X125750000Y-70680000D02*
X125570000Y-70500000D01*
X119170000Y-80880000D02*
X119170000Y-79700000D01*
X118665000Y-81385000D02*
X119170000Y-80880000D01*
X118665000Y-82380000D02*
X118665000Y-81385000D01*
X118020000Y-82380000D02*
X117400000Y-83000000D01*
X117400000Y-83000000D02*
X117400000Y-83300000D01*
X128090000Y-92880000D02*
X129320000Y-92880000D01*
X129090000Y-83590000D02*
X130490000Y-83590000D01*
X129353000Y-88713000D02*
X127846000Y-88713000D01*
X118665000Y-82380000D02*
X118020000Y-82380000D01*
X124160000Y-77560000D02*
X124160000Y-75720000D01*
X124580000Y-77980000D02*
X124160000Y-77560000D01*
X129650000Y-77340000D02*
X129170000Y-77820000D01*
X128260000Y-85220000D02*
X128260000Y-84420000D01*
X129650000Y-75780000D02*
X129650000Y-77340000D01*
X129790000Y-89150000D02*
X129353000Y-88713000D01*
X128260000Y-84420000D02*
X129090000Y-83590000D01*
X129320000Y-92880000D02*
X129740000Y-93300000D01*
X121530000Y-75010000D02*
X121540000Y-75000000D01*
X121530000Y-77610000D02*
X121530000Y-75010000D01*
X135040000Y-77540000D02*
X135040000Y-75000000D01*
X121540000Y-86020000D02*
X121550000Y-86010000D01*
X121540000Y-88780000D02*
X121540000Y-86020000D01*
X135040000Y-88780000D02*
X135040000Y-86315000D01*
X135040000Y-86315000D02*
X135045000Y-86310000D01*
X124985000Y-73995000D02*
X125350000Y-73630000D01*
X124160000Y-73995000D02*
X124985000Y-73995000D01*
X125350000Y-73630000D02*
X125969999Y-73630000D01*
X128360000Y-72280000D02*
X127870001Y-72769999D01*
X127870001Y-72769999D02*
X127870001Y-73630000D01*
X125969999Y-70899999D02*
X125750000Y-70680000D01*
X119000000Y-88780000D02*
X119000000Y-90210000D01*
X132500000Y-75690000D02*
X132500000Y-75000000D01*
X125814000Y-87824000D02*
X125814000Y-84566000D01*
X125814000Y-89446000D02*
X125814000Y-87824000D01*
X128970000Y-81410000D02*
X128970000Y-79220000D01*
X119000000Y-90210000D02*
X119760000Y-90970000D01*
X123970000Y-90970000D02*
X124290000Y-90970000D01*
X132500000Y-88780000D02*
X132500000Y-89570000D01*
X119760000Y-90970000D02*
X123970000Y-90970000D01*
X131100000Y-90970000D02*
X123970000Y-90970000D01*
X125814000Y-84566000D02*
X128970000Y-81410000D01*
X124290000Y-90970000D02*
X125814000Y-89446000D01*
X132500000Y-89570000D02*
X131100000Y-90970000D01*
X128970000Y-79220000D02*
X132500000Y-75690000D01*
X135495000Y-83265000D02*
X135495000Y-82270000D01*
X134775000Y-83985000D02*
X135495000Y-83265000D01*
X133315000Y-83985000D02*
X134775000Y-83985000D01*
X130365000Y-86935000D02*
X133315000Y-83985000D01*
X127846000Y-86935000D02*
X130365000Y-86935000D01*
X126180000Y-81050000D02*
X123190000Y-81050000D01*
X126650000Y-82320000D02*
X123190000Y-82320000D01*
X127580000Y-81390000D02*
X126650000Y-82320000D01*
X127580000Y-80210000D02*
X127580000Y-81390000D01*
X133670000Y-82270000D02*
X130540000Y-82270000D01*
X130540000Y-82270000D02*
X130490000Y-82320000D01*
X132290000Y-81050000D02*
X130490000Y-81050000D01*
X132780000Y-80560000D02*
X132290000Y-81050000D01*
X131200000Y-78420000D02*
X132780000Y-80000000D01*
X132780000Y-80000000D02*
X132780000Y-80560000D01*
X122670000Y-85100000D02*
X120490000Y-82920000D01*
X120490000Y-82920000D02*
X120490000Y-82380000D01*
X125110000Y-92880000D02*
X126040000Y-92880000D01*
X124100000Y-91870000D02*
X125110000Y-92880000D01*
X124060000Y-87740000D02*
X124060000Y-85500000D01*
X123190000Y-84630000D02*
X123190000Y-83590000D01*
X124060000Y-85500000D02*
X123190000Y-84630000D01*
G04 #@! TA.AperFunction,Conductor*
G36*
X118095875Y-68508093D02*
G01*
X118121595Y-68552642D01*
X118112662Y-68603300D01*
X118073257Y-68636365D01*
X118072010Y-68636806D01*
X117981598Y-68667844D01*
X117924288Y-68687519D01*
X117924286Y-68687520D01*
X117716118Y-68800175D01*
X117529324Y-68945562D01*
X117529320Y-68945566D01*
X117369006Y-69119714D01*
X117239543Y-69317872D01*
X117239542Y-69317876D01*
X117144458Y-69534644D01*
X117086352Y-69764104D01*
X117086351Y-69764107D01*
X117066805Y-69999998D01*
X117066805Y-70000001D01*
X117086351Y-70235892D01*
X117086352Y-70235895D01*
X117144458Y-70465355D01*
X117239542Y-70682123D01*
X117239543Y-70682127D01*
X117369006Y-70880285D01*
X117529320Y-71054433D01*
X117529324Y-71054437D01*
X117716118Y-71199824D01*
X117868040Y-71282040D01*
X117924292Y-71312482D01*
X117924293Y-71312482D01*
X117924299Y-71312485D01*
X118084731Y-71367561D01*
X118148171Y-71389340D01*
X118381648Y-71428300D01*
X118381651Y-71428300D01*
X118618349Y-71428300D01*
X118618352Y-71428300D01*
X118851829Y-71389340D01*
X119042332Y-71323940D01*
X119075700Y-71312485D01*
X119075702Y-71312484D01*
X119075708Y-71312482D01*
X119283883Y-71199823D01*
X119470677Y-71054436D01*
X119630992Y-70880287D01*
X119747745Y-70701582D01*
X119760456Y-70682127D01*
X119760456Y-70682126D01*
X119760457Y-70682125D01*
X119840345Y-70500000D01*
X124641724Y-70500000D01*
X124661577Y-70701580D01*
X124720374Y-70895411D01*
X124720379Y-70895423D01*
X124815859Y-71074052D01*
X124815863Y-71074058D01*
X124944363Y-71230636D01*
X125053325Y-71320059D01*
X125100943Y-71359138D01*
X125279582Y-71454623D01*
X125279586Y-71454624D01*
X125279588Y-71454625D01*
X125323925Y-71468074D01*
X125473418Y-71513422D01*
X125675000Y-71533276D01*
X125876582Y-71513422D01*
X126070418Y-71454623D01*
X126249057Y-71359138D01*
X126405636Y-71230636D01*
X126534138Y-71074057D01*
X126629623Y-70895418D01*
X126688422Y-70701582D01*
X126708276Y-70500000D01*
X126688422Y-70298418D01*
X126629623Y-70104582D01*
X126534138Y-69925943D01*
X126495059Y-69878325D01*
X126405636Y-69769363D01*
X126249058Y-69640863D01*
X126249059Y-69640863D01*
X126249057Y-69640862D01*
X126249054Y-69640860D01*
X126249052Y-69640859D01*
X126070423Y-69545379D01*
X126070411Y-69545374D01*
X125876579Y-69486577D01*
X125876580Y-69486577D01*
X125675000Y-69466724D01*
X125473419Y-69486577D01*
X125279588Y-69545374D01*
X125279576Y-69545379D01*
X125100947Y-69640859D01*
X125100941Y-69640863D01*
X124944363Y-69769363D01*
X124815863Y-69925941D01*
X124815859Y-69925947D01*
X124720379Y-70104576D01*
X124720374Y-70104588D01*
X124661577Y-70298419D01*
X124641724Y-70500000D01*
X119840345Y-70500000D01*
X119855541Y-70465358D01*
X119913648Y-70235896D01*
X119933195Y-70000000D01*
X119913648Y-69764104D01*
X119855541Y-69534642D01*
X119760457Y-69317875D01*
X119760456Y-69317874D01*
X119760456Y-69317872D01*
X119630993Y-69119714D01*
X119470679Y-68945566D01*
X119470675Y-68945562D01*
X119283881Y-68800175D01*
X119075713Y-68687520D01*
X119075711Y-68687519D01*
X119068568Y-68685067D01*
X118928044Y-68636824D01*
X118888040Y-68604490D01*
X118878178Y-68554005D01*
X118903075Y-68508991D01*
X118951081Y-68490513D01*
X118952463Y-68490500D01*
X134547537Y-68490500D01*
X134595875Y-68508093D01*
X134621595Y-68552642D01*
X134612662Y-68603300D01*
X134573257Y-68636365D01*
X134572010Y-68636806D01*
X134481598Y-68667844D01*
X134424288Y-68687519D01*
X134424286Y-68687520D01*
X134216118Y-68800175D01*
X134029324Y-68945562D01*
X134029320Y-68945566D01*
X133869006Y-69119714D01*
X133739543Y-69317872D01*
X133739542Y-69317876D01*
X133644458Y-69534644D01*
X133586352Y-69764104D01*
X133586351Y-69764107D01*
X133566805Y-69999998D01*
X133566805Y-70000001D01*
X133580402Y-70164090D01*
X133566861Y-70213715D01*
X133524588Y-70243026D01*
X133505459Y-70245500D01*
X129318499Y-70245500D01*
X129270161Y-70227907D01*
X129244441Y-70183358D01*
X129243299Y-70170300D01*
X129243299Y-69632440D01*
X129243298Y-69632435D01*
X129232956Y-69580434D01*
X129232954Y-69580428D01*
X129193548Y-69521454D01*
X129193544Y-69521451D01*
X129134569Y-69482045D01*
X129134567Y-69482044D01*
X129082561Y-69471700D01*
X127347440Y-69471700D01*
X127347435Y-69471701D01*
X127295434Y-69482043D01*
X127295428Y-69482045D01*
X127236454Y-69521451D01*
X127197045Y-69580431D01*
X127197044Y-69580432D01*
X127186700Y-69632438D01*
X127186700Y-70672233D01*
X127169107Y-70720571D01*
X127164674Y-70725407D01*
X125754244Y-72135836D01*
X125715499Y-72229377D01*
X125715499Y-72726191D01*
X125697906Y-72774529D01*
X125654968Y-72799946D01*
X125646433Y-72801643D01*
X125646427Y-72801645D01*
X125587453Y-72841051D01*
X125548044Y-72900031D01*
X125548043Y-72900032D01*
X125537699Y-72952038D01*
X125537699Y-73300300D01*
X125520106Y-73348638D01*
X125475557Y-73374358D01*
X125462499Y-73375500D01*
X125299377Y-73375500D01*
X125205835Y-73414245D01*
X124937417Y-73682664D01*
X124890797Y-73704404D01*
X124841110Y-73691090D01*
X124811605Y-73648953D01*
X124809973Y-73641278D01*
X124797879Y-73564909D01*
X124738082Y-73447552D01*
X124738081Y-73447550D01*
X124644949Y-73354418D01*
X124527591Y-73294621D01*
X124527593Y-73294621D01*
X124478908Y-73286910D01*
X124430225Y-73279200D01*
X124430223Y-73279200D01*
X123889781Y-73279200D01*
X123889769Y-73279201D01*
X123792410Y-73294619D01*
X123675050Y-73354418D01*
X123581918Y-73447550D01*
X123522121Y-73564907D01*
X123506700Y-73662273D01*
X123506700Y-74327718D01*
X123506701Y-74327730D01*
X123522119Y-74425089D01*
X123581918Y-74542449D01*
X123675050Y-74635581D01*
X123675052Y-74635582D01*
X123792407Y-74695378D01*
X123792409Y-74695379D01*
X123889775Y-74710800D01*
X124430224Y-74710799D01*
X124436841Y-74709750D01*
X124527589Y-74695380D01*
X124527593Y-74695378D01*
X124644948Y-74635582D01*
X124738082Y-74542448D01*
X124797879Y-74425091D01*
X124813300Y-74327725D01*
X124813300Y-74324700D01*
X124830893Y-74276362D01*
X124875442Y-74250642D01*
X124888500Y-74249500D01*
X125035622Y-74249500D01*
X125035623Y-74249500D01*
X125129163Y-74210755D01*
X125409326Y-73930591D01*
X125455946Y-73908852D01*
X125505633Y-73922166D01*
X125535138Y-73964303D01*
X125537700Y-73983766D01*
X125537700Y-74307964D01*
X125548042Y-74359965D01*
X125548044Y-74359971D01*
X125587450Y-74418945D01*
X125587451Y-74418945D01*
X125587452Y-74418947D01*
X125646430Y-74458355D01*
X125698438Y-74468700D01*
X126241559Y-74468699D01*
X126267563Y-74463527D01*
X126293564Y-74458356D01*
X126293565Y-74458355D01*
X126293568Y-74458355D01*
X126293568Y-74458354D01*
X126293570Y-74458354D01*
X126336125Y-74429919D01*
X126352546Y-74418947D01*
X126382472Y-74374158D01*
X126423955Y-74343741D01*
X126475285Y-74347105D01*
X126507525Y-74374158D01*
X126537451Y-74418945D01*
X126537452Y-74418945D01*
X126537453Y-74418947D01*
X126596431Y-74458355D01*
X126648439Y-74468700D01*
X127191560Y-74468699D01*
X127217564Y-74463527D01*
X127243565Y-74458356D01*
X127243566Y-74458355D01*
X127243569Y-74458355D01*
X127243569Y-74458354D01*
X127243571Y-74458354D01*
X127286126Y-74429919D01*
X127302547Y-74418947D01*
X127332473Y-74374158D01*
X127373956Y-74343741D01*
X127425286Y-74347105D01*
X127457526Y-74374158D01*
X127487452Y-74418945D01*
X127487453Y-74418945D01*
X127487454Y-74418947D01*
X127546432Y-74458355D01*
X127598440Y-74468700D01*
X128141561Y-74468699D01*
X128167565Y-74463527D01*
X128193566Y-74458356D01*
X128193567Y-74458355D01*
X128193570Y-74458355D01*
X128193570Y-74458354D01*
X128193572Y-74458354D01*
X128243356Y-74425089D01*
X128252548Y-74418947D01*
X128291956Y-74359969D01*
X128302301Y-74307961D01*
X128302301Y-73805000D01*
X128675000Y-73805000D01*
X129400000Y-73805000D01*
X129400000Y-73017500D01*
X129900000Y-73017500D01*
X129900000Y-73805000D01*
X130624999Y-73805000D01*
X130624999Y-73705858D01*
X130614679Y-73604844D01*
X130560451Y-73441194D01*
X130469947Y-73294465D01*
X130469944Y-73294461D01*
X130348038Y-73172555D01*
X130348034Y-73172552D01*
X130201304Y-73082048D01*
X130201305Y-73082048D01*
X130037652Y-73027820D01*
X130037650Y-73027819D01*
X129936641Y-73017500D01*
X129900000Y-73017500D01*
X129400000Y-73017500D01*
X129399999Y-73017499D01*
X129363359Y-73017500D01*
X129262344Y-73027820D01*
X129098694Y-73082048D01*
X128951965Y-73172552D01*
X128951961Y-73172555D01*
X128830055Y-73294461D01*
X128830052Y-73294465D01*
X128739548Y-73441194D01*
X128685320Y-73604847D01*
X128685319Y-73604849D01*
X128675000Y-73705859D01*
X128675000Y-73805000D01*
X128302301Y-73805000D01*
X128302300Y-72952040D01*
X128302158Y-72951328D01*
X128291957Y-72900034D01*
X128291955Y-72900028D01*
X128249310Y-72836207D01*
X128237083Y-72786242D01*
X128258660Y-72741256D01*
X128433392Y-72566524D01*
X128480011Y-72544786D01*
X128486565Y-72544500D01*
X133770622Y-72544500D01*
X133770623Y-72544500D01*
X133864163Y-72505755D01*
X134919591Y-71450325D01*
X134966211Y-71428586D01*
X134972765Y-71428300D01*
X135118349Y-71428300D01*
X135118352Y-71428300D01*
X135351829Y-71389340D01*
X135542332Y-71323940D01*
X135575700Y-71312485D01*
X135575702Y-71312484D01*
X135575708Y-71312482D01*
X135783883Y-71199823D01*
X135970677Y-71054436D01*
X136130992Y-70880287D01*
X136247745Y-70701582D01*
X136260456Y-70682127D01*
X136260456Y-70682126D01*
X136260457Y-70682125D01*
X136355541Y-70465358D01*
X136413648Y-70235896D01*
X136433195Y-70000000D01*
X136413648Y-69764104D01*
X136355541Y-69534642D01*
X136260457Y-69317875D01*
X136260456Y-69317874D01*
X136260456Y-69317872D01*
X136130993Y-69119714D01*
X135970679Y-68945566D01*
X135970675Y-68945562D01*
X135783881Y-68800175D01*
X135575713Y-68687520D01*
X135575711Y-68687519D01*
X135568568Y-68685067D01*
X135428044Y-68636824D01*
X135388040Y-68604490D01*
X135378178Y-68554005D01*
X135403075Y-68508991D01*
X135451081Y-68490513D01*
X135452463Y-68490500D01*
X137044300Y-68490500D01*
X137092638Y-68508093D01*
X137118358Y-68552642D01*
X137119500Y-68565700D01*
X137119500Y-95164300D01*
X137101907Y-95212638D01*
X137057358Y-95238358D01*
X137044300Y-95239500D01*
X116765700Y-95239500D01*
X116717362Y-95221907D01*
X116691642Y-95177358D01*
X116690500Y-95164300D01*
X116690500Y-93640001D01*
X117066805Y-93640001D01*
X117086351Y-93875892D01*
X117086352Y-93875895D01*
X117144458Y-94105355D01*
X117239542Y-94322123D01*
X117239543Y-94322127D01*
X117369006Y-94520285D01*
X117529320Y-94694433D01*
X117529324Y-94694437D01*
X117716118Y-94839824D01*
X117924286Y-94952479D01*
X117924292Y-94952482D01*
X117924293Y-94952482D01*
X117924299Y-94952485D01*
X118093293Y-95010500D01*
X118148171Y-95029340D01*
X118381648Y-95068300D01*
X118381651Y-95068300D01*
X118618349Y-95068300D01*
X118618352Y-95068300D01*
X118851829Y-95029340D01*
X119003902Y-94977132D01*
X119075700Y-94952485D01*
X119075702Y-94952484D01*
X119075708Y-94952482D01*
X119283883Y-94839823D01*
X119470677Y-94694436D01*
X119630992Y-94520287D01*
X119760457Y-94322125D01*
X119855541Y-94105358D01*
X119913648Y-93875896D01*
X119933195Y-93640000D01*
X119913648Y-93404104D01*
X119855541Y-93174642D01*
X119760457Y-92957875D01*
X119760456Y-92957874D01*
X119760456Y-92957872D01*
X119630993Y-92759714D01*
X119470679Y-92585566D01*
X119470675Y-92585562D01*
X119283881Y-92440175D01*
X119075713Y-92327520D01*
X119075700Y-92327514D01*
X118851842Y-92250664D01*
X118851836Y-92250662D01*
X118851829Y-92250660D01*
X118851822Y-92250658D01*
X118851819Y-92250658D01*
X118618357Y-92211700D01*
X118618352Y-92211700D01*
X118381648Y-92211700D01*
X118381642Y-92211700D01*
X118148180Y-92250658D01*
X118148174Y-92250659D01*
X118148171Y-92250660D01*
X118148166Y-92250661D01*
X118148157Y-92250664D01*
X117924299Y-92327514D01*
X117924286Y-92327520D01*
X117716118Y-92440175D01*
X117529324Y-92585562D01*
X117529320Y-92585566D01*
X117369006Y-92759714D01*
X117239543Y-92957872D01*
X117239542Y-92957876D01*
X117144458Y-93174644D01*
X117086352Y-93404104D01*
X117086351Y-93404107D01*
X117066805Y-93639998D01*
X117066805Y-93640001D01*
X116690500Y-93640001D01*
X116690500Y-89697559D01*
X117921700Y-89697559D01*
X117921701Y-89697564D01*
X117932043Y-89749565D01*
X117932045Y-89749571D01*
X117971451Y-89808545D01*
X117971452Y-89808545D01*
X117971453Y-89808547D01*
X118030431Y-89847955D01*
X118082439Y-89858300D01*
X118670300Y-89858299D01*
X118718638Y-89875892D01*
X118744358Y-89920441D01*
X118745500Y-89933499D01*
X118745500Y-90260623D01*
X118784245Y-90354164D01*
X119539952Y-91109869D01*
X119539965Y-91109884D01*
X119615835Y-91185754D01*
X119615836Y-91185754D01*
X119615837Y-91185755D01*
X119709377Y-91224500D01*
X119709378Y-91224500D01*
X123841793Y-91224500D01*
X123890131Y-91242093D01*
X123915851Y-91286642D01*
X123906918Y-91337300D01*
X123870570Y-91369176D01*
X123822373Y-91389139D01*
X123707378Y-91477378D01*
X123619139Y-91592373D01*
X123563671Y-91726288D01*
X123563670Y-91726291D01*
X123544750Y-91870000D01*
X123563670Y-92013709D01*
X123563671Y-92013711D01*
X123619139Y-92147626D01*
X123707378Y-92262621D01*
X123822373Y-92350860D01*
X123822374Y-92350860D01*
X123822375Y-92350861D01*
X123956291Y-92406330D01*
X124100000Y-92425250D01*
X124235842Y-92407365D01*
X124286061Y-92418499D01*
X124298830Y-92428748D01*
X124965834Y-93095753D01*
X124965835Y-93095753D01*
X124965837Y-93095755D01*
X125059377Y-93134501D01*
X125059378Y-93134501D01*
X125169375Y-93134501D01*
X125169383Y-93134500D01*
X125211501Y-93134500D01*
X125259839Y-93152093D01*
X125285559Y-93196642D01*
X125286701Y-93209700D01*
X125286701Y-93381591D01*
X125289412Y-93410525D01*
X125332054Y-93532389D01*
X125332056Y-93532392D01*
X125408725Y-93636275D01*
X125512607Y-93712943D01*
X125512610Y-93712945D01*
X125541863Y-93723180D01*
X125634475Y-93755587D01*
X125663407Y-93758300D01*
X126416592Y-93758299D01*
X126445525Y-93755587D01*
X126567392Y-93712944D01*
X126671275Y-93636275D01*
X126747944Y-93532392D01*
X126790587Y-93410525D01*
X126793300Y-93381593D01*
X126793300Y-93381591D01*
X127336700Y-93381591D01*
X127339412Y-93410525D01*
X127382054Y-93532389D01*
X127382056Y-93532392D01*
X127458725Y-93636275D01*
X127562607Y-93712943D01*
X127562610Y-93712945D01*
X127591863Y-93723180D01*
X127684475Y-93755587D01*
X127713407Y-93758300D01*
X128466592Y-93758299D01*
X128495525Y-93755587D01*
X128617392Y-93712944D01*
X128721275Y-93636275D01*
X128797944Y-93532392D01*
X128840587Y-93410525D01*
X128843299Y-93381600D01*
X128843300Y-93381599D01*
X128843300Y-93209700D01*
X128860893Y-93161362D01*
X128905442Y-93135642D01*
X128918500Y-93134500D01*
X129120790Y-93134500D01*
X129169128Y-93152093D01*
X129194848Y-93196642D01*
X129195346Y-93219510D01*
X129184750Y-93300000D01*
X129203670Y-93443709D01*
X129203671Y-93443711D01*
X129259139Y-93577626D01*
X129347378Y-93692621D01*
X129462373Y-93780860D01*
X129462374Y-93780860D01*
X129462375Y-93780861D01*
X129596291Y-93836330D01*
X129740000Y-93855250D01*
X129883709Y-93836330D01*
X130017625Y-93780861D01*
X130132621Y-93692621D01*
X130172998Y-93640001D01*
X133566805Y-93640001D01*
X133586351Y-93875892D01*
X133586352Y-93875895D01*
X133644458Y-94105355D01*
X133739542Y-94322123D01*
X133739543Y-94322127D01*
X133869006Y-94520285D01*
X134029320Y-94694433D01*
X134029324Y-94694437D01*
X134216118Y-94839824D01*
X134424286Y-94952479D01*
X134424292Y-94952482D01*
X134424293Y-94952482D01*
X134424299Y-94952485D01*
X134593293Y-95010500D01*
X134648171Y-95029340D01*
X134881648Y-95068300D01*
X134881651Y-95068300D01*
X135118349Y-95068300D01*
X135118352Y-95068300D01*
X135351829Y-95029340D01*
X135503902Y-94977132D01*
X135575700Y-94952485D01*
X135575702Y-94952484D01*
X135575708Y-94952482D01*
X135783883Y-94839823D01*
X135970677Y-94694436D01*
X136130992Y-94520287D01*
X136260457Y-94322125D01*
X136355541Y-94105358D01*
X136413648Y-93875896D01*
X136433195Y-93640000D01*
X136413648Y-93404104D01*
X136355541Y-93174642D01*
X136260457Y-92957875D01*
X136260456Y-92957874D01*
X136260456Y-92957872D01*
X136130993Y-92759714D01*
X135970679Y-92585566D01*
X135970675Y-92585562D01*
X135783881Y-92440175D01*
X135575713Y-92327520D01*
X135575700Y-92327514D01*
X135351842Y-92250664D01*
X135351836Y-92250662D01*
X135351829Y-92250660D01*
X135351822Y-92250658D01*
X135351819Y-92250658D01*
X135118357Y-92211700D01*
X135118352Y-92211700D01*
X134881648Y-92211700D01*
X134881642Y-92211700D01*
X134648180Y-92250658D01*
X134648174Y-92250659D01*
X134648171Y-92250660D01*
X134648166Y-92250661D01*
X134648157Y-92250664D01*
X134424299Y-92327514D01*
X134424286Y-92327520D01*
X134216118Y-92440175D01*
X134029324Y-92585562D01*
X134029320Y-92585566D01*
X133869006Y-92759714D01*
X133739543Y-92957872D01*
X133739542Y-92957876D01*
X133644458Y-93174644D01*
X133586352Y-93404104D01*
X133586351Y-93404107D01*
X133566805Y-93639998D01*
X133566805Y-93640001D01*
X130172998Y-93640001D01*
X130220861Y-93577625D01*
X130276330Y-93443709D01*
X130295250Y-93300000D01*
X130276330Y-93156291D01*
X130220861Y-93022375D01*
X130220860Y-93022374D01*
X130220860Y-93022373D01*
X130132621Y-92907378D01*
X130017626Y-92819139D01*
X129883711Y-92763671D01*
X129883709Y-92763670D01*
X129740000Y-92744750D01*
X129739999Y-92744750D01*
X129604158Y-92762634D01*
X129553938Y-92751500D01*
X129541173Y-92741255D01*
X129464163Y-92664245D01*
X129464162Y-92664244D01*
X129370623Y-92625500D01*
X128918499Y-92625500D01*
X128870161Y-92607907D01*
X128844441Y-92563358D01*
X128843299Y-92550300D01*
X128843299Y-92378408D01*
X128840587Y-92349474D01*
X128797945Y-92227610D01*
X128797943Y-92227607D01*
X128786203Y-92211700D01*
X128721275Y-92123725D01*
X128617392Y-92047056D01*
X128617389Y-92047054D01*
X128522097Y-92013711D01*
X128495525Y-92004413D01*
X128495520Y-92004412D01*
X128495518Y-92004412D01*
X128466600Y-92001700D01*
X127713408Y-92001700D01*
X127684474Y-92004412D01*
X127562610Y-92047054D01*
X127562607Y-92047056D01*
X127458725Y-92123725D01*
X127382056Y-92227607D01*
X127382054Y-92227610D01*
X127369804Y-92262621D01*
X127339414Y-92349474D01*
X127339412Y-92349481D01*
X127336700Y-92378398D01*
X127336700Y-93381591D01*
X126793300Y-93381591D01*
X126793299Y-92378408D01*
X126790587Y-92349475D01*
X126756010Y-92250660D01*
X126747945Y-92227610D01*
X126747943Y-92227607D01*
X126736203Y-92211700D01*
X126671275Y-92123725D01*
X126567392Y-92047056D01*
X126567389Y-92047054D01*
X126472097Y-92013711D01*
X126445525Y-92004413D01*
X126445520Y-92004412D01*
X126445518Y-92004412D01*
X126416600Y-92001700D01*
X125663408Y-92001700D01*
X125634474Y-92004412D01*
X125512610Y-92047054D01*
X125512607Y-92047056D01*
X125408725Y-92123725D01*
X125332056Y-92227607D01*
X125332054Y-92227610D01*
X125319804Y-92262621D01*
X125289414Y-92349474D01*
X125289412Y-92349481D01*
X125286700Y-92378398D01*
X125286700Y-92515234D01*
X125269107Y-92563572D01*
X125224558Y-92589292D01*
X125173900Y-92580359D01*
X125158326Y-92568408D01*
X124658748Y-92068830D01*
X124637008Y-92022210D01*
X124637364Y-92005849D01*
X124655250Y-91870000D01*
X124636330Y-91726291D01*
X124580861Y-91592375D01*
X124580860Y-91592374D01*
X124580860Y-91592373D01*
X124492621Y-91477378D01*
X124377626Y-91389139D01*
X124329430Y-91369176D01*
X124291504Y-91334424D01*
X124284789Y-91283424D01*
X124312428Y-91240040D01*
X124358207Y-91224500D01*
X131150622Y-91224500D01*
X131150623Y-91224500D01*
X131244163Y-91185755D01*
X132549592Y-89880324D01*
X132596212Y-89858585D01*
X132602766Y-89858299D01*
X133417560Y-89858299D01*
X133443564Y-89853127D01*
X133469565Y-89847956D01*
X133469566Y-89847955D01*
X133469569Y-89847955D01*
X133469569Y-89847954D01*
X133469571Y-89847954D01*
X133509043Y-89821579D01*
X133528547Y-89808547D01*
X133567955Y-89749569D01*
X133578300Y-89697561D01*
X133578299Y-88780000D01*
X133957080Y-88780000D01*
X133974560Y-88968642D01*
X133975519Y-88978985D01*
X133975520Y-88978994D01*
X134030204Y-89171187D01*
X134030210Y-89171203D01*
X134119280Y-89350080D01*
X134239708Y-89509554D01*
X134239711Y-89509557D01*
X134387392Y-89644187D01*
X134557297Y-89749388D01*
X134557299Y-89749388D01*
X134557301Y-89749390D01*
X134743645Y-89821580D01*
X134940081Y-89858300D01*
X134940086Y-89858300D01*
X135139914Y-89858300D01*
X135139919Y-89858300D01*
X135336355Y-89821580D01*
X135522699Y-89749390D01*
X135692605Y-89644189D01*
X135840288Y-89509558D01*
X135960717Y-89350084D01*
X136049793Y-89171196D01*
X136100106Y-88994362D01*
X136104479Y-88978994D01*
X136104479Y-88978992D01*
X136104481Y-88978986D01*
X136122920Y-88780000D01*
X136104481Y-88581014D01*
X136104479Y-88581008D01*
X136104479Y-88581005D01*
X136053425Y-88401569D01*
X136049793Y-88388804D01*
X136030251Y-88349559D01*
X135960719Y-88209919D01*
X135840291Y-88050445D01*
X135840288Y-88050442D01*
X135692607Y-87915812D01*
X135522703Y-87810612D01*
X135522700Y-87810611D01*
X135522699Y-87810610D01*
X135455421Y-87784546D01*
X135342534Y-87740813D01*
X135303816Y-87706946D01*
X135294500Y-87670691D01*
X135294500Y-87032788D01*
X135312093Y-86984450D01*
X135356642Y-86958730D01*
X135357938Y-86958514D01*
X135425089Y-86947880D01*
X135425093Y-86947878D01*
X135542448Y-86888082D01*
X135635582Y-86794948D01*
X135695379Y-86677591D01*
X135710800Y-86580225D01*
X135710799Y-86039776D01*
X135708199Y-86023358D01*
X135695380Y-85942410D01*
X135635581Y-85825050D01*
X135542449Y-85731918D01*
X135425091Y-85672121D01*
X135425093Y-85672121D01*
X135376408Y-85664410D01*
X135327725Y-85656700D01*
X135327723Y-85656700D01*
X134762281Y-85656700D01*
X134762269Y-85656701D01*
X134664910Y-85672119D01*
X134547550Y-85731918D01*
X134454418Y-85825050D01*
X134394621Y-85942407D01*
X134379200Y-86039773D01*
X134379200Y-86580218D01*
X134379201Y-86580230D01*
X134394619Y-86677589D01*
X134454418Y-86794949D01*
X134547550Y-86888081D01*
X134547552Y-86888082D01*
X134664907Y-86947878D01*
X134664909Y-86947879D01*
X134722064Y-86956931D01*
X134767054Y-86981869D01*
X134785489Y-87029892D01*
X134785500Y-87031205D01*
X134785500Y-87670691D01*
X134767907Y-87719029D01*
X134737466Y-87740813D01*
X134571158Y-87805241D01*
X134557761Y-87810432D01*
X134557296Y-87810612D01*
X134387392Y-87915812D01*
X134239711Y-88050442D01*
X134239708Y-88050445D01*
X134119280Y-88209919D01*
X134030210Y-88388796D01*
X134030204Y-88388812D01*
X133975520Y-88581005D01*
X133975519Y-88581014D01*
X133957080Y-88780000D01*
X133578299Y-88780000D01*
X133578299Y-87862440D01*
X133567955Y-87810431D01*
X133567954Y-87810428D01*
X133528548Y-87751454D01*
X133511406Y-87740000D01*
X133469569Y-87712045D01*
X133469567Y-87712044D01*
X133417561Y-87701700D01*
X131582440Y-87701700D01*
X131582435Y-87701701D01*
X131530434Y-87712043D01*
X131530428Y-87712045D01*
X131471454Y-87751451D01*
X131432045Y-87810431D01*
X131432044Y-87810432D01*
X131421700Y-87862438D01*
X131421700Y-89697559D01*
X131421701Y-89697564D01*
X131432043Y-89749565D01*
X131432045Y-89749571D01*
X131471451Y-89808545D01*
X131471452Y-89808545D01*
X131471453Y-89808547D01*
X131530431Y-89847955D01*
X131582439Y-89858300D01*
X131670233Y-89858299D01*
X131718570Y-89875892D01*
X131744290Y-89920440D01*
X131735359Y-89971098D01*
X131723407Y-89986673D01*
X131016607Y-90693474D01*
X130969988Y-90715214D01*
X130963434Y-90715500D01*
X125085966Y-90715500D01*
X125037628Y-90697907D01*
X125011908Y-90653358D01*
X125020841Y-90602700D01*
X125032788Y-90587129D01*
X125958161Y-89661755D01*
X125958163Y-89661755D01*
X126029755Y-89590163D01*
X126068500Y-89496623D01*
X126068500Y-89238559D01*
X127096200Y-89238559D01*
X127096201Y-89238564D01*
X127106543Y-89290565D01*
X127106545Y-89290571D01*
X127145951Y-89349545D01*
X127145952Y-89349545D01*
X127145953Y-89349547D01*
X127204931Y-89388955D01*
X127256939Y-89399300D01*
X128435060Y-89399299D01*
X128461064Y-89394127D01*
X128487065Y-89388956D01*
X128487066Y-89388955D01*
X128487069Y-89388955D01*
X128487069Y-89388954D01*
X128487071Y-89388954D01*
X128545249Y-89350080D01*
X128546047Y-89349547D01*
X128585455Y-89290569D01*
X128595800Y-89238561D01*
X128595800Y-89042700D01*
X128613393Y-88994362D01*
X128657942Y-88968642D01*
X128671000Y-88967500D01*
X129173028Y-88967500D01*
X129221366Y-88985093D01*
X129247086Y-89029642D01*
X129247584Y-89052511D01*
X129234750Y-89150000D01*
X129253670Y-89293709D01*
X129269918Y-89332936D01*
X129309139Y-89427626D01*
X129397378Y-89542621D01*
X129512373Y-89630860D01*
X129512374Y-89630860D01*
X129512375Y-89630861D01*
X129646291Y-89686330D01*
X129790000Y-89705250D01*
X129933709Y-89686330D01*
X130067625Y-89630861D01*
X130182621Y-89542621D01*
X130270861Y-89427625D01*
X130326330Y-89293709D01*
X130345250Y-89150000D01*
X130326330Y-89006291D01*
X130270861Y-88872375D01*
X130270860Y-88872374D01*
X130270860Y-88872373D01*
X130182621Y-88757378D01*
X130067626Y-88669139D01*
X129933711Y-88613671D01*
X129933709Y-88613670D01*
X129790000Y-88594750D01*
X129789999Y-88594750D01*
X129654158Y-88612634D01*
X129603938Y-88601500D01*
X129591173Y-88591255D01*
X129497163Y-88497245D01*
X129497162Y-88497244D01*
X129403623Y-88458500D01*
X128670999Y-88458500D01*
X128622661Y-88440907D01*
X128596941Y-88396358D01*
X128595799Y-88383300D01*
X128595799Y-88187440D01*
X128595798Y-88187435D01*
X128585456Y-88135434D01*
X128585454Y-88135428D01*
X128546048Y-88076454D01*
X128507123Y-88050445D01*
X128487069Y-88037045D01*
X128487067Y-88037044D01*
X128435061Y-88026700D01*
X127256940Y-88026700D01*
X127256935Y-88026701D01*
X127204934Y-88037043D01*
X127204928Y-88037045D01*
X127145954Y-88076451D01*
X127106545Y-88135431D01*
X127106544Y-88135432D01*
X127096200Y-88187438D01*
X127096200Y-89238559D01*
X126068500Y-89238559D01*
X126068500Y-88585499D01*
X126086093Y-88537161D01*
X126130642Y-88511441D01*
X126143700Y-88510299D01*
X126403060Y-88510299D01*
X126429064Y-88505127D01*
X126455065Y-88499956D01*
X126455066Y-88499955D01*
X126455069Y-88499955D01*
X126455069Y-88499954D01*
X126455071Y-88499954D01*
X126484558Y-88480251D01*
X126514047Y-88460547D01*
X126553455Y-88401569D01*
X126563800Y-88349561D01*
X126563799Y-87460559D01*
X127096200Y-87460559D01*
X127096201Y-87460564D01*
X127106543Y-87512565D01*
X127106545Y-87512571D01*
X127145951Y-87571545D01*
X127145952Y-87571545D01*
X127145953Y-87571547D01*
X127204931Y-87610955D01*
X127256939Y-87621300D01*
X128435060Y-87621299D01*
X128461064Y-87616127D01*
X128487065Y-87610956D01*
X128487066Y-87610955D01*
X128487069Y-87610955D01*
X128487069Y-87610954D01*
X128487071Y-87610954D01*
X128516558Y-87591251D01*
X128546047Y-87571547D01*
X128585455Y-87512569D01*
X128595800Y-87460561D01*
X128595800Y-87264700D01*
X128613393Y-87216362D01*
X128657942Y-87190642D01*
X128671000Y-87189500D01*
X130415622Y-87189500D01*
X130415623Y-87189500D01*
X130509163Y-87150755D01*
X131099918Y-86560000D01*
X132232501Y-86560000D01*
X132232501Y-86596641D01*
X132242820Y-86697655D01*
X132297048Y-86861305D01*
X132387552Y-87008034D01*
X132387555Y-87008038D01*
X132509461Y-87129944D01*
X132509465Y-87129947D01*
X132656195Y-87220451D01*
X132656194Y-87220451D01*
X132819847Y-87274679D01*
X132819849Y-87274680D01*
X132920858Y-87284999D01*
X132969999Y-87284998D01*
X132970000Y-87284998D01*
X132970000Y-86560000D01*
X133470000Y-86560000D01*
X133470000Y-87284999D01*
X133519141Y-87284999D01*
X133620155Y-87274679D01*
X133783805Y-87220451D01*
X133930534Y-87129947D01*
X133930538Y-87129944D01*
X134052444Y-87008038D01*
X134052447Y-87008034D01*
X134142951Y-86861305D01*
X134197179Y-86697652D01*
X134197180Y-86697650D01*
X134207500Y-86596640D01*
X134207500Y-86560000D01*
X133470000Y-86560000D01*
X132970000Y-86560000D01*
X132232501Y-86560000D01*
X131099918Y-86560000D01*
X131599918Y-86060000D01*
X132232500Y-86060000D01*
X132970000Y-86060000D01*
X132970000Y-85335000D01*
X133470000Y-85335000D01*
X133470000Y-86060000D01*
X134207499Y-86060000D01*
X134207499Y-86023358D01*
X134197179Y-85922344D01*
X134142951Y-85758694D01*
X134052447Y-85611965D01*
X134052444Y-85611961D01*
X133930538Y-85490055D01*
X133930534Y-85490052D01*
X133783804Y-85399548D01*
X133783805Y-85399548D01*
X133620152Y-85345320D01*
X133620150Y-85345319D01*
X133519141Y-85335000D01*
X133470000Y-85335000D01*
X132970000Y-85335000D01*
X132970000Y-85334999D01*
X132920859Y-85335000D01*
X132819844Y-85345320D01*
X132656194Y-85399548D01*
X132509465Y-85490052D01*
X132509461Y-85490055D01*
X132387555Y-85611961D01*
X132387552Y-85611965D01*
X132297048Y-85758694D01*
X132242820Y-85922347D01*
X132242819Y-85922349D01*
X132232500Y-86023359D01*
X132232500Y-86060000D01*
X131599918Y-86060000D01*
X133398392Y-84261526D01*
X133445012Y-84239786D01*
X133451566Y-84239500D01*
X134825622Y-84239500D01*
X134825623Y-84239500D01*
X134919163Y-84200755D01*
X135710755Y-83409163D01*
X135749501Y-83315623D01*
X135749501Y-83214377D01*
X135749501Y-83208322D01*
X135749500Y-83208308D01*
X135749500Y-82991996D01*
X135767093Y-82943658D01*
X135811642Y-82917938D01*
X135812809Y-82917742D01*
X135875091Y-82907879D01*
X135992448Y-82848082D01*
X136085582Y-82754948D01*
X136145379Y-82637591D01*
X136160800Y-82540225D01*
X136160799Y-81999776D01*
X136157262Y-81977440D01*
X136145380Y-81902410D01*
X136085581Y-81785050D01*
X135992449Y-81691918D01*
X135875091Y-81632121D01*
X135875093Y-81632121D01*
X135826408Y-81624410D01*
X135777725Y-81616700D01*
X135777723Y-81616700D01*
X135212281Y-81616700D01*
X135212269Y-81616701D01*
X135114910Y-81632119D01*
X134997550Y-81691918D01*
X134904418Y-81785050D01*
X134844621Y-81902407D01*
X134829200Y-81999773D01*
X134829200Y-82540218D01*
X134829201Y-82540230D01*
X134844619Y-82637589D01*
X134904418Y-82754949D01*
X134997550Y-82848081D01*
X134997552Y-82848082D01*
X135114909Y-82907879D01*
X135177065Y-82917723D01*
X135222053Y-82942659D01*
X135240489Y-82990682D01*
X135240500Y-82991996D01*
X135240500Y-83128434D01*
X135222907Y-83176772D01*
X135218474Y-83181608D01*
X134691608Y-83708474D01*
X134644988Y-83730214D01*
X134638434Y-83730500D01*
X133264377Y-83730500D01*
X133170835Y-83769245D01*
X130281608Y-86658474D01*
X130234988Y-86680214D01*
X130228434Y-86680500D01*
X128670999Y-86680500D01*
X128622661Y-86662907D01*
X128596941Y-86618358D01*
X128595799Y-86605300D01*
X128595799Y-86409440D01*
X128595798Y-86409435D01*
X128585456Y-86357434D01*
X128585454Y-86357428D01*
X128546048Y-86298454D01*
X128543335Y-86296641D01*
X128487069Y-86259045D01*
X128487067Y-86259044D01*
X128435061Y-86248700D01*
X127256940Y-86248700D01*
X127256935Y-86248701D01*
X127204934Y-86259043D01*
X127204928Y-86259045D01*
X127145954Y-86298451D01*
X127106545Y-86357431D01*
X127106544Y-86357432D01*
X127096200Y-86409438D01*
X127096200Y-87460559D01*
X126563799Y-87460559D01*
X126563799Y-87298440D01*
X126561126Y-87284998D01*
X126553456Y-87246434D01*
X126553454Y-87246428D01*
X126514048Y-87187454D01*
X126514044Y-87187451D01*
X126455069Y-87148045D01*
X126455067Y-87148044D01*
X126403062Y-87137700D01*
X126403061Y-87137700D01*
X126143700Y-87137700D01*
X126095362Y-87120107D01*
X126069642Y-87075558D01*
X126068500Y-87062500D01*
X126068500Y-85220000D01*
X127704750Y-85220000D01*
X127723670Y-85363709D01*
X127727154Y-85372121D01*
X127779139Y-85497626D01*
X127867378Y-85612621D01*
X127982373Y-85700860D01*
X127982374Y-85700860D01*
X127982375Y-85700861D01*
X128116291Y-85756330D01*
X128260000Y-85775250D01*
X128403709Y-85756330D01*
X128537625Y-85700861D01*
X128652621Y-85612621D01*
X128740861Y-85497625D01*
X128796330Y-85363709D01*
X128815250Y-85220000D01*
X128796330Y-85076291D01*
X128740861Y-84942375D01*
X128740860Y-84942374D01*
X128740860Y-84942373D01*
X128652621Y-84827378D01*
X128543921Y-84743970D01*
X128516283Y-84700586D01*
X128514500Y-84684310D01*
X128514500Y-84556565D01*
X128532093Y-84508227D01*
X128536526Y-84503391D01*
X129173391Y-83866526D01*
X129220011Y-83844786D01*
X129226565Y-83844500D01*
X129386501Y-83844500D01*
X129434839Y-83862093D01*
X129460559Y-83906642D01*
X129461701Y-83919700D01*
X129461701Y-83932564D01*
X129472043Y-83984565D01*
X129472045Y-83984571D01*
X129511451Y-84043545D01*
X129511452Y-84043545D01*
X129511453Y-84043547D01*
X129570431Y-84082955D01*
X129622439Y-84093300D01*
X131357560Y-84093299D01*
X131383564Y-84088127D01*
X131409565Y-84082956D01*
X131409566Y-84082955D01*
X131409569Y-84082955D01*
X131409569Y-84082954D01*
X131409571Y-84082954D01*
X131439058Y-84063251D01*
X131468547Y-84043547D01*
X131507955Y-83984569D01*
X131518300Y-83932561D01*
X131518299Y-83247440D01*
X131507955Y-83195431D01*
X131507954Y-83195428D01*
X131468548Y-83136454D01*
X131468544Y-83136451D01*
X131409569Y-83097045D01*
X131409567Y-83097044D01*
X131357561Y-83086700D01*
X129622440Y-83086700D01*
X129622435Y-83086701D01*
X129570434Y-83097043D01*
X129570428Y-83097045D01*
X129511454Y-83136451D01*
X129472045Y-83195431D01*
X129472044Y-83195432D01*
X129461700Y-83247438D01*
X129461700Y-83260300D01*
X129444107Y-83308638D01*
X129399558Y-83334358D01*
X129386500Y-83335500D01*
X129039377Y-83335500D01*
X128945837Y-83374244D01*
X128910919Y-83409163D01*
X128874245Y-83445837D01*
X128874244Y-83445838D01*
X128105260Y-84214821D01*
X128044245Y-84275835D01*
X128005500Y-84369376D01*
X128005500Y-84684310D01*
X127987907Y-84732648D01*
X127976079Y-84743970D01*
X127867378Y-84827378D01*
X127779139Y-84942373D01*
X127736498Y-85045320D01*
X127723670Y-85076291D01*
X127704750Y-85220000D01*
X126068500Y-85220000D01*
X126068500Y-84702566D01*
X126086093Y-84654228D01*
X126090526Y-84649392D01*
X128077359Y-82662559D01*
X129461700Y-82662559D01*
X129461701Y-82662564D01*
X129472043Y-82714565D01*
X129472045Y-82714571D01*
X129511451Y-82773545D01*
X129511452Y-82773545D01*
X129511453Y-82773547D01*
X129570431Y-82812955D01*
X129622439Y-82823300D01*
X131357560Y-82823299D01*
X131383564Y-82818127D01*
X131409565Y-82812956D01*
X131409566Y-82812955D01*
X131409569Y-82812955D01*
X131409569Y-82812954D01*
X131409571Y-82812954D01*
X131439058Y-82793251D01*
X131468547Y-82773547D01*
X131507955Y-82714569D01*
X131518300Y-82662561D01*
X131518300Y-82599700D01*
X131535893Y-82551362D01*
X131580442Y-82525642D01*
X131593500Y-82524500D01*
X132937483Y-82524500D01*
X132985821Y-82542093D01*
X133011541Y-82586642D01*
X133011757Y-82587938D01*
X133019619Y-82637589D01*
X133079418Y-82754949D01*
X133172550Y-82848081D01*
X133172552Y-82848082D01*
X133289907Y-82907878D01*
X133289909Y-82907879D01*
X133387275Y-82923300D01*
X133952724Y-82923299D01*
X133959341Y-82922250D01*
X134050089Y-82907880D01*
X134051074Y-82907378D01*
X134167448Y-82848082D01*
X134260582Y-82754948D01*
X134320379Y-82637591D01*
X134335800Y-82540225D01*
X134335799Y-81999776D01*
X134332262Y-81977440D01*
X134320380Y-81902410D01*
X134260581Y-81785050D01*
X134167449Y-81691918D01*
X134050091Y-81632121D01*
X134050093Y-81632121D01*
X134001408Y-81624410D01*
X133952725Y-81616700D01*
X133952723Y-81616700D01*
X133387281Y-81616700D01*
X133387269Y-81616701D01*
X133289910Y-81632119D01*
X133172550Y-81691918D01*
X133079418Y-81785050D01*
X133019621Y-81902407D01*
X133011757Y-81952063D01*
X132986819Y-81997054D01*
X132938796Y-82015489D01*
X132937483Y-82015500D01*
X131587585Y-82015500D01*
X131539247Y-81997907D01*
X131513829Y-81954969D01*
X131507955Y-81925431D01*
X131507954Y-81925429D01*
X131507954Y-81925428D01*
X131468548Y-81866454D01*
X131468544Y-81866451D01*
X131409569Y-81827045D01*
X131409567Y-81827044D01*
X131357561Y-81816700D01*
X129622440Y-81816700D01*
X129622435Y-81816701D01*
X129570434Y-81827043D01*
X129570428Y-81827045D01*
X129511454Y-81866451D01*
X129472045Y-81925431D01*
X129472044Y-81925432D01*
X129461700Y-81977438D01*
X129461700Y-82662559D01*
X128077359Y-82662559D01*
X129185754Y-81554164D01*
X129185755Y-81554163D01*
X129224500Y-81460623D01*
X129224500Y-81392559D01*
X129461700Y-81392559D01*
X129461701Y-81392564D01*
X129472043Y-81444565D01*
X129472045Y-81444571D01*
X129511451Y-81503545D01*
X129511452Y-81503545D01*
X129511453Y-81503547D01*
X129570431Y-81542955D01*
X129622439Y-81553300D01*
X131357560Y-81553299D01*
X131383564Y-81548127D01*
X131409565Y-81542956D01*
X131409566Y-81542955D01*
X131409569Y-81542955D01*
X131409569Y-81542954D01*
X131409571Y-81542954D01*
X131441580Y-81521566D01*
X131468547Y-81503547D01*
X131507955Y-81444569D01*
X131518300Y-81392561D01*
X131518300Y-81379700D01*
X131535893Y-81331362D01*
X131580442Y-81305642D01*
X131593500Y-81304500D01*
X132340622Y-81304500D01*
X132340623Y-81304500D01*
X132434163Y-81265755D01*
X132995755Y-80704163D01*
X133034501Y-80610623D01*
X133034501Y-80509377D01*
X133034501Y-80503322D01*
X133034500Y-80503308D01*
X133034500Y-79949377D01*
X132995755Y-79855837D01*
X132995754Y-79855836D01*
X132995754Y-79855835D01*
X132919884Y-79779965D01*
X132919869Y-79779952D01*
X131758748Y-78618830D01*
X131737008Y-78572210D01*
X131737364Y-78555849D01*
X131755250Y-78420000D01*
X131736330Y-78276291D01*
X131680861Y-78142375D01*
X131680860Y-78142374D01*
X131680860Y-78142373D01*
X131592621Y-78027378D01*
X131477626Y-77939139D01*
X131343711Y-77883671D01*
X131343709Y-77883670D01*
X131200000Y-77864750D01*
X131056291Y-77883670D01*
X131056288Y-77883670D01*
X131056288Y-77883671D01*
X130922373Y-77939139D01*
X130807378Y-78027378D01*
X130719139Y-78142373D01*
X130669051Y-78263299D01*
X130663670Y-78276291D01*
X130644750Y-78420000D01*
X130663670Y-78563709D01*
X130673248Y-78586833D01*
X130719139Y-78697626D01*
X130807378Y-78812621D01*
X130922373Y-78900860D01*
X130922374Y-78900860D01*
X130922375Y-78900861D01*
X131056291Y-78956330D01*
X131200000Y-78975250D01*
X131335842Y-78957365D01*
X131386061Y-78968499D01*
X131398830Y-78978748D01*
X132503474Y-80083391D01*
X132525214Y-80130011D01*
X132525500Y-80136565D01*
X132525500Y-80423434D01*
X132507907Y-80471772D01*
X132503474Y-80476608D01*
X132206608Y-80773474D01*
X132159988Y-80795214D01*
X132153434Y-80795500D01*
X131593499Y-80795500D01*
X131545161Y-80777907D01*
X131519441Y-80733358D01*
X131518299Y-80720300D01*
X131518299Y-80707440D01*
X131518298Y-80707435D01*
X131507956Y-80655434D01*
X131507954Y-80655428D01*
X131468548Y-80596454D01*
X131468544Y-80596451D01*
X131409569Y-80557045D01*
X131409567Y-80557044D01*
X131357561Y-80546700D01*
X129622440Y-80546700D01*
X129622435Y-80546701D01*
X129570434Y-80557043D01*
X129570428Y-80557045D01*
X129511454Y-80596451D01*
X129472045Y-80655431D01*
X129472044Y-80655432D01*
X129461700Y-80707438D01*
X129461700Y-81392559D01*
X129224500Y-81392559D01*
X129224500Y-81359377D01*
X129224500Y-80122559D01*
X129461700Y-80122559D01*
X129461701Y-80122564D01*
X129472043Y-80174565D01*
X129472045Y-80174571D01*
X129511451Y-80233545D01*
X129511452Y-80233545D01*
X129511453Y-80233547D01*
X129570431Y-80272955D01*
X129622439Y-80283300D01*
X131357560Y-80283299D01*
X131383796Y-80278081D01*
X131409565Y-80272956D01*
X131409566Y-80272955D01*
X131409569Y-80272955D01*
X131409569Y-80272954D01*
X131409571Y-80272954D01*
X131441970Y-80251305D01*
X131468547Y-80233547D01*
X131507955Y-80174569D01*
X131518300Y-80122561D01*
X131518299Y-79437440D01*
X131507955Y-79385431D01*
X131507954Y-79385428D01*
X131468548Y-79326454D01*
X131466998Y-79325418D01*
X131409569Y-79287045D01*
X131409567Y-79287044D01*
X131357561Y-79276700D01*
X129622440Y-79276700D01*
X129622435Y-79276701D01*
X129570434Y-79287043D01*
X129570428Y-79287045D01*
X129511454Y-79326451D01*
X129472045Y-79385431D01*
X129472044Y-79385432D01*
X129461700Y-79437438D01*
X129461700Y-80122559D01*
X129224500Y-80122559D01*
X129224500Y-79356565D01*
X129242093Y-79308227D01*
X129246515Y-79303402D01*
X130759916Y-77790000D01*
X132227501Y-77790000D01*
X132227501Y-77826641D01*
X132237820Y-77927655D01*
X132292048Y-78091305D01*
X132382552Y-78238034D01*
X132382555Y-78238038D01*
X132504461Y-78359944D01*
X132504465Y-78359947D01*
X132651195Y-78450451D01*
X132651194Y-78450451D01*
X132814847Y-78504679D01*
X132814849Y-78504680D01*
X132915858Y-78514999D01*
X132964999Y-78514998D01*
X132965000Y-78514998D01*
X132965000Y-77790000D01*
X133465000Y-77790000D01*
X133465000Y-78514999D01*
X133514141Y-78514999D01*
X133615155Y-78504679D01*
X133778805Y-78450451D01*
X133925534Y-78359947D01*
X133925538Y-78359944D01*
X134047444Y-78238038D01*
X134047447Y-78238034D01*
X134137951Y-78091305D01*
X134192179Y-77927652D01*
X134192180Y-77927650D01*
X134202500Y-77826640D01*
X134202500Y-77790000D01*
X133465000Y-77790000D01*
X132965000Y-77790000D01*
X132227501Y-77790000D01*
X130759916Y-77790000D01*
X131259916Y-77290000D01*
X132227500Y-77290000D01*
X132965000Y-77290000D01*
X132965000Y-76565000D01*
X133465000Y-76565000D01*
X133465000Y-77290000D01*
X134202499Y-77290000D01*
X134202499Y-77253358D01*
X134192179Y-77152344D01*
X134137951Y-76988694D01*
X134047447Y-76841965D01*
X134047444Y-76841961D01*
X133925538Y-76720055D01*
X133925534Y-76720052D01*
X133778804Y-76629548D01*
X133778805Y-76629548D01*
X133615152Y-76575320D01*
X133615150Y-76575319D01*
X133514141Y-76565000D01*
X133465000Y-76565000D01*
X132965000Y-76565000D01*
X132965000Y-76564999D01*
X132915859Y-76565000D01*
X132814844Y-76575320D01*
X132651194Y-76629548D01*
X132504465Y-76720052D01*
X132504461Y-76720055D01*
X132382555Y-76841961D01*
X132382552Y-76841965D01*
X132292048Y-76988694D01*
X132237820Y-77152347D01*
X132237819Y-77152349D01*
X132227500Y-77253359D01*
X132227500Y-77290000D01*
X131259916Y-77290000D01*
X132449592Y-76100324D01*
X132496212Y-76078585D01*
X132502766Y-76078299D01*
X133417560Y-76078299D01*
X133443942Y-76073052D01*
X133469565Y-76067956D01*
X133469566Y-76067955D01*
X133469569Y-76067955D01*
X133469569Y-76067954D01*
X133469571Y-76067954D01*
X133518424Y-76035311D01*
X133528547Y-76028547D01*
X133567955Y-75969569D01*
X133578300Y-75917561D01*
X133578300Y-75000002D01*
X133957080Y-75000002D01*
X133963029Y-75064200D01*
X133973069Y-75172552D01*
X133975519Y-75198985D01*
X133975520Y-75198994D01*
X134030204Y-75391187D01*
X134030210Y-75391203D01*
X134119280Y-75570080D01*
X134239708Y-75729554D01*
X134239711Y-75729557D01*
X134387392Y-75864187D01*
X134557297Y-75969388D01*
X134557299Y-75969388D01*
X134557301Y-75969390D01*
X134737466Y-76039186D01*
X134776183Y-76073052D01*
X134785500Y-76109307D01*
X134785500Y-76818003D01*
X134767907Y-76866341D01*
X134723358Y-76892061D01*
X134722063Y-76892277D01*
X134659910Y-76902119D01*
X134542550Y-76961918D01*
X134449418Y-77055050D01*
X134389621Y-77172407D01*
X134374200Y-77269773D01*
X134374200Y-77810218D01*
X134374201Y-77810230D01*
X134389619Y-77907589D01*
X134449418Y-78024949D01*
X134542550Y-78118081D01*
X134542552Y-78118082D01*
X134659907Y-78177878D01*
X134659909Y-78177879D01*
X134757275Y-78193300D01*
X135322724Y-78193299D01*
X135329341Y-78192250D01*
X135420089Y-78177880D01*
X135452619Y-78161305D01*
X135537448Y-78118082D01*
X135630582Y-78024948D01*
X135690379Y-77907591D01*
X135705800Y-77810225D01*
X135705799Y-77269776D01*
X135701465Y-77242407D01*
X135690380Y-77172410D01*
X135630581Y-77055050D01*
X135537449Y-76961918D01*
X135420091Y-76902121D01*
X135420093Y-76902121D01*
X135383363Y-76896303D01*
X135357935Y-76892276D01*
X135312946Y-76867339D01*
X135294511Y-76819316D01*
X135294500Y-76818003D01*
X135294500Y-76109307D01*
X135312093Y-76060969D01*
X135342532Y-76039186D01*
X135522699Y-75969390D01*
X135692605Y-75864189D01*
X135840288Y-75729558D01*
X135960717Y-75570084D01*
X136049793Y-75391196D01*
X136104481Y-75198986D01*
X136122920Y-75000000D01*
X136104481Y-74801014D01*
X136104479Y-74801008D01*
X136104479Y-74801005D01*
X136057412Y-74635582D01*
X136049793Y-74608804D01*
X135998182Y-74505155D01*
X135960719Y-74429919D01*
X135952433Y-74418947D01*
X135883546Y-74327725D01*
X135840291Y-74270445D01*
X135840288Y-74270442D01*
X135692607Y-74135812D01*
X135522702Y-74030611D01*
X135336356Y-73958420D01*
X135303615Y-73952300D01*
X135139919Y-73921700D01*
X134940081Y-73921700D01*
X134809123Y-73946180D01*
X134743643Y-73958420D01*
X134557298Y-74030611D01*
X134557297Y-74030611D01*
X134387392Y-74135812D01*
X134239711Y-74270442D01*
X134239708Y-74270445D01*
X134119280Y-74429919D01*
X134030210Y-74608796D01*
X134030204Y-74608812D01*
X133975520Y-74801005D01*
X133975519Y-74801014D01*
X133957080Y-74999997D01*
X133957080Y-75000002D01*
X133578300Y-75000002D01*
X133578299Y-74082440D01*
X133567955Y-74030431D01*
X133567954Y-74030428D01*
X133528548Y-73971454D01*
X133517846Y-73964303D01*
X133469569Y-73932045D01*
X133469567Y-73932044D01*
X133417561Y-73921700D01*
X131582440Y-73921700D01*
X131582435Y-73921701D01*
X131530434Y-73932043D01*
X131530428Y-73932045D01*
X131471454Y-73971451D01*
X131432045Y-74030431D01*
X131432044Y-74030432D01*
X131421700Y-74082438D01*
X131421700Y-75917559D01*
X131421701Y-75917564D01*
X131432043Y-75969565D01*
X131432045Y-75969571D01*
X131471451Y-76028545D01*
X131471452Y-76028545D01*
X131471453Y-76028547D01*
X131530431Y-76067955D01*
X131582439Y-76078300D01*
X131582441Y-76078299D01*
X131585699Y-76078948D01*
X131629676Y-76105633D01*
X131646211Y-76154343D01*
X131627568Y-76202285D01*
X131624203Y-76205877D01*
X129838711Y-77991370D01*
X129792091Y-78013110D01*
X129742404Y-77999796D01*
X129712899Y-77957659D01*
X129710980Y-77928386D01*
X129725250Y-77820000D01*
X129707365Y-77684155D01*
X129718499Y-77633936D01*
X129728743Y-77621172D01*
X129794161Y-77555755D01*
X129794163Y-77555755D01*
X129865755Y-77484163D01*
X129882528Y-77443670D01*
X129904501Y-77390623D01*
X129904501Y-77289376D01*
X129904501Y-77283321D01*
X129904500Y-77283307D01*
X129904500Y-76562517D01*
X129922093Y-76514179D01*
X129966642Y-76488459D01*
X129967938Y-76488243D01*
X130017589Y-76480380D01*
X130017593Y-76480378D01*
X130134948Y-76420582D01*
X130228082Y-76327448D01*
X130287879Y-76210091D01*
X130303300Y-76112725D01*
X130303299Y-75447276D01*
X130300857Y-75431854D01*
X130287880Y-75349910D01*
X130228081Y-75232550D01*
X130153949Y-75158418D01*
X130132209Y-75111798D01*
X130145523Y-75062111D01*
X130183472Y-75033860D01*
X130201306Y-75027951D01*
X130348034Y-74937447D01*
X130348038Y-74937444D01*
X130469944Y-74815538D01*
X130469947Y-74815534D01*
X130560451Y-74668805D01*
X130614679Y-74505152D01*
X130614680Y-74505150D01*
X130625000Y-74404140D01*
X130625000Y-74305000D01*
X128675001Y-74305000D01*
X128675001Y-74404141D01*
X128685320Y-74505155D01*
X128739548Y-74668805D01*
X128830052Y-74815534D01*
X128830055Y-74815538D01*
X128951961Y-74937444D01*
X128951965Y-74937447D01*
X129098693Y-75027950D01*
X129116528Y-75033860D01*
X129156879Y-75065764D01*
X129167282Y-75116141D01*
X129146051Y-75158418D01*
X129071917Y-75232552D01*
X129012121Y-75349907D01*
X128996700Y-75447273D01*
X128996700Y-76112718D01*
X128996701Y-76112730D01*
X129012119Y-76210089D01*
X129071918Y-76327449D01*
X129165050Y-76420581D01*
X129165052Y-76420582D01*
X129282409Y-76480379D01*
X129332063Y-76488243D01*
X129377054Y-76513181D01*
X129395489Y-76561204D01*
X129395500Y-76562517D01*
X129395500Y-77203434D01*
X129377907Y-77251772D01*
X129373479Y-77256602D01*
X129368825Y-77261257D01*
X129322202Y-77282992D01*
X129305840Y-77282634D01*
X129170000Y-77264750D01*
X129026291Y-77283670D01*
X129026288Y-77283670D01*
X129026288Y-77283671D01*
X128892373Y-77339139D01*
X128777378Y-77427378D01*
X128689139Y-77542373D01*
X128643249Y-77653165D01*
X128633670Y-77676291D01*
X128614750Y-77820000D01*
X128633670Y-77963709D01*
X128640418Y-77980000D01*
X128689139Y-78097626D01*
X128777378Y-78212621D01*
X128892373Y-78300860D01*
X128892374Y-78300860D01*
X128892375Y-78300861D01*
X129026291Y-78356330D01*
X129170000Y-78375250D01*
X129278383Y-78360980D01*
X129328600Y-78372114D01*
X129359915Y-78412923D01*
X129357672Y-78464314D01*
X129341370Y-78488711D01*
X129040534Y-78789548D01*
X128825837Y-79004245D01*
X128790040Y-79040041D01*
X128754244Y-79075837D01*
X128715500Y-79169376D01*
X128715500Y-81273434D01*
X128697907Y-81321772D01*
X128693474Y-81326608D01*
X125669837Y-84350245D01*
X125650706Y-84369376D01*
X125598244Y-84421837D01*
X125559500Y-84515376D01*
X125559500Y-87062500D01*
X125541907Y-87110838D01*
X125497358Y-87136558D01*
X125484300Y-87137700D01*
X125224940Y-87137700D01*
X125224935Y-87137701D01*
X125172934Y-87148043D01*
X125172928Y-87148045D01*
X125113954Y-87187451D01*
X125074545Y-87246431D01*
X125074544Y-87246432D01*
X125064200Y-87298438D01*
X125064200Y-88349559D01*
X125064201Y-88349564D01*
X125074543Y-88401565D01*
X125074545Y-88401571D01*
X125113951Y-88460545D01*
X125113952Y-88460545D01*
X125113953Y-88460547D01*
X125172931Y-88499955D01*
X125224939Y-88510300D01*
X125484300Y-88510299D01*
X125532637Y-88527892D01*
X125558357Y-88572440D01*
X125559500Y-88585499D01*
X125559500Y-89309434D01*
X125541907Y-89357772D01*
X125537474Y-89362608D01*
X124206608Y-90693474D01*
X124159988Y-90715214D01*
X124153434Y-90715500D01*
X119896565Y-90715500D01*
X119848227Y-90697907D01*
X119843391Y-90693474D01*
X119276526Y-90126608D01*
X119254786Y-90079988D01*
X119254500Y-90073434D01*
X119254500Y-89933499D01*
X119272093Y-89885161D01*
X119316642Y-89859441D01*
X119329700Y-89858299D01*
X119917560Y-89858299D01*
X119943564Y-89853127D01*
X119969565Y-89847956D01*
X119969566Y-89847955D01*
X119969569Y-89847955D01*
X119969569Y-89847954D01*
X119969571Y-89847954D01*
X120009043Y-89821579D01*
X120028547Y-89808547D01*
X120067955Y-89749569D01*
X120078300Y-89697561D01*
X120078299Y-87862440D01*
X120067955Y-87810431D01*
X120067954Y-87810428D01*
X120028548Y-87751454D01*
X120011406Y-87740000D01*
X119969569Y-87712045D01*
X119969567Y-87712044D01*
X119917561Y-87701700D01*
X118082440Y-87701700D01*
X118082435Y-87701701D01*
X118030434Y-87712043D01*
X118030428Y-87712045D01*
X117971454Y-87751451D01*
X117932045Y-87810431D01*
X117932044Y-87810432D01*
X117921700Y-87862438D01*
X117921700Y-89697559D01*
X116690500Y-89697559D01*
X116690500Y-86260000D01*
X118737501Y-86260000D01*
X118737501Y-86296641D01*
X118747820Y-86397655D01*
X118802048Y-86561305D01*
X118892552Y-86708034D01*
X118892555Y-86708038D01*
X119014461Y-86829944D01*
X119014465Y-86829947D01*
X119161195Y-86920451D01*
X119161194Y-86920451D01*
X119324847Y-86974679D01*
X119324849Y-86974680D01*
X119425858Y-86984999D01*
X119474999Y-86984998D01*
X119475000Y-86984998D01*
X119475000Y-86260000D01*
X119975000Y-86260000D01*
X119975000Y-86984999D01*
X120024141Y-86984999D01*
X120125155Y-86974679D01*
X120288805Y-86920451D01*
X120435534Y-86829947D01*
X120435538Y-86829944D01*
X120557444Y-86708038D01*
X120557447Y-86708034D01*
X120647951Y-86561305D01*
X120702179Y-86397652D01*
X120702180Y-86397650D01*
X120712500Y-86296640D01*
X120712500Y-86260000D01*
X119975000Y-86260000D01*
X119475000Y-86260000D01*
X118737501Y-86260000D01*
X116690500Y-86260000D01*
X116690500Y-85760000D01*
X118737500Y-85760000D01*
X119475000Y-85760000D01*
X119475000Y-85035000D01*
X119975000Y-85035000D01*
X119975000Y-85760000D01*
X120712499Y-85760000D01*
X120712499Y-85723358D01*
X120702179Y-85622344D01*
X120647951Y-85458694D01*
X120557447Y-85311965D01*
X120557444Y-85311961D01*
X120435538Y-85190055D01*
X120435534Y-85190052D01*
X120288804Y-85099548D01*
X120288805Y-85099548D01*
X120125152Y-85045320D01*
X120125150Y-85045319D01*
X120024141Y-85035000D01*
X119975000Y-85035000D01*
X119475000Y-85035000D01*
X119475000Y-85034999D01*
X119425859Y-85035000D01*
X119324844Y-85045320D01*
X119161194Y-85099548D01*
X119014465Y-85190052D01*
X119014461Y-85190055D01*
X118892555Y-85311961D01*
X118892552Y-85311965D01*
X118802048Y-85458694D01*
X118747820Y-85622347D01*
X118747819Y-85622349D01*
X118737500Y-85723359D01*
X118737500Y-85760000D01*
X116690500Y-85760000D01*
X116690500Y-83300000D01*
X116844750Y-83300000D01*
X116863670Y-83443709D01*
X116864552Y-83445838D01*
X116919139Y-83577626D01*
X117007378Y-83692621D01*
X117122373Y-83780860D01*
X117122374Y-83780860D01*
X117122375Y-83780861D01*
X117256291Y-83836330D01*
X117400000Y-83855250D01*
X117543709Y-83836330D01*
X117677625Y-83780861D01*
X117792621Y-83692621D01*
X117880861Y-83577625D01*
X117936330Y-83443709D01*
X117955250Y-83300000D01*
X117936330Y-83156291D01*
X117880861Y-83022375D01*
X117858781Y-82993600D01*
X117843314Y-82944543D01*
X117862998Y-82897018D01*
X117865240Y-82894676D01*
X117940659Y-82819257D01*
X117987278Y-82797519D01*
X118036965Y-82810833D01*
X118060835Y-82838292D01*
X118074416Y-82864946D01*
X118074418Y-82864949D01*
X118167550Y-82958081D01*
X118167552Y-82958082D01*
X118284907Y-83017878D01*
X118284909Y-83017879D01*
X118382275Y-83033300D01*
X118947724Y-83033299D01*
X118954341Y-83032250D01*
X119045089Y-83017880D01*
X119051997Y-83014360D01*
X119162448Y-82958082D01*
X119255582Y-82864948D01*
X119315379Y-82747591D01*
X119330800Y-82650225D01*
X119330800Y-82650218D01*
X119824200Y-82650218D01*
X119824201Y-82650230D01*
X119839619Y-82747589D01*
X119899418Y-82864949D01*
X119992550Y-82958081D01*
X119992552Y-82958082D01*
X120109907Y-83017878D01*
X120109909Y-83017879D01*
X120207275Y-83033300D01*
X120213421Y-83033299D01*
X120261758Y-83050887D01*
X120268985Y-83058947D01*
X120269007Y-83058926D01*
X122111251Y-84901169D01*
X122132991Y-84947789D01*
X122132634Y-84964158D01*
X122114750Y-85099999D01*
X122114750Y-85100000D01*
X122133670Y-85243709D01*
X122133670Y-85243711D01*
X122133671Y-85243712D01*
X122183044Y-85362912D01*
X122185287Y-85414303D01*
X122153972Y-85455112D01*
X122103752Y-85466246D01*
X122060394Y-85444863D01*
X122047449Y-85431918D01*
X121930091Y-85372121D01*
X121930093Y-85372121D01*
X121876979Y-85363709D01*
X121832725Y-85356700D01*
X121832723Y-85356700D01*
X121267281Y-85356700D01*
X121267269Y-85356701D01*
X121169910Y-85372119D01*
X121052550Y-85431918D01*
X120959418Y-85525050D01*
X120899621Y-85642407D01*
X120884200Y-85739773D01*
X120884200Y-86280218D01*
X120884201Y-86280230D01*
X120899619Y-86377589D01*
X120959418Y-86494949D01*
X121052550Y-86588081D01*
X121052552Y-86588082D01*
X121169907Y-86647878D01*
X121169909Y-86647879D01*
X121222065Y-86656139D01*
X121267054Y-86681077D01*
X121285489Y-86729100D01*
X121285500Y-86730413D01*
X121285500Y-87670691D01*
X121267907Y-87719029D01*
X121237466Y-87740813D01*
X121071158Y-87805241D01*
X121057761Y-87810432D01*
X121057296Y-87810612D01*
X120887392Y-87915812D01*
X120739711Y-88050442D01*
X120739708Y-88050445D01*
X120619280Y-88209919D01*
X120530210Y-88388796D01*
X120530204Y-88388812D01*
X120475520Y-88581005D01*
X120475519Y-88581014D01*
X120457080Y-88780000D01*
X120474560Y-88968642D01*
X120475519Y-88978985D01*
X120475520Y-88978994D01*
X120530204Y-89171187D01*
X120530210Y-89171203D01*
X120619280Y-89350080D01*
X120739708Y-89509554D01*
X120739711Y-89509557D01*
X120887392Y-89644187D01*
X121057297Y-89749388D01*
X121057299Y-89749388D01*
X121057301Y-89749390D01*
X121243645Y-89821580D01*
X121440081Y-89858300D01*
X121440086Y-89858300D01*
X121639914Y-89858300D01*
X121639919Y-89858300D01*
X121836355Y-89821580D01*
X122022699Y-89749390D01*
X122192605Y-89644189D01*
X122340288Y-89509558D01*
X122460717Y-89350084D01*
X122549793Y-89171196D01*
X122600106Y-88994362D01*
X122604479Y-88978994D01*
X122604479Y-88978992D01*
X122604481Y-88978986D01*
X122622920Y-88780000D01*
X122604481Y-88581014D01*
X122604479Y-88581008D01*
X122604479Y-88581005D01*
X122553425Y-88401569D01*
X122549793Y-88388804D01*
X122530251Y-88349559D01*
X122460719Y-88209919D01*
X122340291Y-88050445D01*
X122340288Y-88050442D01*
X122192607Y-87915812D01*
X122022703Y-87810612D01*
X122022700Y-87810611D01*
X122022699Y-87810610D01*
X121955421Y-87784546D01*
X121842534Y-87740813D01*
X121803816Y-87706946D01*
X121794500Y-87670691D01*
X121794500Y-86733580D01*
X121812093Y-86685242D01*
X121856642Y-86659522D01*
X121857938Y-86659306D01*
X121930089Y-86647880D01*
X121930093Y-86647878D01*
X122047448Y-86588082D01*
X122140582Y-86494948D01*
X122200379Y-86377591D01*
X122215800Y-86280225D01*
X122215799Y-85739776D01*
X122213199Y-85723358D01*
X122200380Y-85642409D01*
X122176510Y-85595564D01*
X122170240Y-85544508D01*
X122198256Y-85501366D01*
X122247447Y-85486326D01*
X122289292Y-85501763D01*
X122392373Y-85580860D01*
X122392374Y-85580860D01*
X122392375Y-85580861D01*
X122526291Y-85636330D01*
X122670000Y-85655250D01*
X122813709Y-85636330D01*
X122947625Y-85580861D01*
X123062621Y-85492621D01*
X123150861Y-85377625D01*
X123206330Y-85243709D01*
X123214051Y-85185056D01*
X123237804Y-85139431D01*
X123285328Y-85119746D01*
X123334387Y-85135214D01*
X123341782Y-85141700D01*
X123783474Y-85583392D01*
X123805214Y-85630012D01*
X123805500Y-85636566D01*
X123805500Y-87204310D01*
X123787907Y-87252648D01*
X123776079Y-87263970D01*
X123667378Y-87347378D01*
X123579139Y-87462373D01*
X123523671Y-87596288D01*
X123523670Y-87596291D01*
X123504750Y-87740000D01*
X123523670Y-87883709D01*
X123523671Y-87883711D01*
X123579139Y-88017626D01*
X123667378Y-88132621D01*
X123782373Y-88220860D01*
X123782374Y-88220860D01*
X123782375Y-88220861D01*
X123916291Y-88276330D01*
X124060000Y-88295250D01*
X124203709Y-88276330D01*
X124337625Y-88220861D01*
X124452621Y-88132621D01*
X124540861Y-88017625D01*
X124596330Y-87883709D01*
X124615250Y-87740000D01*
X124596330Y-87596291D01*
X124540861Y-87462375D01*
X124540860Y-87462374D01*
X124540860Y-87462373D01*
X124452621Y-87347378D01*
X124343921Y-87263970D01*
X124316283Y-87220586D01*
X124314500Y-87204310D01*
X124314500Y-85559383D01*
X124314501Y-85559374D01*
X124314501Y-85449378D01*
X124307269Y-85431918D01*
X124275755Y-85355837D01*
X124275753Y-85355835D01*
X124275753Y-85355834D01*
X123466526Y-84546607D01*
X123444786Y-84499987D01*
X123444500Y-84493433D01*
X123444500Y-84168499D01*
X123462093Y-84120161D01*
X123506642Y-84094441D01*
X123519700Y-84093299D01*
X124057560Y-84093299D01*
X124083564Y-84088127D01*
X124109565Y-84082956D01*
X124109566Y-84082955D01*
X124109569Y-84082955D01*
X124109569Y-84082954D01*
X124109571Y-84082954D01*
X124139058Y-84063251D01*
X124168547Y-84043547D01*
X124207955Y-83984569D01*
X124218300Y-83932561D01*
X124218299Y-83247440D01*
X124207955Y-83195431D01*
X124207954Y-83195428D01*
X124168548Y-83136454D01*
X124168544Y-83136451D01*
X124109569Y-83097045D01*
X124109567Y-83097044D01*
X124057561Y-83086700D01*
X122322440Y-83086700D01*
X122322435Y-83086701D01*
X122270434Y-83097043D01*
X122270428Y-83097045D01*
X122211454Y-83136451D01*
X122172045Y-83195431D01*
X122172044Y-83195432D01*
X122161700Y-83247438D01*
X122161700Y-83932559D01*
X122161701Y-83932564D01*
X122172043Y-83984565D01*
X122172045Y-83984571D01*
X122211451Y-84043545D01*
X122211452Y-84043545D01*
X122211453Y-84043547D01*
X122270431Y-84082955D01*
X122322439Y-84093300D01*
X122860300Y-84093299D01*
X122908638Y-84110892D01*
X122934358Y-84155441D01*
X122935500Y-84168499D01*
X122935500Y-84501572D01*
X122917907Y-84549910D01*
X122873358Y-84575630D01*
X122831524Y-84571049D01*
X122813710Y-84563670D01*
X122709193Y-84549910D01*
X122670000Y-84544750D01*
X122669999Y-84544750D01*
X122534158Y-84562634D01*
X122483938Y-84551500D01*
X122471169Y-84541251D01*
X120990898Y-83060980D01*
X120969158Y-83014360D01*
X120982472Y-82964673D01*
X120990892Y-82954637D01*
X121080582Y-82864948D01*
X121140379Y-82747591D01*
X121153847Y-82662559D01*
X122161700Y-82662559D01*
X122161701Y-82662564D01*
X122172043Y-82714565D01*
X122172045Y-82714571D01*
X122211451Y-82773545D01*
X122211452Y-82773545D01*
X122211453Y-82773547D01*
X122270431Y-82812955D01*
X122322439Y-82823300D01*
X124057560Y-82823299D01*
X124083564Y-82818127D01*
X124109565Y-82812956D01*
X124109566Y-82812955D01*
X124109569Y-82812955D01*
X124109569Y-82812954D01*
X124109571Y-82812954D01*
X124139058Y-82793251D01*
X124168547Y-82773547D01*
X124207955Y-82714569D01*
X124218300Y-82662561D01*
X124218300Y-82649700D01*
X124235893Y-82601362D01*
X124280442Y-82575642D01*
X124293500Y-82574500D01*
X126700622Y-82574500D01*
X126700623Y-82574500D01*
X126794163Y-82535755D01*
X127795755Y-81534163D01*
X127834501Y-81440623D01*
X127834501Y-81339377D01*
X127834501Y-81333322D01*
X127834500Y-81333308D01*
X127834500Y-80745689D01*
X127852093Y-80697351D01*
X127863916Y-80686033D01*
X127972621Y-80602621D01*
X128060861Y-80487625D01*
X128116330Y-80353709D01*
X128135250Y-80210000D01*
X128116330Y-80066291D01*
X128060861Y-79932375D01*
X128060860Y-79932374D01*
X128060860Y-79932373D01*
X127972621Y-79817378D01*
X127857626Y-79729139D01*
X127723711Y-79673671D01*
X127723709Y-79673670D01*
X127580000Y-79654750D01*
X127436291Y-79673670D01*
X127436288Y-79673670D01*
X127436288Y-79673671D01*
X127302373Y-79729139D01*
X127187378Y-79817378D01*
X127099139Y-79932373D01*
X127083461Y-79970225D01*
X127043670Y-80066291D01*
X127024750Y-80210000D01*
X127043670Y-80353709D01*
X127043671Y-80353711D01*
X127099139Y-80487626D01*
X127187378Y-80602621D01*
X127197807Y-80610623D01*
X127296080Y-80686030D01*
X127323717Y-80729412D01*
X127325500Y-80745689D01*
X127325500Y-81253434D01*
X127307907Y-81301772D01*
X127303474Y-81306608D01*
X126566608Y-82043474D01*
X126519988Y-82065214D01*
X126513434Y-82065500D01*
X124293499Y-82065500D01*
X124245161Y-82047907D01*
X124219441Y-82003358D01*
X124218299Y-81990300D01*
X124218299Y-81977440D01*
X124218298Y-81977435D01*
X124207956Y-81925434D01*
X124207954Y-81925428D01*
X124168548Y-81866454D01*
X124168544Y-81866451D01*
X124109569Y-81827045D01*
X124109567Y-81827044D01*
X124057561Y-81816700D01*
X122322440Y-81816700D01*
X122322435Y-81816701D01*
X122270434Y-81827043D01*
X122270428Y-81827045D01*
X122211454Y-81866451D01*
X122172045Y-81925431D01*
X122172044Y-81925432D01*
X122161700Y-81977438D01*
X122161700Y-82662559D01*
X121153847Y-82662559D01*
X121155800Y-82650225D01*
X121155799Y-82109776D01*
X121140869Y-82015500D01*
X121140380Y-82012410D01*
X121080581Y-81895050D01*
X120987449Y-81801918D01*
X120870091Y-81742121D01*
X120870093Y-81742121D01*
X120807937Y-81732277D01*
X120772725Y-81726700D01*
X120772723Y-81726700D01*
X120207281Y-81726700D01*
X120207269Y-81726701D01*
X120109910Y-81742119D01*
X119992550Y-81801918D01*
X119899418Y-81895050D01*
X119839621Y-82012407D01*
X119824200Y-82109773D01*
X119824200Y-82650218D01*
X119330800Y-82650218D01*
X119330799Y-82109776D01*
X119315869Y-82015500D01*
X119315380Y-82012410D01*
X119255581Y-81895050D01*
X119162449Y-81801918D01*
X119045091Y-81742121D01*
X119045093Y-81742121D01*
X119008363Y-81736303D01*
X118982935Y-81732276D01*
X118937946Y-81707339D01*
X118919511Y-81659316D01*
X118919500Y-81658003D01*
X118919500Y-81521566D01*
X118937093Y-81473228D01*
X118941526Y-81468392D01*
X119385753Y-81024165D01*
X119385755Y-81024163D01*
X119424501Y-80930623D01*
X119424501Y-80829377D01*
X119424501Y-80823322D01*
X119424500Y-80823308D01*
X119424500Y-80428499D01*
X119442093Y-80380161D01*
X119486642Y-80354441D01*
X119499700Y-80353299D01*
X119502719Y-80353299D01*
X119502724Y-80353299D01*
X119509341Y-80352250D01*
X119600089Y-80337880D01*
X119600093Y-80337878D01*
X119717448Y-80278082D01*
X119791581Y-80203948D01*
X119838200Y-80182209D01*
X119887888Y-80195522D01*
X119916138Y-80233469D01*
X119922048Y-80251305D01*
X120012552Y-80398034D01*
X120012555Y-80398038D01*
X120134461Y-80519944D01*
X120134465Y-80519947D01*
X120281195Y-80610451D01*
X120281194Y-80610451D01*
X120444847Y-80664679D01*
X120444849Y-80664680D01*
X120545858Y-80674999D01*
X120645000Y-80674999D01*
X120645000Y-79950000D01*
X121145000Y-79950000D01*
X121145000Y-80674999D01*
X121244141Y-80674999D01*
X121345155Y-80664679D01*
X121508805Y-80610451D01*
X121655534Y-80519947D01*
X121777445Y-80398037D01*
X121790524Y-80376833D01*
X121830874Y-80344927D01*
X121882292Y-80346423D01*
X121914729Y-80371244D01*
X121982810Y-80462189D01*
X122097907Y-80548350D01*
X122097912Y-80548353D01*
X122127520Y-80559396D01*
X122166663Y-80592772D01*
X122175194Y-80643499D01*
X122172823Y-80651519D01*
X122161700Y-80707438D01*
X122161700Y-81392559D01*
X122161701Y-81392564D01*
X122172043Y-81444565D01*
X122172045Y-81444571D01*
X122211451Y-81503545D01*
X122211452Y-81503545D01*
X122211453Y-81503547D01*
X122270431Y-81542955D01*
X122322439Y-81553300D01*
X124057560Y-81553299D01*
X124083564Y-81548127D01*
X124109565Y-81542956D01*
X124109566Y-81542955D01*
X124109569Y-81542955D01*
X124109569Y-81542954D01*
X124109571Y-81542954D01*
X124141580Y-81521566D01*
X124168547Y-81503547D01*
X124207955Y-81444569D01*
X124218300Y-81392561D01*
X124218300Y-81379700D01*
X124235893Y-81331362D01*
X124280442Y-81305642D01*
X124293500Y-81304500D01*
X125644310Y-81304500D01*
X125692648Y-81322093D01*
X125703970Y-81333921D01*
X125787378Y-81442621D01*
X125902373Y-81530860D01*
X125902374Y-81530860D01*
X125902375Y-81530861D01*
X126036291Y-81586330D01*
X126180000Y-81605250D01*
X126323709Y-81586330D01*
X126457625Y-81530861D01*
X126572621Y-81442621D01*
X126660861Y-81327625D01*
X126716330Y-81193709D01*
X126735250Y-81050000D01*
X126716330Y-80906291D01*
X126660861Y-80772375D01*
X126660860Y-80772374D01*
X126660860Y-80772373D01*
X126572621Y-80657378D01*
X126457626Y-80569139D01*
X126323711Y-80513671D01*
X126323709Y-80513670D01*
X126180000Y-80494750D01*
X126036291Y-80513670D01*
X126036288Y-80513670D01*
X126036288Y-80513671D01*
X125902373Y-80569139D01*
X125787378Y-80657378D01*
X125703970Y-80766079D01*
X125660586Y-80793717D01*
X125644310Y-80795500D01*
X124293499Y-80795500D01*
X124245161Y-80777907D01*
X124219441Y-80733358D01*
X124218299Y-80720300D01*
X124218299Y-80707440D01*
X124218298Y-80707435D01*
X124206511Y-80648166D01*
X124208805Y-80647709D01*
X124207035Y-80607249D01*
X124238346Y-80566436D01*
X124252479Y-80559396D01*
X124282087Y-80548353D01*
X124282092Y-80548350D01*
X124397189Y-80462189D01*
X124483350Y-80347092D01*
X124483351Y-80347090D01*
X124533597Y-80212377D01*
X124533598Y-80212374D01*
X124539999Y-80152831D01*
X124540000Y-80152820D01*
X124540000Y-80030000D01*
X121872200Y-80030000D01*
X121823862Y-80012407D01*
X121798142Y-79967858D01*
X121797000Y-79954800D01*
X121797000Y-79950000D01*
X121145000Y-79950000D01*
X120645000Y-79950000D01*
X120645000Y-78725000D01*
X121145000Y-78725000D01*
X121145000Y-79450000D01*
X121900300Y-79450000D01*
X121948638Y-79467593D01*
X121974358Y-79512142D01*
X121975500Y-79525200D01*
X121975500Y-79530000D01*
X122940000Y-79530000D01*
X122940000Y-78955000D01*
X123440000Y-78955000D01*
X123440000Y-79530000D01*
X124540000Y-79530000D01*
X124540000Y-79407180D01*
X124539999Y-79407168D01*
X124533598Y-79347625D01*
X124533597Y-79347622D01*
X124483351Y-79212909D01*
X124483350Y-79212907D01*
X124397189Y-79097810D01*
X124282092Y-79011649D01*
X124282090Y-79011648D01*
X124147377Y-78961402D01*
X124147374Y-78961401D01*
X124087831Y-78955000D01*
X123440000Y-78955000D01*
X122940000Y-78955000D01*
X122292168Y-78955000D01*
X122232625Y-78961401D01*
X122232622Y-78961402D01*
X122097909Y-79011648D01*
X122097907Y-79011649D01*
X121982811Y-79097810D01*
X121968835Y-79116479D01*
X121925782Y-79144630D01*
X121874706Y-79138521D01*
X121844632Y-79110889D01*
X121777447Y-79001965D01*
X121777444Y-79001961D01*
X121655538Y-78880055D01*
X121655534Y-78880052D01*
X121508804Y-78789548D01*
X121508805Y-78789548D01*
X121345152Y-78735320D01*
X121345150Y-78735319D01*
X121244141Y-78725000D01*
X121145000Y-78725000D01*
X120645000Y-78725000D01*
X120545859Y-78725000D01*
X120444844Y-78735320D01*
X120281194Y-78789548D01*
X120134465Y-78880052D01*
X120134461Y-78880055D01*
X120012555Y-79001961D01*
X120012552Y-79001965D01*
X119922048Y-79148693D01*
X119916138Y-79166531D01*
X119884232Y-79206880D01*
X119833855Y-79217282D01*
X119791581Y-79196050D01*
X119717449Y-79121918D01*
X119600091Y-79062121D01*
X119600093Y-79062121D01*
X119551408Y-79054410D01*
X119502725Y-79046700D01*
X119502723Y-79046700D01*
X118837281Y-79046700D01*
X118837269Y-79046701D01*
X118739910Y-79062119D01*
X118622550Y-79121918D01*
X118529418Y-79215050D01*
X118469621Y-79332407D01*
X118454200Y-79429773D01*
X118454200Y-79970218D01*
X118454201Y-79970230D01*
X118469619Y-80067589D01*
X118529418Y-80184949D01*
X118622550Y-80278081D01*
X118622552Y-80278082D01*
X118739907Y-80337878D01*
X118739909Y-80337879D01*
X118837275Y-80353300D01*
X118840289Y-80353299D01*
X118888628Y-80370884D01*
X118914355Y-80415428D01*
X118915500Y-80428499D01*
X118915500Y-80743434D01*
X118897907Y-80791772D01*
X118893474Y-80796608D01*
X118520837Y-81169245D01*
X118496373Y-81193709D01*
X118449244Y-81240837D01*
X118410500Y-81334376D01*
X118410500Y-81658003D01*
X118392907Y-81706341D01*
X118348358Y-81732061D01*
X118347063Y-81732277D01*
X118284910Y-81742119D01*
X118167550Y-81801918D01*
X118074418Y-81895050D01*
X118014621Y-82012407D01*
X118005216Y-82071788D01*
X117980277Y-82116779D01*
X117959719Y-82129500D01*
X117875837Y-82164244D01*
X117840041Y-82200040D01*
X117804245Y-82235837D01*
X117804244Y-82235838D01*
X117402492Y-82637589D01*
X117297512Y-82742569D01*
X117260615Y-82760771D01*
X117261050Y-82762395D01*
X117256289Y-82763670D01*
X117122373Y-82819139D01*
X117007378Y-82907378D01*
X116919139Y-83022373D01*
X116863671Y-83156288D01*
X116863670Y-83156291D01*
X116844750Y-83300000D01*
X116690500Y-83300000D01*
X116690500Y-77860000D01*
X118717501Y-77860000D01*
X118717501Y-77896641D01*
X118727820Y-77997655D01*
X118782048Y-78161305D01*
X118872552Y-78308034D01*
X118872555Y-78308038D01*
X118994461Y-78429944D01*
X118994465Y-78429947D01*
X119141195Y-78520451D01*
X119141194Y-78520451D01*
X119304847Y-78574679D01*
X119304849Y-78574680D01*
X119405858Y-78584999D01*
X119454999Y-78584998D01*
X119455000Y-78584998D01*
X119455000Y-77860000D01*
X119955000Y-77860000D01*
X119955000Y-78584999D01*
X120004141Y-78584999D01*
X120105155Y-78574679D01*
X120268805Y-78520451D01*
X120415534Y-78429947D01*
X120415538Y-78429944D01*
X120537444Y-78308038D01*
X120537447Y-78308034D01*
X120627951Y-78161305D01*
X120682179Y-77997652D01*
X120682180Y-77997650D01*
X120692500Y-77896640D01*
X120692500Y-77860000D01*
X119955000Y-77860000D01*
X119455000Y-77860000D01*
X118717501Y-77860000D01*
X116690500Y-77860000D01*
X116690500Y-77360000D01*
X118717500Y-77360000D01*
X119455000Y-77360000D01*
X119455000Y-76635000D01*
X119955000Y-76635000D01*
X119955000Y-77360000D01*
X120692499Y-77360000D01*
X120692499Y-77323358D01*
X120682179Y-77222344D01*
X120627951Y-77058694D01*
X120537447Y-76911965D01*
X120537444Y-76911961D01*
X120415538Y-76790055D01*
X120415534Y-76790052D01*
X120268804Y-76699548D01*
X120268805Y-76699548D01*
X120105152Y-76645320D01*
X120105150Y-76645319D01*
X120004141Y-76635000D01*
X119955000Y-76635000D01*
X119455000Y-76635000D01*
X119455000Y-76634999D01*
X119405859Y-76635000D01*
X119304844Y-76645320D01*
X119141194Y-76699548D01*
X118994465Y-76790052D01*
X118994461Y-76790055D01*
X118872555Y-76911961D01*
X118872552Y-76911965D01*
X118782048Y-77058694D01*
X118727820Y-77222347D01*
X118727819Y-77222349D01*
X118717500Y-77323359D01*
X118717500Y-77360000D01*
X116690500Y-77360000D01*
X116690500Y-75917559D01*
X117921700Y-75917559D01*
X117921701Y-75917564D01*
X117932043Y-75969565D01*
X117932045Y-75969571D01*
X117971451Y-76028545D01*
X117971452Y-76028545D01*
X117971453Y-76028547D01*
X118030431Y-76067955D01*
X118082439Y-76078300D01*
X119917560Y-76078299D01*
X119943942Y-76073052D01*
X119969565Y-76067956D01*
X119969566Y-76067955D01*
X119969569Y-76067955D01*
X119969569Y-76067954D01*
X119969571Y-76067954D01*
X120018424Y-76035311D01*
X120028547Y-76028547D01*
X120067955Y-75969569D01*
X120078300Y-75917561D01*
X120078300Y-75000002D01*
X120457080Y-75000002D01*
X120463029Y-75064200D01*
X120473069Y-75172552D01*
X120475519Y-75198985D01*
X120475520Y-75198994D01*
X120530204Y-75391187D01*
X120530210Y-75391203D01*
X120619280Y-75570080D01*
X120739708Y-75729554D01*
X120739711Y-75729557D01*
X120887392Y-75864187D01*
X121057297Y-75969388D01*
X121057299Y-75969388D01*
X121057301Y-75969390D01*
X121227466Y-76035312D01*
X121266183Y-76069178D01*
X121275500Y-76105433D01*
X121275500Y-76888003D01*
X121257907Y-76936341D01*
X121213358Y-76962061D01*
X121212063Y-76962277D01*
X121149910Y-76972119D01*
X121032550Y-77031918D01*
X120939418Y-77125050D01*
X120879621Y-77242407D01*
X120864200Y-77339773D01*
X120864200Y-77880218D01*
X120864201Y-77880230D01*
X120879619Y-77977589D01*
X120939418Y-78094949D01*
X121032550Y-78188081D01*
X121032552Y-78188082D01*
X121149907Y-78247878D01*
X121149909Y-78247879D01*
X121247275Y-78263300D01*
X121812724Y-78263299D01*
X121819341Y-78262250D01*
X121910089Y-78247880D01*
X121929413Y-78238034D01*
X122027448Y-78188082D01*
X122120582Y-78094948D01*
X122180379Y-77977591D01*
X122195800Y-77880225D01*
X122195799Y-77339776D01*
X122193199Y-77323358D01*
X122180380Y-77242410D01*
X122120581Y-77125050D01*
X122027449Y-77031918D01*
X121910091Y-76972121D01*
X121910093Y-76972121D01*
X121873363Y-76966303D01*
X121847935Y-76962276D01*
X121802946Y-76937339D01*
X121784511Y-76889316D01*
X121784500Y-76888003D01*
X121784500Y-76113122D01*
X121802093Y-76064784D01*
X121820730Y-76052718D01*
X123506700Y-76052718D01*
X123506701Y-76052730D01*
X123522119Y-76150089D01*
X123581918Y-76267449D01*
X123675050Y-76360581D01*
X123675052Y-76360582D01*
X123792409Y-76420379D01*
X123842063Y-76428243D01*
X123887054Y-76453181D01*
X123905489Y-76501204D01*
X123905500Y-76502517D01*
X123905500Y-77610623D01*
X123944244Y-77704162D01*
X123944245Y-77704163D01*
X124021251Y-77781169D01*
X124042991Y-77827788D01*
X124042634Y-77844158D01*
X124025067Y-77977589D01*
X124024750Y-77980000D01*
X124043670Y-78123709D01*
X124043671Y-78123711D01*
X124099139Y-78257626D01*
X124187378Y-78372621D01*
X124302373Y-78460860D01*
X124302374Y-78460860D01*
X124302375Y-78460861D01*
X124436291Y-78516330D01*
X124580000Y-78535250D01*
X124723709Y-78516330D01*
X124857625Y-78460861D01*
X124972621Y-78372621D01*
X125060861Y-78257625D01*
X125116330Y-78123709D01*
X125135250Y-77980000D01*
X125116330Y-77836291D01*
X125060861Y-77702375D01*
X125060860Y-77702374D01*
X125060860Y-77702373D01*
X124972621Y-77587378D01*
X124857626Y-77499139D01*
X124762936Y-77459918D01*
X124723709Y-77443670D01*
X124580000Y-77424750D01*
X124579999Y-77424750D01*
X124499515Y-77435346D01*
X124449295Y-77424212D01*
X124417980Y-77383402D01*
X124414500Y-77360789D01*
X124414500Y-76502517D01*
X124426044Y-76470800D01*
X125215999Y-76470800D01*
X125215999Y-76929031D01*
X125222400Y-76988574D01*
X125222401Y-76988577D01*
X125272647Y-77123290D01*
X125272648Y-77123292D01*
X125358809Y-77238389D01*
X125473906Y-77324550D01*
X125473908Y-77324551D01*
X125608621Y-77374797D01*
X125608624Y-77374798D01*
X125668167Y-77381199D01*
X125668179Y-77381200D01*
X125719999Y-77381200D01*
X125719999Y-76470800D01*
X126219999Y-76470800D01*
X126219999Y-77381200D01*
X126271819Y-77381200D01*
X126271830Y-77381199D01*
X126331373Y-77374798D01*
X126331376Y-77374797D01*
X126466089Y-77324551D01*
X126466091Y-77324550D01*
X126581188Y-77238389D01*
X126667349Y-77123292D01*
X126667350Y-77123290D01*
X126717596Y-76988577D01*
X126717597Y-76988574D01*
X126723998Y-76929031D01*
X126723999Y-76929020D01*
X126723999Y-76898759D01*
X127437701Y-76898759D01*
X127437702Y-76898764D01*
X127448044Y-76950765D01*
X127448046Y-76950771D01*
X127487452Y-77009745D01*
X127487453Y-77009745D01*
X127487454Y-77009747D01*
X127546432Y-77049155D01*
X127598440Y-77059500D01*
X128141561Y-77059499D01*
X128167565Y-77054327D01*
X128193566Y-77049156D01*
X128193567Y-77049155D01*
X128193570Y-77049155D01*
X128193570Y-77049154D01*
X128193572Y-77049154D01*
X128223059Y-77029451D01*
X128252548Y-77009747D01*
X128291956Y-76950769D01*
X128302301Y-76898761D01*
X128302300Y-75542840D01*
X128291956Y-75490831D01*
X128291955Y-75490828D01*
X128252549Y-75431854D01*
X128252545Y-75431851D01*
X128193570Y-75392445D01*
X128193568Y-75392444D01*
X128141562Y-75382100D01*
X127598441Y-75382100D01*
X127598436Y-75382101D01*
X127546435Y-75392443D01*
X127546429Y-75392445D01*
X127487455Y-75431851D01*
X127448046Y-75490831D01*
X127448045Y-75490832D01*
X127437701Y-75542838D01*
X127437701Y-76898759D01*
X126723999Y-76898759D01*
X126723999Y-76470800D01*
X126219999Y-76470800D01*
X125719999Y-76470800D01*
X125215999Y-76470800D01*
X124426044Y-76470800D01*
X124432093Y-76454179D01*
X124476642Y-76428459D01*
X124477938Y-76428243D01*
X124527589Y-76420380D01*
X124527593Y-76420378D01*
X124644948Y-76360582D01*
X124738082Y-76267448D01*
X124797879Y-76150091D01*
X124813300Y-76052725D01*
X124813300Y-75970800D01*
X125215999Y-75970800D01*
X125719999Y-75970800D01*
X125719999Y-75060400D01*
X126219999Y-75060400D01*
X126219999Y-75970800D01*
X126723999Y-75970800D01*
X126723999Y-75512580D01*
X126723998Y-75512568D01*
X126717597Y-75453025D01*
X126717596Y-75453022D01*
X126667350Y-75318309D01*
X126667349Y-75318307D01*
X126581188Y-75203210D01*
X126466091Y-75117049D01*
X126466089Y-75117048D01*
X126331376Y-75066802D01*
X126331373Y-75066801D01*
X126271830Y-75060400D01*
X126219999Y-75060400D01*
X125719999Y-75060400D01*
X125668167Y-75060400D01*
X125608624Y-75066801D01*
X125608621Y-75066802D01*
X125473908Y-75117048D01*
X125473906Y-75117049D01*
X125358809Y-75203210D01*
X125272648Y-75318307D01*
X125272647Y-75318309D01*
X125222401Y-75453022D01*
X125222400Y-75453025D01*
X125215999Y-75512568D01*
X125215999Y-75970800D01*
X124813300Y-75970800D01*
X124813299Y-75387276D01*
X124813298Y-75387269D01*
X124797880Y-75289910D01*
X124738081Y-75172550D01*
X124644949Y-75079418D01*
X124527591Y-75019621D01*
X124527593Y-75019621D01*
X124478908Y-75011910D01*
X124430225Y-75004200D01*
X124430223Y-75004200D01*
X123889781Y-75004200D01*
X123889769Y-75004201D01*
X123792410Y-75019619D01*
X123675050Y-75079418D01*
X123581918Y-75172550D01*
X123522121Y-75289907D01*
X123506700Y-75387273D01*
X123506700Y-76052718D01*
X121820730Y-76052718D01*
X121833690Y-76044327D01*
X121833113Y-76042836D01*
X121870002Y-76028545D01*
X122022699Y-75969390D01*
X122192605Y-75864189D01*
X122340288Y-75729558D01*
X122460717Y-75570084D01*
X122549793Y-75391196D01*
X122604481Y-75198986D01*
X122622920Y-75000000D01*
X122604481Y-74801014D01*
X122604479Y-74801008D01*
X122604479Y-74801005D01*
X122557412Y-74635582D01*
X122549793Y-74608804D01*
X122498182Y-74505155D01*
X122460719Y-74429919D01*
X122452433Y-74418947D01*
X122383546Y-74327725D01*
X122340291Y-74270445D01*
X122340288Y-74270442D01*
X122192607Y-74135812D01*
X122022702Y-74030611D01*
X121836356Y-73958420D01*
X121803615Y-73952300D01*
X121639919Y-73921700D01*
X121440081Y-73921700D01*
X121309123Y-73946180D01*
X121243643Y-73958420D01*
X121057298Y-74030611D01*
X121057297Y-74030611D01*
X120887392Y-74135812D01*
X120739711Y-74270442D01*
X120739708Y-74270445D01*
X120619280Y-74429919D01*
X120530210Y-74608796D01*
X120530204Y-74608812D01*
X120475520Y-74801005D01*
X120475519Y-74801014D01*
X120457080Y-74999997D01*
X120457080Y-75000002D01*
X120078300Y-75000002D01*
X120078299Y-74082440D01*
X120067955Y-74030431D01*
X120067954Y-74030428D01*
X120028548Y-73971454D01*
X120017846Y-73964303D01*
X119969569Y-73932045D01*
X119969567Y-73932044D01*
X119917561Y-73921700D01*
X118082440Y-73921700D01*
X118082435Y-73921701D01*
X118030434Y-73932043D01*
X118030428Y-73932045D01*
X117971454Y-73971451D01*
X117932045Y-74030431D01*
X117932044Y-74030432D01*
X117921700Y-74082438D01*
X117921700Y-75917559D01*
X116690500Y-75917559D01*
X116690500Y-68565700D01*
X116708093Y-68517362D01*
X116752642Y-68491642D01*
X116765700Y-68490500D01*
X118047537Y-68490500D01*
X118095875Y-68508093D01*
G37*
G04 #@! TD.AperFunction*
M02*
