G04 #@! TF.GenerationSoftware,KiCad,Pcbnew,8.0.1*
G04 #@! TF.CreationDate,2025-02-25T23:45:37-07:00*
G04 #@! TF.ProjectId,ColorSensing,436f6c6f-7253-4656-9e73-696e672e6b69,rev?*
G04 #@! TF.SameCoordinates,Original*
G04 #@! TF.FileFunction,Legend,Top*
G04 #@! TF.FilePolarity,Positive*
%FSLAX46Y46*%
G04 Gerber Fmt 4.6, Leading zero omitted, Abs format (unit mm)*
G04 Created by KiCad (PCBNEW 8.0.1) date 2025-02-25 23:45:37*
%MOMM*%
%LPD*%
G01*
G04 APERTURE LIST*
G04 Aperture macros list*
%AMRoundRect*
0 Rectangle with rounded corners*
0 $1 Rounding radius*
0 $2 $3 $4 $5 $6 $7 $8 $9 X,Y pos of 4 corners*
0 Add a 4 corners polygon primitive as box body*
4,1,4,$2,$3,$4,$5,$6,$7,$8,$9,$2,$3,0*
0 Add four circle primitives for the rounded corners*
1,1,$1+$1,$2,$3*
1,1,$1+$1,$4,$5*
1,1,$1+$1,$6,$7*
1,1,$1+$1,$8,$9*
0 Add four rect primitives between the rounded corners*
20,1,$1+$1,$2,$3,$4,$5,0*
20,1,$1+$1,$4,$5,$6,$7,0*
20,1,$1+$1,$6,$7,$8,$9,0*
20,1,$1+$1,$8,$9,$2,$3,0*%
G04 Aperture macros list end*
%ADD10C,0.150000*%
%ADD11C,0.120000*%
%ADD12C,0.152400*%
%ADD13RoundRect,0.237500X-0.250000X-0.237500X0.250000X-0.237500X0.250000X0.237500X-0.250000X0.237500X0*%
%ADD14C,2.500000*%
%ADD15RoundRect,0.237500X0.300000X0.237500X-0.300000X0.237500X-0.300000X-0.237500X0.300000X-0.237500X0*%
%ADD16R,1.460500X0.558800*%
%ADD17R,1.800000X1.800000*%
%ADD18C,1.800000*%
%ADD19RoundRect,0.237500X0.250000X0.237500X-0.250000X0.237500X-0.250000X-0.237500X0.250000X-0.237500X0*%
%ADD20R,1.700000X1.700000*%
%ADD21O,1.700000X1.700000*%
G04 APERTURE END LIST*
D10*
X117611667Y-82842295D02*
X117345000Y-82461342D01*
X117154524Y-82842295D02*
X117154524Y-82042295D01*
X117154524Y-82042295D02*
X117459286Y-82042295D01*
X117459286Y-82042295D02*
X117535476Y-82080390D01*
X117535476Y-82080390D02*
X117573571Y-82118485D01*
X117573571Y-82118485D02*
X117611667Y-82194676D01*
X117611667Y-82194676D02*
X117611667Y-82308961D01*
X117611667Y-82308961D02*
X117573571Y-82385152D01*
X117573571Y-82385152D02*
X117535476Y-82423247D01*
X117535476Y-82423247D02*
X117459286Y-82461342D01*
X117459286Y-82461342D02*
X117154524Y-82461342D01*
X117916428Y-82118485D02*
X117954524Y-82080390D01*
X117954524Y-82080390D02*
X118030714Y-82042295D01*
X118030714Y-82042295D02*
X118221190Y-82042295D01*
X118221190Y-82042295D02*
X118297381Y-82080390D01*
X118297381Y-82080390D02*
X118335476Y-82118485D01*
X118335476Y-82118485D02*
X118373571Y-82194676D01*
X118373571Y-82194676D02*
X118373571Y-82270866D01*
X118373571Y-82270866D02*
X118335476Y-82385152D01*
X118335476Y-82385152D02*
X117878333Y-82842295D01*
X117878333Y-82842295D02*
X118373571Y-82842295D01*
X132050476Y-94212295D02*
X132050476Y-93412295D01*
X132050476Y-93793247D02*
X132507619Y-93793247D01*
X132507619Y-94212295D02*
X132507619Y-93412295D01*
X133231428Y-93678961D02*
X133231428Y-94212295D01*
X133040952Y-93374200D02*
X132850475Y-93945628D01*
X132850475Y-93945628D02*
X133345714Y-93945628D01*
X135691667Y-85036104D02*
X135653571Y-85074200D01*
X135653571Y-85074200D02*
X135539286Y-85112295D01*
X135539286Y-85112295D02*
X135463095Y-85112295D01*
X135463095Y-85112295D02*
X135348809Y-85074200D01*
X135348809Y-85074200D02*
X135272619Y-84998009D01*
X135272619Y-84998009D02*
X135234524Y-84921819D01*
X135234524Y-84921819D02*
X135196428Y-84769438D01*
X135196428Y-84769438D02*
X135196428Y-84655152D01*
X135196428Y-84655152D02*
X135234524Y-84502771D01*
X135234524Y-84502771D02*
X135272619Y-84426580D01*
X135272619Y-84426580D02*
X135348809Y-84350390D01*
X135348809Y-84350390D02*
X135463095Y-84312295D01*
X135463095Y-84312295D02*
X135539286Y-84312295D01*
X135539286Y-84312295D02*
X135653571Y-84350390D01*
X135653571Y-84350390D02*
X135691667Y-84388485D01*
X135958333Y-84312295D02*
X136453571Y-84312295D01*
X136453571Y-84312295D02*
X136186905Y-84617057D01*
X136186905Y-84617057D02*
X136301190Y-84617057D01*
X136301190Y-84617057D02*
X136377381Y-84655152D01*
X136377381Y-84655152D02*
X136415476Y-84693247D01*
X136415476Y-84693247D02*
X136453571Y-84769438D01*
X136453571Y-84769438D02*
X136453571Y-84959914D01*
X136453571Y-84959914D02*
X136415476Y-85036104D01*
X136415476Y-85036104D02*
X136377381Y-85074200D01*
X136377381Y-85074200D02*
X136301190Y-85112295D01*
X136301190Y-85112295D02*
X136072619Y-85112295D01*
X136072619Y-85112295D02*
X135996428Y-85074200D01*
X135996428Y-85074200D02*
X135958333Y-85036104D01*
X135936667Y-83222295D02*
X135670000Y-82841342D01*
X135479524Y-83222295D02*
X135479524Y-82422295D01*
X135479524Y-82422295D02*
X135784286Y-82422295D01*
X135784286Y-82422295D02*
X135860476Y-82460390D01*
X135860476Y-82460390D02*
X135898571Y-82498485D01*
X135898571Y-82498485D02*
X135936667Y-82574676D01*
X135936667Y-82574676D02*
X135936667Y-82688961D01*
X135936667Y-82688961D02*
X135898571Y-82765152D01*
X135898571Y-82765152D02*
X135860476Y-82803247D01*
X135860476Y-82803247D02*
X135784286Y-82841342D01*
X135784286Y-82841342D02*
X135479524Y-82841342D01*
X136660476Y-82422295D02*
X136279524Y-82422295D01*
X136279524Y-82422295D02*
X136241428Y-82803247D01*
X136241428Y-82803247D02*
X136279524Y-82765152D01*
X136279524Y-82765152D02*
X136355714Y-82727057D01*
X136355714Y-82727057D02*
X136546190Y-82727057D01*
X136546190Y-82727057D02*
X136622381Y-82765152D01*
X136622381Y-82765152D02*
X136660476Y-82803247D01*
X136660476Y-82803247D02*
X136698571Y-82879438D01*
X136698571Y-82879438D02*
X136698571Y-83069914D01*
X136698571Y-83069914D02*
X136660476Y-83146104D01*
X136660476Y-83146104D02*
X136622381Y-83184200D01*
X136622381Y-83184200D02*
X136546190Y-83222295D01*
X136546190Y-83222295D02*
X136355714Y-83222295D01*
X136355714Y-83222295D02*
X136279524Y-83184200D01*
X136279524Y-83184200D02*
X136241428Y-83146104D01*
X117571667Y-81212295D02*
X117305000Y-80831342D01*
X117114524Y-81212295D02*
X117114524Y-80412295D01*
X117114524Y-80412295D02*
X117419286Y-80412295D01*
X117419286Y-80412295D02*
X117495476Y-80450390D01*
X117495476Y-80450390D02*
X117533571Y-80488485D01*
X117533571Y-80488485D02*
X117571667Y-80564676D01*
X117571667Y-80564676D02*
X117571667Y-80678961D01*
X117571667Y-80678961D02*
X117533571Y-80755152D01*
X117533571Y-80755152D02*
X117495476Y-80793247D01*
X117495476Y-80793247D02*
X117419286Y-80831342D01*
X117419286Y-80831342D02*
X117114524Y-80831342D01*
X118333571Y-81212295D02*
X117876428Y-81212295D01*
X118105000Y-81212295D02*
X118105000Y-80412295D01*
X118105000Y-80412295D02*
X118028809Y-80526580D01*
X118028809Y-80526580D02*
X117952619Y-80602771D01*
X117952619Y-80602771D02*
X117876428Y-80640866D01*
X126206326Y-81507295D02*
X126206326Y-82154914D01*
X126206326Y-82154914D02*
X126244421Y-82231104D01*
X126244421Y-82231104D02*
X126282516Y-82269200D01*
X126282516Y-82269200D02*
X126358707Y-82307295D01*
X126358707Y-82307295D02*
X126511088Y-82307295D01*
X126511088Y-82307295D02*
X126587278Y-82269200D01*
X126587278Y-82269200D02*
X126625373Y-82231104D01*
X126625373Y-82231104D02*
X126663469Y-82154914D01*
X126663469Y-82154914D02*
X126663469Y-81507295D01*
X127463468Y-82307295D02*
X127006325Y-82307295D01*
X127234897Y-82307295D02*
X127234897Y-81507295D01*
X127234897Y-81507295D02*
X127158706Y-81621580D01*
X127158706Y-81621580D02*
X127082516Y-81697771D01*
X127082516Y-81697771D02*
X127006325Y-81735866D01*
X136031667Y-79802295D02*
X135765000Y-79421342D01*
X135574524Y-79802295D02*
X135574524Y-79002295D01*
X135574524Y-79002295D02*
X135879286Y-79002295D01*
X135879286Y-79002295D02*
X135955476Y-79040390D01*
X135955476Y-79040390D02*
X135993571Y-79078485D01*
X135993571Y-79078485D02*
X136031667Y-79154676D01*
X136031667Y-79154676D02*
X136031667Y-79268961D01*
X136031667Y-79268961D02*
X135993571Y-79345152D01*
X135993571Y-79345152D02*
X135955476Y-79383247D01*
X135955476Y-79383247D02*
X135879286Y-79421342D01*
X135879286Y-79421342D02*
X135574524Y-79421342D01*
X136298333Y-79002295D02*
X136793571Y-79002295D01*
X136793571Y-79002295D02*
X136526905Y-79307057D01*
X136526905Y-79307057D02*
X136641190Y-79307057D01*
X136641190Y-79307057D02*
X136717381Y-79345152D01*
X136717381Y-79345152D02*
X136755476Y-79383247D01*
X136755476Y-79383247D02*
X136793571Y-79459438D01*
X136793571Y-79459438D02*
X136793571Y-79649914D01*
X136793571Y-79649914D02*
X136755476Y-79726104D01*
X136755476Y-79726104D02*
X136717381Y-79764200D01*
X136717381Y-79764200D02*
X136641190Y-79802295D01*
X136641190Y-79802295D02*
X136412619Y-79802295D01*
X136412619Y-79802295D02*
X136336428Y-79764200D01*
X136336428Y-79764200D02*
X136298333Y-79726104D01*
X132009524Y-93072295D02*
X132009524Y-92272295D01*
X132009524Y-92272295D02*
X132200000Y-92272295D01*
X132200000Y-92272295D02*
X132314286Y-92310390D01*
X132314286Y-92310390D02*
X132390476Y-92386580D01*
X132390476Y-92386580D02*
X132428571Y-92462771D01*
X132428571Y-92462771D02*
X132466667Y-92615152D01*
X132466667Y-92615152D02*
X132466667Y-92729438D01*
X132466667Y-92729438D02*
X132428571Y-92881819D01*
X132428571Y-92881819D02*
X132390476Y-92958009D01*
X132390476Y-92958009D02*
X132314286Y-93034200D01*
X132314286Y-93034200D02*
X132200000Y-93072295D01*
X132200000Y-93072295D02*
X132009524Y-93072295D01*
X133152381Y-92538961D02*
X133152381Y-93072295D01*
X132961905Y-92234200D02*
X132771428Y-92805628D01*
X132771428Y-92805628D02*
X133266667Y-92805628D01*
X117581667Y-84642295D02*
X117315000Y-84261342D01*
X117124524Y-84642295D02*
X117124524Y-83842295D01*
X117124524Y-83842295D02*
X117429286Y-83842295D01*
X117429286Y-83842295D02*
X117505476Y-83880390D01*
X117505476Y-83880390D02*
X117543571Y-83918485D01*
X117543571Y-83918485D02*
X117581667Y-83994676D01*
X117581667Y-83994676D02*
X117581667Y-84108961D01*
X117581667Y-84108961D02*
X117543571Y-84185152D01*
X117543571Y-84185152D02*
X117505476Y-84223247D01*
X117505476Y-84223247D02*
X117429286Y-84261342D01*
X117429286Y-84261342D02*
X117124524Y-84261342D01*
X117962619Y-84642295D02*
X118115000Y-84642295D01*
X118115000Y-84642295D02*
X118191190Y-84604200D01*
X118191190Y-84604200D02*
X118229286Y-84566104D01*
X118229286Y-84566104D02*
X118305476Y-84451819D01*
X118305476Y-84451819D02*
X118343571Y-84299438D01*
X118343571Y-84299438D02*
X118343571Y-83994676D01*
X118343571Y-83994676D02*
X118305476Y-83918485D01*
X118305476Y-83918485D02*
X118267381Y-83880390D01*
X118267381Y-83880390D02*
X118191190Y-83842295D01*
X118191190Y-83842295D02*
X118038809Y-83842295D01*
X118038809Y-83842295D02*
X117962619Y-83880390D01*
X117962619Y-83880390D02*
X117924524Y-83918485D01*
X117924524Y-83918485D02*
X117886428Y-83994676D01*
X117886428Y-83994676D02*
X117886428Y-84185152D01*
X117886428Y-84185152D02*
X117924524Y-84261342D01*
X117924524Y-84261342D02*
X117962619Y-84299438D01*
X117962619Y-84299438D02*
X118038809Y-84337533D01*
X118038809Y-84337533D02*
X118191190Y-84337533D01*
X118191190Y-84337533D02*
X118267381Y-84299438D01*
X118267381Y-84299438D02*
X118305476Y-84261342D01*
X118305476Y-84261342D02*
X118343571Y-84185152D01*
X120170476Y-69622295D02*
X120170476Y-68822295D01*
X120170476Y-69203247D02*
X120627619Y-69203247D01*
X120627619Y-69622295D02*
X120627619Y-68822295D01*
X121427618Y-69622295D02*
X120970475Y-69622295D01*
X121199047Y-69622295D02*
X121199047Y-68822295D01*
X121199047Y-68822295D02*
X121122856Y-68936580D01*
X121122856Y-68936580D02*
X121046666Y-69012771D01*
X121046666Y-69012771D02*
X120970475Y-69050866D01*
X120529524Y-71482295D02*
X120529524Y-70682295D01*
X120529524Y-70682295D02*
X120720000Y-70682295D01*
X120720000Y-70682295D02*
X120834286Y-70720390D01*
X120834286Y-70720390D02*
X120910476Y-70796580D01*
X120910476Y-70796580D02*
X120948571Y-70872771D01*
X120948571Y-70872771D02*
X120986667Y-71025152D01*
X120986667Y-71025152D02*
X120986667Y-71139438D01*
X120986667Y-71139438D02*
X120948571Y-71291819D01*
X120948571Y-71291819D02*
X120910476Y-71368009D01*
X120910476Y-71368009D02*
X120834286Y-71444200D01*
X120834286Y-71444200D02*
X120720000Y-71482295D01*
X120720000Y-71482295D02*
X120529524Y-71482295D01*
X121748571Y-71482295D02*
X121291428Y-71482295D01*
X121520000Y-71482295D02*
X121520000Y-70682295D01*
X121520000Y-70682295D02*
X121443809Y-70796580D01*
X121443809Y-70796580D02*
X121367619Y-70872771D01*
X121367619Y-70872771D02*
X121291428Y-70910866D01*
X121479524Y-93052295D02*
X121479524Y-92252295D01*
X121479524Y-92252295D02*
X121670000Y-92252295D01*
X121670000Y-92252295D02*
X121784286Y-92290390D01*
X121784286Y-92290390D02*
X121860476Y-92366580D01*
X121860476Y-92366580D02*
X121898571Y-92442771D01*
X121898571Y-92442771D02*
X121936667Y-92595152D01*
X121936667Y-92595152D02*
X121936667Y-92709438D01*
X121936667Y-92709438D02*
X121898571Y-92861819D01*
X121898571Y-92861819D02*
X121860476Y-92938009D01*
X121860476Y-92938009D02*
X121784286Y-93014200D01*
X121784286Y-93014200D02*
X121670000Y-93052295D01*
X121670000Y-93052295D02*
X121479524Y-93052295D01*
X122203333Y-92252295D02*
X122698571Y-92252295D01*
X122698571Y-92252295D02*
X122431905Y-92557057D01*
X122431905Y-92557057D02*
X122546190Y-92557057D01*
X122546190Y-92557057D02*
X122622381Y-92595152D01*
X122622381Y-92595152D02*
X122660476Y-92633247D01*
X122660476Y-92633247D02*
X122698571Y-92709438D01*
X122698571Y-92709438D02*
X122698571Y-92899914D01*
X122698571Y-92899914D02*
X122660476Y-92976104D01*
X122660476Y-92976104D02*
X122622381Y-93014200D01*
X122622381Y-93014200D02*
X122546190Y-93052295D01*
X122546190Y-93052295D02*
X122317619Y-93052295D01*
X122317619Y-93052295D02*
X122241428Y-93014200D01*
X122241428Y-93014200D02*
X122203333Y-92976104D01*
X129712295Y-90953332D02*
X129331342Y-91219999D01*
X129712295Y-91410475D02*
X128912295Y-91410475D01*
X128912295Y-91410475D02*
X128912295Y-91105713D01*
X128912295Y-91105713D02*
X128950390Y-91029523D01*
X128950390Y-91029523D02*
X128988485Y-90991428D01*
X128988485Y-90991428D02*
X129064676Y-90953332D01*
X129064676Y-90953332D02*
X129178961Y-90953332D01*
X129178961Y-90953332D02*
X129255152Y-90991428D01*
X129255152Y-90991428D02*
X129293247Y-91029523D01*
X129293247Y-91029523D02*
X129331342Y-91105713D01*
X129331342Y-91105713D02*
X129331342Y-91410475D01*
X128912295Y-90686666D02*
X128912295Y-90153332D01*
X128912295Y-90153332D02*
X129712295Y-90496190D01*
X120120476Y-94212295D02*
X120120476Y-93412295D01*
X120120476Y-93793247D02*
X120577619Y-93793247D01*
X120577619Y-94212295D02*
X120577619Y-93412295D01*
X120882380Y-93412295D02*
X121377618Y-93412295D01*
X121377618Y-93412295D02*
X121110952Y-93717057D01*
X121110952Y-93717057D02*
X121225237Y-93717057D01*
X121225237Y-93717057D02*
X121301428Y-93755152D01*
X121301428Y-93755152D02*
X121339523Y-93793247D01*
X121339523Y-93793247D02*
X121377618Y-93869438D01*
X121377618Y-93869438D02*
X121377618Y-94059914D01*
X121377618Y-94059914D02*
X121339523Y-94136104D01*
X121339523Y-94136104D02*
X121301428Y-94174200D01*
X121301428Y-94174200D02*
X121225237Y-94212295D01*
X121225237Y-94212295D02*
X120996666Y-94212295D01*
X120996666Y-94212295D02*
X120920475Y-94174200D01*
X120920475Y-94174200D02*
X120882380Y-94136104D01*
X135966667Y-81462295D02*
X135700000Y-81081342D01*
X135509524Y-81462295D02*
X135509524Y-80662295D01*
X135509524Y-80662295D02*
X135814286Y-80662295D01*
X135814286Y-80662295D02*
X135890476Y-80700390D01*
X135890476Y-80700390D02*
X135928571Y-80738485D01*
X135928571Y-80738485D02*
X135966667Y-80814676D01*
X135966667Y-80814676D02*
X135966667Y-80928961D01*
X135966667Y-80928961D02*
X135928571Y-81005152D01*
X135928571Y-81005152D02*
X135890476Y-81043247D01*
X135890476Y-81043247D02*
X135814286Y-81081342D01*
X135814286Y-81081342D02*
X135509524Y-81081342D01*
X136652381Y-80928961D02*
X136652381Y-81462295D01*
X136461905Y-80624200D02*
X136271428Y-81195628D01*
X136271428Y-81195628D02*
X136766667Y-81195628D01*
X117641667Y-79632295D02*
X117375000Y-79251342D01*
X117184524Y-79632295D02*
X117184524Y-78832295D01*
X117184524Y-78832295D02*
X117489286Y-78832295D01*
X117489286Y-78832295D02*
X117565476Y-78870390D01*
X117565476Y-78870390D02*
X117603571Y-78908485D01*
X117603571Y-78908485D02*
X117641667Y-78984676D01*
X117641667Y-78984676D02*
X117641667Y-79098961D01*
X117641667Y-79098961D02*
X117603571Y-79175152D01*
X117603571Y-79175152D02*
X117565476Y-79213247D01*
X117565476Y-79213247D02*
X117489286Y-79251342D01*
X117489286Y-79251342D02*
X117184524Y-79251342D01*
X118098809Y-79175152D02*
X118022619Y-79137057D01*
X118022619Y-79137057D02*
X117984524Y-79098961D01*
X117984524Y-79098961D02*
X117946428Y-79022771D01*
X117946428Y-79022771D02*
X117946428Y-78984676D01*
X117946428Y-78984676D02*
X117984524Y-78908485D01*
X117984524Y-78908485D02*
X118022619Y-78870390D01*
X118022619Y-78870390D02*
X118098809Y-78832295D01*
X118098809Y-78832295D02*
X118251190Y-78832295D01*
X118251190Y-78832295D02*
X118327381Y-78870390D01*
X118327381Y-78870390D02*
X118365476Y-78908485D01*
X118365476Y-78908485D02*
X118403571Y-78984676D01*
X118403571Y-78984676D02*
X118403571Y-79022771D01*
X118403571Y-79022771D02*
X118365476Y-79098961D01*
X118365476Y-79098961D02*
X118327381Y-79137057D01*
X118327381Y-79137057D02*
X118251190Y-79175152D01*
X118251190Y-79175152D02*
X118098809Y-79175152D01*
X118098809Y-79175152D02*
X118022619Y-79213247D01*
X118022619Y-79213247D02*
X117984524Y-79251342D01*
X117984524Y-79251342D02*
X117946428Y-79327533D01*
X117946428Y-79327533D02*
X117946428Y-79479914D01*
X117946428Y-79479914D02*
X117984524Y-79556104D01*
X117984524Y-79556104D02*
X118022619Y-79594200D01*
X118022619Y-79594200D02*
X118098809Y-79632295D01*
X118098809Y-79632295D02*
X118251190Y-79632295D01*
X118251190Y-79632295D02*
X118327381Y-79594200D01*
X118327381Y-79594200D02*
X118365476Y-79556104D01*
X118365476Y-79556104D02*
X118403571Y-79479914D01*
X118403571Y-79479914D02*
X118403571Y-79327533D01*
X118403571Y-79327533D02*
X118365476Y-79251342D01*
X118365476Y-79251342D02*
X118327381Y-79213247D01*
X118327381Y-79213247D02*
X118251190Y-79175152D01*
X131820476Y-69852295D02*
X131820476Y-69052295D01*
X131820476Y-69433247D02*
X132277619Y-69433247D01*
X132277619Y-69852295D02*
X132277619Y-69052295D01*
X132620475Y-69128485D02*
X132658571Y-69090390D01*
X132658571Y-69090390D02*
X132734761Y-69052295D01*
X132734761Y-69052295D02*
X132925237Y-69052295D01*
X132925237Y-69052295D02*
X133001428Y-69090390D01*
X133001428Y-69090390D02*
X133039523Y-69128485D01*
X133039523Y-69128485D02*
X133077618Y-69204676D01*
X133077618Y-69204676D02*
X133077618Y-69280866D01*
X133077618Y-69280866D02*
X133039523Y-69395152D01*
X133039523Y-69395152D02*
X132582380Y-69852295D01*
X132582380Y-69852295D02*
X133077618Y-69852295D01*
X131189524Y-71342295D02*
X131189524Y-70542295D01*
X131189524Y-70542295D02*
X131380000Y-70542295D01*
X131380000Y-70542295D02*
X131494286Y-70580390D01*
X131494286Y-70580390D02*
X131570476Y-70656580D01*
X131570476Y-70656580D02*
X131608571Y-70732771D01*
X131608571Y-70732771D02*
X131646667Y-70885152D01*
X131646667Y-70885152D02*
X131646667Y-70999438D01*
X131646667Y-70999438D02*
X131608571Y-71151819D01*
X131608571Y-71151819D02*
X131570476Y-71228009D01*
X131570476Y-71228009D02*
X131494286Y-71304200D01*
X131494286Y-71304200D02*
X131380000Y-71342295D01*
X131380000Y-71342295D02*
X131189524Y-71342295D01*
X131951428Y-70618485D02*
X131989524Y-70580390D01*
X131989524Y-70580390D02*
X132065714Y-70542295D01*
X132065714Y-70542295D02*
X132256190Y-70542295D01*
X132256190Y-70542295D02*
X132332381Y-70580390D01*
X132332381Y-70580390D02*
X132370476Y-70618485D01*
X132370476Y-70618485D02*
X132408571Y-70694676D01*
X132408571Y-70694676D02*
X132408571Y-70770866D01*
X132408571Y-70770866D02*
X132370476Y-70885152D01*
X132370476Y-70885152D02*
X131913333Y-71342295D01*
X131913333Y-71342295D02*
X132408571Y-71342295D01*
D11*
X120047776Y-81937500D02*
X120557224Y-81937500D01*
X120047776Y-82982500D02*
X120557224Y-82982500D01*
X133628767Y-84230000D02*
X133336233Y-84230000D01*
X133628767Y-85250000D02*
X133336233Y-85250000D01*
X133277776Y-82317500D02*
X133787224Y-82317500D01*
X133277776Y-83362500D02*
X133787224Y-83362500D01*
X120047776Y-80237500D02*
X120557224Y-80237500D01*
X120047776Y-81282500D02*
X120557224Y-81282500D01*
D12*
X124694950Y-79163700D02*
X124694950Y-79427860D01*
X124694950Y-84462140D02*
X124694950Y-84726300D01*
X124694950Y-84726300D02*
X128936750Y-84726300D01*
X128936750Y-79163700D02*
X124694950Y-79163700D01*
X128936750Y-79427860D02*
X128936750Y-79163700D01*
X128936750Y-84726300D02*
X128936750Y-84462140D01*
D11*
X133337776Y-78807500D02*
X133847224Y-78807500D01*
X133337776Y-79852500D02*
X133847224Y-79852500D01*
X131210000Y-87235000D02*
X131210000Y-90325000D01*
X131210001Y-87235170D02*
G75*
G02*
X136759999Y-88780462I2559999J-1544830D01*
G01*
X136760000Y-88779538D02*
G75*
G02*
X131210000Y-90324830I-2990000J-462D01*
G01*
X136270000Y-88780000D02*
G75*
G02*
X131270000Y-88780000I-2500000J0D01*
G01*
X131270000Y-88780000D02*
G75*
G02*
X136270000Y-88780000I2500000J0D01*
G01*
X119987776Y-83657500D02*
X120497224Y-83657500D01*
X119987776Y-84702500D02*
X120497224Y-84702500D01*
X117710000Y-73455000D02*
X117710000Y-76545000D01*
X117710001Y-73455170D02*
G75*
G02*
X123259999Y-75000462I2559999J-1544830D01*
G01*
X123260000Y-74999538D02*
G75*
G02*
X117710000Y-76544830I-2990000J-462D01*
G01*
X122770000Y-75000000D02*
G75*
G02*
X117770000Y-75000000I-2500000J0D01*
G01*
X117770000Y-75000000D02*
G75*
G02*
X122770000Y-75000000I2500000J0D01*
G01*
X117710000Y-87235000D02*
X117710000Y-90325000D01*
X117710001Y-87235170D02*
G75*
G02*
X123259999Y-88780462I2559999J-1544830D01*
G01*
X123260000Y-88779538D02*
G75*
G02*
X117710000Y-90324830I-2990000J-462D01*
G01*
X122770000Y-88780000D02*
G75*
G02*
X117770000Y-88780000I-2500000J0D01*
G01*
X117770000Y-88780000D02*
G75*
G02*
X122770000Y-88780000I2500000J0D01*
G01*
X127142224Y-90327500D02*
X126632776Y-90327500D01*
X127142224Y-91372500D02*
X126632776Y-91372500D01*
X133327776Y-80587500D02*
X133837224Y-80587500D01*
X133327776Y-81632500D02*
X133837224Y-81632500D01*
X120567224Y-78687500D02*
X120057776Y-78687500D01*
X120567224Y-79732500D02*
X120057776Y-79732500D01*
X131210000Y-73455000D02*
X131210000Y-76545000D01*
X131210001Y-73455170D02*
G75*
G02*
X136759999Y-75000462I2559999J-1544830D01*
G01*
X136760000Y-74999538D02*
G75*
G02*
X131210000Y-76544830I-2990000J-462D01*
G01*
X136270000Y-75000000D02*
G75*
G02*
X131270000Y-75000000I-2500000J0D01*
G01*
X131270000Y-75000000D02*
G75*
G02*
X136270000Y-75000000I2500000J0D01*
G01*
%LPC*%
D13*
X119390000Y-82460000D03*
X121215000Y-82460000D03*
D14*
X135000000Y-93640000D03*
D15*
X134345000Y-84740000D03*
X132620000Y-84740000D03*
D13*
X132620000Y-82840000D03*
X134445000Y-82840000D03*
X119390000Y-80760000D03*
X121215000Y-80760000D03*
D16*
X124091700Y-80040000D03*
X124091700Y-81310000D03*
X124091700Y-82580000D03*
X124091700Y-83850000D03*
X129540000Y-83850000D03*
X129540000Y-82580000D03*
X129540000Y-81310000D03*
X129540000Y-80040000D03*
D13*
X132680000Y-79330000D03*
X134505000Y-79330000D03*
D17*
X132500000Y-88780000D03*
D18*
X135040000Y-88780000D03*
D13*
X119330000Y-84180000D03*
X121155000Y-84180000D03*
D14*
X118500000Y-70000000D03*
D17*
X119000000Y-75000000D03*
D18*
X121540000Y-75000000D03*
D17*
X119000000Y-88780000D03*
D18*
X121540000Y-88780000D03*
D19*
X127800000Y-90850000D03*
X125975000Y-90850000D03*
D14*
X118500000Y-93640000D03*
D13*
X132670000Y-81110000D03*
X134495000Y-81110000D03*
D19*
X121225000Y-79210000D03*
X119400000Y-79210000D03*
D14*
X135000000Y-70000000D03*
D17*
X132500000Y-75000000D03*
D18*
X135040000Y-75000000D03*
D20*
X128215000Y-70500000D03*
D21*
X125675000Y-70500000D03*
%LPD*%
M02*
