G04 #@! TF.GenerationSoftware,KiCad,Pcbnew,8.0.1*
G04 #@! TF.CreationDate,2025-02-25T23:45:37-07:00*
G04 #@! TF.ProjectId,ColorSensing,436f6c6f-7253-4656-9e73-696e672e6b69,rev?*
G04 #@! TF.SameCoordinates,Original*
G04 #@! TF.FileFunction,Legend,Bot*
G04 #@! TF.FilePolarity,Positive*
%FSLAX46Y46*%
G04 Gerber Fmt 4.6, Leading zero omitted, Abs format (unit mm)*
G04 Created by KiCad (PCBNEW 8.0.1) date 2025-02-25 23:45:37*
%MOMM*%
%LPD*%
G01*
G04 APERTURE LIST*
G04 Aperture macros list*
%AMRoundRect*
0 Rectangle with rounded corners*
0 $1 Rounding radius*
0 $2 $3 $4 $5 $6 $7 $8 $9 X,Y pos of 4 corners*
0 Add a 4 corners polygon primitive as box body*
4,1,4,$2,$3,$4,$5,$6,$7,$8,$9,$2,$3,0*
0 Add four circle primitives for the rounded corners*
1,1,$1+$1,$2,$3*
1,1,$1+$1,$4,$5*
1,1,$1+$1,$6,$7*
1,1,$1+$1,$8,$9*
0 Add four rect primitives between the rounded corners*
20,1,$1+$1,$2,$3,$4,$5,0*
20,1,$1+$1,$4,$5,$6,$7,0*
20,1,$1+$1,$6,$7,$8,$9,0*
20,1,$1+$1,$8,$9,$2,$3,0*%
G04 Aperture macros list end*
%ADD10C,0.150000*%
%ADD11C,0.120000*%
%ADD12C,0.152400*%
%ADD13C,0.127000*%
%ADD14RoundRect,0.237500X0.300000X0.237500X-0.300000X0.237500X-0.300000X-0.237500X0.300000X-0.237500X0*%
%ADD15C,2.500000*%
%ADD16R,1.800000X1.800000*%
%ADD17C,1.800000*%
%ADD18R,0.508000X1.320800*%
%ADD19RoundRect,0.237500X0.237500X-0.300000X0.237500X0.300000X-0.237500X0.300000X-0.237500X-0.300000X0*%
%ADD20RoundRect,0.237500X-0.237500X0.300000X-0.237500X-0.300000X0.237500X-0.300000X0.237500X0.300000X0*%
%ADD21RoundRect,0.237500X0.250000X0.237500X-0.250000X0.237500X-0.250000X-0.237500X0.250000X-0.237500X0*%
%ADD22RoundRect,0.250000X0.325000X0.450000X-0.325000X0.450000X-0.325000X-0.450000X0.325000X-0.450000X0*%
%ADD23RoundRect,0.237500X-0.250000X-0.237500X0.250000X-0.237500X0.250000X0.237500X-0.250000X0.237500X0*%
%ADD24RoundRect,0.102000X-0.571500X0.508000X-0.571500X-0.508000X0.571500X-0.508000X0.571500X0.508000X0*%
%ADD25R,1.700000X0.650000*%
%ADD26R,1.700000X1.700000*%
%ADD27O,1.700000X1.700000*%
G04 APERTURE END LIST*
D10*
X118273332Y-78976104D02*
X118311428Y-79014200D01*
X118311428Y-79014200D02*
X118425713Y-79052295D01*
X118425713Y-79052295D02*
X118501904Y-79052295D01*
X118501904Y-79052295D02*
X118616190Y-79014200D01*
X118616190Y-79014200D02*
X118692380Y-78938009D01*
X118692380Y-78938009D02*
X118730475Y-78861819D01*
X118730475Y-78861819D02*
X118768571Y-78709438D01*
X118768571Y-78709438D02*
X118768571Y-78595152D01*
X118768571Y-78595152D02*
X118730475Y-78442771D01*
X118730475Y-78442771D02*
X118692380Y-78366580D01*
X118692380Y-78366580D02*
X118616190Y-78290390D01*
X118616190Y-78290390D02*
X118501904Y-78252295D01*
X118501904Y-78252295D02*
X118425713Y-78252295D01*
X118425713Y-78252295D02*
X118311428Y-78290390D01*
X118311428Y-78290390D02*
X118273332Y-78328485D01*
X117587618Y-78518961D02*
X117587618Y-79052295D01*
X117778094Y-78214200D02*
X117968571Y-78785628D01*
X117968571Y-78785628D02*
X117473332Y-78785628D01*
X126040476Y-78457704D02*
X126040476Y-77810085D01*
X126040476Y-77810085D02*
X126078571Y-77733895D01*
X126078571Y-77733895D02*
X126116666Y-77695800D01*
X126116666Y-77695800D02*
X126192857Y-77657704D01*
X126192857Y-77657704D02*
X126345238Y-77657704D01*
X126345238Y-77657704D02*
X126421428Y-77695800D01*
X126421428Y-77695800D02*
X126459523Y-77733895D01*
X126459523Y-77733895D02*
X126497619Y-77810085D01*
X126497619Y-77810085D02*
X126497619Y-78457704D01*
X126802380Y-78457704D02*
X127297618Y-78457704D01*
X127297618Y-78457704D02*
X127030952Y-78152942D01*
X127030952Y-78152942D02*
X127145237Y-78152942D01*
X127145237Y-78152942D02*
X127221428Y-78114847D01*
X127221428Y-78114847D02*
X127259523Y-78076752D01*
X127259523Y-78076752D02*
X127297618Y-78000561D01*
X127297618Y-78000561D02*
X127297618Y-77810085D01*
X127297618Y-77810085D02*
X127259523Y-77733895D01*
X127259523Y-77733895D02*
X127221428Y-77695800D01*
X127221428Y-77695800D02*
X127145237Y-77657704D01*
X127145237Y-77657704D02*
X126916666Y-77657704D01*
X126916666Y-77657704D02*
X126840475Y-77695800D01*
X126840475Y-77695800D02*
X126802380Y-77733895D01*
X124303332Y-72866104D02*
X124341428Y-72904200D01*
X124341428Y-72904200D02*
X124455713Y-72942295D01*
X124455713Y-72942295D02*
X124531904Y-72942295D01*
X124531904Y-72942295D02*
X124646190Y-72904200D01*
X124646190Y-72904200D02*
X124722380Y-72828009D01*
X124722380Y-72828009D02*
X124760475Y-72751819D01*
X124760475Y-72751819D02*
X124798571Y-72599438D01*
X124798571Y-72599438D02*
X124798571Y-72485152D01*
X124798571Y-72485152D02*
X124760475Y-72332771D01*
X124760475Y-72332771D02*
X124722380Y-72256580D01*
X124722380Y-72256580D02*
X124646190Y-72180390D01*
X124646190Y-72180390D02*
X124531904Y-72142295D01*
X124531904Y-72142295D02*
X124455713Y-72142295D01*
X124455713Y-72142295D02*
X124341428Y-72180390D01*
X124341428Y-72180390D02*
X124303332Y-72218485D01*
X123541428Y-72942295D02*
X123998571Y-72942295D01*
X123769999Y-72942295D02*
X123769999Y-72142295D01*
X123769999Y-72142295D02*
X123846190Y-72256580D01*
X123846190Y-72256580D02*
X123922380Y-72332771D01*
X123922380Y-72332771D02*
X123998571Y-72370866D01*
X130886104Y-72271667D02*
X130924200Y-72233571D01*
X130924200Y-72233571D02*
X130962295Y-72119286D01*
X130962295Y-72119286D02*
X130962295Y-72043095D01*
X130962295Y-72043095D02*
X130924200Y-71928809D01*
X130924200Y-71928809D02*
X130848009Y-71852619D01*
X130848009Y-71852619D02*
X130771819Y-71814524D01*
X130771819Y-71814524D02*
X130619438Y-71776428D01*
X130619438Y-71776428D02*
X130505152Y-71776428D01*
X130505152Y-71776428D02*
X130352771Y-71814524D01*
X130352771Y-71814524D02*
X130276580Y-71852619D01*
X130276580Y-71852619D02*
X130200390Y-71928809D01*
X130200390Y-71928809D02*
X130162295Y-72043095D01*
X130162295Y-72043095D02*
X130162295Y-72119286D01*
X130162295Y-72119286D02*
X130200390Y-72233571D01*
X130200390Y-72233571D02*
X130238485Y-72271667D01*
X130238485Y-72576428D02*
X130200390Y-72614524D01*
X130200390Y-72614524D02*
X130162295Y-72690714D01*
X130162295Y-72690714D02*
X130162295Y-72881190D01*
X130162295Y-72881190D02*
X130200390Y-72957381D01*
X130200390Y-72957381D02*
X130238485Y-72995476D01*
X130238485Y-72995476D02*
X130314676Y-73033571D01*
X130314676Y-73033571D02*
X130390866Y-73033571D01*
X130390866Y-73033571D02*
X130505152Y-72995476D01*
X130505152Y-72995476D02*
X130962295Y-72538333D01*
X130962295Y-72538333D02*
X130962295Y-73033571D01*
X132082295Y-76942857D02*
X131701342Y-76676190D01*
X132082295Y-76485714D02*
X131282295Y-76485714D01*
X131282295Y-76485714D02*
X131282295Y-76790476D01*
X131282295Y-76790476D02*
X131320390Y-76866666D01*
X131320390Y-76866666D02*
X131358485Y-76904761D01*
X131358485Y-76904761D02*
X131434676Y-76942857D01*
X131434676Y-76942857D02*
X131548961Y-76942857D01*
X131548961Y-76942857D02*
X131625152Y-76904761D01*
X131625152Y-76904761D02*
X131663247Y-76866666D01*
X131663247Y-76866666D02*
X131701342Y-76790476D01*
X131701342Y-76790476D02*
X131701342Y-76485714D01*
X132082295Y-77666666D02*
X132082295Y-77285714D01*
X132082295Y-77285714D02*
X131282295Y-77285714D01*
X131358485Y-77895237D02*
X131320390Y-77933333D01*
X131320390Y-77933333D02*
X131282295Y-78009523D01*
X131282295Y-78009523D02*
X131282295Y-78199999D01*
X131282295Y-78199999D02*
X131320390Y-78276190D01*
X131320390Y-78276190D02*
X131358485Y-78314285D01*
X131358485Y-78314285D02*
X131434676Y-78352380D01*
X131434676Y-78352380D02*
X131510866Y-78352380D01*
X131510866Y-78352380D02*
X131625152Y-78314285D01*
X131625152Y-78314285D02*
X132082295Y-77857142D01*
X132082295Y-77857142D02*
X132082295Y-78352380D01*
X118247142Y-77712295D02*
X118513809Y-77331342D01*
X118704285Y-77712295D02*
X118704285Y-76912295D01*
X118704285Y-76912295D02*
X118399523Y-76912295D01*
X118399523Y-76912295D02*
X118323333Y-76950390D01*
X118323333Y-76950390D02*
X118285238Y-76988485D01*
X118285238Y-76988485D02*
X118247142Y-77064676D01*
X118247142Y-77064676D02*
X118247142Y-77178961D01*
X118247142Y-77178961D02*
X118285238Y-77255152D01*
X118285238Y-77255152D02*
X118323333Y-77293247D01*
X118323333Y-77293247D02*
X118399523Y-77331342D01*
X118399523Y-77331342D02*
X118704285Y-77331342D01*
X117523333Y-77712295D02*
X117904285Y-77712295D01*
X117904285Y-77712295D02*
X117904285Y-76912295D01*
X116837619Y-77712295D02*
X117294762Y-77712295D01*
X117066190Y-77712295D02*
X117066190Y-76912295D01*
X117066190Y-76912295D02*
X117142381Y-77026580D01*
X117142381Y-77026580D02*
X117218571Y-77102771D01*
X117218571Y-77102771D02*
X117294762Y-77140866D01*
X118722295Y-85672857D02*
X118341342Y-85406190D01*
X118722295Y-85215714D02*
X117922295Y-85215714D01*
X117922295Y-85215714D02*
X117922295Y-85520476D01*
X117922295Y-85520476D02*
X117960390Y-85596666D01*
X117960390Y-85596666D02*
X117998485Y-85634761D01*
X117998485Y-85634761D02*
X118074676Y-85672857D01*
X118074676Y-85672857D02*
X118188961Y-85672857D01*
X118188961Y-85672857D02*
X118265152Y-85634761D01*
X118265152Y-85634761D02*
X118303247Y-85596666D01*
X118303247Y-85596666D02*
X118341342Y-85520476D01*
X118341342Y-85520476D02*
X118341342Y-85215714D01*
X118722295Y-86396666D02*
X118722295Y-86015714D01*
X118722295Y-86015714D02*
X117922295Y-86015714D01*
X117922295Y-86587142D02*
X117922295Y-87082380D01*
X117922295Y-87082380D02*
X118227057Y-86815714D01*
X118227057Y-86815714D02*
X118227057Y-86929999D01*
X118227057Y-86929999D02*
X118265152Y-87006190D01*
X118265152Y-87006190D02*
X118303247Y-87044285D01*
X118303247Y-87044285D02*
X118379438Y-87082380D01*
X118379438Y-87082380D02*
X118569914Y-87082380D01*
X118569914Y-87082380D02*
X118646104Y-87044285D01*
X118646104Y-87044285D02*
X118684200Y-87006190D01*
X118684200Y-87006190D02*
X118722295Y-86929999D01*
X118722295Y-86929999D02*
X118722295Y-86701428D01*
X118722295Y-86701428D02*
X118684200Y-86625237D01*
X118684200Y-86625237D02*
X118646104Y-86587142D01*
X117502295Y-81816667D02*
X117121342Y-81550000D01*
X117502295Y-81359524D02*
X116702295Y-81359524D01*
X116702295Y-81359524D02*
X116702295Y-81664286D01*
X116702295Y-81664286D02*
X116740390Y-81740476D01*
X116740390Y-81740476D02*
X116778485Y-81778571D01*
X116778485Y-81778571D02*
X116854676Y-81816667D01*
X116854676Y-81816667D02*
X116968961Y-81816667D01*
X116968961Y-81816667D02*
X117045152Y-81778571D01*
X117045152Y-81778571D02*
X117083247Y-81740476D01*
X117083247Y-81740476D02*
X117121342Y-81664286D01*
X117121342Y-81664286D02*
X117121342Y-81359524D01*
X116702295Y-82502381D02*
X116702295Y-82350000D01*
X116702295Y-82350000D02*
X116740390Y-82273809D01*
X116740390Y-82273809D02*
X116778485Y-82235714D01*
X116778485Y-82235714D02*
X116892771Y-82159524D01*
X116892771Y-82159524D02*
X117045152Y-82121428D01*
X117045152Y-82121428D02*
X117349914Y-82121428D01*
X117349914Y-82121428D02*
X117426104Y-82159524D01*
X117426104Y-82159524D02*
X117464200Y-82197619D01*
X117464200Y-82197619D02*
X117502295Y-82273809D01*
X117502295Y-82273809D02*
X117502295Y-82426190D01*
X117502295Y-82426190D02*
X117464200Y-82502381D01*
X117464200Y-82502381D02*
X117426104Y-82540476D01*
X117426104Y-82540476D02*
X117349914Y-82578571D01*
X117349914Y-82578571D02*
X117159438Y-82578571D01*
X117159438Y-82578571D02*
X117083247Y-82540476D01*
X117083247Y-82540476D02*
X117045152Y-82502381D01*
X117045152Y-82502381D02*
X117007057Y-82426190D01*
X117007057Y-82426190D02*
X117007057Y-82273809D01*
X117007057Y-82273809D02*
X117045152Y-82197619D01*
X117045152Y-82197619D02*
X117083247Y-82159524D01*
X117083247Y-82159524D02*
X117159438Y-82121428D01*
X125010475Y-93932295D02*
X125010475Y-93132295D01*
X125010475Y-93132295D02*
X124819999Y-93132295D01*
X124819999Y-93132295D02*
X124705713Y-93170390D01*
X124705713Y-93170390D02*
X124629523Y-93246580D01*
X124629523Y-93246580D02*
X124591428Y-93322771D01*
X124591428Y-93322771D02*
X124553332Y-93475152D01*
X124553332Y-93475152D02*
X124553332Y-93589438D01*
X124553332Y-93589438D02*
X124591428Y-93741819D01*
X124591428Y-93741819D02*
X124629523Y-93818009D01*
X124629523Y-93818009D02*
X124705713Y-93894200D01*
X124705713Y-93894200D02*
X124819999Y-93932295D01*
X124819999Y-93932295D02*
X125010475Y-93932295D01*
X123829523Y-93132295D02*
X124210475Y-93132295D01*
X124210475Y-93132295D02*
X124248571Y-93513247D01*
X124248571Y-93513247D02*
X124210475Y-93475152D01*
X124210475Y-93475152D02*
X124134285Y-93437057D01*
X124134285Y-93437057D02*
X123943809Y-93437057D01*
X123943809Y-93437057D02*
X123867618Y-93475152D01*
X123867618Y-93475152D02*
X123829523Y-93513247D01*
X123829523Y-93513247D02*
X123791428Y-93589438D01*
X123791428Y-93589438D02*
X123791428Y-93779914D01*
X123791428Y-93779914D02*
X123829523Y-93856104D01*
X123829523Y-93856104D02*
X123867618Y-93894200D01*
X123867618Y-93894200D02*
X123943809Y-93932295D01*
X123943809Y-93932295D02*
X124134285Y-93932295D01*
X124134285Y-93932295D02*
X124210475Y-93894200D01*
X124210475Y-93894200D02*
X124248571Y-93856104D01*
X134894285Y-81192295D02*
X135160952Y-80811342D01*
X135351428Y-81192295D02*
X135351428Y-80392295D01*
X135351428Y-80392295D02*
X135046666Y-80392295D01*
X135046666Y-80392295D02*
X134970476Y-80430390D01*
X134970476Y-80430390D02*
X134932381Y-80468485D01*
X134932381Y-80468485D02*
X134894285Y-80544676D01*
X134894285Y-80544676D02*
X134894285Y-80658961D01*
X134894285Y-80658961D02*
X134932381Y-80735152D01*
X134932381Y-80735152D02*
X134970476Y-80773247D01*
X134970476Y-80773247D02*
X135046666Y-80811342D01*
X135046666Y-80811342D02*
X135351428Y-80811342D01*
X134132381Y-81192295D02*
X134589524Y-81192295D01*
X134360952Y-81192295D02*
X134360952Y-80392295D01*
X134360952Y-80392295D02*
X134437143Y-80506580D01*
X134437143Y-80506580D02*
X134513333Y-80582771D01*
X134513333Y-80582771D02*
X134589524Y-80620866D01*
X133370476Y-81192295D02*
X133827619Y-81192295D01*
X133599047Y-81192295D02*
X133599047Y-80392295D01*
X133599047Y-80392295D02*
X133675238Y-80506580D01*
X133675238Y-80506580D02*
X133751428Y-80582771D01*
X133751428Y-80582771D02*
X133827619Y-80620866D01*
X125144485Y-89808809D02*
X125106390Y-89732619D01*
X125106390Y-89732619D02*
X125030200Y-89656428D01*
X125030200Y-89656428D02*
X124915914Y-89542142D01*
X124915914Y-89542142D02*
X124877819Y-89465952D01*
X124877819Y-89465952D02*
X124877819Y-89389761D01*
X125068295Y-89427857D02*
X125030200Y-89351666D01*
X125030200Y-89351666D02*
X124954009Y-89275476D01*
X124954009Y-89275476D02*
X124801628Y-89237380D01*
X124801628Y-89237380D02*
X124534961Y-89237380D01*
X124534961Y-89237380D02*
X124382580Y-89275476D01*
X124382580Y-89275476D02*
X124306390Y-89351666D01*
X124306390Y-89351666D02*
X124268295Y-89427857D01*
X124268295Y-89427857D02*
X124268295Y-89580238D01*
X124268295Y-89580238D02*
X124306390Y-89656428D01*
X124306390Y-89656428D02*
X124382580Y-89732619D01*
X124382580Y-89732619D02*
X124534961Y-89770714D01*
X124534961Y-89770714D02*
X124801628Y-89770714D01*
X124801628Y-89770714D02*
X124954009Y-89732619D01*
X124954009Y-89732619D02*
X125030200Y-89656428D01*
X125030200Y-89656428D02*
X125068295Y-89580238D01*
X125068295Y-89580238D02*
X125068295Y-89427857D01*
X124344485Y-90075475D02*
X124306390Y-90113571D01*
X124306390Y-90113571D02*
X124268295Y-90189761D01*
X124268295Y-90189761D02*
X124268295Y-90380237D01*
X124268295Y-90380237D02*
X124306390Y-90456428D01*
X124306390Y-90456428D02*
X124344485Y-90494523D01*
X124344485Y-90494523D02*
X124420676Y-90532618D01*
X124420676Y-90532618D02*
X124496866Y-90532618D01*
X124496866Y-90532618D02*
X124611152Y-90494523D01*
X124611152Y-90494523D02*
X125068295Y-90037380D01*
X125068295Y-90037380D02*
X125068295Y-90532618D01*
X132272295Y-85862857D02*
X131891342Y-85596190D01*
X132272295Y-85405714D02*
X131472295Y-85405714D01*
X131472295Y-85405714D02*
X131472295Y-85710476D01*
X131472295Y-85710476D02*
X131510390Y-85786666D01*
X131510390Y-85786666D02*
X131548485Y-85824761D01*
X131548485Y-85824761D02*
X131624676Y-85862857D01*
X131624676Y-85862857D02*
X131738961Y-85862857D01*
X131738961Y-85862857D02*
X131815152Y-85824761D01*
X131815152Y-85824761D02*
X131853247Y-85786666D01*
X131853247Y-85786666D02*
X131891342Y-85710476D01*
X131891342Y-85710476D02*
X131891342Y-85405714D01*
X132272295Y-86586666D02*
X132272295Y-86205714D01*
X132272295Y-86205714D02*
X131472295Y-86205714D01*
X131738961Y-87196190D02*
X132272295Y-87196190D01*
X131434200Y-87005714D02*
X132005628Y-86815237D01*
X132005628Y-86815237D02*
X132005628Y-87310476D01*
X127389523Y-81422295D02*
X127389523Y-82069914D01*
X127389523Y-82069914D02*
X127351428Y-82146104D01*
X127351428Y-82146104D02*
X127313333Y-82184200D01*
X127313333Y-82184200D02*
X127237142Y-82222295D01*
X127237142Y-82222295D02*
X127084761Y-82222295D01*
X127084761Y-82222295D02*
X127008571Y-82184200D01*
X127008571Y-82184200D02*
X126970476Y-82146104D01*
X126970476Y-82146104D02*
X126932380Y-82069914D01*
X126932380Y-82069914D02*
X126932380Y-81422295D01*
X126589524Y-81498485D02*
X126551428Y-81460390D01*
X126551428Y-81460390D02*
X126475238Y-81422295D01*
X126475238Y-81422295D02*
X126284762Y-81422295D01*
X126284762Y-81422295D02*
X126208571Y-81460390D01*
X126208571Y-81460390D02*
X126170476Y-81498485D01*
X126170476Y-81498485D02*
X126132381Y-81574676D01*
X126132381Y-81574676D02*
X126132381Y-81650866D01*
X126132381Y-81650866D02*
X126170476Y-81765152D01*
X126170476Y-81765152D02*
X126627619Y-82222295D01*
X126627619Y-82222295D02*
X126132381Y-82222295D01*
D11*
X119886233Y-79190000D02*
X120178767Y-79190000D01*
X119886233Y-80210000D02*
X120178767Y-80210000D01*
D12*
X125243600Y-73896700D02*
X125243600Y-75954100D01*
X126556739Y-75954100D02*
X127283261Y-75954100D01*
X128596400Y-75954100D02*
X128596400Y-73896700D01*
D11*
X123650000Y-74711233D02*
X123650000Y-75003767D01*
X124670000Y-74711233D02*
X124670000Y-75003767D01*
X129140000Y-75063767D02*
X129140000Y-74771233D01*
X130160000Y-75063767D02*
X130160000Y-74771233D01*
X133872776Y-77017500D02*
X134382224Y-77017500D01*
X133872776Y-78062500D02*
X134382224Y-78062500D01*
X120362776Y-77087500D02*
X120872224Y-77087500D01*
X120362776Y-78132500D02*
X120872224Y-78132500D01*
X120382776Y-85487500D02*
X120892224Y-85487500D01*
X120382776Y-86532500D02*
X120892224Y-86532500D01*
X119322776Y-81857500D02*
X119832224Y-81857500D01*
X119322776Y-82902500D02*
X119832224Y-82902500D01*
X126065000Y-93840000D02*
X128925000Y-93840000D01*
X128925000Y-91920000D02*
X126065000Y-91920000D01*
X128925000Y-93840000D02*
X128925000Y-91920000D01*
X134837224Y-81747500D02*
X134327776Y-81747500D01*
X134837224Y-82792500D02*
X134327776Y-82792500D01*
D13*
X126195000Y-86363500D02*
X126195000Y-87125500D01*
X126195000Y-88522500D02*
X126195000Y-89284500D01*
X126195000Y-89284500D02*
X127084000Y-89284500D01*
X127084000Y-86363500D02*
X126195000Y-86363500D01*
D11*
X133877776Y-85787500D02*
X134387224Y-85787500D01*
X133877776Y-86832500D02*
X134387224Y-86832500D01*
D10*
X124090000Y-78930000D02*
X129590000Y-78930000D01*
X124090000Y-79135000D02*
X124090000Y-78930000D01*
X124090000Y-84235000D02*
X124090000Y-84440000D01*
X124090000Y-84440000D02*
X129590000Y-84440000D01*
X129590000Y-79135000D02*
X129590000Y-78930000D01*
X129590000Y-84235000D02*
X129590000Y-84440000D01*
D11*
X130140000Y-79185000D02*
X129900000Y-78855000D01*
X130380000Y-78855000D01*
X130140000Y-79185000D01*
G36*
X130140000Y-79185000D02*
G01*
X129900000Y-78855000D01*
X130380000Y-78855000D01*
X130140000Y-79185000D01*
G37*
X129545000Y-71830000D02*
X128215000Y-71830000D01*
X129545000Y-70500000D02*
X129545000Y-71830000D01*
X126945000Y-69170000D02*
X126945000Y-71830000D01*
X124345000Y-71830000D02*
X126945000Y-71830000D01*
X124345000Y-69170000D02*
X126945000Y-69170000D01*
X124345000Y-69170000D02*
X124345000Y-71830000D01*
%LPC*%
D14*
X120895000Y-79700000D03*
X119170000Y-79700000D03*
D15*
X135000000Y-93640000D03*
D16*
X132500000Y-88780000D03*
D17*
X135040000Y-88780000D03*
D15*
X118500000Y-70000000D03*
D16*
X119000000Y-75000000D03*
D17*
X121540000Y-75000000D03*
D16*
X119000000Y-88780000D03*
D17*
X121540000Y-88780000D03*
D15*
X118500000Y-93640000D03*
X135000000Y-70000000D03*
D16*
X132500000Y-75000000D03*
D17*
X135040000Y-75000000D03*
D18*
X125969999Y-73630000D03*
X126920000Y-73630000D03*
X127870001Y-73630000D03*
X127870001Y-76220800D03*
X125969999Y-76220800D03*
D19*
X124160000Y-75720000D03*
X124160000Y-73995000D03*
D20*
X129650000Y-74055000D03*
X129650000Y-75780000D03*
D21*
X135040000Y-77540000D03*
X133215000Y-77540000D03*
X121530000Y-77610000D03*
X119705000Y-77610000D03*
X121550000Y-86010000D03*
X119725000Y-86010000D03*
X120490000Y-82380000D03*
X118665000Y-82380000D03*
D22*
X128090000Y-92880000D03*
X126040000Y-92880000D03*
D23*
X133670000Y-82270000D03*
X135495000Y-82270000D03*
D24*
X127846000Y-86935000D03*
X127846000Y-88713000D03*
X125814000Y-87824000D03*
D21*
X135045000Y-86310000D03*
X133220000Y-86310000D03*
D25*
X130490000Y-79780000D03*
X130490000Y-81050000D03*
X130490000Y-82320000D03*
X130490000Y-83590000D03*
X123190000Y-83590000D03*
X123190000Y-82320000D03*
X123190000Y-81050000D03*
X123190000Y-79780000D03*
D26*
X128215000Y-70500000D03*
D27*
X125675000Y-70500000D03*
%LPD*%
M02*
