M48
; DRILL file {KiCad 8.0.1} date 2025-01-22T20:31:25-0700
; FORMAT={-:-/ absolute / metric / decimal}
; #@! TF.CreationDate,2025-01-22T20:31:25-07:00
; #@! TF.GenerationSoftware,Kicad,Pcbnew,8.0.1
; #@! TF.FileFunction,Plated,1,2,PTH
FMAT,2
METRIC
; #@! TA.AperFunction,Plated,PTH,ViaDrill
T1C0.300
; #@! TA.AperFunction,Plated,PTH,ComponentDrill
T2C1.000
%
G90
G05
T1
X197.804Y-97.739
X198.45Y-98.4
X198.49Y-81.06
X198.51Y-96.66
X199.61Y-96.09
X199.97Y-87.71
X201.08Y-106.33
X201.47Y-95.83
X201.48Y-67.71
X201.53Y-82.33
X202.57Y-106.58
X202.58Y-105.05
X202.94Y-95.92
X202.96Y-87.7
X203.66Y-94.38
X205.3Y-82.32
X205.97Y-87.484
X206.8Y-82.44
X207.28Y-93.5
X207.43Y-105.69
X207.44Y-96.01
X208.2Y-93.79
X208.48Y-110.08
X209.07Y-87.43
X209.9Y-94.39
X210.16Y-105.58
X210.69Y-98.33
T2
X200.42Y-65.86
X202.96Y-65.86
X205.5Y-65.86
X208.04Y-65.86
M30
