%TF.GenerationSoftware,KiCad,Pcbnew,8.0.1*%
%TF.CreationDate,2025-01-22T20:31:23-07:00*%
%TF.ProjectId,LEDDisplay,4c454444-6973-4706-9c61-792e6b696361,rev?*%
%TF.SameCoordinates,Original*%
%TF.FileFunction,Copper,L2,Bot*%
%TF.FilePolarity,Positive*%
%FSLAX46Y46*%
G04 Gerber Fmt 4.6, Leading zero omitted, Abs format (unit mm)*
G04 Created by KiCad (PCBNEW 8.0.1) date 2025-01-22 20:31:23*
%MOMM*%
%LPD*%
G01*
G04 APERTURE LIST*
%TA.AperFunction,ComponentPad*%
%ADD10R,1.700000X1.700000*%
%TD*%
%TA.AperFunction,ComponentPad*%
%ADD11O,1.700000X1.700000*%
%TD*%
%TA.AperFunction,ViaPad*%
%ADD12C,0.600000*%
%TD*%
%TA.AperFunction,Conductor*%
%ADD13C,0.152400*%
%TD*%
G04 APERTURE END LIST*
D10*
%TO.P,J3,1,Pin_1*%
%TO.N,VCC*%
X200420000Y-65860000D03*
D11*
%TO.P,J3,2,Pin_2*%
%TO.N,GND*%
X202960000Y-65860000D03*
%TO.P,J3,3,Pin_3*%
%TO.N,BPW34_1*%
X205500000Y-65860000D03*
%TO.P,J3,4,Pin_4*%
%TO.N,GND*%
X208040000Y-65860000D03*
%TD*%
D12*
%TO.N,L9*%
X197804465Y-97739335D03*
X198490000Y-81060000D03*
%TO.N,L10*%
X198450000Y-98400000D03*
X201530000Y-82330000D03*
%TO.N,L11*%
X205300000Y-82320000D03*
X198510000Y-96660000D03*
%TO.N,L12*%
X206800000Y-82440000D03*
X199610000Y-96090000D03*
%TO.N,L13*%
X199970000Y-87710000D03*
X201470000Y-95830000D03*
%TO.N,L14*%
X202940000Y-95920000D03*
X202960000Y-87700000D03*
%TO.N,L15*%
X205970000Y-87483800D03*
X203660000Y-94380000D03*
%TO.N,L16*%
X207440000Y-96010000D03*
X209070000Y-87430000D03*
%TO.N,VCC*%
X208480000Y-110080000D03*
X207430000Y-105690000D03*
%TO.N,DATA*%
X209900000Y-94390000D03*
X202580000Y-105050000D03*
%TO.N,CLK*%
X202570000Y-106580000D03*
X208200000Y-93790000D03*
%TO.N,VDD_3.3V*%
X210690000Y-98330000D03*
X210160000Y-105580000D03*
%TO.N,LE*%
X201080000Y-106330000D03*
X207280000Y-93500000D03*
%TO.N,BPW34_1*%
X201480000Y-67710000D03*
%TD*%
D13*
%TO.N,L9*%
X196487600Y-83062400D02*
X198490000Y-81060000D01*
X197804465Y-97739335D02*
X196487600Y-96422470D01*
X196487600Y-96422470D02*
X196487600Y-83062400D01*
%TO.N,L10*%
X198450000Y-98400000D02*
X198450000Y-97570000D01*
X196957600Y-96077600D02*
X196957600Y-85422400D01*
X198450000Y-97570000D02*
X196957600Y-96077600D01*
X196957600Y-85422400D02*
X200050000Y-82330000D01*
X200050000Y-82330000D02*
X201530000Y-82330000D01*
%TO.N,L11*%
X197310000Y-85910000D02*
X200280000Y-82940000D01*
X198510000Y-96230000D02*
X197310000Y-95030000D01*
X204680000Y-82940000D02*
X205300000Y-82320000D01*
X197310000Y-95030000D02*
X197310000Y-85910000D01*
X198510000Y-96660000D02*
X198510000Y-96230000D01*
X200280000Y-82940000D02*
X204680000Y-82940000D01*
%TO.N,L12*%
X206380000Y-82440000D02*
X206800000Y-82440000D01*
X205350000Y-83470000D02*
X206380000Y-82440000D01*
X199610000Y-96090000D02*
X197840000Y-94320000D01*
X200480000Y-83470000D02*
X205350000Y-83470000D01*
X197840000Y-94320000D02*
X197840000Y-86110000D01*
X197840000Y-86110000D02*
X200480000Y-83470000D01*
%TO.N,L13*%
X201470000Y-95830000D02*
X199970000Y-94330000D01*
X199970000Y-94330000D02*
X199970000Y-87710000D01*
%TO.N,L14*%
X202940000Y-95920000D02*
X202940000Y-87720000D01*
X202940000Y-87720000D02*
X202960000Y-87700000D01*
%TO.N,L15*%
X205970000Y-92070000D02*
X205970000Y-87483800D01*
X203660000Y-94380000D02*
X205970000Y-92070000D01*
%TO.N,L16*%
X209070000Y-94360000D02*
X209070000Y-87430000D01*
X207440000Y-96010000D02*
X207440000Y-95990000D01*
X207440000Y-95990000D02*
X209070000Y-94360000D01*
%TO.N,VCC*%
X207430000Y-105690000D02*
X209080000Y-104040000D01*
X208350000Y-106610000D02*
X208350000Y-109950000D01*
X209080000Y-104040000D02*
X209080000Y-97990000D01*
X210630000Y-96440000D02*
X210630000Y-81130000D01*
X207430000Y-105690000D02*
X208350000Y-106610000D01*
X208350000Y-109950000D02*
X208480000Y-110080000D01*
X209080000Y-97990000D02*
X210630000Y-96440000D01*
X210630000Y-81130000D02*
X200420000Y-70920000D01*
X200420000Y-70920000D02*
X200420000Y-65860000D01*
%TO.N,DATA*%
X209900000Y-95310000D02*
X209900000Y-94390000D01*
X202580000Y-105050000D02*
X202580000Y-102630000D01*
X202580000Y-102630000D02*
X209900000Y-95310000D01*
%TO.N,CLK*%
X202570000Y-106580000D02*
X201990000Y-106000000D01*
X201990000Y-106000000D02*
X201990000Y-99850000D01*
X202140000Y-99850000D02*
X208200000Y-93790000D01*
X201990000Y-99850000D02*
X202140000Y-99850000D01*
%TO.N,LE*%
X201080000Y-106330000D02*
X201080000Y-99700000D01*
X201080000Y-99700000D02*
X207280000Y-93500000D01*
%TO.N,BPW34_1*%
X205500000Y-66420000D02*
X205500000Y-65860000D01*
X204210000Y-67710000D02*
X205500000Y-66420000D01*
X201480000Y-67710000D02*
X204210000Y-67710000D01*
%TD*%
%TA.AperFunction,Conductor*%
%TO.N,VDD_3.3V*%
G36*
X212882638Y-64268093D02*
G01*
X212908358Y-64312642D01*
X212909500Y-64325700D01*
X212909500Y-110344300D01*
X212891907Y-110392638D01*
X212847358Y-110418358D01*
X212834300Y-110419500D01*
X209047776Y-110419500D01*
X208999438Y-110401907D01*
X208973718Y-110357358D01*
X208978300Y-110315523D01*
X208979539Y-110312530D01*
X209016330Y-110223709D01*
X209035250Y-110080000D01*
X209016330Y-109936291D01*
X208960861Y-109802375D01*
X208960860Y-109802374D01*
X208960860Y-109802373D01*
X208872621Y-109687378D01*
X208757626Y-109599139D01*
X208623710Y-109543670D01*
X208623707Y-109543669D01*
X208619079Y-109543060D01*
X208573453Y-109519304D01*
X208553771Y-109471779D01*
X208553700Y-109468504D01*
X208553700Y-106569482D01*
X208553700Y-106569481D01*
X208522689Y-106494613D01*
X208465387Y-106437311D01*
X208465386Y-106437310D01*
X207971238Y-105943163D01*
X207949499Y-105896544D01*
X207954938Y-105861211D01*
X207959938Y-105849140D01*
X207966330Y-105833709D01*
X207985250Y-105690000D01*
X207966330Y-105546291D01*
X207954937Y-105518785D01*
X207952694Y-105467394D01*
X207971235Y-105436838D01*
X209252689Y-104155387D01*
X209283700Y-104080519D01*
X209283700Y-103999482D01*
X209283700Y-98105522D01*
X209301293Y-98057184D01*
X209305715Y-98052359D01*
X210745385Y-96612689D01*
X210745387Y-96612689D01*
X210802689Y-96555387D01*
X210833700Y-96480519D01*
X210833700Y-81089481D01*
X210802689Y-81014613D01*
X210745387Y-80957311D01*
X210745386Y-80957310D01*
X200645726Y-70857650D01*
X200623986Y-70811030D01*
X200623700Y-70804476D01*
X200623700Y-67710000D01*
X200924750Y-67710000D01*
X200943670Y-67853709D01*
X200955673Y-67882687D01*
X200999139Y-67987626D01*
X201087378Y-68102621D01*
X201202373Y-68190860D01*
X201202374Y-68190860D01*
X201202375Y-68190861D01*
X201336291Y-68246330D01*
X201480000Y-68265250D01*
X201623709Y-68246330D01*
X201757625Y-68190861D01*
X201872621Y-68102621D01*
X201960861Y-67987625D01*
X201972253Y-67960122D01*
X202007005Y-67922197D01*
X202041729Y-67913700D01*
X204250517Y-67913700D01*
X204250519Y-67913700D01*
X204325387Y-67882689D01*
X204382689Y-67825387D01*
X204382689Y-67825386D01*
X204393265Y-67814810D01*
X204393265Y-67814808D01*
X205285948Y-66922126D01*
X205332567Y-66900387D01*
X205346490Y-66900462D01*
X205500000Y-66915583D01*
X205705934Y-66895300D01*
X205903954Y-66835232D01*
X206086450Y-66737685D01*
X206246410Y-66606410D01*
X206377685Y-66446450D01*
X206475232Y-66263954D01*
X206535300Y-66065934D01*
X206555583Y-65860000D01*
X206984417Y-65860000D01*
X207004699Y-66065932D01*
X207064765Y-66263947D01*
X207064770Y-66263959D01*
X207162312Y-66446445D01*
X207162315Y-66446450D01*
X207293590Y-66606410D01*
X207453550Y-66737685D01*
X207636046Y-66835232D01*
X207636050Y-66835233D01*
X207636052Y-66835234D01*
X207699733Y-66854551D01*
X207834066Y-66895300D01*
X208040000Y-66915583D01*
X208245934Y-66895300D01*
X208443954Y-66835232D01*
X208626450Y-66737685D01*
X208786410Y-66606410D01*
X208917685Y-66446450D01*
X209015232Y-66263954D01*
X209075300Y-66065934D01*
X209095583Y-65860000D01*
X209075300Y-65654066D01*
X209015232Y-65456046D01*
X208917685Y-65273550D01*
X208786410Y-65113590D01*
X208626450Y-64982315D01*
X208626445Y-64982312D01*
X208443959Y-64884770D01*
X208443947Y-64884765D01*
X208245932Y-64824699D01*
X208040000Y-64804417D01*
X207834067Y-64824699D01*
X207636052Y-64884765D01*
X207636040Y-64884770D01*
X207453554Y-64982312D01*
X207453549Y-64982315D01*
X207293590Y-65113590D01*
X207162315Y-65273549D01*
X207162312Y-65273554D01*
X207064770Y-65456040D01*
X207064765Y-65456052D01*
X207004699Y-65654067D01*
X206984417Y-65860000D01*
X206555583Y-65860000D01*
X206535300Y-65654066D01*
X206475232Y-65456046D01*
X206377685Y-65273550D01*
X206246410Y-65113590D01*
X206086450Y-64982315D01*
X206086445Y-64982312D01*
X205903959Y-64884770D01*
X205903947Y-64884765D01*
X205705932Y-64824699D01*
X205500000Y-64804417D01*
X205294067Y-64824699D01*
X205096052Y-64884765D01*
X205096040Y-64884770D01*
X204913554Y-64982312D01*
X204913549Y-64982315D01*
X204753590Y-65113590D01*
X204622315Y-65273549D01*
X204622312Y-65273554D01*
X204524770Y-65456040D01*
X204524765Y-65456052D01*
X204464699Y-65654067D01*
X204444417Y-65860000D01*
X204464699Y-66065932D01*
X204524765Y-66263947D01*
X204524770Y-66263959D01*
X204622312Y-66446445D01*
X204622315Y-66446450D01*
X204753592Y-66606413D01*
X204838805Y-66676345D01*
X204865010Y-66720610D01*
X204856630Y-66771362D01*
X204844273Y-66787649D01*
X204147650Y-67484274D01*
X204101031Y-67506014D01*
X204094477Y-67506300D01*
X202041729Y-67506300D01*
X201993391Y-67488707D01*
X201972253Y-67459878D01*
X201970278Y-67455110D01*
X201960861Y-67432375D01*
X201960859Y-67432372D01*
X201872621Y-67317378D01*
X201757626Y-67229139D01*
X201623711Y-67173671D01*
X201623709Y-67173670D01*
X201480000Y-67154750D01*
X201336291Y-67173670D01*
X201336288Y-67173670D01*
X201336288Y-67173671D01*
X201202373Y-67229139D01*
X201087378Y-67317378D01*
X200999139Y-67432373D01*
X200943671Y-67566288D01*
X200943670Y-67566291D01*
X200924750Y-67710000D01*
X200623700Y-67710000D01*
X200623700Y-66985700D01*
X200641293Y-66937362D01*
X200685842Y-66911642D01*
X200698900Y-66910500D01*
X201289749Y-66910500D01*
X201309242Y-66906622D01*
X201348231Y-66898867D01*
X201414552Y-66854552D01*
X201458867Y-66788231D01*
X201470500Y-66729748D01*
X201470500Y-65860000D01*
X201904417Y-65860000D01*
X201924699Y-66065932D01*
X201984765Y-66263947D01*
X201984770Y-66263959D01*
X202082312Y-66446445D01*
X202082315Y-66446450D01*
X202213590Y-66606410D01*
X202373550Y-66737685D01*
X202556046Y-66835232D01*
X202556050Y-66835233D01*
X202556052Y-66835234D01*
X202619733Y-66854551D01*
X202754066Y-66895300D01*
X202960000Y-66915583D01*
X203165934Y-66895300D01*
X203363954Y-66835232D01*
X203546450Y-66737685D01*
X203706410Y-66606410D01*
X203837685Y-66446450D01*
X203935232Y-66263954D01*
X203995300Y-66065934D01*
X204015583Y-65860000D01*
X203995300Y-65654066D01*
X203935232Y-65456046D01*
X203837685Y-65273550D01*
X203706410Y-65113590D01*
X203546450Y-64982315D01*
X203546445Y-64982312D01*
X203363959Y-64884770D01*
X203363947Y-64884765D01*
X203165932Y-64824699D01*
X202960000Y-64804417D01*
X202754067Y-64824699D01*
X202556052Y-64884765D01*
X202556040Y-64884770D01*
X202373554Y-64982312D01*
X202373549Y-64982315D01*
X202213590Y-65113590D01*
X202082315Y-65273549D01*
X202082312Y-65273554D01*
X201984770Y-65456040D01*
X201984765Y-65456052D01*
X201924699Y-65654067D01*
X201904417Y-65860000D01*
X201470500Y-65860000D01*
X201470500Y-64990252D01*
X201458867Y-64931769D01*
X201414552Y-64865448D01*
X201348231Y-64821133D01*
X201348229Y-64821132D01*
X201289749Y-64809500D01*
X201289748Y-64809500D01*
X199550252Y-64809500D01*
X199550251Y-64809500D01*
X199491770Y-64821132D01*
X199491768Y-64821133D01*
X199425448Y-64865448D01*
X199381133Y-64931768D01*
X199381132Y-64931770D01*
X199369500Y-64990251D01*
X199369500Y-66729748D01*
X199381132Y-66788229D01*
X199381133Y-66788231D01*
X199425448Y-66854552D01*
X199491769Y-66898867D01*
X199499411Y-66900387D01*
X199550251Y-66910500D01*
X199550252Y-66910500D01*
X200141100Y-66910500D01*
X200189438Y-66928093D01*
X200215158Y-66972642D01*
X200216300Y-66985700D01*
X200216300Y-70960519D01*
X200247311Y-71035387D01*
X200304613Y-71092689D01*
X200304614Y-71092689D01*
X200315190Y-71103265D01*
X210404274Y-81192349D01*
X210426014Y-81238969D01*
X210426300Y-81245523D01*
X210426300Y-93950060D01*
X210408707Y-93998398D01*
X210364158Y-94024118D01*
X210313500Y-94015185D01*
X210296602Y-94000368D01*
X210296107Y-94000864D01*
X210292624Y-93997381D01*
X210177626Y-93909139D01*
X210060198Y-93860500D01*
X210043709Y-93853670D01*
X209900000Y-93834750D01*
X209756291Y-93853670D01*
X209756288Y-93853670D01*
X209756288Y-93853671D01*
X209622373Y-93909139D01*
X209507378Y-93997378D01*
X209419138Y-94112374D01*
X209418375Y-94114218D01*
X209417562Y-94115104D01*
X209416675Y-94116642D01*
X209416334Y-94116445D01*
X209383623Y-94152143D01*
X209332623Y-94158856D01*
X209289239Y-94131217D01*
X209273700Y-94085439D01*
X209273700Y-87991728D01*
X209291293Y-87943390D01*
X209320120Y-87922253D01*
X209347625Y-87910861D01*
X209462621Y-87822621D01*
X209550861Y-87707625D01*
X209606330Y-87573709D01*
X209625250Y-87430000D01*
X209606330Y-87286291D01*
X209550861Y-87152375D01*
X209550860Y-87152374D01*
X209550860Y-87152373D01*
X209462621Y-87037378D01*
X209347626Y-86949139D01*
X209213711Y-86893671D01*
X209213709Y-86893670D01*
X209070000Y-86874750D01*
X208926291Y-86893670D01*
X208926288Y-86893670D01*
X208926288Y-86893671D01*
X208792373Y-86949139D01*
X208677378Y-87037378D01*
X208589139Y-87152373D01*
X208533671Y-87286288D01*
X208533670Y-87286291D01*
X208514750Y-87430000D01*
X208533670Y-87573709D01*
X208533671Y-87573711D01*
X208589139Y-87707626D01*
X208677378Y-87822621D01*
X208792371Y-87910859D01*
X208792374Y-87910860D01*
X208792375Y-87910861D01*
X208819878Y-87922252D01*
X208857802Y-87957003D01*
X208866300Y-87991728D01*
X208866300Y-93582009D01*
X208848707Y-93630347D01*
X208804158Y-93656067D01*
X208753500Y-93647134D01*
X208721624Y-93610787D01*
X208709704Y-93582009D01*
X208680861Y-93512375D01*
X208680859Y-93512372D01*
X208592621Y-93397378D01*
X208477626Y-93309139D01*
X208343711Y-93253671D01*
X208343709Y-93253670D01*
X208200000Y-93234750D01*
X208056291Y-93253670D01*
X208056288Y-93253670D01*
X208056288Y-93253671D01*
X207922379Y-93309137D01*
X207922374Y-93309139D01*
X207904834Y-93322598D01*
X207855774Y-93338064D01*
X207808251Y-93318378D01*
X207789581Y-93291713D01*
X207773823Y-93253670D01*
X207760861Y-93222375D01*
X207760860Y-93222374D01*
X207760860Y-93222373D01*
X207672621Y-93107378D01*
X207557626Y-93019139D01*
X207423711Y-92963671D01*
X207423709Y-92963670D01*
X207280000Y-92944750D01*
X207136291Y-92963670D01*
X207136288Y-92963670D01*
X207136288Y-92963671D01*
X207002373Y-93019139D01*
X206887378Y-93107378D01*
X206799139Y-93222373D01*
X206743671Y-93356288D01*
X206743670Y-93356291D01*
X206738261Y-93397378D01*
X206724750Y-93500000D01*
X206743670Y-93643710D01*
X206748449Y-93655248D01*
X206755062Y-93671212D01*
X206757305Y-93722602D01*
X206738760Y-93753163D01*
X203846675Y-96645249D01*
X200964614Y-99527310D01*
X200964613Y-99527311D01*
X200935963Y-99555961D01*
X200907313Y-99584610D01*
X200907312Y-99584612D01*
X200907311Y-99584613D01*
X200881760Y-99646300D01*
X200876300Y-99659482D01*
X200876300Y-105768271D01*
X200858707Y-105816609D01*
X200829879Y-105837746D01*
X200802373Y-105849139D01*
X200802372Y-105849140D01*
X200687378Y-105937378D01*
X200599139Y-106052373D01*
X200550061Y-106170861D01*
X200543670Y-106186291D01*
X200524750Y-106330000D01*
X200543670Y-106473709D01*
X200543671Y-106473711D01*
X200599139Y-106607626D01*
X200687378Y-106722621D01*
X200802373Y-106810860D01*
X200802374Y-106810860D01*
X200802375Y-106810861D01*
X200936291Y-106866330D01*
X201080000Y-106885250D01*
X201223709Y-106866330D01*
X201357625Y-106810861D01*
X201472621Y-106722621D01*
X201560861Y-106607625D01*
X201616330Y-106473709D01*
X201635250Y-106330000D01*
X201616330Y-106186291D01*
X201560861Y-106052375D01*
X201560860Y-106052374D01*
X201560860Y-106052373D01*
X201472621Y-105937378D01*
X201357627Y-105849140D01*
X201357626Y-105849139D01*
X201330121Y-105837746D01*
X201292196Y-105802994D01*
X201283700Y-105768271D01*
X201283700Y-99815522D01*
X201301293Y-99767184D01*
X201305715Y-99762359D01*
X207026835Y-94041238D01*
X207073454Y-94019499D01*
X207108785Y-94024937D01*
X207116621Y-94028182D01*
X207136291Y-94036330D01*
X207280000Y-94055250D01*
X207423709Y-94036330D01*
X207487356Y-94009966D01*
X207538744Y-94007723D01*
X207579554Y-94039038D01*
X207590688Y-94089258D01*
X207569305Y-94132617D01*
X202077651Y-99624274D01*
X202031031Y-99646014D01*
X202024477Y-99646300D01*
X201949481Y-99646300D01*
X201874613Y-99677311D01*
X201874612Y-99677312D01*
X201874607Y-99677315D01*
X201817315Y-99734607D01*
X201817312Y-99734612D01*
X201817311Y-99734613D01*
X201786300Y-99809481D01*
X201786300Y-106040519D01*
X201817311Y-106115387D01*
X201874613Y-106172689D01*
X201874614Y-106172689D01*
X201885190Y-106183265D01*
X202028760Y-106326835D01*
X202050500Y-106373455D01*
X202045063Y-106408784D01*
X202033670Y-106436289D01*
X202016135Y-106569481D01*
X202014750Y-106580000D01*
X202033670Y-106723709D01*
X202049918Y-106762936D01*
X202089139Y-106857626D01*
X202177378Y-106972621D01*
X202292373Y-107060860D01*
X202292374Y-107060860D01*
X202292375Y-107060861D01*
X202426291Y-107116330D01*
X202570000Y-107135250D01*
X202713709Y-107116330D01*
X202847625Y-107060861D01*
X202962621Y-106972621D01*
X203050861Y-106857625D01*
X203106330Y-106723709D01*
X203125250Y-106580000D01*
X203106330Y-106436291D01*
X203050861Y-106302375D01*
X203050860Y-106302374D01*
X203050860Y-106302373D01*
X202962621Y-106187378D01*
X202847626Y-106099139D01*
X202746627Y-106057305D01*
X202713709Y-106043670D01*
X202570000Y-106024750D01*
X202426289Y-106043670D01*
X202398784Y-106055063D01*
X202347393Y-106057305D01*
X202316835Y-106038760D01*
X202215726Y-105937651D01*
X202193986Y-105891031D01*
X202193700Y-105884477D01*
X202193700Y-105598367D01*
X202211293Y-105550029D01*
X202255842Y-105524309D01*
X202296764Y-105531525D01*
X202297821Y-105528975D01*
X202337159Y-105545269D01*
X202436291Y-105586330D01*
X202580000Y-105605250D01*
X202723709Y-105586330D01*
X202857625Y-105530861D01*
X202972621Y-105442621D01*
X203060861Y-105327625D01*
X203116330Y-105193709D01*
X203135250Y-105050000D01*
X203116330Y-104906291D01*
X203060861Y-104772375D01*
X203060860Y-104772374D01*
X203060860Y-104772373D01*
X202972621Y-104657378D01*
X202857627Y-104569140D01*
X202857626Y-104569139D01*
X202830121Y-104557746D01*
X202792196Y-104522994D01*
X202783700Y-104488271D01*
X202783700Y-102745523D01*
X202801293Y-102697185D01*
X202805726Y-102692349D01*
X210072684Y-95425392D01*
X210072684Y-95425391D01*
X210072689Y-95425387D01*
X210103700Y-95350519D01*
X210103700Y-95269482D01*
X210103700Y-94951728D01*
X210121293Y-94903390D01*
X210150120Y-94882253D01*
X210177625Y-94870861D01*
X210190659Y-94860860D01*
X210268467Y-94801155D01*
X210292621Y-94782621D01*
X210292622Y-94782619D01*
X210292624Y-94782618D01*
X210296107Y-94779136D01*
X210297360Y-94780389D01*
X210334817Y-94756523D01*
X210385818Y-94763233D01*
X210420573Y-94801155D01*
X210426300Y-94829939D01*
X210426300Y-96324476D01*
X210408707Y-96372814D01*
X210404274Y-96377650D01*
X209651179Y-97130745D01*
X208964614Y-97817310D01*
X208964613Y-97817311D01*
X208943653Y-97838271D01*
X208907313Y-97874610D01*
X208907312Y-97874612D01*
X208907311Y-97874613D01*
X208888868Y-97919139D01*
X208876300Y-97949482D01*
X208876300Y-103924476D01*
X208858707Y-103972814D01*
X208854274Y-103977650D01*
X207683163Y-105148760D01*
X207636543Y-105170500D01*
X207601213Y-105165062D01*
X207585248Y-105158449D01*
X207573710Y-105153670D01*
X207430000Y-105134750D01*
X207286291Y-105153670D01*
X207286288Y-105153670D01*
X207286288Y-105153671D01*
X207152373Y-105209139D01*
X207037378Y-105297378D01*
X206949139Y-105412373D01*
X206900061Y-105530861D01*
X206893670Y-105546291D01*
X206874750Y-105690000D01*
X206893670Y-105833709D01*
X206893671Y-105833711D01*
X206949139Y-105967626D01*
X207037378Y-106082621D01*
X207152373Y-106170860D01*
X207152374Y-106170860D01*
X207152375Y-106170861D01*
X207286291Y-106226330D01*
X207430000Y-106245250D01*
X207573709Y-106226330D01*
X207601211Y-106214937D01*
X207652602Y-106212693D01*
X207683164Y-106231239D01*
X208124274Y-106672349D01*
X208146014Y-106718969D01*
X208146300Y-106725523D01*
X208146300Y-109605082D01*
X208128707Y-109653420D01*
X208116880Y-109664742D01*
X208087377Y-109687380D01*
X207999139Y-109802373D01*
X207943671Y-109936288D01*
X207943670Y-109936291D01*
X207924750Y-110080000D01*
X207943670Y-110223709D01*
X207943671Y-110223711D01*
X207981700Y-110315523D01*
X207983943Y-110366913D01*
X207952629Y-110407723D01*
X207912224Y-110419500D01*
X195475700Y-110419500D01*
X195427362Y-110401907D01*
X195401642Y-110357358D01*
X195400500Y-110344300D01*
X195400500Y-96462989D01*
X196283900Y-96462989D01*
X196314911Y-96537857D01*
X196372213Y-96595159D01*
X196372214Y-96595159D01*
X196382790Y-96605735D01*
X197263225Y-97486170D01*
X197284965Y-97532790D01*
X197279528Y-97568119D01*
X197268135Y-97595624D01*
X197268135Y-97595626D01*
X197249215Y-97739335D01*
X197268135Y-97883044D01*
X197278367Y-97907746D01*
X197323604Y-98016961D01*
X197411843Y-98131956D01*
X197526838Y-98220195D01*
X197526839Y-98220195D01*
X197526840Y-98220196D01*
X197660756Y-98275665D01*
X197804465Y-98294585D01*
X197813298Y-98293422D01*
X197863519Y-98304554D01*
X197894835Y-98345363D01*
X197897673Y-98377791D01*
X197894750Y-98399997D01*
X197894750Y-98400000D01*
X197913670Y-98543709D01*
X197913671Y-98543711D01*
X197969139Y-98677626D01*
X198057378Y-98792621D01*
X198172373Y-98880860D01*
X198172374Y-98880860D01*
X198172375Y-98880861D01*
X198306291Y-98936330D01*
X198450000Y-98955250D01*
X198593709Y-98936330D01*
X198727625Y-98880861D01*
X198842621Y-98792621D01*
X198930861Y-98677625D01*
X198986330Y-98543709D01*
X199005250Y-98400000D01*
X198986330Y-98256291D01*
X198930861Y-98122375D01*
X198930860Y-98122374D01*
X198930860Y-98122373D01*
X198842621Y-98007378D01*
X198727627Y-97919140D01*
X198727626Y-97919139D01*
X198700121Y-97907746D01*
X198662196Y-97872994D01*
X198653700Y-97838271D01*
X198653700Y-97529482D01*
X198650477Y-97521700D01*
X198622689Y-97454613D01*
X198565387Y-97397311D01*
X198565386Y-97397310D01*
X198505889Y-97337813D01*
X198484149Y-97291193D01*
X198497463Y-97241506D01*
X198539600Y-97212001D01*
X198549233Y-97210084D01*
X198653709Y-97196330D01*
X198787625Y-97140861D01*
X198902621Y-97052621D01*
X198990861Y-96937625D01*
X199046330Y-96803709D01*
X199065250Y-96660000D01*
X199046330Y-96516291D01*
X199033967Y-96486445D01*
X199031723Y-96435056D01*
X199063037Y-96394245D01*
X199113258Y-96383111D01*
X199158886Y-96406863D01*
X199163103Y-96411889D01*
X199217378Y-96482621D01*
X199332373Y-96570860D01*
X199332374Y-96570860D01*
X199332375Y-96570861D01*
X199466291Y-96626330D01*
X199610000Y-96645250D01*
X199753709Y-96626330D01*
X199887625Y-96570861D01*
X200002621Y-96482621D01*
X200090861Y-96367625D01*
X200146330Y-96233709D01*
X200165250Y-96090000D01*
X200146330Y-95946291D01*
X200090861Y-95812375D01*
X200090860Y-95812374D01*
X200090860Y-95812373D01*
X200002621Y-95697378D01*
X199887626Y-95609139D01*
X199786627Y-95567305D01*
X199753709Y-95553670D01*
X199610000Y-95534750D01*
X199466289Y-95553670D01*
X199438784Y-95565063D01*
X199387393Y-95567305D01*
X199356835Y-95548760D01*
X198065726Y-94257651D01*
X198043986Y-94211031D01*
X198043700Y-94204477D01*
X198043700Y-87710000D01*
X199414750Y-87710000D01*
X199433670Y-87853709D01*
X199449918Y-87892936D01*
X199489139Y-87987626D01*
X199577378Y-88102621D01*
X199692371Y-88190859D01*
X199692374Y-88190860D01*
X199692375Y-88190861D01*
X199719878Y-88202252D01*
X199757802Y-88237003D01*
X199766300Y-88271728D01*
X199766300Y-94370519D01*
X199797311Y-94445387D01*
X199854613Y-94502689D01*
X199854614Y-94502689D01*
X199865190Y-94513265D01*
X199865191Y-94513266D01*
X200928760Y-95576836D01*
X200950500Y-95623456D01*
X200945062Y-95658787D01*
X200933671Y-95686287D01*
X200933671Y-95686288D01*
X200933670Y-95686291D01*
X200914750Y-95830000D01*
X200933670Y-95973709D01*
X200933671Y-95973711D01*
X200989139Y-96107626D01*
X201077378Y-96222621D01*
X201192373Y-96310860D01*
X201192374Y-96310860D01*
X201192375Y-96310861D01*
X201326291Y-96366330D01*
X201470000Y-96385250D01*
X201613709Y-96366330D01*
X201747625Y-96310861D01*
X201862621Y-96222621D01*
X201950861Y-96107625D01*
X202006330Y-95973709D01*
X202013401Y-95920000D01*
X202384750Y-95920000D01*
X202403670Y-96063709D01*
X202403671Y-96063711D01*
X202459139Y-96197626D01*
X202547378Y-96312621D01*
X202662373Y-96400860D01*
X202662374Y-96400860D01*
X202662375Y-96400861D01*
X202796291Y-96456330D01*
X202940000Y-96475250D01*
X203083709Y-96456330D01*
X203217625Y-96400861D01*
X203332621Y-96312621D01*
X203420861Y-96197625D01*
X203476330Y-96063709D01*
X203495250Y-95920000D01*
X203476330Y-95776291D01*
X203420861Y-95642375D01*
X203420860Y-95642374D01*
X203420860Y-95642373D01*
X203332621Y-95527378D01*
X203217627Y-95439140D01*
X203217626Y-95439139D01*
X203190121Y-95427746D01*
X203152196Y-95392994D01*
X203143700Y-95358271D01*
X203143700Y-94830209D01*
X203161293Y-94781871D01*
X203205842Y-94756151D01*
X203256500Y-94765084D01*
X203264679Y-94770549D01*
X203267378Y-94772620D01*
X203267379Y-94772621D01*
X203279434Y-94781871D01*
X203382373Y-94860860D01*
X203382374Y-94860860D01*
X203382375Y-94860861D01*
X203516291Y-94916330D01*
X203660000Y-94935250D01*
X203803709Y-94916330D01*
X203937625Y-94860861D01*
X204052621Y-94772621D01*
X204140861Y-94657625D01*
X204196330Y-94523709D01*
X204215250Y-94380000D01*
X204196330Y-94236291D01*
X204184937Y-94208785D01*
X204182694Y-94157394D01*
X204201237Y-94126836D01*
X206142689Y-92185387D01*
X206173700Y-92110519D01*
X206173700Y-92029482D01*
X206173700Y-88045528D01*
X206191293Y-87997190D01*
X206220120Y-87976053D01*
X206247625Y-87964661D01*
X206302895Y-87922251D01*
X206362621Y-87876421D01*
X206450860Y-87761426D01*
X206450859Y-87761426D01*
X206450861Y-87761425D01*
X206506330Y-87627509D01*
X206525250Y-87483800D01*
X206506330Y-87340091D01*
X206450861Y-87206175D01*
X206450860Y-87206174D01*
X206450860Y-87206173D01*
X206362621Y-87091178D01*
X206247626Y-87002939D01*
X206113711Y-86947471D01*
X206113709Y-86947470D01*
X205970000Y-86928550D01*
X205826291Y-86947470D01*
X205826288Y-86947470D01*
X205826288Y-86947471D01*
X205692373Y-87002939D01*
X205577378Y-87091178D01*
X205489139Y-87206173D01*
X205443078Y-87317378D01*
X205433670Y-87340091D01*
X205414750Y-87483800D01*
X205433670Y-87627509D01*
X205433671Y-87627511D01*
X205489139Y-87761426D01*
X205577378Y-87876421D01*
X205692371Y-87964659D01*
X205692374Y-87964660D01*
X205692375Y-87964661D01*
X205719878Y-87976052D01*
X205757802Y-88010803D01*
X205766300Y-88045528D01*
X205766300Y-91954476D01*
X205748707Y-92002814D01*
X205744274Y-92007650D01*
X203913163Y-93838760D01*
X203866543Y-93860500D01*
X203831213Y-93855062D01*
X203815248Y-93848449D01*
X203803710Y-93843670D01*
X203660000Y-93824750D01*
X203516291Y-93843670D01*
X203516288Y-93843670D01*
X203516288Y-93843671D01*
X203382373Y-93899139D01*
X203264679Y-93989450D01*
X203215620Y-94004918D01*
X203168096Y-93985233D01*
X203144343Y-93939606D01*
X203143700Y-93929790D01*
X203143700Y-88270012D01*
X203161293Y-88221674D01*
X203190124Y-88200536D01*
X203237625Y-88180861D01*
X203352621Y-88092621D01*
X203433187Y-87987626D01*
X203440861Y-87977625D01*
X203496330Y-87843709D01*
X203515250Y-87700000D01*
X203496330Y-87556291D01*
X203440861Y-87422375D01*
X203440860Y-87422374D01*
X203440860Y-87422373D01*
X203352621Y-87307378D01*
X203237626Y-87219139D01*
X203103711Y-87163671D01*
X203103709Y-87163670D01*
X202960000Y-87144750D01*
X202816291Y-87163670D01*
X202816288Y-87163670D01*
X202816288Y-87163671D01*
X202682373Y-87219139D01*
X202567378Y-87307378D01*
X202479139Y-87422373D01*
X202453696Y-87483800D01*
X202423670Y-87556291D01*
X202404750Y-87700000D01*
X202423670Y-87843709D01*
X202423671Y-87843711D01*
X202479139Y-87977626D01*
X202567378Y-88092621D01*
X202682373Y-88180860D01*
X202689874Y-88183967D01*
X202727801Y-88218717D01*
X202736300Y-88253444D01*
X202736300Y-95358271D01*
X202718707Y-95406609D01*
X202689879Y-95427746D01*
X202662373Y-95439139D01*
X202662372Y-95439140D01*
X202547378Y-95527378D01*
X202459139Y-95642373D01*
X202421861Y-95732373D01*
X202403670Y-95776291D01*
X202384750Y-95920000D01*
X202013401Y-95920000D01*
X202025250Y-95830000D01*
X202006330Y-95686291D01*
X201950861Y-95552375D01*
X201950860Y-95552374D01*
X201950860Y-95552373D01*
X201862621Y-95437378D01*
X201747626Y-95349139D01*
X201635232Y-95302585D01*
X201613709Y-95293670D01*
X201470000Y-95274750D01*
X201326291Y-95293670D01*
X201326289Y-95293670D01*
X201326287Y-95293671D01*
X201298787Y-95305062D01*
X201247396Y-95307305D01*
X201216836Y-95288760D01*
X200195726Y-94267650D01*
X200173986Y-94221030D01*
X200173700Y-94214476D01*
X200173700Y-88271728D01*
X200191293Y-88223390D01*
X200220120Y-88202253D01*
X200247625Y-88190861D01*
X200256610Y-88183967D01*
X200362621Y-88102621D01*
X200444986Y-87995281D01*
X200450861Y-87987625D01*
X200506330Y-87853709D01*
X200525250Y-87710000D01*
X200506330Y-87566291D01*
X200450861Y-87432375D01*
X200450860Y-87432374D01*
X200450860Y-87432373D01*
X200362621Y-87317378D01*
X200247626Y-87229139D01*
X200113711Y-87173671D01*
X200113709Y-87173670D01*
X199970000Y-87154750D01*
X199826291Y-87173670D01*
X199826288Y-87173670D01*
X199826288Y-87173671D01*
X199692373Y-87229139D01*
X199577378Y-87317378D01*
X199489139Y-87432373D01*
X199467838Y-87483800D01*
X199433670Y-87566291D01*
X199414750Y-87710000D01*
X198043700Y-87710000D01*
X198043700Y-86225523D01*
X198061293Y-86177185D01*
X198065726Y-86172349D01*
X200542349Y-83695726D01*
X200588969Y-83673986D01*
X200595523Y-83673700D01*
X205390517Y-83673700D01*
X205390519Y-83673700D01*
X205465387Y-83642689D01*
X205522689Y-83585387D01*
X205522689Y-83585386D01*
X205533265Y-83574810D01*
X205533266Y-83574808D01*
X206289467Y-82818606D01*
X206336086Y-82796867D01*
X206385773Y-82810181D01*
X206402301Y-82826003D01*
X206407379Y-82832621D01*
X206522373Y-82920860D01*
X206522374Y-82920860D01*
X206522375Y-82920861D01*
X206656291Y-82976330D01*
X206800000Y-82995250D01*
X206943709Y-82976330D01*
X207077625Y-82920861D01*
X207192621Y-82832621D01*
X207280861Y-82717625D01*
X207336330Y-82583709D01*
X207355250Y-82440000D01*
X207336330Y-82296291D01*
X207280861Y-82162375D01*
X207280860Y-82162374D01*
X207280860Y-82162373D01*
X207192621Y-82047378D01*
X207077626Y-81959139D01*
X206943711Y-81903671D01*
X206943709Y-81903670D01*
X206800000Y-81884750D01*
X206656291Y-81903670D01*
X206656288Y-81903670D01*
X206656288Y-81903671D01*
X206522373Y-81959139D01*
X206407378Y-82047378D01*
X206319140Y-82162372D01*
X206319138Y-82162375D01*
X206288634Y-82236018D01*
X206268424Y-82260649D01*
X206269850Y-82262074D01*
X206264613Y-82267310D01*
X206264613Y-82267311D01*
X206207311Y-82324613D01*
X206207310Y-82324614D01*
X206068215Y-82463709D01*
X205939687Y-82592237D01*
X205893067Y-82613976D01*
X205843380Y-82600662D01*
X205813875Y-82558525D01*
X205817037Y-82510285D01*
X205836330Y-82463709D01*
X205855250Y-82320000D01*
X205836330Y-82176291D01*
X205780861Y-82042375D01*
X205780860Y-82042374D01*
X205780860Y-82042373D01*
X205692621Y-81927378D01*
X205577626Y-81839139D01*
X205443711Y-81783671D01*
X205443709Y-81783670D01*
X205300000Y-81764750D01*
X205156291Y-81783670D01*
X205156288Y-81783670D01*
X205156288Y-81783671D01*
X205022373Y-81839139D01*
X204907378Y-81927378D01*
X204819139Y-82042373D01*
X204771531Y-82157312D01*
X204763670Y-82176291D01*
X204744750Y-82320000D01*
X204763670Y-82463710D01*
X204775062Y-82491213D01*
X204777304Y-82542604D01*
X204758760Y-82573163D01*
X204617651Y-82714274D01*
X204571031Y-82736014D01*
X204564476Y-82736300D01*
X202064616Y-82736300D01*
X202016278Y-82718707D01*
X201990558Y-82674158D01*
X201999491Y-82623500D01*
X202004957Y-82615320D01*
X202010860Y-82607626D01*
X202010859Y-82607626D01*
X202010861Y-82607625D01*
X202066330Y-82473709D01*
X202085250Y-82330000D01*
X202066330Y-82186291D01*
X202010861Y-82052375D01*
X202010860Y-82052374D01*
X202010860Y-82052373D01*
X201922621Y-81937378D01*
X201807626Y-81849139D01*
X201673711Y-81793671D01*
X201673709Y-81793670D01*
X201530000Y-81774750D01*
X201386291Y-81793670D01*
X201386288Y-81793670D01*
X201386288Y-81793671D01*
X201252373Y-81849139D01*
X201137378Y-81937378D01*
X201049140Y-82052372D01*
X201037747Y-82079878D01*
X201002995Y-82117803D01*
X200968271Y-82126300D01*
X200009481Y-82126300D01*
X199934613Y-82157311D01*
X199934612Y-82157312D01*
X199934610Y-82157313D01*
X199915636Y-82176288D01*
X199877311Y-82214613D01*
X199877310Y-82214614D01*
X196842214Y-85249710D01*
X196842213Y-85249711D01*
X196819673Y-85272251D01*
X196773052Y-85293989D01*
X196723366Y-85280674D01*
X196693862Y-85238537D01*
X196691300Y-85219075D01*
X196691300Y-83177923D01*
X196708893Y-83129585D01*
X196713326Y-83124749D01*
X197398075Y-82440000D01*
X198236836Y-81601238D01*
X198283455Y-81579499D01*
X198318785Y-81584936D01*
X198346291Y-81596330D01*
X198490000Y-81615250D01*
X198633709Y-81596330D01*
X198767625Y-81540861D01*
X198882621Y-81452621D01*
X198970861Y-81337625D01*
X199026330Y-81203709D01*
X199045250Y-81060000D01*
X199026330Y-80916291D01*
X198970861Y-80782375D01*
X198970860Y-80782374D01*
X198970860Y-80782373D01*
X198882621Y-80667378D01*
X198767626Y-80579139D01*
X198633711Y-80523671D01*
X198633709Y-80523670D01*
X198490000Y-80504750D01*
X198346291Y-80523670D01*
X198346288Y-80523670D01*
X198346288Y-80523671D01*
X198212373Y-80579139D01*
X198097378Y-80667378D01*
X198009139Y-80782373D01*
X197953671Y-80916288D01*
X197953670Y-80916291D01*
X197934750Y-81060000D01*
X197953670Y-81203710D01*
X197965062Y-81231213D01*
X197967304Y-81282604D01*
X197948759Y-81313163D01*
X196751641Y-82510283D01*
X196372214Y-82889710D01*
X196372213Y-82889711D01*
X196345596Y-82916328D01*
X196314913Y-82947010D01*
X196314912Y-82947012D01*
X196314911Y-82947013D01*
X196283900Y-83021881D01*
X196283900Y-96462989D01*
X195400500Y-96462989D01*
X195400500Y-64325700D01*
X195418093Y-64277362D01*
X195462642Y-64251642D01*
X195475700Y-64250500D01*
X212834300Y-64250500D01*
X212882638Y-64268093D01*
G37*
%TD.AperFunction*%
%TD*%
M02*
