G04 #@! TF.GenerationSoftware,KiCad,Pcbnew,8.0.1*
G04 #@! TF.CreationDate,2025-02-25T21:33:37-07:00*
G04 #@! TF.ProjectId,VibrationBand,56696272-6174-4696-9f6e-42616e642e6b,rev?*
G04 #@! TF.SameCoordinates,Original*
G04 #@! TF.FileFunction,Paste,Top*
G04 #@! TF.FilePolarity,Positive*
%FSLAX46Y46*%
G04 Gerber Fmt 4.6, Leading zero omitted, Abs format (unit mm)*
G04 Created by KiCad (PCBNEW 8.0.1) date 2025-02-25 21:33:37*
%MOMM*%
%LPD*%
G01*
G04 APERTURE LIST*
G04 Aperture macros list*
%AMRoundRect*
0 Rectangle with rounded corners*
0 $1 Rounding radius*
0 $2 $3 $4 $5 $6 $7 $8 $9 X,Y pos of 4 corners*
0 Add a 4 corners polygon primitive as box body*
4,1,4,$2,$3,$4,$5,$6,$7,$8,$9,$2,$3,0*
0 Add four circle primitives for the rounded corners*
1,1,$1+$1,$2,$3*
1,1,$1+$1,$4,$5*
1,1,$1+$1,$6,$7*
1,1,$1+$1,$8,$9*
0 Add four rect primitives between the rounded corners*
20,1,$1+$1,$2,$3,$4,$5,0*
20,1,$1+$1,$4,$5,$6,$7,0*
20,1,$1+$1,$6,$7,$8,$9,0*
20,1,$1+$1,$8,$9,$2,$3,0*%
G04 Aperture macros list end*
%ADD10RoundRect,0.237500X0.250000X0.237500X-0.250000X0.237500X-0.250000X-0.237500X0.250000X-0.237500X0*%
%ADD11R,1.111200X0.600800*%
%ADD12R,1.700000X0.650000*%
%ADD13RoundRect,0.225000X0.225000X0.250000X-0.225000X0.250000X-0.225000X-0.250000X0.225000X-0.250000X0*%
%ADD14RoundRect,0.200000X-0.200000X-0.275000X0.200000X-0.275000X0.200000X0.275000X-0.200000X0.275000X0*%
%ADD15R,0.558800X1.219200*%
%ADD16RoundRect,0.225000X-0.250000X0.225000X-0.250000X-0.225000X0.250000X-0.225000X0.250000X0.225000X0*%
%ADD17RoundRect,0.225000X0.250000X-0.225000X0.250000X0.225000X-0.250000X0.225000X-0.250000X-0.225000X0*%
%ADD18RoundRect,0.150000X-0.512500X-0.150000X0.512500X-0.150000X0.512500X0.150000X-0.512500X0.150000X0*%
%ADD19RoundRect,0.237500X0.237500X-0.300000X0.237500X0.300000X-0.237500X0.300000X-0.237500X-0.300000X0*%
%ADD20RoundRect,0.150000X0.150000X-0.512500X0.150000X0.512500X-0.150000X0.512500X-0.150000X-0.512500X0*%
%ADD21RoundRect,0.237500X-0.237500X0.300000X-0.237500X-0.300000X0.237500X-0.300000X0.237500X0.300000X0*%
%ADD22RoundRect,0.200000X0.275000X-0.200000X0.275000X0.200000X-0.275000X0.200000X-0.275000X-0.200000X0*%
G04 APERTURE END LIST*
D10*
X109355000Y-135540000D03*
X107530000Y-135540000D03*
X109910000Y-88670000D03*
X108085000Y-88670000D03*
D11*
X113120000Y-94370000D03*
X109670000Y-94370000D03*
D12*
X109235000Y-68610000D03*
X109235000Y-69880000D03*
X109235000Y-71150000D03*
X109235000Y-72420000D03*
X116535000Y-72420000D03*
X116535000Y-71150000D03*
X116535000Y-69880000D03*
X116535000Y-68610000D03*
D13*
X114870000Y-57475000D03*
X113320000Y-57475000D03*
D11*
X112280000Y-126950000D03*
X108830000Y-126950000D03*
X112930000Y-111030000D03*
X109480000Y-111030000D03*
D14*
X113320000Y-55175000D03*
X114970000Y-55175000D03*
D15*
X107849000Y-132896800D03*
X109754000Y-132896800D03*
X108801500Y-130763200D03*
D16*
X118780000Y-64690000D03*
X118780000Y-66240000D03*
D10*
X110230000Y-102550000D03*
X108405000Y-102550000D03*
D13*
X119330000Y-53740000D03*
X117780000Y-53740000D03*
D17*
X106630000Y-54860000D03*
X106630000Y-53310000D03*
D18*
X110065000Y-61880000D03*
X110065000Y-62830000D03*
X110065000Y-63780000D03*
X112340000Y-63780000D03*
X112340000Y-61880000D03*
D19*
X107335000Y-63557500D03*
X107335000Y-61832500D03*
D15*
X108385000Y-86110000D03*
X110290000Y-86110000D03*
X109337500Y-83976400D03*
D20*
X109270000Y-57475000D03*
X110220000Y-57475000D03*
X111170000Y-57475000D03*
X111170000Y-55200000D03*
X109270000Y-55200000D03*
D15*
X108515000Y-116250000D03*
X110420000Y-116250000D03*
X109467500Y-114116400D03*
D10*
X110070000Y-119810000D03*
X108245000Y-119810000D03*
D21*
X114655000Y-61852500D03*
X114655000Y-63577500D03*
D11*
X112790000Y-80620000D03*
X109340000Y-80620000D03*
D15*
X108699000Y-99826800D03*
X110604000Y-99826800D03*
X109651500Y-97693200D03*
D22*
X106690000Y-58900000D03*
X106690000Y-57250000D03*
M02*
