M48
; DRILL file {KiCad 8.0.1} date 2025-02-25T21:33:40-0700
; FORMAT={-:-/ absolute / metric / decimal}
; #@! TF.CreationDate,2025-02-25T21:33:40-07:00
; #@! TF.GenerationSoftware,Kicad,Pcbnew,8.0.1
; #@! TF.FileFunction,Plated,1,2,PTH
FMAT,2
METRIC
; #@! TA.AperFunction,Plated,PTH,ViaDrill
T1C0.300
; #@! TA.AperFunction,Plated,PTH,ComponentDrill
T2C1.000
%
G90
G05
T1
X106.9Y-69.43
X108.72Y-60.59
X109.87Y-53.13
X111.87Y-101.88
X111.96Y-71.15
X111.98Y-76.58
X112.09Y-75.03
X112.57Y-134.11
X112.95Y-59.39
X113.13Y-118.33
X115.03Y-53.2
X115.415Y-60.38
X116.49Y-74.49
X116.5Y-66.16
X116.5Y-86.31
X117.87Y-110.33
X118.11Y-92.73
T2
X108.78Y-49.8
X111.32Y-49.8
X113.86Y-49.8
X116.4Y-49.8
X119.0Y-57.46
X119.0Y-60.0
X119.0Y-79.96
X119.0Y-82.5
X119.0Y-102.46
X119.0Y-105.0
X119.0Y-124.96
X119.0Y-127.5
M30
