G04 #@! TF.GenerationSoftware,KiCad,Pcbnew,8.0.1*
G04 #@! TF.CreationDate,2025-02-25T21:33:37-07:00*
G04 #@! TF.ProjectId,VibrationBand,56696272-6174-4696-9f6e-42616e642e6b,rev?*
G04 #@! TF.SameCoordinates,Original*
G04 #@! TF.FileFunction,Copper,L1,Top*
G04 #@! TF.FilePolarity,Positive*
%FSLAX46Y46*%
G04 Gerber Fmt 4.6, Leading zero omitted, Abs format (unit mm)*
G04 Created by KiCad (PCBNEW 8.0.1) date 2025-02-25 21:33:37*
%MOMM*%
%LPD*%
G01*
G04 APERTURE LIST*
G04 Aperture macros list*
%AMRoundRect*
0 Rectangle with rounded corners*
0 $1 Rounding radius*
0 $2 $3 $4 $5 $6 $7 $8 $9 X,Y pos of 4 corners*
0 Add a 4 corners polygon primitive as box body*
4,1,4,$2,$3,$4,$5,$6,$7,$8,$9,$2,$3,0*
0 Add four circle primitives for the rounded corners*
1,1,$1+$1,$2,$3*
1,1,$1+$1,$4,$5*
1,1,$1+$1,$6,$7*
1,1,$1+$1,$8,$9*
0 Add four rect primitives between the rounded corners*
20,1,$1+$1,$2,$3,$4,$5,0*
20,1,$1+$1,$4,$5,$6,$7,0*
20,1,$1+$1,$6,$7,$8,$9,0*
20,1,$1+$1,$8,$9,$2,$3,0*%
G04 Aperture macros list end*
G04 #@! TA.AperFunction,SMDPad,CuDef*
%ADD10RoundRect,0.237500X0.250000X0.237500X-0.250000X0.237500X-0.250000X-0.237500X0.250000X-0.237500X0*%
G04 #@! TD*
G04 #@! TA.AperFunction,SMDPad,CuDef*
%ADD11R,1.111200X0.600800*%
G04 #@! TD*
G04 #@! TA.AperFunction,SMDPad,CuDef*
%ADD12R,1.700000X0.650000*%
G04 #@! TD*
G04 #@! TA.AperFunction,ComponentPad*
%ADD13R,1.700000X1.700000*%
G04 #@! TD*
G04 #@! TA.AperFunction,ComponentPad*
%ADD14O,1.700000X1.700000*%
G04 #@! TD*
G04 #@! TA.AperFunction,SMDPad,CuDef*
%ADD15RoundRect,0.225000X0.225000X0.250000X-0.225000X0.250000X-0.225000X-0.250000X0.225000X-0.250000X0*%
G04 #@! TD*
G04 #@! TA.AperFunction,SMDPad,CuDef*
%ADD16RoundRect,0.200000X-0.200000X-0.275000X0.200000X-0.275000X0.200000X0.275000X-0.200000X0.275000X0*%
G04 #@! TD*
G04 #@! TA.AperFunction,SMDPad,CuDef*
%ADD17R,0.558800X1.219200*%
G04 #@! TD*
G04 #@! TA.AperFunction,SMDPad,CuDef*
%ADD18RoundRect,0.225000X-0.250000X0.225000X-0.250000X-0.225000X0.250000X-0.225000X0.250000X0.225000X0*%
G04 #@! TD*
G04 #@! TA.AperFunction,SMDPad,CuDef*
%ADD19RoundRect,0.225000X0.250000X-0.225000X0.250000X0.225000X-0.250000X0.225000X-0.250000X-0.225000X0*%
G04 #@! TD*
G04 #@! TA.AperFunction,SMDPad,CuDef*
%ADD20RoundRect,0.150000X-0.512500X-0.150000X0.512500X-0.150000X0.512500X0.150000X-0.512500X0.150000X0*%
G04 #@! TD*
G04 #@! TA.AperFunction,SMDPad,CuDef*
%ADD21RoundRect,0.237500X0.237500X-0.300000X0.237500X0.300000X-0.237500X0.300000X-0.237500X-0.300000X0*%
G04 #@! TD*
G04 #@! TA.AperFunction,SMDPad,CuDef*
%ADD22RoundRect,0.150000X0.150000X-0.512500X0.150000X0.512500X-0.150000X0.512500X-0.150000X-0.512500X0*%
G04 #@! TD*
G04 #@! TA.AperFunction,SMDPad,CuDef*
%ADD23RoundRect,0.237500X-0.237500X0.300000X-0.237500X-0.300000X0.237500X-0.300000X0.237500X0.300000X0*%
G04 #@! TD*
G04 #@! TA.AperFunction,SMDPad,CuDef*
%ADD24RoundRect,0.200000X0.275000X-0.200000X0.275000X0.200000X-0.275000X0.200000X-0.275000X-0.200000X0*%
G04 #@! TD*
G04 #@! TA.AperFunction,ViaPad*
%ADD25C,0.600000*%
G04 #@! TD*
G04 #@! TA.AperFunction,Conductor*
%ADD26C,0.200000*%
G04 #@! TD*
G04 APERTURE END LIST*
D10*
X109355000Y-135540000D03*
X107530000Y-135540000D03*
X109910000Y-88670000D03*
X108085000Y-88670000D03*
D11*
X113120000Y-94370000D03*
X109670000Y-94370000D03*
D12*
X109235000Y-68610000D03*
X109235000Y-69880000D03*
X109235000Y-71150000D03*
X109235000Y-72420000D03*
X116535000Y-72420000D03*
X116535000Y-71150000D03*
X116535000Y-69880000D03*
X116535000Y-68610000D03*
D13*
X119000000Y-127500000D03*
D14*
X119000000Y-124960000D03*
D15*
X114870000Y-57475000D03*
X113320000Y-57475000D03*
D11*
X112280000Y-126950000D03*
X108830000Y-126950000D03*
X112930000Y-111030000D03*
X109480000Y-111030000D03*
D13*
X108780000Y-49800000D03*
D14*
X111320000Y-49800000D03*
X113860000Y-49800000D03*
X116400000Y-49800000D03*
D16*
X113320000Y-55175000D03*
X114970000Y-55175000D03*
D13*
X119000000Y-105000000D03*
D14*
X119000000Y-102460000D03*
D17*
X107849000Y-132896800D03*
X109754000Y-132896800D03*
X108801500Y-130763200D03*
D18*
X118780000Y-64690000D03*
X118780000Y-66240000D03*
D13*
X119000000Y-60000000D03*
D14*
X119000000Y-57460000D03*
D10*
X110230000Y-102550000D03*
X108405000Y-102550000D03*
D15*
X119330000Y-53740000D03*
X117780000Y-53740000D03*
D19*
X106630000Y-54860000D03*
X106630000Y-53310000D03*
D20*
X110065000Y-61880000D03*
X110065000Y-62830000D03*
X110065000Y-63780000D03*
X112340000Y-63780000D03*
X112340000Y-61880000D03*
D21*
X107335000Y-63557500D03*
X107335000Y-61832500D03*
D17*
X108385000Y-86110000D03*
X110290000Y-86110000D03*
X109337500Y-83976400D03*
D22*
X109270000Y-57475000D03*
X110220000Y-57475000D03*
X111170000Y-57475000D03*
X111170000Y-55200000D03*
X109270000Y-55200000D03*
D17*
X108515000Y-116250000D03*
X110420000Y-116250000D03*
X109467500Y-114116400D03*
D10*
X110070000Y-119810000D03*
X108245000Y-119810000D03*
D23*
X114655000Y-61852500D03*
X114655000Y-63577500D03*
D13*
X119000000Y-82500000D03*
D14*
X119000000Y-79960000D03*
D11*
X112790000Y-80620000D03*
X109340000Y-80620000D03*
D17*
X108699000Y-99826800D03*
X110604000Y-99826800D03*
X109651500Y-97693200D03*
D24*
X106690000Y-58900000D03*
X106690000Y-57250000D03*
D25*
X108720000Y-60590000D03*
X112950000Y-59390000D03*
X116490000Y-74490000D03*
X116500000Y-86310000D03*
X111980000Y-76580000D03*
X111870000Y-101880000D03*
X112090000Y-75030000D03*
X113130000Y-118330000D03*
X111960000Y-71150000D03*
X112570000Y-134110000D03*
X116500000Y-66160000D03*
X118110000Y-92730000D03*
X115415000Y-60380000D03*
X117870000Y-110330000D03*
X109870000Y-53130000D03*
X106900000Y-69430000D03*
X115030000Y-53200000D03*
D26*
X106465000Y-65350000D02*
X105665000Y-64550000D01*
X105665000Y-62560000D02*
X106305000Y-61920000D01*
X106305000Y-61920000D02*
X110025000Y-61920000D01*
X105665000Y-64550000D02*
X105665000Y-62560000D01*
X110025000Y-61920000D02*
X110065000Y-61880000D01*
X108785000Y-64100000D02*
X108785000Y-64670000D01*
X108105000Y-65350000D02*
X106465000Y-65350000D01*
X107960000Y-60590000D02*
X107335000Y-61215000D01*
X107335000Y-61215000D02*
X107335000Y-61832500D01*
X108785000Y-64670000D02*
X108105000Y-65350000D01*
X110065000Y-63780000D02*
X109105000Y-63780000D01*
X109105000Y-63780000D02*
X108785000Y-64100000D01*
X108720000Y-60590000D02*
X107960000Y-60590000D01*
X110590000Y-59820000D02*
X111170000Y-59240000D01*
X111170000Y-59240000D02*
X111170000Y-57475000D01*
X106690000Y-59470000D02*
X107040000Y-59820000D01*
X113320000Y-57475000D02*
X111170000Y-57475000D01*
X113320000Y-59020000D02*
X112950000Y-59390000D01*
X107040000Y-59820000D02*
X110590000Y-59820000D01*
X113320000Y-57475000D02*
X113320000Y-59020000D01*
X106690000Y-58900000D02*
X106690000Y-59470000D01*
X108400000Y-88670000D02*
X108440000Y-88630000D01*
X108440000Y-86165000D02*
X108385000Y-86110000D01*
X108385000Y-87605000D02*
X108385000Y-86110000D01*
X108085000Y-88670000D02*
X108085000Y-87905000D01*
X108085000Y-87905000D02*
X108385000Y-87605000D01*
X109595000Y-88670000D02*
X114140000Y-88670000D01*
X116490000Y-74490000D02*
X116535000Y-74445000D01*
X114140000Y-88670000D02*
X116500000Y-86310000D01*
X116535000Y-74445000D02*
X116535000Y-72420000D01*
X115130000Y-71150000D02*
X116535000Y-71150000D01*
X114290000Y-74270000D02*
X114290000Y-71990000D01*
X111980000Y-76580000D02*
X114290000Y-74270000D01*
X114290000Y-71990000D02*
X115130000Y-71150000D01*
X111200000Y-102550000D02*
X111870000Y-101880000D01*
X109915000Y-102550000D02*
X111200000Y-102550000D01*
X108720000Y-102550000D02*
X108720000Y-99847800D01*
X108720000Y-99847800D02*
X108699000Y-99826800D01*
X108560000Y-116295000D02*
X108515000Y-116250000D01*
X108560000Y-119810000D02*
X108560000Y-116295000D01*
X111650000Y-119810000D02*
X113130000Y-118330000D01*
X112090000Y-72440000D02*
X114650000Y-69880000D01*
X109755000Y-119810000D02*
X111650000Y-119810000D01*
X112090000Y-75030000D02*
X112090000Y-72440000D01*
X114650000Y-69880000D02*
X116535000Y-69880000D01*
X107845000Y-132900800D02*
X107849000Y-132896800D01*
X107845000Y-135540000D02*
X107845000Y-132900800D01*
X109040000Y-135540000D02*
X111140000Y-135540000D01*
X111140000Y-135540000D02*
X112570000Y-134110000D01*
X111960000Y-71150000D02*
X109235000Y-71150000D01*
X109315000Y-68690000D02*
X109235000Y-68610000D01*
X109337500Y-80622500D02*
X109340000Y-80620000D01*
X109340000Y-80620000D02*
X109340000Y-79300000D01*
X109337500Y-83976400D02*
X109337500Y-80622500D01*
X119000000Y-61180000D02*
X119000000Y-60000000D01*
X109340000Y-79300000D02*
X110900000Y-77740000D01*
X120510000Y-73230000D02*
X120510000Y-62690000D01*
X110900000Y-77740000D02*
X116000000Y-77740000D01*
X120510000Y-62690000D02*
X119000000Y-61180000D01*
X116000000Y-77740000D02*
X120510000Y-73230000D01*
X110900000Y-91860000D02*
X115850000Y-91860000D01*
X109670000Y-94370000D02*
X109670000Y-93090000D01*
X109651500Y-97693200D02*
X109651500Y-94388500D01*
X119000000Y-88710000D02*
X119000000Y-82500000D01*
X115850000Y-91860000D02*
X119000000Y-88710000D01*
X109651500Y-94388500D02*
X109670000Y-94370000D01*
X109670000Y-93090000D02*
X110900000Y-91860000D01*
X109480000Y-114103900D02*
X109467500Y-114116400D01*
X111290000Y-107610000D02*
X117810000Y-107610000D01*
X119000000Y-106420000D02*
X119000000Y-105000000D01*
X109480000Y-111030000D02*
X109480000Y-114103900D01*
X117810000Y-107610000D02*
X119000000Y-106420000D01*
X109480000Y-111030000D02*
X109480000Y-109420000D01*
X109480000Y-109420000D02*
X111290000Y-107610000D01*
X108801500Y-130763200D02*
X108801500Y-126978500D01*
X114106800Y-130763200D02*
X108801500Y-130763200D01*
X119000000Y-127500000D02*
X117370000Y-127500000D01*
X108801500Y-126978500D02*
X108830000Y-126950000D01*
X117370000Y-127500000D02*
X114106800Y-130763200D01*
X116470000Y-94370000D02*
X118110000Y-92730000D01*
X109270000Y-55200000D02*
X108320000Y-55200000D01*
X112790000Y-80620000D02*
X116510000Y-80620000D01*
X107980000Y-54860000D02*
X106630000Y-54860000D01*
X114655000Y-61140000D02*
X114655000Y-61940000D01*
X114540000Y-126950000D02*
X116530000Y-124960000D01*
X115415000Y-60380000D02*
X114655000Y-61140000D01*
X118780000Y-68000000D02*
X118780000Y-66240000D01*
X118170000Y-68610000D02*
X118780000Y-68000000D01*
X116530000Y-124960000D02*
X119000000Y-124960000D01*
X112280000Y-126950000D02*
X114540000Y-126950000D01*
X112930000Y-111030000D02*
X117170000Y-111030000D01*
X118780000Y-66240000D02*
X116580000Y-66240000D01*
X116580000Y-66240000D02*
X116500000Y-66160000D01*
X116535000Y-68610000D02*
X118170000Y-68610000D01*
X109270000Y-55200000D02*
X109270000Y-53730000D01*
X117170000Y-79960000D02*
X119000000Y-79960000D01*
X108320000Y-55200000D02*
X107980000Y-54860000D01*
X113120000Y-94370000D02*
X116470000Y-94370000D01*
X109270000Y-53730000D02*
X109870000Y-53130000D01*
X117170000Y-111030000D02*
X117870000Y-110330000D01*
X114655000Y-61940000D02*
X114595000Y-61880000D01*
X116510000Y-80620000D02*
X117170000Y-79960000D01*
X114595000Y-61880000D02*
X112340000Y-61880000D01*
X114970000Y-55175000D02*
X114970000Y-53260000D01*
X117125000Y-55175000D02*
X117780000Y-54520000D01*
X114970000Y-55175000D02*
X115040000Y-55175000D01*
X114970000Y-55175000D02*
X117125000Y-55175000D01*
X115040000Y-55175000D02*
X115070000Y-55145000D01*
X114970000Y-53260000D02*
X115030000Y-53200000D01*
X114980000Y-55165000D02*
X114970000Y-55175000D01*
X117780000Y-54520000D02*
X117780000Y-53740000D01*
X109235000Y-69880000D02*
X107350000Y-69880000D01*
X107350000Y-69880000D02*
X106900000Y-69430000D01*
X113295000Y-55200000D02*
X113320000Y-55175000D01*
X111170000Y-55990000D02*
X111170000Y-55200000D01*
X110890000Y-56270000D02*
X111170000Y-55990000D01*
X106690000Y-57250000D02*
X107510000Y-57250000D01*
X107510000Y-57250000D02*
X108490000Y-56270000D01*
X108490000Y-56270000D02*
X110890000Y-56270000D01*
X111170000Y-55200000D02*
X113295000Y-55200000D01*
G04 #@! TA.AperFunction,Conductor*
G36*
X121422638Y-45318093D02*
G01*
X121448358Y-45362642D01*
X121449500Y-45375700D01*
X121449500Y-137024300D01*
X121431907Y-137072638D01*
X121387358Y-137098358D01*
X121374300Y-137099500D01*
X104785700Y-137099500D01*
X104737362Y-137081907D01*
X104711642Y-137037358D01*
X104710500Y-137024300D01*
X104710500Y-135830264D01*
X106842000Y-135830264D01*
X106844774Y-135859842D01*
X106844775Y-135859849D01*
X106844776Y-135859851D01*
X106888382Y-135984472D01*
X106888384Y-135984475D01*
X106966789Y-136090711D01*
X107073024Y-136169115D01*
X107073027Y-136169117D01*
X107102942Y-136179584D01*
X107197651Y-136212725D01*
X107227235Y-136215499D01*
X107227238Y-136215500D01*
X107227244Y-136215500D01*
X107832762Y-136215500D01*
X107832763Y-136215499D01*
X107862349Y-136212725D01*
X107986975Y-136169116D01*
X108093211Y-136090711D01*
X108171616Y-135984475D01*
X108215225Y-135859849D01*
X108217999Y-135830264D01*
X108667000Y-135830264D01*
X108669774Y-135859842D01*
X108669775Y-135859849D01*
X108669776Y-135859851D01*
X108713382Y-135984472D01*
X108713384Y-135984475D01*
X108791789Y-136090711D01*
X108898024Y-136169115D01*
X108898027Y-136169117D01*
X108927942Y-136179584D01*
X109022651Y-136212725D01*
X109052235Y-136215499D01*
X109052238Y-136215500D01*
X109052244Y-136215500D01*
X109657762Y-136215500D01*
X109657763Y-136215499D01*
X109687349Y-136212725D01*
X109811975Y-136169116D01*
X109918211Y-136090711D01*
X109996616Y-135984475D01*
X110029373Y-135890861D01*
X110061943Y-135851049D01*
X110100352Y-135840500D01*
X111179560Y-135840500D01*
X111179562Y-135840500D01*
X111255989Y-135820021D01*
X111324511Y-135780460D01*
X111380460Y-135724511D01*
X112428654Y-134676315D01*
X112475273Y-134654576D01*
X112491637Y-134654932D01*
X112570000Y-134665250D01*
X112713709Y-134646330D01*
X112847625Y-134590861D01*
X112962621Y-134502621D01*
X113050861Y-134387625D01*
X113106330Y-134253709D01*
X113125250Y-134110000D01*
X113106330Y-133966291D01*
X113050861Y-133832375D01*
X113050860Y-133832374D01*
X113050860Y-133832373D01*
X112962621Y-133717378D01*
X112847626Y-133629139D01*
X112752936Y-133589918D01*
X112713709Y-133573670D01*
X112570000Y-133554750D01*
X112426291Y-133573670D01*
X112426288Y-133573670D01*
X112426288Y-133573671D01*
X112292373Y-133629139D01*
X112177378Y-133717378D01*
X112089139Y-133832373D01*
X112040521Y-133949750D01*
X112033670Y-133966291D01*
X112014750Y-134110000D01*
X112025065Y-134188356D01*
X112013931Y-134238577D01*
X112003682Y-134251345D01*
X111037555Y-135217474D01*
X110990935Y-135239214D01*
X110984381Y-135239500D01*
X110100352Y-135239500D01*
X110052014Y-135221907D01*
X110029373Y-135189138D01*
X109996616Y-135095525D01*
X109918211Y-134989289D01*
X109811975Y-134910884D01*
X109811972Y-134910882D01*
X109717266Y-134877743D01*
X109687349Y-134867275D01*
X109687344Y-134867274D01*
X109687342Y-134867274D01*
X109657764Y-134864500D01*
X109657756Y-134864500D01*
X109052244Y-134864500D01*
X109052235Y-134864500D01*
X109022657Y-134867274D01*
X109022653Y-134867274D01*
X109022651Y-134867275D01*
X109022648Y-134867275D01*
X109022648Y-134867276D01*
X108898027Y-134910882D01*
X108898024Y-134910884D01*
X108791789Y-134989289D01*
X108713384Y-135095524D01*
X108713382Y-135095527D01*
X108669776Y-135220148D01*
X108669774Y-135220157D01*
X108667000Y-135249735D01*
X108667000Y-135830264D01*
X108217999Y-135830264D01*
X108217999Y-135830263D01*
X108218000Y-135830262D01*
X108218000Y-135249738D01*
X108217999Y-135249735D01*
X108217039Y-135239500D01*
X108215225Y-135220151D01*
X108171616Y-135095525D01*
X108160192Y-135080046D01*
X108145500Y-135035393D01*
X108145500Y-133769141D01*
X108163093Y-133720803D01*
X108200114Y-133698889D01*
X108199788Y-133698101D01*
X108205312Y-133695812D01*
X108206033Y-133695385D01*
X108206631Y-133695267D01*
X108272952Y-133650952D01*
X108317267Y-133584631D01*
X108328900Y-133526148D01*
X108328900Y-133146800D01*
X108974600Y-133146800D01*
X108974600Y-133554231D01*
X108981001Y-133613774D01*
X108981002Y-133613777D01*
X109031248Y-133748490D01*
X109031249Y-133748492D01*
X109117410Y-133863589D01*
X109232507Y-133949750D01*
X109232509Y-133949751D01*
X109367222Y-133999997D01*
X109367225Y-133999998D01*
X109426768Y-134006399D01*
X109426780Y-134006400D01*
X109504000Y-134006400D01*
X109504000Y-133146800D01*
X110004000Y-133146800D01*
X110004000Y-134006400D01*
X110081220Y-134006400D01*
X110081231Y-134006399D01*
X110140774Y-133999998D01*
X110140777Y-133999997D01*
X110275490Y-133949751D01*
X110275492Y-133949750D01*
X110390589Y-133863589D01*
X110476750Y-133748492D01*
X110476751Y-133748490D01*
X110526997Y-133613777D01*
X110526998Y-133613774D01*
X110533399Y-133554231D01*
X110533400Y-133554220D01*
X110533400Y-133146800D01*
X110004000Y-133146800D01*
X109504000Y-133146800D01*
X108974600Y-133146800D01*
X108328900Y-133146800D01*
X108328900Y-132646800D01*
X108974600Y-132646800D01*
X109504000Y-132646800D01*
X109504000Y-131787200D01*
X110004000Y-131787200D01*
X110004000Y-132646800D01*
X110533400Y-132646800D01*
X110533400Y-132239380D01*
X110533399Y-132239368D01*
X110526998Y-132179825D01*
X110526997Y-132179822D01*
X110476751Y-132045109D01*
X110476750Y-132045107D01*
X110390589Y-131930010D01*
X110275492Y-131843849D01*
X110275490Y-131843848D01*
X110140777Y-131793602D01*
X110140774Y-131793601D01*
X110081231Y-131787200D01*
X110004000Y-131787200D01*
X109504000Y-131787200D01*
X109426768Y-131787200D01*
X109367225Y-131793601D01*
X109367222Y-131793602D01*
X109232509Y-131843848D01*
X109232507Y-131843849D01*
X109117410Y-131930010D01*
X109031249Y-132045107D01*
X109031248Y-132045109D01*
X108981002Y-132179822D01*
X108981001Y-132179825D01*
X108974600Y-132239368D01*
X108974600Y-132646800D01*
X108328900Y-132646800D01*
X108328900Y-132267452D01*
X108317267Y-132208969D01*
X108272952Y-132142648D01*
X108206631Y-132098333D01*
X108206629Y-132098332D01*
X108148149Y-132086700D01*
X108148148Y-132086700D01*
X107549852Y-132086700D01*
X107549851Y-132086700D01*
X107491370Y-132098332D01*
X107491368Y-132098333D01*
X107425048Y-132142648D01*
X107380733Y-132208968D01*
X107380732Y-132208970D01*
X107369100Y-132267451D01*
X107369100Y-133526148D01*
X107380732Y-133584629D01*
X107380733Y-133584631D01*
X107425048Y-133650952D01*
X107491369Y-133695267D01*
X107491374Y-133695268D01*
X107498076Y-133698044D01*
X107536002Y-133732796D01*
X107544500Y-133767521D01*
X107544500Y-134789300D01*
X107526907Y-134837638D01*
X107482358Y-134863358D01*
X107469300Y-134864500D01*
X107227235Y-134864500D01*
X107197657Y-134867274D01*
X107197653Y-134867274D01*
X107197651Y-134867275D01*
X107197648Y-134867275D01*
X107197648Y-134867276D01*
X107073027Y-134910882D01*
X107073024Y-134910884D01*
X106966789Y-134989289D01*
X106888384Y-135095524D01*
X106888382Y-135095527D01*
X106844776Y-135220148D01*
X106844774Y-135220157D01*
X106842000Y-135249735D01*
X106842000Y-135830264D01*
X104710500Y-135830264D01*
X104710500Y-127270148D01*
X108073900Y-127270148D01*
X108085532Y-127328629D01*
X108085533Y-127328631D01*
X108129848Y-127394952D01*
X108196169Y-127439267D01*
X108225410Y-127445083D01*
X108254651Y-127450900D01*
X108254652Y-127450900D01*
X108425800Y-127450900D01*
X108474138Y-127468493D01*
X108499858Y-127513042D01*
X108501000Y-127526100D01*
X108501000Y-129891653D01*
X108483407Y-129939991D01*
X108449865Y-129959851D01*
X108450713Y-129961898D01*
X108443870Y-129964732D01*
X108377548Y-130009048D01*
X108333233Y-130075368D01*
X108333232Y-130075370D01*
X108321600Y-130133851D01*
X108321600Y-131392548D01*
X108333232Y-131451029D01*
X108333233Y-131451031D01*
X108377548Y-131517352D01*
X108443869Y-131561667D01*
X108473110Y-131567483D01*
X108502351Y-131573300D01*
X108502352Y-131573300D01*
X109100649Y-131573300D01*
X109120142Y-131569422D01*
X109159131Y-131561667D01*
X109225452Y-131517352D01*
X109269767Y-131451031D01*
X109281400Y-131392548D01*
X109281400Y-131138900D01*
X109298993Y-131090562D01*
X109343542Y-131064842D01*
X109356600Y-131063700D01*
X114146360Y-131063700D01*
X114146362Y-131063700D01*
X114222789Y-131043221D01*
X114291311Y-131003660D01*
X114347260Y-130947711D01*
X117472445Y-127822526D01*
X117519065Y-127800786D01*
X117525619Y-127800500D01*
X117874300Y-127800500D01*
X117922638Y-127818093D01*
X117948358Y-127862642D01*
X117949500Y-127875700D01*
X117949500Y-128369748D01*
X117961132Y-128428229D01*
X117961133Y-128428231D01*
X118005448Y-128494552D01*
X118071769Y-128538867D01*
X118101010Y-128544683D01*
X118130251Y-128550500D01*
X118130252Y-128550500D01*
X119869749Y-128550500D01*
X119889242Y-128546622D01*
X119928231Y-128538867D01*
X119994552Y-128494552D01*
X120038867Y-128428231D01*
X120050500Y-128369748D01*
X120050500Y-126630252D01*
X120050420Y-126629852D01*
X120038867Y-126571770D01*
X120038866Y-126571768D01*
X120038600Y-126571370D01*
X119994552Y-126505448D01*
X119928231Y-126461133D01*
X119928229Y-126461132D01*
X119869749Y-126449500D01*
X119869748Y-126449500D01*
X118130252Y-126449500D01*
X118130251Y-126449500D01*
X118071770Y-126461132D01*
X118071768Y-126461133D01*
X118005448Y-126505448D01*
X117961133Y-126571768D01*
X117961132Y-126571770D01*
X117949500Y-126630251D01*
X117949500Y-127124300D01*
X117931907Y-127172638D01*
X117887358Y-127198358D01*
X117874300Y-127199500D01*
X117409562Y-127199500D01*
X117330438Y-127199500D01*
X117254012Y-127219978D01*
X117254004Y-127219981D01*
X117185488Y-127259539D01*
X114004355Y-130440674D01*
X113957735Y-130462414D01*
X113951181Y-130462700D01*
X109356600Y-130462700D01*
X109308262Y-130445107D01*
X109282542Y-130400558D01*
X109281400Y-130387500D01*
X109281400Y-130133851D01*
X109269767Y-130075370D01*
X109269766Y-130075368D01*
X109225452Y-130009048D01*
X109159131Y-129964733D01*
X109159130Y-129964732D01*
X109159129Y-129964732D01*
X109152287Y-129961898D01*
X109153181Y-129959739D01*
X109118543Y-129938711D01*
X109102000Y-129891653D01*
X109102000Y-127526100D01*
X109119593Y-127477762D01*
X109164142Y-127452042D01*
X109177200Y-127450900D01*
X109405349Y-127450900D01*
X109424842Y-127447022D01*
X109463831Y-127439267D01*
X109530152Y-127394952D01*
X109574467Y-127328631D01*
X109586100Y-127270148D01*
X111523900Y-127270148D01*
X111535532Y-127328629D01*
X111535533Y-127328631D01*
X111579848Y-127394952D01*
X111646169Y-127439267D01*
X111675410Y-127445083D01*
X111704651Y-127450900D01*
X111704652Y-127450900D01*
X112855349Y-127450900D01*
X112874842Y-127447022D01*
X112913831Y-127439267D01*
X112980152Y-127394952D01*
X113024467Y-127328631D01*
X113027968Y-127311029D01*
X113054653Y-127267053D01*
X113101723Y-127250500D01*
X114579560Y-127250500D01*
X114579562Y-127250500D01*
X114655989Y-127230021D01*
X114724511Y-127190460D01*
X114780460Y-127134511D01*
X116632445Y-125282526D01*
X116679065Y-125260786D01*
X116685619Y-125260500D01*
X117937613Y-125260500D01*
X117985951Y-125278093D01*
X118009575Y-125313871D01*
X118024765Y-125363947D01*
X118024770Y-125363959D01*
X118122312Y-125546445D01*
X118122315Y-125546450D01*
X118253590Y-125706410D01*
X118413550Y-125837685D01*
X118596046Y-125935232D01*
X118596050Y-125935233D01*
X118596052Y-125935234D01*
X118669778Y-125957598D01*
X118794066Y-125995300D01*
X119000000Y-126015583D01*
X119205934Y-125995300D01*
X119403954Y-125935232D01*
X119586450Y-125837685D01*
X119746410Y-125706410D01*
X119877685Y-125546450D01*
X119975232Y-125363954D01*
X120035300Y-125165934D01*
X120055583Y-124960000D01*
X120035300Y-124754066D01*
X119975232Y-124556046D01*
X119877685Y-124373550D01*
X119746410Y-124213590D01*
X119586450Y-124082315D01*
X119586445Y-124082312D01*
X119403959Y-123984770D01*
X119403947Y-123984765D01*
X119205932Y-123924699D01*
X119000000Y-123904417D01*
X118794067Y-123924699D01*
X118596052Y-123984765D01*
X118596040Y-123984770D01*
X118413554Y-124082312D01*
X118413549Y-124082315D01*
X118253590Y-124213590D01*
X118122315Y-124373549D01*
X118122312Y-124373554D01*
X118024770Y-124556040D01*
X118024765Y-124556052D01*
X118009575Y-124606129D01*
X117978708Y-124647278D01*
X117937613Y-124659500D01*
X116490438Y-124659500D01*
X116452224Y-124669739D01*
X116414009Y-124679979D01*
X116345490Y-124719539D01*
X116345484Y-124719543D01*
X114437555Y-126627474D01*
X114390935Y-126649214D01*
X114384381Y-126649500D01*
X113101723Y-126649500D01*
X113053385Y-126631907D01*
X113027968Y-126588970D01*
X113024467Y-126571369D01*
X112980152Y-126505048D01*
X112913831Y-126460733D01*
X112913829Y-126460732D01*
X112855349Y-126449100D01*
X112855348Y-126449100D01*
X111704652Y-126449100D01*
X111704651Y-126449100D01*
X111646170Y-126460732D01*
X111646168Y-126460733D01*
X111579848Y-126505048D01*
X111535533Y-126571368D01*
X111535532Y-126571370D01*
X111523900Y-126629851D01*
X111523900Y-127270148D01*
X109586100Y-127270148D01*
X109586100Y-126629852D01*
X109574467Y-126571369D01*
X109530152Y-126505048D01*
X109463831Y-126460733D01*
X109463829Y-126460732D01*
X109405349Y-126449100D01*
X109405348Y-126449100D01*
X108254652Y-126449100D01*
X108254651Y-126449100D01*
X108196170Y-126460732D01*
X108196168Y-126460733D01*
X108129848Y-126505048D01*
X108085533Y-126571368D01*
X108085532Y-126571370D01*
X108073900Y-126629851D01*
X108073900Y-127270148D01*
X104710500Y-127270148D01*
X104710500Y-120100264D01*
X107557000Y-120100264D01*
X107559774Y-120129842D01*
X107559775Y-120129849D01*
X107559776Y-120129851D01*
X107603382Y-120254472D01*
X107603384Y-120254475D01*
X107681789Y-120360711D01*
X107788024Y-120439115D01*
X107788027Y-120439117D01*
X107817942Y-120449584D01*
X107912651Y-120482725D01*
X107942235Y-120485499D01*
X107942238Y-120485500D01*
X107942244Y-120485500D01*
X108547762Y-120485500D01*
X108547763Y-120485499D01*
X108577349Y-120482725D01*
X108701975Y-120439116D01*
X108808211Y-120360711D01*
X108886616Y-120254475D01*
X108930225Y-120129849D01*
X108932999Y-120100264D01*
X109382000Y-120100264D01*
X109384774Y-120129842D01*
X109384775Y-120129849D01*
X109384776Y-120129851D01*
X109428382Y-120254472D01*
X109428384Y-120254475D01*
X109506789Y-120360711D01*
X109613024Y-120439115D01*
X109613027Y-120439117D01*
X109642942Y-120449584D01*
X109737651Y-120482725D01*
X109767235Y-120485499D01*
X109767238Y-120485500D01*
X109767244Y-120485500D01*
X110372762Y-120485500D01*
X110372763Y-120485499D01*
X110402349Y-120482725D01*
X110526975Y-120439116D01*
X110633211Y-120360711D01*
X110711616Y-120254475D01*
X110744373Y-120160861D01*
X110776943Y-120121049D01*
X110815352Y-120110500D01*
X111689560Y-120110500D01*
X111689562Y-120110500D01*
X111765989Y-120090021D01*
X111834511Y-120050460D01*
X111890460Y-119994511D01*
X112988654Y-118896315D01*
X113035273Y-118874576D01*
X113051637Y-118874932D01*
X113130000Y-118885250D01*
X113273709Y-118866330D01*
X113407625Y-118810861D01*
X113522621Y-118722621D01*
X113610861Y-118607625D01*
X113666330Y-118473709D01*
X113685250Y-118330000D01*
X113666330Y-118186291D01*
X113610861Y-118052375D01*
X113610860Y-118052374D01*
X113610860Y-118052373D01*
X113522621Y-117937378D01*
X113407626Y-117849139D01*
X113273711Y-117793671D01*
X113273709Y-117793670D01*
X113130000Y-117774750D01*
X112986291Y-117793670D01*
X112986288Y-117793670D01*
X112986288Y-117793671D01*
X112852373Y-117849139D01*
X112737378Y-117937378D01*
X112649139Y-118052373D01*
X112593671Y-118186288D01*
X112593670Y-118186291D01*
X112574750Y-118330000D01*
X112585065Y-118408356D01*
X112573931Y-118458577D01*
X112563682Y-118471345D01*
X111547555Y-119487474D01*
X111500935Y-119509214D01*
X111494381Y-119509500D01*
X110815352Y-119509500D01*
X110767014Y-119491907D01*
X110744373Y-119459138D01*
X110711616Y-119365525D01*
X110633211Y-119259289D01*
X110526975Y-119180884D01*
X110526972Y-119180882D01*
X110432266Y-119147743D01*
X110402349Y-119137275D01*
X110402344Y-119137274D01*
X110402342Y-119137274D01*
X110372764Y-119134500D01*
X110372756Y-119134500D01*
X109767244Y-119134500D01*
X109767235Y-119134500D01*
X109737657Y-119137274D01*
X109737653Y-119137274D01*
X109737651Y-119137275D01*
X109737648Y-119137275D01*
X109737648Y-119137276D01*
X109613027Y-119180882D01*
X109613024Y-119180884D01*
X109506789Y-119259289D01*
X109428384Y-119365524D01*
X109428382Y-119365527D01*
X109384776Y-119490148D01*
X109384774Y-119490157D01*
X109382000Y-119519735D01*
X109382000Y-120100264D01*
X108932999Y-120100264D01*
X108932999Y-120100263D01*
X108933000Y-120100262D01*
X108933000Y-119519738D01*
X108932999Y-119519735D01*
X108932039Y-119509500D01*
X108930225Y-119490151D01*
X108886616Y-119365525D01*
X108875192Y-119350046D01*
X108860500Y-119305393D01*
X108860500Y-117096767D01*
X108878093Y-117048429D01*
X108893921Y-117034241D01*
X108938952Y-117004152D01*
X108983267Y-116937831D01*
X108994900Y-116879348D01*
X108994900Y-116500000D01*
X109640600Y-116500000D01*
X109640600Y-116907431D01*
X109647001Y-116966974D01*
X109647002Y-116966977D01*
X109697248Y-117101690D01*
X109697249Y-117101692D01*
X109783410Y-117216789D01*
X109898507Y-117302950D01*
X109898509Y-117302951D01*
X110033222Y-117353197D01*
X110033225Y-117353198D01*
X110092768Y-117359599D01*
X110092780Y-117359600D01*
X110170000Y-117359600D01*
X110170000Y-116500000D01*
X110670000Y-116500000D01*
X110670000Y-117359600D01*
X110747220Y-117359600D01*
X110747231Y-117359599D01*
X110806774Y-117353198D01*
X110806777Y-117353197D01*
X110941490Y-117302951D01*
X110941492Y-117302950D01*
X111056589Y-117216789D01*
X111142750Y-117101692D01*
X111142751Y-117101690D01*
X111192997Y-116966977D01*
X111192998Y-116966974D01*
X111199399Y-116907431D01*
X111199400Y-116907420D01*
X111199400Y-116500000D01*
X110670000Y-116500000D01*
X110170000Y-116500000D01*
X109640600Y-116500000D01*
X108994900Y-116500000D01*
X108994900Y-116000000D01*
X109640600Y-116000000D01*
X110170000Y-116000000D01*
X110170000Y-115140400D01*
X110670000Y-115140400D01*
X110670000Y-116000000D01*
X111199400Y-116000000D01*
X111199400Y-115592580D01*
X111199399Y-115592568D01*
X111192998Y-115533025D01*
X111192997Y-115533022D01*
X111142751Y-115398309D01*
X111142750Y-115398307D01*
X111056589Y-115283210D01*
X110941492Y-115197049D01*
X110941490Y-115197048D01*
X110806777Y-115146802D01*
X110806774Y-115146801D01*
X110747231Y-115140400D01*
X110670000Y-115140400D01*
X110170000Y-115140400D01*
X110092768Y-115140400D01*
X110033225Y-115146801D01*
X110033222Y-115146802D01*
X109898509Y-115197048D01*
X109898507Y-115197049D01*
X109783410Y-115283210D01*
X109697249Y-115398307D01*
X109697248Y-115398309D01*
X109647002Y-115533022D01*
X109647001Y-115533025D01*
X109640600Y-115592568D01*
X109640600Y-116000000D01*
X108994900Y-116000000D01*
X108994900Y-115620652D01*
X108983267Y-115562169D01*
X108938952Y-115495848D01*
X108872631Y-115451533D01*
X108872629Y-115451532D01*
X108814149Y-115439900D01*
X108814148Y-115439900D01*
X108215852Y-115439900D01*
X108215851Y-115439900D01*
X108157370Y-115451532D01*
X108157368Y-115451533D01*
X108091048Y-115495848D01*
X108046733Y-115562168D01*
X108046732Y-115562170D01*
X108035100Y-115620651D01*
X108035100Y-116879348D01*
X108046732Y-116937829D01*
X108046733Y-116937831D01*
X108091048Y-117004152D01*
X108157369Y-117048467D01*
X108198971Y-117056742D01*
X108242947Y-117083427D01*
X108259500Y-117130497D01*
X108259500Y-119059300D01*
X108241907Y-119107638D01*
X108197358Y-119133358D01*
X108184300Y-119134500D01*
X107942235Y-119134500D01*
X107912657Y-119137274D01*
X107912653Y-119137274D01*
X107912651Y-119137275D01*
X107912648Y-119137275D01*
X107912648Y-119137276D01*
X107788027Y-119180882D01*
X107788024Y-119180884D01*
X107681789Y-119259289D01*
X107603384Y-119365524D01*
X107603382Y-119365527D01*
X107559776Y-119490148D01*
X107559774Y-119490157D01*
X107557000Y-119519735D01*
X107557000Y-120100264D01*
X104710500Y-120100264D01*
X104710500Y-111350148D01*
X108723900Y-111350148D01*
X108735532Y-111408629D01*
X108735533Y-111408631D01*
X108779848Y-111474952D01*
X108846169Y-111519267D01*
X108875410Y-111525083D01*
X108904651Y-111530900D01*
X108904652Y-111530900D01*
X109104300Y-111530900D01*
X109152638Y-111548493D01*
X109178358Y-111593042D01*
X109179500Y-111606100D01*
X109179500Y-113242367D01*
X109161907Y-113290705D01*
X109118973Y-113316122D01*
X109109870Y-113317932D01*
X109109868Y-113317933D01*
X109043548Y-113362248D01*
X108999233Y-113428568D01*
X108999232Y-113428570D01*
X108987600Y-113487051D01*
X108987600Y-114745748D01*
X108999232Y-114804229D01*
X108999233Y-114804231D01*
X109043548Y-114870552D01*
X109109869Y-114914867D01*
X109139110Y-114920683D01*
X109168351Y-114926500D01*
X109168352Y-114926500D01*
X109766649Y-114926500D01*
X109786142Y-114922622D01*
X109825131Y-114914867D01*
X109891452Y-114870552D01*
X109935767Y-114804231D01*
X109947400Y-114745748D01*
X109947400Y-113487052D01*
X109935767Y-113428569D01*
X109891452Y-113362248D01*
X109825131Y-113317933D01*
X109825130Y-113317932D01*
X109818972Y-113313818D01*
X109819977Y-113312312D01*
X109788994Y-113283918D01*
X109780500Y-113249199D01*
X109780500Y-111606100D01*
X109798093Y-111557762D01*
X109842642Y-111532042D01*
X109855700Y-111530900D01*
X110055349Y-111530900D01*
X110074842Y-111527022D01*
X110113831Y-111519267D01*
X110180152Y-111474952D01*
X110224467Y-111408631D01*
X110236100Y-111350148D01*
X112173900Y-111350148D01*
X112185532Y-111408629D01*
X112185533Y-111408631D01*
X112229848Y-111474952D01*
X112296169Y-111519267D01*
X112325410Y-111525083D01*
X112354651Y-111530900D01*
X112354652Y-111530900D01*
X113505349Y-111530900D01*
X113524842Y-111527022D01*
X113563831Y-111519267D01*
X113630152Y-111474952D01*
X113674467Y-111408631D01*
X113677968Y-111391029D01*
X113704653Y-111347053D01*
X113751723Y-111330500D01*
X117209560Y-111330500D01*
X117209562Y-111330500D01*
X117285989Y-111310021D01*
X117354511Y-111270460D01*
X117410460Y-111214511D01*
X117728655Y-110896315D01*
X117775274Y-110874576D01*
X117791637Y-110874932D01*
X117870000Y-110885250D01*
X118013709Y-110866330D01*
X118147625Y-110810861D01*
X118262621Y-110722621D01*
X118350861Y-110607625D01*
X118406330Y-110473709D01*
X118425250Y-110330000D01*
X118406330Y-110186291D01*
X118350861Y-110052375D01*
X118350860Y-110052374D01*
X118350860Y-110052373D01*
X118262621Y-109937378D01*
X118147626Y-109849139D01*
X118013711Y-109793671D01*
X118013709Y-109793670D01*
X117870000Y-109774750D01*
X117726291Y-109793670D01*
X117726288Y-109793670D01*
X117726288Y-109793671D01*
X117592373Y-109849139D01*
X117477378Y-109937378D01*
X117389139Y-110052373D01*
X117333671Y-110186288D01*
X117333670Y-110186291D01*
X117314750Y-110330000D01*
X117325065Y-110408355D01*
X117313931Y-110458576D01*
X117303683Y-110471344D01*
X117067555Y-110707474D01*
X117020934Y-110729214D01*
X117014380Y-110729500D01*
X113751723Y-110729500D01*
X113703385Y-110711907D01*
X113677968Y-110668970D01*
X113674467Y-110651371D01*
X113674467Y-110651370D01*
X113674467Y-110651369D01*
X113630152Y-110585048D01*
X113563831Y-110540733D01*
X113563829Y-110540732D01*
X113505349Y-110529100D01*
X113505348Y-110529100D01*
X112354652Y-110529100D01*
X112354651Y-110529100D01*
X112296170Y-110540732D01*
X112296168Y-110540733D01*
X112229848Y-110585048D01*
X112185533Y-110651368D01*
X112185532Y-110651370D01*
X112173900Y-110709851D01*
X112173900Y-111350148D01*
X110236100Y-111350148D01*
X110236100Y-110709852D01*
X110224467Y-110651369D01*
X110180152Y-110585048D01*
X110113831Y-110540733D01*
X110113829Y-110540732D01*
X110055349Y-110529100D01*
X110055348Y-110529100D01*
X109855700Y-110529100D01*
X109807362Y-110511507D01*
X109781642Y-110466958D01*
X109780500Y-110453900D01*
X109780500Y-109575619D01*
X109798093Y-109527281D01*
X109802526Y-109522445D01*
X111392445Y-107932526D01*
X111439065Y-107910786D01*
X111445619Y-107910500D01*
X117849560Y-107910500D01*
X117849562Y-107910500D01*
X117925989Y-107890021D01*
X117994511Y-107850460D01*
X118050460Y-107794511D01*
X119240460Y-106604511D01*
X119280021Y-106535989D01*
X119300500Y-106459562D01*
X119300500Y-106125700D01*
X119318093Y-106077362D01*
X119362642Y-106051642D01*
X119375700Y-106050500D01*
X119869749Y-106050500D01*
X119889242Y-106046622D01*
X119928231Y-106038867D01*
X119994552Y-105994552D01*
X120038867Y-105928231D01*
X120050500Y-105869748D01*
X120050500Y-104130252D01*
X120038867Y-104071769D01*
X119994552Y-104005448D01*
X119928231Y-103961133D01*
X119928229Y-103961132D01*
X119869749Y-103949500D01*
X119869748Y-103949500D01*
X118130252Y-103949500D01*
X118130251Y-103949500D01*
X118071770Y-103961132D01*
X118071768Y-103961133D01*
X118005448Y-104005448D01*
X117961133Y-104071768D01*
X117961132Y-104071770D01*
X117949500Y-104130251D01*
X117949500Y-105869748D01*
X117961132Y-105928229D01*
X117961133Y-105928231D01*
X118005448Y-105994552D01*
X118071769Y-106038867D01*
X118101010Y-106044683D01*
X118130251Y-106050500D01*
X118130252Y-106050500D01*
X118624300Y-106050500D01*
X118672638Y-106068093D01*
X118698358Y-106112642D01*
X118699500Y-106125700D01*
X118699500Y-106264381D01*
X118681907Y-106312719D01*
X118677474Y-106317555D01*
X117707555Y-107287474D01*
X117660935Y-107309214D01*
X117654381Y-107309500D01*
X111329562Y-107309500D01*
X111250438Y-107309500D01*
X111174012Y-107329978D01*
X111174004Y-107329981D01*
X111105488Y-107369539D01*
X109295489Y-109179540D01*
X109267514Y-109207514D01*
X109239540Y-109235488D01*
X109239539Y-109235490D01*
X109199979Y-109304009D01*
X109179500Y-109380439D01*
X109179500Y-110453900D01*
X109161907Y-110502238D01*
X109117358Y-110527958D01*
X109104300Y-110529100D01*
X108904651Y-110529100D01*
X108846170Y-110540732D01*
X108846168Y-110540733D01*
X108779848Y-110585048D01*
X108735533Y-110651368D01*
X108735532Y-110651370D01*
X108723900Y-110709851D01*
X108723900Y-111350148D01*
X104710500Y-111350148D01*
X104710500Y-102840264D01*
X107717000Y-102840264D01*
X107719774Y-102869842D01*
X107719775Y-102869849D01*
X107719776Y-102869851D01*
X107763382Y-102994472D01*
X107763384Y-102994475D01*
X107841789Y-103100711D01*
X107948024Y-103179115D01*
X107948027Y-103179117D01*
X107977942Y-103189584D01*
X108072651Y-103222725D01*
X108102235Y-103225499D01*
X108102238Y-103225500D01*
X108102244Y-103225500D01*
X108707762Y-103225500D01*
X108707763Y-103225499D01*
X108737349Y-103222725D01*
X108861975Y-103179116D01*
X108968211Y-103100711D01*
X109046616Y-102994475D01*
X109090225Y-102869849D01*
X109092999Y-102840264D01*
X109542000Y-102840264D01*
X109544774Y-102869842D01*
X109544775Y-102869849D01*
X109544776Y-102869851D01*
X109588382Y-102994472D01*
X109588384Y-102994475D01*
X109666789Y-103100711D01*
X109773024Y-103179115D01*
X109773027Y-103179117D01*
X109802942Y-103189584D01*
X109897651Y-103222725D01*
X109927235Y-103225499D01*
X109927238Y-103225500D01*
X109927244Y-103225500D01*
X110532762Y-103225500D01*
X110532763Y-103225499D01*
X110562349Y-103222725D01*
X110686975Y-103179116D01*
X110793211Y-103100711D01*
X110871616Y-102994475D01*
X110904373Y-102900861D01*
X110936943Y-102861049D01*
X110975352Y-102850500D01*
X111239560Y-102850500D01*
X111239562Y-102850500D01*
X111315989Y-102830021D01*
X111384511Y-102790460D01*
X111440460Y-102734511D01*
X111714970Y-102460000D01*
X117944417Y-102460000D01*
X117964699Y-102665932D01*
X118024765Y-102863947D01*
X118024770Y-102863959D01*
X118122312Y-103046445D01*
X118122315Y-103046450D01*
X118253590Y-103206410D01*
X118413550Y-103337685D01*
X118596046Y-103435232D01*
X118596050Y-103435233D01*
X118596052Y-103435234D01*
X118669778Y-103457598D01*
X118794066Y-103495300D01*
X119000000Y-103515583D01*
X119205934Y-103495300D01*
X119403954Y-103435232D01*
X119586450Y-103337685D01*
X119746410Y-103206410D01*
X119877685Y-103046450D01*
X119975232Y-102863954D01*
X120035300Y-102665934D01*
X120055583Y-102460000D01*
X120035300Y-102254066D01*
X119975232Y-102056046D01*
X119957948Y-102023711D01*
X119881133Y-101880000D01*
X119877685Y-101873550D01*
X119746410Y-101713590D01*
X119586450Y-101582315D01*
X119586445Y-101582312D01*
X119403959Y-101484770D01*
X119403947Y-101484765D01*
X119205932Y-101424699D01*
X119000000Y-101404417D01*
X118794067Y-101424699D01*
X118596052Y-101484765D01*
X118596040Y-101484770D01*
X118413554Y-101582312D01*
X118413549Y-101582315D01*
X118253590Y-101713590D01*
X118122315Y-101873549D01*
X118122312Y-101873554D01*
X118024770Y-102056040D01*
X118024765Y-102056052D01*
X117964699Y-102254067D01*
X117944417Y-102460000D01*
X111714970Y-102460000D01*
X111728655Y-102446315D01*
X111775274Y-102424576D01*
X111791637Y-102424932D01*
X111870000Y-102435250D01*
X112013709Y-102416330D01*
X112147625Y-102360861D01*
X112262621Y-102272621D01*
X112350861Y-102157625D01*
X112406330Y-102023709D01*
X112425250Y-101880000D01*
X112406330Y-101736291D01*
X112350861Y-101602375D01*
X112350860Y-101602374D01*
X112350860Y-101602373D01*
X112262621Y-101487378D01*
X112147626Y-101399139D01*
X112013711Y-101343671D01*
X112013709Y-101343670D01*
X111870000Y-101324750D01*
X111726291Y-101343670D01*
X111726288Y-101343670D01*
X111726288Y-101343671D01*
X111592373Y-101399139D01*
X111477378Y-101487378D01*
X111389139Y-101602373D01*
X111343073Y-101713590D01*
X111333670Y-101736291D01*
X111325375Y-101799300D01*
X111314750Y-101880000D01*
X111325065Y-101958355D01*
X111313931Y-102008576D01*
X111303683Y-102021344D01*
X111097555Y-102227474D01*
X111050934Y-102249214D01*
X111044380Y-102249500D01*
X110975352Y-102249500D01*
X110927014Y-102231907D01*
X110904373Y-102199138D01*
X110871616Y-102105525D01*
X110793211Y-101999289D01*
X110686975Y-101920884D01*
X110686972Y-101920882D01*
X110592266Y-101887743D01*
X110562349Y-101877275D01*
X110562344Y-101877274D01*
X110562342Y-101877274D01*
X110532764Y-101874500D01*
X110532756Y-101874500D01*
X109927244Y-101874500D01*
X109927235Y-101874500D01*
X109897657Y-101877274D01*
X109897653Y-101877274D01*
X109897651Y-101877275D01*
X109897648Y-101877275D01*
X109897648Y-101877276D01*
X109773027Y-101920882D01*
X109773024Y-101920884D01*
X109666789Y-101999289D01*
X109588384Y-102105524D01*
X109588382Y-102105527D01*
X109544776Y-102230148D01*
X109544774Y-102230157D01*
X109542000Y-102259735D01*
X109542000Y-102840264D01*
X109092999Y-102840264D01*
X109092999Y-102840263D01*
X109093000Y-102840262D01*
X109093000Y-102259738D01*
X109092999Y-102259735D01*
X109090225Y-102230151D01*
X109046616Y-102105525D01*
X109035192Y-102090046D01*
X109020500Y-102045393D01*
X109020500Y-100689604D01*
X109038093Y-100641266D01*
X109053920Y-100627078D01*
X109056629Y-100625267D01*
X109056631Y-100625267D01*
X109122952Y-100580952D01*
X109167267Y-100514631D01*
X109178900Y-100456148D01*
X109178900Y-100076800D01*
X109824600Y-100076800D01*
X109824600Y-100484231D01*
X109831001Y-100543774D01*
X109831002Y-100543777D01*
X109881248Y-100678490D01*
X109881249Y-100678492D01*
X109967410Y-100793589D01*
X110082507Y-100879750D01*
X110082509Y-100879751D01*
X110217222Y-100929997D01*
X110217225Y-100929998D01*
X110276768Y-100936399D01*
X110276780Y-100936400D01*
X110354000Y-100936400D01*
X110354000Y-100076800D01*
X110854000Y-100076800D01*
X110854000Y-100936400D01*
X110931220Y-100936400D01*
X110931231Y-100936399D01*
X110990774Y-100929998D01*
X110990777Y-100929997D01*
X111125490Y-100879751D01*
X111125492Y-100879750D01*
X111240589Y-100793589D01*
X111326750Y-100678492D01*
X111326751Y-100678490D01*
X111376997Y-100543777D01*
X111376998Y-100543774D01*
X111383399Y-100484231D01*
X111383400Y-100484220D01*
X111383400Y-100076800D01*
X110854000Y-100076800D01*
X110354000Y-100076800D01*
X109824600Y-100076800D01*
X109178900Y-100076800D01*
X109178900Y-99576800D01*
X109824600Y-99576800D01*
X110354000Y-99576800D01*
X110354000Y-98717200D01*
X110854000Y-98717200D01*
X110854000Y-99576800D01*
X111383400Y-99576800D01*
X111383400Y-99169380D01*
X111383399Y-99169368D01*
X111376998Y-99109825D01*
X111376997Y-99109822D01*
X111326751Y-98975109D01*
X111326750Y-98975107D01*
X111240589Y-98860010D01*
X111125492Y-98773849D01*
X111125490Y-98773848D01*
X110990777Y-98723602D01*
X110990774Y-98723601D01*
X110931231Y-98717200D01*
X110854000Y-98717200D01*
X110354000Y-98717200D01*
X110276768Y-98717200D01*
X110217225Y-98723601D01*
X110217222Y-98723602D01*
X110082509Y-98773848D01*
X110082507Y-98773849D01*
X109967410Y-98860010D01*
X109881249Y-98975107D01*
X109881248Y-98975109D01*
X109831002Y-99109822D01*
X109831001Y-99109825D01*
X109824600Y-99169368D01*
X109824600Y-99576800D01*
X109178900Y-99576800D01*
X109178900Y-99197452D01*
X109167267Y-99138969D01*
X109122952Y-99072648D01*
X109056631Y-99028333D01*
X109056629Y-99028332D01*
X108998149Y-99016700D01*
X108998148Y-99016700D01*
X108399852Y-99016700D01*
X108399851Y-99016700D01*
X108341370Y-99028332D01*
X108341368Y-99028333D01*
X108275048Y-99072648D01*
X108230733Y-99138968D01*
X108230732Y-99138970D01*
X108219100Y-99197451D01*
X108219100Y-100456148D01*
X108230732Y-100514629D01*
X108230733Y-100514631D01*
X108275048Y-100580952D01*
X108341369Y-100625267D01*
X108358970Y-100628768D01*
X108402947Y-100655453D01*
X108419500Y-100702523D01*
X108419500Y-101799300D01*
X108401907Y-101847638D01*
X108357358Y-101873358D01*
X108344300Y-101874500D01*
X108102235Y-101874500D01*
X108072657Y-101877274D01*
X108072653Y-101877274D01*
X108072651Y-101877275D01*
X108072648Y-101877275D01*
X108072648Y-101877276D01*
X107948027Y-101920882D01*
X107948024Y-101920884D01*
X107841789Y-101999289D01*
X107763384Y-102105524D01*
X107763382Y-102105527D01*
X107719776Y-102230148D01*
X107719774Y-102230157D01*
X107717000Y-102259735D01*
X107717000Y-102840264D01*
X104710500Y-102840264D01*
X104710500Y-94690148D01*
X108913900Y-94690148D01*
X108925532Y-94748629D01*
X108925533Y-94748631D01*
X108969848Y-94814952D01*
X109036169Y-94859267D01*
X109065410Y-94865083D01*
X109094651Y-94870900D01*
X109094652Y-94870900D01*
X109275800Y-94870900D01*
X109324138Y-94888493D01*
X109349858Y-94933042D01*
X109351000Y-94946100D01*
X109351000Y-96821653D01*
X109333407Y-96869991D01*
X109299865Y-96889851D01*
X109300713Y-96891898D01*
X109293870Y-96894732D01*
X109227548Y-96939048D01*
X109183233Y-97005368D01*
X109183232Y-97005370D01*
X109171600Y-97063851D01*
X109171600Y-98322548D01*
X109183232Y-98381029D01*
X109183233Y-98381031D01*
X109227548Y-98447352D01*
X109293869Y-98491667D01*
X109323110Y-98497483D01*
X109352351Y-98503300D01*
X109352352Y-98503300D01*
X109950649Y-98503300D01*
X109970142Y-98499422D01*
X110009131Y-98491667D01*
X110075452Y-98447352D01*
X110119767Y-98381031D01*
X110131400Y-98322548D01*
X110131400Y-97063852D01*
X110119767Y-97005369D01*
X110075452Y-96939048D01*
X110009131Y-96894733D01*
X110009130Y-96894732D01*
X110009129Y-96894732D01*
X110002287Y-96891898D01*
X110003181Y-96889739D01*
X109968543Y-96868711D01*
X109952000Y-96821653D01*
X109952000Y-94946100D01*
X109969593Y-94897762D01*
X110014142Y-94872042D01*
X110027200Y-94870900D01*
X110245349Y-94870900D01*
X110264842Y-94867022D01*
X110303831Y-94859267D01*
X110370152Y-94814952D01*
X110414467Y-94748631D01*
X110426100Y-94690148D01*
X112363900Y-94690148D01*
X112375532Y-94748629D01*
X112375533Y-94748631D01*
X112419848Y-94814952D01*
X112486169Y-94859267D01*
X112515410Y-94865083D01*
X112544651Y-94870900D01*
X112544652Y-94870900D01*
X113695349Y-94870900D01*
X113714842Y-94867022D01*
X113753831Y-94859267D01*
X113820152Y-94814952D01*
X113864467Y-94748631D01*
X113867968Y-94731029D01*
X113894653Y-94687053D01*
X113941723Y-94670500D01*
X116509560Y-94670500D01*
X116509562Y-94670500D01*
X116585989Y-94650021D01*
X116654511Y-94610460D01*
X116710460Y-94554511D01*
X117968654Y-93296315D01*
X118015273Y-93274576D01*
X118031637Y-93274932D01*
X118110000Y-93285250D01*
X118253709Y-93266330D01*
X118387625Y-93210861D01*
X118502621Y-93122621D01*
X118590861Y-93007625D01*
X118646330Y-92873709D01*
X118665250Y-92730000D01*
X118646330Y-92586291D01*
X118590861Y-92452375D01*
X118590860Y-92452374D01*
X118590860Y-92452373D01*
X118502621Y-92337378D01*
X118387626Y-92249139D01*
X118253711Y-92193671D01*
X118253709Y-92193670D01*
X118110000Y-92174750D01*
X117966291Y-92193670D01*
X117966288Y-92193670D01*
X117966288Y-92193671D01*
X117832373Y-92249139D01*
X117717378Y-92337378D01*
X117629139Y-92452373D01*
X117573671Y-92586288D01*
X117573670Y-92586291D01*
X117554750Y-92730000D01*
X117565065Y-92808356D01*
X117553931Y-92858577D01*
X117543682Y-92871345D01*
X116367555Y-94047474D01*
X116320935Y-94069214D01*
X116314381Y-94069500D01*
X113941723Y-94069500D01*
X113893385Y-94051907D01*
X113867968Y-94008970D01*
X113864467Y-93991371D01*
X113864467Y-93991370D01*
X113864467Y-93991369D01*
X113820152Y-93925048D01*
X113753831Y-93880733D01*
X113753829Y-93880732D01*
X113695349Y-93869100D01*
X113695348Y-93869100D01*
X112544652Y-93869100D01*
X112544651Y-93869100D01*
X112486170Y-93880732D01*
X112486168Y-93880733D01*
X112419848Y-93925048D01*
X112375533Y-93991368D01*
X112375532Y-93991370D01*
X112363900Y-94049851D01*
X112363900Y-94690148D01*
X110426100Y-94690148D01*
X110426100Y-94049852D01*
X110414467Y-93991369D01*
X110370152Y-93925048D01*
X110303831Y-93880733D01*
X110303829Y-93880732D01*
X110245349Y-93869100D01*
X110245348Y-93869100D01*
X110045700Y-93869100D01*
X109997362Y-93851507D01*
X109971642Y-93806958D01*
X109970500Y-93793900D01*
X109970500Y-93245619D01*
X109988093Y-93197281D01*
X109992526Y-93192445D01*
X111002445Y-92182526D01*
X111049065Y-92160786D01*
X111055619Y-92160500D01*
X115889560Y-92160500D01*
X115889562Y-92160500D01*
X115965989Y-92140021D01*
X116034511Y-92100460D01*
X116090460Y-92044511D01*
X119240460Y-88894511D01*
X119280022Y-88825988D01*
X119300500Y-88749562D01*
X119300500Y-88670438D01*
X119300500Y-83625700D01*
X119318093Y-83577362D01*
X119362642Y-83551642D01*
X119375700Y-83550500D01*
X119869749Y-83550500D01*
X119889242Y-83546622D01*
X119928231Y-83538867D01*
X119994552Y-83494552D01*
X120038867Y-83428231D01*
X120050500Y-83369748D01*
X120050500Y-81630252D01*
X120038867Y-81571769D01*
X119994552Y-81505448D01*
X119928231Y-81461133D01*
X119928229Y-81461132D01*
X119869749Y-81449500D01*
X119869748Y-81449500D01*
X118130252Y-81449500D01*
X118130251Y-81449500D01*
X118071770Y-81461132D01*
X118071768Y-81461133D01*
X118005448Y-81505448D01*
X117961133Y-81571768D01*
X117961132Y-81571770D01*
X117949500Y-81630251D01*
X117949500Y-83369748D01*
X117961132Y-83428229D01*
X117961133Y-83428231D01*
X118005448Y-83494552D01*
X118071769Y-83538867D01*
X118101010Y-83544683D01*
X118130251Y-83550500D01*
X118130252Y-83550500D01*
X118624300Y-83550500D01*
X118672638Y-83568093D01*
X118698358Y-83612642D01*
X118699500Y-83625700D01*
X118699500Y-88554381D01*
X118681907Y-88602719D01*
X118677474Y-88607555D01*
X115747555Y-91537474D01*
X115700935Y-91559214D01*
X115694381Y-91559500D01*
X110939562Y-91559500D01*
X110860438Y-91559500D01*
X110784012Y-91579978D01*
X110784004Y-91579981D01*
X110715488Y-91619539D01*
X109748741Y-92586288D01*
X109485489Y-92849540D01*
X109463684Y-92871345D01*
X109429540Y-92905488D01*
X109429539Y-92905490D01*
X109389979Y-92974009D01*
X109369500Y-93050439D01*
X109369500Y-93793900D01*
X109351907Y-93842238D01*
X109307358Y-93867958D01*
X109294300Y-93869100D01*
X109094651Y-93869100D01*
X109036170Y-93880732D01*
X109036168Y-93880733D01*
X108969848Y-93925048D01*
X108925533Y-93991368D01*
X108925532Y-93991370D01*
X108913900Y-94049851D01*
X108913900Y-94690148D01*
X104710500Y-94690148D01*
X104710500Y-88960264D01*
X107397000Y-88960264D01*
X107399774Y-88989842D01*
X107399775Y-88989849D01*
X107399776Y-88989851D01*
X107443382Y-89114472D01*
X107443384Y-89114475D01*
X107521789Y-89220711D01*
X107628024Y-89299115D01*
X107628027Y-89299117D01*
X107657942Y-89309584D01*
X107752651Y-89342725D01*
X107782235Y-89345499D01*
X107782238Y-89345500D01*
X107782244Y-89345500D01*
X108387762Y-89345500D01*
X108387763Y-89345499D01*
X108417349Y-89342725D01*
X108541975Y-89299116D01*
X108648211Y-89220711D01*
X108726616Y-89114475D01*
X108770225Y-88989849D01*
X108772999Y-88960264D01*
X109222000Y-88960264D01*
X109224774Y-88989842D01*
X109224775Y-88989849D01*
X109224776Y-88989851D01*
X109268382Y-89114472D01*
X109268384Y-89114475D01*
X109346789Y-89220711D01*
X109453024Y-89299115D01*
X109453027Y-89299117D01*
X109482942Y-89309584D01*
X109577651Y-89342725D01*
X109607235Y-89345499D01*
X109607238Y-89345500D01*
X109607244Y-89345500D01*
X110212762Y-89345500D01*
X110212763Y-89345499D01*
X110242349Y-89342725D01*
X110366975Y-89299116D01*
X110473211Y-89220711D01*
X110551616Y-89114475D01*
X110584373Y-89020861D01*
X110616943Y-88981049D01*
X110655352Y-88970500D01*
X114179560Y-88970500D01*
X114179562Y-88970500D01*
X114255989Y-88950021D01*
X114324511Y-88910460D01*
X114380460Y-88854511D01*
X116358654Y-86876315D01*
X116405273Y-86854576D01*
X116421637Y-86854932D01*
X116500000Y-86865250D01*
X116643709Y-86846330D01*
X116777625Y-86790861D01*
X116892621Y-86702621D01*
X116980861Y-86587625D01*
X117036330Y-86453709D01*
X117055250Y-86310000D01*
X117036330Y-86166291D01*
X116980861Y-86032375D01*
X116980860Y-86032374D01*
X116980860Y-86032373D01*
X116892621Y-85917378D01*
X116777626Y-85829139D01*
X116643711Y-85773671D01*
X116643709Y-85773670D01*
X116500000Y-85754750D01*
X116356291Y-85773670D01*
X116356288Y-85773670D01*
X116356288Y-85773671D01*
X116222373Y-85829139D01*
X116107378Y-85917378D01*
X116019139Y-86032373D01*
X115963671Y-86166288D01*
X115963670Y-86166291D01*
X115944750Y-86310000D01*
X115955065Y-86388356D01*
X115943931Y-86438577D01*
X115933682Y-86451345D01*
X114037555Y-88347474D01*
X113990935Y-88369214D01*
X113984381Y-88369500D01*
X110655352Y-88369500D01*
X110607014Y-88351907D01*
X110584373Y-88319138D01*
X110551616Y-88225525D01*
X110473211Y-88119289D01*
X110366975Y-88040884D01*
X110366972Y-88040882D01*
X110260862Y-88003753D01*
X110242349Y-87997275D01*
X110242344Y-87997274D01*
X110242342Y-87997274D01*
X110212764Y-87994500D01*
X110212756Y-87994500D01*
X109607244Y-87994500D01*
X109607235Y-87994500D01*
X109577657Y-87997274D01*
X109577653Y-87997274D01*
X109577651Y-87997275D01*
X109577648Y-87997275D01*
X109577648Y-87997276D01*
X109453027Y-88040882D01*
X109453024Y-88040884D01*
X109346789Y-88119289D01*
X109268384Y-88225524D01*
X109268382Y-88225527D01*
X109224776Y-88350148D01*
X109224774Y-88350157D01*
X109222000Y-88379735D01*
X109222000Y-88960264D01*
X108772999Y-88960264D01*
X108772999Y-88960263D01*
X108773000Y-88960262D01*
X108773000Y-88379738D01*
X108772999Y-88379735D01*
X108772039Y-88369500D01*
X108770225Y-88350151D01*
X108726616Y-88225525D01*
X108648211Y-88119289D01*
X108541975Y-88040884D01*
X108541973Y-88040883D01*
X108530568Y-88036892D01*
X108490754Y-88004320D01*
X108481192Y-87953777D01*
X108502230Y-87912739D01*
X108625460Y-87789511D01*
X108625749Y-87789011D01*
X108665021Y-87720989D01*
X108685500Y-87644562D01*
X108685500Y-86981545D01*
X108703093Y-86933207D01*
X108736638Y-86913354D01*
X108735788Y-86911301D01*
X108742626Y-86908467D01*
X108742631Y-86908467D01*
X108808952Y-86864152D01*
X108853267Y-86797831D01*
X108864900Y-86739348D01*
X108864900Y-86360000D01*
X109510600Y-86360000D01*
X109510600Y-86767431D01*
X109517001Y-86826974D01*
X109517002Y-86826977D01*
X109567248Y-86961690D01*
X109567249Y-86961692D01*
X109653410Y-87076789D01*
X109768507Y-87162950D01*
X109768509Y-87162951D01*
X109903222Y-87213197D01*
X109903225Y-87213198D01*
X109962768Y-87219599D01*
X109962780Y-87219600D01*
X110040000Y-87219600D01*
X110040000Y-86360000D01*
X110540000Y-86360000D01*
X110540000Y-87219600D01*
X110617220Y-87219600D01*
X110617231Y-87219599D01*
X110676774Y-87213198D01*
X110676777Y-87213197D01*
X110811490Y-87162951D01*
X110811492Y-87162950D01*
X110926589Y-87076789D01*
X111012750Y-86961692D01*
X111012751Y-86961690D01*
X111062997Y-86826977D01*
X111062998Y-86826974D01*
X111069399Y-86767431D01*
X111069400Y-86767420D01*
X111069400Y-86360000D01*
X110540000Y-86360000D01*
X110040000Y-86360000D01*
X109510600Y-86360000D01*
X108864900Y-86360000D01*
X108864900Y-85860000D01*
X109510600Y-85860000D01*
X110040000Y-85860000D01*
X110040000Y-85000400D01*
X110540000Y-85000400D01*
X110540000Y-85860000D01*
X111069400Y-85860000D01*
X111069400Y-85452580D01*
X111069399Y-85452568D01*
X111062998Y-85393025D01*
X111062997Y-85393022D01*
X111012751Y-85258309D01*
X111012750Y-85258307D01*
X110926589Y-85143210D01*
X110811492Y-85057049D01*
X110811490Y-85057048D01*
X110676777Y-85006802D01*
X110676774Y-85006801D01*
X110617231Y-85000400D01*
X110540000Y-85000400D01*
X110040000Y-85000400D01*
X109962768Y-85000400D01*
X109903225Y-85006801D01*
X109903222Y-85006802D01*
X109768509Y-85057048D01*
X109768507Y-85057049D01*
X109653410Y-85143210D01*
X109567249Y-85258307D01*
X109567248Y-85258309D01*
X109517002Y-85393022D01*
X109517001Y-85393025D01*
X109510600Y-85452568D01*
X109510600Y-85860000D01*
X108864900Y-85860000D01*
X108864900Y-85480652D01*
X108853267Y-85422169D01*
X108808952Y-85355848D01*
X108742631Y-85311533D01*
X108742629Y-85311532D01*
X108684149Y-85299900D01*
X108684148Y-85299900D01*
X108085852Y-85299900D01*
X108085851Y-85299900D01*
X108027370Y-85311532D01*
X108027368Y-85311533D01*
X107961048Y-85355848D01*
X107916733Y-85422168D01*
X107916732Y-85422170D01*
X107905100Y-85480651D01*
X107905100Y-86739348D01*
X107916732Y-86797829D01*
X107916733Y-86797831D01*
X107961048Y-86864152D01*
X108027369Y-86908467D01*
X108027371Y-86908467D01*
X108034212Y-86911301D01*
X108033315Y-86913464D01*
X108067936Y-86934461D01*
X108084500Y-86981545D01*
X108084500Y-87449381D01*
X108066907Y-87497719D01*
X108062474Y-87502555D01*
X107900489Y-87664540D01*
X107872514Y-87692514D01*
X107844540Y-87720488D01*
X107844539Y-87720490D01*
X107804979Y-87789009D01*
X107784500Y-87865439D01*
X107784500Y-87932773D01*
X107766907Y-87981111D01*
X107734137Y-88003753D01*
X107628027Y-88040882D01*
X107628024Y-88040884D01*
X107521789Y-88119289D01*
X107443384Y-88225524D01*
X107443382Y-88225527D01*
X107399776Y-88350148D01*
X107399774Y-88350157D01*
X107397000Y-88379735D01*
X107397000Y-88960264D01*
X104710500Y-88960264D01*
X104710500Y-80940148D01*
X108583900Y-80940148D01*
X108595532Y-80998629D01*
X108595533Y-80998631D01*
X108639848Y-81064952D01*
X108706169Y-81109267D01*
X108735410Y-81115083D01*
X108764651Y-81120900D01*
X108764652Y-81120900D01*
X108961800Y-81120900D01*
X109010138Y-81138493D01*
X109035858Y-81183042D01*
X109037000Y-81196100D01*
X109037000Y-83104853D01*
X109019407Y-83153191D01*
X108985865Y-83173051D01*
X108986713Y-83175098D01*
X108979870Y-83177932D01*
X108913548Y-83222248D01*
X108869233Y-83288568D01*
X108869232Y-83288570D01*
X108857600Y-83347051D01*
X108857600Y-84605748D01*
X108869232Y-84664229D01*
X108869233Y-84664231D01*
X108913548Y-84730552D01*
X108979869Y-84774867D01*
X109009110Y-84780683D01*
X109038351Y-84786500D01*
X109038352Y-84786500D01*
X109636649Y-84786500D01*
X109656142Y-84782622D01*
X109695131Y-84774867D01*
X109761452Y-84730552D01*
X109805767Y-84664231D01*
X109817400Y-84605748D01*
X109817400Y-83347052D01*
X109805767Y-83288569D01*
X109761452Y-83222248D01*
X109695131Y-83177933D01*
X109695130Y-83177932D01*
X109695129Y-83177932D01*
X109688287Y-83175098D01*
X109689181Y-83172939D01*
X109654543Y-83151911D01*
X109638000Y-83104853D01*
X109638000Y-81196100D01*
X109655593Y-81147762D01*
X109700142Y-81122042D01*
X109713200Y-81120900D01*
X109915349Y-81120900D01*
X109934842Y-81117022D01*
X109973831Y-81109267D01*
X110040152Y-81064952D01*
X110084467Y-80998631D01*
X110096100Y-80940148D01*
X112033900Y-80940148D01*
X112045532Y-80998629D01*
X112045533Y-80998631D01*
X112089848Y-81064952D01*
X112156169Y-81109267D01*
X112185410Y-81115083D01*
X112214651Y-81120900D01*
X112214652Y-81120900D01*
X113365349Y-81120900D01*
X113384842Y-81117022D01*
X113423831Y-81109267D01*
X113490152Y-81064952D01*
X113534467Y-80998631D01*
X113537968Y-80981029D01*
X113564653Y-80937053D01*
X113611723Y-80920500D01*
X116549560Y-80920500D01*
X116549562Y-80920500D01*
X116625989Y-80900021D01*
X116694511Y-80860460D01*
X116750460Y-80804511D01*
X117272445Y-80282526D01*
X117319065Y-80260786D01*
X117325619Y-80260500D01*
X117937613Y-80260500D01*
X117985951Y-80278093D01*
X118009575Y-80313871D01*
X118024765Y-80363947D01*
X118024770Y-80363959D01*
X118122312Y-80546445D01*
X118122315Y-80546450D01*
X118253590Y-80706410D01*
X118413550Y-80837685D01*
X118413554Y-80837687D01*
X118568484Y-80920500D01*
X118596046Y-80935232D01*
X118596050Y-80935233D01*
X118596052Y-80935234D01*
X118602049Y-80937053D01*
X118794066Y-80995300D01*
X119000000Y-81015583D01*
X119205934Y-80995300D01*
X119403954Y-80935232D01*
X119586450Y-80837685D01*
X119746410Y-80706410D01*
X119877685Y-80546450D01*
X119975232Y-80363954D01*
X120035300Y-80165934D01*
X120055583Y-79960000D01*
X120035300Y-79754066D01*
X119975232Y-79556046D01*
X119877685Y-79373550D01*
X119746410Y-79213590D01*
X119586450Y-79082315D01*
X119586445Y-79082312D01*
X119403959Y-78984770D01*
X119403947Y-78984765D01*
X119205932Y-78924699D01*
X119000000Y-78904417D01*
X118794067Y-78924699D01*
X118596052Y-78984765D01*
X118596040Y-78984770D01*
X118413554Y-79082312D01*
X118413549Y-79082315D01*
X118253590Y-79213590D01*
X118122315Y-79373549D01*
X118122312Y-79373554D01*
X118024770Y-79556040D01*
X118024765Y-79556052D01*
X118009575Y-79606129D01*
X117978708Y-79647278D01*
X117937613Y-79659500D01*
X117130438Y-79659500D01*
X117092224Y-79669739D01*
X117054009Y-79679979D01*
X116985490Y-79719539D01*
X116985484Y-79719543D01*
X116407555Y-80297474D01*
X116360935Y-80319214D01*
X116354381Y-80319500D01*
X113611723Y-80319500D01*
X113563385Y-80301907D01*
X113537968Y-80258970D01*
X113534467Y-80241371D01*
X113534467Y-80241370D01*
X113534467Y-80241369D01*
X113490152Y-80175048D01*
X113423831Y-80130733D01*
X113423829Y-80130732D01*
X113365349Y-80119100D01*
X113365348Y-80119100D01*
X112214652Y-80119100D01*
X112214651Y-80119100D01*
X112156170Y-80130732D01*
X112156168Y-80130733D01*
X112089848Y-80175048D01*
X112045533Y-80241368D01*
X112045532Y-80241370D01*
X112033900Y-80299851D01*
X112033900Y-80940148D01*
X110096100Y-80940148D01*
X110096100Y-80299852D01*
X110084467Y-80241369D01*
X110040152Y-80175048D01*
X109973831Y-80130733D01*
X109973829Y-80130732D01*
X109915349Y-80119100D01*
X109915348Y-80119100D01*
X109715700Y-80119100D01*
X109667362Y-80101507D01*
X109641642Y-80056958D01*
X109640500Y-80043900D01*
X109640500Y-79455619D01*
X109658093Y-79407281D01*
X109662526Y-79402445D01*
X111002445Y-78062526D01*
X111049065Y-78040786D01*
X111055619Y-78040500D01*
X116039560Y-78040500D01*
X116039562Y-78040500D01*
X116115989Y-78020021D01*
X116184511Y-77980460D01*
X116240460Y-77924511D01*
X120750460Y-73414511D01*
X120790021Y-73345989D01*
X120810500Y-73269562D01*
X120810500Y-62650438D01*
X120790021Y-62574011D01*
X120750460Y-62505489D01*
X120694511Y-62449540D01*
X119423845Y-61178874D01*
X119402105Y-61132254D01*
X119415419Y-61082567D01*
X119457556Y-61053062D01*
X119477019Y-61050500D01*
X119869749Y-61050500D01*
X119889242Y-61046622D01*
X119928231Y-61038867D01*
X119994552Y-60994552D01*
X120038867Y-60928231D01*
X120050500Y-60869748D01*
X120050500Y-59130252D01*
X120047571Y-59115529D01*
X120038867Y-59071770D01*
X120038866Y-59071768D01*
X120030709Y-59059560D01*
X119994552Y-59005448D01*
X119928231Y-58961133D01*
X119928229Y-58961132D01*
X119869749Y-58949500D01*
X119869748Y-58949500D01*
X118130252Y-58949500D01*
X118130251Y-58949500D01*
X118071770Y-58961132D01*
X118071768Y-58961133D01*
X118005448Y-59005448D01*
X117961133Y-59071768D01*
X117961132Y-59071770D01*
X117949500Y-59130251D01*
X117949500Y-60869748D01*
X117961132Y-60928229D01*
X117961133Y-60928231D01*
X118005448Y-60994552D01*
X118071769Y-61038867D01*
X118101010Y-61044683D01*
X118130251Y-61050500D01*
X118130252Y-61050500D01*
X118624300Y-61050500D01*
X118672638Y-61068093D01*
X118698358Y-61112642D01*
X118699500Y-61125700D01*
X118699500Y-61219562D01*
X118704786Y-61239289D01*
X118719979Y-61295990D01*
X118759539Y-61364509D01*
X118759543Y-61364515D01*
X120187474Y-62792445D01*
X120209214Y-62839065D01*
X120209500Y-62845619D01*
X120209500Y-73074381D01*
X120191907Y-73122719D01*
X120187474Y-73127555D01*
X115897555Y-77417474D01*
X115850935Y-77439214D01*
X115844381Y-77439500D01*
X110860438Y-77439500D01*
X110822224Y-77449739D01*
X110784009Y-77459979D01*
X110715490Y-77499539D01*
X110715484Y-77499543D01*
X109310612Y-78904417D01*
X109155489Y-79059540D01*
X109132717Y-79082312D01*
X109099540Y-79115488D01*
X109099539Y-79115490D01*
X109059979Y-79184009D01*
X109039500Y-79260439D01*
X109039500Y-80043900D01*
X109021907Y-80092238D01*
X108977358Y-80117958D01*
X108964300Y-80119100D01*
X108764651Y-80119100D01*
X108706170Y-80130732D01*
X108706168Y-80130733D01*
X108639848Y-80175048D01*
X108595533Y-80241368D01*
X108595532Y-80241370D01*
X108583900Y-80299851D01*
X108583900Y-80940148D01*
X104710500Y-80940148D01*
X104710500Y-76580000D01*
X111424750Y-76580000D01*
X111443670Y-76723709D01*
X111443671Y-76723711D01*
X111499139Y-76857626D01*
X111587378Y-76972621D01*
X111702373Y-77060860D01*
X111702374Y-77060860D01*
X111702375Y-77060861D01*
X111836291Y-77116330D01*
X111980000Y-77135250D01*
X112123709Y-77116330D01*
X112257625Y-77060861D01*
X112372621Y-76972621D01*
X112460861Y-76857625D01*
X112516330Y-76723709D01*
X112535250Y-76580000D01*
X112524933Y-76501641D01*
X112536067Y-76451423D01*
X112546311Y-76438658D01*
X114530460Y-74454511D01*
X114558792Y-74405438D01*
X114570021Y-74385989D01*
X114590500Y-74309562D01*
X114590500Y-72764748D01*
X115484500Y-72764748D01*
X115496132Y-72823229D01*
X115496133Y-72823231D01*
X115540448Y-72889552D01*
X115606769Y-72933867D01*
X115636010Y-72939683D01*
X115665251Y-72945500D01*
X115665252Y-72945500D01*
X116159300Y-72945500D01*
X116207638Y-72963093D01*
X116233358Y-73007642D01*
X116234500Y-73020700D01*
X116234500Y-73955077D01*
X116216907Y-74003415D01*
X116205079Y-74014737D01*
X116097378Y-74097378D01*
X116009139Y-74212373D01*
X115968884Y-74309560D01*
X115953670Y-74346291D01*
X115934750Y-74490000D01*
X115953670Y-74633709D01*
X115953671Y-74633711D01*
X116009139Y-74767626D01*
X116097378Y-74882621D01*
X116212373Y-74970860D01*
X116212374Y-74970860D01*
X116212375Y-74970861D01*
X116346291Y-75026330D01*
X116490000Y-75045250D01*
X116633709Y-75026330D01*
X116767625Y-74970861D01*
X116882621Y-74882621D01*
X116970861Y-74767625D01*
X117026330Y-74633709D01*
X117045250Y-74490000D01*
X117026330Y-74346291D01*
X116970861Y-74212375D01*
X116970860Y-74212374D01*
X116970860Y-74212373D01*
X116882620Y-74097377D01*
X116864919Y-74083794D01*
X116837282Y-74040409D01*
X116835500Y-74024136D01*
X116835500Y-73020700D01*
X116853093Y-72972362D01*
X116897642Y-72946642D01*
X116910700Y-72945500D01*
X117404749Y-72945500D01*
X117424242Y-72941622D01*
X117463231Y-72933867D01*
X117529552Y-72889552D01*
X117573867Y-72823231D01*
X117585500Y-72764748D01*
X117585500Y-72075252D01*
X117573867Y-72016769D01*
X117529552Y-71950448D01*
X117463231Y-71906133D01*
X117463229Y-71906132D01*
X117404749Y-71894500D01*
X117404748Y-71894500D01*
X115665252Y-71894500D01*
X115665251Y-71894500D01*
X115606770Y-71906132D01*
X115606768Y-71906133D01*
X115540448Y-71950448D01*
X115496133Y-72016768D01*
X115496132Y-72016770D01*
X115484500Y-72075251D01*
X115484500Y-72764748D01*
X114590500Y-72764748D01*
X114590500Y-72145619D01*
X114608093Y-72097281D01*
X114612526Y-72092445D01*
X115232445Y-71472526D01*
X115279065Y-71450786D01*
X115285619Y-71450500D01*
X115413983Y-71450500D01*
X115462321Y-71468093D01*
X115487738Y-71511028D01*
X115496132Y-71553229D01*
X115496133Y-71553231D01*
X115540448Y-71619552D01*
X115606769Y-71663867D01*
X115636010Y-71669683D01*
X115665251Y-71675500D01*
X115665252Y-71675500D01*
X117404749Y-71675500D01*
X117424242Y-71671622D01*
X117463231Y-71663867D01*
X117529552Y-71619552D01*
X117573867Y-71553231D01*
X117585500Y-71494748D01*
X117585500Y-70805252D01*
X117573867Y-70746769D01*
X117529552Y-70680448D01*
X117463231Y-70636133D01*
X117463229Y-70636132D01*
X117404749Y-70624500D01*
X117404748Y-70624500D01*
X115665252Y-70624500D01*
X115665251Y-70624500D01*
X115606770Y-70636132D01*
X115606768Y-70636133D01*
X115540448Y-70680448D01*
X115496133Y-70746768D01*
X115496132Y-70746770D01*
X115487738Y-70788972D01*
X115461052Y-70832948D01*
X115413983Y-70849500D01*
X115090438Y-70849500D01*
X115052224Y-70859739D01*
X115014009Y-70869979D01*
X114945490Y-70909539D01*
X114945484Y-70909543D01*
X114312408Y-71542621D01*
X114105489Y-71749540D01*
X114077514Y-71777514D01*
X114049540Y-71805488D01*
X114049539Y-71805490D01*
X114009979Y-71874009D01*
X113989500Y-71950439D01*
X113989500Y-74114380D01*
X113971907Y-74162718D01*
X113967474Y-74167554D01*
X112121345Y-76013682D01*
X112074725Y-76035422D01*
X112058356Y-76035065D01*
X111980000Y-76024750D01*
X111836291Y-76043670D01*
X111836288Y-76043670D01*
X111836288Y-76043671D01*
X111702373Y-76099139D01*
X111587378Y-76187378D01*
X111499139Y-76302373D01*
X111443671Y-76436288D01*
X111443670Y-76436291D01*
X111424750Y-76580000D01*
X104710500Y-76580000D01*
X104710500Y-75030000D01*
X111534750Y-75030000D01*
X111553670Y-75173709D01*
X111553671Y-75173711D01*
X111609139Y-75307626D01*
X111697378Y-75422621D01*
X111812373Y-75510860D01*
X111812374Y-75510860D01*
X111812375Y-75510861D01*
X111946291Y-75566330D01*
X112090000Y-75585250D01*
X112233709Y-75566330D01*
X112367625Y-75510861D01*
X112482621Y-75422621D01*
X112570861Y-75307625D01*
X112626330Y-75173709D01*
X112645250Y-75030000D01*
X112626330Y-74886291D01*
X112570861Y-74752375D01*
X112570860Y-74752374D01*
X112570860Y-74752373D01*
X112482624Y-74637383D01*
X112482621Y-74637379D01*
X112419918Y-74589265D01*
X112392282Y-74545882D01*
X112390500Y-74529607D01*
X112390500Y-72595619D01*
X112408093Y-72547281D01*
X112412526Y-72542445D01*
X114752445Y-70202526D01*
X114799065Y-70180786D01*
X114805619Y-70180500D01*
X115413983Y-70180500D01*
X115462321Y-70198093D01*
X115487738Y-70241028D01*
X115496132Y-70283229D01*
X115496133Y-70283231D01*
X115540448Y-70349552D01*
X115606769Y-70393867D01*
X115636010Y-70399683D01*
X115665251Y-70405500D01*
X115665252Y-70405500D01*
X117404749Y-70405500D01*
X117424242Y-70401622D01*
X117463231Y-70393867D01*
X117529552Y-70349552D01*
X117573867Y-70283231D01*
X117585500Y-70224748D01*
X117585500Y-69535252D01*
X117573867Y-69476769D01*
X117529552Y-69410448D01*
X117463231Y-69366133D01*
X117463229Y-69366132D01*
X117404749Y-69354500D01*
X117404748Y-69354500D01*
X115665252Y-69354500D01*
X115665251Y-69354500D01*
X115606770Y-69366132D01*
X115606768Y-69366133D01*
X115540448Y-69410448D01*
X115496133Y-69476768D01*
X115496132Y-69476770D01*
X115487738Y-69518972D01*
X115461052Y-69562948D01*
X115413983Y-69579500D01*
X114689562Y-69579500D01*
X114610438Y-69579500D01*
X114534012Y-69599978D01*
X114534004Y-69599981D01*
X114465488Y-69639539D01*
X112472052Y-71632975D01*
X112455086Y-71640886D01*
X112453225Y-71649282D01*
X112442976Y-71662052D01*
X112299541Y-71805488D01*
X111905489Y-72199540D01*
X111877514Y-72227514D01*
X111849540Y-72255488D01*
X111849539Y-72255490D01*
X111809979Y-72324009D01*
X111789500Y-72400439D01*
X111789500Y-74529607D01*
X111771907Y-74577945D01*
X111760084Y-74589262D01*
X111697379Y-74637379D01*
X111697377Y-74637381D01*
X111697375Y-74637383D01*
X111609139Y-74752373D01*
X111555190Y-74882621D01*
X111553670Y-74886291D01*
X111534750Y-75030000D01*
X104710500Y-75030000D01*
X104710500Y-72670000D01*
X107885000Y-72670000D01*
X107885000Y-72792831D01*
X107891401Y-72852374D01*
X107891402Y-72852377D01*
X107941648Y-72987090D01*
X107941649Y-72987092D01*
X108027810Y-73102189D01*
X108142907Y-73188350D01*
X108142909Y-73188351D01*
X108277622Y-73238597D01*
X108277625Y-73238598D01*
X108337168Y-73244999D01*
X108337180Y-73245000D01*
X108985000Y-73245000D01*
X108985000Y-72670000D01*
X109485000Y-72670000D01*
X109485000Y-73245000D01*
X110132820Y-73245000D01*
X110132831Y-73244999D01*
X110192374Y-73238598D01*
X110192377Y-73238597D01*
X110327090Y-73188351D01*
X110327092Y-73188350D01*
X110442189Y-73102189D01*
X110528350Y-72987092D01*
X110528351Y-72987090D01*
X110578597Y-72852377D01*
X110578598Y-72852374D01*
X110584999Y-72792831D01*
X110585000Y-72792820D01*
X110585000Y-72670000D01*
X109485000Y-72670000D01*
X108985000Y-72670000D01*
X107885000Y-72670000D01*
X104710500Y-72670000D01*
X104710500Y-72170000D01*
X107885000Y-72170000D01*
X110585000Y-72170000D01*
X110585000Y-72047180D01*
X110584999Y-72047168D01*
X110578598Y-71987625D01*
X110578597Y-71987622D01*
X110528351Y-71852909D01*
X110528350Y-71852907D01*
X110442189Y-71737810D01*
X110327092Y-71651649D01*
X110327088Y-71651647D01*
X110318699Y-71648518D01*
X110279557Y-71615142D01*
X110271026Y-71564414D01*
X110272906Y-71558059D01*
X110273866Y-71553232D01*
X110273867Y-71553231D01*
X110282262Y-71511028D01*
X110308948Y-71467052D01*
X110356017Y-71450500D01*
X111459607Y-71450500D01*
X111507945Y-71468093D01*
X111519267Y-71479921D01*
X111567378Y-71542621D01*
X111682373Y-71630860D01*
X111682374Y-71630860D01*
X111682375Y-71630861D01*
X111816291Y-71686330D01*
X111960000Y-71705250D01*
X112103709Y-71686330D01*
X112237625Y-71630861D01*
X112344025Y-71549216D01*
X112351410Y-71546888D01*
X112359210Y-71534033D01*
X112440861Y-71427625D01*
X112496330Y-71293709D01*
X112515250Y-71150000D01*
X112496330Y-71006291D01*
X112440861Y-70872375D01*
X112440860Y-70872374D01*
X112440860Y-70872373D01*
X112352621Y-70757378D01*
X112237626Y-70669139D01*
X112103711Y-70613671D01*
X112103709Y-70613670D01*
X111960000Y-70594750D01*
X111816291Y-70613670D01*
X111816288Y-70613670D01*
X111816288Y-70613671D01*
X111682373Y-70669139D01*
X111567378Y-70757378D01*
X111519267Y-70820079D01*
X111475883Y-70847718D01*
X111459607Y-70849500D01*
X110356017Y-70849500D01*
X110307679Y-70831907D01*
X110282262Y-70788972D01*
X110273867Y-70746770D01*
X110273866Y-70746768D01*
X110229552Y-70680448D01*
X110163231Y-70636133D01*
X110163229Y-70636132D01*
X110104749Y-70624500D01*
X110104748Y-70624500D01*
X108365252Y-70624500D01*
X108365251Y-70624500D01*
X108306770Y-70636132D01*
X108306768Y-70636133D01*
X108240448Y-70680448D01*
X108196133Y-70746768D01*
X108196132Y-70746770D01*
X108184500Y-70805251D01*
X108184500Y-71494748D01*
X108197578Y-71560495D01*
X108195008Y-71561006D01*
X108196741Y-71600669D01*
X108165428Y-71641480D01*
X108151306Y-71648514D01*
X108142918Y-71651643D01*
X108142907Y-71651649D01*
X108027810Y-71737810D01*
X107941649Y-71852907D01*
X107941648Y-71852909D01*
X107891402Y-71987622D01*
X107891401Y-71987625D01*
X107885000Y-72047168D01*
X107885000Y-72170000D01*
X104710500Y-72170000D01*
X104710500Y-69430000D01*
X106344750Y-69430000D01*
X106363670Y-69573709D01*
X106363671Y-69573711D01*
X106419139Y-69707626D01*
X106507378Y-69822621D01*
X106622373Y-69910860D01*
X106622374Y-69910860D01*
X106622375Y-69910861D01*
X106756291Y-69966330D01*
X106900000Y-69985250D01*
X106978357Y-69974933D01*
X107028575Y-69986066D01*
X107041345Y-69996316D01*
X107109540Y-70064511D01*
X107165489Y-70120460D01*
X107234011Y-70160021D01*
X107310438Y-70180500D01*
X107389562Y-70180500D01*
X108113983Y-70180500D01*
X108162321Y-70198093D01*
X108187738Y-70241028D01*
X108196132Y-70283229D01*
X108196133Y-70283231D01*
X108240448Y-70349552D01*
X108306769Y-70393867D01*
X108336010Y-70399683D01*
X108365251Y-70405500D01*
X108365252Y-70405500D01*
X110104749Y-70405500D01*
X110124242Y-70401622D01*
X110163231Y-70393867D01*
X110229552Y-70349552D01*
X110273867Y-70283231D01*
X110285500Y-70224748D01*
X110285500Y-69535252D01*
X110273867Y-69476769D01*
X110229552Y-69410448D01*
X110163231Y-69366133D01*
X110163229Y-69366132D01*
X110104749Y-69354500D01*
X110104748Y-69354500D01*
X108365252Y-69354500D01*
X108365251Y-69354500D01*
X108306770Y-69366132D01*
X108306768Y-69366133D01*
X108240448Y-69410448D01*
X108196133Y-69476768D01*
X108196132Y-69476770D01*
X108187738Y-69518972D01*
X108161052Y-69562948D01*
X108113983Y-69579500D01*
X107521317Y-69579500D01*
X107472979Y-69561907D01*
X107447259Y-69517358D01*
X107446760Y-69494484D01*
X107449092Y-69476769D01*
X107455250Y-69430000D01*
X107436330Y-69286291D01*
X107380861Y-69152375D01*
X107380860Y-69152374D01*
X107380860Y-69152373D01*
X107292621Y-69037378D01*
X107184936Y-68954748D01*
X108184500Y-68954748D01*
X108196132Y-69013229D01*
X108196133Y-69013231D01*
X108240448Y-69079552D01*
X108306769Y-69123867D01*
X108336010Y-69129683D01*
X108365251Y-69135500D01*
X108365252Y-69135500D01*
X110104749Y-69135500D01*
X110124242Y-69131622D01*
X110163231Y-69123867D01*
X110229552Y-69079552D01*
X110273867Y-69013231D01*
X110285500Y-68954748D01*
X115484500Y-68954748D01*
X115496132Y-69013229D01*
X115496133Y-69013231D01*
X115540448Y-69079552D01*
X115606769Y-69123867D01*
X115636010Y-69129683D01*
X115665251Y-69135500D01*
X115665252Y-69135500D01*
X117404749Y-69135500D01*
X117424242Y-69131622D01*
X117463231Y-69123867D01*
X117529552Y-69079552D01*
X117573867Y-69013231D01*
X117582262Y-68971028D01*
X117608948Y-68927052D01*
X117656017Y-68910500D01*
X118209560Y-68910500D01*
X118209562Y-68910500D01*
X118285989Y-68890021D01*
X118354511Y-68850460D01*
X118410460Y-68794511D01*
X119020460Y-68184511D01*
X119060021Y-68115989D01*
X119080500Y-68039562D01*
X119080500Y-66952031D01*
X119098093Y-66903693D01*
X119142642Y-66877973D01*
X119143741Y-66877789D01*
X119163126Y-66874719D01*
X119283220Y-66813528D01*
X119378528Y-66718220D01*
X119439719Y-66598126D01*
X119455500Y-66498488D01*
X119455500Y-65981512D01*
X119439719Y-65881874D01*
X119378528Y-65761780D01*
X119378527Y-65761779D01*
X119378526Y-65761777D01*
X119315408Y-65698659D01*
X119293668Y-65652039D01*
X119306982Y-65602352D01*
X119334839Y-65578979D01*
X119334757Y-65578846D01*
X119335671Y-65578281D01*
X119336811Y-65577326D01*
X119338490Y-65576543D01*
X119482728Y-65487575D01*
X119482732Y-65487572D01*
X119602572Y-65367732D01*
X119602575Y-65367728D01*
X119691545Y-65223486D01*
X119744855Y-65062607D01*
X119755000Y-64963308D01*
X119755000Y-64940000D01*
X117805001Y-64940000D01*
X117805001Y-64963309D01*
X117815145Y-65062610D01*
X117868454Y-65223486D01*
X117957424Y-65367728D01*
X117957427Y-65367732D01*
X118077267Y-65487572D01*
X118077271Y-65487575D01*
X118221512Y-65576545D01*
X118223192Y-65577328D01*
X118223852Y-65577988D01*
X118225243Y-65578846D01*
X118225039Y-65579175D01*
X118259569Y-65613698D01*
X118264056Y-65664942D01*
X118244592Y-65698659D01*
X118181472Y-65761779D01*
X118120281Y-65881873D01*
X118118454Y-65887498D01*
X118115586Y-65886566D01*
X118095538Y-65921676D01*
X118047285Y-65939499D01*
X118046927Y-65939500D01*
X117054771Y-65939500D01*
X117006433Y-65921907D01*
X116985296Y-65893079D01*
X116980864Y-65882379D01*
X116980859Y-65882372D01*
X116892621Y-65767378D01*
X116777626Y-65679139D01*
X116643711Y-65623671D01*
X116643709Y-65623670D01*
X116500000Y-65604750D01*
X116356291Y-65623670D01*
X116356288Y-65623670D01*
X116356288Y-65623671D01*
X116222373Y-65679139D01*
X116107378Y-65767378D01*
X116019139Y-65882373D01*
X115978074Y-65981516D01*
X115963670Y-66016291D01*
X115944750Y-66160000D01*
X115963670Y-66303709D01*
X115963671Y-66303711D01*
X116019139Y-66437626D01*
X116107378Y-66552621D01*
X116222373Y-66640860D01*
X116222374Y-66640860D01*
X116222375Y-66640861D01*
X116356291Y-66696330D01*
X116500000Y-66715250D01*
X116643709Y-66696330D01*
X116777625Y-66640861D01*
X116839463Y-66593411D01*
X116888166Y-66556040D01*
X116933945Y-66540500D01*
X118046927Y-66540500D01*
X118095265Y-66558093D01*
X118115655Y-66593411D01*
X118118454Y-66592502D01*
X118120281Y-66598126D01*
X118181473Y-66718222D01*
X118276777Y-66813526D01*
X118276779Y-66813527D01*
X118276780Y-66813528D01*
X118396874Y-66874719D01*
X118416065Y-66877758D01*
X118461052Y-66902693D01*
X118479488Y-66950715D01*
X118479500Y-66952031D01*
X118479500Y-67844381D01*
X118461907Y-67892719D01*
X118457474Y-67897555D01*
X118067555Y-68287474D01*
X118020935Y-68309214D01*
X118014381Y-68309500D01*
X117656017Y-68309500D01*
X117607679Y-68291907D01*
X117582262Y-68248972D01*
X117573867Y-68206770D01*
X117573866Y-68206768D01*
X117558993Y-68184509D01*
X117529552Y-68140448D01*
X117463231Y-68096133D01*
X117463229Y-68096132D01*
X117404749Y-68084500D01*
X117404748Y-68084500D01*
X115665252Y-68084500D01*
X115665251Y-68084500D01*
X115606770Y-68096132D01*
X115606768Y-68096133D01*
X115540448Y-68140448D01*
X115496133Y-68206768D01*
X115496132Y-68206770D01*
X115484500Y-68265251D01*
X115484500Y-68954748D01*
X110285500Y-68954748D01*
X110285500Y-68265252D01*
X110273867Y-68206769D01*
X110229552Y-68140448D01*
X110163231Y-68096133D01*
X110163229Y-68096132D01*
X110104749Y-68084500D01*
X110104748Y-68084500D01*
X108365252Y-68084500D01*
X108365251Y-68084500D01*
X108306770Y-68096132D01*
X108306768Y-68096133D01*
X108240448Y-68140448D01*
X108196133Y-68206768D01*
X108196132Y-68206770D01*
X108184500Y-68265251D01*
X108184500Y-68954748D01*
X107184936Y-68954748D01*
X107177626Y-68949139D01*
X107043711Y-68893671D01*
X107043709Y-68893670D01*
X106900000Y-68874750D01*
X106756291Y-68893670D01*
X106756288Y-68893670D01*
X106756288Y-68893671D01*
X106622373Y-68949139D01*
X106507378Y-69037378D01*
X106419139Y-69152373D01*
X106363671Y-69286288D01*
X106363670Y-69286291D01*
X106344750Y-69430000D01*
X104710500Y-69430000D01*
X104710500Y-64589562D01*
X105364500Y-64589562D01*
X105365957Y-64594998D01*
X105384979Y-64665988D01*
X105384979Y-64665990D01*
X105410135Y-64709561D01*
X105410137Y-64709563D01*
X105424539Y-64734509D01*
X105424543Y-64734515D01*
X106224540Y-65534511D01*
X106280489Y-65590460D01*
X106349011Y-65630021D01*
X106425438Y-65650500D01*
X106425440Y-65650500D01*
X108144560Y-65650500D01*
X108144562Y-65650500D01*
X108220989Y-65630021D01*
X108289511Y-65590460D01*
X108345460Y-65534511D01*
X109025460Y-64854511D01*
X109039599Y-64830021D01*
X109065021Y-64785989D01*
X109085500Y-64709562D01*
X109085500Y-64255619D01*
X109103093Y-64207281D01*
X109107514Y-64202456D01*
X109165222Y-64144748D01*
X109211839Y-64123010D01*
X109261526Y-64136323D01*
X109271568Y-64144750D01*
X109346014Y-64219196D01*
X109346015Y-64219196D01*
X109346017Y-64219198D01*
X109451107Y-64270573D01*
X109501036Y-64277847D01*
X109519231Y-64280499D01*
X109519236Y-64280499D01*
X109519240Y-64280500D01*
X109519242Y-64280500D01*
X110610758Y-64280500D01*
X110610760Y-64280500D01*
X110610764Y-64280499D01*
X110610768Y-64280499D01*
X110620446Y-64279088D01*
X110678893Y-64270573D01*
X110783983Y-64219198D01*
X110866698Y-64136483D01*
X110918073Y-64031393D01*
X110927999Y-63963268D01*
X111477000Y-63963268D01*
X111483468Y-64007652D01*
X111486927Y-64031393D01*
X111531715Y-64123010D01*
X111538303Y-64136485D01*
X111621014Y-64219196D01*
X111621015Y-64219196D01*
X111621017Y-64219198D01*
X111726107Y-64270573D01*
X111776036Y-64277847D01*
X111794231Y-64280499D01*
X111794236Y-64280499D01*
X111794240Y-64280500D01*
X111794242Y-64280500D01*
X112885758Y-64280500D01*
X112885760Y-64280500D01*
X112885764Y-64280499D01*
X112885768Y-64280499D01*
X112895446Y-64279088D01*
X112953893Y-64270573D01*
X113058983Y-64219198D01*
X113141698Y-64136483D01*
X113193073Y-64031393D01*
X113203000Y-63963260D01*
X113203000Y-63827500D01*
X113680001Y-63827500D01*
X113680001Y-63926641D01*
X113690320Y-64027655D01*
X113744548Y-64191305D01*
X113835052Y-64338034D01*
X113835055Y-64338038D01*
X113956961Y-64459944D01*
X113956965Y-64459947D01*
X114103695Y-64550451D01*
X114103694Y-64550451D01*
X114267347Y-64604679D01*
X114267349Y-64604680D01*
X114368358Y-64614999D01*
X114404999Y-64614998D01*
X114405000Y-64614998D01*
X114405000Y-63827500D01*
X114905000Y-63827500D01*
X114905000Y-64614999D01*
X114941641Y-64614999D01*
X115042655Y-64604679D01*
X115206305Y-64550451D01*
X115353034Y-64459947D01*
X115353038Y-64459944D01*
X115372982Y-64440000D01*
X117805000Y-64440000D01*
X118530000Y-64440000D01*
X118530000Y-63740000D01*
X119030000Y-63740000D01*
X119030000Y-64440000D01*
X119754999Y-64440000D01*
X119754999Y-64416690D01*
X119744854Y-64317389D01*
X119691545Y-64156513D01*
X119602575Y-64012271D01*
X119602572Y-64012267D01*
X119482732Y-63892427D01*
X119482728Y-63892424D01*
X119338485Y-63803454D01*
X119338486Y-63803454D01*
X119177607Y-63750144D01*
X119177608Y-63750144D01*
X119078309Y-63740000D01*
X119030000Y-63740000D01*
X118530000Y-63740000D01*
X118530000Y-63739999D01*
X118481691Y-63740000D01*
X118382389Y-63750145D01*
X118221513Y-63803454D01*
X118077271Y-63892424D01*
X118077267Y-63892427D01*
X117957427Y-64012267D01*
X117957424Y-64012271D01*
X117868454Y-64156513D01*
X117815144Y-64317392D01*
X117805000Y-64416691D01*
X117805000Y-64440000D01*
X115372982Y-64440000D01*
X115474944Y-64338038D01*
X115474947Y-64338034D01*
X115565451Y-64191305D01*
X115619679Y-64027652D01*
X115619680Y-64027650D01*
X115630000Y-63926640D01*
X115630000Y-63827500D01*
X114905000Y-63827500D01*
X114405000Y-63827500D01*
X113680001Y-63827500D01*
X113203000Y-63827500D01*
X113203000Y-63596740D01*
X113193073Y-63528607D01*
X113141698Y-63423517D01*
X113141696Y-63423515D01*
X113141696Y-63423514D01*
X113058985Y-63340803D01*
X112990862Y-63307500D01*
X112953893Y-63289427D01*
X112885768Y-63279500D01*
X112885760Y-63279500D01*
X111794240Y-63279500D01*
X111794231Y-63279500D01*
X111726106Y-63289427D01*
X111621014Y-63340803D01*
X111538303Y-63423514D01*
X111486927Y-63528606D01*
X111477000Y-63596731D01*
X111477000Y-63963268D01*
X110927999Y-63963268D01*
X110928000Y-63963260D01*
X110928000Y-63596740D01*
X110926033Y-63583242D01*
X110936471Y-63532874D01*
X110962170Y-63507668D01*
X110979056Y-63497682D01*
X110979061Y-63497678D01*
X111095176Y-63381563D01*
X111095182Y-63381556D01*
X111178781Y-63240197D01*
X111224599Y-63082491D01*
X111224600Y-63082486D01*
X111224796Y-63080000D01*
X108905204Y-63080000D01*
X108905399Y-63082486D01*
X108905400Y-63082491D01*
X108951218Y-63240197D01*
X109037226Y-63385628D01*
X109035708Y-63386525D01*
X109049339Y-63428987D01*
X109029901Y-63476612D01*
X108993659Y-63498733D01*
X108989016Y-63499976D01*
X108989009Y-63499979D01*
X108939427Y-63528606D01*
X108920490Y-63539539D01*
X108920488Y-63539540D01*
X108760489Y-63699540D01*
X108600489Y-63859540D01*
X108572514Y-63887514D01*
X108544540Y-63915488D01*
X108544539Y-63915490D01*
X108504979Y-63984009D01*
X108484500Y-64060439D01*
X108484500Y-64514381D01*
X108466907Y-64562719D01*
X108462474Y-64567555D01*
X108002555Y-65027474D01*
X107955935Y-65049214D01*
X107949381Y-65049500D01*
X106620619Y-65049500D01*
X106572281Y-65031907D01*
X106567445Y-65027474D01*
X105987526Y-64447555D01*
X105965786Y-64400935D01*
X105965500Y-64394381D01*
X105965500Y-63807500D01*
X106360001Y-63807500D01*
X106360001Y-63906641D01*
X106370320Y-64007655D01*
X106424548Y-64171305D01*
X106515052Y-64318034D01*
X106515055Y-64318038D01*
X106636961Y-64439944D01*
X106636965Y-64439947D01*
X106783695Y-64530451D01*
X106783694Y-64530451D01*
X106947347Y-64584679D01*
X106947349Y-64584680D01*
X107048358Y-64594999D01*
X107084999Y-64594998D01*
X107085000Y-64594998D01*
X107085000Y-63807500D01*
X107585000Y-63807500D01*
X107585000Y-64594999D01*
X107621641Y-64594999D01*
X107722655Y-64584679D01*
X107886305Y-64530451D01*
X108033034Y-64439947D01*
X108033038Y-64439944D01*
X108154944Y-64318038D01*
X108154947Y-64318034D01*
X108245451Y-64171305D01*
X108299679Y-64007652D01*
X108299680Y-64007650D01*
X108310000Y-63906640D01*
X108310000Y-63807500D01*
X107585000Y-63807500D01*
X107085000Y-63807500D01*
X106360001Y-63807500D01*
X105965500Y-63807500D01*
X105965500Y-62715619D01*
X105983093Y-62667281D01*
X105987526Y-62662445D01*
X106407445Y-62242526D01*
X106454065Y-62220786D01*
X106460619Y-62220500D01*
X106610895Y-62220500D01*
X106659233Y-62238093D01*
X106681875Y-62270863D01*
X106705882Y-62339472D01*
X106705884Y-62339475D01*
X106784289Y-62445711D01*
X106797494Y-62455457D01*
X106825939Y-62498316D01*
X106820180Y-62549432D01*
X106787090Y-62581707D01*
X106787424Y-62582248D01*
X106785011Y-62583736D01*
X106784624Y-62584114D01*
X106783700Y-62584544D01*
X106636965Y-62675052D01*
X106636961Y-62675055D01*
X106515055Y-62796961D01*
X106515052Y-62796965D01*
X106424548Y-62943694D01*
X106370320Y-63107347D01*
X106370319Y-63107349D01*
X106360000Y-63208359D01*
X106360000Y-63307500D01*
X108309999Y-63307500D01*
X108309999Y-63208358D01*
X108299679Y-63107344D01*
X108245451Y-62943694D01*
X108154947Y-62796965D01*
X108154944Y-62796961D01*
X108033038Y-62675055D01*
X108033034Y-62675052D01*
X107886298Y-62584544D01*
X107885375Y-62584114D01*
X107885012Y-62583751D01*
X107882575Y-62582248D01*
X107882931Y-62581670D01*
X107849004Y-62547739D01*
X107844524Y-62496494D01*
X107872503Y-62455458D01*
X107885711Y-62445711D01*
X107964116Y-62339475D01*
X107984003Y-62282642D01*
X107988125Y-62270863D01*
X108020696Y-62231048D01*
X108059105Y-62220500D01*
X108937246Y-62220500D01*
X108985584Y-62238093D01*
X109011304Y-62282642D01*
X109002371Y-62333300D01*
X109001974Y-62333980D01*
X108951218Y-62419802D01*
X108905400Y-62577508D01*
X108905399Y-62577513D01*
X108905203Y-62579999D01*
X108905204Y-62580000D01*
X111224796Y-62580000D01*
X111224796Y-62579999D01*
X111224600Y-62577513D01*
X111224599Y-62577508D01*
X111178781Y-62419802D01*
X111095182Y-62278443D01*
X111095176Y-62278436D01*
X110979063Y-62162323D01*
X110979056Y-62162318D01*
X110962165Y-62152328D01*
X110929516Y-62112578D01*
X110926033Y-62076757D01*
X110927999Y-62063268D01*
X111477000Y-62063268D01*
X111486927Y-62131393D01*
X111538303Y-62236485D01*
X111621014Y-62319196D01*
X111621015Y-62319196D01*
X111621017Y-62319198D01*
X111726107Y-62370573D01*
X111776036Y-62377847D01*
X111794231Y-62380499D01*
X111794236Y-62380499D01*
X111794240Y-62380500D01*
X111794242Y-62380500D01*
X112885758Y-62380500D01*
X112885760Y-62380500D01*
X112885764Y-62380499D01*
X112885768Y-62380499D01*
X112895446Y-62379088D01*
X112953893Y-62370573D01*
X113058983Y-62319198D01*
X113141698Y-62236483D01*
X113148450Y-62222670D01*
X113185485Y-62186973D01*
X113216008Y-62180500D01*
X113909901Y-62180500D01*
X113958239Y-62198093D01*
X113980881Y-62230863D01*
X113982274Y-62234846D01*
X113982275Y-62234849D01*
X113998999Y-62282642D01*
X114025882Y-62359472D01*
X114025884Y-62359475D01*
X114104289Y-62465711D01*
X114117494Y-62475457D01*
X114145939Y-62518316D01*
X114140180Y-62569432D01*
X114107090Y-62601707D01*
X114107424Y-62602248D01*
X114105011Y-62603736D01*
X114104624Y-62604114D01*
X114103700Y-62604544D01*
X113956965Y-62695052D01*
X113956961Y-62695055D01*
X113835055Y-62816961D01*
X113835052Y-62816965D01*
X113744548Y-62963694D01*
X113690320Y-63127347D01*
X113690319Y-63127349D01*
X113680000Y-63228359D01*
X113680000Y-63327500D01*
X115629999Y-63327500D01*
X115629999Y-63228358D01*
X115619679Y-63127344D01*
X115565451Y-62963694D01*
X115474947Y-62816965D01*
X115474944Y-62816961D01*
X115353038Y-62695055D01*
X115353034Y-62695052D01*
X115206298Y-62604544D01*
X115205375Y-62604114D01*
X115205012Y-62603751D01*
X115202575Y-62602248D01*
X115202931Y-62601670D01*
X115169004Y-62567739D01*
X115164524Y-62516494D01*
X115192503Y-62475458D01*
X115205711Y-62465711D01*
X115284116Y-62359475D01*
X115327725Y-62234849D01*
X115330499Y-62205263D01*
X115330500Y-62205262D01*
X115330500Y-61499738D01*
X115330499Y-61499735D01*
X115327725Y-61470151D01*
X115284116Y-61345525D01*
X115205711Y-61239289D01*
X115146544Y-61195622D01*
X115118100Y-61152763D01*
X115123859Y-61101647D01*
X115138023Y-61081946D01*
X115273654Y-60946315D01*
X115320273Y-60924576D01*
X115336637Y-60924932D01*
X115415000Y-60935250D01*
X115558709Y-60916330D01*
X115692625Y-60860861D01*
X115807621Y-60772621D01*
X115895861Y-60657625D01*
X115951330Y-60523709D01*
X115970250Y-60380000D01*
X115951330Y-60236291D01*
X115895861Y-60102375D01*
X115895860Y-60102374D01*
X115895860Y-60102373D01*
X115807621Y-59987378D01*
X115692626Y-59899139D01*
X115558711Y-59843671D01*
X115558709Y-59843670D01*
X115415000Y-59824750D01*
X115271291Y-59843670D01*
X115271288Y-59843670D01*
X115271288Y-59843671D01*
X115137373Y-59899139D01*
X115022378Y-59987378D01*
X114934139Y-60102373D01*
X114879909Y-60233300D01*
X114878670Y-60236291D01*
X114863760Y-60349539D01*
X114859750Y-60380000D01*
X114870065Y-60458356D01*
X114858931Y-60508577D01*
X114848682Y-60521345D01*
X114470489Y-60899540D01*
X114453701Y-60916328D01*
X114414540Y-60955488D01*
X114414539Y-60955490D01*
X114374978Y-61024010D01*
X114361809Y-61073157D01*
X114332304Y-61115293D01*
X114314010Y-61124672D01*
X114210526Y-61160883D01*
X114210524Y-61160884D01*
X114104289Y-61239289D01*
X114025884Y-61345524D01*
X114025882Y-61345527D01*
X113982276Y-61470148D01*
X113982274Y-61470157D01*
X113979500Y-61499735D01*
X113979500Y-61504300D01*
X113961907Y-61552638D01*
X113917358Y-61578358D01*
X113904300Y-61579500D01*
X113216008Y-61579500D01*
X113167670Y-61561907D01*
X113148450Y-61537330D01*
X113141698Y-61523517D01*
X113141695Y-61523514D01*
X113141695Y-61523513D01*
X113058985Y-61440803D01*
X113058983Y-61440802D01*
X112953893Y-61389427D01*
X112885768Y-61379500D01*
X112885760Y-61379500D01*
X111794240Y-61379500D01*
X111794231Y-61379500D01*
X111726106Y-61389427D01*
X111621014Y-61440803D01*
X111538303Y-61523514D01*
X111486927Y-61628606D01*
X111477000Y-61696731D01*
X111477000Y-62063268D01*
X110927999Y-62063268D01*
X110928000Y-62063260D01*
X110928000Y-61696740D01*
X110918073Y-61628607D01*
X110866698Y-61523517D01*
X110866696Y-61523515D01*
X110866696Y-61523514D01*
X110783985Y-61440803D01*
X110783983Y-61440802D01*
X110678893Y-61389427D01*
X110610768Y-61379500D01*
X110610760Y-61379500D01*
X109519240Y-61379500D01*
X109519231Y-61379500D01*
X109451106Y-61389427D01*
X109346014Y-61440803D01*
X109263301Y-61523516D01*
X109236996Y-61577327D01*
X109199961Y-61613027D01*
X109169437Y-61619500D01*
X108085700Y-61619500D01*
X108037362Y-61601907D01*
X108011642Y-61557358D01*
X108010500Y-61544300D01*
X108010500Y-61479738D01*
X108010499Y-61479735D01*
X108009600Y-61470148D01*
X108007725Y-61450151D01*
X107964116Y-61325525D01*
X107885711Y-61219289D01*
X107885709Y-61219288D01*
X107885709Y-61219287D01*
X107885708Y-61219286D01*
X107881206Y-61215964D01*
X107852761Y-61173105D01*
X107858520Y-61121988D01*
X107872687Y-61102283D01*
X107950960Y-61024011D01*
X108062446Y-60912525D01*
X108109066Y-60890786D01*
X108115620Y-60890500D01*
X108219607Y-60890500D01*
X108267945Y-60908093D01*
X108279267Y-60919921D01*
X108327378Y-60982621D01*
X108442373Y-61070860D01*
X108442374Y-61070860D01*
X108442375Y-61070861D01*
X108576291Y-61126330D01*
X108720000Y-61145250D01*
X108863709Y-61126330D01*
X108997625Y-61070861D01*
X109112621Y-60982621D01*
X109200861Y-60867625D01*
X109256330Y-60733709D01*
X109275250Y-60590000D01*
X109256330Y-60446291D01*
X109200861Y-60312375D01*
X109200860Y-60312374D01*
X109200860Y-60312373D01*
X109146461Y-60241479D01*
X109130993Y-60192420D01*
X109150678Y-60144896D01*
X109196305Y-60121143D01*
X109206121Y-60120500D01*
X110629560Y-60120500D01*
X110629562Y-60120500D01*
X110705989Y-60100021D01*
X110774511Y-60060460D01*
X110830460Y-60004511D01*
X111410460Y-59424511D01*
X111430385Y-59390000D01*
X111450021Y-59355989D01*
X111470500Y-59279562D01*
X111470500Y-58351007D01*
X111488093Y-58302669D01*
X111512670Y-58283450D01*
X111526483Y-58276698D01*
X111609198Y-58193983D01*
X111660573Y-58088893D01*
X111670500Y-58020760D01*
X111670500Y-57850700D01*
X111688093Y-57802362D01*
X111732642Y-57776642D01*
X111745700Y-57775500D01*
X112607968Y-57775500D01*
X112656306Y-57793093D01*
X112682026Y-57837642D01*
X112682242Y-57838937D01*
X112685280Y-57858123D01*
X112685282Y-57858129D01*
X112746473Y-57978222D01*
X112841777Y-58073526D01*
X112841779Y-58073527D01*
X112841780Y-58073528D01*
X112961874Y-58134719D01*
X112961878Y-58134721D01*
X112967504Y-58136549D01*
X112966468Y-58139735D01*
X113000505Y-58158112D01*
X113019469Y-58205929D01*
X113019500Y-58208073D01*
X113019500Y-58759651D01*
X113001907Y-58807989D01*
X112957358Y-58833709D01*
X112954116Y-58834208D01*
X112931679Y-58837161D01*
X112806291Y-58853670D01*
X112806288Y-58853670D01*
X112806288Y-58853671D01*
X112672373Y-58909139D01*
X112557378Y-58997378D01*
X112469139Y-59112373D01*
X112413671Y-59246288D01*
X112413670Y-59246291D01*
X112394750Y-59390000D01*
X112413670Y-59533709D01*
X112413671Y-59533711D01*
X112469139Y-59667626D01*
X112557378Y-59782621D01*
X112672373Y-59870860D01*
X112672374Y-59870860D01*
X112672375Y-59870861D01*
X112806291Y-59926330D01*
X112950000Y-59945250D01*
X113093709Y-59926330D01*
X113227625Y-59870861D01*
X113342621Y-59782621D01*
X113430861Y-59667625D01*
X113486330Y-59533709D01*
X113505250Y-59390000D01*
X113494933Y-59311641D01*
X113506067Y-59261424D01*
X113516310Y-59248659D01*
X113560460Y-59204511D01*
X113568850Y-59189979D01*
X113600021Y-59135989D01*
X113620500Y-59059562D01*
X113620500Y-58208073D01*
X113638093Y-58159735D01*
X113673405Y-58139347D01*
X113672496Y-58136549D01*
X113678121Y-58134721D01*
X113678124Y-58134719D01*
X113678126Y-58134719D01*
X113798220Y-58073528D01*
X113861340Y-58010407D01*
X113907959Y-57988668D01*
X113957646Y-58001981D01*
X113981022Y-58029838D01*
X113981154Y-58029757D01*
X113981709Y-58030657D01*
X113982669Y-58031801D01*
X113983456Y-58033490D01*
X114072424Y-58177728D01*
X114072427Y-58177732D01*
X114192267Y-58297572D01*
X114192271Y-58297575D01*
X114336514Y-58386545D01*
X114336513Y-58386545D01*
X114497392Y-58439855D01*
X114497391Y-58439855D01*
X114596690Y-58449999D01*
X114619999Y-58449999D01*
X114620000Y-58449998D01*
X114620000Y-57725000D01*
X115120000Y-57725000D01*
X115120000Y-58449999D01*
X115143309Y-58449999D01*
X115242610Y-58439854D01*
X115403486Y-58386545D01*
X115547728Y-58297575D01*
X115547732Y-58297572D01*
X115667572Y-58177732D01*
X115667575Y-58177728D01*
X115756545Y-58033486D01*
X115809855Y-57872607D01*
X115820000Y-57773308D01*
X115820000Y-57725000D01*
X115120000Y-57725000D01*
X114620000Y-57725000D01*
X114620000Y-57460000D01*
X117944417Y-57460000D01*
X117964699Y-57665932D01*
X118024765Y-57863947D01*
X118024770Y-57863959D01*
X118122312Y-58046445D01*
X118122315Y-58046450D01*
X118253590Y-58206410D01*
X118413550Y-58337685D01*
X118477655Y-58371950D01*
X118509657Y-58389056D01*
X118596046Y-58435232D01*
X118596050Y-58435233D01*
X118596052Y-58435234D01*
X118644727Y-58449999D01*
X118794066Y-58495300D01*
X119000000Y-58515583D01*
X119205934Y-58495300D01*
X119403954Y-58435232D01*
X119586450Y-58337685D01*
X119746410Y-58206410D01*
X119877685Y-58046450D01*
X119975232Y-57863954D01*
X120035300Y-57665934D01*
X120055583Y-57460000D01*
X120035300Y-57254066D01*
X119975232Y-57056046D01*
X119930190Y-56971780D01*
X119877687Y-56873554D01*
X119877684Y-56873549D01*
X119867473Y-56861107D01*
X119746410Y-56713590D01*
X119586450Y-56582315D01*
X119586445Y-56582312D01*
X119403959Y-56484770D01*
X119403947Y-56484765D01*
X119205932Y-56424699D01*
X119000000Y-56404417D01*
X118794067Y-56424699D01*
X118596052Y-56484765D01*
X118596040Y-56484770D01*
X118413554Y-56582312D01*
X118413549Y-56582315D01*
X118253590Y-56713590D01*
X118122315Y-56873549D01*
X118122312Y-56873554D01*
X118024770Y-57056040D01*
X118024765Y-57056052D01*
X117964699Y-57254067D01*
X117944417Y-57460000D01*
X114620000Y-57460000D01*
X114620000Y-56500000D01*
X115120000Y-56500000D01*
X115120000Y-57225000D01*
X115819999Y-57225000D01*
X115819999Y-57176690D01*
X115809854Y-57077389D01*
X115756545Y-56916513D01*
X115667575Y-56772271D01*
X115667572Y-56772267D01*
X115547732Y-56652427D01*
X115547728Y-56652424D01*
X115403485Y-56563454D01*
X115403486Y-56563454D01*
X115242607Y-56510144D01*
X115242608Y-56510144D01*
X115143309Y-56500000D01*
X115120000Y-56500000D01*
X114620000Y-56500000D01*
X114596690Y-56500000D01*
X114497389Y-56510145D01*
X114336513Y-56563454D01*
X114192271Y-56652424D01*
X114192267Y-56652427D01*
X114072427Y-56772267D01*
X114072424Y-56772271D01*
X113983450Y-56916519D01*
X113982666Y-56918202D01*
X113982005Y-56918862D01*
X113981154Y-56920243D01*
X113980826Y-56920041D01*
X113946291Y-56954573D01*
X113895046Y-56959053D01*
X113861340Y-56939591D01*
X113798222Y-56876473D01*
X113678126Y-56815281D01*
X113678128Y-56815281D01*
X113578490Y-56799500D01*
X113578488Y-56799500D01*
X113061512Y-56799500D01*
X113061509Y-56799500D01*
X112961872Y-56815281D01*
X112841777Y-56876473D01*
X112746473Y-56971777D01*
X112685282Y-57091870D01*
X112685280Y-57091876D01*
X112682242Y-57111063D01*
X112657304Y-57156054D01*
X112609281Y-57174489D01*
X112607968Y-57174500D01*
X111745700Y-57174500D01*
X111697362Y-57156907D01*
X111671642Y-57112358D01*
X111670500Y-57099300D01*
X111670500Y-56929241D01*
X111670499Y-56929231D01*
X111664935Y-56891047D01*
X111660573Y-56861107D01*
X111609198Y-56756017D01*
X111609196Y-56756015D01*
X111609196Y-56756014D01*
X111526485Y-56673303D01*
X111483776Y-56652424D01*
X111421393Y-56621927D01*
X111353268Y-56612000D01*
X111353260Y-56612000D01*
X111154519Y-56612000D01*
X111106181Y-56594407D01*
X111080461Y-56549858D01*
X111089394Y-56499200D01*
X111101345Y-56483626D01*
X111130460Y-56454511D01*
X111410460Y-56174511D01*
X111422295Y-56154012D01*
X111450021Y-56105989D01*
X111461794Y-56062050D01*
X111491298Y-56019916D01*
X111501388Y-56013965D01*
X111526483Y-56001698D01*
X111609198Y-55918983D01*
X111660573Y-55813893D01*
X111670500Y-55745760D01*
X111670500Y-55575700D01*
X111688093Y-55527362D01*
X111732642Y-55501642D01*
X111745700Y-55500500D01*
X112658280Y-55500500D01*
X112706618Y-55518093D01*
X112732338Y-55562642D01*
X112732554Y-55563937D01*
X112734354Y-55575305D01*
X112791951Y-55688344D01*
X112881655Y-55778048D01*
X112881657Y-55778049D01*
X112881658Y-55778050D01*
X112994694Y-55835645D01*
X112994696Y-55835646D01*
X113088481Y-55850500D01*
X113551518Y-55850499D01*
X113559646Y-55849211D01*
X113645301Y-55835647D01*
X113645302Y-55835646D01*
X113645304Y-55835646D01*
X113758342Y-55778050D01*
X113848050Y-55688342D01*
X113905646Y-55575304D01*
X113920500Y-55481519D01*
X113920500Y-55481512D01*
X114369500Y-55481512D01*
X114369501Y-55481524D01*
X114384352Y-55575301D01*
X114441951Y-55688344D01*
X114531655Y-55778048D01*
X114531657Y-55778049D01*
X114531658Y-55778050D01*
X114644694Y-55835645D01*
X114644696Y-55835646D01*
X114738481Y-55850500D01*
X115201518Y-55850499D01*
X115209646Y-55849211D01*
X115295301Y-55835647D01*
X115295302Y-55835646D01*
X115295304Y-55835646D01*
X115408342Y-55778050D01*
X115498050Y-55688342D01*
X115555646Y-55575304D01*
X115561406Y-55538935D01*
X115586345Y-55493946D01*
X115634368Y-55475511D01*
X115635680Y-55475500D01*
X117164560Y-55475500D01*
X117164562Y-55475500D01*
X117240989Y-55455021D01*
X117309511Y-55415460D01*
X117365460Y-55359511D01*
X118020460Y-54704511D01*
X118045201Y-54661658D01*
X118060021Y-54635989D01*
X118080500Y-54559562D01*
X118080500Y-54473073D01*
X118098093Y-54424735D01*
X118133405Y-54404347D01*
X118132496Y-54401549D01*
X118138121Y-54399721D01*
X118138124Y-54399719D01*
X118138126Y-54399719D01*
X118258220Y-54338528D01*
X118321340Y-54275407D01*
X118367959Y-54253668D01*
X118417646Y-54266981D01*
X118441022Y-54294838D01*
X118441154Y-54294757D01*
X118441709Y-54295657D01*
X118442669Y-54296801D01*
X118443456Y-54298490D01*
X118532424Y-54442728D01*
X118532427Y-54442732D01*
X118652267Y-54562572D01*
X118652271Y-54562575D01*
X118796514Y-54651545D01*
X118796513Y-54651545D01*
X118957392Y-54704855D01*
X118957391Y-54704855D01*
X119056690Y-54714999D01*
X119079999Y-54714999D01*
X119080000Y-54714998D01*
X119080000Y-53990000D01*
X119580000Y-53990000D01*
X119580000Y-54714999D01*
X119603309Y-54714999D01*
X119702610Y-54704854D01*
X119863486Y-54651545D01*
X120007728Y-54562575D01*
X120007732Y-54562572D01*
X120127572Y-54442732D01*
X120127575Y-54442728D01*
X120216545Y-54298486D01*
X120269855Y-54137607D01*
X120280000Y-54038308D01*
X120280000Y-53990000D01*
X119580000Y-53990000D01*
X119080000Y-53990000D01*
X119080000Y-52765000D01*
X119580000Y-52765000D01*
X119580000Y-53490000D01*
X120279999Y-53490000D01*
X120279999Y-53441690D01*
X120269854Y-53342389D01*
X120216545Y-53181513D01*
X120127575Y-53037271D01*
X120127572Y-53037267D01*
X120007732Y-52917427D01*
X120007728Y-52917424D01*
X119863485Y-52828454D01*
X119863486Y-52828454D01*
X119702607Y-52775144D01*
X119702608Y-52775144D01*
X119603309Y-52765000D01*
X119580000Y-52765000D01*
X119080000Y-52765000D01*
X119056690Y-52765000D01*
X118957389Y-52775145D01*
X118796513Y-52828454D01*
X118652271Y-52917424D01*
X118652267Y-52917427D01*
X118532427Y-53037267D01*
X118532424Y-53037271D01*
X118443450Y-53181519D01*
X118442666Y-53183202D01*
X118442005Y-53183862D01*
X118441154Y-53185243D01*
X118440826Y-53185041D01*
X118406291Y-53219573D01*
X118355046Y-53224053D01*
X118321340Y-53204591D01*
X118258222Y-53141473D01*
X118138126Y-53080281D01*
X118138128Y-53080281D01*
X118038490Y-53064500D01*
X118038488Y-53064500D01*
X117521512Y-53064500D01*
X117521509Y-53064500D01*
X117421872Y-53080281D01*
X117301777Y-53141473D01*
X117206473Y-53236777D01*
X117145281Y-53356872D01*
X117129500Y-53456509D01*
X117129500Y-54023490D01*
X117145281Y-54123127D01*
X117206473Y-54243222D01*
X117301777Y-54338526D01*
X117301776Y-54338526D01*
X117301780Y-54338528D01*
X117365051Y-54370766D01*
X117400132Y-54408386D01*
X117402824Y-54459755D01*
X117384084Y-54490943D01*
X117022554Y-54852474D01*
X116975935Y-54874214D01*
X116969381Y-54874500D01*
X115635680Y-54874500D01*
X115587342Y-54856907D01*
X115561622Y-54812358D01*
X115561406Y-54811062D01*
X115555647Y-54774698D01*
X115555645Y-54774694D01*
X115498050Y-54661658D01*
X115498049Y-54661657D01*
X115498048Y-54661655D01*
X115408344Y-54571951D01*
X115383908Y-54559500D01*
X115311559Y-54522636D01*
X115276478Y-54485016D01*
X115270500Y-54455633D01*
X115270500Y-53745711D01*
X115288093Y-53697373D01*
X115303903Y-53684108D01*
X115303714Y-53683862D01*
X115422621Y-53592621D01*
X115510860Y-53477626D01*
X115510859Y-53477626D01*
X115510861Y-53477625D01*
X115566330Y-53343709D01*
X115585250Y-53200000D01*
X115566330Y-53056291D01*
X115510861Y-52922375D01*
X115510860Y-52922374D01*
X115510860Y-52922373D01*
X115422621Y-52807378D01*
X115307626Y-52719139D01*
X115173711Y-52663671D01*
X115173709Y-52663670D01*
X115030000Y-52644750D01*
X114886291Y-52663670D01*
X114886288Y-52663670D01*
X114886288Y-52663671D01*
X114752373Y-52719139D01*
X114637378Y-52807378D01*
X114549139Y-52922373D01*
X114501789Y-53036690D01*
X114493670Y-53056291D01*
X114474750Y-53200000D01*
X114493670Y-53343709D01*
X114493671Y-53343711D01*
X114549139Y-53477626D01*
X114583666Y-53522621D01*
X114637379Y-53592621D01*
X114640074Y-53594689D01*
X114667716Y-53638069D01*
X114669500Y-53654352D01*
X114669500Y-54455633D01*
X114651907Y-54503971D01*
X114628440Y-54522637D01*
X114531655Y-54571951D01*
X114441951Y-54661655D01*
X114384354Y-54774694D01*
X114369500Y-54868478D01*
X114369500Y-55481512D01*
X113920500Y-55481512D01*
X113920499Y-54868482D01*
X113911611Y-54812358D01*
X113905647Y-54774698D01*
X113905645Y-54774694D01*
X113848050Y-54661658D01*
X113848049Y-54661657D01*
X113848048Y-54661655D01*
X113758344Y-54571951D01*
X113645304Y-54514354D01*
X113645306Y-54514354D01*
X113596271Y-54506588D01*
X113551519Y-54499500D01*
X113551517Y-54499500D01*
X113088487Y-54499500D01*
X113088475Y-54499501D01*
X112994698Y-54514352D01*
X112881655Y-54571951D01*
X112791951Y-54661655D01*
X112734354Y-54774694D01*
X112730685Y-54797856D01*
X112724634Y-54836064D01*
X112699697Y-54881054D01*
X112651674Y-54899489D01*
X112650361Y-54899500D01*
X111745700Y-54899500D01*
X111697362Y-54881907D01*
X111671642Y-54837358D01*
X111670500Y-54824300D01*
X111670500Y-54654241D01*
X111670499Y-54654231D01*
X111665444Y-54619540D01*
X111660573Y-54586107D01*
X111609198Y-54481017D01*
X111609196Y-54481015D01*
X111609196Y-54481014D01*
X111526485Y-54398303D01*
X111492680Y-54381777D01*
X111421393Y-54346927D01*
X111353268Y-54337000D01*
X111353260Y-54337000D01*
X110986740Y-54337000D01*
X110986731Y-54337000D01*
X110918606Y-54346927D01*
X110813514Y-54398303D01*
X110730803Y-54481014D01*
X110679427Y-54586106D01*
X110669500Y-54654231D01*
X110669500Y-55745768D01*
X110679427Y-55813893D01*
X110679427Y-55813895D01*
X110702589Y-55861273D01*
X110708013Y-55912426D01*
X110679287Y-55955098D01*
X110635030Y-55969500D01*
X109804970Y-55969500D01*
X109756632Y-55951907D01*
X109730912Y-55907358D01*
X109737411Y-55861273D01*
X109760572Y-55813895D01*
X109760573Y-55813893D01*
X109770500Y-55745760D01*
X109770500Y-54654240D01*
X109770107Y-54651545D01*
X109765444Y-54619540D01*
X109760573Y-54586107D01*
X109709198Y-54481017D01*
X109626483Y-54398302D01*
X109626481Y-54398301D01*
X109626480Y-54398300D01*
X109612671Y-54391549D01*
X109576973Y-54354513D01*
X109570500Y-54323991D01*
X109570500Y-53885619D01*
X109588093Y-53837281D01*
X109592515Y-53832455D01*
X109728655Y-53696315D01*
X109775274Y-53674576D01*
X109791637Y-53674932D01*
X109870000Y-53685250D01*
X110013709Y-53666330D01*
X110147625Y-53610861D01*
X110262621Y-53522621D01*
X110350861Y-53407625D01*
X110406330Y-53273709D01*
X110425250Y-53130000D01*
X110406330Y-52986291D01*
X110350861Y-52852375D01*
X110350860Y-52852374D01*
X110350860Y-52852373D01*
X110262621Y-52737378D01*
X110147626Y-52649139D01*
X110013711Y-52593671D01*
X110013709Y-52593670D01*
X109870000Y-52574750D01*
X109726291Y-52593670D01*
X109726288Y-52593670D01*
X109726288Y-52593671D01*
X109592373Y-52649139D01*
X109477378Y-52737378D01*
X109389139Y-52852373D01*
X109353924Y-52937392D01*
X109333670Y-52986291D01*
X109321296Y-53080281D01*
X109314750Y-53130000D01*
X109325065Y-53208355D01*
X109313931Y-53258576D01*
X109303683Y-53271344D01*
X109085489Y-53489540D01*
X109085488Y-53489540D01*
X109029543Y-53545484D01*
X109029539Y-53545490D01*
X108989979Y-53614009D01*
X108979169Y-53654352D01*
X108970891Y-53685249D01*
X108969500Y-53690439D01*
X108969500Y-54323991D01*
X108951907Y-54372329D01*
X108927329Y-54391549D01*
X108913519Y-54398300D01*
X108830802Y-54481016D01*
X108779427Y-54586106D01*
X108769500Y-54654231D01*
X108769500Y-54824300D01*
X108751907Y-54872638D01*
X108707358Y-54898358D01*
X108694300Y-54899500D01*
X108475619Y-54899500D01*
X108427281Y-54881907D01*
X108422455Y-54877484D01*
X108164511Y-54619540D01*
X108133285Y-54601512D01*
X108095989Y-54579979D01*
X108019562Y-54559500D01*
X108019560Y-54559500D01*
X107363073Y-54559500D01*
X107314735Y-54541907D01*
X107294344Y-54506588D01*
X107291546Y-54507498D01*
X107289719Y-54501878D01*
X107289719Y-54501874D01*
X107228528Y-54381780D01*
X107228527Y-54381779D01*
X107228526Y-54381777D01*
X107165408Y-54318659D01*
X107143668Y-54272039D01*
X107156982Y-54222352D01*
X107184839Y-54198979D01*
X107184757Y-54198846D01*
X107185671Y-54198281D01*
X107186811Y-54197326D01*
X107188490Y-54196543D01*
X107332728Y-54107575D01*
X107332732Y-54107572D01*
X107452572Y-53987732D01*
X107452575Y-53987728D01*
X107541545Y-53843486D01*
X107594855Y-53682607D01*
X107605000Y-53583308D01*
X107605000Y-53560000D01*
X105655001Y-53560000D01*
X105655001Y-53583309D01*
X105665145Y-53682610D01*
X105718454Y-53843486D01*
X105807424Y-53987728D01*
X105807427Y-53987732D01*
X105927267Y-54107572D01*
X105927271Y-54107575D01*
X106071512Y-54196545D01*
X106073192Y-54197328D01*
X106073852Y-54197988D01*
X106075243Y-54198846D01*
X106075039Y-54199175D01*
X106109569Y-54233698D01*
X106114056Y-54284942D01*
X106094592Y-54318659D01*
X106031472Y-54381779D01*
X105970281Y-54501872D01*
X105954500Y-54601509D01*
X105954500Y-55118490D01*
X105970281Y-55218127D01*
X106031473Y-55338222D01*
X106126777Y-55433526D01*
X106126779Y-55433527D01*
X106126780Y-55433528D01*
X106246872Y-55494718D01*
X106246874Y-55494719D01*
X106346512Y-55510500D01*
X106346516Y-55510500D01*
X106913484Y-55510500D01*
X106913488Y-55510500D01*
X107013126Y-55494719D01*
X107133220Y-55433528D01*
X107228528Y-55338220D01*
X107289719Y-55218126D01*
X107289719Y-55218119D01*
X107291546Y-55212502D01*
X107294413Y-55213433D01*
X107314462Y-55178324D01*
X107362715Y-55160501D01*
X107363073Y-55160500D01*
X107824381Y-55160500D01*
X107872719Y-55178093D01*
X107877544Y-55182515D01*
X108033249Y-55338220D01*
X108135490Y-55440461D01*
X108204004Y-55480018D01*
X108204007Y-55480019D01*
X108204012Y-55480022D01*
X108280438Y-55500500D01*
X108359562Y-55500500D01*
X108694300Y-55500500D01*
X108742638Y-55518093D01*
X108768358Y-55562642D01*
X108769500Y-55575700D01*
X108769500Y-55745768D01*
X108779427Y-55813893D01*
X108779427Y-55813895D01*
X108802589Y-55861273D01*
X108808013Y-55912426D01*
X108779287Y-55955098D01*
X108735030Y-55969500D01*
X108450438Y-55969500D01*
X108412224Y-55979739D01*
X108374009Y-55989979D01*
X108305490Y-56029539D01*
X108305484Y-56029543D01*
X107443981Y-56891047D01*
X107397361Y-56912787D01*
X107347674Y-56899473D01*
X107323804Y-56872014D01*
X107293050Y-56811657D01*
X107203344Y-56721951D01*
X107090304Y-56664354D01*
X107090306Y-56664354D01*
X107043411Y-56656927D01*
X106996519Y-56649500D01*
X106996517Y-56649500D01*
X106383487Y-56649500D01*
X106383475Y-56649501D01*
X106289698Y-56664352D01*
X106176655Y-56721951D01*
X106086951Y-56811655D01*
X106029354Y-56924694D01*
X106014500Y-57018479D01*
X106014500Y-57481512D01*
X106014501Y-57481524D01*
X106029352Y-57575301D01*
X106086951Y-57688344D01*
X106176655Y-57778048D01*
X106176657Y-57778049D01*
X106176658Y-57778050D01*
X106289694Y-57835645D01*
X106289696Y-57835646D01*
X106383481Y-57850500D01*
X106996518Y-57850499D01*
X107004646Y-57849211D01*
X107090301Y-57835647D01*
X107090302Y-57835646D01*
X107090304Y-57835646D01*
X107203342Y-57778050D01*
X107256392Y-57725000D01*
X108470000Y-57725000D01*
X108470000Y-58053149D01*
X108472898Y-58089982D01*
X108472900Y-58089993D01*
X108518718Y-58247697D01*
X108602317Y-58389056D01*
X108602323Y-58389063D01*
X108718436Y-58505176D01*
X108718443Y-58505182D01*
X108859802Y-58588781D01*
X109017508Y-58634599D01*
X109017513Y-58634600D01*
X109019999Y-58634796D01*
X109020000Y-58634795D01*
X109020000Y-57725000D01*
X109520000Y-57725000D01*
X109520000Y-58634796D01*
X109522486Y-58634600D01*
X109522491Y-58634599D01*
X109680198Y-58588781D01*
X109706719Y-58573097D01*
X109757281Y-58563634D01*
X109783281Y-58573097D01*
X109809801Y-58588781D01*
X109809800Y-58588781D01*
X109967508Y-58634599D01*
X109967513Y-58634600D01*
X109969999Y-58634796D01*
X109970000Y-58634795D01*
X109970000Y-57725000D01*
X109520000Y-57725000D01*
X109020000Y-57725000D01*
X108470000Y-57725000D01*
X107256392Y-57725000D01*
X107293050Y-57688342D01*
X107342364Y-57591558D01*
X107379983Y-57556478D01*
X107409366Y-57550500D01*
X107549560Y-57550500D01*
X107549562Y-57550500D01*
X107625989Y-57530021D01*
X107694511Y-57490460D01*
X107750460Y-57434511D01*
X108341627Y-56843343D01*
X108388246Y-56821604D01*
X108437933Y-56834918D01*
X108467438Y-56877055D01*
X108470000Y-56896518D01*
X108470000Y-57225000D01*
X110394800Y-57225000D01*
X110443138Y-57242593D01*
X110468858Y-57287142D01*
X110470000Y-57300200D01*
X110470000Y-58634796D01*
X110472486Y-58634600D01*
X110472491Y-58634599D01*
X110630197Y-58588781D01*
X110756020Y-58514370D01*
X110806582Y-58504908D01*
X110851397Y-58530159D01*
X110869496Y-58578310D01*
X110869500Y-58579098D01*
X110869500Y-59084381D01*
X110851907Y-59132719D01*
X110847474Y-59137555D01*
X110487555Y-59497474D01*
X110440935Y-59519214D01*
X110434381Y-59519500D01*
X107293440Y-59519500D01*
X107245102Y-59501907D01*
X107219382Y-59457358D01*
X107228315Y-59406700D01*
X107240262Y-59391129D01*
X107293050Y-59338342D01*
X107350646Y-59225304D01*
X107365500Y-59131519D01*
X107365499Y-58668482D01*
X107352877Y-58588781D01*
X107350647Y-58574698D01*
X107319908Y-58514370D01*
X107293050Y-58461658D01*
X107293049Y-58461657D01*
X107293048Y-58461655D01*
X107203344Y-58371951D01*
X107090304Y-58314354D01*
X107090306Y-58314354D01*
X107043411Y-58306927D01*
X106996519Y-58299500D01*
X106996517Y-58299500D01*
X106383487Y-58299500D01*
X106383475Y-58299501D01*
X106289698Y-58314352D01*
X106176655Y-58371951D01*
X106086951Y-58461655D01*
X106029354Y-58574694D01*
X106014500Y-58668479D01*
X106014500Y-59131512D01*
X106014501Y-59131524D01*
X106029352Y-59225301D01*
X106086951Y-59338344D01*
X106176655Y-59428048D01*
X106176657Y-59428049D01*
X106176658Y-59428050D01*
X106289694Y-59485645D01*
X106289696Y-59485646D01*
X106338998Y-59493454D01*
X106383987Y-59518392D01*
X106399871Y-59548265D01*
X106409979Y-59585990D01*
X106435654Y-59630460D01*
X106435655Y-59630461D01*
X106449540Y-59654512D01*
X106855488Y-60060460D01*
X106855487Y-60060460D01*
X106924004Y-60100018D01*
X106924007Y-60100019D01*
X106924012Y-60100022D01*
X107000438Y-60120500D01*
X108233880Y-60120500D01*
X108282218Y-60138093D01*
X108307938Y-60182642D01*
X108299005Y-60233300D01*
X108293539Y-60241480D01*
X108279266Y-60260080D01*
X108235881Y-60287718D01*
X108219607Y-60289500D01*
X107920438Y-60289500D01*
X107882224Y-60299739D01*
X107844009Y-60309979D01*
X107791254Y-60340438D01*
X107791252Y-60340439D01*
X107775488Y-60349539D01*
X107264169Y-60860860D01*
X107150489Y-60974540D01*
X107130478Y-60994551D01*
X107094539Y-61030489D01*
X107077742Y-61059583D01*
X107038336Y-61092647D01*
X107019646Y-61096853D01*
X107015155Y-61097274D01*
X107015151Y-61097274D01*
X107015151Y-61097275D01*
X107015148Y-61097275D01*
X107015148Y-61097276D01*
X106890527Y-61140882D01*
X106890524Y-61140884D01*
X106784289Y-61219289D01*
X106705884Y-61325524D01*
X106705882Y-61325527D01*
X106662276Y-61450148D01*
X106662274Y-61450157D01*
X106659500Y-61479735D01*
X106659500Y-61544300D01*
X106641907Y-61592638D01*
X106597358Y-61618358D01*
X106584300Y-61619500D01*
X106344562Y-61619500D01*
X106265438Y-61619500D01*
X106189012Y-61639978D01*
X106189004Y-61639981D01*
X106120488Y-61679539D01*
X105637711Y-62162318D01*
X105480489Y-62319540D01*
X105466049Y-62333980D01*
X105424540Y-62375488D01*
X105424539Y-62375490D01*
X105384979Y-62444009D01*
X105379164Y-62465711D01*
X105364500Y-62520438D01*
X105364500Y-64589562D01*
X104710500Y-64589562D01*
X104710500Y-53060000D01*
X105655000Y-53060000D01*
X106380000Y-53060000D01*
X106380000Y-52360000D01*
X106880000Y-52360000D01*
X106880000Y-53060000D01*
X107604999Y-53060000D01*
X107604999Y-53036690D01*
X107594854Y-52937389D01*
X107541545Y-52776513D01*
X107452575Y-52632271D01*
X107452572Y-52632267D01*
X107332732Y-52512427D01*
X107332728Y-52512424D01*
X107188485Y-52423454D01*
X107188486Y-52423454D01*
X107027607Y-52370144D01*
X107027608Y-52370144D01*
X106928309Y-52360000D01*
X106880000Y-52360000D01*
X106380000Y-52360000D01*
X106380000Y-52359999D01*
X106331691Y-52360000D01*
X106232389Y-52370145D01*
X106071513Y-52423454D01*
X105927271Y-52512424D01*
X105927267Y-52512427D01*
X105807427Y-52632267D01*
X105807424Y-52632271D01*
X105718454Y-52776513D01*
X105665144Y-52937392D01*
X105655000Y-53036691D01*
X105655000Y-53060000D01*
X104710500Y-53060000D01*
X104710500Y-50669748D01*
X107729500Y-50669748D01*
X107741132Y-50728229D01*
X107741133Y-50728231D01*
X107785448Y-50794552D01*
X107851769Y-50838867D01*
X107881010Y-50844683D01*
X107910251Y-50850500D01*
X107910252Y-50850500D01*
X109649749Y-50850500D01*
X109669242Y-50846622D01*
X109708231Y-50838867D01*
X109774552Y-50794552D01*
X109818867Y-50728231D01*
X109830500Y-50669748D01*
X109830500Y-49986817D01*
X109848093Y-49938479D01*
X109892642Y-49912759D01*
X109943300Y-49921692D01*
X109976365Y-49961097D01*
X109980614Y-49980263D01*
X109985430Y-50035316D01*
X110046569Y-50263490D01*
X110046570Y-50263494D01*
X110146398Y-50477576D01*
X110281885Y-50671072D01*
X110281896Y-50671085D01*
X110448914Y-50838103D01*
X110448927Y-50838114D01*
X110642423Y-50973601D01*
X110642423Y-50973602D01*
X110856505Y-51073429D01*
X111070000Y-51130634D01*
X111070000Y-50233012D01*
X111127007Y-50265925D01*
X111254174Y-50300000D01*
X111385826Y-50300000D01*
X111512993Y-50265925D01*
X111570000Y-50233012D01*
X111570000Y-51130634D01*
X111783494Y-51073429D01*
X111997576Y-50973602D01*
X111997576Y-50973601D01*
X112191072Y-50838114D01*
X112191085Y-50838103D01*
X112358103Y-50671085D01*
X112358114Y-50671072D01*
X112493601Y-50477576D01*
X112493602Y-50477576D01*
X112593429Y-50263494D01*
X112593430Y-50263490D01*
X112654569Y-50035316D01*
X112665479Y-49910615D01*
X112687218Y-49863995D01*
X112733839Y-49842255D01*
X112783526Y-49855569D01*
X112813031Y-49897706D01*
X112815231Y-49909798D01*
X112824699Y-50005932D01*
X112884765Y-50203947D01*
X112884770Y-50203959D01*
X112916593Y-50263494D01*
X112982315Y-50386450D01*
X113113590Y-50546410D01*
X113273550Y-50677685D01*
X113456046Y-50775232D01*
X113456050Y-50775233D01*
X113456052Y-50775234D01*
X113519733Y-50794551D01*
X113654066Y-50835300D01*
X113860000Y-50855583D01*
X114065934Y-50835300D01*
X114263954Y-50775232D01*
X114446450Y-50677685D01*
X114606410Y-50546410D01*
X114737685Y-50386450D01*
X114835232Y-50203954D01*
X114895300Y-50005934D01*
X114904768Y-49909797D01*
X114927014Y-49863418D01*
X114973869Y-49842188D01*
X115023408Y-49856043D01*
X115052451Y-49898499D01*
X115054520Y-49910615D01*
X115065430Y-50035316D01*
X115126569Y-50263490D01*
X115126570Y-50263494D01*
X115226398Y-50477576D01*
X115361885Y-50671072D01*
X115361896Y-50671085D01*
X115528914Y-50838103D01*
X115528927Y-50838114D01*
X115722423Y-50973601D01*
X115722423Y-50973602D01*
X115936505Y-51073429D01*
X116150000Y-51130634D01*
X116150000Y-50233012D01*
X116207007Y-50265925D01*
X116334174Y-50300000D01*
X116465826Y-50300000D01*
X116592993Y-50265925D01*
X116650000Y-50233012D01*
X116650000Y-51130634D01*
X116863494Y-51073429D01*
X117077576Y-50973602D01*
X117077576Y-50973601D01*
X117271072Y-50838114D01*
X117271085Y-50838103D01*
X117438103Y-50671085D01*
X117438114Y-50671072D01*
X117573601Y-50477576D01*
X117573602Y-50477576D01*
X117673429Y-50263494D01*
X117673431Y-50263490D01*
X117730636Y-50050000D01*
X116833012Y-50050000D01*
X116865925Y-49992993D01*
X116900000Y-49865826D01*
X116900000Y-49734174D01*
X116865925Y-49607007D01*
X116833012Y-49550000D01*
X117730636Y-49550000D01*
X117673431Y-49336509D01*
X117673429Y-49336505D01*
X117573603Y-49122427D01*
X117438107Y-48928918D01*
X117271085Y-48761896D01*
X117271072Y-48761885D01*
X117077576Y-48626398D01*
X117077576Y-48626397D01*
X116863494Y-48526570D01*
X116863490Y-48526568D01*
X116650000Y-48469364D01*
X116650000Y-49366988D01*
X116592993Y-49334075D01*
X116465826Y-49300000D01*
X116334174Y-49300000D01*
X116207007Y-49334075D01*
X116150000Y-49366988D01*
X116150000Y-48469364D01*
X115936509Y-48526568D01*
X115936505Y-48526570D01*
X115722427Y-48626396D01*
X115528918Y-48761892D01*
X115361892Y-48928918D01*
X115226396Y-49122427D01*
X115126570Y-49336505D01*
X115126569Y-49336509D01*
X115065430Y-49564683D01*
X115054520Y-49689384D01*
X115032780Y-49736005D01*
X114986160Y-49757744D01*
X114936473Y-49744430D01*
X114906968Y-49702293D01*
X114904769Y-49690205D01*
X114895300Y-49594066D01*
X114857598Y-49469778D01*
X114835234Y-49396052D01*
X114835229Y-49396040D01*
X114737687Y-49213554D01*
X114737684Y-49213549D01*
X114606410Y-49053590D01*
X114446450Y-48922315D01*
X114446445Y-48922312D01*
X114263959Y-48824770D01*
X114263947Y-48824765D01*
X114065932Y-48764699D01*
X113860000Y-48744417D01*
X113654067Y-48764699D01*
X113456052Y-48824765D01*
X113456040Y-48824770D01*
X113273554Y-48922312D01*
X113273549Y-48922315D01*
X113113590Y-49053590D01*
X112982315Y-49213549D01*
X112982312Y-49213554D01*
X112884770Y-49396040D01*
X112884765Y-49396052D01*
X112824699Y-49594067D01*
X112815231Y-49690201D01*
X112792984Y-49736582D01*
X112746129Y-49757811D01*
X112696590Y-49743956D01*
X112667547Y-49701499D01*
X112665479Y-49689384D01*
X112654569Y-49564683D01*
X112593430Y-49336509D01*
X112593429Y-49336505D01*
X112493603Y-49122427D01*
X112358107Y-48928918D01*
X112191085Y-48761896D01*
X112191072Y-48761885D01*
X111997576Y-48626398D01*
X111997576Y-48626397D01*
X111783494Y-48526570D01*
X111783490Y-48526568D01*
X111570000Y-48469364D01*
X111570000Y-49366988D01*
X111512993Y-49334075D01*
X111385826Y-49300000D01*
X111254174Y-49300000D01*
X111127007Y-49334075D01*
X111070000Y-49366988D01*
X111070000Y-48469364D01*
X110856509Y-48526568D01*
X110856505Y-48526570D01*
X110642427Y-48626396D01*
X110448918Y-48761892D01*
X110281892Y-48928918D01*
X110146396Y-49122427D01*
X110046570Y-49336505D01*
X110046569Y-49336509D01*
X109985430Y-49564683D01*
X109980614Y-49619736D01*
X109958874Y-49666356D01*
X109912254Y-49688096D01*
X109862567Y-49674782D01*
X109833062Y-49632645D01*
X109830500Y-49613182D01*
X109830500Y-48930251D01*
X109818867Y-48871770D01*
X109818866Y-48871768D01*
X109774552Y-48805448D01*
X109708231Y-48761133D01*
X109708229Y-48761132D01*
X109649749Y-48749500D01*
X109649748Y-48749500D01*
X107910252Y-48749500D01*
X107910251Y-48749500D01*
X107851770Y-48761132D01*
X107851768Y-48761133D01*
X107785448Y-48805448D01*
X107741133Y-48871768D01*
X107741132Y-48871770D01*
X107729500Y-48930251D01*
X107729500Y-50669748D01*
X104710500Y-50669748D01*
X104710500Y-45375700D01*
X104728093Y-45327362D01*
X104772642Y-45301642D01*
X104785700Y-45300500D01*
X121374300Y-45300500D01*
X121422638Y-45318093D01*
G37*
G04 #@! TD.AperFunction*
M02*
