%TF.GenerationSoftware,KiCad,Pcbnew,8.0.1*%
%TF.CreationDate,2025-01-22T19:50:13-07:00*%
%TF.ProjectId,ColorSensing,436f6c6f-7253-4656-9e73-696e672e6b69,rev?*%
%TF.SameCoordinates,Original*%
%TF.FileFunction,Copper,L1,Top*%
%TF.FilePolarity,Positive*%
%FSLAX46Y46*%
G04 Gerber Fmt 4.6, Leading zero omitted, Abs format (unit mm)*
G04 Created by KiCad (PCBNEW 8.0.1) date 2025-01-22 19:50:13*
%MOMM*%
%LPD*%
G01*
G04 APERTURE LIST*
G04 Aperture macros list*
%AMRoundRect*
0 Rectangle with rounded corners*
0 $1 Rounding radius*
0 $2 $3 $4 $5 $6 $7 $8 $9 X,Y pos of 4 corners*
0 Add a 4 corners polygon primitive as box body*
4,1,4,$2,$3,$4,$5,$6,$7,$8,$9,$2,$3,0*
0 Add four circle primitives for the rounded corners*
1,1,$1+$1,$2,$3*
1,1,$1+$1,$4,$5*
1,1,$1+$1,$6,$7*
1,1,$1+$1,$8,$9*
0 Add four rect primitives between the rounded corners*
20,1,$1+$1,$2,$3,$4,$5,0*
20,1,$1+$1,$4,$5,$6,$7,0*
20,1,$1+$1,$6,$7,$8,$9,0*
20,1,$1+$1,$8,$9,$2,$3,0*%
G04 Aperture macros list end*
%TA.AperFunction,ComponentPad*%
%ADD10C,2.500000*%
%TD*%
%TA.AperFunction,SMDPad,CuDef*%
%ADD11RoundRect,0.237500X0.300000X0.237500X-0.300000X0.237500X-0.300000X-0.237500X0.300000X-0.237500X0*%
%TD*%
%TA.AperFunction,SMDPad,CuDef*%
%ADD12RoundRect,0.237500X-0.250000X-0.237500X0.250000X-0.237500X0.250000X0.237500X-0.250000X0.237500X0*%
%TD*%
%TA.AperFunction,SMDPad,CuDef*%
%ADD13R,1.460500X0.558800*%
%TD*%
%TA.AperFunction,SMDPad,CuDef*%
%ADD14RoundRect,0.237500X0.237500X-0.250000X0.237500X0.250000X-0.237500X0.250000X-0.237500X-0.250000X0*%
%TD*%
%TA.AperFunction,ComponentPad*%
%ADD15R,1.800000X1.800000*%
%TD*%
%TA.AperFunction,ComponentPad*%
%ADD16C,1.800000*%
%TD*%
%TA.AperFunction,SMDPad,CuDef*%
%ADD17RoundRect,0.237500X0.250000X0.237500X-0.250000X0.237500X-0.250000X-0.237500X0.250000X-0.237500X0*%
%TD*%
%TA.AperFunction,ComponentPad*%
%ADD18R,1.700000X1.700000*%
%TD*%
%TA.AperFunction,ComponentPad*%
%ADD19O,1.700000X1.700000*%
%TD*%
%TA.AperFunction,ViaPad*%
%ADD20C,0.600000*%
%TD*%
%TA.AperFunction,Conductor*%
%ADD21C,0.152400*%
%TD*%
G04 APERTURE END LIST*
D10*
%TO.P,H4,1*%
%TO.N,N/C*%
X135000000Y-93640000D03*
%TD*%
%TO.P,H3,1*%
%TO.N,N/C*%
X118500000Y-93640000D03*
%TD*%
%TO.P,H2,1,1*%
%TO.N,GND*%
X135000000Y-70000000D03*
%TD*%
%TO.P,H1,1,1*%
%TO.N,VCC*%
X118500000Y-70000000D03*
%TD*%
D11*
%TO.P,C3,1*%
%TO.N,GND*%
X134420000Y-83870000D03*
%TO.P,C3,2*%
%TO.N,VDD_3.3V*%
X132695000Y-83870000D03*
%TD*%
D12*
%TO.P,R5,1*%
%TO.N,COLOR_OUT*%
X132635000Y-82240000D03*
%TO.P,R5,2*%
%TO.N,VDD_3.3V*%
X134460000Y-82240000D03*
%TD*%
%TO.P,R1,1*%
%TO.N,VDD_3.3V*%
X118905000Y-79090000D03*
%TO.P,R1,2*%
%TO.N,Net-(U1-S0)*%
X120730000Y-79090000D03*
%TD*%
D13*
%TO.P,U1,1,S0*%
%TO.N,Net-(U1-S0)*%
X124091700Y-80040000D03*
%TO.P,U1,2,S1*%
%TO.N,Net-(U1-S1)*%
X124091700Y-81310000D03*
%TO.P,U1,3,OE*%
%TO.N,Net-(U1-OE)*%
X124091700Y-82580000D03*
%TO.P,U1,4,GND*%
%TO.N,GND*%
X124091700Y-83850000D03*
%TO.P,U1,5,VDD*%
%TO.N,VDD_3.3V*%
X129540000Y-83850000D03*
%TO.P,U1,6,OUT*%
%TO.N,COLOR_OUT*%
X129540000Y-82580000D03*
%TO.P,U1,7,S2*%
%TO.N,S2*%
X129540000Y-81310000D03*
%TO.P,U1,8,S3*%
%TO.N,S3*%
X129540000Y-80040000D03*
%TD*%
D12*
%TO.P,R3,1*%
%TO.N,S3*%
X132985000Y-79670000D03*
%TO.P,R3,2*%
%TO.N,VDD_3.3V*%
X134810000Y-79670000D03*
%TD*%
D14*
%TO.P,RL2,1*%
%TO.N,Net-(D2-A)*%
X129530000Y-77310000D03*
%TO.P,RL2,2*%
%TO.N,VDD_3.3V*%
X129530000Y-75485000D03*
%TD*%
%TO.P,RL1,1*%
%TO.N,Net-(D1-A)*%
X124810000Y-77435000D03*
%TO.P,RL1,2*%
%TO.N,VDD_3.3V*%
X124810000Y-75610000D03*
%TD*%
%TO.P,RL3,1*%
%TO.N,Net-(D3-A)*%
X124930000Y-88160000D03*
%TO.P,RL3,2*%
%TO.N,VDD_3.3V*%
X124930000Y-86335000D03*
%TD*%
D15*
%TO.P,D4,1,K*%
%TO.N,Net-(D1-K)*%
X132500000Y-88780000D03*
D16*
%TO.P,D4,2,A*%
%TO.N,Net-(D4-A)*%
X135040000Y-88780000D03*
%TD*%
D17*
%TO.P,R6,1*%
%TO.N,Net-(U1-OE)*%
X120760000Y-84540000D03*
%TO.P,R6,2*%
%TO.N,GND*%
X118935000Y-84540000D03*
%TD*%
D15*
%TO.P,D1,1,K*%
%TO.N,Net-(D1-K)*%
X119000000Y-75000000D03*
D16*
%TO.P,D1,2,A*%
%TO.N,Net-(D1-A)*%
X121540000Y-75000000D03*
%TD*%
D15*
%TO.P,D3,1,K*%
%TO.N,Net-(D1-K)*%
X119000000Y-88780000D03*
D16*
%TO.P,D3,2,A*%
%TO.N,Net-(D3-A)*%
X121540000Y-88780000D03*
%TD*%
D14*
%TO.P,R7,1*%
%TO.N,LED_OUT*%
X124830000Y-91635000D03*
%TO.P,R7,2*%
%TO.N,Net-(D5-A)*%
X124830000Y-89810000D03*
%TD*%
%TO.P,RL4,1*%
%TO.N,Net-(D4-A)*%
X128890000Y-88200000D03*
%TO.P,RL4,2*%
%TO.N,VDD_3.3V*%
X128890000Y-86375000D03*
%TD*%
D15*
%TO.P,D2,1,K*%
%TO.N,Net-(D1-K)*%
X132500000Y-75000000D03*
D16*
%TO.P,D2,2,A*%
%TO.N,Net-(D2-A)*%
X135040000Y-75000000D03*
%TD*%
D18*
%TO.P,J1,1,Pin_1*%
%TO.N,VCC*%
X125750000Y-70680000D03*
D19*
%TO.P,J1,2,Pin_2*%
%TO.N,GND*%
X128290000Y-70680000D03*
%TD*%
D20*
%TO.N,GND*%
X130860000Y-85280000D03*
X136290000Y-78630000D03*
X127340000Y-83770000D03*
X130270000Y-91370000D03*
%TO.N,VDD_3.3V*%
X132640000Y-85000000D03*
X122110000Y-85180000D03*
X117350000Y-79470000D03*
X124050000Y-73750000D03*
%TO.N,Net-(D1-A)*%
X123380000Y-77320000D03*
%TO.N,Net-(D4-A)*%
X131110000Y-87040000D03*
%TO.N,Net-(U1-S0)*%
X125510000Y-78800000D03*
%TO.N,Net-(U1-S1)*%
X125710000Y-81360000D03*
X117310000Y-82190000D03*
%TO.N,COLOR_OUT*%
X126200000Y-82580000D03*
%TO.N,S2*%
X127530000Y-81370000D03*
%TO.N,S3*%
X127140000Y-80130000D03*
%TO.N,Net-(D5-A)*%
X123680000Y-90400000D03*
%TO.N,LED_OUT*%
X123720000Y-88920000D03*
%TD*%
D21*
%TO.N,Net-(D3-A)*%
X122560000Y-88780000D02*
X121540000Y-88780000D01*
X123180000Y-88160000D02*
X122560000Y-88780000D01*
X124930000Y-88160000D02*
X123180000Y-88160000D01*
%TO.N,LED_OUT*%
X122800000Y-91010000D02*
X123425000Y-91635000D01*
X123425000Y-91635000D02*
X124830000Y-91635000D01*
X122800000Y-89340000D02*
X122800000Y-91010000D01*
X123220000Y-88920000D02*
X122800000Y-89340000D01*
X123720000Y-88920000D02*
X123220000Y-88920000D01*
%TO.N,VDD_3.3V*%
X134460000Y-80770000D02*
X134830000Y-80400000D01*
X123265000Y-86335000D02*
X122110000Y-85180000D01*
X124930000Y-86335000D02*
X123265000Y-86335000D01*
X132830000Y-83870000D02*
X134460000Y-82240000D01*
X124935000Y-75485000D02*
X124810000Y-75610000D01*
X129540000Y-84690000D02*
X129540000Y-83850000D01*
X118905000Y-79090000D02*
X117730000Y-79090000D01*
X134810000Y-80380000D02*
X134810000Y-79670000D01*
X128890000Y-86375000D02*
X128890000Y-85340000D01*
X128890000Y-85340000D02*
X129540000Y-84690000D01*
X132695000Y-83870000D02*
X129560000Y-83870000D01*
X128890000Y-86375000D02*
X128475000Y-86375000D01*
X128905000Y-86360000D02*
X128890000Y-86375000D01*
X130870000Y-86360000D02*
X128905000Y-86360000D01*
X124810000Y-75610000D02*
X124810000Y-74510000D01*
X132230000Y-85000000D02*
X130870000Y-86360000D01*
X124810000Y-74510000D02*
X124050000Y-73750000D01*
X129530000Y-75485000D02*
X124935000Y-75485000D01*
X129560000Y-83870000D02*
X129540000Y-83850000D01*
X134460000Y-82240000D02*
X134460000Y-80770000D01*
X132695000Y-83870000D02*
X132830000Y-83870000D01*
X117730000Y-79090000D02*
X117350000Y-79470000D01*
X134830000Y-80400000D02*
X134810000Y-80380000D01*
X132640000Y-85000000D02*
X132230000Y-85000000D01*
%TO.N,Net-(D1-A)*%
X124695000Y-77320000D02*
X124810000Y-77435000D01*
X123380000Y-77320000D02*
X124695000Y-77320000D01*
%TO.N,Net-(D2-A)*%
X135040000Y-76320000D02*
X135040000Y-75000000D01*
X134050000Y-77310000D02*
X135040000Y-76320000D01*
X129530000Y-77310000D02*
X134050000Y-77310000D01*
%TO.N,Net-(D4-A)*%
X129760000Y-88200000D02*
X128890000Y-88200000D01*
X130920000Y-87040000D02*
X129760000Y-88200000D01*
X131110000Y-87040000D02*
X130920000Y-87040000D01*
%TO.N,VCC*%
X125550000Y-70480000D02*
X118980000Y-70480000D01*
X118980000Y-70480000D02*
X118500000Y-70000000D01*
X125750000Y-70680000D02*
X125550000Y-70480000D01*
%TO.N,Net-(D1-K)*%
X133150000Y-72820000D02*
X136100000Y-72820000D01*
X132500000Y-73820000D02*
X132500000Y-75000000D01*
X132500000Y-75000000D02*
X132500000Y-73470000D01*
X119000000Y-75000000D02*
X119000000Y-74400000D01*
X132500000Y-87690000D02*
X132500000Y-88780000D01*
X136930000Y-73650000D02*
X136930000Y-84020000D01*
X132500000Y-73470000D02*
X133150000Y-72820000D01*
X119000000Y-74400000D02*
X120880000Y-72520000D01*
X134020000Y-86930000D02*
X133260000Y-86930000D01*
X131200000Y-72520000D02*
X132500000Y-73820000D01*
X136100000Y-72820000D02*
X136930000Y-73650000D01*
X133260000Y-86930000D02*
X132500000Y-87690000D01*
X120880000Y-72520000D02*
X131200000Y-72520000D01*
X136930000Y-84020000D02*
X134020000Y-86930000D01*
%TO.N,Net-(U1-S0)*%
X121280000Y-79090000D02*
X122230000Y-80040000D01*
X125510000Y-78800000D02*
X124770000Y-78800000D01*
X120730000Y-79090000D02*
X121280000Y-79090000D01*
X124770000Y-78800000D02*
X124091700Y-79478300D01*
X122230000Y-80040000D02*
X124091700Y-80040000D01*
X124091700Y-79478300D02*
X124091700Y-80040000D01*
%TO.N,Net-(U1-S1)*%
X125710000Y-81360000D02*
X125660000Y-81310000D01*
X125660000Y-81310000D02*
X124091700Y-81310000D01*
X117310000Y-82190000D02*
X118190000Y-81310000D01*
X118190000Y-81310000D02*
X124091700Y-81310000D01*
%TO.N,COLOR_OUT*%
X126200000Y-82580000D02*
X128550000Y-82580000D01*
X131700000Y-82230000D02*
X131710000Y-82240000D01*
X128550000Y-82580000D02*
X129540000Y-82580000D01*
X129540000Y-82580000D02*
X131350000Y-82580000D01*
X131350000Y-82580000D02*
X131700000Y-82230000D01*
X131710000Y-82240000D02*
X132635000Y-82240000D01*
%TO.N,S2*%
X127590000Y-81310000D02*
X129540000Y-81310000D01*
X127530000Y-81370000D02*
X127590000Y-81310000D01*
%TO.N,S3*%
X131650000Y-80040000D02*
X132020000Y-79670000D01*
X127200000Y-80070000D02*
X129510000Y-80070000D01*
X132020000Y-79670000D02*
X132985000Y-79670000D01*
X127140000Y-80130000D02*
X127200000Y-80070000D01*
X129540000Y-80040000D02*
X131650000Y-80040000D01*
X129510000Y-80070000D02*
X129540000Y-80040000D01*
%TO.N,Net-(U1-OE)*%
X121680000Y-84540000D02*
X122200000Y-84020000D01*
X122200000Y-84020000D02*
X122200000Y-83110000D01*
X120760000Y-84540000D02*
X121680000Y-84540000D01*
X122200000Y-83110000D02*
X122730000Y-82580000D01*
X122730000Y-82580000D02*
X124091700Y-82580000D01*
%TO.N,Net-(D5-A)*%
X124270000Y-89810000D02*
X124830000Y-89810000D01*
X123680000Y-90400000D02*
X124270000Y-89810000D01*
%TD*%
%TA.AperFunction,Conductor*%
%TO.N,GND*%
G36*
X131960821Y-84142093D02*
G01*
X131986541Y-84186642D01*
X131986757Y-84187938D01*
X131994619Y-84237589D01*
X132054418Y-84354949D01*
X132147550Y-84448081D01*
X132147555Y-84448084D01*
X132226987Y-84488558D01*
X132262069Y-84526178D01*
X132264761Y-84577548D01*
X132249565Y-84602844D01*
X132250379Y-84603469D01*
X132159141Y-84722372D01*
X132159135Y-84722381D01*
X132155302Y-84731635D01*
X132120546Y-84769558D01*
X132114609Y-84772326D01*
X132085838Y-84784244D01*
X132085835Y-84784246D01*
X130786608Y-86083474D01*
X130739988Y-86105214D01*
X130733434Y-86105500D01*
X129609621Y-86105500D01*
X129561283Y-86087907D01*
X129535563Y-86043358D01*
X129535347Y-86042062D01*
X129527880Y-85994910D01*
X129468081Y-85877550D01*
X129374949Y-85784418D01*
X129257591Y-85724621D01*
X129257593Y-85724621D01*
X129207935Y-85716756D01*
X129162945Y-85691817D01*
X129144511Y-85643794D01*
X129144500Y-85642482D01*
X129144500Y-85476566D01*
X129162093Y-85428228D01*
X129166526Y-85423392D01*
X129755753Y-84834165D01*
X129755755Y-84834163D01*
X129794501Y-84740623D01*
X129794501Y-84639377D01*
X129794501Y-84633322D01*
X129794500Y-84633308D01*
X129794500Y-84382899D01*
X129812093Y-84334561D01*
X129856642Y-84308841D01*
X129869700Y-84307699D01*
X130287810Y-84307699D01*
X130313814Y-84302527D01*
X130339815Y-84297356D01*
X130339816Y-84297355D01*
X130339819Y-84297355D01*
X130339819Y-84297354D01*
X130339821Y-84297354D01*
X130390525Y-84263474D01*
X130398797Y-84257947D01*
X130438205Y-84198969D01*
X130440978Y-84185027D01*
X130467664Y-84141052D01*
X130514733Y-84124500D01*
X131912483Y-84124500D01*
X131960821Y-84142093D01*
G37*
%TD.AperFunction*%
%TA.AperFunction,Conductor*%
G36*
X118095875Y-68508093D02*
G01*
X118121595Y-68552642D01*
X118112662Y-68603300D01*
X118073257Y-68636365D01*
X118072010Y-68636806D01*
X117981598Y-68667844D01*
X117924288Y-68687519D01*
X117924286Y-68687520D01*
X117716118Y-68800175D01*
X117529324Y-68945562D01*
X117529320Y-68945566D01*
X117369006Y-69119714D01*
X117239543Y-69317872D01*
X117239542Y-69317876D01*
X117144458Y-69534644D01*
X117086352Y-69764104D01*
X117086351Y-69764107D01*
X117066805Y-69999998D01*
X117066805Y-70000001D01*
X117086351Y-70235892D01*
X117086351Y-70235894D01*
X117086352Y-70235896D01*
X117144459Y-70465358D01*
X117167232Y-70517274D01*
X117239542Y-70682123D01*
X117239543Y-70682127D01*
X117369006Y-70880285D01*
X117529320Y-71054433D01*
X117529324Y-71054437D01*
X117716118Y-71199824D01*
X117924286Y-71312479D01*
X117924292Y-71312482D01*
X117924293Y-71312482D01*
X117924299Y-71312485D01*
X118055646Y-71357576D01*
X118148171Y-71389340D01*
X118381648Y-71428300D01*
X118381651Y-71428300D01*
X118618349Y-71428300D01*
X118618352Y-71428300D01*
X118851829Y-71389340D01*
X119003902Y-71337132D01*
X119075700Y-71312485D01*
X119075702Y-71312484D01*
X119075708Y-71312482D01*
X119283883Y-71199823D01*
X119470677Y-71054436D01*
X119630992Y-70880287D01*
X119703980Y-70768569D01*
X119745147Y-70737726D01*
X119766935Y-70734500D01*
X124646501Y-70734500D01*
X124694839Y-70752093D01*
X124720559Y-70796642D01*
X124721701Y-70809700D01*
X124721701Y-71547564D01*
X124732043Y-71599565D01*
X124732045Y-71599571D01*
X124771451Y-71658545D01*
X124771452Y-71658545D01*
X124771453Y-71658547D01*
X124830431Y-71697955D01*
X124882439Y-71708300D01*
X126617560Y-71708299D01*
X126643564Y-71703127D01*
X126669565Y-71697956D01*
X126669566Y-71697955D01*
X126669569Y-71697955D01*
X126669569Y-71697954D01*
X126669571Y-71697954D01*
X126699058Y-71678251D01*
X126728547Y-71658547D01*
X126767955Y-71599569D01*
X126778300Y-71547561D01*
X126778300Y-70930000D01*
X126959364Y-70930000D01*
X127016568Y-71143490D01*
X127016570Y-71143494D01*
X127116398Y-71357576D01*
X127251885Y-71551072D01*
X127251896Y-71551085D01*
X127418914Y-71718103D01*
X127418927Y-71718114D01*
X127612423Y-71853601D01*
X127612423Y-71853602D01*
X127826505Y-71953429D01*
X128040000Y-72010634D01*
X128040000Y-71113012D01*
X128097007Y-71145925D01*
X128224174Y-71180000D01*
X128355826Y-71180000D01*
X128482993Y-71145925D01*
X128540000Y-71113012D01*
X128540000Y-72010634D01*
X128753494Y-71953429D01*
X128967576Y-71853602D01*
X128967576Y-71853601D01*
X129161072Y-71718114D01*
X129161085Y-71718103D01*
X129328103Y-71551085D01*
X129328114Y-71551072D01*
X129463601Y-71357576D01*
X129463602Y-71357576D01*
X129563429Y-71143494D01*
X129563431Y-71143490D01*
X129620636Y-70930000D01*
X128723012Y-70930000D01*
X128755925Y-70872993D01*
X128790000Y-70745826D01*
X128790000Y-70614174D01*
X128755925Y-70487007D01*
X128723012Y-70430000D01*
X129620636Y-70430000D01*
X129563431Y-70216509D01*
X129563429Y-70216505D01*
X129463603Y-70002427D01*
X129328107Y-69808918D01*
X129161085Y-69641896D01*
X129161072Y-69641885D01*
X128967576Y-69506398D01*
X128967576Y-69506397D01*
X128753494Y-69406570D01*
X128753490Y-69406568D01*
X128540000Y-69349364D01*
X128540000Y-70246988D01*
X128482993Y-70214075D01*
X128355826Y-70180000D01*
X128224174Y-70180000D01*
X128097007Y-70214075D01*
X128040000Y-70246988D01*
X128040000Y-69349364D01*
X127826509Y-69406568D01*
X127826505Y-69406570D01*
X127612427Y-69506396D01*
X127418918Y-69641892D01*
X127251892Y-69808918D01*
X127116396Y-70002427D01*
X127016570Y-70216505D01*
X127016568Y-70216509D01*
X126959364Y-70430000D01*
X127856988Y-70430000D01*
X127824075Y-70487007D01*
X127790000Y-70614174D01*
X127790000Y-70745826D01*
X127824075Y-70872993D01*
X127856988Y-70930000D01*
X126959364Y-70930000D01*
X126778300Y-70930000D01*
X126778299Y-69812440D01*
X126767955Y-69760431D01*
X126767954Y-69760428D01*
X126728548Y-69701454D01*
X126728544Y-69701451D01*
X126669569Y-69662045D01*
X126669567Y-69662044D01*
X126617561Y-69651700D01*
X124882440Y-69651700D01*
X124882435Y-69651701D01*
X124830434Y-69662043D01*
X124830428Y-69662045D01*
X124771454Y-69701451D01*
X124732045Y-69760431D01*
X124732044Y-69760432D01*
X124721700Y-69812438D01*
X124721700Y-70150300D01*
X124704107Y-70198638D01*
X124659558Y-70224358D01*
X124646500Y-70225500D01*
X119996198Y-70225500D01*
X119947860Y-70207907D01*
X119922140Y-70163358D01*
X119921255Y-70144090D01*
X119933195Y-70000001D01*
X119933195Y-69999998D01*
X119913648Y-69764107D01*
X119913648Y-69764104D01*
X119855541Y-69534642D01*
X119760457Y-69317875D01*
X119760456Y-69317874D01*
X119760456Y-69317872D01*
X119630993Y-69119714D01*
X119470679Y-68945566D01*
X119470675Y-68945562D01*
X119283881Y-68800175D01*
X119075713Y-68687520D01*
X119075711Y-68687519D01*
X119068568Y-68685067D01*
X118928044Y-68636824D01*
X118888040Y-68604490D01*
X118878178Y-68554005D01*
X118903075Y-68508991D01*
X118951081Y-68490513D01*
X118952463Y-68490500D01*
X133878262Y-68490500D01*
X133926600Y-68508093D01*
X133952320Y-68552642D01*
X133953134Y-68572720D01*
X133950831Y-68597279D01*
X134490978Y-69137426D01*
X134362537Y-69223249D01*
X134223249Y-69362537D01*
X134137426Y-69490978D01*
X133597874Y-68951426D01*
X133597873Y-68951427D01*
X133550029Y-69011422D01*
X133550029Y-69011423D01*
X133418885Y-69238569D01*
X133418879Y-69238581D01*
X133323061Y-69482725D01*
X133264694Y-69738442D01*
X133245093Y-70000000D01*
X133264694Y-70261557D01*
X133323061Y-70517274D01*
X133418879Y-70761418D01*
X133418885Y-70761430D01*
X133550025Y-70988570D01*
X133550028Y-70988573D01*
X133597873Y-71048571D01*
X133597874Y-71048572D01*
X134137426Y-70509020D01*
X134223249Y-70637463D01*
X134362537Y-70776751D01*
X134490978Y-70862572D01*
X133950831Y-71402719D01*
X133950831Y-71402722D01*
X134122541Y-71519791D01*
X134122544Y-71519792D01*
X134358861Y-71633597D01*
X134609492Y-71710906D01*
X134609505Y-71710909D01*
X134868858Y-71750000D01*
X135131142Y-71750000D01*
X135390494Y-71710909D01*
X135390507Y-71710906D01*
X135641138Y-71633597D01*
X135877454Y-71519793D01*
X136049167Y-71402721D01*
X136049167Y-71402719D01*
X135509021Y-70862573D01*
X135637463Y-70776751D01*
X135776751Y-70637463D01*
X135862573Y-70509020D01*
X136402124Y-71048571D01*
X136402125Y-71048571D01*
X136449969Y-70988578D01*
X136449971Y-70988574D01*
X136581114Y-70761430D01*
X136581120Y-70761418D01*
X136676938Y-70517274D01*
X136735305Y-70261557D01*
X136754906Y-70000000D01*
X136735305Y-69738442D01*
X136676938Y-69482725D01*
X136581120Y-69238581D01*
X136581114Y-69238569D01*
X136449974Y-69011429D01*
X136449971Y-69011426D01*
X136402125Y-68951427D01*
X136402124Y-68951426D01*
X135862572Y-69490977D01*
X135776751Y-69362537D01*
X135637463Y-69223249D01*
X135509020Y-69137426D01*
X136049167Y-68597279D01*
X136046865Y-68572720D01*
X136059869Y-68522951D01*
X136101822Y-68493185D01*
X136121737Y-68490500D01*
X137044300Y-68490500D01*
X137092638Y-68508093D01*
X137118358Y-68552642D01*
X137119500Y-68565700D01*
X137119500Y-73298034D01*
X137101907Y-73346372D01*
X137057358Y-73372092D01*
X137006700Y-73363159D01*
X136991126Y-73351208D01*
X136244164Y-72604245D01*
X136150623Y-72565500D01*
X133209383Y-72565500D01*
X133209375Y-72565499D01*
X133200623Y-72565499D01*
X133099377Y-72565499D01*
X133040390Y-72589932D01*
X133005834Y-72604246D01*
X132378174Y-73231907D01*
X132331554Y-73253647D01*
X132281867Y-73240333D01*
X132271826Y-73231907D01*
X131344164Y-72304245D01*
X131250623Y-72265500D01*
X120930623Y-72265500D01*
X120829376Y-72265500D01*
X120801978Y-72276847D01*
X120801979Y-72276848D01*
X120735836Y-72304245D01*
X120700041Y-72340041D01*
X120664245Y-72375837D01*
X120664244Y-72375838D01*
X119140406Y-73899674D01*
X119093786Y-73921414D01*
X119087232Y-73921700D01*
X118082440Y-73921700D01*
X118082435Y-73921701D01*
X118030434Y-73932043D01*
X118030428Y-73932045D01*
X117971454Y-73971451D01*
X117932045Y-74030431D01*
X117932044Y-74030432D01*
X117921700Y-74082438D01*
X117921700Y-75917559D01*
X117921701Y-75917564D01*
X117932043Y-75969565D01*
X117932045Y-75969571D01*
X117971451Y-76028545D01*
X117971452Y-76028545D01*
X117971453Y-76028547D01*
X118030431Y-76067955D01*
X118082439Y-76078300D01*
X119917560Y-76078299D01*
X119943942Y-76073052D01*
X119969565Y-76067956D01*
X119969566Y-76067955D01*
X119969569Y-76067955D01*
X119969569Y-76067954D01*
X119969571Y-76067954D01*
X120012626Y-76039185D01*
X120028547Y-76028547D01*
X120067955Y-75969569D01*
X120078300Y-75917561D01*
X120078299Y-75000000D01*
X120457080Y-75000000D01*
X120474634Y-75189440D01*
X120475519Y-75198985D01*
X120475520Y-75198994D01*
X120530204Y-75391187D01*
X120530210Y-75391203D01*
X120619280Y-75570080D01*
X120739708Y-75729554D01*
X120739711Y-75729557D01*
X120887392Y-75864187D01*
X120887394Y-75864188D01*
X120887395Y-75864189D01*
X120926490Y-75888396D01*
X121057297Y-75969388D01*
X121057299Y-75969388D01*
X121057301Y-75969390D01*
X121243645Y-76041580D01*
X121440081Y-76078300D01*
X121440086Y-76078300D01*
X121639914Y-76078300D01*
X121639919Y-76078300D01*
X121836355Y-76041580D01*
X122022699Y-75969390D01*
X122192605Y-75864189D01*
X122340288Y-75729558D01*
X122460717Y-75570084D01*
X122549793Y-75391196D01*
X122600763Y-75212054D01*
X122604479Y-75198994D01*
X122604479Y-75198992D01*
X122604481Y-75198986D01*
X122622920Y-75000000D01*
X122621766Y-74987550D01*
X122617749Y-74944200D01*
X122604481Y-74801014D01*
X122604479Y-74801008D01*
X122604479Y-74801005D01*
X122558672Y-74640012D01*
X122549793Y-74608804D01*
X122475387Y-74459377D01*
X122460719Y-74429919D01*
X122340291Y-74270445D01*
X122340288Y-74270442D01*
X122192607Y-74135812D01*
X122022702Y-74030611D01*
X121836356Y-73958420D01*
X121785047Y-73948829D01*
X121639919Y-73921700D01*
X121440081Y-73921700D01*
X121309123Y-73946180D01*
X121243643Y-73958420D01*
X121057298Y-74030611D01*
X121057297Y-74030611D01*
X120887392Y-74135812D01*
X120739711Y-74270442D01*
X120739708Y-74270445D01*
X120619280Y-74429919D01*
X120530210Y-74608796D01*
X120530204Y-74608812D01*
X120475520Y-74801005D01*
X120475519Y-74801014D01*
X120458234Y-74987550D01*
X120457080Y-75000000D01*
X120078299Y-75000000D01*
X120078299Y-74082440D01*
X120067955Y-74030431D01*
X120067954Y-74030428D01*
X120028548Y-73971454D01*
X120028544Y-73971451D01*
X119969569Y-73932045D01*
X119969567Y-73932044D01*
X119963411Y-73927931D01*
X119964831Y-73925804D01*
X119935428Y-73898865D01*
X119928709Y-73847866D01*
X119948952Y-73810964D01*
X120009916Y-73750000D01*
X123494750Y-73750000D01*
X123513670Y-73893709D01*
X123526964Y-73925804D01*
X123569139Y-74027626D01*
X123657378Y-74142621D01*
X123772373Y-74230860D01*
X123772374Y-74230860D01*
X123772375Y-74230861D01*
X123906291Y-74286330D01*
X124050000Y-74305250D01*
X124185842Y-74287365D01*
X124236059Y-74298499D01*
X124248829Y-74308747D01*
X124533474Y-74593391D01*
X124555214Y-74640012D01*
X124555500Y-74646566D01*
X124555500Y-74877482D01*
X124537907Y-74925820D01*
X124493358Y-74951540D01*
X124492063Y-74951756D01*
X124442410Y-74959619D01*
X124325050Y-75019418D01*
X124231918Y-75112550D01*
X124172121Y-75229907D01*
X124156700Y-75327273D01*
X124156700Y-75892718D01*
X124156701Y-75892730D01*
X124172119Y-75990089D01*
X124231918Y-76107449D01*
X124325050Y-76200581D01*
X124325052Y-76200582D01*
X124442407Y-76260378D01*
X124442409Y-76260379D01*
X124539775Y-76275800D01*
X125080224Y-76275799D01*
X125086841Y-76274750D01*
X125177589Y-76260380D01*
X125177593Y-76260378D01*
X125294948Y-76200582D01*
X125388082Y-76107448D01*
X125447879Y-75990091D01*
X125463300Y-75892725D01*
X125463300Y-75814700D01*
X125480893Y-75766362D01*
X125525442Y-75740642D01*
X125538500Y-75739500D01*
X128808003Y-75739500D01*
X128856341Y-75757093D01*
X128882061Y-75801642D01*
X128882277Y-75802937D01*
X128892119Y-75865089D01*
X128951918Y-75982449D01*
X129045050Y-76075581D01*
X129045052Y-76075582D01*
X129162407Y-76135378D01*
X129162409Y-76135379D01*
X129259775Y-76150800D01*
X129800224Y-76150799D01*
X129806841Y-76149750D01*
X129897589Y-76135380D01*
X129897593Y-76135378D01*
X130014948Y-76075582D01*
X130108082Y-75982448D01*
X130167879Y-75865091D01*
X130183300Y-75767725D01*
X130183299Y-75202276D01*
X130181266Y-75189440D01*
X130167880Y-75104910D01*
X130108081Y-74987550D01*
X130014949Y-74894418D01*
X129897591Y-74834621D01*
X129897593Y-74834621D01*
X129848908Y-74826910D01*
X129800225Y-74819200D01*
X129800223Y-74819200D01*
X129259781Y-74819200D01*
X129259769Y-74819201D01*
X129162410Y-74834619D01*
X129045050Y-74894418D01*
X128951918Y-74987550D01*
X128892121Y-75104907D01*
X128882277Y-75167064D01*
X128857339Y-75212054D01*
X128809316Y-75230489D01*
X128808003Y-75230500D01*
X125494263Y-75230500D01*
X125445925Y-75212907D01*
X125427259Y-75189440D01*
X125388081Y-75112550D01*
X125294949Y-75019418D01*
X125177591Y-74959621D01*
X125177593Y-74959621D01*
X125127935Y-74951756D01*
X125082945Y-74926817D01*
X125064511Y-74878794D01*
X125064500Y-74877482D01*
X125064500Y-74459377D01*
X125025755Y-74365837D01*
X125025754Y-74365836D01*
X125025754Y-74365835D01*
X124949887Y-74289968D01*
X124949872Y-74289955D01*
X124608747Y-73948829D01*
X124587008Y-73902209D01*
X124587364Y-73885849D01*
X124605250Y-73750000D01*
X124586330Y-73606291D01*
X124530861Y-73472375D01*
X124530860Y-73472374D01*
X124530860Y-73472373D01*
X124442621Y-73357378D01*
X124327626Y-73269139D01*
X124193711Y-73213671D01*
X124193709Y-73213670D01*
X124050000Y-73194750D01*
X123906291Y-73213670D01*
X123906288Y-73213670D01*
X123906288Y-73213671D01*
X123772373Y-73269139D01*
X123657378Y-73357378D01*
X123569139Y-73472373D01*
X123513671Y-73606288D01*
X123513670Y-73606291D01*
X123494750Y-73750000D01*
X120009916Y-73750000D01*
X120963391Y-72796526D01*
X121010011Y-72774786D01*
X121016565Y-72774500D01*
X131063434Y-72774500D01*
X131111772Y-72792093D01*
X131116608Y-72796526D01*
X132113408Y-73793326D01*
X132135148Y-73839946D01*
X132121834Y-73889633D01*
X132079697Y-73919138D01*
X132060234Y-73921700D01*
X131582440Y-73921700D01*
X131582435Y-73921701D01*
X131530434Y-73932043D01*
X131530428Y-73932045D01*
X131471454Y-73971451D01*
X131432045Y-74030431D01*
X131432044Y-74030432D01*
X131421700Y-74082438D01*
X131421700Y-75917559D01*
X131421701Y-75917564D01*
X131432043Y-75969565D01*
X131432045Y-75969571D01*
X131471451Y-76028545D01*
X131471452Y-76028545D01*
X131471453Y-76028547D01*
X131530431Y-76067955D01*
X131582439Y-76078300D01*
X133417560Y-76078299D01*
X133443942Y-76073052D01*
X133469565Y-76067956D01*
X133469566Y-76067955D01*
X133469569Y-76067955D01*
X133469569Y-76067954D01*
X133469571Y-76067954D01*
X133512626Y-76039185D01*
X133528547Y-76028547D01*
X133567955Y-75969569D01*
X133578300Y-75917561D01*
X133578299Y-74082440D01*
X133567955Y-74030431D01*
X133567954Y-74030428D01*
X133528548Y-73971454D01*
X133528544Y-73971451D01*
X133469569Y-73932045D01*
X133469567Y-73932044D01*
X133417562Y-73921700D01*
X133417561Y-73921700D01*
X132829701Y-73921700D01*
X132781363Y-73904107D01*
X132755643Y-73859558D01*
X132754501Y-73846500D01*
X132754501Y-73763322D01*
X132754500Y-73763308D01*
X132754500Y-73606566D01*
X132772093Y-73558228D01*
X132776526Y-73553392D01*
X133233392Y-73096526D01*
X133280012Y-73074786D01*
X133286566Y-73074500D01*
X135963434Y-73074500D01*
X136011772Y-73092093D01*
X136016608Y-73096526D01*
X136653474Y-73733391D01*
X136675214Y-73780011D01*
X136675500Y-73786565D01*
X136675500Y-83883434D01*
X136657907Y-83931772D01*
X136653474Y-83936608D01*
X133936608Y-86653474D01*
X133889988Y-86675214D01*
X133883434Y-86675500D01*
X133209377Y-86675500D01*
X133115837Y-86714244D01*
X133094602Y-86735480D01*
X133044245Y-86785837D01*
X133044244Y-86785838D01*
X132345260Y-87484821D01*
X132284245Y-87545835D01*
X132245500Y-87639375D01*
X132245143Y-87641173D01*
X132243924Y-87643181D01*
X132242666Y-87646219D01*
X132242198Y-87646025D01*
X132218456Y-87685149D01*
X132171388Y-87701700D01*
X131582440Y-87701700D01*
X131582435Y-87701701D01*
X131530434Y-87712043D01*
X131530428Y-87712045D01*
X131471454Y-87751451D01*
X131432045Y-87810431D01*
X131432044Y-87810432D01*
X131421700Y-87862438D01*
X131421700Y-89697559D01*
X131421701Y-89697564D01*
X131432043Y-89749565D01*
X131432045Y-89749571D01*
X131471451Y-89808545D01*
X131471452Y-89808545D01*
X131471453Y-89808547D01*
X131530431Y-89847955D01*
X131582439Y-89858300D01*
X133417560Y-89858299D01*
X133443564Y-89853127D01*
X133469565Y-89847956D01*
X133469566Y-89847955D01*
X133469569Y-89847955D01*
X133469569Y-89847954D01*
X133469571Y-89847954D01*
X133509043Y-89821579D01*
X133528547Y-89808547D01*
X133567955Y-89749569D01*
X133578300Y-89697561D01*
X133578300Y-88780002D01*
X133957080Y-88780002D01*
X133975519Y-88978985D01*
X133975520Y-88978994D01*
X134030204Y-89171187D01*
X134030210Y-89171203D01*
X134119280Y-89350080D01*
X134239708Y-89509554D01*
X134239711Y-89509557D01*
X134387392Y-89644187D01*
X134557297Y-89749388D01*
X134557299Y-89749388D01*
X134557301Y-89749390D01*
X134743645Y-89821580D01*
X134940081Y-89858300D01*
X134940086Y-89858300D01*
X135139914Y-89858300D01*
X135139919Y-89858300D01*
X135336355Y-89821580D01*
X135522699Y-89749390D01*
X135692605Y-89644189D01*
X135840288Y-89509558D01*
X135960717Y-89350084D01*
X136049793Y-89171196D01*
X136104481Y-88978986D01*
X136120245Y-88808857D01*
X136122920Y-88780002D01*
X136122920Y-88779997D01*
X136115270Y-88697448D01*
X136104481Y-88581014D01*
X136104479Y-88581008D01*
X136104479Y-88581005D01*
X136049795Y-88388812D01*
X136049793Y-88388804D01*
X136026784Y-88342595D01*
X135960719Y-88209919D01*
X135840291Y-88050445D01*
X135840288Y-88050442D01*
X135692607Y-87915812D01*
X135522702Y-87810611D01*
X135336356Y-87738420D01*
X135303615Y-87732300D01*
X135139919Y-87701700D01*
X134940081Y-87701700D01*
X134809123Y-87726180D01*
X134743643Y-87738420D01*
X134557298Y-87810611D01*
X134557297Y-87810611D01*
X134387392Y-87915812D01*
X134239711Y-88050442D01*
X134239708Y-88050445D01*
X134119280Y-88209919D01*
X134030210Y-88388796D01*
X134030204Y-88388812D01*
X133975520Y-88581005D01*
X133975519Y-88581014D01*
X133957080Y-88779997D01*
X133957080Y-88780002D01*
X133578300Y-88780002D01*
X133578299Y-87862440D01*
X133578157Y-87861728D01*
X133567956Y-87810434D01*
X133567954Y-87810428D01*
X133528548Y-87751454D01*
X133528544Y-87751451D01*
X133469569Y-87712045D01*
X133469567Y-87712044D01*
X133417562Y-87701700D01*
X133417561Y-87701700D01*
X133029765Y-87701700D01*
X132981427Y-87684107D01*
X132955707Y-87639558D01*
X132964640Y-87588900D01*
X132976591Y-87573326D01*
X133343391Y-87206526D01*
X133390011Y-87184786D01*
X133396565Y-87184500D01*
X134070622Y-87184500D01*
X134070623Y-87184500D01*
X134164163Y-87145755D01*
X136991126Y-84318789D01*
X137037746Y-84297050D01*
X137087433Y-84310364D01*
X137116938Y-84352501D01*
X137119500Y-84371964D01*
X137119500Y-95164300D01*
X137101907Y-95212638D01*
X137057358Y-95238358D01*
X137044300Y-95239500D01*
X116765700Y-95239500D01*
X116717362Y-95221907D01*
X116691642Y-95177358D01*
X116690500Y-95164300D01*
X116690500Y-93640001D01*
X117066805Y-93640001D01*
X117086351Y-93875892D01*
X117086352Y-93875895D01*
X117144458Y-94105355D01*
X117239542Y-94322123D01*
X117239543Y-94322127D01*
X117369006Y-94520285D01*
X117529320Y-94694433D01*
X117529324Y-94694437D01*
X117716118Y-94839824D01*
X117924286Y-94952479D01*
X117924292Y-94952482D01*
X117924293Y-94952482D01*
X117924299Y-94952485D01*
X118093293Y-95010500D01*
X118148171Y-95029340D01*
X118381648Y-95068300D01*
X118381651Y-95068300D01*
X118618349Y-95068300D01*
X118618352Y-95068300D01*
X118851829Y-95029340D01*
X119003902Y-94977132D01*
X119075700Y-94952485D01*
X119075702Y-94952484D01*
X119075708Y-94952482D01*
X119283883Y-94839823D01*
X119470677Y-94694436D01*
X119630992Y-94520287D01*
X119760457Y-94322125D01*
X119855541Y-94105358D01*
X119913648Y-93875896D01*
X119933195Y-93640001D01*
X133566805Y-93640001D01*
X133586351Y-93875892D01*
X133586352Y-93875895D01*
X133644458Y-94105355D01*
X133739542Y-94322123D01*
X133739543Y-94322127D01*
X133869006Y-94520285D01*
X134029320Y-94694433D01*
X134029324Y-94694437D01*
X134216118Y-94839824D01*
X134424286Y-94952479D01*
X134424292Y-94952482D01*
X134424293Y-94952482D01*
X134424299Y-94952485D01*
X134593293Y-95010500D01*
X134648171Y-95029340D01*
X134881648Y-95068300D01*
X134881651Y-95068300D01*
X135118349Y-95068300D01*
X135118352Y-95068300D01*
X135351829Y-95029340D01*
X135503902Y-94977132D01*
X135575700Y-94952485D01*
X135575702Y-94952484D01*
X135575708Y-94952482D01*
X135783883Y-94839823D01*
X135970677Y-94694436D01*
X136130992Y-94520287D01*
X136260457Y-94322125D01*
X136355541Y-94105358D01*
X136413648Y-93875896D01*
X136433195Y-93640000D01*
X136413648Y-93404104D01*
X136355541Y-93174642D01*
X136260457Y-92957875D01*
X136260456Y-92957874D01*
X136260456Y-92957872D01*
X136130993Y-92759714D01*
X135970679Y-92585566D01*
X135970675Y-92585562D01*
X135783881Y-92440175D01*
X135575713Y-92327520D01*
X135575700Y-92327514D01*
X135351842Y-92250664D01*
X135351836Y-92250662D01*
X135351829Y-92250660D01*
X135351822Y-92250658D01*
X135351819Y-92250658D01*
X135118357Y-92211700D01*
X135118352Y-92211700D01*
X134881648Y-92211700D01*
X134881642Y-92211700D01*
X134648180Y-92250658D01*
X134648174Y-92250659D01*
X134648171Y-92250660D01*
X134648166Y-92250661D01*
X134648157Y-92250664D01*
X134424299Y-92327514D01*
X134424286Y-92327520D01*
X134216118Y-92440175D01*
X134029324Y-92585562D01*
X134029320Y-92585566D01*
X133869006Y-92759714D01*
X133739543Y-92957872D01*
X133739542Y-92957876D01*
X133644458Y-93174644D01*
X133586352Y-93404104D01*
X133586351Y-93404107D01*
X133566805Y-93639998D01*
X133566805Y-93640001D01*
X119933195Y-93640001D01*
X119933195Y-93640000D01*
X119913648Y-93404104D01*
X119855541Y-93174642D01*
X119760457Y-92957875D01*
X119760456Y-92957874D01*
X119760456Y-92957872D01*
X119630993Y-92759714D01*
X119470679Y-92585566D01*
X119470675Y-92585562D01*
X119283881Y-92440175D01*
X119075713Y-92327520D01*
X119075700Y-92327514D01*
X118851842Y-92250664D01*
X118851836Y-92250662D01*
X118851829Y-92250660D01*
X118851822Y-92250658D01*
X118851819Y-92250658D01*
X118618357Y-92211700D01*
X118618352Y-92211700D01*
X118381648Y-92211700D01*
X118381642Y-92211700D01*
X118148180Y-92250658D01*
X118148174Y-92250659D01*
X118148171Y-92250660D01*
X118148166Y-92250661D01*
X118148157Y-92250664D01*
X117924299Y-92327514D01*
X117924286Y-92327520D01*
X117716118Y-92440175D01*
X117529324Y-92585562D01*
X117529320Y-92585566D01*
X117369006Y-92759714D01*
X117239543Y-92957872D01*
X117239542Y-92957876D01*
X117144458Y-93174644D01*
X117086352Y-93404104D01*
X117086351Y-93404107D01*
X117066805Y-93639998D01*
X117066805Y-93640001D01*
X116690500Y-93640001D01*
X116690500Y-89697559D01*
X117921700Y-89697559D01*
X117921701Y-89697564D01*
X117932043Y-89749565D01*
X117932045Y-89749571D01*
X117971451Y-89808545D01*
X117971452Y-89808545D01*
X117971453Y-89808547D01*
X118030431Y-89847955D01*
X118082439Y-89858300D01*
X119917560Y-89858299D01*
X119943564Y-89853127D01*
X119969565Y-89847956D01*
X119969566Y-89847955D01*
X119969569Y-89847955D01*
X119969569Y-89847954D01*
X119969571Y-89847954D01*
X120009043Y-89821579D01*
X120028547Y-89808547D01*
X120067955Y-89749569D01*
X120078300Y-89697561D01*
X120078300Y-88780002D01*
X120457080Y-88780002D01*
X120475519Y-88978985D01*
X120475520Y-88978994D01*
X120530204Y-89171187D01*
X120530210Y-89171203D01*
X120619280Y-89350080D01*
X120739708Y-89509554D01*
X120739711Y-89509557D01*
X120887392Y-89644187D01*
X121057297Y-89749388D01*
X121057299Y-89749388D01*
X121057301Y-89749390D01*
X121243645Y-89821580D01*
X121440081Y-89858300D01*
X121440086Y-89858300D01*
X121639914Y-89858300D01*
X121639919Y-89858300D01*
X121836355Y-89821580D01*
X122022699Y-89749390D01*
X122192605Y-89644189D01*
X122340288Y-89509558D01*
X122380484Y-89456330D01*
X122410289Y-89416862D01*
X122453459Y-89388890D01*
X122504509Y-89395211D01*
X122539552Y-89432868D01*
X122545500Y-89462180D01*
X122545500Y-91060623D01*
X122584244Y-91154162D01*
X122584245Y-91154163D01*
X123204958Y-91774875D01*
X123204971Y-91774890D01*
X123280835Y-91850754D01*
X123280837Y-91850755D01*
X123346975Y-91878149D01*
X123346977Y-91878151D01*
X123346978Y-91878151D01*
X123366352Y-91886176D01*
X123374376Y-91889500D01*
X123374377Y-91889500D01*
X124108003Y-91889500D01*
X124156341Y-91907093D01*
X124182061Y-91951642D01*
X124182277Y-91952937D01*
X124192119Y-92015089D01*
X124251918Y-92132449D01*
X124345050Y-92225581D01*
X124345052Y-92225582D01*
X124462407Y-92285378D01*
X124462409Y-92285379D01*
X124559775Y-92300800D01*
X125100224Y-92300799D01*
X125106841Y-92299750D01*
X125197589Y-92285380D01*
X125265734Y-92250658D01*
X125314948Y-92225582D01*
X125408082Y-92132448D01*
X125467879Y-92015091D01*
X125483300Y-91917725D01*
X125483299Y-91352276D01*
X125483298Y-91352269D01*
X125467880Y-91254910D01*
X125408081Y-91137550D01*
X125314949Y-91044418D01*
X125197591Y-90984621D01*
X125197593Y-90984621D01*
X125148908Y-90976910D01*
X125100225Y-90969200D01*
X125100223Y-90969200D01*
X124559781Y-90969200D01*
X124559769Y-90969201D01*
X124462410Y-90984619D01*
X124345050Y-91044418D01*
X124251918Y-91137550D01*
X124192121Y-91254907D01*
X124182277Y-91317064D01*
X124157339Y-91362054D01*
X124109316Y-91380489D01*
X124108003Y-91380500D01*
X123561565Y-91380500D01*
X123513227Y-91362907D01*
X123508391Y-91358474D01*
X123076526Y-90926608D01*
X123054786Y-90879988D01*
X123054500Y-90873434D01*
X123054500Y-90706492D01*
X123072093Y-90658154D01*
X123116642Y-90632434D01*
X123167300Y-90641367D01*
X123195798Y-90673863D01*
X123196675Y-90673358D01*
X123199138Y-90677625D01*
X123287378Y-90792621D01*
X123402373Y-90880860D01*
X123402374Y-90880860D01*
X123402375Y-90880861D01*
X123536291Y-90936330D01*
X123680000Y-90955250D01*
X123823709Y-90936330D01*
X123957625Y-90880861D01*
X124072621Y-90792621D01*
X124160861Y-90677625D01*
X124216330Y-90543709D01*
X124228267Y-90453036D01*
X124252018Y-90407411D01*
X124299543Y-90387726D01*
X124338921Y-90399576D01*
X124339778Y-90397895D01*
X124382810Y-90419821D01*
X124462407Y-90460378D01*
X124462409Y-90460379D01*
X124559775Y-90475800D01*
X125100224Y-90475799D01*
X125106841Y-90474750D01*
X125197589Y-90460380D01*
X125301545Y-90407411D01*
X125314948Y-90400582D01*
X125408082Y-90307448D01*
X125467879Y-90190091D01*
X125483300Y-90092725D01*
X125483299Y-89527276D01*
X125480493Y-89509557D01*
X125467880Y-89429910D01*
X125408081Y-89312550D01*
X125314949Y-89219418D01*
X125197591Y-89159621D01*
X125197593Y-89159621D01*
X125148908Y-89151910D01*
X125100225Y-89144200D01*
X125100223Y-89144200D01*
X124559781Y-89144200D01*
X124559769Y-89144201D01*
X124462410Y-89159619D01*
X124345050Y-89219418D01*
X124341585Y-89221936D01*
X124292137Y-89236112D01*
X124245146Y-89215186D01*
X124222599Y-89168951D01*
X124227910Y-89132320D01*
X124256330Y-89063709D01*
X124275250Y-88920000D01*
X124256330Y-88776291D01*
X124249379Y-88759511D01*
X124247136Y-88708122D01*
X124278451Y-88667312D01*
X124328672Y-88656178D01*
X124372030Y-88677561D01*
X124445050Y-88750581D01*
X124445052Y-88750582D01*
X124562407Y-88810378D01*
X124562409Y-88810379D01*
X124659775Y-88825800D01*
X125200224Y-88825799D01*
X125206841Y-88824750D01*
X125297589Y-88810380D01*
X125336446Y-88790581D01*
X125414948Y-88750582D01*
X125508082Y-88657448D01*
X125567879Y-88540091D01*
X125583300Y-88442725D01*
X125583299Y-87877276D01*
X125583298Y-87877269D01*
X125567880Y-87779910D01*
X125508081Y-87662550D01*
X125414949Y-87569418D01*
X125297591Y-87509621D01*
X125297593Y-87509621D01*
X125248908Y-87501910D01*
X125200225Y-87494200D01*
X125200223Y-87494200D01*
X124659781Y-87494200D01*
X124659769Y-87494201D01*
X124562410Y-87509619D01*
X124445050Y-87569418D01*
X124351918Y-87662550D01*
X124292121Y-87779907D01*
X124282277Y-87842064D01*
X124257339Y-87887054D01*
X124209316Y-87905489D01*
X124208003Y-87905500D01*
X123129377Y-87905500D01*
X123035837Y-87944244D01*
X123000041Y-87980040D01*
X122964245Y-88015837D01*
X122964244Y-88015838D01*
X122770166Y-88209916D01*
X122637487Y-88342595D01*
X122590867Y-88364334D01*
X122541180Y-88351020D01*
X122516997Y-88322940D01*
X122460718Y-88209917D01*
X122340291Y-88050445D01*
X122340288Y-88050442D01*
X122192607Y-87915812D01*
X122022702Y-87810611D01*
X121836356Y-87738420D01*
X121803615Y-87732300D01*
X121639919Y-87701700D01*
X121440081Y-87701700D01*
X121309123Y-87726180D01*
X121243643Y-87738420D01*
X121057298Y-87810611D01*
X121057297Y-87810611D01*
X120887392Y-87915812D01*
X120739711Y-88050442D01*
X120739708Y-88050445D01*
X120619280Y-88209919D01*
X120530210Y-88388796D01*
X120530204Y-88388812D01*
X120475520Y-88581005D01*
X120475519Y-88581014D01*
X120457080Y-88779997D01*
X120457080Y-88780002D01*
X120078300Y-88780002D01*
X120078299Y-87862440D01*
X120078157Y-87861728D01*
X120067956Y-87810434D01*
X120067954Y-87810428D01*
X120028548Y-87751454D01*
X120028544Y-87751451D01*
X119969569Y-87712045D01*
X119969567Y-87712044D01*
X119917561Y-87701700D01*
X118082440Y-87701700D01*
X118082435Y-87701701D01*
X118030434Y-87712043D01*
X118030428Y-87712045D01*
X117971454Y-87751451D01*
X117932045Y-87810431D01*
X117932044Y-87810432D01*
X117921700Y-87862438D01*
X117921700Y-89697559D01*
X116690500Y-89697559D01*
X116690500Y-84790000D01*
X117947501Y-84790000D01*
X117947501Y-84826641D01*
X117957820Y-84927655D01*
X118012048Y-85091305D01*
X118102552Y-85238034D01*
X118102555Y-85238038D01*
X118224461Y-85359944D01*
X118224465Y-85359947D01*
X118371195Y-85450451D01*
X118371194Y-85450451D01*
X118534847Y-85504679D01*
X118534849Y-85504680D01*
X118635858Y-85514999D01*
X118684999Y-85514998D01*
X118685000Y-85514998D01*
X118685000Y-84790000D01*
X119185000Y-84790000D01*
X119185000Y-85514999D01*
X119234141Y-85514999D01*
X119335155Y-85504679D01*
X119498805Y-85450451D01*
X119645534Y-85359947D01*
X119645538Y-85359944D01*
X119767444Y-85238038D01*
X119767447Y-85238034D01*
X119857951Y-85091305D01*
X119912179Y-84927652D01*
X119912180Y-84927650D01*
X119922500Y-84826640D01*
X119922500Y-84810218D01*
X120094200Y-84810218D01*
X120094201Y-84810230D01*
X120109619Y-84907589D01*
X120169418Y-85024949D01*
X120262550Y-85118081D01*
X120262552Y-85118082D01*
X120379907Y-85177878D01*
X120379909Y-85177879D01*
X120477275Y-85193300D01*
X121042724Y-85193299D01*
X121049341Y-85192250D01*
X121140089Y-85177880D01*
X121140093Y-85177878D01*
X121257448Y-85118082D01*
X121350582Y-85024948D01*
X121410379Y-84907591D01*
X121418243Y-84857936D01*
X121443181Y-84812946D01*
X121491204Y-84794511D01*
X121492517Y-84794500D01*
X121561277Y-84794500D01*
X121609615Y-84812093D01*
X121635335Y-84856642D01*
X121630753Y-84898477D01*
X121573671Y-85036287D01*
X121573671Y-85036288D01*
X121573670Y-85036291D01*
X121554750Y-85180000D01*
X121573670Y-85323709D01*
X121573671Y-85323711D01*
X121629139Y-85457626D01*
X121717378Y-85572621D01*
X121832373Y-85660860D01*
X121832374Y-85660860D01*
X121832375Y-85660861D01*
X121966291Y-85716330D01*
X122110000Y-85735250D01*
X122245842Y-85717365D01*
X122296061Y-85728499D01*
X122308830Y-85738748D01*
X123120834Y-86550753D01*
X123120835Y-86550753D01*
X123120837Y-86550755D01*
X123214377Y-86589501D01*
X123214378Y-86589501D01*
X123324375Y-86589501D01*
X123324383Y-86589500D01*
X124208003Y-86589500D01*
X124256341Y-86607093D01*
X124282061Y-86651642D01*
X124282277Y-86652937D01*
X124292119Y-86715089D01*
X124351918Y-86832449D01*
X124445050Y-86925581D01*
X124445052Y-86925582D01*
X124562407Y-86985378D01*
X124562409Y-86985379D01*
X124659775Y-87000800D01*
X125200224Y-87000799D01*
X125206841Y-86999750D01*
X125297589Y-86985380D01*
X125336446Y-86965581D01*
X125414948Y-86925582D01*
X125508082Y-86832448D01*
X125567879Y-86715091D01*
X125583300Y-86617725D01*
X125583300Y-86425625D01*
X128220500Y-86425625D01*
X128230976Y-86450916D01*
X128236700Y-86479692D01*
X128236700Y-86657717D01*
X128236702Y-86657730D01*
X128252119Y-86755089D01*
X128311918Y-86872449D01*
X128405050Y-86965581D01*
X128405052Y-86965582D01*
X128522407Y-87025378D01*
X128522409Y-87025379D01*
X128619775Y-87040800D01*
X129160224Y-87040799D01*
X129166841Y-87039750D01*
X129257589Y-87025380D01*
X129266515Y-87020832D01*
X129374948Y-86965582D01*
X129468082Y-86872448D01*
X129527879Y-86755091D01*
X129540099Y-86677936D01*
X129565037Y-86632946D01*
X129613061Y-86614511D01*
X129614373Y-86614500D01*
X130590117Y-86614500D01*
X130638455Y-86632093D01*
X130664175Y-86676642D01*
X130655242Y-86727300D01*
X130649776Y-86735480D01*
X130629139Y-86762373D01*
X130573671Y-86896288D01*
X130573670Y-86896291D01*
X130569814Y-86925581D01*
X130557273Y-87020832D01*
X130535890Y-87064190D01*
X129676608Y-87923474D01*
X129629988Y-87945214D01*
X129623434Y-87945500D01*
X129611997Y-87945500D01*
X129563659Y-87927907D01*
X129537939Y-87883358D01*
X129537723Y-87882063D01*
X129527880Y-87819910D01*
X129468081Y-87702550D01*
X129374949Y-87609418D01*
X129257591Y-87549621D01*
X129257593Y-87549621D01*
X129208908Y-87541910D01*
X129160225Y-87534200D01*
X129160223Y-87534200D01*
X128619781Y-87534200D01*
X128619769Y-87534201D01*
X128522410Y-87549619D01*
X128405050Y-87609418D01*
X128311918Y-87702550D01*
X128252121Y-87819907D01*
X128236700Y-87917273D01*
X128236700Y-88482718D01*
X128236701Y-88482730D01*
X128252119Y-88580089D01*
X128311918Y-88697449D01*
X128405050Y-88790581D01*
X128405052Y-88790582D01*
X128522407Y-88850378D01*
X128522409Y-88850379D01*
X128619775Y-88865800D01*
X129160224Y-88865799D01*
X129166841Y-88864750D01*
X129257589Y-88850380D01*
X129257593Y-88850378D01*
X129374948Y-88790582D01*
X129468082Y-88697448D01*
X129527879Y-88580091D01*
X129537723Y-88517935D01*
X129562661Y-88472946D01*
X129610684Y-88454511D01*
X129611997Y-88454500D01*
X129810622Y-88454500D01*
X129810623Y-88454500D01*
X129904163Y-88415755D01*
X130773286Y-87546630D01*
X130819904Y-87524892D01*
X130855235Y-87530330D01*
X130864581Y-87534201D01*
X130966291Y-87576330D01*
X131110000Y-87595250D01*
X131253709Y-87576330D01*
X131387625Y-87520861D01*
X131502621Y-87432621D01*
X131590861Y-87317625D01*
X131646330Y-87183709D01*
X131665250Y-87040000D01*
X131646330Y-86896291D01*
X131590861Y-86762375D01*
X131590860Y-86762374D01*
X131590860Y-86762373D01*
X131502621Y-86647378D01*
X131387626Y-86559139D01*
X131253707Y-86503669D01*
X131248951Y-86502395D01*
X131249525Y-86500251D01*
X131211269Y-86480321D01*
X131191600Y-86432791D01*
X131207084Y-86383737D01*
X131213548Y-86376368D01*
X132172408Y-85417507D01*
X132219027Y-85395768D01*
X132268714Y-85409082D01*
X132271349Y-85411014D01*
X132293783Y-85428228D01*
X132362373Y-85480860D01*
X132362374Y-85480860D01*
X132362375Y-85480861D01*
X132496291Y-85536330D01*
X132640000Y-85555250D01*
X132783709Y-85536330D01*
X132917625Y-85480861D01*
X133032621Y-85392621D01*
X133120861Y-85277625D01*
X133176330Y-85143709D01*
X133195250Y-85000000D01*
X133176330Y-84856291D01*
X133120861Y-84722375D01*
X133120860Y-84722374D01*
X133120860Y-84722373D01*
X133051513Y-84631999D01*
X133036045Y-84582940D01*
X133055729Y-84535416D01*
X133099409Y-84511946D01*
X133125091Y-84507879D01*
X133242448Y-84448082D01*
X133316581Y-84373948D01*
X133363200Y-84352209D01*
X133412888Y-84365522D01*
X133441138Y-84403469D01*
X133447048Y-84421305D01*
X133537552Y-84568034D01*
X133537555Y-84568038D01*
X133659461Y-84689944D01*
X133659465Y-84689947D01*
X133806195Y-84780451D01*
X133806194Y-84780451D01*
X133969847Y-84834679D01*
X133969849Y-84834680D01*
X134070858Y-84844999D01*
X134170000Y-84844999D01*
X134170000Y-84120000D01*
X134670000Y-84120000D01*
X134670000Y-84844999D01*
X134769141Y-84844999D01*
X134870155Y-84834679D01*
X135033805Y-84780451D01*
X135180534Y-84689947D01*
X135180538Y-84689944D01*
X135302444Y-84568038D01*
X135302447Y-84568034D01*
X135392951Y-84421305D01*
X135447179Y-84257652D01*
X135447180Y-84257650D01*
X135457500Y-84156640D01*
X135457500Y-84120000D01*
X134670000Y-84120000D01*
X134170000Y-84120000D01*
X134170000Y-83695200D01*
X134187593Y-83646862D01*
X134232142Y-83621142D01*
X134245200Y-83620000D01*
X135457499Y-83620000D01*
X135457499Y-83583358D01*
X135447179Y-83482344D01*
X135392951Y-83318694D01*
X135302447Y-83171965D01*
X135302444Y-83171961D01*
X135180538Y-83050055D01*
X135180534Y-83050052D01*
X135033804Y-82959548D01*
X135033805Y-82959548D01*
X134985925Y-82943682D01*
X134945575Y-82911777D01*
X134935173Y-82861400D01*
X134956405Y-82819124D01*
X134957445Y-82818083D01*
X134957448Y-82818082D01*
X135050582Y-82724948D01*
X135110379Y-82607591D01*
X135125800Y-82510225D01*
X135125799Y-81969776D01*
X135121483Y-81942522D01*
X135110380Y-81872410D01*
X135050581Y-81755050D01*
X134957449Y-81661918D01*
X134840091Y-81602121D01*
X134840093Y-81602121D01*
X134803363Y-81596303D01*
X134777935Y-81592276D01*
X134732946Y-81567339D01*
X134714511Y-81519316D01*
X134714500Y-81518003D01*
X134714500Y-80906566D01*
X134732093Y-80858228D01*
X134736515Y-80853402D01*
X135045755Y-80544163D01*
X135084500Y-80450623D01*
X135084500Y-80388829D01*
X135102093Y-80340491D01*
X135146642Y-80314771D01*
X135147853Y-80314568D01*
X135190091Y-80307879D01*
X135307448Y-80248082D01*
X135400582Y-80154948D01*
X135460379Y-80037591D01*
X135475800Y-79940225D01*
X135475799Y-79399776D01*
X135475368Y-79397054D01*
X135460380Y-79302410D01*
X135400581Y-79185050D01*
X135307449Y-79091918D01*
X135190091Y-79032121D01*
X135190093Y-79032121D01*
X135141408Y-79024410D01*
X135092725Y-79016700D01*
X135092723Y-79016700D01*
X134527281Y-79016700D01*
X134527269Y-79016701D01*
X134429910Y-79032119D01*
X134312550Y-79091918D01*
X134219418Y-79185050D01*
X134159621Y-79302407D01*
X134144200Y-79399773D01*
X134144200Y-79940218D01*
X134144201Y-79940230D01*
X134159619Y-80037589D01*
X134219418Y-80154949D01*
X134312550Y-80248081D01*
X134425324Y-80305543D01*
X134460406Y-80343164D01*
X134463098Y-80394534D01*
X134444359Y-80425721D01*
X134315837Y-80554245D01*
X134315836Y-80554245D01*
X134244245Y-80625835D01*
X134205500Y-80719376D01*
X134205500Y-81518003D01*
X134187907Y-81566341D01*
X134143358Y-81592061D01*
X134142063Y-81592277D01*
X134079910Y-81602119D01*
X133962550Y-81661918D01*
X133869418Y-81755050D01*
X133809621Y-81872407D01*
X133794200Y-81969773D01*
X133794200Y-81969780D01*
X133794201Y-82513178D01*
X133792852Y-82513178D01*
X133780323Y-82558305D01*
X133772288Y-82567793D01*
X133137396Y-83202684D01*
X133090776Y-83224424D01*
X133072460Y-83223784D01*
X133027725Y-83216700D01*
X132362281Y-83216700D01*
X132362269Y-83216701D01*
X132264910Y-83232119D01*
X132147550Y-83291918D01*
X132054418Y-83385050D01*
X131994621Y-83502407D01*
X131986757Y-83552063D01*
X131961819Y-83597054D01*
X131913796Y-83615489D01*
X131912483Y-83615500D01*
X130522688Y-83615500D01*
X130474350Y-83597907D01*
X130448932Y-83554968D01*
X130448548Y-83553039D01*
X130438205Y-83501031D01*
X130438205Y-83501030D01*
X130438204Y-83501028D01*
X130398798Y-83442054D01*
X130398794Y-83442051D01*
X130339819Y-83402645D01*
X130339817Y-83402644D01*
X130287811Y-83392300D01*
X128792190Y-83392300D01*
X128792185Y-83392301D01*
X128740184Y-83402643D01*
X128740178Y-83402645D01*
X128681204Y-83442051D01*
X128641795Y-83501031D01*
X128641794Y-83501032D01*
X128631450Y-83553038D01*
X128631450Y-84146959D01*
X128631451Y-84146964D01*
X128641793Y-84198965D01*
X128641795Y-84198971D01*
X128681201Y-84257945D01*
X128681202Y-84257945D01*
X128681203Y-84257947D01*
X128740181Y-84297355D01*
X128792189Y-84307700D01*
X129210300Y-84307699D01*
X129258637Y-84325292D01*
X129284358Y-84369840D01*
X129285500Y-84382899D01*
X129285500Y-84553434D01*
X129267907Y-84601772D01*
X129263474Y-84606608D01*
X128745837Y-85124245D01*
X128726373Y-85143709D01*
X128674244Y-85195837D01*
X128635500Y-85289376D01*
X128635500Y-85642482D01*
X128617907Y-85690820D01*
X128573358Y-85716540D01*
X128572063Y-85716756D01*
X128522410Y-85724619D01*
X128405050Y-85784418D01*
X128311918Y-85877550D01*
X128252121Y-85994907D01*
X128236700Y-86092273D01*
X128236700Y-86270307D01*
X128230977Y-86299083D01*
X128220500Y-86324378D01*
X128220500Y-86425625D01*
X125583300Y-86425625D01*
X125583299Y-86052276D01*
X125581887Y-86043358D01*
X125567880Y-85954910D01*
X125508081Y-85837550D01*
X125414949Y-85744418D01*
X125297591Y-85684621D01*
X125297593Y-85684621D01*
X125248908Y-85676910D01*
X125200225Y-85669200D01*
X125200223Y-85669200D01*
X124659781Y-85669200D01*
X124659769Y-85669201D01*
X124562410Y-85684619D01*
X124445050Y-85744418D01*
X124351918Y-85837550D01*
X124292121Y-85954907D01*
X124282277Y-86017064D01*
X124257339Y-86062054D01*
X124209316Y-86080489D01*
X124208003Y-86080500D01*
X123401566Y-86080500D01*
X123353228Y-86062907D01*
X123348392Y-86058474D01*
X122668748Y-85378830D01*
X122647008Y-85332210D01*
X122647364Y-85315849D01*
X122665250Y-85180000D01*
X122646330Y-85036291D01*
X122590861Y-84902375D01*
X122590860Y-84902374D01*
X122590860Y-84902373D01*
X122502621Y-84787378D01*
X122387626Y-84699139D01*
X122253711Y-84643671D01*
X122253709Y-84643670D01*
X122138665Y-84628523D01*
X122124364Y-84626641D01*
X122078736Y-84602888D01*
X122059052Y-84555364D01*
X122074520Y-84506305D01*
X122080989Y-84498927D01*
X122415755Y-84164163D01*
X122442332Y-84100000D01*
X122861450Y-84100000D01*
X122861450Y-84177231D01*
X122867851Y-84236774D01*
X122867852Y-84236777D01*
X122918098Y-84371490D01*
X122918099Y-84371492D01*
X123004260Y-84486589D01*
X123119357Y-84572750D01*
X123119359Y-84572751D01*
X123254072Y-84622997D01*
X123254075Y-84622998D01*
X123313618Y-84629399D01*
X123313630Y-84629400D01*
X123841700Y-84629400D01*
X123841700Y-84100000D01*
X124341700Y-84100000D01*
X124341700Y-84629400D01*
X124869770Y-84629400D01*
X124869781Y-84629399D01*
X124929324Y-84622998D01*
X124929327Y-84622997D01*
X125064040Y-84572751D01*
X125064042Y-84572750D01*
X125179139Y-84486589D01*
X125265300Y-84371492D01*
X125265301Y-84371490D01*
X125315547Y-84236777D01*
X125315548Y-84236774D01*
X125321949Y-84177231D01*
X125321950Y-84177220D01*
X125321950Y-84100000D01*
X124341700Y-84100000D01*
X123841700Y-84100000D01*
X122861450Y-84100000D01*
X122442332Y-84100000D01*
X122454500Y-84070623D01*
X122454500Y-83969377D01*
X122454500Y-83246565D01*
X122472093Y-83198227D01*
X122476526Y-83193391D01*
X122813391Y-82856526D01*
X122860011Y-82834786D01*
X122866565Y-82834500D01*
X123112990Y-82834500D01*
X123161328Y-82852093D01*
X123186744Y-82895030D01*
X123190076Y-82911777D01*
X123193495Y-82928969D01*
X123193495Y-82928971D01*
X123231957Y-82986532D01*
X123244184Y-83036498D01*
X123221433Y-83082633D01*
X123195711Y-83098769D01*
X123119365Y-83127244D01*
X123119357Y-83127249D01*
X123004260Y-83213410D01*
X122918099Y-83328507D01*
X122918098Y-83328509D01*
X122867852Y-83463222D01*
X122867851Y-83463225D01*
X122861450Y-83522768D01*
X122861450Y-83600000D01*
X125321950Y-83600000D01*
X125321950Y-83522780D01*
X125321949Y-83522768D01*
X125315548Y-83463225D01*
X125315547Y-83463222D01*
X125265301Y-83328509D01*
X125265300Y-83328507D01*
X125179139Y-83213410D01*
X125064042Y-83127249D01*
X125064040Y-83127248D01*
X124987688Y-83098770D01*
X124948547Y-83065393D01*
X124940016Y-83014665D01*
X124951442Y-82986532D01*
X124989905Y-82928969D01*
X125000250Y-82876961D01*
X125000249Y-82580000D01*
X125644750Y-82580000D01*
X125663670Y-82723709D01*
X125679918Y-82762936D01*
X125719139Y-82857626D01*
X125807378Y-82972621D01*
X125922373Y-83060860D01*
X125922374Y-83060860D01*
X125922375Y-83060861D01*
X126056291Y-83116330D01*
X126200000Y-83135250D01*
X126343709Y-83116330D01*
X126477625Y-83060861D01*
X126592621Y-82972621D01*
X126626118Y-82928967D01*
X126676030Y-82863921D01*
X126719414Y-82836283D01*
X126735690Y-82834500D01*
X128499377Y-82834500D01*
X128561290Y-82834500D01*
X128609628Y-82852093D01*
X128635044Y-82895030D01*
X128638376Y-82911777D01*
X128641795Y-82928969D01*
X128641795Y-82928971D01*
X128681201Y-82987945D01*
X128681202Y-82987945D01*
X128681203Y-82987947D01*
X128740181Y-83027355D01*
X128792189Y-83037700D01*
X130287810Y-83037699D01*
X130313814Y-83032527D01*
X130339815Y-83027356D01*
X130339816Y-83027355D01*
X130339819Y-83027355D01*
X130339819Y-83027354D01*
X130339821Y-83027354D01*
X130369308Y-83007651D01*
X130398797Y-82987947D01*
X130438205Y-82928969D01*
X130444956Y-82895028D01*
X130471642Y-82851053D01*
X130518711Y-82834500D01*
X131400622Y-82834500D01*
X131400623Y-82834500D01*
X131494163Y-82795755D01*
X131773392Y-82516525D01*
X131820012Y-82494786D01*
X131826566Y-82494500D01*
X131902483Y-82494500D01*
X131950821Y-82512093D01*
X131976541Y-82556642D01*
X131976757Y-82557938D01*
X131984619Y-82607589D01*
X132044418Y-82724949D01*
X132137550Y-82818081D01*
X132137552Y-82818082D01*
X132254907Y-82877878D01*
X132254909Y-82877879D01*
X132352275Y-82893300D01*
X132917724Y-82893299D01*
X132926924Y-82891842D01*
X133015089Y-82877880D01*
X133042485Y-82863921D01*
X133132448Y-82818082D01*
X133225582Y-82724948D01*
X133285379Y-82607591D01*
X133300800Y-82510225D01*
X133300799Y-81969776D01*
X133296483Y-81942522D01*
X133285380Y-81872410D01*
X133225581Y-81755050D01*
X133132449Y-81661918D01*
X133015091Y-81602121D01*
X133015093Y-81602121D01*
X132952937Y-81592277D01*
X132917725Y-81586700D01*
X132917723Y-81586700D01*
X132352281Y-81586700D01*
X132352269Y-81586701D01*
X132254910Y-81602119D01*
X132137550Y-81661918D01*
X132044418Y-81755050D01*
X131984621Y-81872407D01*
X131976757Y-81922063D01*
X131951819Y-81967054D01*
X131903796Y-81985489D01*
X131902483Y-81985500D01*
X131789726Y-81985500D01*
X131760949Y-81979776D01*
X131750624Y-81975499D01*
X131750623Y-81975499D01*
X131649377Y-81975499D01*
X131625233Y-81985500D01*
X131555836Y-82014245D01*
X131470943Y-82099139D01*
X131266607Y-82303474D01*
X131219988Y-82325214D01*
X131213434Y-82325500D01*
X130518710Y-82325500D01*
X130470372Y-82307907D01*
X130444955Y-82264969D01*
X130438205Y-82231031D01*
X130438204Y-82231029D01*
X130438204Y-82231028D01*
X130398798Y-82172054D01*
X130398794Y-82172051D01*
X130339819Y-82132645D01*
X130339817Y-82132644D01*
X130287811Y-82122300D01*
X128792190Y-82122300D01*
X128792185Y-82122301D01*
X128740184Y-82132643D01*
X128740178Y-82132645D01*
X128681204Y-82172051D01*
X128641795Y-82231031D01*
X128641794Y-82231032D01*
X128635044Y-82264971D01*
X128608358Y-82308947D01*
X128561289Y-82325500D01*
X126735690Y-82325500D01*
X126687352Y-82307907D01*
X126676030Y-82296079D01*
X126592621Y-82187378D01*
X126477626Y-82099139D01*
X126369030Y-82054158D01*
X126343709Y-82043670D01*
X126200000Y-82024750D01*
X126056291Y-82043670D01*
X126056288Y-82043670D01*
X126056288Y-82043671D01*
X125922373Y-82099139D01*
X125807378Y-82187378D01*
X125719139Y-82302373D01*
X125663671Y-82436288D01*
X125663670Y-82436291D01*
X125644750Y-82580000D01*
X125000249Y-82580000D01*
X125000249Y-82283040D01*
X124989905Y-82231031D01*
X124989904Y-82231028D01*
X124950498Y-82172054D01*
X124950494Y-82172051D01*
X124891519Y-82132645D01*
X124891517Y-82132644D01*
X124839511Y-82122300D01*
X123343890Y-82122300D01*
X123343885Y-82122301D01*
X123291884Y-82132643D01*
X123291878Y-82132645D01*
X123232904Y-82172051D01*
X123193495Y-82231031D01*
X123193494Y-82231032D01*
X123186744Y-82264971D01*
X123160058Y-82308947D01*
X123112989Y-82325500D01*
X122679377Y-82325500D01*
X122585837Y-82364244D01*
X122550041Y-82400040D01*
X122514245Y-82435837D01*
X122514244Y-82435838D01*
X122045260Y-82904821D01*
X121984245Y-82965835D01*
X121945500Y-83059376D01*
X121945500Y-83883434D01*
X121927907Y-83931772D01*
X121923474Y-83936608D01*
X121596608Y-84263474D01*
X121549988Y-84285214D01*
X121543434Y-84285500D01*
X121492517Y-84285500D01*
X121444179Y-84267907D01*
X121418459Y-84223358D01*
X121418243Y-84222062D01*
X121410380Y-84172410D01*
X121350581Y-84055050D01*
X121257449Y-83961918D01*
X121140091Y-83902121D01*
X121140093Y-83902121D01*
X121091408Y-83894410D01*
X121042725Y-83886700D01*
X121042723Y-83886700D01*
X120477281Y-83886700D01*
X120477269Y-83886701D01*
X120379910Y-83902119D01*
X120262550Y-83961918D01*
X120169418Y-84055050D01*
X120109621Y-84172407D01*
X120094200Y-84269773D01*
X120094200Y-84810218D01*
X119922500Y-84810218D01*
X119922500Y-84790000D01*
X119185000Y-84790000D01*
X118685000Y-84790000D01*
X117947501Y-84790000D01*
X116690500Y-84790000D01*
X116690500Y-84290000D01*
X117947500Y-84290000D01*
X118685000Y-84290000D01*
X118685000Y-83565000D01*
X119185000Y-83565000D01*
X119185000Y-84290000D01*
X119922499Y-84290000D01*
X119922499Y-84253358D01*
X119912179Y-84152344D01*
X119857951Y-83988694D01*
X119767447Y-83841965D01*
X119767444Y-83841961D01*
X119645538Y-83720055D01*
X119645534Y-83720052D01*
X119498804Y-83629548D01*
X119498805Y-83629548D01*
X119335152Y-83575320D01*
X119335150Y-83575319D01*
X119234141Y-83565000D01*
X119185000Y-83565000D01*
X118685000Y-83565000D01*
X118685000Y-83564999D01*
X118635859Y-83565000D01*
X118534844Y-83575320D01*
X118371194Y-83629548D01*
X118224465Y-83720052D01*
X118224461Y-83720055D01*
X118102555Y-83841961D01*
X118102552Y-83841965D01*
X118012048Y-83988694D01*
X117957820Y-84152347D01*
X117957819Y-84152349D01*
X117947500Y-84253359D01*
X117947500Y-84290000D01*
X116690500Y-84290000D01*
X116690500Y-82508146D01*
X116708093Y-82459808D01*
X116752642Y-82434088D01*
X116803300Y-82443021D01*
X116824923Y-82464647D01*
X116826138Y-82463715D01*
X116917378Y-82582621D01*
X117032373Y-82670860D01*
X117032374Y-82670860D01*
X117032375Y-82670861D01*
X117166291Y-82726330D01*
X117310000Y-82745250D01*
X117453709Y-82726330D01*
X117587625Y-82670861D01*
X117702621Y-82582621D01*
X117790861Y-82467625D01*
X117846330Y-82333709D01*
X117865250Y-82190000D01*
X117847365Y-82054155D01*
X117858499Y-82003937D01*
X117868739Y-81991177D01*
X118273393Y-81586524D01*
X118320012Y-81564786D01*
X118326566Y-81564500D01*
X123112990Y-81564500D01*
X123161328Y-81582093D01*
X123186744Y-81625030D01*
X123191239Y-81647625D01*
X123193495Y-81658969D01*
X123193495Y-81658971D01*
X123232901Y-81717945D01*
X123232902Y-81717945D01*
X123232903Y-81717947D01*
X123291881Y-81757355D01*
X123343889Y-81767700D01*
X124839510Y-81767699D01*
X124865514Y-81762527D01*
X124891515Y-81757356D01*
X124891516Y-81757355D01*
X124891519Y-81757355D01*
X124891519Y-81757354D01*
X124891521Y-81757354D01*
X124921008Y-81737651D01*
X124950497Y-81717947D01*
X124989905Y-81658969D01*
X124996656Y-81625028D01*
X125023342Y-81581053D01*
X125070411Y-81564500D01*
X125148603Y-81564500D01*
X125196941Y-81582093D01*
X125218079Y-81610923D01*
X125229139Y-81637626D01*
X125317378Y-81752621D01*
X125432373Y-81840860D01*
X125432374Y-81840860D01*
X125432375Y-81840861D01*
X125566291Y-81896330D01*
X125710000Y-81915250D01*
X125853709Y-81896330D01*
X125987625Y-81840861D01*
X126102621Y-81752621D01*
X126190861Y-81637625D01*
X126246330Y-81503709D01*
X126263933Y-81370000D01*
X126974750Y-81370000D01*
X126993670Y-81513709D01*
X127009918Y-81552936D01*
X127049139Y-81647626D01*
X127137378Y-81762621D01*
X127252373Y-81850860D01*
X127252374Y-81850860D01*
X127252375Y-81850861D01*
X127386291Y-81906330D01*
X127530000Y-81925250D01*
X127673709Y-81906330D01*
X127807625Y-81850861D01*
X127922621Y-81762621D01*
X128010861Y-81647625D01*
X128026063Y-81610922D01*
X128060814Y-81572997D01*
X128095539Y-81564500D01*
X128561290Y-81564500D01*
X128609628Y-81582093D01*
X128635044Y-81625030D01*
X128639539Y-81647625D01*
X128641795Y-81658969D01*
X128641795Y-81658971D01*
X128681201Y-81717945D01*
X128681202Y-81717945D01*
X128681203Y-81717947D01*
X128740181Y-81757355D01*
X128792189Y-81767700D01*
X130287810Y-81767699D01*
X130313814Y-81762527D01*
X130339815Y-81757356D01*
X130339816Y-81757355D01*
X130339819Y-81757355D01*
X130339819Y-81757354D01*
X130339821Y-81757354D01*
X130369308Y-81737651D01*
X130398797Y-81717947D01*
X130438205Y-81658969D01*
X130448550Y-81606961D01*
X130448549Y-81013040D01*
X130444955Y-80994968D01*
X130438206Y-80961034D01*
X130438204Y-80961028D01*
X130398798Y-80902054D01*
X130398794Y-80902051D01*
X130339819Y-80862645D01*
X130339817Y-80862644D01*
X130287811Y-80852300D01*
X128792190Y-80852300D01*
X128792185Y-80852301D01*
X128740184Y-80862643D01*
X128740178Y-80862645D01*
X128681204Y-80902051D01*
X128641795Y-80961031D01*
X128641794Y-80961032D01*
X128635044Y-80994971D01*
X128608358Y-81038947D01*
X128561289Y-81055500D01*
X128019650Y-81055500D01*
X127971312Y-81037907D01*
X127959995Y-81026085D01*
X127922621Y-80977379D01*
X127901320Y-80961034D01*
X127807626Y-80889139D01*
X127673711Y-80833671D01*
X127673709Y-80833670D01*
X127530000Y-80814750D01*
X127386291Y-80833670D01*
X127386288Y-80833670D01*
X127386288Y-80833671D01*
X127252373Y-80889139D01*
X127137378Y-80977378D01*
X127049139Y-81092373D01*
X126997813Y-81216288D01*
X126993670Y-81226291D01*
X126974750Y-81370000D01*
X126263933Y-81370000D01*
X126265250Y-81360000D01*
X126246330Y-81216291D01*
X126190861Y-81082375D01*
X126190860Y-81082374D01*
X126190860Y-81082373D01*
X126102621Y-80967378D01*
X125987626Y-80879139D01*
X125853711Y-80823671D01*
X125853709Y-80823670D01*
X125710000Y-80804750D01*
X125566291Y-80823670D01*
X125566288Y-80823670D01*
X125566288Y-80823671D01*
X125432373Y-80879139D01*
X125317378Y-80967378D01*
X125272337Y-81026079D01*
X125228954Y-81053717D01*
X125212677Y-81055500D01*
X125070410Y-81055500D01*
X125022072Y-81037907D01*
X124996655Y-80994969D01*
X124989905Y-80961031D01*
X124989904Y-80961029D01*
X124989904Y-80961028D01*
X124950498Y-80902054D01*
X124950494Y-80902051D01*
X124891519Y-80862645D01*
X124891517Y-80862644D01*
X124839511Y-80852300D01*
X123343890Y-80852300D01*
X123343885Y-80852301D01*
X123291884Y-80862643D01*
X123291878Y-80862645D01*
X123232904Y-80902051D01*
X123193495Y-80961031D01*
X123193494Y-80961032D01*
X123186744Y-80994971D01*
X123160058Y-81038947D01*
X123112989Y-81055500D01*
X118249383Y-81055500D01*
X118249375Y-81055499D01*
X118240623Y-81055499D01*
X118139377Y-81055499D01*
X118080390Y-81079932D01*
X118045834Y-81094246D01*
X117508829Y-81631251D01*
X117462209Y-81652991D01*
X117445840Y-81652634D01*
X117310000Y-81634750D01*
X117166291Y-81653670D01*
X117166288Y-81653670D01*
X117166288Y-81653671D01*
X117032373Y-81709139D01*
X116917378Y-81797378D01*
X116826138Y-81916285D01*
X116824335Y-81914902D01*
X116791408Y-81942522D01*
X116739968Y-81942513D01*
X116700568Y-81909442D01*
X116690500Y-81871853D01*
X116690500Y-79694407D01*
X116708093Y-79646069D01*
X116752642Y-79620349D01*
X116803300Y-79629282D01*
X116835176Y-79665630D01*
X116869139Y-79747626D01*
X116957378Y-79862621D01*
X117072373Y-79950860D01*
X117072374Y-79950860D01*
X117072375Y-79950861D01*
X117206291Y-80006330D01*
X117350000Y-80025250D01*
X117493709Y-80006330D01*
X117627625Y-79950861D01*
X117742621Y-79862621D01*
X117830861Y-79747625D01*
X117886330Y-79613709D01*
X117905250Y-79470000D01*
X117899920Y-79429515D01*
X117911054Y-79379295D01*
X117951864Y-79347980D01*
X117974477Y-79344500D01*
X118172483Y-79344500D01*
X118220821Y-79362093D01*
X118246541Y-79406642D01*
X118246757Y-79407938D01*
X118254619Y-79457589D01*
X118314418Y-79574949D01*
X118407550Y-79668081D01*
X118407552Y-79668082D01*
X118524907Y-79727878D01*
X118524909Y-79727879D01*
X118622275Y-79743300D01*
X119187724Y-79743299D01*
X119194341Y-79742250D01*
X119285089Y-79727880D01*
X119290804Y-79724968D01*
X119402448Y-79668082D01*
X119495582Y-79574948D01*
X119555379Y-79457591D01*
X119570800Y-79360225D01*
X119570800Y-79360218D01*
X120064200Y-79360218D01*
X120064201Y-79360230D01*
X120079619Y-79457589D01*
X120139418Y-79574949D01*
X120232550Y-79668081D01*
X120232552Y-79668082D01*
X120349907Y-79727878D01*
X120349909Y-79727879D01*
X120447275Y-79743300D01*
X121012724Y-79743299D01*
X121019341Y-79742250D01*
X121110089Y-79727880D01*
X121115804Y-79724968D01*
X121227448Y-79668082D01*
X121309632Y-79585897D01*
X121356251Y-79564158D01*
X121405939Y-79577472D01*
X121415980Y-79585898D01*
X122085834Y-80255753D01*
X122085835Y-80255753D01*
X122085837Y-80255755D01*
X122179377Y-80294501D01*
X122179378Y-80294501D01*
X122289375Y-80294501D01*
X122289383Y-80294500D01*
X123112990Y-80294500D01*
X123161328Y-80312093D01*
X123186744Y-80355030D01*
X123189906Y-80370923D01*
X123193495Y-80388969D01*
X123193495Y-80388971D01*
X123232901Y-80447945D01*
X123232902Y-80447945D01*
X123232903Y-80447947D01*
X123291881Y-80487355D01*
X123343889Y-80497700D01*
X124839510Y-80497699D01*
X124865514Y-80492527D01*
X124891515Y-80487356D01*
X124891516Y-80487355D01*
X124891519Y-80487355D01*
X124891519Y-80487354D01*
X124891521Y-80487354D01*
X124946492Y-80450623D01*
X124950497Y-80447947D01*
X124989905Y-80388969D01*
X125000250Y-80336961D01*
X125000250Y-80130000D01*
X126584750Y-80130000D01*
X126603670Y-80273709D01*
X126603671Y-80273711D01*
X126659139Y-80407626D01*
X126747378Y-80522621D01*
X126862373Y-80610860D01*
X126862374Y-80610860D01*
X126862375Y-80610861D01*
X126996291Y-80666330D01*
X127140000Y-80685250D01*
X127283709Y-80666330D01*
X127417625Y-80610861D01*
X127532621Y-80522621D01*
X127620861Y-80407625D01*
X127636063Y-80370922D01*
X127670814Y-80332997D01*
X127705539Y-80324500D01*
X128567256Y-80324500D01*
X128615594Y-80342093D01*
X128641012Y-80385032D01*
X128641795Y-80388969D01*
X128641795Y-80388971D01*
X128681201Y-80447945D01*
X128681202Y-80447945D01*
X128681203Y-80447947D01*
X128740181Y-80487355D01*
X128792189Y-80497700D01*
X130287810Y-80497699D01*
X130313814Y-80492527D01*
X130339815Y-80487356D01*
X130339816Y-80487355D01*
X130339819Y-80487355D01*
X130339819Y-80487354D01*
X130339821Y-80487354D01*
X130394792Y-80450623D01*
X130398797Y-80447947D01*
X130438205Y-80388969D01*
X130444956Y-80355028D01*
X130471642Y-80311053D01*
X130518711Y-80294500D01*
X131700622Y-80294500D01*
X131700623Y-80294500D01*
X131794163Y-80255755D01*
X132103392Y-79946525D01*
X132150012Y-79924786D01*
X132156566Y-79924500D01*
X132252483Y-79924500D01*
X132300821Y-79942093D01*
X132326541Y-79986642D01*
X132326757Y-79987938D01*
X132334619Y-80037589D01*
X132394418Y-80154949D01*
X132487550Y-80248081D01*
X132487552Y-80248082D01*
X132604907Y-80307878D01*
X132604909Y-80307879D01*
X132702275Y-80323300D01*
X133267724Y-80323299D01*
X133274341Y-80322250D01*
X133365089Y-80307880D01*
X133369676Y-80305543D01*
X133482448Y-80248082D01*
X133575582Y-80154948D01*
X133635379Y-80037591D01*
X133650800Y-79940225D01*
X133650799Y-79399776D01*
X133650368Y-79397054D01*
X133635380Y-79302410D01*
X133575581Y-79185050D01*
X133482449Y-79091918D01*
X133365091Y-79032121D01*
X133365093Y-79032121D01*
X133316408Y-79024410D01*
X133267725Y-79016700D01*
X133267723Y-79016700D01*
X132702281Y-79016700D01*
X132702269Y-79016701D01*
X132604910Y-79032119D01*
X132487550Y-79091918D01*
X132394418Y-79185050D01*
X132334621Y-79302407D01*
X132334621Y-79302409D01*
X132327404Y-79347980D01*
X132326757Y-79352063D01*
X132301819Y-79397054D01*
X132253796Y-79415489D01*
X132252483Y-79415500D01*
X131969377Y-79415500D01*
X131875837Y-79454244D01*
X131774644Y-79555438D01*
X131566607Y-79763474D01*
X131519988Y-79785214D01*
X131513434Y-79785500D01*
X130518710Y-79785500D01*
X130470372Y-79767907D01*
X130444955Y-79724969D01*
X130438205Y-79691031D01*
X130438204Y-79691029D01*
X130438204Y-79691028D01*
X130398798Y-79632054D01*
X130398794Y-79632051D01*
X130339819Y-79592645D01*
X130339817Y-79592644D01*
X130287811Y-79582300D01*
X128792190Y-79582300D01*
X128792185Y-79582301D01*
X128740184Y-79592643D01*
X128740178Y-79592645D01*
X128681204Y-79632051D01*
X128641795Y-79691031D01*
X128641794Y-79691032D01*
X128631449Y-79743039D01*
X128631088Y-79746714D01*
X128629183Y-79746526D01*
X128613857Y-79788638D01*
X128569308Y-79814358D01*
X128556250Y-79815500D01*
X127629650Y-79815500D01*
X127581312Y-79797907D01*
X127569995Y-79786085D01*
X127532621Y-79737379D01*
X127520242Y-79727880D01*
X127417626Y-79649139D01*
X127283711Y-79593671D01*
X127283709Y-79593670D01*
X127140000Y-79574750D01*
X126996291Y-79593670D01*
X126996288Y-79593670D01*
X126996288Y-79593671D01*
X126862373Y-79649139D01*
X126747378Y-79737378D01*
X126659139Y-79852373D01*
X126618345Y-79950861D01*
X126603670Y-79986291D01*
X126584750Y-80130000D01*
X125000250Y-80130000D01*
X125000249Y-79743040D01*
X124997234Y-79727879D01*
X124989906Y-79691034D01*
X124989904Y-79691028D01*
X124950498Y-79632054D01*
X124950494Y-79632051D01*
X124891519Y-79592645D01*
X124891517Y-79592644D01*
X124839512Y-79582300D01*
X124839511Y-79582300D01*
X124529165Y-79582300D01*
X124480827Y-79564707D01*
X124455107Y-79520158D01*
X124464040Y-79469500D01*
X124475986Y-79453930D01*
X124853393Y-79076524D01*
X124900012Y-79054786D01*
X124906566Y-79054500D01*
X124974310Y-79054500D01*
X125022648Y-79072093D01*
X125033970Y-79083921D01*
X125117378Y-79192621D01*
X125232373Y-79280860D01*
X125232374Y-79280860D01*
X125232375Y-79280861D01*
X125366291Y-79336330D01*
X125510000Y-79355250D01*
X125653709Y-79336330D01*
X125787625Y-79280861D01*
X125902621Y-79192621D01*
X125990861Y-79077625D01*
X126046330Y-78943709D01*
X126065250Y-78800000D01*
X126046330Y-78656291D01*
X125990861Y-78522375D01*
X125990860Y-78522374D01*
X125990860Y-78522373D01*
X125902621Y-78407378D01*
X125787626Y-78319139D01*
X125653711Y-78263671D01*
X125653709Y-78263670D01*
X125510000Y-78244750D01*
X125366291Y-78263670D01*
X125366288Y-78263670D01*
X125366288Y-78263671D01*
X125232373Y-78319139D01*
X125117378Y-78407378D01*
X125033970Y-78516079D01*
X124990586Y-78543717D01*
X124974310Y-78545500D01*
X124719377Y-78545500D01*
X124625835Y-78584245D01*
X124025032Y-79185050D01*
X123947537Y-79262545D01*
X123929222Y-79280860D01*
X123875944Y-79334137D01*
X123837200Y-79427676D01*
X123837200Y-79507100D01*
X123819607Y-79555438D01*
X123775058Y-79581158D01*
X123762000Y-79582300D01*
X123343890Y-79582300D01*
X123343885Y-79582301D01*
X123291884Y-79592643D01*
X123291878Y-79592645D01*
X123232904Y-79632051D01*
X123193495Y-79691031D01*
X123193494Y-79691032D01*
X123186744Y-79724971D01*
X123160058Y-79768947D01*
X123112989Y-79785500D01*
X122366566Y-79785500D01*
X122318228Y-79767907D01*
X122313392Y-79763474D01*
X121418926Y-78869007D01*
X121421177Y-78866755D01*
X121398658Y-78836039D01*
X121395886Y-78820895D01*
X121395799Y-78819799D01*
X121395799Y-78819776D01*
X121388243Y-78772063D01*
X121380380Y-78722410D01*
X121320581Y-78605050D01*
X121227449Y-78511918D01*
X121110091Y-78452121D01*
X121110093Y-78452121D01*
X121061408Y-78444410D01*
X121012725Y-78436700D01*
X121012723Y-78436700D01*
X120447281Y-78436700D01*
X120447269Y-78436701D01*
X120349910Y-78452119D01*
X120232550Y-78511918D01*
X120139418Y-78605050D01*
X120079621Y-78722407D01*
X120064200Y-78819773D01*
X120064200Y-79360218D01*
X119570800Y-79360218D01*
X119570799Y-78819776D01*
X119563243Y-78772063D01*
X119555380Y-78722410D01*
X119495581Y-78605050D01*
X119402449Y-78511918D01*
X119285091Y-78452121D01*
X119285093Y-78452121D01*
X119236408Y-78444410D01*
X119187725Y-78436700D01*
X119187723Y-78436700D01*
X118622281Y-78436700D01*
X118622269Y-78436701D01*
X118524910Y-78452119D01*
X118407550Y-78511918D01*
X118314418Y-78605050D01*
X118254621Y-78722407D01*
X118246757Y-78772063D01*
X118221819Y-78817054D01*
X118173796Y-78835489D01*
X118172483Y-78835500D01*
X117679377Y-78835500D01*
X117585837Y-78874244D01*
X117548827Y-78911253D01*
X117502206Y-78932991D01*
X117485840Y-78932634D01*
X117350000Y-78914750D01*
X117206291Y-78933670D01*
X117206288Y-78933670D01*
X117206288Y-78933671D01*
X117072373Y-78989139D01*
X116957378Y-79077378D01*
X116869140Y-79192372D01*
X116835176Y-79274370D01*
X116800424Y-79312295D01*
X116749424Y-79319010D01*
X116706040Y-79291371D01*
X116690500Y-79245592D01*
X116690500Y-77320000D01*
X122824750Y-77320000D01*
X122843670Y-77463709D01*
X122843671Y-77463711D01*
X122899139Y-77597626D01*
X122987378Y-77712621D01*
X123102373Y-77800860D01*
X123102374Y-77800860D01*
X123102375Y-77800861D01*
X123236291Y-77856330D01*
X123380000Y-77875250D01*
X123523709Y-77856330D01*
X123657625Y-77800861D01*
X123772621Y-77712621D01*
X123830922Y-77636642D01*
X123856030Y-77603921D01*
X123899414Y-77576283D01*
X123915690Y-77574500D01*
X124081501Y-77574500D01*
X124129839Y-77592093D01*
X124155559Y-77636642D01*
X124156701Y-77649700D01*
X124156701Y-77717730D01*
X124172119Y-77815089D01*
X124231918Y-77932449D01*
X124325050Y-78025581D01*
X124325052Y-78025582D01*
X124442407Y-78085378D01*
X124442409Y-78085379D01*
X124539775Y-78100800D01*
X125080224Y-78100799D01*
X125086841Y-78099750D01*
X125177589Y-78085380D01*
X125177593Y-78085378D01*
X125294948Y-78025582D01*
X125388082Y-77932448D01*
X125447879Y-77815091D01*
X125463300Y-77717725D01*
X125463300Y-77592718D01*
X128876700Y-77592718D01*
X128876701Y-77592730D01*
X128892119Y-77690089D01*
X128951918Y-77807449D01*
X129045050Y-77900581D01*
X129045052Y-77900582D01*
X129162407Y-77960378D01*
X129162409Y-77960379D01*
X129259775Y-77975800D01*
X129800224Y-77975799D01*
X129806841Y-77974750D01*
X129897589Y-77960380D01*
X129952408Y-77932448D01*
X130014948Y-77900582D01*
X130108082Y-77807448D01*
X130167879Y-77690091D01*
X130177723Y-77627935D01*
X130202661Y-77582946D01*
X130250684Y-77564511D01*
X130251997Y-77564500D01*
X134100622Y-77564500D01*
X134100623Y-77564500D01*
X134194163Y-77525755D01*
X135184161Y-76535755D01*
X135184163Y-76535755D01*
X135255755Y-76464163D01*
X135294500Y-76370623D01*
X135294500Y-76109307D01*
X135312093Y-76060969D01*
X135342532Y-76039186D01*
X135522699Y-75969390D01*
X135692605Y-75864189D01*
X135840288Y-75729558D01*
X135960717Y-75570084D01*
X136049793Y-75391196D01*
X136100763Y-75212054D01*
X136104479Y-75198994D01*
X136104479Y-75198992D01*
X136104481Y-75198986D01*
X136122920Y-75000000D01*
X136121766Y-74987550D01*
X136117749Y-74944200D01*
X136104481Y-74801014D01*
X136104479Y-74801008D01*
X136104479Y-74801005D01*
X136058672Y-74640012D01*
X136049793Y-74608804D01*
X135975387Y-74459377D01*
X135960719Y-74429919D01*
X135840291Y-74270445D01*
X135840288Y-74270442D01*
X135692607Y-74135812D01*
X135522702Y-74030611D01*
X135336356Y-73958420D01*
X135285047Y-73948829D01*
X135139919Y-73921700D01*
X134940081Y-73921700D01*
X134809123Y-73946180D01*
X134743643Y-73958420D01*
X134557298Y-74030611D01*
X134557297Y-74030611D01*
X134387392Y-74135812D01*
X134239711Y-74270442D01*
X134239708Y-74270445D01*
X134119280Y-74429919D01*
X134030210Y-74608796D01*
X134030204Y-74608812D01*
X133975520Y-74801005D01*
X133975519Y-74801014D01*
X133958234Y-74987550D01*
X133957080Y-75000000D01*
X133974634Y-75189440D01*
X133975519Y-75198985D01*
X133975520Y-75198994D01*
X134030204Y-75391187D01*
X134030210Y-75391203D01*
X134119280Y-75570080D01*
X134239708Y-75729554D01*
X134239711Y-75729557D01*
X134387392Y-75864187D01*
X134387394Y-75864188D01*
X134387395Y-75864189D01*
X134426490Y-75888396D01*
X134557297Y-75969388D01*
X134557299Y-75969388D01*
X134557301Y-75969390D01*
X134737466Y-76039186D01*
X134776183Y-76073052D01*
X134785500Y-76109307D01*
X134785500Y-76183434D01*
X134767907Y-76231772D01*
X134763474Y-76236608D01*
X133966608Y-77033474D01*
X133919988Y-77055214D01*
X133913434Y-77055500D01*
X130251997Y-77055500D01*
X130203659Y-77037907D01*
X130177939Y-76993358D01*
X130177723Y-76992063D01*
X130167880Y-76929910D01*
X130108081Y-76812550D01*
X130014949Y-76719418D01*
X129897591Y-76659621D01*
X129897593Y-76659621D01*
X129848908Y-76651910D01*
X129800225Y-76644200D01*
X129800223Y-76644200D01*
X129259781Y-76644200D01*
X129259769Y-76644201D01*
X129162410Y-76659619D01*
X129045050Y-76719418D01*
X128951918Y-76812550D01*
X128892121Y-76929907D01*
X128876700Y-77027273D01*
X128876700Y-77592718D01*
X125463300Y-77592718D01*
X125463299Y-77152276D01*
X125463298Y-77152269D01*
X125447880Y-77054910D01*
X125388081Y-76937550D01*
X125294949Y-76844418D01*
X125177591Y-76784621D01*
X125177593Y-76784621D01*
X125128908Y-76776910D01*
X125080225Y-76769200D01*
X125080223Y-76769200D01*
X124539781Y-76769200D01*
X124539769Y-76769201D01*
X124442410Y-76784619D01*
X124325050Y-76844418D01*
X124231918Y-76937550D01*
X124187646Y-77024440D01*
X124150025Y-77059522D01*
X124120642Y-77065500D01*
X123915690Y-77065500D01*
X123867352Y-77047907D01*
X123856030Y-77036079D01*
X123772621Y-76927378D01*
X123657626Y-76839139D01*
X123523711Y-76783671D01*
X123523709Y-76783670D01*
X123380000Y-76764750D01*
X123236291Y-76783670D01*
X123236288Y-76783670D01*
X123236288Y-76783671D01*
X123102373Y-76839139D01*
X122987378Y-76927378D01*
X122899139Y-77042373D01*
X122889560Y-77065500D01*
X122843670Y-77176291D01*
X122824750Y-77320000D01*
X116690500Y-77320000D01*
X116690500Y-68565700D01*
X116708093Y-68517362D01*
X116752642Y-68491642D01*
X116765700Y-68490500D01*
X118047537Y-68490500D01*
X118095875Y-68508093D01*
G37*
%TD.AperFunction*%
%TD*%
M02*
