%TF.GenerationSoftware,KiCad,Pcbnew,8.0.1*%
%TF.CreationDate,2025-01-22T19:50:13-07:00*%
%TF.ProjectId,ColorSensing,436f6c6f-7253-4656-9e73-696e672e6b69,rev?*%
%TF.SameCoordinates,Original*%
%TF.FileFunction,Legend,Bot*%
%TF.FilePolarity,Positive*%
%FSLAX46Y46*%
G04 Gerber Fmt 4.6, Leading zero omitted, Abs format (unit mm)*
G04 Created by KiCad (PCBNEW 8.0.1) date 2025-01-22 19:50:13*
%MOMM*%
%LPD*%
G01*
G04 APERTURE LIST*
G04 Aperture macros list*
%AMRoundRect*
0 Rectangle with rounded corners*
0 $1 Rounding radius*
0 $2 $3 $4 $5 $6 $7 $8 $9 X,Y pos of 4 corners*
0 Add a 4 corners polygon primitive as box body*
4,1,4,$2,$3,$4,$5,$6,$7,$8,$9,$2,$3,0*
0 Add four circle primitives for the rounded corners*
1,1,$1+$1,$2,$3*
1,1,$1+$1,$4,$5*
1,1,$1+$1,$6,$7*
1,1,$1+$1,$8,$9*
0 Add four rect primitives between the rounded corners*
20,1,$1+$1,$2,$3,$4,$5,0*
20,1,$1+$1,$4,$5,$6,$7,0*
20,1,$1+$1,$6,$7,$8,$9,0*
20,1,$1+$1,$8,$9,$2,$3,0*%
G04 Aperture macros list end*
%ADD10C,0.150000*%
%ADD11C,0.120000*%
%ADD12C,0.152400*%
%ADD13C,2.500000*%
%ADD14R,1.800000X1.800000*%
%ADD15C,1.800000*%
%ADD16RoundRect,0.237500X0.250000X0.237500X-0.250000X0.237500X-0.250000X-0.237500X0.250000X-0.237500X0*%
%ADD17RoundRect,0.237500X0.237500X-0.250000X0.237500X0.250000X-0.237500X0.250000X-0.237500X-0.250000X0*%
%ADD18RoundRect,0.150000X-0.150000X0.512500X-0.150000X-0.512500X0.150000X-0.512500X0.150000X0.512500X0*%
%ADD19R,1.320800X0.508000*%
%ADD20RoundRect,0.237500X0.300000X0.237500X-0.300000X0.237500X-0.300000X-0.237500X0.300000X-0.237500X0*%
%ADD21RoundRect,0.237500X-0.237500X0.300000X-0.237500X-0.300000X0.237500X-0.300000X0.237500X0.300000X0*%
%ADD22RoundRect,0.250000X0.325000X0.450000X-0.325000X0.450000X-0.325000X-0.450000X0.325000X-0.450000X0*%
%ADD23RoundRect,0.237500X-0.250000X-0.237500X0.250000X-0.237500X0.250000X0.237500X-0.250000X0.237500X0*%
%ADD24R,1.700000X0.650000*%
%ADD25R,1.700000X1.700000*%
%ADD26O,1.700000X1.700000*%
G04 APERTURE END LIST*
D10*
X117183332Y-81532295D02*
X117449999Y-81151342D01*
X117640475Y-81532295D02*
X117640475Y-80732295D01*
X117640475Y-80732295D02*
X117335713Y-80732295D01*
X117335713Y-80732295D02*
X117259523Y-80770390D01*
X117259523Y-80770390D02*
X117221428Y-80808485D01*
X117221428Y-80808485D02*
X117183332Y-80884676D01*
X117183332Y-80884676D02*
X117183332Y-80998961D01*
X117183332Y-80998961D02*
X117221428Y-81075152D01*
X117221428Y-81075152D02*
X117259523Y-81113247D01*
X117259523Y-81113247D02*
X117335713Y-81151342D01*
X117335713Y-81151342D02*
X117640475Y-81151342D01*
X116878571Y-80808485D02*
X116840475Y-80770390D01*
X116840475Y-80770390D02*
X116764285Y-80732295D01*
X116764285Y-80732295D02*
X116573809Y-80732295D01*
X116573809Y-80732295D02*
X116497618Y-80770390D01*
X116497618Y-80770390D02*
X116459523Y-80808485D01*
X116459523Y-80808485D02*
X116421428Y-80884676D01*
X116421428Y-80884676D02*
X116421428Y-80960866D01*
X116421428Y-80960866D02*
X116459523Y-81075152D01*
X116459523Y-81075152D02*
X116916666Y-81532295D01*
X116916666Y-81532295D02*
X116421428Y-81532295D01*
X124162295Y-86235714D02*
X123781342Y-85969047D01*
X124162295Y-85778571D02*
X123362295Y-85778571D01*
X123362295Y-85778571D02*
X123362295Y-86083333D01*
X123362295Y-86083333D02*
X123400390Y-86159523D01*
X123400390Y-86159523D02*
X123438485Y-86197618D01*
X123438485Y-86197618D02*
X123514676Y-86235714D01*
X123514676Y-86235714D02*
X123628961Y-86235714D01*
X123628961Y-86235714D02*
X123705152Y-86197618D01*
X123705152Y-86197618D02*
X123743247Y-86159523D01*
X123743247Y-86159523D02*
X123781342Y-86083333D01*
X123781342Y-86083333D02*
X123781342Y-85778571D01*
X124162295Y-86997618D02*
X124162295Y-86540475D01*
X124162295Y-86769047D02*
X123362295Y-86769047D01*
X123362295Y-86769047D02*
X123476580Y-86692856D01*
X123476580Y-86692856D02*
X123552771Y-86616666D01*
X123552771Y-86616666D02*
X123590866Y-86540475D01*
X123362295Y-87492857D02*
X123362295Y-87569047D01*
X123362295Y-87569047D02*
X123400390Y-87645238D01*
X123400390Y-87645238D02*
X123438485Y-87683333D01*
X123438485Y-87683333D02*
X123514676Y-87721428D01*
X123514676Y-87721428D02*
X123667057Y-87759523D01*
X123667057Y-87759523D02*
X123857533Y-87759523D01*
X123857533Y-87759523D02*
X124009914Y-87721428D01*
X124009914Y-87721428D02*
X124086104Y-87683333D01*
X124086104Y-87683333D02*
X124124200Y-87645238D01*
X124124200Y-87645238D02*
X124162295Y-87569047D01*
X124162295Y-87569047D02*
X124162295Y-87492857D01*
X124162295Y-87492857D02*
X124124200Y-87416666D01*
X124124200Y-87416666D02*
X124086104Y-87378571D01*
X124086104Y-87378571D02*
X124009914Y-87340476D01*
X124009914Y-87340476D02*
X123857533Y-87302380D01*
X123857533Y-87302380D02*
X123667057Y-87302380D01*
X123667057Y-87302380D02*
X123514676Y-87340476D01*
X123514676Y-87340476D02*
X123438485Y-87378571D01*
X123438485Y-87378571D02*
X123400390Y-87416666D01*
X123400390Y-87416666D02*
X123362295Y-87492857D01*
X127248485Y-88783809D02*
X127210390Y-88707619D01*
X127210390Y-88707619D02*
X127134200Y-88631428D01*
X127134200Y-88631428D02*
X127019914Y-88517142D01*
X127019914Y-88517142D02*
X126981819Y-88440952D01*
X126981819Y-88440952D02*
X126981819Y-88364761D01*
X127172295Y-88402857D02*
X127134200Y-88326666D01*
X127134200Y-88326666D02*
X127058009Y-88250476D01*
X127058009Y-88250476D02*
X126905628Y-88212380D01*
X126905628Y-88212380D02*
X126638961Y-88212380D01*
X126638961Y-88212380D02*
X126486580Y-88250476D01*
X126486580Y-88250476D02*
X126410390Y-88326666D01*
X126410390Y-88326666D02*
X126372295Y-88402857D01*
X126372295Y-88402857D02*
X126372295Y-88555238D01*
X126372295Y-88555238D02*
X126410390Y-88631428D01*
X126410390Y-88631428D02*
X126486580Y-88707619D01*
X126486580Y-88707619D02*
X126638961Y-88745714D01*
X126638961Y-88745714D02*
X126905628Y-88745714D01*
X126905628Y-88745714D02*
X127058009Y-88707619D01*
X127058009Y-88707619D02*
X127134200Y-88631428D01*
X127134200Y-88631428D02*
X127172295Y-88555238D01*
X127172295Y-88555238D02*
X127172295Y-88402857D01*
X127172295Y-89507618D02*
X127172295Y-89050475D01*
X127172295Y-89279047D02*
X126372295Y-89279047D01*
X126372295Y-89279047D02*
X126486580Y-89202856D01*
X126486580Y-89202856D02*
X126562771Y-89126666D01*
X126562771Y-89126666D02*
X126600866Y-89050475D01*
X129280476Y-77687704D02*
X129280476Y-77040085D01*
X129280476Y-77040085D02*
X129318571Y-76963895D01*
X129318571Y-76963895D02*
X129356666Y-76925800D01*
X129356666Y-76925800D02*
X129432857Y-76887704D01*
X129432857Y-76887704D02*
X129585238Y-76887704D01*
X129585238Y-76887704D02*
X129661428Y-76925800D01*
X129661428Y-76925800D02*
X129699523Y-76963895D01*
X129699523Y-76963895D02*
X129737619Y-77040085D01*
X129737619Y-77040085D02*
X129737619Y-77687704D01*
X130042380Y-77687704D02*
X130537618Y-77687704D01*
X130537618Y-77687704D02*
X130270952Y-77382942D01*
X130270952Y-77382942D02*
X130385237Y-77382942D01*
X130385237Y-77382942D02*
X130461428Y-77344847D01*
X130461428Y-77344847D02*
X130499523Y-77306752D01*
X130499523Y-77306752D02*
X130537618Y-77230561D01*
X130537618Y-77230561D02*
X130537618Y-77040085D01*
X130537618Y-77040085D02*
X130499523Y-76963895D01*
X130499523Y-76963895D02*
X130461428Y-76925800D01*
X130461428Y-76925800D02*
X130385237Y-76887704D01*
X130385237Y-76887704D02*
X130156666Y-76887704D01*
X130156666Y-76887704D02*
X130080475Y-76925800D01*
X130080475Y-76925800D02*
X130042380Y-76963895D01*
X128933332Y-72886104D02*
X128971428Y-72924200D01*
X128971428Y-72924200D02*
X129085713Y-72962295D01*
X129085713Y-72962295D02*
X129161904Y-72962295D01*
X129161904Y-72962295D02*
X129276190Y-72924200D01*
X129276190Y-72924200D02*
X129352380Y-72848009D01*
X129352380Y-72848009D02*
X129390475Y-72771819D01*
X129390475Y-72771819D02*
X129428571Y-72619438D01*
X129428571Y-72619438D02*
X129428571Y-72505152D01*
X129428571Y-72505152D02*
X129390475Y-72352771D01*
X129390475Y-72352771D02*
X129352380Y-72276580D01*
X129352380Y-72276580D02*
X129276190Y-72200390D01*
X129276190Y-72200390D02*
X129161904Y-72162295D01*
X129161904Y-72162295D02*
X129085713Y-72162295D01*
X129085713Y-72162295D02*
X128971428Y-72200390D01*
X128971428Y-72200390D02*
X128933332Y-72238485D01*
X128171428Y-72962295D02*
X128628571Y-72962295D01*
X128399999Y-72962295D02*
X128399999Y-72162295D01*
X128399999Y-72162295D02*
X128476190Y-72276580D01*
X128476190Y-72276580D02*
X128552380Y-72352771D01*
X128552380Y-72352771D02*
X128628571Y-72390866D01*
X131036104Y-72116667D02*
X131074200Y-72078571D01*
X131074200Y-72078571D02*
X131112295Y-71964286D01*
X131112295Y-71964286D02*
X131112295Y-71888095D01*
X131112295Y-71888095D02*
X131074200Y-71773809D01*
X131074200Y-71773809D02*
X130998009Y-71697619D01*
X130998009Y-71697619D02*
X130921819Y-71659524D01*
X130921819Y-71659524D02*
X130769438Y-71621428D01*
X130769438Y-71621428D02*
X130655152Y-71621428D01*
X130655152Y-71621428D02*
X130502771Y-71659524D01*
X130502771Y-71659524D02*
X130426580Y-71697619D01*
X130426580Y-71697619D02*
X130350390Y-71773809D01*
X130350390Y-71773809D02*
X130312295Y-71888095D01*
X130312295Y-71888095D02*
X130312295Y-71964286D01*
X130312295Y-71964286D02*
X130350390Y-72078571D01*
X130350390Y-72078571D02*
X130388485Y-72116667D01*
X130388485Y-72421428D02*
X130350390Y-72459524D01*
X130350390Y-72459524D02*
X130312295Y-72535714D01*
X130312295Y-72535714D02*
X130312295Y-72726190D01*
X130312295Y-72726190D02*
X130350390Y-72802381D01*
X130350390Y-72802381D02*
X130388485Y-72840476D01*
X130388485Y-72840476D02*
X130464676Y-72878571D01*
X130464676Y-72878571D02*
X130540866Y-72878571D01*
X130540866Y-72878571D02*
X130655152Y-72840476D01*
X130655152Y-72840476D02*
X131112295Y-72383333D01*
X131112295Y-72383333D02*
X131112295Y-72878571D01*
X136553332Y-81982295D02*
X136819999Y-81601342D01*
X137010475Y-81982295D02*
X137010475Y-81182295D01*
X137010475Y-81182295D02*
X136705713Y-81182295D01*
X136705713Y-81182295D02*
X136629523Y-81220390D01*
X136629523Y-81220390D02*
X136591428Y-81258485D01*
X136591428Y-81258485D02*
X136553332Y-81334676D01*
X136553332Y-81334676D02*
X136553332Y-81448961D01*
X136553332Y-81448961D02*
X136591428Y-81525152D01*
X136591428Y-81525152D02*
X136629523Y-81563247D01*
X136629523Y-81563247D02*
X136705713Y-81601342D01*
X136705713Y-81601342D02*
X137010475Y-81601342D01*
X136172380Y-81982295D02*
X136019999Y-81982295D01*
X136019999Y-81982295D02*
X135943809Y-81944200D01*
X135943809Y-81944200D02*
X135905713Y-81906104D01*
X135905713Y-81906104D02*
X135829523Y-81791819D01*
X135829523Y-81791819D02*
X135791428Y-81639438D01*
X135791428Y-81639438D02*
X135791428Y-81334676D01*
X135791428Y-81334676D02*
X135829523Y-81258485D01*
X135829523Y-81258485D02*
X135867618Y-81220390D01*
X135867618Y-81220390D02*
X135943809Y-81182295D01*
X135943809Y-81182295D02*
X136096190Y-81182295D01*
X136096190Y-81182295D02*
X136172380Y-81220390D01*
X136172380Y-81220390D02*
X136210475Y-81258485D01*
X136210475Y-81258485D02*
X136248571Y-81334676D01*
X136248571Y-81334676D02*
X136248571Y-81525152D01*
X136248571Y-81525152D02*
X136210475Y-81601342D01*
X136210475Y-81601342D02*
X136172380Y-81639438D01*
X136172380Y-81639438D02*
X136096190Y-81677533D01*
X136096190Y-81677533D02*
X135943809Y-81677533D01*
X135943809Y-81677533D02*
X135867618Y-81639438D01*
X135867618Y-81639438D02*
X135829523Y-81601342D01*
X135829523Y-81601342D02*
X135791428Y-81525152D01*
X132505475Y-91102295D02*
X132505475Y-90302295D01*
X132505475Y-90302295D02*
X132314999Y-90302295D01*
X132314999Y-90302295D02*
X132200713Y-90340390D01*
X132200713Y-90340390D02*
X132124523Y-90416580D01*
X132124523Y-90416580D02*
X132086428Y-90492771D01*
X132086428Y-90492771D02*
X132048332Y-90645152D01*
X132048332Y-90645152D02*
X132048332Y-90759438D01*
X132048332Y-90759438D02*
X132086428Y-90911819D01*
X132086428Y-90911819D02*
X132124523Y-90988009D01*
X132124523Y-90988009D02*
X132200713Y-91064200D01*
X132200713Y-91064200D02*
X132314999Y-91102295D01*
X132314999Y-91102295D02*
X132505475Y-91102295D01*
X131324523Y-90302295D02*
X131705475Y-90302295D01*
X131705475Y-90302295D02*
X131743571Y-90683247D01*
X131743571Y-90683247D02*
X131705475Y-90645152D01*
X131705475Y-90645152D02*
X131629285Y-90607057D01*
X131629285Y-90607057D02*
X131438809Y-90607057D01*
X131438809Y-90607057D02*
X131362618Y-90645152D01*
X131362618Y-90645152D02*
X131324523Y-90683247D01*
X131324523Y-90683247D02*
X131286428Y-90759438D01*
X131286428Y-90759438D02*
X131286428Y-90949914D01*
X131286428Y-90949914D02*
X131324523Y-91026104D01*
X131324523Y-91026104D02*
X131362618Y-91064200D01*
X131362618Y-91064200D02*
X131438809Y-91102295D01*
X131438809Y-91102295D02*
X131629285Y-91102295D01*
X131629285Y-91102295D02*
X131705475Y-91064200D01*
X131705475Y-91064200D02*
X131743571Y-91026104D01*
X122458332Y-79162295D02*
X122724999Y-78781342D01*
X122915475Y-79162295D02*
X122915475Y-78362295D01*
X122915475Y-78362295D02*
X122610713Y-78362295D01*
X122610713Y-78362295D02*
X122534523Y-78400390D01*
X122534523Y-78400390D02*
X122496428Y-78438485D01*
X122496428Y-78438485D02*
X122458332Y-78514676D01*
X122458332Y-78514676D02*
X122458332Y-78628961D01*
X122458332Y-78628961D02*
X122496428Y-78705152D01*
X122496428Y-78705152D02*
X122534523Y-78743247D01*
X122534523Y-78743247D02*
X122610713Y-78781342D01*
X122610713Y-78781342D02*
X122915475Y-78781342D01*
X121772618Y-78628961D02*
X121772618Y-79162295D01*
X121963094Y-78324200D02*
X122153571Y-78895628D01*
X122153571Y-78895628D02*
X121658332Y-78895628D01*
X134651785Y-85362295D02*
X134918452Y-84981342D01*
X135108928Y-85362295D02*
X135108928Y-84562295D01*
X135108928Y-84562295D02*
X134804166Y-84562295D01*
X134804166Y-84562295D02*
X134727976Y-84600390D01*
X134727976Y-84600390D02*
X134689881Y-84638485D01*
X134689881Y-84638485D02*
X134651785Y-84714676D01*
X134651785Y-84714676D02*
X134651785Y-84828961D01*
X134651785Y-84828961D02*
X134689881Y-84905152D01*
X134689881Y-84905152D02*
X134727976Y-84943247D01*
X134727976Y-84943247D02*
X134804166Y-84981342D01*
X134804166Y-84981342D02*
X135108928Y-84981342D01*
X133889881Y-85362295D02*
X134347024Y-85362295D01*
X134118452Y-85362295D02*
X134118452Y-84562295D01*
X134118452Y-84562295D02*
X134194643Y-84676580D01*
X134194643Y-84676580D02*
X134270833Y-84752771D01*
X134270833Y-84752771D02*
X134347024Y-84790866D01*
X133127976Y-85362295D02*
X133585119Y-85362295D01*
X133356547Y-85362295D02*
X133356547Y-84562295D01*
X133356547Y-84562295D02*
X133432738Y-84676580D01*
X133432738Y-84676580D02*
X133508928Y-84752771D01*
X133508928Y-84752771D02*
X133585119Y-84790866D01*
X134653332Y-78412295D02*
X134919999Y-78031342D01*
X135110475Y-78412295D02*
X135110475Y-77612295D01*
X135110475Y-77612295D02*
X134805713Y-77612295D01*
X134805713Y-77612295D02*
X134729523Y-77650390D01*
X134729523Y-77650390D02*
X134691428Y-77688485D01*
X134691428Y-77688485D02*
X134653332Y-77764676D01*
X134653332Y-77764676D02*
X134653332Y-77878961D01*
X134653332Y-77878961D02*
X134691428Y-77955152D01*
X134691428Y-77955152D02*
X134729523Y-77993247D01*
X134729523Y-77993247D02*
X134805713Y-78031342D01*
X134805713Y-78031342D02*
X135110475Y-78031342D01*
X134196190Y-77955152D02*
X134272380Y-77917057D01*
X134272380Y-77917057D02*
X134310475Y-77878961D01*
X134310475Y-77878961D02*
X134348571Y-77802771D01*
X134348571Y-77802771D02*
X134348571Y-77764676D01*
X134348571Y-77764676D02*
X134310475Y-77688485D01*
X134310475Y-77688485D02*
X134272380Y-77650390D01*
X134272380Y-77650390D02*
X134196190Y-77612295D01*
X134196190Y-77612295D02*
X134043809Y-77612295D01*
X134043809Y-77612295D02*
X133967618Y-77650390D01*
X133967618Y-77650390D02*
X133929523Y-77688485D01*
X133929523Y-77688485D02*
X133891428Y-77764676D01*
X133891428Y-77764676D02*
X133891428Y-77802771D01*
X133891428Y-77802771D02*
X133929523Y-77878961D01*
X133929523Y-77878961D02*
X133967618Y-77917057D01*
X133967618Y-77917057D02*
X134043809Y-77955152D01*
X134043809Y-77955152D02*
X134196190Y-77955152D01*
X134196190Y-77955152D02*
X134272380Y-77993247D01*
X134272380Y-77993247D02*
X134310475Y-78031342D01*
X134310475Y-78031342D02*
X134348571Y-78107533D01*
X134348571Y-78107533D02*
X134348571Y-78259914D01*
X134348571Y-78259914D02*
X134310475Y-78336104D01*
X134310475Y-78336104D02*
X134272380Y-78374200D01*
X134272380Y-78374200D02*
X134196190Y-78412295D01*
X134196190Y-78412295D02*
X134043809Y-78412295D01*
X134043809Y-78412295D02*
X133967618Y-78374200D01*
X133967618Y-78374200D02*
X133929523Y-78336104D01*
X133929523Y-78336104D02*
X133891428Y-78259914D01*
X133891428Y-78259914D02*
X133891428Y-78107533D01*
X133891428Y-78107533D02*
X133929523Y-78031342D01*
X133929523Y-78031342D02*
X133967618Y-77993247D01*
X133967618Y-77993247D02*
X134043809Y-77955152D01*
X127389523Y-81422295D02*
X127389523Y-82069914D01*
X127389523Y-82069914D02*
X127351428Y-82146104D01*
X127351428Y-82146104D02*
X127313333Y-82184200D01*
X127313333Y-82184200D02*
X127237142Y-82222295D01*
X127237142Y-82222295D02*
X127084761Y-82222295D01*
X127084761Y-82222295D02*
X127008571Y-82184200D01*
X127008571Y-82184200D02*
X126970476Y-82146104D01*
X126970476Y-82146104D02*
X126932380Y-82069914D01*
X126932380Y-82069914D02*
X126932380Y-81422295D01*
X126589524Y-81498485D02*
X126551428Y-81460390D01*
X126551428Y-81460390D02*
X126475238Y-81422295D01*
X126475238Y-81422295D02*
X126284762Y-81422295D01*
X126284762Y-81422295D02*
X126208571Y-81460390D01*
X126208571Y-81460390D02*
X126170476Y-81498485D01*
X126170476Y-81498485D02*
X126132381Y-81574676D01*
X126132381Y-81574676D02*
X126132381Y-81650866D01*
X126132381Y-81650866D02*
X126170476Y-81765152D01*
X126170476Y-81765152D02*
X126627619Y-82222295D01*
X126627619Y-82222295D02*
X126132381Y-82222295D01*
X122982295Y-70413333D02*
X123553723Y-70413333D01*
X123553723Y-70413333D02*
X123668009Y-70375238D01*
X123668009Y-70375238D02*
X123744200Y-70299047D01*
X123744200Y-70299047D02*
X123782295Y-70184762D01*
X123782295Y-70184762D02*
X123782295Y-70108571D01*
X123782295Y-71213333D02*
X123782295Y-70756190D01*
X123782295Y-70984762D02*
X122982295Y-70984762D01*
X122982295Y-70984762D02*
X123096580Y-70908571D01*
X123096580Y-70908571D02*
X123172771Y-70832381D01*
X123172771Y-70832381D02*
X123210866Y-70756190D01*
D11*
%TO.C,R2*%
X119552776Y-82197500D02*
X120062224Y-82197500D01*
X119552776Y-83242500D02*
X120062224Y-83242500D01*
%TO.C,R10*%
X124347500Y-87002776D02*
X124347500Y-87512224D01*
X125392500Y-87002776D02*
X125392500Y-87512224D01*
%TO.C,Q1*%
X126440000Y-86457500D02*
X126440000Y-87257500D01*
X126440000Y-88057500D02*
X126440000Y-87257500D01*
X129560000Y-86457500D02*
X129560000Y-87257500D01*
X129560000Y-88057500D02*
X129560000Y-87257500D01*
X126490000Y-85957500D02*
X126160000Y-86197500D01*
X126160000Y-85717500D01*
X126490000Y-85957500D01*
G36*
X126490000Y-85957500D02*
G01*
X126160000Y-86197500D01*
X126160000Y-85717500D01*
X126490000Y-85957500D01*
G37*
D12*
%TO.C,U3*%
X125635900Y-77696399D02*
X127693300Y-77696399D01*
X127693300Y-74343599D02*
X125635900Y-74343599D01*
X127693300Y-76383260D02*
X127693300Y-75656738D01*
D11*
%TO.C,C1*%
X126191233Y-72810000D02*
X126483767Y-72810000D01*
X126191233Y-73830000D02*
X126483767Y-73830000D01*
%TO.C,C2*%
X129290000Y-74908767D02*
X129290000Y-74616233D01*
X130310000Y-74908767D02*
X130310000Y-74616233D01*
%TO.C,R9*%
X133477776Y-80907500D02*
X133987224Y-80907500D01*
X133477776Y-81952500D02*
X133987224Y-81952500D01*
%TO.C,D5*%
X126570000Y-91740000D02*
X129430000Y-91740000D01*
X129430000Y-89820000D02*
X126570000Y-89820000D01*
X129430000Y-91740000D02*
X129430000Y-89820000D01*
%TO.C,R4*%
X119522776Y-80477500D02*
X120032224Y-80477500D01*
X119522776Y-81522500D02*
X120032224Y-81522500D01*
%TO.C,R11*%
X134392224Y-83047500D02*
X133882776Y-83047500D01*
X134392224Y-84092500D02*
X133882776Y-84092500D01*
%TO.C,R8*%
X134392224Y-78657500D02*
X133882776Y-78657500D01*
X134392224Y-79702500D02*
X133882776Y-79702500D01*
D10*
%TO.C,U2*%
X124090000Y-78930000D02*
X129590000Y-78930000D01*
X124090000Y-79135000D02*
X124090000Y-78930000D01*
X124090000Y-84235000D02*
X124090000Y-84440000D01*
X124090000Y-84440000D02*
X129590000Y-84440000D01*
X129590000Y-79135000D02*
X129590000Y-78930000D01*
X129590000Y-84235000D02*
X129590000Y-84440000D01*
D11*
X130140000Y-79185000D02*
X129900000Y-78855000D01*
X130380000Y-78855000D01*
X130140000Y-79185000D01*
G36*
X130140000Y-79185000D02*
G01*
X129900000Y-78855000D01*
X130380000Y-78855000D01*
X130140000Y-79185000D01*
G37*
%TO.C,J1*%
X124420000Y-69350000D02*
X125750000Y-69350000D01*
X124420000Y-70680000D02*
X124420000Y-69350000D01*
X127020000Y-72010000D02*
X127020000Y-69350000D01*
X129620000Y-69350000D02*
X127020000Y-69350000D01*
X129620000Y-72010000D02*
X127020000Y-72010000D01*
X129620000Y-72010000D02*
X129620000Y-69350000D01*
%TD*%
%LPC*%
D13*
%TO.C,H4*%
X135000000Y-93640000D03*
%TD*%
%TO.C,H3*%
X118500000Y-93640000D03*
%TD*%
%TO.C,H2*%
X135000000Y-70000000D03*
%TD*%
%TO.C,H1*%
X118500000Y-70000000D03*
%TD*%
D14*
%TO.C,D4*%
X132500000Y-88780000D03*
D15*
X135040000Y-88780000D03*
%TD*%
D14*
%TO.C,D1*%
X119000000Y-75000000D03*
D15*
X121540000Y-75000000D03*
%TD*%
D14*
%TO.C,D3*%
X119000000Y-88780000D03*
D15*
X121540000Y-88780000D03*
%TD*%
D14*
%TO.C,D2*%
X132500000Y-75000000D03*
D15*
X135040000Y-75000000D03*
%TD*%
D16*
%TO.C,R2*%
X120720000Y-82720000D03*
X118895000Y-82720000D03*
%TD*%
D17*
%TO.C,R10*%
X124870000Y-88170000D03*
X124870000Y-86345000D03*
%TD*%
D18*
%TO.C,Q1*%
X127050000Y-86120000D03*
X128950000Y-86120000D03*
X128000000Y-88395000D03*
%TD*%
D19*
%TO.C,U3*%
X125369200Y-76970000D03*
X125369200Y-76019999D03*
X125369200Y-75069998D03*
X127960000Y-75069998D03*
X127960000Y-76970000D03*
%TD*%
D20*
%TO.C,C1*%
X127200000Y-73320000D03*
X125475000Y-73320000D03*
%TD*%
D21*
%TO.C,C2*%
X129800000Y-73900000D03*
X129800000Y-75625000D03*
%TD*%
D16*
%TO.C,R9*%
X134645000Y-81430000D03*
X132820000Y-81430000D03*
%TD*%
D22*
%TO.C,D5*%
X128595000Y-90780000D03*
X126545000Y-90780000D03*
%TD*%
D16*
%TO.C,R4*%
X120690000Y-81000000D03*
X118865000Y-81000000D03*
%TD*%
D23*
%TO.C,R11*%
X133225000Y-83570000D03*
X135050000Y-83570000D03*
%TD*%
%TO.C,R8*%
X133225000Y-79180000D03*
X135050000Y-79180000D03*
%TD*%
D24*
%TO.C,U2*%
X130490000Y-79780000D03*
X130490000Y-81050000D03*
X130490000Y-82320000D03*
X130490000Y-83590000D03*
X123190000Y-83590000D03*
X123190000Y-82320000D03*
X123190000Y-81050000D03*
X123190000Y-79780000D03*
%TD*%
D25*
%TO.C,J1*%
X125750000Y-70680000D03*
D26*
X128290000Y-70680000D03*
%TD*%
%LPD*%
M02*
