%TF.GenerationSoftware,KiCad,Pcbnew,8.0.1*%
%TF.CreationDate,2025-01-22T19:50:13-07:00*%
%TF.ProjectId,ColorSensing,436f6c6f-7253-4656-9e73-696e672e6b69,rev?*%
%TF.SameCoordinates,Original*%
%TF.FileFunction,Copper,L2,Bot*%
%TF.FilePolarity,Positive*%
%FSLAX46Y46*%
G04 Gerber Fmt 4.6, Leading zero omitted, Abs format (unit mm)*
G04 Created by KiCad (PCBNEW 8.0.1) date 2025-01-22 19:50:13*
%MOMM*%
%LPD*%
G01*
G04 APERTURE LIST*
G04 Aperture macros list*
%AMRoundRect*
0 Rectangle with rounded corners*
0 $1 Rounding radius*
0 $2 $3 $4 $5 $6 $7 $8 $9 X,Y pos of 4 corners*
0 Add a 4 corners polygon primitive as box body*
4,1,4,$2,$3,$4,$5,$6,$7,$8,$9,$2,$3,0*
0 Add four circle primitives for the rounded corners*
1,1,$1+$1,$2,$3*
1,1,$1+$1,$4,$5*
1,1,$1+$1,$6,$7*
1,1,$1+$1,$8,$9*
0 Add four rect primitives between the rounded corners*
20,1,$1+$1,$2,$3,$4,$5,0*
20,1,$1+$1,$4,$5,$6,$7,0*
20,1,$1+$1,$6,$7,$8,$9,0*
20,1,$1+$1,$8,$9,$2,$3,0*%
G04 Aperture macros list end*
%TA.AperFunction,ComponentPad*%
%ADD10C,2.500000*%
%TD*%
%TA.AperFunction,ComponentPad*%
%ADD11R,1.800000X1.800000*%
%TD*%
%TA.AperFunction,ComponentPad*%
%ADD12C,1.800000*%
%TD*%
%TA.AperFunction,SMDPad,CuDef*%
%ADD13RoundRect,0.237500X0.250000X0.237500X-0.250000X0.237500X-0.250000X-0.237500X0.250000X-0.237500X0*%
%TD*%
%TA.AperFunction,SMDPad,CuDef*%
%ADD14RoundRect,0.237500X0.237500X-0.250000X0.237500X0.250000X-0.237500X0.250000X-0.237500X-0.250000X0*%
%TD*%
%TA.AperFunction,SMDPad,CuDef*%
%ADD15RoundRect,0.150000X-0.150000X0.512500X-0.150000X-0.512500X0.150000X-0.512500X0.150000X0.512500X0*%
%TD*%
%TA.AperFunction,SMDPad,CuDef*%
%ADD16R,1.320800X0.508000*%
%TD*%
%TA.AperFunction,SMDPad,CuDef*%
%ADD17RoundRect,0.237500X0.300000X0.237500X-0.300000X0.237500X-0.300000X-0.237500X0.300000X-0.237500X0*%
%TD*%
%TA.AperFunction,SMDPad,CuDef*%
%ADD18RoundRect,0.237500X-0.237500X0.300000X-0.237500X-0.300000X0.237500X-0.300000X0.237500X0.300000X0*%
%TD*%
%TA.AperFunction,SMDPad,CuDef*%
%ADD19RoundRect,0.250000X0.325000X0.450000X-0.325000X0.450000X-0.325000X-0.450000X0.325000X-0.450000X0*%
%TD*%
%TA.AperFunction,SMDPad,CuDef*%
%ADD20RoundRect,0.237500X-0.250000X-0.237500X0.250000X-0.237500X0.250000X0.237500X-0.250000X0.237500X0*%
%TD*%
%TA.AperFunction,SMDPad,CuDef*%
%ADD21R,1.700000X0.650000*%
%TD*%
%TA.AperFunction,ComponentPad*%
%ADD22R,1.700000X1.700000*%
%TD*%
%TA.AperFunction,ComponentPad*%
%ADD23O,1.700000X1.700000*%
%TD*%
%TA.AperFunction,ViaPad*%
%ADD24C,0.600000*%
%TD*%
%TA.AperFunction,Conductor*%
%ADD25C,0.152400*%
%TD*%
G04 APERTURE END LIST*
D10*
%TO.P,H4,1*%
%TO.N,N/C*%
X135000000Y-93640000D03*
%TD*%
%TO.P,H3,1*%
%TO.N,N/C*%
X118500000Y-93640000D03*
%TD*%
%TO.P,H2,1,1*%
%TO.N,GND*%
X135000000Y-70000000D03*
%TD*%
%TO.P,H1,1,1*%
%TO.N,VCC*%
X118500000Y-70000000D03*
%TD*%
D11*
%TO.P,D4,1,K*%
%TO.N,Net-(D1-K)*%
X132500000Y-88780000D03*
D12*
%TO.P,D4,2,A*%
%TO.N,Net-(D4-A)*%
X135040000Y-88780000D03*
%TD*%
D11*
%TO.P,D1,1,K*%
%TO.N,Net-(D1-K)*%
X119000000Y-75000000D03*
D12*
%TO.P,D1,2,A*%
%TO.N,Net-(D1-A)*%
X121540000Y-75000000D03*
%TD*%
D11*
%TO.P,D3,1,K*%
%TO.N,Net-(D1-K)*%
X119000000Y-88780000D03*
D12*
%TO.P,D3,2,A*%
%TO.N,Net-(D3-A)*%
X121540000Y-88780000D03*
%TD*%
D11*
%TO.P,D2,1,K*%
%TO.N,Net-(D1-K)*%
X132500000Y-75000000D03*
D12*
%TO.P,D2,2,A*%
%TO.N,Net-(D2-A)*%
X135040000Y-75000000D03*
%TD*%
D13*
%TO.P,R2,1*%
%TO.N,VDD_3.3V*%
X120720000Y-82720000D03*
%TO.P,R2,2*%
%TO.N,Net-(U1-S1)*%
X118895000Y-82720000D03*
%TD*%
D14*
%TO.P,R10,1*%
%TO.N,Net-(Q1-B)*%
X124870000Y-88170000D03*
%TO.P,R10,2*%
%TO.N,GND*%
X124870000Y-86345000D03*
%TD*%
D15*
%TO.P,Q1,1,E*%
%TO.N,GND*%
X127050000Y-86120000D03*
%TO.P,Q1,2,B*%
%TO.N,Net-(Q1-B)*%
X128950000Y-86120000D03*
%TO.P,Q1,3,C*%
%TO.N,Net-(D1-K)*%
X128000000Y-88395000D03*
%TD*%
D16*
%TO.P,U3,1,VIN*%
%TO.N,VCC*%
X125369200Y-76970000D03*
%TO.P,U3,2,GND*%
%TO.N,GND*%
X125369200Y-76019999D03*
%TO.P,U3,3,EN*%
%TO.N,VCC*%
X125369200Y-75069998D03*
%TO.P,U3,4,NC*%
%TO.N,unconnected-(U3-NC-Pad4)*%
X127960000Y-75069998D03*
%TO.P,U3,5,VOUT*%
%TO.N,VDD_3.3V*%
X127960000Y-76970000D03*
%TD*%
D17*
%TO.P,C1,1*%
%TO.N,GND*%
X127200000Y-73320000D03*
%TO.P,C1,2*%
%TO.N,VCC*%
X125475000Y-73320000D03*
%TD*%
D18*
%TO.P,C2,1*%
%TO.N,VDD_3.3V*%
X129800000Y-73900000D03*
%TO.P,C2,2*%
%TO.N,GND*%
X129800000Y-75625000D03*
%TD*%
D13*
%TO.P,R9,1*%
%TO.N,GND*%
X134645000Y-81430000D03*
%TO.P,R9,2*%
%TO.N,Net-(U1-S1)*%
X132820000Y-81430000D03*
%TD*%
D19*
%TO.P,D5,1,K*%
%TO.N,GND*%
X128595000Y-90780000D03*
%TO.P,D5,2,A*%
%TO.N,Net-(D5-A)*%
X126545000Y-90780000D03*
%TD*%
D13*
%TO.P,R4,1*%
%TO.N,S2*%
X120690000Y-81000000D03*
%TO.P,R4,2*%
%TO.N,VDD_3.3V*%
X118865000Y-81000000D03*
%TD*%
D20*
%TO.P,R11,1*%
%TO.N,LED_FLASH*%
X133225000Y-83570000D03*
%TO.P,R11,2*%
%TO.N,Net-(Q1-B)*%
X135050000Y-83570000D03*
%TD*%
%TO.P,R8,1*%
%TO.N,Net-(U1-S0)*%
X133225000Y-79180000D03*
%TO.P,R8,2*%
%TO.N,GND*%
X135050000Y-79180000D03*
%TD*%
D21*
%TO.P,U2,1,~{RESET}/PB5*%
%TO.N,unconnected-(U2-~{RESET}{slash}PB5-Pad1)*%
X130490000Y-79780000D03*
%TO.P,U2,2,XTAL1/PB3*%
%TO.N,S3*%
X130490000Y-81050000D03*
%TO.P,U2,3,XTAL2/PB4*%
%TO.N,LED_FLASH*%
X130490000Y-82320000D03*
%TO.P,U2,4,GND*%
%TO.N,GND*%
X130490000Y-83590000D03*
%TO.P,U2,5,AREF/PB0*%
%TO.N,LED_OUT*%
X123190000Y-83590000D03*
%TO.P,U2,6,PB1*%
%TO.N,S2*%
X123190000Y-82320000D03*
%TO.P,U2,7,PB2*%
%TO.N,COLOR_OUT*%
X123190000Y-81050000D03*
%TO.P,U2,8,VCC*%
%TO.N,VDD_3.3V*%
X123190000Y-79780000D03*
%TD*%
D22*
%TO.P,J1,1,Pin_1*%
%TO.N,VCC*%
X125750000Y-70680000D03*
D23*
%TO.P,J1,2,Pin_2*%
%TO.N,GND*%
X128290000Y-70680000D03*
%TD*%
D24*
%TO.N,GND*%
X130860000Y-85280000D03*
X136290000Y-78630000D03*
X127340000Y-83770000D03*
X130270000Y-91370000D03*
%TO.N,VDD_3.3V*%
X132640000Y-85000000D03*
X122110000Y-85180000D03*
X117350000Y-79470000D03*
X124050000Y-73750000D03*
%TO.N,Net-(D1-A)*%
X123380000Y-77320000D03*
%TO.N,Net-(D4-A)*%
X131110000Y-87040000D03*
%TO.N,Net-(U1-S0)*%
X125510000Y-78800000D03*
%TO.N,Net-(U1-S1)*%
X125710000Y-81360000D03*
X117310000Y-82190000D03*
%TO.N,COLOR_OUT*%
X126200000Y-82580000D03*
%TO.N,S2*%
X127530000Y-81370000D03*
%TO.N,S3*%
X127140000Y-80130000D03*
%TO.N,Net-(D5-A)*%
X123680000Y-90400000D03*
%TO.N,LED_OUT*%
X123720000Y-88920000D03*
%TD*%
D25*
%TO.N,LED_OUT*%
X123161400Y-83618600D02*
X123190000Y-83590000D01*
X123161400Y-88361400D02*
X123161400Y-83618600D01*
X123720000Y-88920000D02*
X123161400Y-88361400D01*
%TO.N,Net-(D1-K)*%
X126335000Y-88395000D02*
X128000000Y-88395000D01*
X121670000Y-91080000D02*
X123150000Y-89600000D01*
X123150000Y-89600000D02*
X125130000Y-89600000D01*
X120020000Y-91080000D02*
X121670000Y-91080000D01*
X119000000Y-90060000D02*
X120020000Y-91080000D01*
X125130000Y-89600000D02*
X126335000Y-88395000D01*
X119000000Y-88780000D02*
X119000000Y-90060000D01*
%TO.N,GND*%
X126670000Y-75660000D02*
X126670000Y-73850000D01*
X126310001Y-76019999D02*
X126670000Y-75660000D01*
X126670000Y-73850000D02*
X127200000Y-73320000D01*
X125369200Y-76019999D02*
X126310001Y-76019999D01*
%TO.N,Net-(U1-S1)*%
X127260000Y-78770000D02*
X125710000Y-80320000D01*
X131220000Y-78770000D02*
X127260000Y-78770000D01*
X131890000Y-79440000D02*
X131220000Y-78770000D01*
X132820000Y-81430000D02*
X132430000Y-81430000D01*
X132430000Y-81430000D02*
X131890000Y-80890000D01*
X131890000Y-80890000D02*
X131890000Y-79440000D01*
X125710000Y-80320000D02*
X125710000Y-81360000D01*
%TO.N,GND*%
X127340000Y-83770000D02*
X127520000Y-83590000D01*
X124925000Y-86290000D02*
X124870000Y-86345000D01*
X129680000Y-90780000D02*
X130270000Y-91370000D01*
X130490000Y-84910000D02*
X130860000Y-85280000D01*
X136290000Y-78630000D02*
X135600000Y-78630000D01*
X135600000Y-78630000D02*
X135050000Y-79180000D01*
X128290000Y-71970000D02*
X128290000Y-70680000D01*
X130490000Y-83590000D02*
X130490000Y-84910000D01*
X135050000Y-81800000D02*
X135030000Y-81820000D01*
X127200000Y-73320000D02*
X127200000Y-73060000D01*
X129800000Y-75625000D02*
X128675000Y-75625000D01*
X127050000Y-86120000D02*
X127050000Y-84060000D01*
X135050000Y-80110000D02*
X135050000Y-79180000D01*
X127520000Y-83590000D02*
X130490000Y-83590000D01*
X128595000Y-90780000D02*
X129680000Y-90780000D01*
X128675000Y-75625000D02*
X128280000Y-76020000D01*
X130790000Y-85210000D02*
X130860000Y-85280000D01*
X126880000Y-86290000D02*
X124925000Y-86290000D01*
X127200000Y-73060000D02*
X128290000Y-71970000D01*
X127050000Y-86120000D02*
X126880000Y-86290000D01*
X134645000Y-81430000D02*
X134645000Y-80515000D01*
X134645000Y-80515000D02*
X135050000Y-80110000D01*
X128280000Y-76020000D02*
X125369200Y-76019999D01*
X127050000Y-84060000D02*
X127340000Y-83770000D01*
%TO.N,VDD_3.3V*%
X118865000Y-81000000D02*
X118865000Y-80985000D01*
X120440000Y-82720000D02*
X118865000Y-81145000D01*
X118865000Y-81145000D02*
X118865000Y-81000000D01*
X120720000Y-82720000D02*
X120440000Y-82720000D01*
X118865000Y-81000000D02*
X118200000Y-81000000D01*
%TO.N,Net-(D1-A)*%
X122400000Y-77320000D02*
X123380000Y-77320000D01*
X121540000Y-75000000D02*
X121540000Y-76460000D01*
X121540000Y-76460000D02*
X122400000Y-77320000D01*
%TO.N,Net-(D4-A)*%
X133300000Y-87040000D02*
X135040000Y-88780000D01*
X131110000Y-87040000D02*
X133300000Y-87040000D01*
%TO.N,VCC*%
X125475000Y-73320000D02*
X125475000Y-72595000D01*
X125475000Y-74964198D02*
X125369200Y-75069998D01*
X123790000Y-76540000D02*
X123790000Y-75490000D01*
X124220000Y-76970000D02*
X123790000Y-76540000D01*
X125475000Y-72595000D02*
X125750000Y-72320000D01*
X123790000Y-75490000D02*
X124210002Y-75069998D01*
X124210002Y-75069998D02*
X125369200Y-75069998D01*
X125475000Y-73320000D02*
X125475000Y-74964198D01*
X125750000Y-72320000D02*
X125750000Y-70680000D01*
X125369200Y-76970000D02*
X124220000Y-76970000D01*
%TO.N,Net-(D1-K)*%
X132500000Y-88780000D02*
X132140000Y-88420000D01*
X132500000Y-88780000D02*
X129640000Y-88780000D01*
X129640000Y-88780000D02*
X129255000Y-88395000D01*
X129255000Y-88395000D02*
X128000000Y-88395000D01*
%TO.N,Net-(U1-S0)*%
X125510000Y-78800000D02*
X126304800Y-78005200D01*
X126304800Y-78005200D02*
X132050200Y-78005200D01*
X132050200Y-78005200D02*
X133225000Y-79180000D01*
%TO.N,Net-(Q1-B)*%
X128950000Y-86790000D02*
X128950000Y-86120000D01*
X133485000Y-86015000D02*
X135050000Y-84450000D01*
X135050000Y-84450000D02*
X135050000Y-83570000D01*
X128400000Y-87340000D02*
X128950000Y-86790000D01*
X128950000Y-86120000D02*
X133380000Y-86120000D01*
X126740000Y-87340000D02*
X128400000Y-87340000D01*
X124870000Y-88170000D02*
X125910000Y-88170000D01*
X133380000Y-86120000D02*
X133485000Y-86015000D01*
X125910000Y-88170000D02*
X126740000Y-87340000D01*
%TO.N,Net-(U1-S1)*%
X118895000Y-82720000D02*
X117840000Y-82720000D01*
X117840000Y-82720000D02*
X117310000Y-82190000D01*
X118895000Y-82720000D02*
X118895000Y-82445000D01*
%TO.N,COLOR_OUT*%
X125760000Y-82580000D02*
X124230000Y-81050000D01*
X123701052Y-81130000D02*
X123405526Y-80834474D01*
X126200000Y-82580000D02*
X125760000Y-82580000D01*
X124230000Y-81050000D02*
X123190000Y-81050000D01*
X123140000Y-81000000D02*
X123190000Y-81050000D01*
%TO.N,S2*%
X120690000Y-81000000D02*
X122010000Y-82320000D01*
X125490000Y-83250000D02*
X126610000Y-83250000D01*
X126610000Y-83250000D02*
X127530000Y-82330000D01*
X122010000Y-82320000D02*
X123190000Y-82320000D01*
X127530000Y-82330000D02*
X127530000Y-81370000D01*
X123190000Y-82320000D02*
X124560000Y-82320000D01*
X124560000Y-82320000D02*
X125490000Y-83250000D01*
%TO.N,LED_FLASH*%
X133225000Y-83570000D02*
X132560000Y-83570000D01*
X131310000Y-82320000D02*
X130490000Y-82320000D01*
X132560000Y-83570000D02*
X131310000Y-82320000D01*
%TO.N,S3*%
X127140000Y-80130000D02*
X127190000Y-80130000D01*
X127190000Y-80130000D02*
X128110000Y-81050000D01*
X128110000Y-81050000D02*
X130490000Y-81050000D01*
%TO.N,Net-(D5-A)*%
X126545000Y-90780000D02*
X124060000Y-90780000D01*
X124060000Y-90780000D02*
X123680000Y-90400000D01*
%TD*%
%TA.AperFunction,Conductor*%
%TO.N,VDD_3.3V*%
G36*
X118095875Y-68508093D02*
G01*
X118121595Y-68552642D01*
X118112662Y-68603300D01*
X118073257Y-68636365D01*
X118072010Y-68636806D01*
X117981598Y-68667844D01*
X117924288Y-68687519D01*
X117924286Y-68687520D01*
X117716118Y-68800175D01*
X117529324Y-68945562D01*
X117529320Y-68945566D01*
X117369006Y-69119714D01*
X117239543Y-69317872D01*
X117239542Y-69317876D01*
X117144458Y-69534644D01*
X117086352Y-69764104D01*
X117086351Y-69764107D01*
X117066805Y-69999998D01*
X117066805Y-70000001D01*
X117086351Y-70235892D01*
X117086352Y-70235895D01*
X117144458Y-70465355D01*
X117239542Y-70682123D01*
X117239543Y-70682127D01*
X117369006Y-70880285D01*
X117529320Y-71054433D01*
X117529324Y-71054437D01*
X117716118Y-71199824D01*
X117816332Y-71254057D01*
X117924292Y-71312482D01*
X117924293Y-71312482D01*
X117924299Y-71312485D01*
X118093293Y-71370500D01*
X118148171Y-71389340D01*
X118381648Y-71428300D01*
X118381651Y-71428300D01*
X118618349Y-71428300D01*
X118618352Y-71428300D01*
X118851829Y-71389340D01*
X119003902Y-71337132D01*
X119075700Y-71312485D01*
X119075702Y-71312484D01*
X119075708Y-71312482D01*
X119283883Y-71199823D01*
X119470677Y-71054436D01*
X119630992Y-70880287D01*
X119760457Y-70682125D01*
X119855541Y-70465358D01*
X119913648Y-70235896D01*
X119933195Y-70000000D01*
X119913648Y-69764104D01*
X119855541Y-69534642D01*
X119760457Y-69317875D01*
X119760456Y-69317874D01*
X119760456Y-69317872D01*
X119630993Y-69119714D01*
X119470679Y-68945566D01*
X119470675Y-68945562D01*
X119283881Y-68800175D01*
X119075713Y-68687520D01*
X119075711Y-68687519D01*
X119068568Y-68685067D01*
X118928044Y-68636824D01*
X118888040Y-68604490D01*
X118878178Y-68554005D01*
X118903075Y-68508991D01*
X118951081Y-68490513D01*
X118952463Y-68490500D01*
X134547537Y-68490500D01*
X134595875Y-68508093D01*
X134621595Y-68552642D01*
X134612662Y-68603300D01*
X134573257Y-68636365D01*
X134572010Y-68636806D01*
X134481598Y-68667844D01*
X134424288Y-68687519D01*
X134424286Y-68687520D01*
X134216118Y-68800175D01*
X134029324Y-68945562D01*
X134029320Y-68945566D01*
X133869006Y-69119714D01*
X133739543Y-69317872D01*
X133739542Y-69317876D01*
X133644458Y-69534644D01*
X133586352Y-69764104D01*
X133586351Y-69764107D01*
X133566805Y-69999998D01*
X133566805Y-70000001D01*
X133586351Y-70235892D01*
X133586352Y-70235895D01*
X133644458Y-70465355D01*
X133739542Y-70682123D01*
X133739543Y-70682127D01*
X133869006Y-70880285D01*
X134029320Y-71054433D01*
X134029324Y-71054437D01*
X134216118Y-71199824D01*
X134316332Y-71254057D01*
X134424292Y-71312482D01*
X134424293Y-71312482D01*
X134424299Y-71312485D01*
X134593293Y-71370500D01*
X134648171Y-71389340D01*
X134881648Y-71428300D01*
X134881651Y-71428300D01*
X135118349Y-71428300D01*
X135118352Y-71428300D01*
X135351829Y-71389340D01*
X135503902Y-71337132D01*
X135575700Y-71312485D01*
X135575702Y-71312484D01*
X135575708Y-71312482D01*
X135783883Y-71199823D01*
X135970677Y-71054436D01*
X136130992Y-70880287D01*
X136260457Y-70682125D01*
X136355541Y-70465358D01*
X136413648Y-70235896D01*
X136433195Y-70000000D01*
X136413648Y-69764104D01*
X136355541Y-69534642D01*
X136260457Y-69317875D01*
X136260456Y-69317874D01*
X136260456Y-69317872D01*
X136130993Y-69119714D01*
X135970679Y-68945566D01*
X135970675Y-68945562D01*
X135783881Y-68800175D01*
X135575713Y-68687520D01*
X135575711Y-68687519D01*
X135568568Y-68685067D01*
X135428044Y-68636824D01*
X135388040Y-68604490D01*
X135378178Y-68554005D01*
X135403075Y-68508991D01*
X135451081Y-68490513D01*
X135452463Y-68490500D01*
X137044300Y-68490500D01*
X137092638Y-68508093D01*
X137118358Y-68552642D01*
X137119500Y-68565700D01*
X137119500Y-95164300D01*
X137101907Y-95212638D01*
X137057358Y-95238358D01*
X137044300Y-95239500D01*
X116765700Y-95239500D01*
X116717362Y-95221907D01*
X116691642Y-95177358D01*
X116690500Y-95164300D01*
X116690500Y-93640001D01*
X117066805Y-93640001D01*
X117086351Y-93875892D01*
X117086352Y-93875895D01*
X117144458Y-94105355D01*
X117239542Y-94322123D01*
X117239543Y-94322127D01*
X117369006Y-94520285D01*
X117529320Y-94694433D01*
X117529324Y-94694437D01*
X117716118Y-94839824D01*
X117924286Y-94952479D01*
X117924292Y-94952482D01*
X117924293Y-94952482D01*
X117924299Y-94952485D01*
X118093293Y-95010500D01*
X118148171Y-95029340D01*
X118381648Y-95068300D01*
X118381651Y-95068300D01*
X118618349Y-95068300D01*
X118618352Y-95068300D01*
X118851829Y-95029340D01*
X119003902Y-94977132D01*
X119075700Y-94952485D01*
X119075702Y-94952484D01*
X119075708Y-94952482D01*
X119283883Y-94839823D01*
X119470677Y-94694436D01*
X119630992Y-94520287D01*
X119760457Y-94322125D01*
X119855541Y-94105358D01*
X119913648Y-93875896D01*
X119933195Y-93640001D01*
X133566805Y-93640001D01*
X133586351Y-93875892D01*
X133586352Y-93875895D01*
X133644458Y-94105355D01*
X133739542Y-94322123D01*
X133739543Y-94322127D01*
X133869006Y-94520285D01*
X134029320Y-94694433D01*
X134029324Y-94694437D01*
X134216118Y-94839824D01*
X134424286Y-94952479D01*
X134424292Y-94952482D01*
X134424293Y-94952482D01*
X134424299Y-94952485D01*
X134593293Y-95010500D01*
X134648171Y-95029340D01*
X134881648Y-95068300D01*
X134881651Y-95068300D01*
X135118349Y-95068300D01*
X135118352Y-95068300D01*
X135351829Y-95029340D01*
X135503902Y-94977132D01*
X135575700Y-94952485D01*
X135575702Y-94952484D01*
X135575708Y-94952482D01*
X135783883Y-94839823D01*
X135970677Y-94694436D01*
X136130992Y-94520287D01*
X136260457Y-94322125D01*
X136355541Y-94105358D01*
X136413648Y-93875896D01*
X136433195Y-93640000D01*
X136413648Y-93404104D01*
X136355541Y-93174642D01*
X136260457Y-92957875D01*
X136260456Y-92957874D01*
X136260456Y-92957872D01*
X136130993Y-92759714D01*
X135970679Y-92585566D01*
X135970675Y-92585562D01*
X135783881Y-92440175D01*
X135575713Y-92327520D01*
X135575700Y-92327514D01*
X135351842Y-92250664D01*
X135351836Y-92250662D01*
X135351829Y-92250660D01*
X135351822Y-92250658D01*
X135351819Y-92250658D01*
X135118357Y-92211700D01*
X135118352Y-92211700D01*
X134881648Y-92211700D01*
X134881642Y-92211700D01*
X134648180Y-92250658D01*
X134648174Y-92250659D01*
X134648171Y-92250660D01*
X134648166Y-92250661D01*
X134648157Y-92250664D01*
X134424299Y-92327514D01*
X134424286Y-92327520D01*
X134216118Y-92440175D01*
X134029324Y-92585562D01*
X134029320Y-92585566D01*
X133869006Y-92759714D01*
X133739543Y-92957872D01*
X133739542Y-92957876D01*
X133644458Y-93174644D01*
X133586352Y-93404104D01*
X133586351Y-93404107D01*
X133566805Y-93639998D01*
X133566805Y-93640001D01*
X119933195Y-93640001D01*
X119933195Y-93640000D01*
X119913648Y-93404104D01*
X119855541Y-93174642D01*
X119760457Y-92957875D01*
X119760456Y-92957874D01*
X119760456Y-92957872D01*
X119630993Y-92759714D01*
X119470679Y-92585566D01*
X119470675Y-92585562D01*
X119283881Y-92440175D01*
X119075713Y-92327520D01*
X119075700Y-92327514D01*
X118851842Y-92250664D01*
X118851836Y-92250662D01*
X118851829Y-92250660D01*
X118851822Y-92250658D01*
X118851819Y-92250658D01*
X118618357Y-92211700D01*
X118618352Y-92211700D01*
X118381648Y-92211700D01*
X118381642Y-92211700D01*
X118148180Y-92250658D01*
X118148174Y-92250659D01*
X118148171Y-92250660D01*
X118148166Y-92250661D01*
X118148157Y-92250664D01*
X117924299Y-92327514D01*
X117924286Y-92327520D01*
X117716118Y-92440175D01*
X117529324Y-92585562D01*
X117529320Y-92585566D01*
X117369006Y-92759714D01*
X117239543Y-92957872D01*
X117239542Y-92957876D01*
X117144458Y-93174644D01*
X117086352Y-93404104D01*
X117086351Y-93404107D01*
X117066805Y-93639998D01*
X117066805Y-93640001D01*
X116690500Y-93640001D01*
X116690500Y-89697559D01*
X117921700Y-89697559D01*
X117921701Y-89697564D01*
X117932043Y-89749565D01*
X117932045Y-89749571D01*
X117971451Y-89808545D01*
X117971452Y-89808545D01*
X117971453Y-89808547D01*
X118030431Y-89847955D01*
X118082439Y-89858300D01*
X118670300Y-89858299D01*
X118718638Y-89875892D01*
X118744358Y-89920441D01*
X118745500Y-89933499D01*
X118745500Y-90110623D01*
X118784245Y-90204164D01*
X119875834Y-91295753D01*
X119875835Y-91295753D01*
X119875837Y-91295755D01*
X119969377Y-91334501D01*
X119969378Y-91334501D01*
X120079375Y-91334501D01*
X120079383Y-91334500D01*
X121720622Y-91334500D01*
X121720623Y-91334500D01*
X121814163Y-91295755D01*
X123085676Y-90024241D01*
X123132294Y-90002502D01*
X123181981Y-90015816D01*
X123211486Y-90057953D01*
X123207002Y-90109197D01*
X123201599Y-90118101D01*
X123201604Y-90118104D01*
X123199139Y-90122372D01*
X123143671Y-90256288D01*
X123143670Y-90256291D01*
X123124750Y-90400000D01*
X123143670Y-90543709D01*
X123143671Y-90543711D01*
X123199139Y-90677626D01*
X123287378Y-90792621D01*
X123402373Y-90880860D01*
X123402374Y-90880860D01*
X123402375Y-90880861D01*
X123536291Y-90936330D01*
X123680000Y-90955250D01*
X123815842Y-90937365D01*
X123866059Y-90948499D01*
X123878829Y-90958748D01*
X123915835Y-90995754D01*
X123915836Y-90995754D01*
X123915837Y-90995755D01*
X124009377Y-91034500D01*
X124110623Y-91034500D01*
X125716501Y-91034500D01*
X125764839Y-91052093D01*
X125790559Y-91096642D01*
X125791701Y-91109700D01*
X125791701Y-91281591D01*
X125794412Y-91310525D01*
X125837054Y-91432389D01*
X125837056Y-91432392D01*
X125913725Y-91536275D01*
X126017607Y-91612943D01*
X126017610Y-91612945D01*
X126046863Y-91623180D01*
X126139475Y-91655587D01*
X126168407Y-91658300D01*
X126921592Y-91658299D01*
X126950525Y-91655587D01*
X127072392Y-91612944D01*
X127176275Y-91536275D01*
X127252944Y-91432392D01*
X127295587Y-91310525D01*
X127298300Y-91281593D01*
X127298300Y-91281591D01*
X127841700Y-91281591D01*
X127844412Y-91310525D01*
X127887054Y-91432389D01*
X127887056Y-91432392D01*
X127963725Y-91536275D01*
X128067607Y-91612943D01*
X128067610Y-91612945D01*
X128096863Y-91623180D01*
X128189475Y-91655587D01*
X128218407Y-91658300D01*
X128971592Y-91658299D01*
X129000525Y-91655587D01*
X129122392Y-91612944D01*
X129226275Y-91536275D01*
X129302944Y-91432392D01*
X129345587Y-91310525D01*
X129348299Y-91281600D01*
X129348300Y-91281599D01*
X129348300Y-91109700D01*
X129365893Y-91061362D01*
X129410442Y-91035642D01*
X129423500Y-91034500D01*
X129543434Y-91034500D01*
X129591772Y-91052093D01*
X129596608Y-91056526D01*
X129711251Y-91171169D01*
X129732991Y-91217789D01*
X129732634Y-91234158D01*
X129714750Y-91369999D01*
X129714750Y-91370000D01*
X129733670Y-91513709D01*
X129733671Y-91513711D01*
X129789139Y-91647626D01*
X129877378Y-91762621D01*
X129992373Y-91850860D01*
X129992374Y-91850860D01*
X129992375Y-91850861D01*
X130126291Y-91906330D01*
X130270000Y-91925250D01*
X130413709Y-91906330D01*
X130547625Y-91850861D01*
X130662621Y-91762621D01*
X130750861Y-91647625D01*
X130806330Y-91513709D01*
X130825250Y-91370000D01*
X130806330Y-91226291D01*
X130750861Y-91092375D01*
X130750860Y-91092374D01*
X130750860Y-91092373D01*
X130662621Y-90977378D01*
X130547626Y-90889139D01*
X130413711Y-90833671D01*
X130413709Y-90833670D01*
X130270000Y-90814750D01*
X130269999Y-90814750D01*
X130134158Y-90832634D01*
X130083938Y-90821500D01*
X130071173Y-90811255D01*
X129824163Y-90564245D01*
X129824162Y-90564244D01*
X129730623Y-90525500D01*
X129423499Y-90525500D01*
X129375161Y-90507907D01*
X129349441Y-90463358D01*
X129348299Y-90450300D01*
X129348299Y-90278408D01*
X129345587Y-90249474D01*
X129302945Y-90127610D01*
X129302943Y-90127607D01*
X129299080Y-90122373D01*
X129226275Y-90023725D01*
X129122392Y-89947056D01*
X129122389Y-89947054D01*
X129029780Y-89914649D01*
X129000525Y-89904413D01*
X129000520Y-89904412D01*
X129000518Y-89904412D01*
X128971600Y-89901700D01*
X128218408Y-89901700D01*
X128189474Y-89904412D01*
X128067610Y-89947054D01*
X128067607Y-89947056D01*
X127963725Y-90023725D01*
X127887056Y-90127607D01*
X127887054Y-90127610D01*
X127844414Y-90249472D01*
X127844414Y-90249474D01*
X127844412Y-90249481D01*
X127841700Y-90278398D01*
X127841700Y-91281591D01*
X127298300Y-91281591D01*
X127298299Y-90278408D01*
X127295587Y-90249475D01*
X127252944Y-90127608D01*
X127176275Y-90023725D01*
X127072392Y-89947056D01*
X127072389Y-89947054D01*
X126979780Y-89914649D01*
X126950525Y-89904413D01*
X126950520Y-89904412D01*
X126950518Y-89904412D01*
X126921600Y-89901700D01*
X126168408Y-89901700D01*
X126139474Y-89904412D01*
X126017610Y-89947054D01*
X126017607Y-89947056D01*
X125913725Y-90023725D01*
X125837056Y-90127607D01*
X125837054Y-90127610D01*
X125794414Y-90249472D01*
X125794414Y-90249474D01*
X125794412Y-90249481D01*
X125791700Y-90278398D01*
X125791700Y-90450300D01*
X125774107Y-90498638D01*
X125729558Y-90524358D01*
X125716500Y-90525500D01*
X124304477Y-90525500D01*
X124256139Y-90507907D01*
X124230419Y-90463358D01*
X124229920Y-90440485D01*
X124230609Y-90435245D01*
X124235250Y-90400000D01*
X124216330Y-90256291D01*
X124160861Y-90122375D01*
X124160860Y-90122374D01*
X124160860Y-90122373D01*
X124072621Y-90007378D01*
X124049139Y-89989360D01*
X124021500Y-89945976D01*
X124028215Y-89894976D01*
X124066141Y-89860224D01*
X124094918Y-89854500D01*
X125180622Y-89854500D01*
X125180623Y-89854500D01*
X125274163Y-89815755D01*
X126418391Y-88671525D01*
X126465011Y-88649786D01*
X126471565Y-88649500D01*
X127446501Y-88649500D01*
X127494839Y-88667093D01*
X127520559Y-88711642D01*
X127521701Y-88724700D01*
X127521701Y-88945972D01*
X127526046Y-88978985D01*
X127527994Y-88993782D01*
X127576920Y-89098706D01*
X127576926Y-89098714D01*
X127658785Y-89180573D01*
X127658793Y-89180579D01*
X127763714Y-89229504D01*
X127763716Y-89229504D01*
X127763719Y-89229506D01*
X127811527Y-89235800D01*
X128188472Y-89235799D01*
X128236281Y-89229506D01*
X128341210Y-89180577D01*
X128423077Y-89098710D01*
X128472006Y-88993781D01*
X128478300Y-88945973D01*
X128478300Y-88724700D01*
X128495893Y-88676362D01*
X128540442Y-88650642D01*
X128553500Y-88649500D01*
X129118433Y-88649500D01*
X129166771Y-88667093D01*
X129171607Y-88671525D01*
X129419955Y-88919872D01*
X129419968Y-88919887D01*
X129495835Y-88995754D01*
X129495836Y-88995754D01*
X129495837Y-88995755D01*
X129589377Y-89034500D01*
X129690623Y-89034500D01*
X131346501Y-89034500D01*
X131394839Y-89052093D01*
X131420559Y-89096642D01*
X131421701Y-89109700D01*
X131421701Y-89697564D01*
X131432043Y-89749565D01*
X131432045Y-89749571D01*
X131471451Y-89808545D01*
X131471452Y-89808545D01*
X131471453Y-89808547D01*
X131530431Y-89847955D01*
X131582439Y-89858300D01*
X133417560Y-89858299D01*
X133443564Y-89853127D01*
X133469565Y-89847956D01*
X133469566Y-89847955D01*
X133469569Y-89847955D01*
X133469569Y-89847954D01*
X133469571Y-89847954D01*
X133509043Y-89821579D01*
X133528547Y-89808547D01*
X133567955Y-89749569D01*
X133578300Y-89697561D01*
X133578299Y-87862440D01*
X133578299Y-87862438D01*
X133578299Y-87859765D01*
X133595892Y-87811427D01*
X133640441Y-87785707D01*
X133691099Y-87794640D01*
X133706673Y-87806591D01*
X134077936Y-88177854D01*
X134099676Y-88224474D01*
X134092079Y-88264547D01*
X134030206Y-88388805D01*
X134030204Y-88388812D01*
X133975520Y-88581005D01*
X133975519Y-88581014D01*
X133957080Y-88779997D01*
X133957080Y-88780002D01*
X133962251Y-88835800D01*
X133972459Y-88945969D01*
X133975519Y-88978985D01*
X133975520Y-88978994D01*
X134030204Y-89171187D01*
X134030210Y-89171203D01*
X134119280Y-89350080D01*
X134239708Y-89509554D01*
X134239711Y-89509557D01*
X134387392Y-89644187D01*
X134557297Y-89749388D01*
X134557299Y-89749388D01*
X134557301Y-89749390D01*
X134743645Y-89821580D01*
X134940081Y-89858300D01*
X134940086Y-89858300D01*
X135139914Y-89858300D01*
X135139919Y-89858300D01*
X135336355Y-89821580D01*
X135522699Y-89749390D01*
X135692605Y-89644189D01*
X135840288Y-89509558D01*
X135960717Y-89350084D01*
X136049793Y-89171196D01*
X136099710Y-88995754D01*
X136104479Y-88978994D01*
X136104479Y-88978992D01*
X136104481Y-88978986D01*
X136122920Y-88780000D01*
X136122576Y-88776291D01*
X136117468Y-88721168D01*
X136104481Y-88581014D01*
X136104479Y-88581008D01*
X136104479Y-88581005D01*
X136049795Y-88388812D01*
X136049793Y-88388804D01*
X136041177Y-88371500D01*
X135960719Y-88209919D01*
X135840291Y-88050445D01*
X135840288Y-88050442D01*
X135692607Y-87915812D01*
X135522702Y-87810611D01*
X135336356Y-87738420D01*
X135303615Y-87732300D01*
X135139919Y-87701700D01*
X134940081Y-87701700D01*
X134809123Y-87726180D01*
X134743643Y-87738420D01*
X134557300Y-87810610D01*
X134529646Y-87827732D01*
X134479286Y-87838218D01*
X134436886Y-87816968D01*
X133444164Y-86824245D01*
X133350623Y-86785500D01*
X131645690Y-86785500D01*
X131597352Y-86767907D01*
X131586030Y-86756079D01*
X131502621Y-86647378D01*
X131387626Y-86559139D01*
X131291145Y-86519176D01*
X131253219Y-86484424D01*
X131246504Y-86433424D01*
X131274143Y-86390040D01*
X131319922Y-86374500D01*
X133430621Y-86374500D01*
X133430623Y-86374500D01*
X133524163Y-86335755D01*
X133618586Y-86241330D01*
X133618588Y-86241329D01*
X133629162Y-86230755D01*
X133629163Y-86230755D01*
X135194161Y-84665755D01*
X135194163Y-84665755D01*
X135265755Y-84594163D01*
X135304500Y-84500623D01*
X135304500Y-84291996D01*
X135322093Y-84243658D01*
X135366642Y-84217938D01*
X135367809Y-84217742D01*
X135430091Y-84207879D01*
X135547448Y-84148082D01*
X135640582Y-84054948D01*
X135700379Y-83937591D01*
X135715800Y-83840225D01*
X135715799Y-83299776D01*
X135714115Y-83289140D01*
X135700380Y-83202410D01*
X135640581Y-83085050D01*
X135547449Y-82991918D01*
X135430091Y-82932121D01*
X135430093Y-82932121D01*
X135376164Y-82923580D01*
X135332725Y-82916700D01*
X135332723Y-82916700D01*
X134767281Y-82916700D01*
X134767269Y-82916701D01*
X134669910Y-82932119D01*
X134552550Y-82991918D01*
X134459418Y-83085050D01*
X134399621Y-83202407D01*
X134384200Y-83299773D01*
X134384200Y-83840218D01*
X134384201Y-83840230D01*
X134399619Y-83937589D01*
X134459418Y-84054949D01*
X134552550Y-84148081D01*
X134552552Y-84148082D01*
X134669909Y-84207879D01*
X134732065Y-84217723D01*
X134777053Y-84242659D01*
X134795489Y-84290682D01*
X134795500Y-84291996D01*
X134795500Y-84313434D01*
X134777907Y-84361772D01*
X134773474Y-84366608D01*
X133296608Y-85843474D01*
X133249988Y-85865214D01*
X133243434Y-85865500D01*
X131222789Y-85865500D01*
X131174451Y-85847907D01*
X131148731Y-85803358D01*
X131157664Y-85752700D01*
X131177010Y-85730640D01*
X131252621Y-85672621D01*
X131340861Y-85557625D01*
X131396330Y-85423709D01*
X131415250Y-85280000D01*
X131396330Y-85136291D01*
X131340861Y-85002375D01*
X131340860Y-85002374D01*
X131340860Y-85002373D01*
X131252621Y-84887378D01*
X131137626Y-84799139D01*
X131003711Y-84743671D01*
X131003709Y-84743670D01*
X130860000Y-84724750D01*
X130859998Y-84724750D01*
X130829514Y-84728763D01*
X130779294Y-84717628D01*
X130747980Y-84676818D01*
X130744500Y-84654206D01*
X130744500Y-84168499D01*
X130762093Y-84120161D01*
X130806642Y-84094441D01*
X130819700Y-84093299D01*
X131357560Y-84093299D01*
X131383564Y-84088127D01*
X131409565Y-84082956D01*
X131409566Y-84082955D01*
X131409569Y-84082955D01*
X131409569Y-84082954D01*
X131409571Y-84082954D01*
X131462442Y-84047626D01*
X131468547Y-84043547D01*
X131507955Y-83984569D01*
X131518300Y-83932561D01*
X131518299Y-83247440D01*
X131515560Y-83233670D01*
X131507956Y-83195434D01*
X131507954Y-83195428D01*
X131468548Y-83136454D01*
X131468544Y-83136451D01*
X131409569Y-83097045D01*
X131409567Y-83097044D01*
X131357561Y-83086700D01*
X129622440Y-83086700D01*
X129622435Y-83086701D01*
X129570434Y-83097043D01*
X129570428Y-83097045D01*
X129511454Y-83136451D01*
X129472045Y-83195431D01*
X129472044Y-83195432D01*
X129461700Y-83247438D01*
X129461700Y-83260300D01*
X129444107Y-83308638D01*
X129399558Y-83334358D01*
X129386500Y-83335500D01*
X127703571Y-83335500D01*
X127657792Y-83319960D01*
X127631486Y-83299775D01*
X127617625Y-83289139D01*
X127483709Y-83233670D01*
X127340000Y-83214750D01*
X127196291Y-83233670D01*
X127196289Y-83233670D01*
X127196286Y-83233671D01*
X127186995Y-83237519D01*
X127135604Y-83239759D01*
X127094797Y-83208441D01*
X127083667Y-83158219D01*
X127105047Y-83114869D01*
X127557357Y-82662559D01*
X129461700Y-82662559D01*
X129461701Y-82662564D01*
X129472043Y-82714565D01*
X129472045Y-82714571D01*
X129511451Y-82773545D01*
X129511452Y-82773545D01*
X129511453Y-82773547D01*
X129570431Y-82812955D01*
X129622439Y-82823300D01*
X131357560Y-82823299D01*
X131398063Y-82815243D01*
X131448903Y-82823068D01*
X131465906Y-82835824D01*
X132415835Y-83785754D01*
X132516219Y-83827334D01*
X132515440Y-83829212D01*
X132550819Y-83850679D01*
X132566448Y-83885988D01*
X132574619Y-83937589D01*
X132634418Y-84054949D01*
X132727550Y-84148081D01*
X132727552Y-84148082D01*
X132844907Y-84207878D01*
X132844909Y-84207879D01*
X132942275Y-84223300D01*
X133507724Y-84223299D01*
X133514341Y-84222250D01*
X133605089Y-84207880D01*
X133605093Y-84207878D01*
X133722448Y-84148082D01*
X133815582Y-84054948D01*
X133875379Y-83937591D01*
X133890800Y-83840225D01*
X133890799Y-83299776D01*
X133889115Y-83289140D01*
X133875380Y-83202410D01*
X133815581Y-83085050D01*
X133722449Y-82991918D01*
X133605091Y-82932121D01*
X133605093Y-82932121D01*
X133551164Y-82923580D01*
X133507725Y-82916700D01*
X133507723Y-82916700D01*
X132942281Y-82916700D01*
X132942269Y-82916701D01*
X132844910Y-82932119D01*
X132727550Y-82991918D01*
X132634418Y-83085050D01*
X132634416Y-83085053D01*
X132614084Y-83124956D01*
X132576463Y-83160038D01*
X132525093Y-83162729D01*
X132493907Y-83143989D01*
X131540325Y-82190407D01*
X131518585Y-82143787D01*
X131518299Y-82137233D01*
X131518299Y-81977440D01*
X131518298Y-81977435D01*
X131507956Y-81925434D01*
X131507954Y-81925428D01*
X131468548Y-81866454D01*
X131459546Y-81860439D01*
X131409569Y-81827045D01*
X131409567Y-81827044D01*
X131357561Y-81816700D01*
X129622440Y-81816700D01*
X129622435Y-81816701D01*
X129570434Y-81827043D01*
X129570428Y-81827045D01*
X129511454Y-81866451D01*
X129472045Y-81925431D01*
X129472044Y-81925432D01*
X129461700Y-81977438D01*
X129461700Y-82662559D01*
X127557357Y-82662559D01*
X127674161Y-82545755D01*
X127674163Y-82545755D01*
X127745755Y-82474163D01*
X127784500Y-82380623D01*
X127784500Y-81905689D01*
X127802093Y-81857351D01*
X127813916Y-81846033D01*
X127922621Y-81762621D01*
X128010861Y-81647625D01*
X128066330Y-81513709D01*
X128085250Y-81370000D01*
X128085249Y-81369998D01*
X128085265Y-81369884D01*
X128109018Y-81324256D01*
X128156542Y-81304572D01*
X128159822Y-81304500D01*
X129386501Y-81304500D01*
X129434839Y-81322093D01*
X129460559Y-81366642D01*
X129461701Y-81379700D01*
X129461701Y-81392564D01*
X129472043Y-81444565D01*
X129472045Y-81444571D01*
X129511451Y-81503545D01*
X129511452Y-81503545D01*
X129511453Y-81503547D01*
X129570431Y-81542955D01*
X129622439Y-81553300D01*
X131357560Y-81553299D01*
X131383564Y-81548127D01*
X131409565Y-81542956D01*
X131409566Y-81542955D01*
X131409569Y-81542955D01*
X131409569Y-81542954D01*
X131409571Y-81542954D01*
X131452728Y-81514117D01*
X131468547Y-81503547D01*
X131507955Y-81444569D01*
X131518300Y-81392561D01*
X131518299Y-81035731D01*
X131535892Y-80987396D01*
X131580440Y-80961675D01*
X131631099Y-80970608D01*
X131662975Y-81006955D01*
X131674244Y-81034162D01*
X131674245Y-81034163D01*
X132132174Y-81492091D01*
X132153914Y-81538711D01*
X132154200Y-81545265D01*
X132154200Y-81700217D01*
X132154202Y-81700230D01*
X132169619Y-81797589D01*
X132229418Y-81914949D01*
X132322550Y-82008081D01*
X132322552Y-82008082D01*
X132439907Y-82067878D01*
X132439909Y-82067879D01*
X132537275Y-82083300D01*
X133102724Y-82083299D01*
X133110162Y-82082121D01*
X133200089Y-82067880D01*
X133263143Y-82035752D01*
X133317448Y-82008082D01*
X133410582Y-81914948D01*
X133470379Y-81797591D01*
X133485800Y-81700225D01*
X133485800Y-81700218D01*
X133979200Y-81700218D01*
X133979201Y-81700230D01*
X133994619Y-81797589D01*
X134054418Y-81914949D01*
X134147550Y-82008081D01*
X134147552Y-82008082D01*
X134264907Y-82067878D01*
X134264909Y-82067879D01*
X134362275Y-82083300D01*
X134927724Y-82083299D01*
X134977437Y-82075426D01*
X134989200Y-82074500D01*
X135080621Y-82074500D01*
X135080623Y-82074500D01*
X135174163Y-82035755D01*
X135265754Y-81944163D01*
X135304500Y-81850623D01*
X135304500Y-81749377D01*
X135304500Y-81745915D01*
X135305426Y-81734150D01*
X135307940Y-81718277D01*
X135310800Y-81700225D01*
X135310799Y-81159776D01*
X135300125Y-81092375D01*
X135295380Y-81062410D01*
X135235581Y-80945050D01*
X135142449Y-80851918D01*
X135025091Y-80792121D01*
X135025093Y-80792121D01*
X134988363Y-80786303D01*
X134962935Y-80782276D01*
X134917946Y-80757339D01*
X134899511Y-80709316D01*
X134899500Y-80708003D01*
X134899500Y-80651565D01*
X134917093Y-80603227D01*
X134921514Y-80598402D01*
X135194161Y-80325755D01*
X135194163Y-80325755D01*
X135265755Y-80254163D01*
X135298198Y-80175837D01*
X135304500Y-80160624D01*
X135304500Y-80059377D01*
X135304500Y-79901996D01*
X135322093Y-79853658D01*
X135366642Y-79827938D01*
X135367809Y-79827742D01*
X135430091Y-79817879D01*
X135547448Y-79758082D01*
X135640582Y-79664948D01*
X135700379Y-79547591D01*
X135715800Y-79450225D01*
X135715799Y-79007512D01*
X135733392Y-78959176D01*
X135777940Y-78933455D01*
X135828599Y-78942388D01*
X135850659Y-78961734D01*
X135897378Y-79022621D01*
X136012373Y-79110860D01*
X136012374Y-79110860D01*
X136012375Y-79110861D01*
X136146291Y-79166330D01*
X136290000Y-79185250D01*
X136433709Y-79166330D01*
X136567625Y-79110861D01*
X136682621Y-79022621D01*
X136770861Y-78907625D01*
X136826330Y-78773709D01*
X136845250Y-78630000D01*
X136826330Y-78486291D01*
X136770861Y-78352375D01*
X136770860Y-78352374D01*
X136770860Y-78352373D01*
X136682621Y-78237378D01*
X136567626Y-78149139D01*
X136433711Y-78093671D01*
X136433709Y-78093670D01*
X136290000Y-78074750D01*
X136146291Y-78093670D01*
X136146288Y-78093670D01*
X136146288Y-78093671D01*
X136012373Y-78149139D01*
X135897378Y-78237378D01*
X135813970Y-78346079D01*
X135770586Y-78373717D01*
X135754310Y-78375500D01*
X135549376Y-78375500D01*
X135521978Y-78386847D01*
X135521979Y-78386848D01*
X135455836Y-78414245D01*
X135420041Y-78450041D01*
X135384245Y-78485837D01*
X135384244Y-78485838D01*
X135365408Y-78504674D01*
X135365406Y-78504676D01*
X135318785Y-78526414D01*
X135312233Y-78526700D01*
X134767281Y-78526700D01*
X134767269Y-78526701D01*
X134669910Y-78542119D01*
X134552550Y-78601918D01*
X134459418Y-78695050D01*
X134399621Y-78812407D01*
X134384200Y-78909773D01*
X134384200Y-79450218D01*
X134384201Y-79450230D01*
X134399619Y-79547589D01*
X134459418Y-79664949D01*
X134552550Y-79758081D01*
X134552552Y-79758082D01*
X134669909Y-79817879D01*
X134732065Y-79827723D01*
X134777053Y-79852659D01*
X134795489Y-79900682D01*
X134795500Y-79901996D01*
X134795500Y-79973433D01*
X134777907Y-80021771D01*
X134773474Y-80026607D01*
X134429245Y-80370835D01*
X134390500Y-80464376D01*
X134390500Y-80708003D01*
X134372907Y-80756341D01*
X134328358Y-80782061D01*
X134327063Y-80782277D01*
X134264910Y-80792119D01*
X134147550Y-80851918D01*
X134054418Y-80945050D01*
X133994621Y-81062407D01*
X133979200Y-81159773D01*
X133979200Y-81700218D01*
X133485800Y-81700218D01*
X133485799Y-81159776D01*
X133475125Y-81092375D01*
X133470380Y-81062410D01*
X133410581Y-80945050D01*
X133317449Y-80851918D01*
X133200091Y-80792121D01*
X133200093Y-80792121D01*
X133137937Y-80782277D01*
X133102725Y-80776700D01*
X133102723Y-80776700D01*
X132537281Y-80776700D01*
X132537269Y-80776701D01*
X132439909Y-80792119D01*
X132322552Y-80851917D01*
X132322550Y-80851918D01*
X132320363Y-80854106D01*
X132318066Y-80855176D01*
X132317763Y-80855397D01*
X132317720Y-80855338D01*
X132273741Y-80875841D01*
X132224055Y-80862524D01*
X132214018Y-80854101D01*
X132200503Y-80840586D01*
X132166525Y-80806607D01*
X132144786Y-80759986D01*
X132144500Y-80753433D01*
X132144500Y-79389377D01*
X132105755Y-79295837D01*
X132105754Y-79295836D01*
X132105754Y-79295835D01*
X132029890Y-79219971D01*
X132029875Y-79219958D01*
X131364163Y-78554245D01*
X131364162Y-78554244D01*
X131270623Y-78515500D01*
X127310623Y-78515500D01*
X127209377Y-78515500D01*
X127115835Y-78554245D01*
X125932704Y-79737378D01*
X125565837Y-80104245D01*
X125547523Y-80122559D01*
X125494244Y-80175837D01*
X125455500Y-80269376D01*
X125455500Y-80824310D01*
X125437907Y-80872648D01*
X125426079Y-80883970D01*
X125317378Y-80967378D01*
X125229139Y-81082373D01*
X125173671Y-81216288D01*
X125173670Y-81216291D01*
X125159741Y-81322093D01*
X125154750Y-81360000D01*
X125164470Y-81433832D01*
X125153336Y-81484052D01*
X125112526Y-81515367D01*
X125061135Y-81513123D01*
X125036739Y-81496821D01*
X124374164Y-80834245D01*
X124280623Y-80795500D01*
X124278828Y-80795143D01*
X124276821Y-80793925D01*
X124273781Y-80792666D01*
X124273974Y-80792198D01*
X124234851Y-80768457D01*
X124218299Y-80721388D01*
X124218299Y-80707440D01*
X124218298Y-80707435D01*
X124206511Y-80648166D01*
X124208805Y-80647709D01*
X124207035Y-80607249D01*
X124238346Y-80566436D01*
X124252479Y-80559396D01*
X124282087Y-80548353D01*
X124282092Y-80548350D01*
X124397189Y-80462189D01*
X124483350Y-80347092D01*
X124483351Y-80347090D01*
X124533597Y-80212377D01*
X124533598Y-80212374D01*
X124539999Y-80152831D01*
X124540000Y-80152820D01*
X124540000Y-80030000D01*
X121840000Y-80030000D01*
X121840000Y-80152831D01*
X121846401Y-80212374D01*
X121846402Y-80212377D01*
X121896648Y-80347090D01*
X121896649Y-80347092D01*
X121982810Y-80462189D01*
X122097907Y-80548350D01*
X122097912Y-80548353D01*
X122127520Y-80559396D01*
X122166663Y-80592772D01*
X122175194Y-80643499D01*
X122172823Y-80651519D01*
X122161700Y-80707438D01*
X122161700Y-81392559D01*
X122161701Y-81392564D01*
X122172043Y-81444565D01*
X122172045Y-81444571D01*
X122211451Y-81503545D01*
X122211452Y-81503545D01*
X122211453Y-81503547D01*
X122270431Y-81542955D01*
X122322439Y-81553300D01*
X124057560Y-81553299D01*
X124083564Y-81548127D01*
X124109565Y-81542956D01*
X124109566Y-81542955D01*
X124109569Y-81542955D01*
X124109569Y-81542954D01*
X124109571Y-81542954D01*
X124168546Y-81503548D01*
X124179756Y-81486771D01*
X124221238Y-81456354D01*
X124272568Y-81459717D01*
X124295457Y-81475375D01*
X125615834Y-82795753D01*
X125615835Y-82795753D01*
X125615837Y-82795755D01*
X125681078Y-82822779D01*
X125717423Y-82854653D01*
X125719138Y-82857624D01*
X125732104Y-82874521D01*
X125747572Y-82923580D01*
X125727888Y-82971104D01*
X125682260Y-82994857D01*
X125672444Y-82995500D01*
X125626566Y-82995500D01*
X125578228Y-82977907D01*
X125573392Y-82973474D01*
X124704164Y-82104245D01*
X124610623Y-82065500D01*
X124293499Y-82065500D01*
X124245161Y-82047907D01*
X124219441Y-82003358D01*
X124218299Y-81990300D01*
X124218299Y-81977440D01*
X124218298Y-81977435D01*
X124207956Y-81925434D01*
X124207954Y-81925428D01*
X124168548Y-81866454D01*
X124159546Y-81860439D01*
X124109569Y-81827045D01*
X124109567Y-81827044D01*
X124057561Y-81816700D01*
X122322440Y-81816700D01*
X122322435Y-81816701D01*
X122270434Y-81827043D01*
X122270428Y-81827045D01*
X122211454Y-81866451D01*
X122172045Y-81925431D01*
X122172044Y-81925432D01*
X122166857Y-81951509D01*
X122140169Y-81995485D01*
X122091459Y-82012018D01*
X122043517Y-81993373D01*
X122039928Y-81990010D01*
X121377712Y-81327794D01*
X121355972Y-81281174D01*
X121355939Y-81273180D01*
X121355800Y-81273180D01*
X121355799Y-80729781D01*
X121355798Y-80729773D01*
X121353199Y-80713358D01*
X121340380Y-80632410D01*
X121280581Y-80515050D01*
X121187449Y-80421918D01*
X121070091Y-80362121D01*
X121070093Y-80362121D01*
X121021408Y-80354410D01*
X120972725Y-80346700D01*
X120972723Y-80346700D01*
X120407281Y-80346700D01*
X120407269Y-80346701D01*
X120309910Y-80362119D01*
X120192550Y-80421918D01*
X120099418Y-80515050D01*
X120039621Y-80632407D01*
X120024200Y-80729773D01*
X120024200Y-81270218D01*
X120024201Y-81270230D01*
X120039619Y-81367589D01*
X120099418Y-81484949D01*
X120192550Y-81578081D01*
X120192552Y-81578082D01*
X120293047Y-81629287D01*
X120328129Y-81666908D01*
X120330821Y-81718277D01*
X120299864Y-81759359D01*
X120282561Y-81767674D01*
X120156194Y-81809548D01*
X120009465Y-81900052D01*
X120009461Y-81900055D01*
X119887555Y-82021961D01*
X119887552Y-82021965D01*
X119797048Y-82168694D01*
X119742820Y-82332347D01*
X119742819Y-82332349D01*
X119732500Y-82433359D01*
X119732500Y-82470000D01*
X121715375Y-82470000D01*
X121747233Y-82455143D01*
X121796921Y-82468455D01*
X121806964Y-82476883D01*
X121865834Y-82535753D01*
X121865835Y-82535753D01*
X121865837Y-82535755D01*
X121959377Y-82574501D01*
X121959378Y-82574501D01*
X122069375Y-82574501D01*
X122069383Y-82574500D01*
X122086501Y-82574500D01*
X122134839Y-82592093D01*
X122160559Y-82636642D01*
X122161701Y-82649700D01*
X122161701Y-82662564D01*
X122172043Y-82714565D01*
X122172045Y-82714571D01*
X122211451Y-82773545D01*
X122211452Y-82773545D01*
X122211453Y-82773547D01*
X122270431Y-82812955D01*
X122322439Y-82823300D01*
X124057560Y-82823299D01*
X124083564Y-82818127D01*
X124109565Y-82812956D01*
X124109566Y-82812955D01*
X124109569Y-82812955D01*
X124109569Y-82812954D01*
X124109571Y-82812954D01*
X124140831Y-82792066D01*
X124168547Y-82773547D01*
X124207955Y-82714569D01*
X124218300Y-82662561D01*
X124218300Y-82649700D01*
X124235893Y-82601362D01*
X124280442Y-82575642D01*
X124293500Y-82574500D01*
X124423434Y-82574500D01*
X124471772Y-82592093D01*
X124476608Y-82596526D01*
X125345834Y-83465753D01*
X125345835Y-83465753D01*
X125345837Y-83465755D01*
X125439377Y-83504501D01*
X125439378Y-83504501D01*
X125549375Y-83504501D01*
X125549383Y-83504500D01*
X126660622Y-83504500D01*
X126660623Y-83504500D01*
X126726462Y-83477229D01*
X126777852Y-83474986D01*
X126818662Y-83506300D01*
X126829796Y-83556521D01*
X126824715Y-83575482D01*
X126803671Y-83626287D01*
X126803670Y-83626289D01*
X126803670Y-83626291D01*
X126784750Y-83770000D01*
X126803670Y-83913709D01*
X126803670Y-83913711D01*
X126803671Y-83913712D01*
X126807478Y-83922903D01*
X126809721Y-83974294D01*
X126807479Y-83980455D01*
X126795500Y-84009376D01*
X126795500Y-85246081D01*
X126777907Y-85294419D01*
X126752081Y-85314235D01*
X126708793Y-85334420D01*
X126708785Y-85334426D01*
X126626926Y-85416285D01*
X126626920Y-85416293D01*
X126577995Y-85521214D01*
X126577993Y-85521220D01*
X126571700Y-85569028D01*
X126571700Y-85960300D01*
X126554107Y-86008638D01*
X126509558Y-86034358D01*
X126496500Y-86035500D01*
X125583286Y-86035500D01*
X125534948Y-86017907D01*
X125509228Y-85973358D01*
X125509011Y-85972059D01*
X125507879Y-85964909D01*
X125507878Y-85964908D01*
X125507879Y-85964908D01*
X125448081Y-85847550D01*
X125354949Y-85754418D01*
X125237591Y-85694621D01*
X125237593Y-85694621D01*
X125188908Y-85686910D01*
X125140225Y-85679200D01*
X125140223Y-85679200D01*
X124599781Y-85679200D01*
X124599769Y-85679201D01*
X124502410Y-85694619D01*
X124385050Y-85754418D01*
X124291918Y-85847550D01*
X124232121Y-85964907D01*
X124216700Y-86062273D01*
X124216700Y-86627718D01*
X124216701Y-86627730D01*
X124232119Y-86725089D01*
X124291918Y-86842449D01*
X124385050Y-86935581D01*
X124385052Y-86935582D01*
X124502407Y-86995378D01*
X124502409Y-86995379D01*
X124599775Y-87010800D01*
X125140224Y-87010799D01*
X125146841Y-87009750D01*
X125237589Y-86995380D01*
X125270680Y-86978519D01*
X125354948Y-86935582D01*
X125448082Y-86842448D01*
X125507879Y-86725091D01*
X125523300Y-86627725D01*
X125523300Y-86619700D01*
X125540893Y-86571362D01*
X125585442Y-86545642D01*
X125598500Y-86544500D01*
X126496501Y-86544500D01*
X126544839Y-86562093D01*
X126570559Y-86606642D01*
X126571701Y-86619700D01*
X126571701Y-86670972D01*
X126576420Y-86706828D01*
X126577994Y-86718782D01*
X126626920Y-86823706D01*
X126626926Y-86823714D01*
X126708785Y-86905573D01*
X126708793Y-86905579D01*
X126787211Y-86942146D01*
X126823584Y-86978519D01*
X126828068Y-87029763D01*
X126798563Y-87071900D01*
X126755430Y-87085500D01*
X126689377Y-87085500D01*
X126595837Y-87124244D01*
X126560041Y-87160040D01*
X126524245Y-87195837D01*
X125826608Y-87893474D01*
X125779988Y-87915214D01*
X125773434Y-87915500D01*
X125591997Y-87915500D01*
X125543659Y-87897907D01*
X125517939Y-87853358D01*
X125517723Y-87852063D01*
X125507880Y-87789910D01*
X125448081Y-87672550D01*
X125354949Y-87579418D01*
X125237591Y-87519621D01*
X125237593Y-87519621D01*
X125188908Y-87511910D01*
X125140225Y-87504200D01*
X125140223Y-87504200D01*
X124599781Y-87504200D01*
X124599769Y-87504201D01*
X124502410Y-87519619D01*
X124385050Y-87579418D01*
X124291918Y-87672550D01*
X124232121Y-87789907D01*
X124216700Y-87887273D01*
X124216700Y-88454751D01*
X124199107Y-88503089D01*
X124154558Y-88528809D01*
X124103900Y-88519876D01*
X124095721Y-88514411D01*
X123997626Y-88439139D01*
X123876106Y-88388805D01*
X123863709Y-88383670D01*
X123720000Y-88364750D01*
X123719999Y-88364750D01*
X123584158Y-88382634D01*
X123533938Y-88371500D01*
X123521169Y-88361251D01*
X123437926Y-88278008D01*
X123416186Y-88231388D01*
X123415900Y-88224834D01*
X123415900Y-84168499D01*
X123433493Y-84120161D01*
X123478042Y-84094441D01*
X123491100Y-84093299D01*
X124057560Y-84093299D01*
X124083564Y-84088127D01*
X124109565Y-84082956D01*
X124109566Y-84082955D01*
X124109569Y-84082955D01*
X124109569Y-84082954D01*
X124109571Y-84082954D01*
X124162442Y-84047626D01*
X124168547Y-84043547D01*
X124207955Y-83984569D01*
X124218300Y-83932561D01*
X124218299Y-83247440D01*
X124215560Y-83233670D01*
X124207956Y-83195434D01*
X124207954Y-83195428D01*
X124168548Y-83136454D01*
X124168544Y-83136451D01*
X124109569Y-83097045D01*
X124109567Y-83097044D01*
X124057561Y-83086700D01*
X122322440Y-83086700D01*
X122322435Y-83086701D01*
X122270434Y-83097043D01*
X122270428Y-83097045D01*
X122211454Y-83136451D01*
X122172045Y-83195431D01*
X122172044Y-83195432D01*
X122161700Y-83247438D01*
X122161700Y-83932559D01*
X122161701Y-83932564D01*
X122172043Y-83984565D01*
X122172045Y-83984571D01*
X122211451Y-84043545D01*
X122211452Y-84043545D01*
X122211453Y-84043547D01*
X122270431Y-84082955D01*
X122322439Y-84093300D01*
X122831700Y-84093299D01*
X122880038Y-84110892D01*
X122905758Y-84155441D01*
X122906900Y-84168499D01*
X122906900Y-88412023D01*
X122945644Y-88505562D01*
X122945645Y-88505563D01*
X123161251Y-88721169D01*
X123182991Y-88767789D01*
X123182634Y-88784158D01*
X123175835Y-88835799D01*
X123164750Y-88920000D01*
X123183670Y-89063709D01*
X123183671Y-89063711D01*
X123239139Y-89197626D01*
X123259776Y-89224520D01*
X123275245Y-89273579D01*
X123255561Y-89321104D01*
X123209934Y-89344857D01*
X123200117Y-89345500D01*
X123099377Y-89345500D01*
X123005837Y-89384244D01*
X122970041Y-89420040D01*
X122934245Y-89455837D01*
X121586608Y-90803474D01*
X121539988Y-90825214D01*
X121533434Y-90825500D01*
X120156566Y-90825500D01*
X120108228Y-90807907D01*
X120103392Y-90803474D01*
X119286591Y-89986673D01*
X119264851Y-89940053D01*
X119278165Y-89890366D01*
X119320302Y-89860861D01*
X119339765Y-89858299D01*
X119917560Y-89858299D01*
X119943564Y-89853127D01*
X119969565Y-89847956D01*
X119969566Y-89847955D01*
X119969569Y-89847955D01*
X119969569Y-89847954D01*
X119969571Y-89847954D01*
X120009043Y-89821579D01*
X120028547Y-89808547D01*
X120067955Y-89749569D01*
X120078300Y-89697561D01*
X120078300Y-88780002D01*
X120457080Y-88780002D01*
X120462251Y-88835800D01*
X120472459Y-88945969D01*
X120475519Y-88978985D01*
X120475520Y-88978994D01*
X120530204Y-89171187D01*
X120530210Y-89171203D01*
X120619280Y-89350080D01*
X120739708Y-89509554D01*
X120739711Y-89509557D01*
X120887392Y-89644187D01*
X121057297Y-89749388D01*
X121057299Y-89749388D01*
X121057301Y-89749390D01*
X121243645Y-89821580D01*
X121440081Y-89858300D01*
X121440086Y-89858300D01*
X121639914Y-89858300D01*
X121639919Y-89858300D01*
X121836355Y-89821580D01*
X122022699Y-89749390D01*
X122192605Y-89644189D01*
X122340288Y-89509558D01*
X122460717Y-89350084D01*
X122549793Y-89171196D01*
X122599710Y-88995754D01*
X122604479Y-88978994D01*
X122604479Y-88978992D01*
X122604481Y-88978986D01*
X122622920Y-88780000D01*
X122622576Y-88776291D01*
X122617468Y-88721168D01*
X122604481Y-88581014D01*
X122604479Y-88581008D01*
X122604479Y-88581005D01*
X122549795Y-88388812D01*
X122549793Y-88388804D01*
X122541177Y-88371500D01*
X122460719Y-88209919D01*
X122340291Y-88050445D01*
X122340288Y-88050442D01*
X122192607Y-87915812D01*
X122022702Y-87810611D01*
X121836356Y-87738420D01*
X121803615Y-87732300D01*
X121639919Y-87701700D01*
X121440081Y-87701700D01*
X121309123Y-87726180D01*
X121243643Y-87738420D01*
X121057298Y-87810611D01*
X121057297Y-87810611D01*
X120887392Y-87915812D01*
X120739711Y-88050442D01*
X120739708Y-88050445D01*
X120619280Y-88209919D01*
X120530210Y-88388796D01*
X120530204Y-88388812D01*
X120475520Y-88581005D01*
X120475519Y-88581014D01*
X120457080Y-88779997D01*
X120457080Y-88780002D01*
X120078300Y-88780002D01*
X120078299Y-87862440D01*
X120076235Y-87852063D01*
X120067956Y-87810434D01*
X120067954Y-87810428D01*
X120028548Y-87751454D01*
X120028544Y-87751451D01*
X119969569Y-87712045D01*
X119969567Y-87712044D01*
X119917561Y-87701700D01*
X118082440Y-87701700D01*
X118082435Y-87701701D01*
X118030434Y-87712043D01*
X118030428Y-87712045D01*
X117971454Y-87751451D01*
X117932045Y-87810431D01*
X117932044Y-87810432D01*
X117921700Y-87862438D01*
X117921700Y-89697559D01*
X116690500Y-89697559D01*
X116690500Y-82508146D01*
X116708093Y-82459808D01*
X116752642Y-82434088D01*
X116803300Y-82443021D01*
X116824923Y-82464647D01*
X116826138Y-82463715D01*
X116917378Y-82582621D01*
X117032373Y-82670860D01*
X117032374Y-82670860D01*
X117032375Y-82670861D01*
X117166291Y-82726330D01*
X117310000Y-82745250D01*
X117445843Y-82727365D01*
X117496062Y-82738499D01*
X117508831Y-82748748D01*
X117619952Y-82859869D01*
X117619965Y-82859884D01*
X117695835Y-82935754D01*
X117695836Y-82935754D01*
X117695837Y-82935755D01*
X117789377Y-82974500D01*
X117890623Y-82974500D01*
X118162483Y-82974500D01*
X118210821Y-82992093D01*
X118236541Y-83036642D01*
X118236757Y-83037938D01*
X118244619Y-83087589D01*
X118304418Y-83204949D01*
X118397550Y-83298081D01*
X118397552Y-83298082D01*
X118514907Y-83357878D01*
X118514909Y-83357879D01*
X118612275Y-83373300D01*
X119177724Y-83373299D01*
X119184341Y-83372250D01*
X119275089Y-83357880D01*
X119275093Y-83357878D01*
X119392448Y-83298082D01*
X119485582Y-83204948D01*
X119545379Y-83087591D01*
X119560800Y-82990225D01*
X119560800Y-82970000D01*
X119732501Y-82970000D01*
X119732501Y-83006641D01*
X119742820Y-83107655D01*
X119797048Y-83271305D01*
X119887552Y-83418034D01*
X119887555Y-83418038D01*
X120009461Y-83539944D01*
X120009465Y-83539947D01*
X120156195Y-83630451D01*
X120156194Y-83630451D01*
X120319847Y-83684679D01*
X120319849Y-83684680D01*
X120420858Y-83694999D01*
X120469999Y-83694998D01*
X120470000Y-83694998D01*
X120470000Y-82970000D01*
X120970000Y-82970000D01*
X120970000Y-83694999D01*
X121019141Y-83694999D01*
X121120155Y-83684679D01*
X121283805Y-83630451D01*
X121430534Y-83539947D01*
X121430538Y-83539944D01*
X121552444Y-83418038D01*
X121552447Y-83418034D01*
X121642951Y-83271305D01*
X121697179Y-83107652D01*
X121697180Y-83107650D01*
X121707500Y-83006640D01*
X121707500Y-82970000D01*
X120970000Y-82970000D01*
X120470000Y-82970000D01*
X119732501Y-82970000D01*
X119560800Y-82970000D01*
X119560799Y-82449776D01*
X119559729Y-82443021D01*
X119545380Y-82352410D01*
X119485581Y-82235050D01*
X119392449Y-82141918D01*
X119291952Y-82090712D01*
X119256870Y-82053091D01*
X119254178Y-82001721D01*
X119285135Y-81960640D01*
X119302438Y-81952325D01*
X119428805Y-81910451D01*
X119575534Y-81819947D01*
X119575538Y-81819944D01*
X119697444Y-81698038D01*
X119697447Y-81698034D01*
X119787951Y-81551305D01*
X119842179Y-81387652D01*
X119842180Y-81387650D01*
X119852500Y-81286640D01*
X119852500Y-81250000D01*
X117877501Y-81250000D01*
X117877501Y-81286641D01*
X117887820Y-81387655D01*
X117942048Y-81551305D01*
X118032552Y-81698034D01*
X118032555Y-81698038D01*
X118154461Y-81819944D01*
X118154465Y-81819947D01*
X118301195Y-81910451D01*
X118301194Y-81910451D01*
X118463918Y-81964372D01*
X118504268Y-81996277D01*
X118514670Y-82046654D01*
X118490257Y-82091931D01*
X118474405Y-82102758D01*
X118397553Y-82141916D01*
X118397550Y-82141918D01*
X118304418Y-82235050D01*
X118244621Y-82352407D01*
X118244621Y-82352409D01*
X118238853Y-82388831D01*
X118236757Y-82402063D01*
X118211819Y-82447054D01*
X118163796Y-82465489D01*
X118162483Y-82465500D01*
X117976565Y-82465500D01*
X117928227Y-82447907D01*
X117923391Y-82443474D01*
X117868748Y-82388831D01*
X117847008Y-82342211D01*
X117847364Y-82325848D01*
X117865250Y-82190000D01*
X117846330Y-82046291D01*
X117790861Y-81912375D01*
X117790860Y-81912374D01*
X117790860Y-81912373D01*
X117702621Y-81797378D01*
X117587626Y-81709139D01*
X117453711Y-81653671D01*
X117453709Y-81653670D01*
X117310000Y-81634750D01*
X117166291Y-81653670D01*
X117166288Y-81653670D01*
X117166288Y-81653671D01*
X117032373Y-81709139D01*
X116917378Y-81797378D01*
X116826138Y-81916285D01*
X116824335Y-81914902D01*
X116791408Y-81942522D01*
X116739968Y-81942513D01*
X116700568Y-81909442D01*
X116690500Y-81871853D01*
X116690500Y-80750000D01*
X117877500Y-80750000D01*
X118615000Y-80750000D01*
X118615000Y-80025000D01*
X119115000Y-80025000D01*
X119115000Y-80750000D01*
X119852499Y-80750000D01*
X119852499Y-80713358D01*
X119842179Y-80612344D01*
X119787951Y-80448694D01*
X119697447Y-80301965D01*
X119697444Y-80301961D01*
X119575538Y-80180055D01*
X119575534Y-80180052D01*
X119428804Y-80089548D01*
X119428805Y-80089548D01*
X119265152Y-80035320D01*
X119265150Y-80035319D01*
X119164141Y-80025000D01*
X119115000Y-80025000D01*
X118615000Y-80025000D01*
X118615000Y-80024999D01*
X118565859Y-80025000D01*
X118464844Y-80035320D01*
X118301194Y-80089548D01*
X118154465Y-80180052D01*
X118154461Y-80180055D01*
X118032555Y-80301961D01*
X118032552Y-80301965D01*
X117942048Y-80448694D01*
X117887820Y-80612347D01*
X117887819Y-80612349D01*
X117877500Y-80713359D01*
X117877500Y-80750000D01*
X116690500Y-80750000D01*
X116690500Y-79530000D01*
X121840000Y-79530000D01*
X122940000Y-79530000D01*
X122940000Y-78955000D01*
X123440000Y-78955000D01*
X123440000Y-79530000D01*
X124540000Y-79530000D01*
X124540000Y-79407180D01*
X124539999Y-79407168D01*
X124533598Y-79347625D01*
X124533597Y-79347622D01*
X124483351Y-79212909D01*
X124483350Y-79212907D01*
X124397189Y-79097810D01*
X124282092Y-79011649D01*
X124282090Y-79011648D01*
X124147377Y-78961402D01*
X124147374Y-78961401D01*
X124087831Y-78955000D01*
X123440000Y-78955000D01*
X122940000Y-78955000D01*
X122292168Y-78955000D01*
X122232625Y-78961401D01*
X122232622Y-78961402D01*
X122097909Y-79011648D01*
X122097907Y-79011649D01*
X121982810Y-79097810D01*
X121896649Y-79212907D01*
X121896648Y-79212909D01*
X121846402Y-79347622D01*
X121846401Y-79347625D01*
X121840000Y-79407168D01*
X121840000Y-79530000D01*
X116690500Y-79530000D01*
X116690500Y-78800000D01*
X124954750Y-78800000D01*
X124973670Y-78943709D01*
X124973671Y-78943711D01*
X125029139Y-79077626D01*
X125117378Y-79192621D01*
X125232373Y-79280860D01*
X125232374Y-79280860D01*
X125232375Y-79280861D01*
X125366291Y-79336330D01*
X125510000Y-79355250D01*
X125653709Y-79336330D01*
X125787625Y-79280861D01*
X125902621Y-79192621D01*
X125990861Y-79077625D01*
X126046330Y-78943709D01*
X126065250Y-78800000D01*
X126047365Y-78664156D01*
X126058499Y-78613938D01*
X126068743Y-78601173D01*
X126388193Y-78281725D01*
X126434813Y-78259986D01*
X126441367Y-78259700D01*
X131913634Y-78259700D01*
X131961972Y-78277293D01*
X131966808Y-78281726D01*
X132537287Y-78852204D01*
X132559027Y-78898824D01*
X132559063Y-78906821D01*
X132559200Y-78906821D01*
X132559200Y-79450218D01*
X132559201Y-79450230D01*
X132574619Y-79547589D01*
X132634418Y-79664949D01*
X132727550Y-79758081D01*
X132727552Y-79758082D01*
X132844907Y-79817878D01*
X132844909Y-79817879D01*
X132942275Y-79833300D01*
X133507724Y-79833299D01*
X133514341Y-79832250D01*
X133605089Y-79817880D01*
X133605093Y-79817878D01*
X133722448Y-79758082D01*
X133815582Y-79664948D01*
X133875379Y-79547591D01*
X133890800Y-79450225D01*
X133890799Y-78909776D01*
X133885924Y-78878992D01*
X133875380Y-78812410D01*
X133815581Y-78695050D01*
X133722449Y-78601918D01*
X133605091Y-78542121D01*
X133605093Y-78542121D01*
X133507726Y-78526700D01*
X132962766Y-78526700D01*
X132914428Y-78509107D01*
X132909592Y-78504674D01*
X132194364Y-77789445D01*
X132100823Y-77750700D01*
X128977089Y-77750700D01*
X128928751Y-77733107D01*
X128903031Y-77688558D01*
X128911964Y-77637900D01*
X128932023Y-77615299D01*
X128977591Y-77581186D01*
X129063750Y-77466092D01*
X129063751Y-77466090D01*
X129113997Y-77331377D01*
X129113998Y-77331374D01*
X129120399Y-77271831D01*
X129120400Y-77271820D01*
X129120400Y-77220000D01*
X126799600Y-77220000D01*
X126799600Y-77271831D01*
X126806001Y-77331374D01*
X126806002Y-77331377D01*
X126856248Y-77466090D01*
X126856249Y-77466092D01*
X126942408Y-77581186D01*
X126987977Y-77615299D01*
X127016130Y-77658352D01*
X127010023Y-77709428D01*
X126972513Y-77744628D01*
X126942911Y-77750700D01*
X126364183Y-77750700D01*
X126364175Y-77750699D01*
X126355423Y-77750699D01*
X126254177Y-77750699D01*
X126195190Y-77775132D01*
X126160634Y-77789446D01*
X125708829Y-78241251D01*
X125662209Y-78262991D01*
X125645840Y-78262634D01*
X125510000Y-78244750D01*
X125366291Y-78263670D01*
X125366288Y-78263670D01*
X125366288Y-78263671D01*
X125232373Y-78319139D01*
X125117378Y-78407378D01*
X125029139Y-78522373D01*
X124973671Y-78656288D01*
X124973670Y-78656291D01*
X124954750Y-78800000D01*
X116690500Y-78800000D01*
X116690500Y-75917559D01*
X117921700Y-75917559D01*
X117921701Y-75917564D01*
X117932043Y-75969565D01*
X117932045Y-75969571D01*
X117971451Y-76028545D01*
X117971452Y-76028545D01*
X117971453Y-76028547D01*
X118030431Y-76067955D01*
X118082439Y-76078300D01*
X119917560Y-76078299D01*
X119943942Y-76073052D01*
X119969565Y-76067956D01*
X119969566Y-76067955D01*
X119969569Y-76067955D01*
X119969569Y-76067954D01*
X119969571Y-76067954D01*
X120012626Y-76039185D01*
X120028547Y-76028547D01*
X120067955Y-75969569D01*
X120078300Y-75917561D01*
X120078300Y-75000002D01*
X120457080Y-75000002D01*
X120475519Y-75198985D01*
X120475520Y-75198994D01*
X120530204Y-75391187D01*
X120530210Y-75391203D01*
X120619280Y-75570080D01*
X120739708Y-75729554D01*
X120739711Y-75729557D01*
X120887392Y-75864187D01*
X121057297Y-75969388D01*
X121057299Y-75969388D01*
X121057301Y-75969390D01*
X121237466Y-76039186D01*
X121276183Y-76073052D01*
X121285500Y-76109307D01*
X121285500Y-76510623D01*
X121324245Y-76604164D01*
X122255834Y-77535753D01*
X122255835Y-77535753D01*
X122255837Y-77535755D01*
X122349377Y-77574501D01*
X122349378Y-77574501D01*
X122459375Y-77574501D01*
X122459383Y-77574500D01*
X122844310Y-77574500D01*
X122892648Y-77592093D01*
X122903970Y-77603921D01*
X122987378Y-77712621D01*
X123102373Y-77800860D01*
X123102374Y-77800860D01*
X123102375Y-77800861D01*
X123236291Y-77856330D01*
X123380000Y-77875250D01*
X123523709Y-77856330D01*
X123657625Y-77800861D01*
X123772621Y-77712621D01*
X123860861Y-77597625D01*
X123916330Y-77463709D01*
X123935250Y-77320000D01*
X123922496Y-77223132D01*
X123933629Y-77172916D01*
X123974439Y-77141601D01*
X124025830Y-77143844D01*
X124050227Y-77160146D01*
X124075834Y-77185753D01*
X124075835Y-77185753D01*
X124075837Y-77185755D01*
X124169377Y-77224501D01*
X124169378Y-77224501D01*
X124279375Y-77224501D01*
X124279383Y-77224500D01*
X124465391Y-77224500D01*
X124513729Y-77242093D01*
X124539146Y-77285031D01*
X124540843Y-77293565D01*
X124540845Y-77293571D01*
X124580251Y-77352545D01*
X124580252Y-77352545D01*
X124580253Y-77352547D01*
X124639231Y-77391955D01*
X124691239Y-77402300D01*
X126047160Y-77402299D01*
X126073164Y-77397127D01*
X126099165Y-77391956D01*
X126099166Y-77391955D01*
X126099169Y-77391955D01*
X126099169Y-77391954D01*
X126099171Y-77391954D01*
X126128658Y-77372251D01*
X126158147Y-77352547D01*
X126197555Y-77293569D01*
X126207900Y-77241561D01*
X126207899Y-76698440D01*
X126206911Y-76693474D01*
X126197556Y-76646434D01*
X126197554Y-76646428D01*
X126158147Y-76587452D01*
X126113358Y-76557525D01*
X126082941Y-76516042D01*
X126086306Y-76464712D01*
X126113358Y-76432473D01*
X126158147Y-76402546D01*
X126197555Y-76343568D01*
X126199254Y-76335025D01*
X126225941Y-76291051D01*
X126273009Y-76274499D01*
X126855296Y-76274499D01*
X126903634Y-76292092D01*
X126929354Y-76336641D01*
X126920421Y-76387299D01*
X126915496Y-76394765D01*
X126856249Y-76473907D01*
X126856248Y-76473909D01*
X126806002Y-76608622D01*
X126806001Y-76608625D01*
X126799600Y-76668168D01*
X126799600Y-76720000D01*
X129120400Y-76720000D01*
X129120400Y-76668180D01*
X129120399Y-76668168D01*
X129113998Y-76608625D01*
X129113997Y-76608622D01*
X129063751Y-76473909D01*
X129063750Y-76473907D01*
X128977589Y-76358810D01*
X128862492Y-76272649D01*
X128862490Y-76272648D01*
X128727777Y-76222402D01*
X128727774Y-76222401D01*
X128668231Y-76216000D01*
X128625465Y-76216000D01*
X128577127Y-76198407D01*
X128551407Y-76153858D01*
X128560340Y-76103200D01*
X128572291Y-76087626D01*
X128758391Y-75901526D01*
X128805011Y-75879786D01*
X128811565Y-75879500D01*
X129071501Y-75879500D01*
X129119839Y-75897093D01*
X129145559Y-75941642D01*
X129146701Y-75954700D01*
X129146701Y-75957730D01*
X129162119Y-76055089D01*
X129221918Y-76172449D01*
X129315050Y-76265581D01*
X129315052Y-76265582D01*
X129432407Y-76325378D01*
X129432409Y-76325379D01*
X129529775Y-76340800D01*
X130070224Y-76340799D01*
X130076841Y-76339750D01*
X130167589Y-76325380D01*
X130171408Y-76323434D01*
X130284948Y-76265582D01*
X130378082Y-76172448D01*
X130437879Y-76055091D01*
X130453300Y-75957725D01*
X130453300Y-75917559D01*
X131421700Y-75917559D01*
X131421701Y-75917564D01*
X131432043Y-75969565D01*
X131432045Y-75969571D01*
X131471451Y-76028545D01*
X131471452Y-76028545D01*
X131471453Y-76028547D01*
X131530431Y-76067955D01*
X131582439Y-76078300D01*
X133417560Y-76078299D01*
X133443942Y-76073052D01*
X133469565Y-76067956D01*
X133469566Y-76067955D01*
X133469569Y-76067955D01*
X133469569Y-76067954D01*
X133469571Y-76067954D01*
X133512626Y-76039185D01*
X133528547Y-76028547D01*
X133567955Y-75969569D01*
X133578300Y-75917561D01*
X133578300Y-75000002D01*
X133957080Y-75000002D01*
X133975519Y-75198985D01*
X133975520Y-75198994D01*
X134030204Y-75391187D01*
X134030210Y-75391203D01*
X134119280Y-75570080D01*
X134239708Y-75729554D01*
X134239711Y-75729557D01*
X134387392Y-75864187D01*
X134557297Y-75969388D01*
X134557299Y-75969388D01*
X134557301Y-75969390D01*
X134743645Y-76041580D01*
X134940081Y-76078300D01*
X134940086Y-76078300D01*
X135139914Y-76078300D01*
X135139919Y-76078300D01*
X135336355Y-76041580D01*
X135522699Y-75969390D01*
X135692605Y-75864189D01*
X135840288Y-75729558D01*
X135960717Y-75570084D01*
X136049793Y-75391196D01*
X136104481Y-75198986D01*
X136122920Y-75000000D01*
X136104481Y-74801014D01*
X136104479Y-74801008D01*
X136104479Y-74801005D01*
X136049795Y-74608812D01*
X136049793Y-74608804D01*
X136002489Y-74513805D01*
X135960719Y-74429919D01*
X135840291Y-74270445D01*
X135840288Y-74270442D01*
X135692607Y-74135812D01*
X135522702Y-74030611D01*
X135336356Y-73958420D01*
X135303615Y-73952300D01*
X135139919Y-73921700D01*
X134940081Y-73921700D01*
X134809123Y-73946180D01*
X134743643Y-73958420D01*
X134557298Y-74030611D01*
X134557297Y-74030611D01*
X134387392Y-74135812D01*
X134239711Y-74270442D01*
X134239708Y-74270445D01*
X134119280Y-74429919D01*
X134030210Y-74608796D01*
X134030204Y-74608812D01*
X133975520Y-74801005D01*
X133975519Y-74801014D01*
X133957080Y-74999997D01*
X133957080Y-75000002D01*
X133578300Y-75000002D01*
X133578299Y-74082440D01*
X133567955Y-74030431D01*
X133567954Y-74030428D01*
X133528548Y-73971454D01*
X133528544Y-73971451D01*
X133469569Y-73932045D01*
X133469567Y-73932044D01*
X133417561Y-73921700D01*
X131582440Y-73921700D01*
X131582435Y-73921701D01*
X131530434Y-73932043D01*
X131530428Y-73932045D01*
X131471454Y-73971451D01*
X131432045Y-74030431D01*
X131432044Y-74030432D01*
X131421700Y-74082438D01*
X131421700Y-75917559D01*
X130453300Y-75917559D01*
X130453299Y-75292276D01*
X130453298Y-75292269D01*
X130437880Y-75194910D01*
X130378081Y-75077550D01*
X130303949Y-75003418D01*
X130282209Y-74956798D01*
X130295523Y-74907111D01*
X130333472Y-74878860D01*
X130351306Y-74872951D01*
X130498034Y-74782447D01*
X130498038Y-74782444D01*
X130619944Y-74660538D01*
X130619947Y-74660534D01*
X130710451Y-74513805D01*
X130764679Y-74350152D01*
X130764680Y-74350150D01*
X130775000Y-74249140D01*
X130775000Y-74150000D01*
X128825001Y-74150000D01*
X128825001Y-74249141D01*
X128835320Y-74350155D01*
X128889548Y-74513805D01*
X128980052Y-74660534D01*
X128980055Y-74660538D01*
X129101961Y-74782444D01*
X129101965Y-74782447D01*
X129248693Y-74872950D01*
X129266528Y-74878860D01*
X129306879Y-74910764D01*
X129317282Y-74961141D01*
X129296051Y-75003418D01*
X129221917Y-75077552D01*
X129162121Y-75194907D01*
X129146700Y-75292273D01*
X129146700Y-75295300D01*
X129129107Y-75343638D01*
X129084558Y-75369358D01*
X129071500Y-75370500D01*
X128873900Y-75370500D01*
X128825562Y-75352907D01*
X128799842Y-75308358D01*
X128798700Y-75295300D01*
X128798699Y-74798438D01*
X128798698Y-74798433D01*
X128788356Y-74746432D01*
X128788354Y-74746426D01*
X128748948Y-74687452D01*
X128748944Y-74687449D01*
X128689969Y-74648043D01*
X128689967Y-74648042D01*
X128637961Y-74637698D01*
X127282040Y-74637698D01*
X127282035Y-74637699D01*
X127230034Y-74648041D01*
X127230028Y-74648043D01*
X127171054Y-74687449D01*
X127131645Y-74746429D01*
X127131644Y-74746430D01*
X127121300Y-74798436D01*
X127121300Y-75341557D01*
X127121301Y-75341562D01*
X127131643Y-75393563D01*
X127131645Y-75393569D01*
X127171051Y-75452543D01*
X127171052Y-75452543D01*
X127171053Y-75452545D01*
X127230031Y-75491953D01*
X127282039Y-75502298D01*
X128256235Y-75502297D01*
X128304573Y-75519890D01*
X128330293Y-75564439D01*
X128321360Y-75615097D01*
X128309409Y-75630671D01*
X128196607Y-75743473D01*
X128149987Y-75765213D01*
X128143433Y-75765499D01*
X126999700Y-75765499D01*
X126951362Y-75747906D01*
X126925642Y-75703357D01*
X126924500Y-75690299D01*
X126924500Y-74048499D01*
X126942093Y-74000161D01*
X126986642Y-73974441D01*
X126999700Y-73973299D01*
X127532719Y-73973299D01*
X127532724Y-73973299D01*
X127544393Y-73971451D01*
X127630089Y-73957880D01*
X127630093Y-73957878D01*
X127747448Y-73898082D01*
X127840582Y-73804948D01*
X127900379Y-73687591D01*
X127906333Y-73650000D01*
X128825000Y-73650000D01*
X129550000Y-73650000D01*
X129550000Y-72862500D01*
X130050000Y-72862500D01*
X130050000Y-73650000D01*
X130774999Y-73650000D01*
X130774999Y-73550858D01*
X130764679Y-73449844D01*
X130710451Y-73286194D01*
X130619947Y-73139465D01*
X130619944Y-73139461D01*
X130498038Y-73017555D01*
X130498034Y-73017552D01*
X130351304Y-72927048D01*
X130351305Y-72927048D01*
X130187652Y-72872820D01*
X130187650Y-72872819D01*
X130086641Y-72862500D01*
X130050000Y-72862500D01*
X129550000Y-72862500D01*
X129549999Y-72862499D01*
X129513359Y-72862500D01*
X129412344Y-72872820D01*
X129248694Y-72927048D01*
X129101965Y-73017552D01*
X129101961Y-73017555D01*
X128980055Y-73139461D01*
X128980052Y-73139465D01*
X128889548Y-73286194D01*
X128835320Y-73449847D01*
X128835319Y-73449849D01*
X128825000Y-73550859D01*
X128825000Y-73650000D01*
X127906333Y-73650000D01*
X127915800Y-73590225D01*
X127915799Y-73049776D01*
X127915798Y-73049769D01*
X127900380Y-72952409D01*
X127846580Y-72846823D01*
X127840310Y-72795766D01*
X127860406Y-72759511D01*
X128505755Y-72114163D01*
X128544501Y-72020623D01*
X128544501Y-71919377D01*
X128544501Y-71913322D01*
X128544500Y-71913308D01*
X128544500Y-71733141D01*
X128562093Y-71684803D01*
X128597871Y-71661179D01*
X128623473Y-71653413D01*
X128685416Y-71634624D01*
X128685418Y-71634623D01*
X128864057Y-71539138D01*
X129020636Y-71410636D01*
X129149138Y-71254057D01*
X129244623Y-71075418D01*
X129303422Y-70881582D01*
X129323276Y-70680000D01*
X129303422Y-70478418D01*
X129244623Y-70284582D01*
X129149138Y-70105943D01*
X129062193Y-70000001D01*
X129020636Y-69949363D01*
X128864058Y-69820863D01*
X128864059Y-69820863D01*
X128864057Y-69820862D01*
X128864054Y-69820860D01*
X128864052Y-69820859D01*
X128685423Y-69725379D01*
X128685411Y-69725374D01*
X128491579Y-69666577D01*
X128491580Y-69666577D01*
X128290000Y-69646724D01*
X128088419Y-69666577D01*
X127894588Y-69725374D01*
X127894576Y-69725379D01*
X127715947Y-69820859D01*
X127715941Y-69820863D01*
X127559363Y-69949363D01*
X127430863Y-70105941D01*
X127430859Y-70105947D01*
X127335379Y-70284576D01*
X127335374Y-70284588D01*
X127276577Y-70478419D01*
X127256724Y-70680000D01*
X127276577Y-70881580D01*
X127335374Y-71075411D01*
X127335379Y-71075423D01*
X127430859Y-71254052D01*
X127430863Y-71254058D01*
X127559363Y-71410636D01*
X127580887Y-71428300D01*
X127715943Y-71539138D01*
X127731701Y-71547561D01*
X127894580Y-71634622D01*
X127894583Y-71634624D01*
X127965564Y-71656154D01*
X127982128Y-71661179D01*
X128023278Y-71692046D01*
X128035500Y-71733141D01*
X128035500Y-71833433D01*
X128017907Y-71881771D01*
X128013474Y-71886607D01*
X127255406Y-72644674D01*
X127208786Y-72666414D01*
X127202232Y-72666700D01*
X126867282Y-72666700D01*
X126867269Y-72666702D01*
X126769910Y-72682119D01*
X126652550Y-72741918D01*
X126559418Y-72835050D01*
X126499621Y-72952407D01*
X126484200Y-73049773D01*
X126484200Y-73590223D01*
X126489918Y-73626326D01*
X126480101Y-73676821D01*
X126468820Y-73691260D01*
X126454244Y-73705836D01*
X126415500Y-73799376D01*
X126415500Y-75523434D01*
X126397907Y-75571772D01*
X126393484Y-75576597D01*
X126339411Y-75630671D01*
X126292828Y-75677254D01*
X126246208Y-75698993D01*
X126196521Y-75685679D01*
X126177128Y-75665858D01*
X126158147Y-75637451D01*
X126113358Y-75607524D01*
X126082941Y-75566041D01*
X126086306Y-75514711D01*
X126113358Y-75482472D01*
X126158147Y-75452545D01*
X126197555Y-75393567D01*
X126207900Y-75341559D01*
X126207899Y-74798438D01*
X126197555Y-74746429D01*
X126197554Y-74746426D01*
X126158148Y-74687452D01*
X126158144Y-74687449D01*
X126099169Y-74648043D01*
X126099167Y-74648042D01*
X126047162Y-74637698D01*
X126047161Y-74637698D01*
X125804700Y-74637698D01*
X125756362Y-74620105D01*
X125730642Y-74575556D01*
X125729500Y-74562498D01*
X125729500Y-74048499D01*
X125747093Y-74000161D01*
X125791642Y-73974441D01*
X125804700Y-73973299D01*
X125807719Y-73973299D01*
X125807724Y-73973299D01*
X125819393Y-73971451D01*
X125905089Y-73957880D01*
X125905093Y-73957878D01*
X126022448Y-73898082D01*
X126115582Y-73804948D01*
X126175379Y-73687591D01*
X126190800Y-73590225D01*
X126190799Y-73049776D01*
X126190798Y-73049769D01*
X126175380Y-72952410D01*
X126115581Y-72835050D01*
X126022449Y-72741918D01*
X125905094Y-72682122D01*
X125903083Y-72681469D01*
X125901716Y-72680401D01*
X125899818Y-72679434D01*
X125900005Y-72679065D01*
X125862547Y-72649801D01*
X125851849Y-72599486D01*
X125873143Y-72556774D01*
X125965755Y-72464163D01*
X126004501Y-72370623D01*
X126004501Y-72269377D01*
X126004501Y-72263322D01*
X126004500Y-72263308D01*
X126004500Y-71783499D01*
X126022093Y-71735161D01*
X126066642Y-71709441D01*
X126079700Y-71708299D01*
X126617560Y-71708299D01*
X126643564Y-71703127D01*
X126669565Y-71697956D01*
X126669566Y-71697955D01*
X126669569Y-71697955D01*
X126669569Y-71697954D01*
X126669571Y-71697954D01*
X126724608Y-71661179D01*
X126728547Y-71658547D01*
X126767955Y-71599569D01*
X126778300Y-71547561D01*
X126778299Y-69812440D01*
X126767955Y-69760431D01*
X126767954Y-69760428D01*
X126728548Y-69701454D01*
X126728544Y-69701451D01*
X126669569Y-69662045D01*
X126669567Y-69662044D01*
X126617561Y-69651700D01*
X124882440Y-69651700D01*
X124882435Y-69651701D01*
X124830434Y-69662043D01*
X124830428Y-69662045D01*
X124771454Y-69701451D01*
X124732045Y-69760431D01*
X124732044Y-69760432D01*
X124721700Y-69812438D01*
X124721700Y-71547559D01*
X124721701Y-71547564D01*
X124732043Y-71599565D01*
X124732045Y-71599571D01*
X124771451Y-71658545D01*
X124771452Y-71658545D01*
X124771453Y-71658547D01*
X124830431Y-71697955D01*
X124882439Y-71708300D01*
X125420300Y-71708299D01*
X125468638Y-71725892D01*
X125494358Y-71770441D01*
X125495500Y-71783499D01*
X125495500Y-72183434D01*
X125477907Y-72231772D01*
X125473474Y-72236608D01*
X125330837Y-72379245D01*
X125295040Y-72415041D01*
X125259244Y-72450837D01*
X125220500Y-72544376D01*
X125220500Y-72591500D01*
X125202907Y-72639838D01*
X125158358Y-72665558D01*
X125145313Y-72666700D01*
X125142288Y-72666700D01*
X125142278Y-72666700D01*
X125142276Y-72666701D01*
X125142271Y-72666701D01*
X125142269Y-72666702D01*
X125044910Y-72682119D01*
X124927550Y-72741918D01*
X124834418Y-72835050D01*
X124774621Y-72952407D01*
X124759200Y-73049773D01*
X124759200Y-73590218D01*
X124759201Y-73590230D01*
X124774619Y-73687589D01*
X124834418Y-73804949D01*
X124927550Y-73898081D01*
X124927552Y-73898082D01*
X125044907Y-73957878D01*
X125044909Y-73957879D01*
X125142275Y-73973300D01*
X125145289Y-73973299D01*
X125193628Y-73990884D01*
X125219355Y-74035428D01*
X125220500Y-74048499D01*
X125220500Y-74562498D01*
X125202907Y-74610836D01*
X125158358Y-74636556D01*
X125145300Y-74637698D01*
X124691240Y-74637698D01*
X124691235Y-74637699D01*
X124639234Y-74648041D01*
X124639228Y-74648043D01*
X124580254Y-74687449D01*
X124540845Y-74746429D01*
X124539146Y-74754971D01*
X124512459Y-74798946D01*
X124465391Y-74815498D01*
X124269386Y-74815498D01*
X124269378Y-74815497D01*
X124260626Y-74815497D01*
X124159379Y-74815497D01*
X124093236Y-74842894D01*
X124065839Y-74854243D01*
X123994247Y-74925835D01*
X123994246Y-74925835D01*
X123994244Y-74925836D01*
X123574245Y-75345835D01*
X123535500Y-75439376D01*
X123535500Y-76590623D01*
X123570909Y-76676111D01*
X123573152Y-76727502D01*
X123541837Y-76768312D01*
X123491617Y-76779444D01*
X123380000Y-76764750D01*
X123236291Y-76783670D01*
X123236288Y-76783670D01*
X123236288Y-76783671D01*
X123102373Y-76839139D01*
X122987378Y-76927378D01*
X122903970Y-77036079D01*
X122860586Y-77063717D01*
X122844310Y-77065500D01*
X122536566Y-77065500D01*
X122488228Y-77047907D01*
X122483392Y-77043474D01*
X121816526Y-76376608D01*
X121794786Y-76329988D01*
X121794500Y-76323434D01*
X121794500Y-76109307D01*
X121812093Y-76060969D01*
X121842532Y-76039186D01*
X122022699Y-75969390D01*
X122192605Y-75864189D01*
X122340288Y-75729558D01*
X122460717Y-75570084D01*
X122549793Y-75391196D01*
X122604481Y-75198986D01*
X122622920Y-75000000D01*
X122604481Y-74801014D01*
X122604479Y-74801008D01*
X122604479Y-74801005D01*
X122549795Y-74608812D01*
X122549793Y-74608804D01*
X122502489Y-74513805D01*
X122460719Y-74429919D01*
X122340291Y-74270445D01*
X122340288Y-74270442D01*
X122192607Y-74135812D01*
X122022702Y-74030611D01*
X121836356Y-73958420D01*
X121803615Y-73952300D01*
X121639919Y-73921700D01*
X121440081Y-73921700D01*
X121309123Y-73946180D01*
X121243643Y-73958420D01*
X121057298Y-74030611D01*
X121057297Y-74030611D01*
X120887392Y-74135812D01*
X120739711Y-74270442D01*
X120739708Y-74270445D01*
X120619280Y-74429919D01*
X120530210Y-74608796D01*
X120530204Y-74608812D01*
X120475520Y-74801005D01*
X120475519Y-74801014D01*
X120457080Y-74999997D01*
X120457080Y-75000002D01*
X120078300Y-75000002D01*
X120078299Y-74082440D01*
X120067955Y-74030431D01*
X120067954Y-74030428D01*
X120028548Y-73971454D01*
X120028544Y-73971451D01*
X119969569Y-73932045D01*
X119969567Y-73932044D01*
X119917561Y-73921700D01*
X118082440Y-73921700D01*
X118082435Y-73921701D01*
X118030434Y-73932043D01*
X118030428Y-73932045D01*
X117971454Y-73971451D01*
X117932045Y-74030431D01*
X117932044Y-74030432D01*
X117921700Y-74082438D01*
X117921700Y-75917559D01*
X116690500Y-75917559D01*
X116690500Y-68565700D01*
X116708093Y-68517362D01*
X116752642Y-68491642D01*
X116765700Y-68490500D01*
X118047537Y-68490500D01*
X118095875Y-68508093D01*
G37*
%TD.AperFunction*%
%TD*%
M02*
