%TF.GenerationSoftware,KiCad,Pcbnew,8.0.1*%
%TF.CreationDate,2025-01-22T19:50:13-07:00*%
%TF.ProjectId,ColorSensing,436f6c6f-7253-4656-9e73-696e672e6b69,rev?*%
%TF.SameCoordinates,Original*%
%TF.FileFunction,Legend,Top*%
%TF.FilePolarity,Positive*%
%FSLAX46Y46*%
G04 Gerber Fmt 4.6, Leading zero omitted, Abs format (unit mm)*
G04 Created by KiCad (PCBNEW 8.0.1) date 2025-01-22 19:50:13*
%MOMM*%
%LPD*%
G01*
G04 APERTURE LIST*
G04 Aperture macros list*
%AMRoundRect*
0 Rectangle with rounded corners*
0 $1 Rounding radius*
0 $2 $3 $4 $5 $6 $7 $8 $9 X,Y pos of 4 corners*
0 Add a 4 corners polygon primitive as box body*
4,1,4,$2,$3,$4,$5,$6,$7,$8,$9,$2,$3,0*
0 Add four circle primitives for the rounded corners*
1,1,$1+$1,$2,$3*
1,1,$1+$1,$4,$5*
1,1,$1+$1,$6,$7*
1,1,$1+$1,$8,$9*
0 Add four rect primitives between the rounded corners*
20,1,$1+$1,$2,$3,$4,$5,0*
20,1,$1+$1,$4,$5,$6,$7,0*
20,1,$1+$1,$6,$7,$8,$9,0*
20,1,$1+$1,$8,$9,$2,$3,0*%
G04 Aperture macros list end*
%ADD10C,0.100000*%
%ADD11C,0.150000*%
%ADD12C,0.120000*%
%ADD13C,0.152400*%
%ADD14C,2.500000*%
%ADD15RoundRect,0.237500X0.300000X0.237500X-0.300000X0.237500X-0.300000X-0.237500X0.300000X-0.237500X0*%
%ADD16RoundRect,0.237500X-0.250000X-0.237500X0.250000X-0.237500X0.250000X0.237500X-0.250000X0.237500X0*%
%ADD17R,1.460500X0.558800*%
%ADD18RoundRect,0.237500X0.237500X-0.250000X0.237500X0.250000X-0.237500X0.250000X-0.237500X-0.250000X0*%
%ADD19R,1.800000X1.800000*%
%ADD20C,1.800000*%
%ADD21RoundRect,0.237500X0.250000X0.237500X-0.250000X0.237500X-0.250000X-0.237500X0.250000X-0.237500X0*%
%ADD22R,1.700000X1.700000*%
%ADD23O,1.700000X1.700000*%
G04 APERTURE END LIST*
D10*
X130708095Y-93967419D02*
X130708095Y-92967419D01*
X130708095Y-93443609D02*
X131279523Y-93443609D01*
X131279523Y-93967419D02*
X131279523Y-92967419D01*
X132184285Y-93300752D02*
X132184285Y-93967419D01*
X131946190Y-92919800D02*
X131708095Y-93634085D01*
X131708095Y-93634085D02*
X132327142Y-93634085D01*
X120268095Y-93957419D02*
X120268095Y-92957419D01*
X120268095Y-93433609D02*
X120839523Y-93433609D01*
X120839523Y-93957419D02*
X120839523Y-92957419D01*
X121220476Y-92957419D02*
X121839523Y-92957419D01*
X121839523Y-92957419D02*
X121506190Y-93338371D01*
X121506190Y-93338371D02*
X121649047Y-93338371D01*
X121649047Y-93338371D02*
X121744285Y-93385990D01*
X121744285Y-93385990D02*
X121791904Y-93433609D01*
X121791904Y-93433609D02*
X121839523Y-93528847D01*
X121839523Y-93528847D02*
X121839523Y-93766942D01*
X121839523Y-93766942D02*
X121791904Y-93862180D01*
X121791904Y-93862180D02*
X121744285Y-93909800D01*
X121744285Y-93909800D02*
X121649047Y-93957419D01*
X121649047Y-93957419D02*
X121363333Y-93957419D01*
X121363333Y-93957419D02*
X121268095Y-93909800D01*
X121268095Y-93909800D02*
X121220476Y-93862180D01*
X131398095Y-70417419D02*
X131398095Y-69417419D01*
X131398095Y-69893609D02*
X131969523Y-69893609D01*
X131969523Y-70417419D02*
X131969523Y-69417419D01*
X132398095Y-69512657D02*
X132445714Y-69465038D01*
X132445714Y-69465038D02*
X132540952Y-69417419D01*
X132540952Y-69417419D02*
X132779047Y-69417419D01*
X132779047Y-69417419D02*
X132874285Y-69465038D01*
X132874285Y-69465038D02*
X132921904Y-69512657D01*
X132921904Y-69512657D02*
X132969523Y-69607895D01*
X132969523Y-69607895D02*
X132969523Y-69703133D01*
X132969523Y-69703133D02*
X132921904Y-69845990D01*
X132921904Y-69845990D02*
X132350476Y-70417419D01*
X132350476Y-70417419D02*
X132969523Y-70417419D01*
X120598095Y-70297419D02*
X120598095Y-69297419D01*
X120598095Y-69773609D02*
X121169523Y-69773609D01*
X121169523Y-70297419D02*
X121169523Y-69297419D01*
X122169523Y-70297419D02*
X121598095Y-70297419D01*
X121883809Y-70297419D02*
X121883809Y-69297419D01*
X121883809Y-69297419D02*
X121788571Y-69440276D01*
X121788571Y-69440276D02*
X121693333Y-69535514D01*
X121693333Y-69535514D02*
X121598095Y-69583133D01*
D11*
X136046667Y-84076104D02*
X136008571Y-84114200D01*
X136008571Y-84114200D02*
X135894286Y-84152295D01*
X135894286Y-84152295D02*
X135818095Y-84152295D01*
X135818095Y-84152295D02*
X135703809Y-84114200D01*
X135703809Y-84114200D02*
X135627619Y-84038009D01*
X135627619Y-84038009D02*
X135589524Y-83961819D01*
X135589524Y-83961819D02*
X135551428Y-83809438D01*
X135551428Y-83809438D02*
X135551428Y-83695152D01*
X135551428Y-83695152D02*
X135589524Y-83542771D01*
X135589524Y-83542771D02*
X135627619Y-83466580D01*
X135627619Y-83466580D02*
X135703809Y-83390390D01*
X135703809Y-83390390D02*
X135818095Y-83352295D01*
X135818095Y-83352295D02*
X135894286Y-83352295D01*
X135894286Y-83352295D02*
X136008571Y-83390390D01*
X136008571Y-83390390D02*
X136046667Y-83428485D01*
X136313333Y-83352295D02*
X136808571Y-83352295D01*
X136808571Y-83352295D02*
X136541905Y-83657057D01*
X136541905Y-83657057D02*
X136656190Y-83657057D01*
X136656190Y-83657057D02*
X136732381Y-83695152D01*
X136732381Y-83695152D02*
X136770476Y-83733247D01*
X136770476Y-83733247D02*
X136808571Y-83809438D01*
X136808571Y-83809438D02*
X136808571Y-83999914D01*
X136808571Y-83999914D02*
X136770476Y-84076104D01*
X136770476Y-84076104D02*
X136732381Y-84114200D01*
X136732381Y-84114200D02*
X136656190Y-84152295D01*
X136656190Y-84152295D02*
X136427619Y-84152295D01*
X136427619Y-84152295D02*
X136351428Y-84114200D01*
X136351428Y-84114200D02*
X136313333Y-84076104D01*
X133414167Y-81172295D02*
X133147500Y-80791342D01*
X132957024Y-81172295D02*
X132957024Y-80372295D01*
X132957024Y-80372295D02*
X133261786Y-80372295D01*
X133261786Y-80372295D02*
X133337976Y-80410390D01*
X133337976Y-80410390D02*
X133376071Y-80448485D01*
X133376071Y-80448485D02*
X133414167Y-80524676D01*
X133414167Y-80524676D02*
X133414167Y-80638961D01*
X133414167Y-80638961D02*
X133376071Y-80715152D01*
X133376071Y-80715152D02*
X133337976Y-80753247D01*
X133337976Y-80753247D02*
X133261786Y-80791342D01*
X133261786Y-80791342D02*
X132957024Y-80791342D01*
X134137976Y-80372295D02*
X133757024Y-80372295D01*
X133757024Y-80372295D02*
X133718928Y-80753247D01*
X133718928Y-80753247D02*
X133757024Y-80715152D01*
X133757024Y-80715152D02*
X133833214Y-80677057D01*
X133833214Y-80677057D02*
X134023690Y-80677057D01*
X134023690Y-80677057D02*
X134099881Y-80715152D01*
X134099881Y-80715152D02*
X134137976Y-80753247D01*
X134137976Y-80753247D02*
X134176071Y-80829438D01*
X134176071Y-80829438D02*
X134176071Y-81019914D01*
X134176071Y-81019914D02*
X134137976Y-81096104D01*
X134137976Y-81096104D02*
X134099881Y-81134200D01*
X134099881Y-81134200D02*
X134023690Y-81172295D01*
X134023690Y-81172295D02*
X133833214Y-81172295D01*
X133833214Y-81172295D02*
X133757024Y-81134200D01*
X133757024Y-81134200D02*
X133718928Y-81096104D01*
X117296667Y-78042295D02*
X117030000Y-77661342D01*
X116839524Y-78042295D02*
X116839524Y-77242295D01*
X116839524Y-77242295D02*
X117144286Y-77242295D01*
X117144286Y-77242295D02*
X117220476Y-77280390D01*
X117220476Y-77280390D02*
X117258571Y-77318485D01*
X117258571Y-77318485D02*
X117296667Y-77394676D01*
X117296667Y-77394676D02*
X117296667Y-77508961D01*
X117296667Y-77508961D02*
X117258571Y-77585152D01*
X117258571Y-77585152D02*
X117220476Y-77623247D01*
X117220476Y-77623247D02*
X117144286Y-77661342D01*
X117144286Y-77661342D02*
X116839524Y-77661342D01*
X118058571Y-78042295D02*
X117601428Y-78042295D01*
X117830000Y-78042295D02*
X117830000Y-77242295D01*
X117830000Y-77242295D02*
X117753809Y-77356580D01*
X117753809Y-77356580D02*
X117677619Y-77432771D01*
X117677619Y-77432771D02*
X117601428Y-77470866D01*
X126206326Y-81507295D02*
X126206326Y-82154914D01*
X126206326Y-82154914D02*
X126244421Y-82231104D01*
X126244421Y-82231104D02*
X126282516Y-82269200D01*
X126282516Y-82269200D02*
X126358707Y-82307295D01*
X126358707Y-82307295D02*
X126511088Y-82307295D01*
X126511088Y-82307295D02*
X126587278Y-82269200D01*
X126587278Y-82269200D02*
X126625373Y-82231104D01*
X126625373Y-82231104D02*
X126663469Y-82154914D01*
X126663469Y-82154914D02*
X126663469Y-81507295D01*
X127463468Y-82307295D02*
X127006325Y-82307295D01*
X127234897Y-82307295D02*
X127234897Y-81507295D01*
X127234897Y-81507295D02*
X127158706Y-81621580D01*
X127158706Y-81621580D02*
X127082516Y-81697771D01*
X127082516Y-81697771D02*
X127006325Y-81735866D01*
X136336667Y-80142295D02*
X136070000Y-79761342D01*
X135879524Y-80142295D02*
X135879524Y-79342295D01*
X135879524Y-79342295D02*
X136184286Y-79342295D01*
X136184286Y-79342295D02*
X136260476Y-79380390D01*
X136260476Y-79380390D02*
X136298571Y-79418485D01*
X136298571Y-79418485D02*
X136336667Y-79494676D01*
X136336667Y-79494676D02*
X136336667Y-79608961D01*
X136336667Y-79608961D02*
X136298571Y-79685152D01*
X136298571Y-79685152D02*
X136260476Y-79723247D01*
X136260476Y-79723247D02*
X136184286Y-79761342D01*
X136184286Y-79761342D02*
X135879524Y-79761342D01*
X136603333Y-79342295D02*
X137098571Y-79342295D01*
X137098571Y-79342295D02*
X136831905Y-79647057D01*
X136831905Y-79647057D02*
X136946190Y-79647057D01*
X136946190Y-79647057D02*
X137022381Y-79685152D01*
X137022381Y-79685152D02*
X137060476Y-79723247D01*
X137060476Y-79723247D02*
X137098571Y-79799438D01*
X137098571Y-79799438D02*
X137098571Y-79989914D01*
X137098571Y-79989914D02*
X137060476Y-80066104D01*
X137060476Y-80066104D02*
X137022381Y-80104200D01*
X137022381Y-80104200D02*
X136946190Y-80142295D01*
X136946190Y-80142295D02*
X136717619Y-80142295D01*
X136717619Y-80142295D02*
X136641428Y-80104200D01*
X136641428Y-80104200D02*
X136603333Y-80066104D01*
X129992295Y-74067142D02*
X129611342Y-74333809D01*
X129992295Y-74524285D02*
X129192295Y-74524285D01*
X129192295Y-74524285D02*
X129192295Y-74219523D01*
X129192295Y-74219523D02*
X129230390Y-74143333D01*
X129230390Y-74143333D02*
X129268485Y-74105238D01*
X129268485Y-74105238D02*
X129344676Y-74067142D01*
X129344676Y-74067142D02*
X129458961Y-74067142D01*
X129458961Y-74067142D02*
X129535152Y-74105238D01*
X129535152Y-74105238D02*
X129573247Y-74143333D01*
X129573247Y-74143333D02*
X129611342Y-74219523D01*
X129611342Y-74219523D02*
X129611342Y-74524285D01*
X129992295Y-73343333D02*
X129992295Y-73724285D01*
X129992295Y-73724285D02*
X129192295Y-73724285D01*
X129268485Y-73114762D02*
X129230390Y-73076666D01*
X129230390Y-73076666D02*
X129192295Y-73000476D01*
X129192295Y-73000476D02*
X129192295Y-72810000D01*
X129192295Y-72810000D02*
X129230390Y-72733809D01*
X129230390Y-72733809D02*
X129268485Y-72695714D01*
X129268485Y-72695714D02*
X129344676Y-72657619D01*
X129344676Y-72657619D02*
X129420866Y-72657619D01*
X129420866Y-72657619D02*
X129535152Y-72695714D01*
X129535152Y-72695714D02*
X129992295Y-73152857D01*
X129992295Y-73152857D02*
X129992295Y-72657619D01*
X124492295Y-74087142D02*
X124111342Y-74353809D01*
X124492295Y-74544285D02*
X123692295Y-74544285D01*
X123692295Y-74544285D02*
X123692295Y-74239523D01*
X123692295Y-74239523D02*
X123730390Y-74163333D01*
X123730390Y-74163333D02*
X123768485Y-74125238D01*
X123768485Y-74125238D02*
X123844676Y-74087142D01*
X123844676Y-74087142D02*
X123958961Y-74087142D01*
X123958961Y-74087142D02*
X124035152Y-74125238D01*
X124035152Y-74125238D02*
X124073247Y-74163333D01*
X124073247Y-74163333D02*
X124111342Y-74239523D01*
X124111342Y-74239523D02*
X124111342Y-74544285D01*
X124492295Y-73363333D02*
X124492295Y-73744285D01*
X124492295Y-73744285D02*
X123692295Y-73744285D01*
X124492295Y-72677619D02*
X124492295Y-73134762D01*
X124492295Y-72906190D02*
X123692295Y-72906190D01*
X123692295Y-72906190D02*
X123806580Y-72982381D01*
X123806580Y-72982381D02*
X123882771Y-73058571D01*
X123882771Y-73058571D02*
X123920866Y-73134762D01*
X126592295Y-87627142D02*
X126211342Y-87893809D01*
X126592295Y-88084285D02*
X125792295Y-88084285D01*
X125792295Y-88084285D02*
X125792295Y-87779523D01*
X125792295Y-87779523D02*
X125830390Y-87703333D01*
X125830390Y-87703333D02*
X125868485Y-87665238D01*
X125868485Y-87665238D02*
X125944676Y-87627142D01*
X125944676Y-87627142D02*
X126058961Y-87627142D01*
X126058961Y-87627142D02*
X126135152Y-87665238D01*
X126135152Y-87665238D02*
X126173247Y-87703333D01*
X126173247Y-87703333D02*
X126211342Y-87779523D01*
X126211342Y-87779523D02*
X126211342Y-88084285D01*
X126592295Y-86903333D02*
X126592295Y-87284285D01*
X126592295Y-87284285D02*
X125792295Y-87284285D01*
X125792295Y-86712857D02*
X125792295Y-86217619D01*
X125792295Y-86217619D02*
X126097057Y-86484285D01*
X126097057Y-86484285D02*
X126097057Y-86370000D01*
X126097057Y-86370000D02*
X126135152Y-86293809D01*
X126135152Y-86293809D02*
X126173247Y-86255714D01*
X126173247Y-86255714D02*
X126249438Y-86217619D01*
X126249438Y-86217619D02*
X126439914Y-86217619D01*
X126439914Y-86217619D02*
X126516104Y-86255714D01*
X126516104Y-86255714D02*
X126554200Y-86293809D01*
X126554200Y-86293809D02*
X126592295Y-86370000D01*
X126592295Y-86370000D02*
X126592295Y-86598571D01*
X126592295Y-86598571D02*
X126554200Y-86674762D01*
X126554200Y-86674762D02*
X126516104Y-86712857D01*
X135819524Y-85342295D02*
X135819524Y-84542295D01*
X135819524Y-84542295D02*
X136010000Y-84542295D01*
X136010000Y-84542295D02*
X136124286Y-84580390D01*
X136124286Y-84580390D02*
X136200476Y-84656580D01*
X136200476Y-84656580D02*
X136238571Y-84732771D01*
X136238571Y-84732771D02*
X136276667Y-84885152D01*
X136276667Y-84885152D02*
X136276667Y-84999438D01*
X136276667Y-84999438D02*
X136238571Y-85151819D01*
X136238571Y-85151819D02*
X136200476Y-85228009D01*
X136200476Y-85228009D02*
X136124286Y-85304200D01*
X136124286Y-85304200D02*
X136010000Y-85342295D01*
X136010000Y-85342295D02*
X135819524Y-85342295D01*
X136962381Y-84808961D02*
X136962381Y-85342295D01*
X136771905Y-84504200D02*
X136581428Y-85075628D01*
X136581428Y-85075628D02*
X137076667Y-85075628D01*
X117106667Y-84882295D02*
X116840000Y-84501342D01*
X116649524Y-84882295D02*
X116649524Y-84082295D01*
X116649524Y-84082295D02*
X116954286Y-84082295D01*
X116954286Y-84082295D02*
X117030476Y-84120390D01*
X117030476Y-84120390D02*
X117068571Y-84158485D01*
X117068571Y-84158485D02*
X117106667Y-84234676D01*
X117106667Y-84234676D02*
X117106667Y-84348961D01*
X117106667Y-84348961D02*
X117068571Y-84425152D01*
X117068571Y-84425152D02*
X117030476Y-84463247D01*
X117030476Y-84463247D02*
X116954286Y-84501342D01*
X116954286Y-84501342D02*
X116649524Y-84501342D01*
X117792381Y-84082295D02*
X117640000Y-84082295D01*
X117640000Y-84082295D02*
X117563809Y-84120390D01*
X117563809Y-84120390D02*
X117525714Y-84158485D01*
X117525714Y-84158485D02*
X117449524Y-84272771D01*
X117449524Y-84272771D02*
X117411428Y-84425152D01*
X117411428Y-84425152D02*
X117411428Y-84729914D01*
X117411428Y-84729914D02*
X117449524Y-84806104D01*
X117449524Y-84806104D02*
X117487619Y-84844200D01*
X117487619Y-84844200D02*
X117563809Y-84882295D01*
X117563809Y-84882295D02*
X117716190Y-84882295D01*
X117716190Y-84882295D02*
X117792381Y-84844200D01*
X117792381Y-84844200D02*
X117830476Y-84806104D01*
X117830476Y-84806104D02*
X117868571Y-84729914D01*
X117868571Y-84729914D02*
X117868571Y-84539438D01*
X117868571Y-84539438D02*
X117830476Y-84463247D01*
X117830476Y-84463247D02*
X117792381Y-84425152D01*
X117792381Y-84425152D02*
X117716190Y-84387057D01*
X117716190Y-84387057D02*
X117563809Y-84387057D01*
X117563809Y-84387057D02*
X117487619Y-84425152D01*
X117487619Y-84425152D02*
X117449524Y-84463247D01*
X117449524Y-84463247D02*
X117411428Y-84539438D01*
X120529524Y-71482295D02*
X120529524Y-70682295D01*
X120529524Y-70682295D02*
X120720000Y-70682295D01*
X120720000Y-70682295D02*
X120834286Y-70720390D01*
X120834286Y-70720390D02*
X120910476Y-70796580D01*
X120910476Y-70796580D02*
X120948571Y-70872771D01*
X120948571Y-70872771D02*
X120986667Y-71025152D01*
X120986667Y-71025152D02*
X120986667Y-71139438D01*
X120986667Y-71139438D02*
X120948571Y-71291819D01*
X120948571Y-71291819D02*
X120910476Y-71368009D01*
X120910476Y-71368009D02*
X120834286Y-71444200D01*
X120834286Y-71444200D02*
X120720000Y-71482295D01*
X120720000Y-71482295D02*
X120529524Y-71482295D01*
X121748571Y-71482295D02*
X121291428Y-71482295D01*
X121520000Y-71482295D02*
X121520000Y-70682295D01*
X121520000Y-70682295D02*
X121443809Y-70796580D01*
X121443809Y-70796580D02*
X121367619Y-70872771D01*
X121367619Y-70872771D02*
X121291428Y-70910866D01*
X116829524Y-86482295D02*
X116829524Y-85682295D01*
X116829524Y-85682295D02*
X117020000Y-85682295D01*
X117020000Y-85682295D02*
X117134286Y-85720390D01*
X117134286Y-85720390D02*
X117210476Y-85796580D01*
X117210476Y-85796580D02*
X117248571Y-85872771D01*
X117248571Y-85872771D02*
X117286667Y-86025152D01*
X117286667Y-86025152D02*
X117286667Y-86139438D01*
X117286667Y-86139438D02*
X117248571Y-86291819D01*
X117248571Y-86291819D02*
X117210476Y-86368009D01*
X117210476Y-86368009D02*
X117134286Y-86444200D01*
X117134286Y-86444200D02*
X117020000Y-86482295D01*
X117020000Y-86482295D02*
X116829524Y-86482295D01*
X117553333Y-85682295D02*
X118048571Y-85682295D01*
X118048571Y-85682295D02*
X117781905Y-85987057D01*
X117781905Y-85987057D02*
X117896190Y-85987057D01*
X117896190Y-85987057D02*
X117972381Y-86025152D01*
X117972381Y-86025152D02*
X118010476Y-86063247D01*
X118010476Y-86063247D02*
X118048571Y-86139438D01*
X118048571Y-86139438D02*
X118048571Y-86329914D01*
X118048571Y-86329914D02*
X118010476Y-86406104D01*
X118010476Y-86406104D02*
X117972381Y-86444200D01*
X117972381Y-86444200D02*
X117896190Y-86482295D01*
X117896190Y-86482295D02*
X117667619Y-86482295D01*
X117667619Y-86482295D02*
X117591428Y-86444200D01*
X117591428Y-86444200D02*
X117553333Y-86406104D01*
X126566667Y-92502295D02*
X126300000Y-92121342D01*
X126109524Y-92502295D02*
X126109524Y-91702295D01*
X126109524Y-91702295D02*
X126414286Y-91702295D01*
X126414286Y-91702295D02*
X126490476Y-91740390D01*
X126490476Y-91740390D02*
X126528571Y-91778485D01*
X126528571Y-91778485D02*
X126566667Y-91854676D01*
X126566667Y-91854676D02*
X126566667Y-91968961D01*
X126566667Y-91968961D02*
X126528571Y-92045152D01*
X126528571Y-92045152D02*
X126490476Y-92083247D01*
X126490476Y-92083247D02*
X126414286Y-92121342D01*
X126414286Y-92121342D02*
X126109524Y-92121342D01*
X126833333Y-91702295D02*
X127366667Y-91702295D01*
X127366667Y-91702295D02*
X127023809Y-92502295D01*
X128452857Y-89992295D02*
X128186190Y-89611342D01*
X127995714Y-89992295D02*
X127995714Y-89192295D01*
X127995714Y-89192295D02*
X128300476Y-89192295D01*
X128300476Y-89192295D02*
X128376666Y-89230390D01*
X128376666Y-89230390D02*
X128414761Y-89268485D01*
X128414761Y-89268485D02*
X128452857Y-89344676D01*
X128452857Y-89344676D02*
X128452857Y-89458961D01*
X128452857Y-89458961D02*
X128414761Y-89535152D01*
X128414761Y-89535152D02*
X128376666Y-89573247D01*
X128376666Y-89573247D02*
X128300476Y-89611342D01*
X128300476Y-89611342D02*
X127995714Y-89611342D01*
X129176666Y-89992295D02*
X128795714Y-89992295D01*
X128795714Y-89992295D02*
X128795714Y-89192295D01*
X129786190Y-89458961D02*
X129786190Y-89992295D01*
X129595714Y-89154200D02*
X129405237Y-89725628D01*
X129405237Y-89725628D02*
X129900476Y-89725628D01*
X131869524Y-71602295D02*
X131869524Y-70802295D01*
X131869524Y-70802295D02*
X132060000Y-70802295D01*
X132060000Y-70802295D02*
X132174286Y-70840390D01*
X132174286Y-70840390D02*
X132250476Y-70916580D01*
X132250476Y-70916580D02*
X132288571Y-70992771D01*
X132288571Y-70992771D02*
X132326667Y-71145152D01*
X132326667Y-71145152D02*
X132326667Y-71259438D01*
X132326667Y-71259438D02*
X132288571Y-71411819D01*
X132288571Y-71411819D02*
X132250476Y-71488009D01*
X132250476Y-71488009D02*
X132174286Y-71564200D01*
X132174286Y-71564200D02*
X132060000Y-71602295D01*
X132060000Y-71602295D02*
X131869524Y-71602295D01*
X132631428Y-70878485D02*
X132669524Y-70840390D01*
X132669524Y-70840390D02*
X132745714Y-70802295D01*
X132745714Y-70802295D02*
X132936190Y-70802295D01*
X132936190Y-70802295D02*
X133012381Y-70840390D01*
X133012381Y-70840390D02*
X133050476Y-70878485D01*
X133050476Y-70878485D02*
X133088571Y-70954676D01*
X133088571Y-70954676D02*
X133088571Y-71030866D01*
X133088571Y-71030866D02*
X133050476Y-71145152D01*
X133050476Y-71145152D02*
X132593333Y-71602295D01*
X132593333Y-71602295D02*
X133088571Y-71602295D01*
D12*
%TO.C,C3*%
X133703767Y-83360000D02*
X133411233Y-83360000D01*
X133703767Y-84380000D02*
X133411233Y-84380000D01*
%TO.C,R5*%
X133292776Y-81717500D02*
X133802224Y-81717500D01*
X133292776Y-82762500D02*
X133802224Y-82762500D01*
%TO.C,R1*%
X119562776Y-78567500D02*
X120072224Y-78567500D01*
X119562776Y-79612500D02*
X120072224Y-79612500D01*
D13*
%TO.C,U1*%
X124694950Y-79163700D02*
X124694950Y-79427860D01*
X124694950Y-84462140D02*
X124694950Y-84726300D01*
X124694950Y-84726300D02*
X128936750Y-84726300D01*
X128936750Y-79163700D02*
X124694950Y-79163700D01*
X128936750Y-79427860D02*
X128936750Y-79163700D01*
X128936750Y-84726300D02*
X128936750Y-84462140D01*
D12*
%TO.C,R3*%
X133642776Y-79147500D02*
X134152224Y-79147500D01*
X133642776Y-80192500D02*
X134152224Y-80192500D01*
%TO.C,RL2*%
X129007500Y-76652224D02*
X129007500Y-76142776D01*
X130052500Y-76652224D02*
X130052500Y-76142776D01*
%TO.C,RL1*%
X124287500Y-76777224D02*
X124287500Y-76267776D01*
X125332500Y-76777224D02*
X125332500Y-76267776D01*
%TO.C,RL3*%
X124407500Y-87502224D02*
X124407500Y-86992776D01*
X125452500Y-87502224D02*
X125452500Y-86992776D01*
%TO.C,D4*%
X131210000Y-87235000D02*
X131210000Y-90325000D01*
X131210001Y-87235170D02*
G75*
G02*
X136759999Y-88780462I2559999J-1544830D01*
G01*
X136760000Y-88779538D02*
G75*
G02*
X131210000Y-90324830I-2990000J-462D01*
G01*
X136270000Y-88780000D02*
G75*
G02*
X131270000Y-88780000I-2500000J0D01*
G01*
X131270000Y-88780000D02*
G75*
G02*
X136270000Y-88780000I2500000J0D01*
G01*
%TO.C,R6*%
X120102224Y-84017500D02*
X119592776Y-84017500D01*
X120102224Y-85062500D02*
X119592776Y-85062500D01*
%TO.C,D1*%
X117710000Y-73455000D02*
X117710000Y-76545000D01*
X117710001Y-73455170D02*
G75*
G02*
X123259999Y-75000462I2559999J-1544830D01*
G01*
X123260000Y-74999538D02*
G75*
G02*
X117710000Y-76544830I-2990000J-462D01*
G01*
X122770000Y-75000000D02*
G75*
G02*
X117770000Y-75000000I-2500000J0D01*
G01*
X117770000Y-75000000D02*
G75*
G02*
X122770000Y-75000000I2500000J0D01*
G01*
%TO.C,D3*%
X117710000Y-87235000D02*
X117710000Y-90325000D01*
X117710001Y-87235170D02*
G75*
G02*
X123259999Y-88780462I2559999J-1544830D01*
G01*
X123260000Y-88779538D02*
G75*
G02*
X117710000Y-90324830I-2990000J-462D01*
G01*
X122770000Y-88780000D02*
G75*
G02*
X117770000Y-88780000I-2500000J0D01*
G01*
X117770000Y-88780000D02*
G75*
G02*
X122770000Y-88780000I2500000J0D01*
G01*
%TO.C,R7*%
X124307500Y-90977224D02*
X124307500Y-90467776D01*
X125352500Y-90977224D02*
X125352500Y-90467776D01*
%TO.C,RL4*%
X128367500Y-87542224D02*
X128367500Y-87032776D01*
X129412500Y-87542224D02*
X129412500Y-87032776D01*
%TO.C,D2*%
X131210000Y-73455000D02*
X131210000Y-76545000D01*
X131210001Y-73455170D02*
G75*
G02*
X136759999Y-75000462I2559999J-1544830D01*
G01*
X136760000Y-74999538D02*
G75*
G02*
X131210000Y-76544830I-2990000J-462D01*
G01*
X136270000Y-75000000D02*
G75*
G02*
X131270000Y-75000000I-2500000J0D01*
G01*
X131270000Y-75000000D02*
G75*
G02*
X136270000Y-75000000I2500000J0D01*
G01*
%TD*%
%LPC*%
D14*
%TO.C,H4*%
X135000000Y-93640000D03*
%TD*%
%TO.C,H3*%
X118500000Y-93640000D03*
%TD*%
%TO.C,H2*%
X135000000Y-70000000D03*
%TD*%
%TO.C,H1*%
X118500000Y-70000000D03*
%TD*%
D15*
%TO.C,C3*%
X134420000Y-83870000D03*
X132695000Y-83870000D03*
%TD*%
D16*
%TO.C,R5*%
X132635000Y-82240000D03*
X134460000Y-82240000D03*
%TD*%
%TO.C,R1*%
X118905000Y-79090000D03*
X120730000Y-79090000D03*
%TD*%
D17*
%TO.C,U1*%
X124091700Y-80040000D03*
X124091700Y-81310000D03*
X124091700Y-82580000D03*
X124091700Y-83850000D03*
X129540000Y-83850000D03*
X129540000Y-82580000D03*
X129540000Y-81310000D03*
X129540000Y-80040000D03*
%TD*%
D16*
%TO.C,R3*%
X132985000Y-79670000D03*
X134810000Y-79670000D03*
%TD*%
D18*
%TO.C,RL2*%
X129530000Y-77310000D03*
X129530000Y-75485000D03*
%TD*%
%TO.C,RL1*%
X124810000Y-77435000D03*
X124810000Y-75610000D03*
%TD*%
%TO.C,RL3*%
X124930000Y-88160000D03*
X124930000Y-86335000D03*
%TD*%
D19*
%TO.C,D4*%
X132500000Y-88780000D03*
D20*
X135040000Y-88780000D03*
%TD*%
D21*
%TO.C,R6*%
X120760000Y-84540000D03*
X118935000Y-84540000D03*
%TD*%
D19*
%TO.C,D1*%
X119000000Y-75000000D03*
D20*
X121540000Y-75000000D03*
%TD*%
D19*
%TO.C,D3*%
X119000000Y-88780000D03*
D20*
X121540000Y-88780000D03*
%TD*%
D18*
%TO.C,R7*%
X124830000Y-91635000D03*
X124830000Y-89810000D03*
%TD*%
%TO.C,RL4*%
X128890000Y-88200000D03*
X128890000Y-86375000D03*
%TD*%
D19*
%TO.C,D2*%
X132500000Y-75000000D03*
D20*
X135040000Y-75000000D03*
%TD*%
D22*
%TO.C,J1*%
X125750000Y-70680000D03*
D23*
X128290000Y-70680000D03*
%TD*%
%LPD*%
M02*
