%TF.GenerationSoftware,KiCad,Pcbnew,8.0.1*%
%TF.CreationDate,2025-01-22T20:18:37-07:00*%
%TF.ProjectId,LEDHolder,4c454448-6f6c-4646-9572-2e6b69636164,rev?*%
%TF.SameCoordinates,Original*%
%TF.FileFunction,Copper,L2,Bot*%
%TF.FilePolarity,Positive*%
%FSLAX46Y46*%
G04 Gerber Fmt 4.6, Leading zero omitted, Abs format (unit mm)*
G04 Created by KiCad (PCBNEW 8.0.1) date 2025-01-22 20:18:37*
%MOMM*%
%LPD*%
G01*
G04 APERTURE LIST*
G04 Aperture macros list*
%AMRoundRect*
0 Rectangle with rounded corners*
0 $1 Rounding radius*
0 $2 $3 $4 $5 $6 $7 $8 $9 X,Y pos of 4 corners*
0 Add a 4 corners polygon primitive as box body*
4,1,4,$2,$3,$4,$5,$6,$7,$8,$9,$2,$3,0*
0 Add four circle primitives for the rounded corners*
1,1,$1+$1,$2,$3*
1,1,$1+$1,$4,$5*
1,1,$1+$1,$6,$7*
1,1,$1+$1,$8,$9*
0 Add four rect primitives between the rounded corners*
20,1,$1+$1,$2,$3,$4,$5,0*
20,1,$1+$1,$4,$5,$6,$7,0*
20,1,$1+$1,$6,$7,$8,$9,0*
20,1,$1+$1,$8,$9,$2,$3,0*%
G04 Aperture macros list end*
%TA.AperFunction,ComponentPad*%
%ADD10C,2.500000*%
%TD*%
%TA.AperFunction,SMDPad,CuDef*%
%ADD11RoundRect,0.250000X-0.325000X-0.450000X0.325000X-0.450000X0.325000X0.450000X-0.325000X0.450000X0*%
%TD*%
%TA.AperFunction,ComponentPad*%
%ADD12R,1.700000X1.700000*%
%TD*%
%TA.AperFunction,ComponentPad*%
%ADD13O,1.700000X1.700000*%
%TD*%
%TA.AperFunction,ViaPad*%
%ADD14C,0.600000*%
%TD*%
%TA.AperFunction,Conductor*%
%ADD15C,0.200000*%
%TD*%
G04 APERTURE END LIST*
D10*
%TO.P,H1,1,1*%
%TO.N,LED1*%
X139100000Y-90560000D03*
%TD*%
%TO.P,H2,1,1*%
%TO.N,LED2*%
X143960000Y-90510000D03*
%TD*%
D11*
%TO.P,D1,1,K*%
%TO.N,Net-(D1-K)*%
X140460000Y-95770000D03*
%TO.P,D1,2,A*%
%TO.N,LED2*%
X142510000Y-95770000D03*
%TD*%
D12*
%TO.P,J1,1,Pin_1*%
%TO.N,LED1*%
X140355000Y-87380000D03*
D13*
%TO.P,J1,2,Pin_2*%
%TO.N,LED2*%
X142895000Y-87380000D03*
%TD*%
D14*
%TO.N,Net-(D1-K)*%
X138830000Y-94390000D03*
%TD*%
D15*
%TO.N,Net-(D1-K)*%
X138830000Y-94390000D02*
X138830000Y-95130000D01*
X138830000Y-95130000D02*
X139470000Y-95770000D01*
X139470000Y-95770000D02*
X140460000Y-95770000D01*
%TO.N,LED2*%
X144120000Y-95180000D02*
X144120000Y-90500000D01*
X143530000Y-95770000D02*
X144120000Y-95180000D01*
X142510000Y-95770000D02*
X143530000Y-95770000D01*
%TD*%
%TA.AperFunction,Conductor*%
%TO.N,LED1*%
G36*
X145392638Y-85488093D02*
G01*
X145418358Y-85532642D01*
X145419500Y-85545700D01*
X145419500Y-89867733D01*
X145401907Y-89916071D01*
X145357358Y-89941791D01*
X145306700Y-89932858D01*
X145275434Y-89897941D01*
X145240050Y-89817274D01*
X145227837Y-89798581D01*
X145108571Y-89616031D01*
X145034969Y-89536078D01*
X144945766Y-89439177D01*
X144945762Y-89439173D01*
X144756065Y-89291526D01*
X144544661Y-89177120D01*
X144544659Y-89177119D01*
X144524859Y-89170322D01*
X144317297Y-89099066D01*
X144317293Y-89099065D01*
X144317289Y-89099064D01*
X144080195Y-89059500D01*
X144080192Y-89059500D01*
X143839808Y-89059500D01*
X143839804Y-89059500D01*
X143602710Y-89099064D01*
X143602700Y-89099067D01*
X143375340Y-89177119D01*
X143375338Y-89177120D01*
X143163934Y-89291526D01*
X142974237Y-89439173D01*
X142974233Y-89439177D01*
X142811429Y-89616030D01*
X142679949Y-89817274D01*
X142583391Y-90037404D01*
X142524380Y-90270437D01*
X142524379Y-90270440D01*
X142504529Y-90509998D01*
X142504529Y-90510001D01*
X142524379Y-90749559D01*
X142524380Y-90749562D01*
X142583391Y-90982595D01*
X142679949Y-91202725D01*
X142811429Y-91403969D01*
X142974233Y-91580822D01*
X142974237Y-91580826D01*
X143163934Y-91728473D01*
X143375338Y-91842879D01*
X143375344Y-91842882D01*
X143602703Y-91920934D01*
X143829678Y-91958809D01*
X143874460Y-91984118D01*
X143892497Y-92032292D01*
X143892500Y-92032983D01*
X143892500Y-95054619D01*
X143874907Y-95102957D01*
X143870474Y-95107793D01*
X143457793Y-95520474D01*
X143411173Y-95542214D01*
X143404619Y-95542500D01*
X143360700Y-95542500D01*
X143312362Y-95524907D01*
X143286642Y-95480358D01*
X143285500Y-95467300D01*
X143285500Y-95265726D01*
X143285499Y-95265711D01*
X143283579Y-95245255D01*
X143282646Y-95235301D01*
X143237793Y-95107118D01*
X143157150Y-94997850D01*
X143047882Y-94917207D01*
X143047879Y-94917205D01*
X142950470Y-94883121D01*
X142919699Y-94872354D01*
X142919694Y-94872353D01*
X142919692Y-94872353D01*
X142889273Y-94869500D01*
X142889266Y-94869500D01*
X142130734Y-94869500D01*
X142130727Y-94869500D01*
X142100307Y-94872353D01*
X142100303Y-94872353D01*
X142100301Y-94872354D01*
X142100298Y-94872354D01*
X142100298Y-94872355D01*
X141972120Y-94917205D01*
X141972117Y-94917207D01*
X141862850Y-94997850D01*
X141782207Y-95107117D01*
X141782205Y-95107120D01*
X141737355Y-95235298D01*
X141737353Y-95235307D01*
X141734501Y-95265711D01*
X141734500Y-95265726D01*
X141734500Y-96274273D01*
X141737353Y-96304692D01*
X141737354Y-96304699D01*
X141737355Y-96304701D01*
X141782205Y-96432879D01*
X141782207Y-96432882D01*
X141862850Y-96542150D01*
X141972117Y-96622792D01*
X141972120Y-96622794D01*
X142002889Y-96633560D01*
X142100301Y-96667646D01*
X142114347Y-96668963D01*
X142130727Y-96670500D01*
X142130734Y-96670500D01*
X142889272Y-96670500D01*
X142903312Y-96669182D01*
X142919699Y-96667646D01*
X143047882Y-96622793D01*
X143157150Y-96542150D01*
X143237793Y-96432882D01*
X143282646Y-96304699D01*
X143284073Y-96289482D01*
X143285500Y-96274273D01*
X143285500Y-96072700D01*
X143303093Y-96024362D01*
X143347642Y-95998642D01*
X143360700Y-95997500D01*
X143575251Y-95997500D01*
X143575253Y-95997500D01*
X143658868Y-95962865D01*
X144312865Y-95308868D01*
X144347500Y-95225253D01*
X144347500Y-95134747D01*
X144347500Y-91964257D01*
X144365093Y-91915919D01*
X144398281Y-91893131D01*
X144544656Y-91842882D01*
X144756067Y-91728472D01*
X144945764Y-91580825D01*
X145108571Y-91403969D01*
X145240049Y-91202728D01*
X145275434Y-91122059D01*
X145310962Y-91084860D01*
X145362090Y-91079201D01*
X145404893Y-91107730D01*
X145419500Y-91152266D01*
X145419500Y-96834300D01*
X145401907Y-96882638D01*
X145357358Y-96908358D01*
X145344300Y-96909500D01*
X137775700Y-96909500D01*
X137727362Y-96891907D01*
X137701642Y-96847358D01*
X137700500Y-96834300D01*
X137700500Y-94390000D01*
X138274750Y-94390000D01*
X138293670Y-94533709D01*
X138293671Y-94533711D01*
X138349139Y-94667626D01*
X138437378Y-94782621D01*
X138552372Y-94870860D01*
X138553984Y-94871527D01*
X138556072Y-94872392D01*
X138594001Y-94907141D01*
X138602500Y-94941870D01*
X138602500Y-95084747D01*
X138602500Y-95175253D01*
X138623211Y-95225253D01*
X138637136Y-95258870D01*
X139341130Y-95962865D01*
X139341131Y-95962865D01*
X139341132Y-95962866D01*
X139400254Y-95987353D01*
X139400257Y-95987356D01*
X139400257Y-95987355D01*
X139424747Y-95997500D01*
X139424748Y-95997500D01*
X139515253Y-95997500D01*
X139609300Y-95997500D01*
X139657638Y-96015093D01*
X139683358Y-96059642D01*
X139684500Y-96072700D01*
X139684500Y-96274273D01*
X139687353Y-96304692D01*
X139687354Y-96304699D01*
X139687355Y-96304701D01*
X139732205Y-96432879D01*
X139732207Y-96432882D01*
X139812850Y-96542150D01*
X139922117Y-96622792D01*
X139922120Y-96622794D01*
X139952889Y-96633560D01*
X140050301Y-96667646D01*
X140064347Y-96668963D01*
X140080727Y-96670500D01*
X140080734Y-96670500D01*
X140839272Y-96670500D01*
X140853312Y-96669182D01*
X140869699Y-96667646D01*
X140997882Y-96622793D01*
X141107150Y-96542150D01*
X141187793Y-96432882D01*
X141232646Y-96304699D01*
X141234073Y-96289482D01*
X141235500Y-96274273D01*
X141235500Y-95265726D01*
X141235499Y-95265711D01*
X141233579Y-95245255D01*
X141232646Y-95235301D01*
X141187793Y-95107118D01*
X141107150Y-94997850D01*
X140997882Y-94917207D01*
X140997879Y-94917205D01*
X140900470Y-94883121D01*
X140869699Y-94872354D01*
X140869694Y-94872353D01*
X140869692Y-94872353D01*
X140839273Y-94869500D01*
X140839266Y-94869500D01*
X140080734Y-94869500D01*
X140080727Y-94869500D01*
X140050307Y-94872353D01*
X140050303Y-94872353D01*
X140050301Y-94872354D01*
X140050298Y-94872354D01*
X140050298Y-94872355D01*
X139922120Y-94917205D01*
X139922117Y-94917207D01*
X139812850Y-94997850D01*
X139732207Y-95107117D01*
X139732205Y-95107120D01*
X139687355Y-95235298D01*
X139687353Y-95235307D01*
X139684501Y-95265711D01*
X139684500Y-95265726D01*
X139684500Y-95467300D01*
X139666907Y-95515638D01*
X139622358Y-95541358D01*
X139609300Y-95542500D01*
X139595382Y-95542500D01*
X139547044Y-95524907D01*
X139542208Y-95520474D01*
X139079526Y-95057792D01*
X139057786Y-95011172D01*
X139057500Y-95004618D01*
X139057500Y-94941870D01*
X139075093Y-94893532D01*
X139103927Y-94872392D01*
X139107625Y-94870861D01*
X139107625Y-94870860D01*
X139107627Y-94870860D01*
X139222621Y-94782621D01*
X139310860Y-94667626D01*
X139310859Y-94667626D01*
X139310861Y-94667625D01*
X139366330Y-94533709D01*
X139385250Y-94390000D01*
X139366330Y-94246291D01*
X139310861Y-94112375D01*
X139310860Y-94112374D01*
X139310860Y-94112373D01*
X139222621Y-93997378D01*
X139107626Y-93909139D01*
X138973711Y-93853671D01*
X138973709Y-93853670D01*
X138830000Y-93834750D01*
X138686291Y-93853670D01*
X138686288Y-93853670D01*
X138686288Y-93853671D01*
X138552373Y-93909139D01*
X138437378Y-93997378D01*
X138349139Y-94112373D01*
X138293671Y-94246288D01*
X138293670Y-94246291D01*
X138274750Y-94390000D01*
X137700500Y-94390000D01*
X137700500Y-91637095D01*
X137718093Y-91588757D01*
X137722526Y-91583921D01*
X138237426Y-91069020D01*
X138323249Y-91197463D01*
X138462537Y-91336751D01*
X138590978Y-91422572D01*
X138050831Y-91962719D01*
X138050831Y-91962722D01*
X138222541Y-92079791D01*
X138222544Y-92079792D01*
X138458861Y-92193597D01*
X138709492Y-92270906D01*
X138709505Y-92270909D01*
X138968858Y-92310000D01*
X139231142Y-92310000D01*
X139490494Y-92270909D01*
X139490507Y-92270906D01*
X139741138Y-92193597D01*
X139977454Y-92079793D01*
X140149167Y-91962721D01*
X140149167Y-91962719D01*
X139609021Y-91422573D01*
X139737463Y-91336751D01*
X139876751Y-91197463D01*
X139962573Y-91069020D01*
X140502124Y-91608571D01*
X140502125Y-91608571D01*
X140549969Y-91548578D01*
X140549971Y-91548574D01*
X140681114Y-91321430D01*
X140681120Y-91321418D01*
X140776938Y-91077274D01*
X140835305Y-90821557D01*
X140854906Y-90560000D01*
X140835305Y-90298442D01*
X140776938Y-90042725D01*
X140681120Y-89798581D01*
X140681114Y-89798569D01*
X140549974Y-89571429D01*
X140549971Y-89571426D01*
X140502125Y-89511427D01*
X140502124Y-89511426D01*
X139962572Y-90050977D01*
X139876751Y-89922537D01*
X139737463Y-89783249D01*
X139609020Y-89697426D01*
X140149167Y-89157279D01*
X140149167Y-89157276D01*
X139977459Y-89040208D01*
X139977456Y-89040207D01*
X139741138Y-88926402D01*
X139581171Y-88877059D01*
X139540166Y-88846000D01*
X139528720Y-88795849D01*
X139552187Y-88750075D01*
X139599587Y-88730093D01*
X139603336Y-88730000D01*
X140105000Y-88730000D01*
X140105000Y-87813012D01*
X140162007Y-87845925D01*
X140289174Y-87880000D01*
X140420826Y-87880000D01*
X140547993Y-87845925D01*
X140605000Y-87813012D01*
X140605000Y-88730000D01*
X141252820Y-88730000D01*
X141252831Y-88729999D01*
X141312374Y-88723598D01*
X141312377Y-88723597D01*
X141447090Y-88673351D01*
X141447092Y-88673350D01*
X141562189Y-88587189D01*
X141648350Y-88472092D01*
X141648351Y-88472090D01*
X141698597Y-88337377D01*
X141698598Y-88337374D01*
X141704999Y-88277831D01*
X141705000Y-88277820D01*
X141705000Y-87545971D01*
X141722593Y-87497633D01*
X141767142Y-87471913D01*
X141817800Y-87480846D01*
X141850865Y-87520251D01*
X141855038Y-87538600D01*
X141859699Y-87585932D01*
X141919765Y-87783947D01*
X141919770Y-87783959D01*
X141952892Y-87845925D01*
X142017315Y-87966450D01*
X142148590Y-88126410D01*
X142308550Y-88257685D01*
X142491046Y-88355232D01*
X142491050Y-88355233D01*
X142491052Y-88355234D01*
X142564778Y-88377598D01*
X142689066Y-88415300D01*
X142895000Y-88435583D01*
X143100934Y-88415300D01*
X143298954Y-88355232D01*
X143481450Y-88257685D01*
X143641410Y-88126410D01*
X143772685Y-87966450D01*
X143870232Y-87783954D01*
X143930300Y-87585934D01*
X143950583Y-87380000D01*
X143930300Y-87174066D01*
X143892598Y-87049778D01*
X143870234Y-86976052D01*
X143870229Y-86976040D01*
X143772687Y-86793554D01*
X143772684Y-86793549D01*
X143641410Y-86633590D01*
X143481450Y-86502315D01*
X143481445Y-86502312D01*
X143298959Y-86404770D01*
X143298947Y-86404765D01*
X143100932Y-86344699D01*
X142895000Y-86324417D01*
X142689067Y-86344699D01*
X142491052Y-86404765D01*
X142491040Y-86404770D01*
X142308554Y-86502312D01*
X142308549Y-86502315D01*
X142148590Y-86633590D01*
X142017315Y-86793549D01*
X142017312Y-86793554D01*
X141919770Y-86976040D01*
X141919765Y-86976052D01*
X141859699Y-87174067D01*
X141855038Y-87221399D01*
X141832791Y-87267779D01*
X141785936Y-87289009D01*
X141736398Y-87275154D01*
X141707354Y-87232698D01*
X141705000Y-87214028D01*
X141705000Y-86482180D01*
X141704999Y-86482168D01*
X141698598Y-86422625D01*
X141698597Y-86422622D01*
X141648351Y-86287909D01*
X141648350Y-86287907D01*
X141562189Y-86172810D01*
X141447092Y-86086649D01*
X141447090Y-86086648D01*
X141312377Y-86036402D01*
X141312374Y-86036401D01*
X141252831Y-86030000D01*
X140605000Y-86030000D01*
X140605000Y-86946988D01*
X140547993Y-86914075D01*
X140420826Y-86880000D01*
X140289174Y-86880000D01*
X140162007Y-86914075D01*
X140105000Y-86946988D01*
X140105000Y-86030000D01*
X139457168Y-86030000D01*
X139397625Y-86036401D01*
X139397622Y-86036402D01*
X139262909Y-86086648D01*
X139262907Y-86086649D01*
X139147810Y-86172810D01*
X139061649Y-86287907D01*
X139061648Y-86287909D01*
X139011402Y-86422622D01*
X139011401Y-86422625D01*
X139005000Y-86482168D01*
X139005000Y-87130000D01*
X139921988Y-87130000D01*
X139889075Y-87187007D01*
X139855000Y-87314174D01*
X139855000Y-87445826D01*
X139889075Y-87572993D01*
X139921988Y-87630000D01*
X139005000Y-87630000D01*
X139005000Y-88277831D01*
X139011401Y-88337374D01*
X139011402Y-88337377D01*
X139061648Y-88472090D01*
X139061649Y-88472092D01*
X139147810Y-88587189D01*
X139264576Y-88674600D01*
X139292729Y-88717652D01*
X139286621Y-88768728D01*
X139249112Y-88803929D01*
X139219510Y-88810000D01*
X138968858Y-88810000D01*
X138709505Y-88849090D01*
X138709492Y-88849093D01*
X138458861Y-88926402D01*
X138222552Y-89040203D01*
X138222550Y-89040204D01*
X138050831Y-89157278D01*
X138050831Y-89157279D01*
X138590978Y-89697426D01*
X138462537Y-89783249D01*
X138323249Y-89922537D01*
X138237426Y-90050978D01*
X137722526Y-89536078D01*
X137700786Y-89489458D01*
X137700500Y-89482904D01*
X137700500Y-85545700D01*
X137718093Y-85497362D01*
X137762642Y-85471642D01*
X137775700Y-85470500D01*
X145344300Y-85470500D01*
X145392638Y-85488093D01*
G37*
%TD.AperFunction*%
%TD*%
M02*
