%TF.GenerationSoftware,KiCad,Pcbnew,8.0.1*%
%TF.CreationDate,2025-01-22T20:18:37-07:00*%
%TF.ProjectId,LEDHolder,4c454448-6f6c-4646-9572-2e6b69636164,rev?*%
%TF.SameCoordinates,Original*%
%TF.FileFunction,Legend,Bot*%
%TF.FilePolarity,Positive*%
%FSLAX46Y46*%
G04 Gerber Fmt 4.6, Leading zero omitted, Abs format (unit mm)*
G04 Created by KiCad (PCBNEW 8.0.1) date 2025-01-22 20:18:37*
%MOMM*%
%LPD*%
G01*
G04 APERTURE LIST*
G04 Aperture macros list*
%AMRoundRect*
0 Rectangle with rounded corners*
0 $1 Rounding radius*
0 $2 $3 $4 $5 $6 $7 $8 $9 X,Y pos of 4 corners*
0 Add a 4 corners polygon primitive as box body*
4,1,4,$2,$3,$4,$5,$6,$7,$8,$9,$2,$3,0*
0 Add four circle primitives for the rounded corners*
1,1,$1+$1,$2,$3*
1,1,$1+$1,$4,$5*
1,1,$1+$1,$6,$7*
1,1,$1+$1,$8,$9*
0 Add four rect primitives between the rounded corners*
20,1,$1+$1,$2,$3,$4,$5,0*
20,1,$1+$1,$4,$5,$6,$7,0*
20,1,$1+$1,$6,$7,$8,$9,0*
20,1,$1+$1,$8,$9,$2,$3,0*%
G04 Aperture macros list end*
%ADD10C,0.150000*%
%ADD11C,0.120000*%
%ADD12C,2.500000*%
%ADD13RoundRect,0.250000X-0.325000X-0.450000X0.325000X-0.450000X0.325000X0.450000X-0.325000X0.450000X0*%
%ADD14R,1.700000X1.700000*%
%ADD15O,1.700000X1.700000*%
G04 APERTURE END LIST*
D10*
X145198094Y-96424819D02*
X145198094Y-95424819D01*
X145198094Y-95424819D02*
X144959999Y-95424819D01*
X144959999Y-95424819D02*
X144817142Y-95472438D01*
X144817142Y-95472438D02*
X144721904Y-95567676D01*
X144721904Y-95567676D02*
X144674285Y-95662914D01*
X144674285Y-95662914D02*
X144626666Y-95853390D01*
X144626666Y-95853390D02*
X144626666Y-95996247D01*
X144626666Y-95996247D02*
X144674285Y-96186723D01*
X144674285Y-96186723D02*
X144721904Y-96281961D01*
X144721904Y-96281961D02*
X144817142Y-96377200D01*
X144817142Y-96377200D02*
X144959999Y-96424819D01*
X144959999Y-96424819D02*
X145198094Y-96424819D01*
X143674285Y-96424819D02*
X144245713Y-96424819D01*
X143959999Y-96424819D02*
X143959999Y-95424819D01*
X143959999Y-95424819D02*
X144055237Y-95567676D01*
X144055237Y-95567676D02*
X144150475Y-95662914D01*
X144150475Y-95662914D02*
X144245713Y-95710533D01*
X137479819Y-87046666D02*
X138194104Y-87046666D01*
X138194104Y-87046666D02*
X138336961Y-86999047D01*
X138336961Y-86999047D02*
X138432200Y-86903809D01*
X138432200Y-86903809D02*
X138479819Y-86760952D01*
X138479819Y-86760952D02*
X138479819Y-86665714D01*
X138479819Y-88046666D02*
X138479819Y-87475238D01*
X138479819Y-87760952D02*
X137479819Y-87760952D01*
X137479819Y-87760952D02*
X137622676Y-87665714D01*
X137622676Y-87665714D02*
X137717914Y-87570476D01*
X137717914Y-87570476D02*
X137765533Y-87475238D01*
D11*
%TO.C,D1*%
X139625000Y-94810000D02*
X139625000Y-96730000D01*
X139625000Y-96730000D02*
X142485000Y-96730000D01*
X142485000Y-94810000D02*
X139625000Y-94810000D01*
%TO.C,J1*%
X139025000Y-86050000D02*
X140355000Y-86050000D01*
X139025000Y-87380000D02*
X139025000Y-86050000D01*
X141625000Y-88710000D02*
X141625000Y-86050000D01*
X144225000Y-86050000D02*
X141625000Y-86050000D01*
X144225000Y-88710000D02*
X141625000Y-88710000D01*
X144225000Y-88710000D02*
X144225000Y-86050000D01*
%TD*%
%LPC*%
D12*
%TO.C,H1*%
X139100000Y-90560000D03*
%TD*%
%TO.C,H2*%
X143960000Y-90510000D03*
%TD*%
D13*
%TO.C,D1*%
X140460000Y-95770000D03*
X142510000Y-95770000D03*
%TD*%
D14*
%TO.C,J1*%
X140355000Y-87380000D03*
D15*
X142895000Y-87380000D03*
%TD*%
%LPD*%
M02*
