%TF.GenerationSoftware,KiCad,Pcbnew,8.0.1*%
%TF.CreationDate,2025-01-22T18:04:17-07:00*%
%TF.ProjectId,AlcoholSensor,416c636f-686f-46c5-9365-6e736f722e6b,rev?*%
%TF.SameCoordinates,Original*%
%TF.FileFunction,Legend,Top*%
%TF.FilePolarity,Positive*%
%FSLAX46Y46*%
G04 Gerber Fmt 4.6, Leading zero omitted, Abs format (unit mm)*
G04 Created by KiCad (PCBNEW 8.0.1) date 2025-01-22 18:04:17*
%MOMM*%
%LPD*%
G01*
G04 APERTURE LIST*
G04 Aperture macros list*
%AMRoundRect*
0 Rectangle with rounded corners*
0 $1 Rounding radius*
0 $2 $3 $4 $5 $6 $7 $8 $9 X,Y pos of 4 corners*
0 Add a 4 corners polygon primitive as box body*
4,1,4,$2,$3,$4,$5,$6,$7,$8,$9,$2,$3,0*
0 Add four circle primitives for the rounded corners*
1,1,$1+$1,$2,$3*
1,1,$1+$1,$4,$5*
1,1,$1+$1,$6,$7*
1,1,$1+$1,$8,$9*
0 Add four rect primitives between the rounded corners*
20,1,$1+$1,$2,$3,$4,$5,0*
20,1,$1+$1,$4,$5,$6,$7,0*
20,1,$1+$1,$6,$7,$8,$9,0*
20,1,$1+$1,$8,$9,$2,$3,0*%
G04 Aperture macros list end*
%ADD10C,0.100000*%
%ADD11C,0.150000*%
%ADD12C,0.120000*%
%ADD13C,2.500000*%
%ADD14RoundRect,0.237500X0.237500X-0.250000X0.237500X0.250000X-0.237500X0.250000X-0.237500X-0.250000X0*%
%ADD15R,1.700000X0.650000*%
%ADD16RoundRect,0.250000X-0.325000X-0.450000X0.325000X-0.450000X0.325000X0.450000X-0.325000X0.450000X0*%
%ADD17R,1.700000X1.700000*%
%ADD18O,1.700000X1.700000*%
G04 APERTURE END LIST*
D10*
X176742381Y-71327419D02*
X176170953Y-71327419D01*
X176456667Y-71327419D02*
X176456667Y-70327419D01*
X176456667Y-70327419D02*
X176361429Y-70470276D01*
X176361429Y-70470276D02*
X176266191Y-70565514D01*
X176266191Y-70565514D02*
X176170953Y-70613133D01*
X177123334Y-70422657D02*
X177170953Y-70375038D01*
X177170953Y-70375038D02*
X177266191Y-70327419D01*
X177266191Y-70327419D02*
X177504286Y-70327419D01*
X177504286Y-70327419D02*
X177599524Y-70375038D01*
X177599524Y-70375038D02*
X177647143Y-70422657D01*
X177647143Y-70422657D02*
X177694762Y-70517895D01*
X177694762Y-70517895D02*
X177694762Y-70613133D01*
X177694762Y-70613133D02*
X177647143Y-70755990D01*
X177647143Y-70755990D02*
X177075715Y-71327419D01*
X177075715Y-71327419D02*
X177694762Y-71327419D01*
X178123334Y-71232180D02*
X178170953Y-71279800D01*
X178170953Y-71279800D02*
X178123334Y-71327419D01*
X178123334Y-71327419D02*
X178075715Y-71279800D01*
X178075715Y-71279800D02*
X178123334Y-71232180D01*
X178123334Y-71232180D02*
X178123334Y-71327419D01*
X178551905Y-70422657D02*
X178599524Y-70375038D01*
X178599524Y-70375038D02*
X178694762Y-70327419D01*
X178694762Y-70327419D02*
X178932857Y-70327419D01*
X178932857Y-70327419D02*
X179028095Y-70375038D01*
X179028095Y-70375038D02*
X179075714Y-70422657D01*
X179075714Y-70422657D02*
X179123333Y-70517895D01*
X179123333Y-70517895D02*
X179123333Y-70613133D01*
X179123333Y-70613133D02*
X179075714Y-70755990D01*
X179075714Y-70755990D02*
X178504286Y-71327419D01*
X178504286Y-71327419D02*
X179123333Y-71327419D01*
X179742381Y-70327419D02*
X179837619Y-70327419D01*
X179837619Y-70327419D02*
X179932857Y-70375038D01*
X179932857Y-70375038D02*
X179980476Y-70422657D01*
X179980476Y-70422657D02*
X180028095Y-70517895D01*
X180028095Y-70517895D02*
X180075714Y-70708371D01*
X180075714Y-70708371D02*
X180075714Y-70946466D01*
X180075714Y-70946466D02*
X180028095Y-71136942D01*
X180028095Y-71136942D02*
X179980476Y-71232180D01*
X179980476Y-71232180D02*
X179932857Y-71279800D01*
X179932857Y-71279800D02*
X179837619Y-71327419D01*
X179837619Y-71327419D02*
X179742381Y-71327419D01*
X179742381Y-71327419D02*
X179647143Y-71279800D01*
X179647143Y-71279800D02*
X179599524Y-71232180D01*
X179599524Y-71232180D02*
X179551905Y-71136942D01*
X179551905Y-71136942D02*
X179504286Y-70946466D01*
X179504286Y-70946466D02*
X179504286Y-70708371D01*
X179504286Y-70708371D02*
X179551905Y-70517895D01*
X179551905Y-70517895D02*
X179599524Y-70422657D01*
X179599524Y-70422657D02*
X179647143Y-70375038D01*
X179647143Y-70375038D02*
X179742381Y-70327419D01*
X180694762Y-70327419D02*
X180790000Y-70327419D01*
X180790000Y-70327419D02*
X180885238Y-70375038D01*
X180885238Y-70375038D02*
X180932857Y-70422657D01*
X180932857Y-70422657D02*
X180980476Y-70517895D01*
X180980476Y-70517895D02*
X181028095Y-70708371D01*
X181028095Y-70708371D02*
X181028095Y-70946466D01*
X181028095Y-70946466D02*
X180980476Y-71136942D01*
X180980476Y-71136942D02*
X180932857Y-71232180D01*
X180932857Y-71232180D02*
X180885238Y-71279800D01*
X180885238Y-71279800D02*
X180790000Y-71327419D01*
X180790000Y-71327419D02*
X180694762Y-71327419D01*
X180694762Y-71327419D02*
X180599524Y-71279800D01*
X180599524Y-71279800D02*
X180551905Y-71232180D01*
X180551905Y-71232180D02*
X180504286Y-71136942D01*
X180504286Y-71136942D02*
X180456667Y-70946466D01*
X180456667Y-70946466D02*
X180456667Y-70708371D01*
X180456667Y-70708371D02*
X180504286Y-70517895D01*
X180504286Y-70517895D02*
X180551905Y-70422657D01*
X180551905Y-70422657D02*
X180599524Y-70375038D01*
X180599524Y-70375038D02*
X180694762Y-70327419D01*
X181647143Y-70327419D02*
X181742381Y-70327419D01*
X181742381Y-70327419D02*
X181837619Y-70375038D01*
X181837619Y-70375038D02*
X181885238Y-70422657D01*
X181885238Y-70422657D02*
X181932857Y-70517895D01*
X181932857Y-70517895D02*
X181980476Y-70708371D01*
X181980476Y-70708371D02*
X181980476Y-70946466D01*
X181980476Y-70946466D02*
X181932857Y-71136942D01*
X181932857Y-71136942D02*
X181885238Y-71232180D01*
X181885238Y-71232180D02*
X181837619Y-71279800D01*
X181837619Y-71279800D02*
X181742381Y-71327419D01*
X181742381Y-71327419D02*
X181647143Y-71327419D01*
X181647143Y-71327419D02*
X181551905Y-71279800D01*
X181551905Y-71279800D02*
X181504286Y-71232180D01*
X181504286Y-71232180D02*
X181456667Y-71136942D01*
X181456667Y-71136942D02*
X181409048Y-70946466D01*
X181409048Y-70946466D02*
X181409048Y-70708371D01*
X181409048Y-70708371D02*
X181456667Y-70517895D01*
X181456667Y-70517895D02*
X181504286Y-70422657D01*
X181504286Y-70422657D02*
X181551905Y-70375038D01*
X181551905Y-70375038D02*
X181647143Y-70327419D01*
X183170953Y-71327419D02*
X183170953Y-70660752D01*
X183170953Y-70755990D02*
X183218572Y-70708371D01*
X183218572Y-70708371D02*
X183313810Y-70660752D01*
X183313810Y-70660752D02*
X183456667Y-70660752D01*
X183456667Y-70660752D02*
X183551905Y-70708371D01*
X183551905Y-70708371D02*
X183599524Y-70803609D01*
X183599524Y-70803609D02*
X183599524Y-71327419D01*
X183599524Y-70803609D02*
X183647143Y-70708371D01*
X183647143Y-70708371D02*
X183742381Y-70660752D01*
X183742381Y-70660752D02*
X183885238Y-70660752D01*
X183885238Y-70660752D02*
X183980477Y-70708371D01*
X183980477Y-70708371D02*
X184028096Y-70803609D01*
X184028096Y-70803609D02*
X184028096Y-71327419D01*
X184504286Y-71327419D02*
X184504286Y-70660752D01*
X184504286Y-70755990D02*
X184551905Y-70708371D01*
X184551905Y-70708371D02*
X184647143Y-70660752D01*
X184647143Y-70660752D02*
X184790000Y-70660752D01*
X184790000Y-70660752D02*
X184885238Y-70708371D01*
X184885238Y-70708371D02*
X184932857Y-70803609D01*
X184932857Y-70803609D02*
X184932857Y-71327419D01*
X184932857Y-70803609D02*
X184980476Y-70708371D01*
X184980476Y-70708371D02*
X185075714Y-70660752D01*
X185075714Y-70660752D02*
X185218571Y-70660752D01*
X185218571Y-70660752D02*
X185313810Y-70708371D01*
X185313810Y-70708371D02*
X185361429Y-70803609D01*
X185361429Y-70803609D02*
X185361429Y-71327419D01*
X174690000Y-73415000D02*
X174690000Y-71383580D01*
X186890000Y-73415000D02*
X186890000Y-71383580D01*
X174690000Y-71970000D02*
X186890000Y-71970000D01*
X174690000Y-71970000D02*
X186890000Y-71970000D01*
X174690000Y-71970000D02*
X175816504Y-71383579D01*
X174690000Y-71970000D02*
X175816504Y-72556421D01*
X186890000Y-71970000D02*
X185763496Y-72556421D01*
X186890000Y-71970000D02*
X185763496Y-71383579D01*
X189197419Y-85742618D02*
X189197419Y-86314046D01*
X189197419Y-86028332D02*
X188197419Y-86028332D01*
X188197419Y-86028332D02*
X188340276Y-86123570D01*
X188340276Y-86123570D02*
X188435514Y-86218808D01*
X188435514Y-86218808D02*
X188483133Y-86314046D01*
X188197419Y-84837856D02*
X188197419Y-85314046D01*
X188197419Y-85314046D02*
X188673609Y-85361665D01*
X188673609Y-85361665D02*
X188625990Y-85314046D01*
X188625990Y-85314046D02*
X188578371Y-85218808D01*
X188578371Y-85218808D02*
X188578371Y-84980713D01*
X188578371Y-84980713D02*
X188625990Y-84885475D01*
X188625990Y-84885475D02*
X188673609Y-84837856D01*
X188673609Y-84837856D02*
X188768847Y-84790237D01*
X188768847Y-84790237D02*
X189006942Y-84790237D01*
X189006942Y-84790237D02*
X189102180Y-84837856D01*
X189102180Y-84837856D02*
X189149800Y-84885475D01*
X189149800Y-84885475D02*
X189197419Y-84980713D01*
X189197419Y-84980713D02*
X189197419Y-85218808D01*
X189197419Y-85218808D02*
X189149800Y-85314046D01*
X189149800Y-85314046D02*
X189102180Y-85361665D01*
X189102180Y-84361665D02*
X189149800Y-84314046D01*
X189149800Y-84314046D02*
X189197419Y-84361665D01*
X189197419Y-84361665D02*
X189149800Y-84409284D01*
X189149800Y-84409284D02*
X189102180Y-84361665D01*
X189102180Y-84361665D02*
X189197419Y-84361665D01*
X188197419Y-83409285D02*
X188197419Y-83885475D01*
X188197419Y-83885475D02*
X188673609Y-83933094D01*
X188673609Y-83933094D02*
X188625990Y-83885475D01*
X188625990Y-83885475D02*
X188578371Y-83790237D01*
X188578371Y-83790237D02*
X188578371Y-83552142D01*
X188578371Y-83552142D02*
X188625990Y-83456904D01*
X188625990Y-83456904D02*
X188673609Y-83409285D01*
X188673609Y-83409285D02*
X188768847Y-83361666D01*
X188768847Y-83361666D02*
X189006942Y-83361666D01*
X189006942Y-83361666D02*
X189102180Y-83409285D01*
X189102180Y-83409285D02*
X189149800Y-83456904D01*
X189149800Y-83456904D02*
X189197419Y-83552142D01*
X189197419Y-83552142D02*
X189197419Y-83790237D01*
X189197419Y-83790237D02*
X189149800Y-83885475D01*
X189149800Y-83885475D02*
X189102180Y-83933094D01*
X188197419Y-82504523D02*
X188197419Y-82694999D01*
X188197419Y-82694999D02*
X188245038Y-82790237D01*
X188245038Y-82790237D02*
X188292657Y-82837856D01*
X188292657Y-82837856D02*
X188435514Y-82933094D01*
X188435514Y-82933094D02*
X188625990Y-82980713D01*
X188625990Y-82980713D02*
X189006942Y-82980713D01*
X189006942Y-82980713D02*
X189102180Y-82933094D01*
X189102180Y-82933094D02*
X189149800Y-82885475D01*
X189149800Y-82885475D02*
X189197419Y-82790237D01*
X189197419Y-82790237D02*
X189197419Y-82599761D01*
X189197419Y-82599761D02*
X189149800Y-82504523D01*
X189149800Y-82504523D02*
X189102180Y-82456904D01*
X189102180Y-82456904D02*
X189006942Y-82409285D01*
X189006942Y-82409285D02*
X188768847Y-82409285D01*
X188768847Y-82409285D02*
X188673609Y-82456904D01*
X188673609Y-82456904D02*
X188625990Y-82504523D01*
X188625990Y-82504523D02*
X188578371Y-82599761D01*
X188578371Y-82599761D02*
X188578371Y-82790237D01*
X188578371Y-82790237D02*
X188625990Y-82885475D01*
X188625990Y-82885475D02*
X188673609Y-82933094D01*
X188673609Y-82933094D02*
X188768847Y-82980713D01*
X188197419Y-81790237D02*
X188197419Y-81694999D01*
X188197419Y-81694999D02*
X188245038Y-81599761D01*
X188245038Y-81599761D02*
X188292657Y-81552142D01*
X188292657Y-81552142D02*
X188387895Y-81504523D01*
X188387895Y-81504523D02*
X188578371Y-81456904D01*
X188578371Y-81456904D02*
X188816466Y-81456904D01*
X188816466Y-81456904D02*
X189006942Y-81504523D01*
X189006942Y-81504523D02*
X189102180Y-81552142D01*
X189102180Y-81552142D02*
X189149800Y-81599761D01*
X189149800Y-81599761D02*
X189197419Y-81694999D01*
X189197419Y-81694999D02*
X189197419Y-81790237D01*
X189197419Y-81790237D02*
X189149800Y-81885475D01*
X189149800Y-81885475D02*
X189102180Y-81933094D01*
X189102180Y-81933094D02*
X189006942Y-81980713D01*
X189006942Y-81980713D02*
X188816466Y-82028332D01*
X188816466Y-82028332D02*
X188578371Y-82028332D01*
X188578371Y-82028332D02*
X188387895Y-81980713D01*
X188387895Y-81980713D02*
X188292657Y-81933094D01*
X188292657Y-81933094D02*
X188245038Y-81885475D01*
X188245038Y-81885475D02*
X188197419Y-81790237D01*
X188197419Y-80837856D02*
X188197419Y-80742618D01*
X188197419Y-80742618D02*
X188245038Y-80647380D01*
X188245038Y-80647380D02*
X188292657Y-80599761D01*
X188292657Y-80599761D02*
X188387895Y-80552142D01*
X188387895Y-80552142D02*
X188578371Y-80504523D01*
X188578371Y-80504523D02*
X188816466Y-80504523D01*
X188816466Y-80504523D02*
X189006942Y-80552142D01*
X189006942Y-80552142D02*
X189102180Y-80599761D01*
X189102180Y-80599761D02*
X189149800Y-80647380D01*
X189149800Y-80647380D02*
X189197419Y-80742618D01*
X189197419Y-80742618D02*
X189197419Y-80837856D01*
X189197419Y-80837856D02*
X189149800Y-80933094D01*
X189149800Y-80933094D02*
X189102180Y-80980713D01*
X189102180Y-80980713D02*
X189006942Y-81028332D01*
X189006942Y-81028332D02*
X188816466Y-81075951D01*
X188816466Y-81075951D02*
X188578371Y-81075951D01*
X188578371Y-81075951D02*
X188387895Y-81028332D01*
X188387895Y-81028332D02*
X188292657Y-80980713D01*
X188292657Y-80980713D02*
X188245038Y-80933094D01*
X188245038Y-80933094D02*
X188197419Y-80837856D01*
X189197419Y-79314046D02*
X188530752Y-79314046D01*
X188625990Y-79314046D02*
X188578371Y-79266427D01*
X188578371Y-79266427D02*
X188530752Y-79171189D01*
X188530752Y-79171189D02*
X188530752Y-79028332D01*
X188530752Y-79028332D02*
X188578371Y-78933094D01*
X188578371Y-78933094D02*
X188673609Y-78885475D01*
X188673609Y-78885475D02*
X189197419Y-78885475D01*
X188673609Y-78885475D02*
X188578371Y-78837856D01*
X188578371Y-78837856D02*
X188530752Y-78742618D01*
X188530752Y-78742618D02*
X188530752Y-78599761D01*
X188530752Y-78599761D02*
X188578371Y-78504522D01*
X188578371Y-78504522D02*
X188673609Y-78456903D01*
X188673609Y-78456903D02*
X189197419Y-78456903D01*
X189197419Y-77980713D02*
X188530752Y-77980713D01*
X188625990Y-77980713D02*
X188578371Y-77933094D01*
X188578371Y-77933094D02*
X188530752Y-77837856D01*
X188530752Y-77837856D02*
X188530752Y-77694999D01*
X188530752Y-77694999D02*
X188578371Y-77599761D01*
X188578371Y-77599761D02*
X188673609Y-77552142D01*
X188673609Y-77552142D02*
X189197419Y-77552142D01*
X188673609Y-77552142D02*
X188578371Y-77504523D01*
X188578371Y-77504523D02*
X188530752Y-77409285D01*
X188530752Y-77409285D02*
X188530752Y-77266428D01*
X188530752Y-77266428D02*
X188578371Y-77171189D01*
X188578371Y-77171189D02*
X188673609Y-77123570D01*
X188673609Y-77123570D02*
X189197419Y-77123570D01*
X187390000Y-73915000D02*
X190426420Y-73915000D01*
X187390000Y-89475000D02*
X190426420Y-89475000D01*
X189840000Y-73915000D02*
X189840000Y-89475000D01*
X189840000Y-73915000D02*
X189840000Y-89475000D01*
X189840000Y-73915000D02*
X190426421Y-75041504D01*
X189840000Y-73915000D02*
X189253579Y-75041504D01*
X189840000Y-89475000D02*
X189253579Y-88348496D01*
X189840000Y-89475000D02*
X190426421Y-88348496D01*
D11*
X182520476Y-88182295D02*
X182520476Y-88829914D01*
X182520476Y-88829914D02*
X182558571Y-88906104D01*
X182558571Y-88906104D02*
X182596666Y-88944200D01*
X182596666Y-88944200D02*
X182672857Y-88982295D01*
X182672857Y-88982295D02*
X182825238Y-88982295D01*
X182825238Y-88982295D02*
X182901428Y-88944200D01*
X182901428Y-88944200D02*
X182939523Y-88906104D01*
X182939523Y-88906104D02*
X182977619Y-88829914D01*
X182977619Y-88829914D02*
X182977619Y-88182295D01*
X183777618Y-88982295D02*
X183320475Y-88982295D01*
X183549047Y-88982295D02*
X183549047Y-88182295D01*
X183549047Y-88182295D02*
X183472856Y-88296580D01*
X183472856Y-88296580D02*
X183396666Y-88372771D01*
X183396666Y-88372771D02*
X183320475Y-88410866D01*
X183930476Y-78392295D02*
X183930476Y-77592295D01*
X183930476Y-77973247D02*
X184387619Y-77973247D01*
X184387619Y-78392295D02*
X184387619Y-77592295D01*
X184730475Y-77668485D02*
X184768571Y-77630390D01*
X184768571Y-77630390D02*
X184844761Y-77592295D01*
X184844761Y-77592295D02*
X185035237Y-77592295D01*
X185035237Y-77592295D02*
X185111428Y-77630390D01*
X185111428Y-77630390D02*
X185149523Y-77668485D01*
X185149523Y-77668485D02*
X185187618Y-77744676D01*
X185187618Y-77744676D02*
X185187618Y-77820866D01*
X185187618Y-77820866D02*
X185149523Y-77935152D01*
X185149523Y-77935152D02*
X184692380Y-78392295D01*
X184692380Y-78392295D02*
X185187618Y-78392295D01*
X176480476Y-78192295D02*
X176480476Y-77392295D01*
X176480476Y-77773247D02*
X176937619Y-77773247D01*
X176937619Y-78192295D02*
X176937619Y-77392295D01*
X177737618Y-78192295D02*
X177280475Y-78192295D01*
X177509047Y-78192295D02*
X177509047Y-77392295D01*
X177509047Y-77392295D02*
X177432856Y-77506580D01*
X177432856Y-77506580D02*
X177356666Y-77582771D01*
X177356666Y-77582771D02*
X177280475Y-77620866D01*
X183482295Y-86995832D02*
X183101342Y-87262499D01*
X183482295Y-87452975D02*
X182682295Y-87452975D01*
X182682295Y-87452975D02*
X182682295Y-87148213D01*
X182682295Y-87148213D02*
X182720390Y-87072023D01*
X182720390Y-87072023D02*
X182758485Y-87033928D01*
X182758485Y-87033928D02*
X182834676Y-86995832D01*
X182834676Y-86995832D02*
X182948961Y-86995832D01*
X182948961Y-86995832D02*
X183025152Y-87033928D01*
X183025152Y-87033928D02*
X183063247Y-87072023D01*
X183063247Y-87072023D02*
X183101342Y-87148213D01*
X183101342Y-87148213D02*
X183101342Y-87452975D01*
X182758485Y-86691071D02*
X182720390Y-86652975D01*
X182720390Y-86652975D02*
X182682295Y-86576785D01*
X182682295Y-86576785D02*
X182682295Y-86386309D01*
X182682295Y-86386309D02*
X182720390Y-86310118D01*
X182720390Y-86310118D02*
X182758485Y-86272023D01*
X182758485Y-86272023D02*
X182834676Y-86233928D01*
X182834676Y-86233928D02*
X182910866Y-86233928D01*
X182910866Y-86233928D02*
X183025152Y-86272023D01*
X183025152Y-86272023D02*
X183482295Y-86729166D01*
X183482295Y-86729166D02*
X183482295Y-86233928D01*
X180240476Y-83312295D02*
X180240476Y-83959914D01*
X180240476Y-83959914D02*
X180278571Y-84036104D01*
X180278571Y-84036104D02*
X180316666Y-84074200D01*
X180316666Y-84074200D02*
X180392857Y-84112295D01*
X180392857Y-84112295D02*
X180545238Y-84112295D01*
X180545238Y-84112295D02*
X180621428Y-84074200D01*
X180621428Y-84074200D02*
X180659523Y-84036104D01*
X180659523Y-84036104D02*
X180697619Y-83959914D01*
X180697619Y-83959914D02*
X180697619Y-83312295D01*
X181040475Y-83388485D02*
X181078571Y-83350390D01*
X181078571Y-83350390D02*
X181154761Y-83312295D01*
X181154761Y-83312295D02*
X181345237Y-83312295D01*
X181345237Y-83312295D02*
X181421428Y-83350390D01*
X181421428Y-83350390D02*
X181459523Y-83388485D01*
X181459523Y-83388485D02*
X181497618Y-83464676D01*
X181497618Y-83464676D02*
X181497618Y-83540866D01*
X181497618Y-83540866D02*
X181459523Y-83655152D01*
X181459523Y-83655152D02*
X181002380Y-84112295D01*
X181002380Y-84112295D02*
X181497618Y-84112295D01*
X179994524Y-86122295D02*
X179994524Y-85322295D01*
X179994524Y-85322295D02*
X180185000Y-85322295D01*
X180185000Y-85322295D02*
X180299286Y-85360390D01*
X180299286Y-85360390D02*
X180375476Y-85436580D01*
X180375476Y-85436580D02*
X180413571Y-85512771D01*
X180413571Y-85512771D02*
X180451667Y-85665152D01*
X180451667Y-85665152D02*
X180451667Y-85779438D01*
X180451667Y-85779438D02*
X180413571Y-85931819D01*
X180413571Y-85931819D02*
X180375476Y-86008009D01*
X180375476Y-86008009D02*
X180299286Y-86084200D01*
X180299286Y-86084200D02*
X180185000Y-86122295D01*
X180185000Y-86122295D02*
X179994524Y-86122295D01*
X181213571Y-86122295D02*
X180756428Y-86122295D01*
X180985000Y-86122295D02*
X180985000Y-85322295D01*
X180985000Y-85322295D02*
X180908809Y-85436580D01*
X180908809Y-85436580D02*
X180832619Y-85512771D01*
X180832619Y-85512771D02*
X180756428Y-85550866D01*
X185713333Y-77322295D02*
X185713333Y-77893723D01*
X185713333Y-77893723D02*
X185675238Y-78008009D01*
X185675238Y-78008009D02*
X185599047Y-78084200D01*
X185599047Y-78084200D02*
X185484762Y-78122295D01*
X185484762Y-78122295D02*
X185408571Y-78122295D01*
X186513333Y-78122295D02*
X186056190Y-78122295D01*
X186284762Y-78122295D02*
X186284762Y-77322295D01*
X186284762Y-77322295D02*
X186208571Y-77436580D01*
X186208571Y-77436580D02*
X186132381Y-77512771D01*
X186132381Y-77512771D02*
X186056190Y-77550866D01*
D12*
%TO.C,R2*%
X184027500Y-87117224D02*
X184027500Y-86607776D01*
X185072500Y-87117224D02*
X185072500Y-86607776D01*
D11*
%TO.C,U2*%
X178010000Y-79190000D02*
X178010000Y-79395000D01*
X178010000Y-79190000D02*
X183510000Y-79190000D01*
X178010000Y-84700000D02*
X178010000Y-84495000D01*
X178010000Y-84700000D02*
X183510000Y-84700000D01*
X183510000Y-79190000D02*
X183510000Y-79395000D01*
X183510000Y-84700000D02*
X183510000Y-84495000D01*
D12*
X177460000Y-79445000D02*
X177220000Y-79115000D01*
X177700000Y-79115000D01*
X177460000Y-79445000D01*
G36*
X177460000Y-79445000D02*
G01*
X177220000Y-79115000D01*
X177700000Y-79115000D01*
X177460000Y-79445000D01*
G37*
%TO.C,D1*%
X178725000Y-86450000D02*
X178725000Y-88370000D01*
X178725000Y-88370000D02*
X181585000Y-88370000D01*
X181585000Y-86450000D02*
X178725000Y-86450000D01*
%TO.C,J1*%
X178170000Y-78020000D02*
X178170000Y-76690000D01*
X179500000Y-78020000D02*
X178170000Y-78020000D01*
X180770000Y-75360000D02*
X183370000Y-75360000D01*
X180770000Y-78020000D02*
X180770000Y-75360000D01*
X180770000Y-78020000D02*
X183370000Y-78020000D01*
X183370000Y-78020000D02*
X183370000Y-75360000D01*
%TD*%
%LPC*%
D13*
%TO.C,H2*%
X185000000Y-76000000D03*
%TD*%
%TO.C,H1*%
X176500000Y-76000000D03*
%TD*%
D14*
%TO.C,R2*%
X184550000Y-87775000D03*
X184550000Y-85950000D03*
%TD*%
D15*
%TO.C,U2*%
X177110000Y-80040000D03*
X177110000Y-81310000D03*
X177110000Y-82580000D03*
X177110000Y-83850000D03*
X184410000Y-83850000D03*
X184410000Y-82580000D03*
X184410000Y-81310000D03*
X184410000Y-80040000D03*
%TD*%
D16*
%TO.C,D1*%
X179560000Y-87410000D03*
X181610000Y-87410000D03*
%TD*%
D17*
%TO.C,J1*%
X179500000Y-76690000D03*
D18*
X182040000Y-76690000D03*
%TD*%
%LPD*%
M02*
