%TF.GenerationSoftware,KiCad,Pcbnew,8.0.1*%
%TF.CreationDate,2025-01-22T18:04:17-07:00*%
%TF.ProjectId,AlcoholSensor,416c636f-686f-46c5-9365-6e736f722e6b,rev?*%
%TF.SameCoordinates,Original*%
%TF.FileFunction,Legend,Bot*%
%TF.FilePolarity,Positive*%
%FSLAX46Y46*%
G04 Gerber Fmt 4.6, Leading zero omitted, Abs format (unit mm)*
G04 Created by KiCad (PCBNEW 8.0.1) date 2025-01-22 18:04:17*
%MOMM*%
%LPD*%
G01*
G04 APERTURE LIST*
G04 Aperture macros list*
%AMRoundRect*
0 Rectangle with rounded corners*
0 $1 Rounding radius*
0 $2 $3 $4 $5 $6 $7 $8 $9 X,Y pos of 4 corners*
0 Add a 4 corners polygon primitive as box body*
4,1,4,$2,$3,$4,$5,$6,$7,$8,$9,$2,$3,0*
0 Add four circle primitives for the rounded corners*
1,1,$1+$1,$2,$3*
1,1,$1+$1,$4,$5*
1,1,$1+$1,$6,$7*
1,1,$1+$1,$8,$9*
0 Add four rect primitives between the rounded corners*
20,1,$1+$1,$2,$3,$4,$5,0*
20,1,$1+$1,$4,$5,$6,$7,0*
20,1,$1+$1,$6,$7,$8,$9,0*
20,1,$1+$1,$8,$9,$2,$3,0*%
G04 Aperture macros list end*
%ADD10C,0.150000*%
%ADD11C,0.152400*%
%ADD12C,0.127000*%
%ADD13C,0.200000*%
%ADD14C,0.120000*%
%ADD15R,1.003300X0.508000*%
%ADD16R,0.450000X0.800000*%
%ADD17RoundRect,0.050000X-0.650000X-0.750000X0.650000X-0.750000X0.650000X0.750000X-0.650000X0.750000X0*%
%ADD18C,2.500000*%
%ADD19R,1.700000X1.700000*%
%ADD20O,1.700000X1.700000*%
%ADD21RoundRect,0.237500X-0.237500X0.300000X-0.237500X-0.300000X0.237500X-0.300000X0.237500X0.300000X0*%
%ADD22RoundRect,0.237500X-0.237500X0.250000X-0.237500X-0.250000X0.237500X-0.250000X0.237500X0.250000X0*%
G04 APERTURE END LIST*
D10*
X181384454Y-80394818D02*
X181384454Y-81204341D01*
X181384454Y-81204341D02*
X181336835Y-81299579D01*
X181336835Y-81299579D02*
X181289216Y-81347199D01*
X181289216Y-81347199D02*
X181193978Y-81394818D01*
X181193978Y-81394818D02*
X181003502Y-81394818D01*
X181003502Y-81394818D02*
X180908264Y-81347199D01*
X180908264Y-81347199D02*
X180860645Y-81299579D01*
X180860645Y-81299579D02*
X180813026Y-81204341D01*
X180813026Y-81204341D02*
X180813026Y-80394818D01*
X180432073Y-80394818D02*
X179813026Y-80394818D01*
X179813026Y-80394818D02*
X180146359Y-80775770D01*
X180146359Y-80775770D02*
X180003502Y-80775770D01*
X180003502Y-80775770D02*
X179908264Y-80823389D01*
X179908264Y-80823389D02*
X179860645Y-80871008D01*
X179860645Y-80871008D02*
X179813026Y-80966246D01*
X179813026Y-80966246D02*
X179813026Y-81204341D01*
X179813026Y-81204341D02*
X179860645Y-81299579D01*
X179860645Y-81299579D02*
X179908264Y-81347199D01*
X179908264Y-81347199D02*
X180003502Y-81394818D01*
X180003502Y-81394818D02*
X180289216Y-81394818D01*
X180289216Y-81394818D02*
X180384454Y-81347199D01*
X180384454Y-81347199D02*
X180432073Y-81299579D01*
X176043332Y-78786104D02*
X176081428Y-78824200D01*
X176081428Y-78824200D02*
X176195713Y-78862295D01*
X176195713Y-78862295D02*
X176271904Y-78862295D01*
X176271904Y-78862295D02*
X176386190Y-78824200D01*
X176386190Y-78824200D02*
X176462380Y-78748009D01*
X176462380Y-78748009D02*
X176500475Y-78671819D01*
X176500475Y-78671819D02*
X176538571Y-78519438D01*
X176538571Y-78519438D02*
X176538571Y-78405152D01*
X176538571Y-78405152D02*
X176500475Y-78252771D01*
X176500475Y-78252771D02*
X176462380Y-78176580D01*
X176462380Y-78176580D02*
X176386190Y-78100390D01*
X176386190Y-78100390D02*
X176271904Y-78062295D01*
X176271904Y-78062295D02*
X176195713Y-78062295D01*
X176195713Y-78062295D02*
X176081428Y-78100390D01*
X176081428Y-78100390D02*
X176043332Y-78138485D01*
X175738571Y-78138485D02*
X175700475Y-78100390D01*
X175700475Y-78100390D02*
X175624285Y-78062295D01*
X175624285Y-78062295D02*
X175433809Y-78062295D01*
X175433809Y-78062295D02*
X175357618Y-78100390D01*
X175357618Y-78100390D02*
X175319523Y-78138485D01*
X175319523Y-78138485D02*
X175281428Y-78214676D01*
X175281428Y-78214676D02*
X175281428Y-78290866D01*
X175281428Y-78290866D02*
X175319523Y-78405152D01*
X175319523Y-78405152D02*
X175776666Y-78862295D01*
X175776666Y-78862295D02*
X175281428Y-78862295D01*
X176022295Y-85486667D02*
X175641342Y-85220000D01*
X176022295Y-85029524D02*
X175222295Y-85029524D01*
X175222295Y-85029524D02*
X175222295Y-85334286D01*
X175222295Y-85334286D02*
X175260390Y-85410476D01*
X175260390Y-85410476D02*
X175298485Y-85448571D01*
X175298485Y-85448571D02*
X175374676Y-85486667D01*
X175374676Y-85486667D02*
X175488961Y-85486667D01*
X175488961Y-85486667D02*
X175565152Y-85448571D01*
X175565152Y-85448571D02*
X175603247Y-85410476D01*
X175603247Y-85410476D02*
X175641342Y-85334286D01*
X175641342Y-85334286D02*
X175641342Y-85029524D01*
X176022295Y-86248571D02*
X176022295Y-85791428D01*
X176022295Y-86020000D02*
X175222295Y-86020000D01*
X175222295Y-86020000D02*
X175336580Y-85943809D01*
X175336580Y-85943809D02*
X175412771Y-85867619D01*
X175412771Y-85867619D02*
X175450866Y-85791428D01*
X183682295Y-85886667D02*
X183301342Y-85620000D01*
X183682295Y-85429524D02*
X182882295Y-85429524D01*
X182882295Y-85429524D02*
X182882295Y-85734286D01*
X182882295Y-85734286D02*
X182920390Y-85810476D01*
X182920390Y-85810476D02*
X182958485Y-85848571D01*
X182958485Y-85848571D02*
X183034676Y-85886667D01*
X183034676Y-85886667D02*
X183148961Y-85886667D01*
X183148961Y-85886667D02*
X183225152Y-85848571D01*
X183225152Y-85848571D02*
X183263247Y-85810476D01*
X183263247Y-85810476D02*
X183301342Y-85734286D01*
X183301342Y-85734286D02*
X183301342Y-85429524D01*
X182882295Y-86153333D02*
X182882295Y-86648571D01*
X182882295Y-86648571D02*
X183187057Y-86381905D01*
X183187057Y-86381905D02*
X183187057Y-86496190D01*
X183187057Y-86496190D02*
X183225152Y-86572381D01*
X183225152Y-86572381D02*
X183263247Y-86610476D01*
X183263247Y-86610476D02*
X183339438Y-86648571D01*
X183339438Y-86648571D02*
X183529914Y-86648571D01*
X183529914Y-86648571D02*
X183606104Y-86610476D01*
X183606104Y-86610476D02*
X183644200Y-86572381D01*
X183644200Y-86572381D02*
X183682295Y-86496190D01*
X183682295Y-86496190D02*
X183682295Y-86267619D01*
X183682295Y-86267619D02*
X183644200Y-86191428D01*
X183644200Y-86191428D02*
X183606104Y-86153333D01*
X185643332Y-81056104D02*
X185681428Y-81094200D01*
X185681428Y-81094200D02*
X185795713Y-81132295D01*
X185795713Y-81132295D02*
X185871904Y-81132295D01*
X185871904Y-81132295D02*
X185986190Y-81094200D01*
X185986190Y-81094200D02*
X186062380Y-81018009D01*
X186062380Y-81018009D02*
X186100475Y-80941819D01*
X186100475Y-80941819D02*
X186138571Y-80789438D01*
X186138571Y-80789438D02*
X186138571Y-80675152D01*
X186138571Y-80675152D02*
X186100475Y-80522771D01*
X186100475Y-80522771D02*
X186062380Y-80446580D01*
X186062380Y-80446580D02*
X185986190Y-80370390D01*
X185986190Y-80370390D02*
X185871904Y-80332295D01*
X185871904Y-80332295D02*
X185795713Y-80332295D01*
X185795713Y-80332295D02*
X185681428Y-80370390D01*
X185681428Y-80370390D02*
X185643332Y-80408485D01*
X184881428Y-81132295D02*
X185338571Y-81132295D01*
X185109999Y-81132295D02*
X185109999Y-80332295D01*
X185109999Y-80332295D02*
X185186190Y-80446580D01*
X185186190Y-80446580D02*
X185262380Y-80522771D01*
X185262380Y-80522771D02*
X185338571Y-80560866D01*
D11*
%TO.C,U3*%
X179644650Y-82565599D02*
X181600450Y-82565599D01*
X179644650Y-80576738D02*
X179644650Y-81303260D01*
X181600450Y-79314399D02*
X179644650Y-79314399D01*
D12*
%TO.C,U1*%
X182130000Y-84770000D02*
X179130000Y-84770000D01*
X182130000Y-87250000D02*
X179130000Y-87250000D01*
D13*
X178730000Y-86510000D02*
G75*
G02*
X178530000Y-86510000I-100000J0D01*
G01*
X178530000Y-86510000D02*
G75*
G02*
X178730000Y-86510000I100000J0D01*
G01*
D14*
%TO.C,C2*%
X176270000Y-80928767D02*
X176270000Y-80636233D01*
X177290000Y-80928767D02*
X177290000Y-80636233D01*
%TO.C,R1*%
X176377500Y-86447224D02*
X176377500Y-85937776D01*
X177422500Y-86447224D02*
X177422500Y-85937776D01*
%TO.C,R3*%
X183997500Y-86737224D02*
X183997500Y-86227776D01*
X185042500Y-86737224D02*
X185042500Y-86227776D01*
%TO.C,C1*%
X183570000Y-81068767D02*
X183570000Y-80776233D01*
X184590000Y-81068767D02*
X184590000Y-80776233D01*
%TD*%
%LPC*%
D15*
%TO.C,U3*%
X181975100Y-79989998D03*
X181975100Y-80939999D03*
X181975100Y-81890000D03*
X179270000Y-81890000D03*
X179270000Y-79989998D03*
%TD*%
D16*
%TO.C,U1*%
X179420000Y-86550000D03*
X179420000Y-85470000D03*
X181840000Y-85470000D03*
X181840000Y-86550000D03*
D17*
X180630000Y-86010000D03*
%TD*%
D18*
%TO.C,H2*%
X185000000Y-76000000D03*
%TD*%
%TO.C,H1*%
X176500000Y-76000000D03*
%TD*%
D19*
%TO.C,J1*%
X179500000Y-76690000D03*
D20*
X182040000Y-76690000D03*
%TD*%
D21*
%TO.C,C2*%
X176780000Y-79920000D03*
X176780000Y-81645000D03*
%TD*%
D22*
%TO.C,R1*%
X176900000Y-85280000D03*
X176900000Y-87105000D03*
%TD*%
%TO.C,R3*%
X184520000Y-85570000D03*
X184520000Y-87395000D03*
%TD*%
D21*
%TO.C,C1*%
X184080000Y-80060000D03*
X184080000Y-81785000D03*
%TD*%
%LPD*%
M02*
