%TF.GenerationSoftware,KiCad,Pcbnew,8.0.1*%
%TF.CreationDate,2025-01-22T18:04:17-07:00*%
%TF.ProjectId,AlcoholSensor,416c636f-686f-46c5-9365-6e736f722e6b,rev?*%
%TF.SameCoordinates,Original*%
%TF.FileFunction,Copper,L2,Bot*%
%TF.FilePolarity,Positive*%
%FSLAX46Y46*%
G04 Gerber Fmt 4.6, Leading zero omitted, Abs format (unit mm)*
G04 Created by KiCad (PCBNEW 8.0.1) date 2025-01-22 18:04:17*
%MOMM*%
%LPD*%
G01*
G04 APERTURE LIST*
G04 Aperture macros list*
%AMRoundRect*
0 Rectangle with rounded corners*
0 $1 Rounding radius*
0 $2 $3 $4 $5 $6 $7 $8 $9 X,Y pos of 4 corners*
0 Add a 4 corners polygon primitive as box body*
4,1,4,$2,$3,$4,$5,$6,$7,$8,$9,$2,$3,0*
0 Add four circle primitives for the rounded corners*
1,1,$1+$1,$2,$3*
1,1,$1+$1,$4,$5*
1,1,$1+$1,$6,$7*
1,1,$1+$1,$8,$9*
0 Add four rect primitives between the rounded corners*
20,1,$1+$1,$2,$3,$4,$5,0*
20,1,$1+$1,$4,$5,$6,$7,0*
20,1,$1+$1,$6,$7,$8,$9,0*
20,1,$1+$1,$8,$9,$2,$3,0*%
G04 Aperture macros list end*
%TA.AperFunction,SMDPad,CuDef*%
%ADD10R,1.003300X0.508000*%
%TD*%
%TA.AperFunction,SMDPad,CuDef*%
%ADD11R,0.450000X0.800000*%
%TD*%
%TA.AperFunction,SMDPad,CuDef*%
%ADD12R,1.300000X1.500000*%
%TD*%
%TA.AperFunction,ComponentPad*%
%ADD13C,2.500000*%
%TD*%
%TA.AperFunction,ComponentPad*%
%ADD14R,1.700000X1.700000*%
%TD*%
%TA.AperFunction,ComponentPad*%
%ADD15O,1.700000X1.700000*%
%TD*%
%TA.AperFunction,SMDPad,CuDef*%
%ADD16RoundRect,0.237500X-0.237500X0.300000X-0.237500X-0.300000X0.237500X-0.300000X0.237500X0.300000X0*%
%TD*%
%TA.AperFunction,SMDPad,CuDef*%
%ADD17RoundRect,0.237500X-0.237500X0.250000X-0.237500X-0.250000X0.237500X-0.250000X0.237500X0.250000X0*%
%TD*%
%TA.AperFunction,ViaPad*%
%ADD18C,0.600000*%
%TD*%
%TA.AperFunction,Conductor*%
%ADD19C,0.152400*%
%TD*%
G04 APERTURE END LIST*
D10*
%TO.P,U3,1,VIN*%
%TO.N,VCC*%
X181975100Y-79989998D03*
%TO.P,U3,2,GND*%
%TO.N,GND*%
X181975100Y-80939999D03*
%TO.P,U3,3,EN*%
%TO.N,VCC*%
X181975100Y-81890000D03*
%TO.P,U3,4,NC*%
%TO.N,unconnected-(U3-NC-Pad4)*%
X179270000Y-81890000D03*
%TO.P,U3,5,VOUT*%
%TO.N,VDD_1.8V*%
X179270000Y-79989998D03*
%TD*%
D11*
%TO.P,U1,1,SENSOR+*%
%TO.N,Alcohol_OUT*%
X179420000Y-86550000D03*
%TO.P,U1,2,HEATER+*%
%TO.N,Net-(U1-HEATER+)*%
X179420000Y-85470000D03*
%TO.P,U1,3,SENSOR-*%
%TO.N,GND*%
X181840000Y-85470000D03*
%TO.P,U1,4,HEATER-*%
X181840000Y-86550000D03*
D12*
%TO.P,U1,5,EP*%
%TO.N,unconnected-(U1-EP-Pad5)*%
X180630000Y-86010000D03*
%TD*%
D13*
%TO.P,H2,1,1*%
%TO.N,GND*%
X185000000Y-76000000D03*
%TD*%
%TO.P,H1,1,1*%
%TO.N,VCC*%
X176500000Y-76000000D03*
%TD*%
D14*
%TO.P,J1,1,Pin_1*%
%TO.N,VCC*%
X179500000Y-76690000D03*
D15*
%TO.P,J1,2,Pin_2*%
%TO.N,GND*%
X182040000Y-76690000D03*
%TD*%
D16*
%TO.P,C2,1*%
%TO.N,VDD_1.8V*%
X176780000Y-79920000D03*
%TO.P,C2,2*%
%TO.N,GND*%
X176780000Y-81645000D03*
%TD*%
D17*
%TO.P,R1,1*%
%TO.N,Net-(U1-HEATER+)*%
X176900000Y-85280000D03*
%TO.P,R1,2*%
%TO.N,VDD_1.8V*%
X176900000Y-87105000D03*
%TD*%
%TO.P,R3,1*%
%TO.N,VDD_1.8V*%
X184520000Y-85570000D03*
%TO.P,R3,2*%
%TO.N,Alcohol_OUT*%
X184520000Y-87395000D03*
%TD*%
D16*
%TO.P,C1,1*%
%TO.N,VCC*%
X184080000Y-80060000D03*
%TO.P,C1,2*%
%TO.N,GND*%
X184080000Y-81785000D03*
%TD*%
D18*
%TO.N,GND*%
X180560000Y-79100000D03*
X182750000Y-83560000D03*
X179386054Y-83325447D03*
X183100000Y-85610000D03*
%TO.N,Alcohol_OUT*%
X177960000Y-88330000D03*
%TO.N,VDD_1.8V*%
X185580000Y-78620000D03*
%TD*%
D19*
%TO.N,Net-(U1-HEATER+)*%
X179225000Y-85380000D02*
X179245000Y-85400000D01*
X177000000Y-85380000D02*
X179225000Y-85380000D01*
X176900000Y-85280000D02*
X177000000Y-85380000D01*
%TO.N,GND*%
X181840000Y-84470000D02*
X181840000Y-85445000D01*
X182750000Y-83560000D02*
X181840000Y-84470000D01*
X181840000Y-85445000D02*
X181905000Y-85510000D01*
X182230000Y-86510000D02*
X181905000Y-86510000D01*
X183100000Y-85640000D02*
X182230000Y-86510000D01*
X183100000Y-85610000D02*
X183100000Y-85640000D01*
X181429999Y-80939999D02*
X180560000Y-80070000D01*
X182869999Y-80939999D02*
X181975100Y-80939999D01*
X183715000Y-81785000D02*
X182869999Y-80939999D01*
X184080000Y-81785000D02*
X183715000Y-81785000D01*
X180560000Y-80070000D02*
X180560000Y-79100000D01*
X181975100Y-80939999D02*
X181429999Y-80939999D01*
X177705607Y-81645000D02*
X179386054Y-83325447D01*
X176780000Y-81645000D02*
X177705607Y-81645000D01*
X184260000Y-76690000D02*
X184950000Y-76000000D01*
X182040000Y-76690000D02*
X184260000Y-76690000D01*
%TO.N,Alcohol_OUT*%
X178190000Y-88560000D02*
X184050000Y-88560000D01*
X177960000Y-88330000D02*
X177960000Y-87110000D01*
X184050000Y-88560000D02*
X184520000Y-88090000D01*
X177960000Y-87110000D02*
X178560000Y-86510000D01*
X177960000Y-88330000D02*
X178190000Y-88560000D01*
X184520000Y-88090000D02*
X184520000Y-87395000D01*
X178560000Y-86510000D02*
X179355000Y-86510000D01*
%TO.N,VDD_1.8V*%
X179270000Y-79989998D02*
X176849998Y-79989998D01*
X176849998Y-79989998D02*
X176780000Y-79920000D01*
%TO.N,VCC*%
X182490000Y-81890000D02*
X183640000Y-83040000D01*
X181975100Y-81890000D02*
X182490000Y-81890000D01*
X176950000Y-76420000D02*
X176530000Y-76000000D01*
X183640000Y-83040000D02*
X184830000Y-83040000D01*
X181975100Y-79989998D02*
X181975100Y-79045100D01*
X179230000Y-76420000D02*
X176950000Y-76420000D01*
X184830000Y-83040000D02*
X185360000Y-82510000D01*
X179500000Y-77730000D02*
X179500000Y-76690000D01*
X185000000Y-80060000D02*
X184080000Y-80060000D01*
X179500000Y-76690000D02*
X179230000Y-76420000D01*
X181300000Y-78370000D02*
X180140000Y-78370000D01*
X185360000Y-82510000D02*
X185360000Y-80420000D01*
X185360000Y-80420000D02*
X185000000Y-80060000D01*
X181975100Y-79989998D02*
X184009998Y-79989998D01*
X180140000Y-78370000D02*
X179500000Y-77730000D01*
X184009998Y-79989998D02*
X184080000Y-80060000D01*
X181975100Y-79045100D02*
X181300000Y-78370000D01*
%TD*%
%TA.AperFunction,Conductor*%
%TO.N,VDD_1.8V*%
G36*
X186362638Y-74433093D02*
G01*
X186388358Y-74477642D01*
X186389500Y-74490700D01*
X186389500Y-75262797D01*
X186371907Y-75311135D01*
X186327358Y-75336855D01*
X186276700Y-75327922D01*
X186251345Y-75303927D01*
X186130993Y-75119714D01*
X185970679Y-74945566D01*
X185970675Y-74945562D01*
X185783881Y-74800175D01*
X185575713Y-74687520D01*
X185575700Y-74687514D01*
X185351842Y-74610664D01*
X185351836Y-74610662D01*
X185351829Y-74610660D01*
X185351822Y-74610658D01*
X185351819Y-74610658D01*
X185118357Y-74571700D01*
X185118352Y-74571700D01*
X184881648Y-74571700D01*
X184881642Y-74571700D01*
X184648180Y-74610658D01*
X184648174Y-74610659D01*
X184648171Y-74610660D01*
X184648166Y-74610661D01*
X184648157Y-74610664D01*
X184424299Y-74687514D01*
X184424286Y-74687520D01*
X184216118Y-74800175D01*
X184029324Y-74945562D01*
X184029320Y-74945566D01*
X183869006Y-75119714D01*
X183739543Y-75317872D01*
X183739542Y-75317876D01*
X183644458Y-75534644D01*
X183586352Y-75764104D01*
X183586351Y-75764107D01*
X183566805Y-75999998D01*
X183566805Y-76000001D01*
X183586351Y-76235892D01*
X183586351Y-76235894D01*
X183586352Y-76235896D01*
X183613180Y-76341841D01*
X183607992Y-76393017D01*
X183571121Y-76428886D01*
X183540282Y-76435500D01*
X183093142Y-76435500D01*
X183044804Y-76417907D01*
X183021180Y-76382130D01*
X182994623Y-76294582D01*
X182899138Y-76115943D01*
X182860059Y-76068325D01*
X182770636Y-75959363D01*
X182614058Y-75830863D01*
X182614059Y-75830863D01*
X182614057Y-75830862D01*
X182614054Y-75830860D01*
X182614052Y-75830859D01*
X182435423Y-75735379D01*
X182435411Y-75735374D01*
X182241579Y-75676577D01*
X182241580Y-75676577D01*
X182040000Y-75656724D01*
X181838419Y-75676577D01*
X181644588Y-75735374D01*
X181644576Y-75735379D01*
X181465947Y-75830859D01*
X181465941Y-75830863D01*
X181309363Y-75959363D01*
X181180863Y-76115941D01*
X181180859Y-76115947D01*
X181085379Y-76294576D01*
X181085374Y-76294588D01*
X181026577Y-76488419D01*
X181006724Y-76690000D01*
X181026577Y-76891580D01*
X181085374Y-77085411D01*
X181085379Y-77085423D01*
X181180859Y-77264052D01*
X181180863Y-77264058D01*
X181309363Y-77420636D01*
X181418325Y-77510059D01*
X181465943Y-77549138D01*
X181481701Y-77557561D01*
X181579004Y-77609571D01*
X181644582Y-77644623D01*
X181644586Y-77644624D01*
X181644588Y-77644625D01*
X181688925Y-77658074D01*
X181838418Y-77703422D01*
X182040000Y-77723276D01*
X182241582Y-77703422D01*
X182435418Y-77644623D01*
X182614057Y-77549138D01*
X182770636Y-77420636D01*
X182899138Y-77264057D01*
X182994623Y-77085418D01*
X183021180Y-76997869D01*
X183052048Y-76956721D01*
X183093142Y-76944500D01*
X183895134Y-76944500D01*
X183943472Y-76962093D01*
X183950454Y-76968761D01*
X184029320Y-77054433D01*
X184029325Y-77054438D01*
X184216118Y-77199824D01*
X184424286Y-77312479D01*
X184424292Y-77312482D01*
X184424293Y-77312482D01*
X184424299Y-77312485D01*
X184593293Y-77370500D01*
X184648171Y-77389340D01*
X184881648Y-77428300D01*
X184881651Y-77428300D01*
X185118349Y-77428300D01*
X185118352Y-77428300D01*
X185351829Y-77389340D01*
X185503902Y-77337132D01*
X185575700Y-77312485D01*
X185575702Y-77312484D01*
X185575708Y-77312482D01*
X185783883Y-77199823D01*
X185970677Y-77054436D01*
X186130992Y-76880287D01*
X186251345Y-76696071D01*
X186292512Y-76665228D01*
X186343873Y-76668061D01*
X186381397Y-76703246D01*
X186389500Y-76737202D01*
X186389500Y-88899300D01*
X186371907Y-88947638D01*
X186327358Y-88973358D01*
X186314300Y-88974500D01*
X178220621Y-88974500D01*
X178172283Y-88956907D01*
X178146563Y-88912358D01*
X178155496Y-88861700D01*
X178191844Y-88829824D01*
X178215021Y-88820224D01*
X178243798Y-88814500D01*
X184100621Y-88814500D01*
X184100623Y-88814500D01*
X184194163Y-88775755D01*
X184664161Y-88305755D01*
X184664163Y-88305755D01*
X184735755Y-88234163D01*
X184774500Y-88140623D01*
X184774500Y-88127517D01*
X184792093Y-88079179D01*
X184836642Y-88053459D01*
X184837938Y-88053243D01*
X184887589Y-88045380D01*
X184945171Y-88016040D01*
X185004948Y-87985582D01*
X185098082Y-87892448D01*
X185157879Y-87775091D01*
X185173300Y-87677725D01*
X185173299Y-87112276D01*
X185167958Y-87078548D01*
X185157880Y-87014910D01*
X185098081Y-86897550D01*
X185004949Y-86804418D01*
X184887591Y-86744621D01*
X184887593Y-86744621D01*
X184838908Y-86736910D01*
X184790225Y-86729200D01*
X184790223Y-86729200D01*
X184249781Y-86729200D01*
X184249769Y-86729201D01*
X184152410Y-86744619D01*
X184035050Y-86804418D01*
X183941918Y-86897550D01*
X183882121Y-87014907D01*
X183866700Y-87112273D01*
X183866700Y-87677718D01*
X183866701Y-87677730D01*
X183882119Y-87775089D01*
X183941918Y-87892449D01*
X184035050Y-87985581D01*
X184094829Y-88016040D01*
X184129911Y-88053661D01*
X184132603Y-88105030D01*
X184113864Y-88136218D01*
X183966607Y-88283474D01*
X183919988Y-88305214D01*
X183913434Y-88305500D01*
X178577973Y-88305500D01*
X178529635Y-88287907D01*
X178503915Y-88243358D01*
X178503416Y-88240116D01*
X178502632Y-88234162D01*
X178496330Y-88186291D01*
X178440861Y-88052375D01*
X178440860Y-88052374D01*
X178440860Y-88052373D01*
X178352621Y-87937378D01*
X178243921Y-87853970D01*
X178216283Y-87810586D01*
X178214500Y-87794310D01*
X178214500Y-87246565D01*
X178232093Y-87198227D01*
X178236526Y-87193391D01*
X178643391Y-86786526D01*
X178690011Y-86764786D01*
X178696565Y-86764500D01*
X178941501Y-86764500D01*
X178989839Y-86782093D01*
X179015559Y-86826642D01*
X179016701Y-86839700D01*
X179016701Y-86967564D01*
X179027043Y-87019565D01*
X179027045Y-87019571D01*
X179066451Y-87078545D01*
X179066452Y-87078545D01*
X179066453Y-87078547D01*
X179125431Y-87117955D01*
X179177439Y-87128300D01*
X179662560Y-87128299D01*
X179688564Y-87123127D01*
X179714565Y-87117956D01*
X179714566Y-87117955D01*
X179714569Y-87117955D01*
X179714569Y-87117954D01*
X179714571Y-87117954D01*
X179744058Y-87098251D01*
X179773547Y-87078547D01*
X179812955Y-87019569D01*
X179819523Y-86986545D01*
X179846207Y-86942570D01*
X179894917Y-86926034D01*
X179907949Y-86927461D01*
X179910430Y-86927954D01*
X179910431Y-86927955D01*
X179962439Y-86938300D01*
X181297560Y-86938299D01*
X181349569Y-86927955D01*
X181349569Y-86927954D01*
X181352051Y-86927461D01*
X181402892Y-86935287D01*
X181436808Y-86973962D01*
X181440476Y-86986546D01*
X181447043Y-87019565D01*
X181447045Y-87019571D01*
X181486451Y-87078545D01*
X181486452Y-87078545D01*
X181486453Y-87078547D01*
X181545431Y-87117955D01*
X181597439Y-87128300D01*
X182082560Y-87128299D01*
X182108564Y-87123127D01*
X182134565Y-87117956D01*
X182134566Y-87117955D01*
X182134569Y-87117955D01*
X182134569Y-87117954D01*
X182134571Y-87117954D01*
X182164058Y-87098251D01*
X182193547Y-87078547D01*
X182232955Y-87019569D01*
X182243300Y-86967561D01*
X182243300Y-86830206D01*
X182260893Y-86781868D01*
X182289720Y-86760731D01*
X182374163Y-86725755D01*
X182927680Y-86172236D01*
X182974298Y-86150498D01*
X182990659Y-86150854D01*
X183100000Y-86165250D01*
X183243709Y-86146330D01*
X183377625Y-86090861D01*
X183467290Y-86022057D01*
X183516346Y-86006591D01*
X183563871Y-86026275D01*
X183584450Y-86058065D01*
X183609548Y-86133805D01*
X183700052Y-86280534D01*
X183700055Y-86280538D01*
X183821961Y-86402444D01*
X183821965Y-86402447D01*
X183968695Y-86492951D01*
X183968694Y-86492951D01*
X184132347Y-86547179D01*
X184132349Y-86547180D01*
X184233358Y-86557499D01*
X184269999Y-86557498D01*
X184270000Y-86557498D01*
X184270000Y-85820000D01*
X184770000Y-85820000D01*
X184770000Y-86557499D01*
X184806641Y-86557499D01*
X184907655Y-86547179D01*
X185071305Y-86492951D01*
X185218034Y-86402447D01*
X185218038Y-86402444D01*
X185339944Y-86280538D01*
X185339947Y-86280534D01*
X185430451Y-86133805D01*
X185484679Y-85970152D01*
X185484680Y-85970150D01*
X185495000Y-85869140D01*
X185495000Y-85820000D01*
X184770000Y-85820000D01*
X184270000Y-85820000D01*
X184270000Y-84582500D01*
X184770000Y-84582500D01*
X184770000Y-85320000D01*
X185494999Y-85320000D01*
X185494999Y-85270858D01*
X185484679Y-85169844D01*
X185430451Y-85006194D01*
X185339947Y-84859465D01*
X185339944Y-84859461D01*
X185218038Y-84737555D01*
X185218034Y-84737552D01*
X185071304Y-84647048D01*
X185071305Y-84647048D01*
X184907652Y-84592820D01*
X184907650Y-84592819D01*
X184806641Y-84582500D01*
X184770000Y-84582500D01*
X184270000Y-84582500D01*
X184269999Y-84582499D01*
X184233359Y-84582500D01*
X184132344Y-84592820D01*
X183968694Y-84647048D01*
X183821965Y-84737552D01*
X183821961Y-84737555D01*
X183700055Y-84859461D01*
X183700052Y-84859465D01*
X183609548Y-85006194D01*
X183563316Y-85145717D01*
X183531411Y-85186067D01*
X183481034Y-85196469D01*
X183446154Y-85181723D01*
X183377626Y-85129139D01*
X183243711Y-85073671D01*
X183243709Y-85073670D01*
X183100000Y-85054750D01*
X182956291Y-85073670D01*
X182956288Y-85073670D01*
X182956288Y-85073671D01*
X182822373Y-85129139D01*
X182707378Y-85217378D01*
X182619139Y-85332373D01*
X182563671Y-85466288D01*
X182563670Y-85466291D01*
X182544750Y-85610000D01*
X182563671Y-85753716D01*
X182564946Y-85758473D01*
X182563130Y-85758959D01*
X182565044Y-85803032D01*
X182546504Y-85833576D01*
X182353514Y-86026566D01*
X182306894Y-86048306D01*
X182257207Y-86034992D01*
X182227702Y-85992855D01*
X182230866Y-85944610D01*
X182232951Y-85939573D01*
X182232955Y-85939569D01*
X182243300Y-85887561D01*
X182243299Y-85052440D01*
X182239522Y-85033451D01*
X182232956Y-85000434D01*
X182232954Y-85000428D01*
X182193548Y-84941454D01*
X182193544Y-84941451D01*
X182134569Y-84902045D01*
X182134567Y-84902044D01*
X182128411Y-84897931D01*
X182130366Y-84895004D01*
X182102995Y-84869920D01*
X182094500Y-84835201D01*
X182094500Y-84606564D01*
X182112093Y-84558226D01*
X182116515Y-84553401D01*
X182551168Y-84118747D01*
X182597788Y-84097008D01*
X182614151Y-84097364D01*
X182750000Y-84115250D01*
X182893709Y-84096330D01*
X183027625Y-84040861D01*
X183142621Y-83952621D01*
X183230861Y-83837625D01*
X183286330Y-83703709D01*
X183305250Y-83560000D01*
X183286330Y-83416291D01*
X183230861Y-83282375D01*
X183230860Y-83282374D01*
X183230860Y-83282373D01*
X183142621Y-83167378D01*
X183027626Y-83079139D01*
X182893711Y-83023671D01*
X182893709Y-83023670D01*
X182750000Y-83004750D01*
X182606291Y-83023670D01*
X182606288Y-83023670D01*
X182606288Y-83023671D01*
X182472373Y-83079139D01*
X182357378Y-83167378D01*
X182269139Y-83282373D01*
X182251298Y-83325447D01*
X182213670Y-83416291D01*
X182206710Y-83469156D01*
X182194750Y-83560000D01*
X182212634Y-83695840D01*
X182201500Y-83746061D01*
X182191251Y-83758830D01*
X181624245Y-84325835D01*
X181585500Y-84419376D01*
X181585500Y-84835201D01*
X181567907Y-84883539D01*
X181550500Y-84896302D01*
X181551589Y-84897931D01*
X181545432Y-84902044D01*
X181545431Y-84902045D01*
X181486456Y-84941451D01*
X181486453Y-84941453D01*
X181447045Y-85000431D01*
X181447044Y-85000432D01*
X181440476Y-85033455D01*
X181413790Y-85077431D01*
X181365080Y-85093965D01*
X181352051Y-85092538D01*
X181297562Y-85081700D01*
X179962441Y-85081700D01*
X179907946Y-85092539D01*
X179857105Y-85084712D01*
X179823190Y-85046036D01*
X179819522Y-85033451D01*
X179812955Y-85000430D01*
X179812954Y-85000428D01*
X179773548Y-84941454D01*
X179773544Y-84941451D01*
X179714569Y-84902045D01*
X179714567Y-84902044D01*
X179662561Y-84891700D01*
X179177440Y-84891700D01*
X179177435Y-84891701D01*
X179125434Y-84902043D01*
X179125428Y-84902045D01*
X179066454Y-84941451D01*
X179027045Y-85000431D01*
X179027044Y-85000432D01*
X179016699Y-85052439D01*
X179016338Y-85056114D01*
X179014644Y-85055947D01*
X178999107Y-85098638D01*
X178954558Y-85124358D01*
X178941500Y-85125500D01*
X177628499Y-85125500D01*
X177580161Y-85107907D01*
X177554441Y-85063358D01*
X177553299Y-85050300D01*
X177553299Y-84997281D01*
X177553298Y-84997273D01*
X177553298Y-84997269D01*
X177537880Y-84899910D01*
X177478081Y-84782550D01*
X177384949Y-84689418D01*
X177267591Y-84629621D01*
X177267593Y-84629621D01*
X177218908Y-84621910D01*
X177170225Y-84614200D01*
X177170223Y-84614200D01*
X176629781Y-84614200D01*
X176629769Y-84614201D01*
X176532410Y-84629619D01*
X176415050Y-84689418D01*
X176321918Y-84782550D01*
X176262121Y-84899907D01*
X176246700Y-84997273D01*
X176246700Y-85562718D01*
X176246701Y-85562730D01*
X176262119Y-85660089D01*
X176321918Y-85777449D01*
X176415050Y-85870581D01*
X176415052Y-85870582D01*
X176532407Y-85930378D01*
X176532409Y-85930379D01*
X176629775Y-85945800D01*
X177170224Y-85945799D01*
X177177732Y-85944610D01*
X177267589Y-85930380D01*
X177267593Y-85930378D01*
X177384948Y-85870582D01*
X177478082Y-85777448D01*
X177529997Y-85675559D01*
X177567618Y-85640478D01*
X177597001Y-85634500D01*
X178941501Y-85634500D01*
X178989839Y-85652093D01*
X179015559Y-85696642D01*
X179016701Y-85709700D01*
X179016701Y-85887564D01*
X179027043Y-85939565D01*
X179027045Y-85939571D01*
X179046189Y-85968221D01*
X179058416Y-86018187D01*
X179046190Y-86051779D01*
X179027045Y-86080431D01*
X179027044Y-86080432D01*
X179016700Y-86132438D01*
X179016700Y-86180300D01*
X178999107Y-86228638D01*
X178954558Y-86254358D01*
X178941500Y-86255500D01*
X178509377Y-86255500D01*
X178415837Y-86294244D01*
X178380041Y-86330040D01*
X178344245Y-86365837D01*
X178344244Y-86365838D01*
X178217131Y-86492951D01*
X177985871Y-86724210D01*
X177939251Y-86745949D01*
X177889564Y-86732635D01*
X177861314Y-86694689D01*
X177810451Y-86541194D01*
X177719947Y-86394465D01*
X177719944Y-86394461D01*
X177598038Y-86272555D01*
X177598034Y-86272552D01*
X177451304Y-86182048D01*
X177451305Y-86182048D01*
X177287652Y-86127820D01*
X177287650Y-86127819D01*
X177186641Y-86117500D01*
X177150000Y-86117500D01*
X177150000Y-88092499D01*
X177186641Y-88092499D01*
X177287655Y-88082179D01*
X177339259Y-88065080D01*
X177390677Y-88066576D01*
X177429104Y-88100773D01*
X177436559Y-88151669D01*
X177432389Y-88165240D01*
X177423671Y-88186287D01*
X177423671Y-88186288D01*
X177423670Y-88186291D01*
X177404750Y-88330000D01*
X177423670Y-88473709D01*
X177423671Y-88473711D01*
X177479139Y-88607626D01*
X177567378Y-88722621D01*
X177682373Y-88810860D01*
X177682374Y-88810860D01*
X177682375Y-88810861D01*
X177704980Y-88820224D01*
X177728156Y-88829824D01*
X177766082Y-88864576D01*
X177772797Y-88915576D01*
X177745158Y-88958960D01*
X177699379Y-88974500D01*
X175265700Y-88974500D01*
X175217362Y-88956907D01*
X175191642Y-88912358D01*
X175190500Y-88899300D01*
X175190500Y-87355000D01*
X175925001Y-87355000D01*
X175925001Y-87404141D01*
X175935320Y-87505155D01*
X175989548Y-87668805D01*
X176080052Y-87815534D01*
X176080055Y-87815538D01*
X176201961Y-87937444D01*
X176201965Y-87937447D01*
X176348695Y-88027951D01*
X176348694Y-88027951D01*
X176512347Y-88082179D01*
X176512349Y-88082180D01*
X176613358Y-88092499D01*
X176649999Y-88092498D01*
X176650000Y-88092498D01*
X176650000Y-87355000D01*
X175925001Y-87355000D01*
X175190500Y-87355000D01*
X175190500Y-86855000D01*
X175925000Y-86855000D01*
X176650000Y-86855000D01*
X176650000Y-86117500D01*
X176649999Y-86117499D01*
X176613359Y-86117500D01*
X176512344Y-86127820D01*
X176348694Y-86182048D01*
X176201965Y-86272552D01*
X176201961Y-86272555D01*
X176080055Y-86394461D01*
X176080052Y-86394465D01*
X175989548Y-86541194D01*
X175935320Y-86704847D01*
X175935319Y-86704849D01*
X175925000Y-86805859D01*
X175925000Y-86855000D01*
X175190500Y-86855000D01*
X175190500Y-80170000D01*
X175805001Y-80170000D01*
X175805001Y-80269141D01*
X175815320Y-80370155D01*
X175869548Y-80533805D01*
X175960052Y-80680534D01*
X175960055Y-80680538D01*
X176081961Y-80802444D01*
X176081965Y-80802447D01*
X176228693Y-80892950D01*
X176246528Y-80898860D01*
X176286879Y-80930764D01*
X176297282Y-80981141D01*
X176276051Y-81023418D01*
X176201917Y-81097552D01*
X176142121Y-81214907D01*
X176126700Y-81312273D01*
X176126700Y-81977718D01*
X176126701Y-81977730D01*
X176142119Y-82075089D01*
X176201918Y-82192449D01*
X176295050Y-82285581D01*
X176295052Y-82285582D01*
X176412407Y-82345378D01*
X176412409Y-82345379D01*
X176509775Y-82360800D01*
X177050224Y-82360799D01*
X177056841Y-82359750D01*
X177147589Y-82345380D01*
X177187859Y-82324861D01*
X177264948Y-82285582D01*
X177358082Y-82192448D01*
X177417879Y-82075091D01*
X177433300Y-81977725D01*
X177433300Y-81974700D01*
X177450893Y-81926362D01*
X177495442Y-81900642D01*
X177508500Y-81899500D01*
X177569041Y-81899500D01*
X177617379Y-81917093D01*
X177622215Y-81921526D01*
X178827305Y-83126616D01*
X178849045Y-83173236D01*
X178848688Y-83189605D01*
X178834878Y-83294499D01*
X178830804Y-83325447D01*
X178849724Y-83469156D01*
X178849725Y-83469158D01*
X178905193Y-83603073D01*
X178993432Y-83718068D01*
X179108427Y-83806307D01*
X179108428Y-83806307D01*
X179108429Y-83806308D01*
X179242345Y-83861777D01*
X179386054Y-83880697D01*
X179529763Y-83861777D01*
X179663679Y-83806308D01*
X179778675Y-83718068D01*
X179866915Y-83603072D01*
X179922384Y-83469156D01*
X179941304Y-83325447D01*
X179922384Y-83181738D01*
X179866915Y-83047822D01*
X179866914Y-83047821D01*
X179866914Y-83047820D01*
X179778675Y-82932825D01*
X179663680Y-82844586D01*
X179529765Y-82789118D01*
X179529763Y-82789117D01*
X179386054Y-82770197D01*
X179386053Y-82770197D01*
X179250212Y-82788081D01*
X179199992Y-82776947D01*
X179187223Y-82766698D01*
X178871198Y-82450673D01*
X178849458Y-82404053D01*
X178862772Y-82354366D01*
X178904909Y-82324861D01*
X178924365Y-82322299D01*
X179789210Y-82322299D01*
X179815214Y-82317127D01*
X179841215Y-82311956D01*
X179841216Y-82311955D01*
X179841219Y-82311955D01*
X179841219Y-82311954D01*
X179841221Y-82311954D01*
X179880690Y-82285581D01*
X179900197Y-82272547D01*
X179939605Y-82213569D01*
X179949950Y-82161561D01*
X179949949Y-81618440D01*
X179939605Y-81566431D01*
X179939604Y-81566428D01*
X179900198Y-81507454D01*
X179900197Y-81507453D01*
X179841219Y-81468045D01*
X179841217Y-81468044D01*
X179789211Y-81457700D01*
X178750790Y-81457700D01*
X178750785Y-81457701D01*
X178698784Y-81468043D01*
X178698778Y-81468045D01*
X178639804Y-81507451D01*
X178600395Y-81566431D01*
X178600394Y-81566432D01*
X178590050Y-81618438D01*
X178590050Y-81987977D01*
X178572457Y-82036315D01*
X178527908Y-82062035D01*
X178477250Y-82053102D01*
X178461676Y-82041151D01*
X177849771Y-81429245D01*
X177756230Y-81390500D01*
X177508499Y-81390500D01*
X177460161Y-81372907D01*
X177434441Y-81328358D01*
X177433299Y-81315300D01*
X177433299Y-81312281D01*
X177433298Y-81312273D01*
X177433298Y-81312269D01*
X177417880Y-81214910D01*
X177358081Y-81097550D01*
X177283949Y-81023418D01*
X177262209Y-80976798D01*
X177275523Y-80927111D01*
X177313472Y-80898860D01*
X177331306Y-80892951D01*
X177478034Y-80802447D01*
X177478038Y-80802444D01*
X177599944Y-80680538D01*
X177599947Y-80680534D01*
X177690451Y-80533805D01*
X177744679Y-80370152D01*
X177744680Y-80370150D01*
X177755000Y-80269140D01*
X177755000Y-80239998D01*
X178268350Y-80239998D01*
X178268350Y-80291829D01*
X178274751Y-80351372D01*
X178274752Y-80351375D01*
X178324998Y-80486088D01*
X178324999Y-80486090D01*
X178411160Y-80601187D01*
X178526257Y-80687348D01*
X178526259Y-80687349D01*
X178660972Y-80737595D01*
X178660975Y-80737596D01*
X178720518Y-80743997D01*
X178720530Y-80743998D01*
X179020000Y-80743998D01*
X179020000Y-80239998D01*
X178268350Y-80239998D01*
X177755000Y-80239998D01*
X177755000Y-80170000D01*
X175805001Y-80170000D01*
X175190500Y-80170000D01*
X175190500Y-79739998D01*
X178268350Y-79739998D01*
X179020000Y-79739998D01*
X179020000Y-79235998D01*
X178720518Y-79235998D01*
X178660975Y-79242399D01*
X178660972Y-79242400D01*
X178526259Y-79292646D01*
X178526257Y-79292647D01*
X178411160Y-79378808D01*
X178324999Y-79493905D01*
X178324998Y-79493907D01*
X178274752Y-79628620D01*
X178274751Y-79628623D01*
X178268350Y-79688166D01*
X178268350Y-79739998D01*
X175190500Y-79739998D01*
X175190500Y-79670000D01*
X175805000Y-79670000D01*
X176530000Y-79670000D01*
X176530000Y-78882500D01*
X177030000Y-78882500D01*
X177030000Y-79670000D01*
X177754999Y-79670000D01*
X177754999Y-79570858D01*
X177744679Y-79469844D01*
X177690451Y-79306194D01*
X177599947Y-79159465D01*
X177599944Y-79159461D01*
X177478038Y-79037555D01*
X177478034Y-79037552D01*
X177331304Y-78947048D01*
X177331305Y-78947048D01*
X177167652Y-78892820D01*
X177167650Y-78892819D01*
X177066641Y-78882500D01*
X177030000Y-78882500D01*
X176530000Y-78882500D01*
X176529999Y-78882499D01*
X176493359Y-78882500D01*
X176392344Y-78892820D01*
X176228694Y-78947048D01*
X176081965Y-79037552D01*
X176081961Y-79037555D01*
X175960055Y-79159461D01*
X175960052Y-79159465D01*
X175869548Y-79306194D01*
X175815320Y-79469847D01*
X175815319Y-79469849D01*
X175805000Y-79570859D01*
X175805000Y-79670000D01*
X175190500Y-79670000D01*
X175190500Y-76859652D01*
X175208093Y-76811314D01*
X175252642Y-76785594D01*
X175303300Y-76794527D01*
X175328655Y-76818522D01*
X175369006Y-76880285D01*
X175529320Y-77054433D01*
X175529324Y-77054437D01*
X175716118Y-77199824D01*
X175924286Y-77312479D01*
X175924292Y-77312482D01*
X175924293Y-77312482D01*
X175924299Y-77312485D01*
X176093293Y-77370500D01*
X176148171Y-77389340D01*
X176381648Y-77428300D01*
X176381651Y-77428300D01*
X176618349Y-77428300D01*
X176618352Y-77428300D01*
X176851829Y-77389340D01*
X177003902Y-77337132D01*
X177075700Y-77312485D01*
X177075702Y-77312484D01*
X177075708Y-77312482D01*
X177283883Y-77199823D01*
X177470677Y-77054436D01*
X177630992Y-76880287D01*
X177724474Y-76737202D01*
X177743180Y-76708570D01*
X177784347Y-76677726D01*
X177806135Y-76674500D01*
X178396500Y-76674500D01*
X178444838Y-76692093D01*
X178470558Y-76736642D01*
X178471700Y-76749700D01*
X178471700Y-77557559D01*
X178471701Y-77557564D01*
X178482043Y-77609565D01*
X178482045Y-77609571D01*
X178521451Y-77668545D01*
X178521452Y-77668545D01*
X178521453Y-77668547D01*
X178580431Y-77707955D01*
X178632439Y-77718300D01*
X179171388Y-77718299D01*
X179219726Y-77735892D01*
X179242255Y-77773950D01*
X179242666Y-77773781D01*
X179243855Y-77776653D01*
X179245143Y-77778828D01*
X179245500Y-77780623D01*
X179284245Y-77874164D01*
X179995834Y-78585753D01*
X179995835Y-78585753D01*
X179995837Y-78585755D01*
X180089377Y-78624501D01*
X180089379Y-78624501D01*
X180093615Y-78625344D01*
X180137592Y-78652030D01*
X180154126Y-78700740D01*
X180138604Y-78744878D01*
X180079139Y-78822373D01*
X180023671Y-78956288D01*
X180023670Y-78956291D01*
X180004750Y-79100000D01*
X180012578Y-79159461D01*
X180014637Y-79175095D01*
X180003503Y-79225316D01*
X179962693Y-79256630D01*
X179913800Y-79255370D01*
X179879027Y-79242400D01*
X179879024Y-79242399D01*
X179819481Y-79235998D01*
X179520000Y-79235998D01*
X179520000Y-80743998D01*
X179819470Y-80743998D01*
X179819481Y-80743997D01*
X179879024Y-80737596D01*
X179879027Y-80737595D01*
X180013740Y-80687349D01*
X180013742Y-80687348D01*
X180128839Y-80601187D01*
X180215000Y-80486090D01*
X180215001Y-80486088D01*
X180265247Y-80351375D01*
X180265248Y-80351371D01*
X180269434Y-80312433D01*
X180292093Y-80266252D01*
X180339135Y-80245441D01*
X180388548Y-80259737D01*
X180397377Y-80267296D01*
X181209951Y-81079868D01*
X181209964Y-81079883D01*
X181273124Y-81143043D01*
X181294864Y-81189663D01*
X181295150Y-81196213D01*
X181295150Y-81211558D01*
X181295151Y-81211564D01*
X181305493Y-81263564D01*
X181305495Y-81263570D01*
X181344901Y-81322544D01*
X181344902Y-81322544D01*
X181344903Y-81322546D01*
X181389691Y-81352472D01*
X181420108Y-81393956D01*
X181416743Y-81445286D01*
X181389692Y-81477525D01*
X181344903Y-81507452D01*
X181305495Y-81566431D01*
X181305494Y-81566432D01*
X181295150Y-81618438D01*
X181295150Y-82161559D01*
X181295151Y-82161564D01*
X181305493Y-82213565D01*
X181305495Y-82213571D01*
X181344901Y-82272545D01*
X181344902Y-82272545D01*
X181344903Y-82272547D01*
X181403881Y-82311955D01*
X181455889Y-82322300D01*
X182494310Y-82322299D01*
X182511666Y-82318847D01*
X182562507Y-82326672D01*
X182579510Y-82339428D01*
X183495834Y-83255753D01*
X183495835Y-83255753D01*
X183495837Y-83255755D01*
X183589377Y-83294501D01*
X183589378Y-83294501D01*
X183699375Y-83294501D01*
X183699383Y-83294500D01*
X184880622Y-83294500D01*
X184880623Y-83294500D01*
X184974163Y-83255755D01*
X185504161Y-82725755D01*
X185504163Y-82725755D01*
X185575755Y-82654163D01*
X185614500Y-82560623D01*
X185614500Y-80479383D01*
X185614501Y-80479374D01*
X185614501Y-80369378D01*
X185607043Y-80351372D01*
X185575755Y-80275837D01*
X185575753Y-80275835D01*
X185575753Y-80275834D01*
X185144164Y-79844245D01*
X185050623Y-79805500D01*
X184808499Y-79805500D01*
X184760161Y-79787907D01*
X184734441Y-79743358D01*
X184733299Y-79730300D01*
X184733299Y-79727281D01*
X184733298Y-79727269D01*
X184717880Y-79629910D01*
X184658081Y-79512550D01*
X184564949Y-79419418D01*
X184447591Y-79359621D01*
X184447593Y-79359621D01*
X184398908Y-79351910D01*
X184350225Y-79344200D01*
X184350223Y-79344200D01*
X183809781Y-79344200D01*
X183809769Y-79344201D01*
X183712410Y-79359619D01*
X183595050Y-79419418D01*
X183501918Y-79512550D01*
X183442121Y-79629907D01*
X183438498Y-79652781D01*
X183435772Y-79670000D01*
X183435445Y-79672062D01*
X183410507Y-79717052D01*
X183362484Y-79735487D01*
X183361171Y-79735498D01*
X182720159Y-79735498D01*
X182671821Y-79717905D01*
X182646404Y-79674967D01*
X182644706Y-79666432D01*
X182644704Y-79666426D01*
X182605298Y-79607452D01*
X182605294Y-79607449D01*
X182546319Y-79568043D01*
X182546317Y-79568042D01*
X182494312Y-79557698D01*
X182494311Y-79557698D01*
X182304800Y-79557698D01*
X182256462Y-79540105D01*
X182230742Y-79495556D01*
X182229600Y-79482498D01*
X182229600Y-79104483D01*
X182229601Y-79104474D01*
X182229601Y-78994478D01*
X182229601Y-78994477D01*
X182190855Y-78900937D01*
X182190853Y-78900935D01*
X182190853Y-78900934D01*
X181444164Y-78154245D01*
X181350623Y-78115500D01*
X180276566Y-78115500D01*
X180228228Y-78097907D01*
X180223392Y-78093474D01*
X179976591Y-77846673D01*
X179954851Y-77800053D01*
X179968165Y-77750366D01*
X180010302Y-77720861D01*
X180029765Y-77718299D01*
X180367560Y-77718299D01*
X180393564Y-77713127D01*
X180419565Y-77707956D01*
X180419566Y-77707955D01*
X180419569Y-77707955D01*
X180419569Y-77707954D01*
X180419571Y-77707954D01*
X180449058Y-77688251D01*
X180478547Y-77668547D01*
X180517955Y-77609569D01*
X180528300Y-77557561D01*
X180528299Y-75822440D01*
X180517955Y-75770431D01*
X180517954Y-75770428D01*
X180478548Y-75711454D01*
X180478544Y-75711451D01*
X180419569Y-75672045D01*
X180419567Y-75672044D01*
X180367561Y-75661700D01*
X178632440Y-75661700D01*
X178632435Y-75661701D01*
X178580434Y-75672043D01*
X178580428Y-75672045D01*
X178521454Y-75711451D01*
X178482045Y-75770431D01*
X178482044Y-75770432D01*
X178471700Y-75822438D01*
X178471700Y-76090300D01*
X178454107Y-76138638D01*
X178409558Y-76164358D01*
X178396500Y-76165500D01*
X178001170Y-76165500D01*
X177952832Y-76147907D01*
X177927112Y-76103358D01*
X177926227Y-76084090D01*
X177933195Y-76000001D01*
X177933195Y-75999998D01*
X177919180Y-75830862D01*
X177913648Y-75764104D01*
X177855541Y-75534642D01*
X177760457Y-75317875D01*
X177760456Y-75317874D01*
X177760456Y-75317872D01*
X177630993Y-75119714D01*
X177470679Y-74945566D01*
X177470675Y-74945562D01*
X177283881Y-74800175D01*
X177075713Y-74687520D01*
X177075700Y-74687514D01*
X176851842Y-74610664D01*
X176851836Y-74610662D01*
X176851829Y-74610660D01*
X176851822Y-74610658D01*
X176851819Y-74610658D01*
X176618357Y-74571700D01*
X176618352Y-74571700D01*
X176381648Y-74571700D01*
X176381642Y-74571700D01*
X176148180Y-74610658D01*
X176148174Y-74610659D01*
X176148171Y-74610660D01*
X176148166Y-74610661D01*
X176148157Y-74610664D01*
X175924299Y-74687514D01*
X175924286Y-74687520D01*
X175716118Y-74800175D01*
X175529324Y-74945562D01*
X175529320Y-74945566D01*
X175369008Y-75119712D01*
X175328655Y-75181478D01*
X175287488Y-75212322D01*
X175236126Y-75209488D01*
X175198602Y-75174302D01*
X175190500Y-75140347D01*
X175190500Y-74490700D01*
X175208093Y-74442362D01*
X175252642Y-74416642D01*
X175265700Y-74415500D01*
X186314300Y-74415500D01*
X186362638Y-74433093D01*
G37*
%TD.AperFunction*%
%TD*%
M02*
