G04 #@! TF.GenerationSoftware,KiCad,Pcbnew,8.0.1*
G04 #@! TF.CreationDate,2025-02-25T23:19:28-07:00*
G04 #@! TF.ProjectId,Button_Flex,42757474-6f6e-45f4-966c-65782e6b6963,rev?*
G04 #@! TF.SameCoordinates,Original*
G04 #@! TF.FileFunction,Legend,Top*
G04 #@! TF.FilePolarity,Positive*
%FSLAX46Y46*%
G04 Gerber Fmt 4.6, Leading zero omitted, Abs format (unit mm)*
G04 Created by KiCad (PCBNEW 8.0.1) date 2025-02-25 23:19:28*
%MOMM*%
%LPD*%
G01*
G04 APERTURE LIST*
G04 Aperture macros list*
%AMRoundRect*
0 Rectangle with rounded corners*
0 $1 Rounding radius*
0 $2 $3 $4 $5 $6 $7 $8 $9 X,Y pos of 4 corners*
0 Add a 4 corners polygon primitive as box body*
4,1,4,$2,$3,$4,$5,$6,$7,$8,$9,$2,$3,0*
0 Add four circle primitives for the rounded corners*
1,1,$1+$1,$2,$3*
1,1,$1+$1,$4,$5*
1,1,$1+$1,$6,$7*
1,1,$1+$1,$8,$9*
0 Add four rect primitives between the rounded corners*
20,1,$1+$1,$2,$3,$4,$5,0*
20,1,$1+$1,$4,$5,$6,$7,0*
20,1,$1+$1,$6,$7,$8,$9,0*
20,1,$1+$1,$8,$9,$2,$3,0*%
G04 Aperture macros list end*
%ADD10C,0.100000*%
%ADD11C,0.150000*%
%ADD12C,0.120000*%
%ADD13C,0.152400*%
%ADD14RoundRect,0.200000X-0.200000X-0.275000X0.200000X-0.275000X0.200000X0.275000X-0.200000X0.275000X0*%
%ADD15R,1.700000X0.650000*%
%ADD16R,1.549908X1.400048*%
%ADD17R,1.400048X1.549908*%
%ADD18RoundRect,0.225000X-0.225000X-0.250000X0.225000X-0.250000X0.225000X0.250000X-0.225000X0.250000X0*%
%ADD19RoundRect,0.200000X-0.275000X0.200000X-0.275000X-0.200000X0.275000X-0.200000X0.275000X0.200000X0*%
%ADD20R,0.609600X1.320800*%
%ADD21R,1.700000X1.700000*%
%ADD22O,1.700000X1.700000*%
%ADD23RoundRect,0.200000X0.275000X-0.200000X0.275000X0.200000X-0.275000X0.200000X-0.275000X-0.200000X0*%
G04 APERTURE END LIST*
D10*
X188797381Y-59317419D02*
X188225953Y-59317419D01*
X188511667Y-59317419D02*
X188511667Y-58317419D01*
X188511667Y-58317419D02*
X188416429Y-58460276D01*
X188416429Y-58460276D02*
X188321191Y-58555514D01*
X188321191Y-58555514D02*
X188225953Y-58603133D01*
X189130715Y-58317419D02*
X189797381Y-58317419D01*
X189797381Y-58317419D02*
X189368810Y-59317419D01*
X190178334Y-59222180D02*
X190225953Y-59269800D01*
X190225953Y-59269800D02*
X190178334Y-59317419D01*
X190178334Y-59317419D02*
X190130715Y-59269800D01*
X190130715Y-59269800D02*
X190178334Y-59222180D01*
X190178334Y-59222180D02*
X190178334Y-59317419D01*
X191083095Y-58650752D02*
X191083095Y-59317419D01*
X190845000Y-58269800D02*
X190606905Y-58984085D01*
X190606905Y-58984085D02*
X191225952Y-58984085D01*
X192130714Y-59317419D02*
X191559286Y-59317419D01*
X191845000Y-59317419D02*
X191845000Y-58317419D01*
X191845000Y-58317419D02*
X191749762Y-58460276D01*
X191749762Y-58460276D02*
X191654524Y-58555514D01*
X191654524Y-58555514D02*
X191559286Y-58603133D01*
X192749762Y-58317419D02*
X192845000Y-58317419D01*
X192845000Y-58317419D02*
X192940238Y-58365038D01*
X192940238Y-58365038D02*
X192987857Y-58412657D01*
X192987857Y-58412657D02*
X193035476Y-58507895D01*
X193035476Y-58507895D02*
X193083095Y-58698371D01*
X193083095Y-58698371D02*
X193083095Y-58936466D01*
X193083095Y-58936466D02*
X193035476Y-59126942D01*
X193035476Y-59126942D02*
X192987857Y-59222180D01*
X192987857Y-59222180D02*
X192940238Y-59269800D01*
X192940238Y-59269800D02*
X192845000Y-59317419D01*
X192845000Y-59317419D02*
X192749762Y-59317419D01*
X192749762Y-59317419D02*
X192654524Y-59269800D01*
X192654524Y-59269800D02*
X192606905Y-59222180D01*
X192606905Y-59222180D02*
X192559286Y-59126942D01*
X192559286Y-59126942D02*
X192511667Y-58936466D01*
X192511667Y-58936466D02*
X192511667Y-58698371D01*
X192511667Y-58698371D02*
X192559286Y-58507895D01*
X192559286Y-58507895D02*
X192606905Y-58412657D01*
X192606905Y-58412657D02*
X192654524Y-58365038D01*
X192654524Y-58365038D02*
X192749762Y-58317419D01*
X193702143Y-58317419D02*
X193797381Y-58317419D01*
X193797381Y-58317419D02*
X193892619Y-58365038D01*
X193892619Y-58365038D02*
X193940238Y-58412657D01*
X193940238Y-58412657D02*
X193987857Y-58507895D01*
X193987857Y-58507895D02*
X194035476Y-58698371D01*
X194035476Y-58698371D02*
X194035476Y-58936466D01*
X194035476Y-58936466D02*
X193987857Y-59126942D01*
X193987857Y-59126942D02*
X193940238Y-59222180D01*
X193940238Y-59222180D02*
X193892619Y-59269800D01*
X193892619Y-59269800D02*
X193797381Y-59317419D01*
X193797381Y-59317419D02*
X193702143Y-59317419D01*
X193702143Y-59317419D02*
X193606905Y-59269800D01*
X193606905Y-59269800D02*
X193559286Y-59222180D01*
X193559286Y-59222180D02*
X193511667Y-59126942D01*
X193511667Y-59126942D02*
X193464048Y-58936466D01*
X193464048Y-58936466D02*
X193464048Y-58698371D01*
X193464048Y-58698371D02*
X193511667Y-58507895D01*
X193511667Y-58507895D02*
X193559286Y-58412657D01*
X193559286Y-58412657D02*
X193606905Y-58365038D01*
X193606905Y-58365038D02*
X193702143Y-58317419D01*
X195225953Y-59317419D02*
X195225953Y-58650752D01*
X195225953Y-58745990D02*
X195273572Y-58698371D01*
X195273572Y-58698371D02*
X195368810Y-58650752D01*
X195368810Y-58650752D02*
X195511667Y-58650752D01*
X195511667Y-58650752D02*
X195606905Y-58698371D01*
X195606905Y-58698371D02*
X195654524Y-58793609D01*
X195654524Y-58793609D02*
X195654524Y-59317419D01*
X195654524Y-58793609D02*
X195702143Y-58698371D01*
X195702143Y-58698371D02*
X195797381Y-58650752D01*
X195797381Y-58650752D02*
X195940238Y-58650752D01*
X195940238Y-58650752D02*
X196035477Y-58698371D01*
X196035477Y-58698371D02*
X196083096Y-58793609D01*
X196083096Y-58793609D02*
X196083096Y-59317419D01*
X196559286Y-59317419D02*
X196559286Y-58650752D01*
X196559286Y-58745990D02*
X196606905Y-58698371D01*
X196606905Y-58698371D02*
X196702143Y-58650752D01*
X196702143Y-58650752D02*
X196845000Y-58650752D01*
X196845000Y-58650752D02*
X196940238Y-58698371D01*
X196940238Y-58698371D02*
X196987857Y-58793609D01*
X196987857Y-58793609D02*
X196987857Y-59317419D01*
X196987857Y-58793609D02*
X197035476Y-58698371D01*
X197035476Y-58698371D02*
X197130714Y-58650752D01*
X197130714Y-58650752D02*
X197273571Y-58650752D01*
X197273571Y-58650752D02*
X197368810Y-58698371D01*
X197368810Y-58698371D02*
X197416429Y-58793609D01*
X197416429Y-58793609D02*
X197416429Y-59317419D01*
X184140000Y-62320000D02*
X184140000Y-59373580D01*
X201550000Y-62320000D02*
X201550000Y-59373580D01*
X184140000Y-59960000D02*
X201550000Y-59960000D01*
X184140000Y-59960000D02*
X201550000Y-59960000D01*
X184140000Y-59960000D02*
X185266504Y-59373579D01*
X184140000Y-59960000D02*
X185266504Y-60546421D01*
X201550000Y-59960000D02*
X200423496Y-60546421D01*
X201550000Y-59960000D02*
X200423496Y-59373579D01*
D11*
X197868333Y-106134819D02*
X197535000Y-105658628D01*
X197296905Y-106134819D02*
X197296905Y-105134819D01*
X197296905Y-105134819D02*
X197677857Y-105134819D01*
X197677857Y-105134819D02*
X197773095Y-105182438D01*
X197773095Y-105182438D02*
X197820714Y-105230057D01*
X197820714Y-105230057D02*
X197868333Y-105325295D01*
X197868333Y-105325295D02*
X197868333Y-105468152D01*
X197868333Y-105468152D02*
X197820714Y-105563390D01*
X197820714Y-105563390D02*
X197773095Y-105611009D01*
X197773095Y-105611009D02*
X197677857Y-105658628D01*
X197677857Y-105658628D02*
X197296905Y-105658628D01*
X198773095Y-105134819D02*
X198296905Y-105134819D01*
X198296905Y-105134819D02*
X198249286Y-105611009D01*
X198249286Y-105611009D02*
X198296905Y-105563390D01*
X198296905Y-105563390D02*
X198392143Y-105515771D01*
X198392143Y-105515771D02*
X198630238Y-105515771D01*
X198630238Y-105515771D02*
X198725476Y-105563390D01*
X198725476Y-105563390D02*
X198773095Y-105611009D01*
X198773095Y-105611009D02*
X198820714Y-105706247D01*
X198820714Y-105706247D02*
X198820714Y-105944342D01*
X198820714Y-105944342D02*
X198773095Y-106039580D01*
X198773095Y-106039580D02*
X198725476Y-106087200D01*
X198725476Y-106087200D02*
X198630238Y-106134819D01*
X198630238Y-106134819D02*
X198392143Y-106134819D01*
X198392143Y-106134819D02*
X198296905Y-106087200D01*
X198296905Y-106087200D02*
X198249286Y-106039580D01*
X186340476Y-101132295D02*
X186340476Y-101779914D01*
X186340476Y-101779914D02*
X186378571Y-101856104D01*
X186378571Y-101856104D02*
X186416666Y-101894200D01*
X186416666Y-101894200D02*
X186492857Y-101932295D01*
X186492857Y-101932295D02*
X186645238Y-101932295D01*
X186645238Y-101932295D02*
X186721428Y-101894200D01*
X186721428Y-101894200D02*
X186759523Y-101856104D01*
X186759523Y-101856104D02*
X186797619Y-101779914D01*
X186797619Y-101779914D02*
X186797619Y-101132295D01*
X187140475Y-101208485D02*
X187178571Y-101170390D01*
X187178571Y-101170390D02*
X187254761Y-101132295D01*
X187254761Y-101132295D02*
X187445237Y-101132295D01*
X187445237Y-101132295D02*
X187521428Y-101170390D01*
X187521428Y-101170390D02*
X187559523Y-101208485D01*
X187559523Y-101208485D02*
X187597618Y-101284676D01*
X187597618Y-101284676D02*
X187597618Y-101360866D01*
X187597618Y-101360866D02*
X187559523Y-101475152D01*
X187559523Y-101475152D02*
X187102380Y-101932295D01*
X187102380Y-101932295D02*
X187597618Y-101932295D01*
X191733332Y-97918101D02*
X191847618Y-97956196D01*
X191847618Y-97956196D02*
X192038094Y-97956196D01*
X192038094Y-97956196D02*
X192114285Y-97918101D01*
X192114285Y-97918101D02*
X192152380Y-97880005D01*
X192152380Y-97880005D02*
X192190475Y-97803815D01*
X192190475Y-97803815D02*
X192190475Y-97727624D01*
X192190475Y-97727624D02*
X192152380Y-97651434D01*
X192152380Y-97651434D02*
X192114285Y-97613339D01*
X192114285Y-97613339D02*
X192038094Y-97575243D01*
X192038094Y-97575243D02*
X191885713Y-97537148D01*
X191885713Y-97537148D02*
X191809523Y-97499053D01*
X191809523Y-97499053D02*
X191771428Y-97460958D01*
X191771428Y-97460958D02*
X191733332Y-97384767D01*
X191733332Y-97384767D02*
X191733332Y-97308577D01*
X191733332Y-97308577D02*
X191771428Y-97232386D01*
X191771428Y-97232386D02*
X191809523Y-97194291D01*
X191809523Y-97194291D02*
X191885713Y-97156196D01*
X191885713Y-97156196D02*
X192076190Y-97156196D01*
X192076190Y-97156196D02*
X192190475Y-97194291D01*
X192457142Y-97156196D02*
X192647618Y-97956196D01*
X192647618Y-97956196D02*
X192799999Y-97384767D01*
X192799999Y-97384767D02*
X192952380Y-97956196D01*
X192952380Y-97956196D02*
X193142857Y-97156196D01*
X193790476Y-97422862D02*
X193790476Y-97956196D01*
X193600000Y-97118101D02*
X193409523Y-97689529D01*
X193409523Y-97689529D02*
X193904762Y-97689529D01*
X197504201Y-88386667D02*
X197542296Y-88272381D01*
X197542296Y-88272381D02*
X197542296Y-88081905D01*
X197542296Y-88081905D02*
X197504201Y-88005714D01*
X197504201Y-88005714D02*
X197466105Y-87967619D01*
X197466105Y-87967619D02*
X197389915Y-87929524D01*
X197389915Y-87929524D02*
X197313724Y-87929524D01*
X197313724Y-87929524D02*
X197237534Y-87967619D01*
X197237534Y-87967619D02*
X197199439Y-88005714D01*
X197199439Y-88005714D02*
X197161343Y-88081905D01*
X197161343Y-88081905D02*
X197123248Y-88234286D01*
X197123248Y-88234286D02*
X197085153Y-88310476D01*
X197085153Y-88310476D02*
X197047058Y-88348571D01*
X197047058Y-88348571D02*
X196970867Y-88386667D01*
X196970867Y-88386667D02*
X196894677Y-88386667D01*
X196894677Y-88386667D02*
X196818486Y-88348571D01*
X196818486Y-88348571D02*
X196780391Y-88310476D01*
X196780391Y-88310476D02*
X196742296Y-88234286D01*
X196742296Y-88234286D02*
X196742296Y-88043809D01*
X196742296Y-88043809D02*
X196780391Y-87929524D01*
X196742296Y-87662857D02*
X197542296Y-87472381D01*
X197542296Y-87472381D02*
X196970867Y-87320000D01*
X196970867Y-87320000D02*
X197542296Y-87167619D01*
X197542296Y-87167619D02*
X196742296Y-86977143D01*
X196742296Y-86748571D02*
X196742296Y-86253333D01*
X196742296Y-86253333D02*
X197047058Y-86519999D01*
X197047058Y-86519999D02*
X197047058Y-86405714D01*
X197047058Y-86405714D02*
X197085153Y-86329523D01*
X197085153Y-86329523D02*
X197123248Y-86291428D01*
X197123248Y-86291428D02*
X197199439Y-86253333D01*
X197199439Y-86253333D02*
X197389915Y-86253333D01*
X197389915Y-86253333D02*
X197466105Y-86291428D01*
X197466105Y-86291428D02*
X197504201Y-86329523D01*
X197504201Y-86329523D02*
X197542296Y-86405714D01*
X197542296Y-86405714D02*
X197542296Y-86634285D01*
X197542296Y-86634285D02*
X197504201Y-86710476D01*
X197504201Y-86710476D02*
X197466105Y-86748571D01*
X189124200Y-88386667D02*
X189162295Y-88272381D01*
X189162295Y-88272381D02*
X189162295Y-88081905D01*
X189162295Y-88081905D02*
X189124200Y-88005714D01*
X189124200Y-88005714D02*
X189086104Y-87967619D01*
X189086104Y-87967619D02*
X189009914Y-87929524D01*
X189009914Y-87929524D02*
X188933723Y-87929524D01*
X188933723Y-87929524D02*
X188857533Y-87967619D01*
X188857533Y-87967619D02*
X188819438Y-88005714D01*
X188819438Y-88005714D02*
X188781342Y-88081905D01*
X188781342Y-88081905D02*
X188743247Y-88234286D01*
X188743247Y-88234286D02*
X188705152Y-88310476D01*
X188705152Y-88310476D02*
X188667057Y-88348571D01*
X188667057Y-88348571D02*
X188590866Y-88386667D01*
X188590866Y-88386667D02*
X188514676Y-88386667D01*
X188514676Y-88386667D02*
X188438485Y-88348571D01*
X188438485Y-88348571D02*
X188400390Y-88310476D01*
X188400390Y-88310476D02*
X188362295Y-88234286D01*
X188362295Y-88234286D02*
X188362295Y-88043809D01*
X188362295Y-88043809D02*
X188400390Y-87929524D01*
X188362295Y-87662857D02*
X189162295Y-87472381D01*
X189162295Y-87472381D02*
X188590866Y-87320000D01*
X188590866Y-87320000D02*
X189162295Y-87167619D01*
X189162295Y-87167619D02*
X188362295Y-86977143D01*
X188438485Y-86710476D02*
X188400390Y-86672380D01*
X188400390Y-86672380D02*
X188362295Y-86596190D01*
X188362295Y-86596190D02*
X188362295Y-86405714D01*
X188362295Y-86405714D02*
X188400390Y-86329523D01*
X188400390Y-86329523D02*
X188438485Y-86291428D01*
X188438485Y-86291428D02*
X188514676Y-86253333D01*
X188514676Y-86253333D02*
X188590866Y-86253333D01*
X188590866Y-86253333D02*
X188705152Y-86291428D01*
X188705152Y-86291428D02*
X189162295Y-86748571D01*
X189162295Y-86748571D02*
X189162295Y-86253333D01*
X191733332Y-77534201D02*
X191847618Y-77572296D01*
X191847618Y-77572296D02*
X192038094Y-77572296D01*
X192038094Y-77572296D02*
X192114285Y-77534201D01*
X192114285Y-77534201D02*
X192152380Y-77496105D01*
X192152380Y-77496105D02*
X192190475Y-77419915D01*
X192190475Y-77419915D02*
X192190475Y-77343724D01*
X192190475Y-77343724D02*
X192152380Y-77267534D01*
X192152380Y-77267534D02*
X192114285Y-77229439D01*
X192114285Y-77229439D02*
X192038094Y-77191343D01*
X192038094Y-77191343D02*
X191885713Y-77153248D01*
X191885713Y-77153248D02*
X191809523Y-77115153D01*
X191809523Y-77115153D02*
X191771428Y-77077058D01*
X191771428Y-77077058D02*
X191733332Y-77000867D01*
X191733332Y-77000867D02*
X191733332Y-76924677D01*
X191733332Y-76924677D02*
X191771428Y-76848486D01*
X191771428Y-76848486D02*
X191809523Y-76810391D01*
X191809523Y-76810391D02*
X191885713Y-76772296D01*
X191885713Y-76772296D02*
X192076190Y-76772296D01*
X192076190Y-76772296D02*
X192190475Y-76810391D01*
X192457142Y-76772296D02*
X192647618Y-77572296D01*
X192647618Y-77572296D02*
X192799999Y-77000867D01*
X192799999Y-77000867D02*
X192952380Y-77572296D01*
X192952380Y-77572296D02*
X193142857Y-76772296D01*
X193866666Y-77572296D02*
X193409523Y-77572296D01*
X193638095Y-77572296D02*
X193638095Y-76772296D01*
X193638095Y-76772296D02*
X193561904Y-76886581D01*
X193561904Y-76886581D02*
X193485714Y-76962772D01*
X193485714Y-76962772D02*
X193409523Y-77000867D01*
X198351667Y-102206104D02*
X198313571Y-102244200D01*
X198313571Y-102244200D02*
X198199286Y-102282295D01*
X198199286Y-102282295D02*
X198123095Y-102282295D01*
X198123095Y-102282295D02*
X198008809Y-102244200D01*
X198008809Y-102244200D02*
X197932619Y-102168009D01*
X197932619Y-102168009D02*
X197894524Y-102091819D01*
X197894524Y-102091819D02*
X197856428Y-101939438D01*
X197856428Y-101939438D02*
X197856428Y-101825152D01*
X197856428Y-101825152D02*
X197894524Y-101672771D01*
X197894524Y-101672771D02*
X197932619Y-101596580D01*
X197932619Y-101596580D02*
X198008809Y-101520390D01*
X198008809Y-101520390D02*
X198123095Y-101482295D01*
X198123095Y-101482295D02*
X198199286Y-101482295D01*
X198199286Y-101482295D02*
X198313571Y-101520390D01*
X198313571Y-101520390D02*
X198351667Y-101558485D01*
X198618333Y-101482295D02*
X199113571Y-101482295D01*
X199113571Y-101482295D02*
X198846905Y-101787057D01*
X198846905Y-101787057D02*
X198961190Y-101787057D01*
X198961190Y-101787057D02*
X199037381Y-101825152D01*
X199037381Y-101825152D02*
X199075476Y-101863247D01*
X199075476Y-101863247D02*
X199113571Y-101939438D01*
X199113571Y-101939438D02*
X199113571Y-102129914D01*
X199113571Y-102129914D02*
X199075476Y-102206104D01*
X199075476Y-102206104D02*
X199037381Y-102244200D01*
X199037381Y-102244200D02*
X198961190Y-102282295D01*
X198961190Y-102282295D02*
X198732619Y-102282295D01*
X198732619Y-102282295D02*
X198656428Y-102244200D01*
X198656428Y-102244200D02*
X198618333Y-102206104D01*
X194696666Y-71475704D02*
X194658570Y-71513800D01*
X194658570Y-71513800D02*
X194544285Y-71551895D01*
X194544285Y-71551895D02*
X194468094Y-71551895D01*
X194468094Y-71551895D02*
X194353808Y-71513800D01*
X194353808Y-71513800D02*
X194277618Y-71437609D01*
X194277618Y-71437609D02*
X194239523Y-71361419D01*
X194239523Y-71361419D02*
X194201427Y-71209038D01*
X194201427Y-71209038D02*
X194201427Y-71094752D01*
X194201427Y-71094752D02*
X194239523Y-70942371D01*
X194239523Y-70942371D02*
X194277618Y-70866180D01*
X194277618Y-70866180D02*
X194353808Y-70789990D01*
X194353808Y-70789990D02*
X194468094Y-70751895D01*
X194468094Y-70751895D02*
X194544285Y-70751895D01*
X194544285Y-70751895D02*
X194658570Y-70789990D01*
X194658570Y-70789990D02*
X194696666Y-70828085D01*
X195001427Y-70828085D02*
X195039523Y-70789990D01*
X195039523Y-70789990D02*
X195115713Y-70751895D01*
X195115713Y-70751895D02*
X195306189Y-70751895D01*
X195306189Y-70751895D02*
X195382380Y-70789990D01*
X195382380Y-70789990D02*
X195420475Y-70828085D01*
X195420475Y-70828085D02*
X195458570Y-70904276D01*
X195458570Y-70904276D02*
X195458570Y-70980466D01*
X195458570Y-70980466D02*
X195420475Y-71094752D01*
X195420475Y-71094752D02*
X194963332Y-71551895D01*
X194963332Y-71551895D02*
X195458570Y-71551895D01*
X199316667Y-77762295D02*
X199050000Y-77381342D01*
X198859524Y-77762295D02*
X198859524Y-76962295D01*
X198859524Y-76962295D02*
X199164286Y-76962295D01*
X199164286Y-76962295D02*
X199240476Y-77000390D01*
X199240476Y-77000390D02*
X199278571Y-77038485D01*
X199278571Y-77038485D02*
X199316667Y-77114676D01*
X199316667Y-77114676D02*
X199316667Y-77228961D01*
X199316667Y-77228961D02*
X199278571Y-77305152D01*
X199278571Y-77305152D02*
X199240476Y-77343247D01*
X199240476Y-77343247D02*
X199164286Y-77381342D01*
X199164286Y-77381342D02*
X198859524Y-77381342D01*
X199583333Y-76962295D02*
X200078571Y-76962295D01*
X200078571Y-76962295D02*
X199811905Y-77267057D01*
X199811905Y-77267057D02*
X199926190Y-77267057D01*
X199926190Y-77267057D02*
X200002381Y-77305152D01*
X200002381Y-77305152D02*
X200040476Y-77343247D01*
X200040476Y-77343247D02*
X200078571Y-77419438D01*
X200078571Y-77419438D02*
X200078571Y-77609914D01*
X200078571Y-77609914D02*
X200040476Y-77686104D01*
X200040476Y-77686104D02*
X200002381Y-77724200D01*
X200002381Y-77724200D02*
X199926190Y-77762295D01*
X199926190Y-77762295D02*
X199697619Y-77762295D01*
X199697619Y-77762295D02*
X199621428Y-77724200D01*
X199621428Y-77724200D02*
X199583333Y-77686104D01*
X194686667Y-68626104D02*
X194648571Y-68664200D01*
X194648571Y-68664200D02*
X194534286Y-68702295D01*
X194534286Y-68702295D02*
X194458095Y-68702295D01*
X194458095Y-68702295D02*
X194343809Y-68664200D01*
X194343809Y-68664200D02*
X194267619Y-68588009D01*
X194267619Y-68588009D02*
X194229524Y-68511819D01*
X194229524Y-68511819D02*
X194191428Y-68359438D01*
X194191428Y-68359438D02*
X194191428Y-68245152D01*
X194191428Y-68245152D02*
X194229524Y-68092771D01*
X194229524Y-68092771D02*
X194267619Y-68016580D01*
X194267619Y-68016580D02*
X194343809Y-67940390D01*
X194343809Y-67940390D02*
X194458095Y-67902295D01*
X194458095Y-67902295D02*
X194534286Y-67902295D01*
X194534286Y-67902295D02*
X194648571Y-67940390D01*
X194648571Y-67940390D02*
X194686667Y-67978485D01*
X195448571Y-68702295D02*
X194991428Y-68702295D01*
X195220000Y-68702295D02*
X195220000Y-67902295D01*
X195220000Y-67902295D02*
X195143809Y-68016580D01*
X195143809Y-68016580D02*
X195067619Y-68092771D01*
X195067619Y-68092771D02*
X194991428Y-68130866D01*
X185390476Y-67522295D02*
X185390476Y-68169914D01*
X185390476Y-68169914D02*
X185428571Y-68246104D01*
X185428571Y-68246104D02*
X185466666Y-68284200D01*
X185466666Y-68284200D02*
X185542857Y-68322295D01*
X185542857Y-68322295D02*
X185695238Y-68322295D01*
X185695238Y-68322295D02*
X185771428Y-68284200D01*
X185771428Y-68284200D02*
X185809523Y-68246104D01*
X185809523Y-68246104D02*
X185847619Y-68169914D01*
X185847619Y-68169914D02*
X185847619Y-67522295D01*
X186647618Y-68322295D02*
X186190475Y-68322295D01*
X186419047Y-68322295D02*
X186419047Y-67522295D01*
X186419047Y-67522295D02*
X186342856Y-67636580D01*
X186342856Y-67636580D02*
X186266666Y-67712771D01*
X186266666Y-67712771D02*
X186190475Y-67750866D01*
X186142295Y-79623332D02*
X185761342Y-79889999D01*
X186142295Y-80080475D02*
X185342295Y-80080475D01*
X185342295Y-80080475D02*
X185342295Y-79775713D01*
X185342295Y-79775713D02*
X185380390Y-79699523D01*
X185380390Y-79699523D02*
X185418485Y-79661428D01*
X185418485Y-79661428D02*
X185494676Y-79623332D01*
X185494676Y-79623332D02*
X185608961Y-79623332D01*
X185608961Y-79623332D02*
X185685152Y-79661428D01*
X185685152Y-79661428D02*
X185723247Y-79699523D01*
X185723247Y-79699523D02*
X185761342Y-79775713D01*
X185761342Y-79775713D02*
X185761342Y-80080475D01*
X185418485Y-79318571D02*
X185380390Y-79280475D01*
X185380390Y-79280475D02*
X185342295Y-79204285D01*
X185342295Y-79204285D02*
X185342295Y-79013809D01*
X185342295Y-79013809D02*
X185380390Y-78937618D01*
X185380390Y-78937618D02*
X185418485Y-78899523D01*
X185418485Y-78899523D02*
X185494676Y-78861428D01*
X185494676Y-78861428D02*
X185570866Y-78861428D01*
X185570866Y-78861428D02*
X185685152Y-78899523D01*
X185685152Y-78899523D02*
X186142295Y-79356666D01*
X186142295Y-79356666D02*
X186142295Y-78861428D01*
X186252295Y-65626666D02*
X186823723Y-65626666D01*
X186823723Y-65626666D02*
X186938009Y-65664761D01*
X186938009Y-65664761D02*
X187014200Y-65740952D01*
X187014200Y-65740952D02*
X187052295Y-65855237D01*
X187052295Y-65855237D02*
X187052295Y-65931428D01*
X187052295Y-64826666D02*
X187052295Y-65283809D01*
X187052295Y-65055237D02*
X186252295Y-65055237D01*
X186252295Y-65055237D02*
X186366580Y-65131428D01*
X186366580Y-65131428D02*
X186442771Y-65207618D01*
X186442771Y-65207618D02*
X186480866Y-65283809D01*
X199896667Y-71212295D02*
X199630000Y-70831342D01*
X199439524Y-71212295D02*
X199439524Y-70412295D01*
X199439524Y-70412295D02*
X199744286Y-70412295D01*
X199744286Y-70412295D02*
X199820476Y-70450390D01*
X199820476Y-70450390D02*
X199858571Y-70488485D01*
X199858571Y-70488485D02*
X199896667Y-70564676D01*
X199896667Y-70564676D02*
X199896667Y-70678961D01*
X199896667Y-70678961D02*
X199858571Y-70755152D01*
X199858571Y-70755152D02*
X199820476Y-70793247D01*
X199820476Y-70793247D02*
X199744286Y-70831342D01*
X199744286Y-70831342D02*
X199439524Y-70831342D01*
X200658571Y-71212295D02*
X200201428Y-71212295D01*
X200430000Y-71212295D02*
X200430000Y-70412295D01*
X200430000Y-70412295D02*
X200353809Y-70526580D01*
X200353809Y-70526580D02*
X200277619Y-70602771D01*
X200277619Y-70602771D02*
X200201428Y-70640866D01*
X185702295Y-94323332D02*
X185321342Y-94589999D01*
X185702295Y-94780475D02*
X184902295Y-94780475D01*
X184902295Y-94780475D02*
X184902295Y-94475713D01*
X184902295Y-94475713D02*
X184940390Y-94399523D01*
X184940390Y-94399523D02*
X184978485Y-94361428D01*
X184978485Y-94361428D02*
X185054676Y-94323332D01*
X185054676Y-94323332D02*
X185168961Y-94323332D01*
X185168961Y-94323332D02*
X185245152Y-94361428D01*
X185245152Y-94361428D02*
X185283247Y-94399523D01*
X185283247Y-94399523D02*
X185321342Y-94475713D01*
X185321342Y-94475713D02*
X185321342Y-94780475D01*
X185168961Y-93637618D02*
X185702295Y-93637618D01*
X184864200Y-93828094D02*
X185435628Y-94018571D01*
X185435628Y-94018571D02*
X185435628Y-93523332D01*
D12*
X197797742Y-107632500D02*
X198272258Y-107632500D01*
X197797742Y-106587500D02*
X198272258Y-106587500D01*
D11*
X188320000Y-102460000D02*
X188320000Y-102665000D01*
X188320000Y-102460000D02*
X193820000Y-102460000D01*
X188320000Y-107970000D02*
X188320000Y-107765000D01*
X188320000Y-107970000D02*
X193820000Y-107970000D01*
X193820000Y-102460000D02*
X193820000Y-102665000D01*
X193820000Y-107970000D02*
X193820000Y-107765000D01*
D12*
X187770000Y-102715000D02*
X187530000Y-102385000D01*
X188010000Y-102385000D01*
X187770000Y-102715000D01*
G36*
X187770000Y-102715000D02*
G01*
X187530000Y-102385000D01*
X188010000Y-102385000D01*
X187770000Y-102715000D01*
G37*
D13*
X187364201Y-95343900D02*
G75*
G02*
X186957801Y-95343900I-203200J0D01*
G01*
X186957801Y-95343900D02*
G75*
G02*
X187364201Y-95343900I203200J0D01*
G01*
X189472600Y-100921301D02*
X196127400Y-100921301D01*
X196127400Y-98811138D02*
X196127400Y-96376664D01*
X196127400Y-94266501D02*
X189472600Y-94266501D01*
X189472600Y-96376664D02*
X189472600Y-98811138D01*
X195133200Y-92958999D02*
G75*
G02*
X194726800Y-92958999I-203200J0D01*
G01*
X194726800Y-92958999D02*
G75*
G02*
X195133200Y-92958999I203200J0D01*
G01*
X200507401Y-90647400D02*
X200507401Y-83992600D01*
X198397238Y-83992600D02*
X195962764Y-83992600D01*
X193852601Y-83992600D02*
X193852601Y-90647400D01*
X195962764Y-90647400D02*
X198397238Y-90647400D01*
X186753199Y-92958999D02*
G75*
G02*
X186346799Y-92958999I-203200J0D01*
G01*
X186346799Y-92958999D02*
G75*
G02*
X186753199Y-92958999I203200J0D01*
G01*
X192127400Y-90647400D02*
X192127400Y-83992600D01*
X190017237Y-83992600D02*
X187582763Y-83992600D01*
X185472600Y-83992600D02*
X185472600Y-90647400D01*
X187582763Y-90647400D02*
X190017237Y-90647400D01*
X187364201Y-74960000D02*
G75*
G02*
X186957801Y-74960000I-203200J0D01*
G01*
X186957801Y-74960000D02*
G75*
G02*
X187364201Y-74960000I203200J0D01*
G01*
X189472600Y-80537401D02*
X196127400Y-80537401D01*
X196127400Y-78427238D02*
X196127400Y-75992764D01*
X196127400Y-73882601D02*
X189472600Y-73882601D01*
X189472600Y-75992764D02*
X189472600Y-78427238D01*
D12*
X198344420Y-103860000D02*
X198625580Y-103860000D01*
X198344420Y-102840000D02*
X198625580Y-102840000D01*
X192284420Y-70630000D02*
X192565580Y-70630000D01*
X192284420Y-71650000D02*
X192565580Y-71650000D01*
X199982500Y-79287742D02*
X199982500Y-79762258D01*
X198937500Y-79287742D02*
X198937500Y-79762258D01*
X192284420Y-67920000D02*
X192565580Y-67920000D01*
X192284420Y-68940000D02*
X192565580Y-68940000D01*
D13*
X186088000Y-68948200D02*
X186088000Y-70602200D01*
X187102460Y-68948200D02*
X186088000Y-68948200D01*
X187427539Y-70602200D02*
X188052461Y-70602200D01*
X189392000Y-68948200D02*
X188377540Y-68948200D01*
X189392000Y-70602200D02*
X189392000Y-68948200D01*
X185072000Y-71095200D02*
G75*
G02*
X184818000Y-71095200I-127000J0D01*
G01*
X184818000Y-71095200D02*
G75*
G02*
X185072000Y-71095200I127000J0D01*
G01*
D12*
X186302500Y-76807742D02*
X186302500Y-77282258D01*
X185257500Y-76807742D02*
X185257500Y-77282258D01*
X187690000Y-66690000D02*
X187690000Y-65360000D01*
X189020000Y-66690000D02*
X187690000Y-66690000D01*
X190290000Y-64030000D02*
X197970000Y-64030000D01*
X190290000Y-66690000D02*
X190290000Y-64030000D01*
X190290000Y-66690000D02*
X197970000Y-66690000D01*
X197970000Y-66690000D02*
X197970000Y-64030000D01*
X197387742Y-70267500D02*
X197862258Y-70267500D01*
X197387742Y-71312500D02*
X197862258Y-71312500D01*
X186462500Y-97812258D02*
X186462500Y-97337742D01*
X185417500Y-97812258D02*
X185417500Y-97337742D01*
%LPC*%
D14*
X198860000Y-107110000D03*
X197210000Y-107110000D03*
D15*
X187420000Y-103310000D03*
X187420000Y-104580000D03*
X187420000Y-105850000D03*
X187420000Y-107120000D03*
X194720000Y-107120000D03*
X194720000Y-105850000D03*
X194720000Y-104580000D03*
X194720000Y-103310000D03*
D16*
X188825002Y-95343900D03*
X188825002Y-99843902D03*
X196774998Y-99843902D03*
X196774998Y-95343900D03*
D17*
X194930000Y-91294998D03*
X199430002Y-91294998D03*
X199430002Y-83345002D03*
X194930000Y-83345002D03*
X186549999Y-91294998D03*
X191050001Y-91294998D03*
X191050001Y-83345002D03*
X186549999Y-83345002D03*
D16*
X188825002Y-74960000D03*
X188825002Y-79460002D03*
X196774998Y-79460002D03*
X196774998Y-74960000D03*
D18*
X199260000Y-103350000D03*
X197710000Y-103350000D03*
X191650000Y-71140000D03*
X193200000Y-71140000D03*
D19*
X199460000Y-78700000D03*
X199460000Y-80350000D03*
D18*
X191650000Y-68430000D03*
X193200000Y-68430000D03*
D20*
X186789999Y-70790400D03*
X188690001Y-70790400D03*
X187740000Y-68760000D03*
D19*
X185780000Y-76220000D03*
X185780000Y-77870000D03*
D21*
X189020000Y-65360000D03*
D22*
X191560000Y-65360000D03*
X194100000Y-65360000D03*
X196640000Y-65360000D03*
D14*
X196800000Y-70790000D03*
X198450000Y-70790000D03*
D23*
X185940000Y-98400000D03*
X185940000Y-96750000D03*
%LPD*%
M02*
