G04 #@! TF.GenerationSoftware,KiCad,Pcbnew,8.0.1*
G04 #@! TF.CreationDate,2025-02-25T23:19:28-07:00*
G04 #@! TF.ProjectId,Button_Flex,42757474-6f6e-45f4-966c-65782e6b6963,rev?*
G04 #@! TF.SameCoordinates,Original*
G04 #@! TF.FileFunction,Soldermask,Top*
G04 #@! TF.FilePolarity,Negative*
%FSLAX46Y46*%
G04 Gerber Fmt 4.6, Leading zero omitted, Abs format (unit mm)*
G04 Created by KiCad (PCBNEW 8.0.1) date 2025-02-25 23:19:28*
%MOMM*%
%LPD*%
G01*
G04 APERTURE LIST*
G04 Aperture macros list*
%AMRoundRect*
0 Rectangle with rounded corners*
0 $1 Rounding radius*
0 $2 $3 $4 $5 $6 $7 $8 $9 X,Y pos of 4 corners*
0 Add a 4 corners polygon primitive as box body*
4,1,4,$2,$3,$4,$5,$6,$7,$8,$9,$2,$3,0*
0 Add four circle primitives for the rounded corners*
1,1,$1+$1,$2,$3*
1,1,$1+$1,$4,$5*
1,1,$1+$1,$6,$7*
1,1,$1+$1,$8,$9*
0 Add four rect primitives between the rounded corners*
20,1,$1+$1,$2,$3,$4,$5,0*
20,1,$1+$1,$4,$5,$6,$7,0*
20,1,$1+$1,$6,$7,$8,$9,0*
20,1,$1+$1,$8,$9,$2,$3,0*%
G04 Aperture macros list end*
%ADD10RoundRect,0.200000X-0.200000X-0.275000X0.200000X-0.275000X0.200000X0.275000X-0.200000X0.275000X0*%
%ADD11R,1.700000X0.650000*%
%ADD12R,1.549908X1.400048*%
%ADD13R,1.400048X1.549908*%
%ADD14RoundRect,0.225000X-0.225000X-0.250000X0.225000X-0.250000X0.225000X0.250000X-0.225000X0.250000X0*%
%ADD15RoundRect,0.200000X-0.275000X0.200000X-0.275000X-0.200000X0.275000X-0.200000X0.275000X0.200000X0*%
%ADD16R,0.609600X1.320800*%
%ADD17R,1.700000X1.700000*%
%ADD18O,1.700000X1.700000*%
%ADD19RoundRect,0.200000X0.275000X-0.200000X0.275000X0.200000X-0.275000X0.200000X-0.275000X-0.200000X0*%
G04 APERTURE END LIST*
D10*
X198860000Y-107110000D03*
X197210000Y-107110000D03*
D11*
X187420000Y-103310000D03*
X187420000Y-104580000D03*
X187420000Y-105850000D03*
X187420000Y-107120000D03*
X194720000Y-107120000D03*
X194720000Y-105850000D03*
X194720000Y-104580000D03*
X194720000Y-103310000D03*
D12*
X188825002Y-95343900D03*
X188825002Y-99843902D03*
X196774998Y-99843902D03*
X196774998Y-95343900D03*
D13*
X194930000Y-91294998D03*
X199430002Y-91294998D03*
X199430002Y-83345002D03*
X194930000Y-83345002D03*
X186549999Y-91294998D03*
X191050001Y-91294998D03*
X191050001Y-83345002D03*
X186549999Y-83345002D03*
D12*
X188825002Y-74960000D03*
X188825002Y-79460002D03*
X196774998Y-79460002D03*
X196774998Y-74960000D03*
D14*
X199260000Y-103350000D03*
X197710000Y-103350000D03*
X191650000Y-71140000D03*
X193200000Y-71140000D03*
D15*
X199460000Y-78700000D03*
X199460000Y-80350000D03*
D14*
X191650000Y-68430000D03*
X193200000Y-68430000D03*
D16*
X186789999Y-70790400D03*
X188690001Y-70790400D03*
X187740000Y-68760000D03*
D15*
X185780000Y-76220000D03*
X185780000Y-77870000D03*
D17*
X189020000Y-65360000D03*
D18*
X191560000Y-65360000D03*
X194100000Y-65360000D03*
X196640000Y-65360000D03*
D10*
X196800000Y-70790000D03*
X198450000Y-70790000D03*
D19*
X185940000Y-98400000D03*
X185940000Y-96750000D03*
M02*
