G04 #@! TF.GenerationSoftware,KiCad,Pcbnew,8.0.1*
G04 #@! TF.CreationDate,2025-02-25T23:19:28-07:00*
G04 #@! TF.ProjectId,Button_Flex,42757474-6f6e-45f4-966c-65782e6b6963,rev?*
G04 #@! TF.SameCoordinates,Original*
G04 #@! TF.FileFunction,Copper,L2,Bot*
G04 #@! TF.FilePolarity,Positive*
%FSLAX46Y46*%
G04 Gerber Fmt 4.6, Leading zero omitted, Abs format (unit mm)*
G04 Created by KiCad (PCBNEW 8.0.1) date 2025-02-25 23:19:28*
%MOMM*%
%LPD*%
G01*
G04 APERTURE LIST*
G04 #@! TA.AperFunction,ComponentPad*
%ADD10R,1.700000X1.700000*%
G04 #@! TD*
G04 #@! TA.AperFunction,ComponentPad*
%ADD11O,1.700000X1.700000*%
G04 #@! TD*
G04 #@! TA.AperFunction,ViaPad*
%ADD12C,0.600000*%
G04 #@! TD*
G04 #@! TA.AperFunction,Conductor*
%ADD13C,0.152400*%
G04 #@! TD*
G04 APERTURE END LIST*
D10*
X189020000Y-65360000D03*
D11*
X191560000Y-65360000D03*
X194100000Y-65360000D03*
X196640000Y-65360000D03*
D12*
X192250000Y-72780000D03*
X199805000Y-105565000D03*
X199060000Y-100950000D03*
X189800000Y-81550000D03*
X192580000Y-105660000D03*
X193150000Y-99210000D03*
X189975000Y-103905000D03*
X199460000Y-73980000D03*
X185560000Y-81340000D03*
X192980000Y-81460000D03*
X197590000Y-93460000D03*
D13*
X200430000Y-91780000D02*
X194100000Y-85450000D01*
X200430000Y-104940000D02*
X200430000Y-91780000D01*
X199805000Y-105565000D02*
X200430000Y-104940000D01*
X194100000Y-85450000D02*
X194100000Y-65360000D01*
X194890000Y-97120000D02*
X194890000Y-100340000D01*
X194890000Y-100340000D02*
X192580000Y-102650000D01*
X192580000Y-102650000D02*
X192580000Y-105660000D01*
X190830000Y-93060000D02*
X194890000Y-97120000D01*
X190830000Y-82580000D02*
X190830000Y-93060000D01*
X189800000Y-81550000D02*
X190830000Y-82580000D01*
X189970000Y-103900000D02*
X189975000Y-103905000D01*
X189970000Y-102390000D02*
X189970000Y-103900000D01*
X193150000Y-99210000D02*
X189970000Y-102390000D01*
G04 #@! TA.AperFunction,Conductor*
G36*
X201027826Y-63342174D02*
G01*
X201049500Y-63394500D01*
X201049500Y-109155500D01*
X201027826Y-109207826D01*
X200975500Y-109229500D01*
X184714500Y-109229500D01*
X184662174Y-109207826D01*
X184640500Y-109155500D01*
X184640500Y-103905000D01*
X189469353Y-103905000D01*
X189489834Y-104047454D01*
X189549623Y-104178373D01*
X189643868Y-104287139D01*
X189643869Y-104287140D01*
X189643872Y-104287143D01*
X189764947Y-104364953D01*
X189871403Y-104396211D01*
X189903035Y-104405499D01*
X189903037Y-104405500D01*
X189903039Y-104405500D01*
X190046963Y-104405500D01*
X190046964Y-104405499D01*
X190185053Y-104364953D01*
X190306128Y-104287143D01*
X190400377Y-104178373D01*
X190460165Y-104047457D01*
X190480647Y-103905000D01*
X190460165Y-103762543D01*
X190400377Y-103631627D01*
X190306128Y-103522857D01*
X190280691Y-103506509D01*
X190248391Y-103459988D01*
X190246700Y-103444258D01*
X190246700Y-102535264D01*
X190268373Y-102482939D01*
X193019300Y-99732011D01*
X193071625Y-99710338D01*
X193073878Y-99710500D01*
X193078039Y-99710500D01*
X193221963Y-99710500D01*
X193221964Y-99710499D01*
X193360053Y-99669953D01*
X193481128Y-99592143D01*
X193575377Y-99483373D01*
X193635165Y-99352457D01*
X193655647Y-99210000D01*
X193635165Y-99067543D01*
X193575377Y-98936627D01*
X193481128Y-98827857D01*
X193424182Y-98791260D01*
X193360054Y-98750047D01*
X193360050Y-98750046D01*
X193221964Y-98709500D01*
X193221961Y-98709500D01*
X193078039Y-98709500D01*
X193078036Y-98709500D01*
X192939949Y-98750046D01*
X192939945Y-98750047D01*
X192818875Y-98827855D01*
X192818868Y-98827860D01*
X192724623Y-98936626D01*
X192664834Y-99067545D01*
X192644353Y-99210000D01*
X192653453Y-99273296D01*
X192639446Y-99328174D01*
X192632532Y-99336153D01*
X189748584Y-102220103D01*
X189748583Y-102220105D01*
X189712156Y-102283194D01*
X189712156Y-102283198D01*
X189693300Y-102353573D01*
X189693300Y-103450684D01*
X189671626Y-103503010D01*
X189659309Y-103512936D01*
X189643874Y-103522855D01*
X189643868Y-103522860D01*
X189549623Y-103631626D01*
X189489834Y-103762545D01*
X189469353Y-103905000D01*
X184640500Y-103905000D01*
X184640500Y-81550000D01*
X189294353Y-81550000D01*
X189314834Y-81692454D01*
X189374623Y-81823373D01*
X189468868Y-81932139D01*
X189468869Y-81932140D01*
X189468872Y-81932143D01*
X189589947Y-82009953D01*
X189696403Y-82041211D01*
X189728035Y-82050499D01*
X189728037Y-82050500D01*
X189877254Y-82050500D01*
X189877254Y-82053512D01*
X189922662Y-82065055D01*
X189930699Y-82072012D01*
X190531626Y-82672939D01*
X190553300Y-82725265D01*
X190553300Y-93023572D01*
X190553300Y-93096428D01*
X190572156Y-93166803D01*
X190608585Y-93229898D01*
X194591626Y-97212939D01*
X194613300Y-97265264D01*
X194613300Y-100194735D01*
X194591626Y-100247061D01*
X192358584Y-102480103D01*
X192358583Y-102480105D01*
X192322156Y-102543194D01*
X192322156Y-102543198D01*
X192303300Y-102613573D01*
X192303300Y-105202470D01*
X192281626Y-105254796D01*
X192269310Y-105264721D01*
X192248876Y-105277853D01*
X192248868Y-105277860D01*
X192154623Y-105386626D01*
X192094834Y-105517545D01*
X192074353Y-105660000D01*
X192094834Y-105802454D01*
X192094834Y-105802455D01*
X192094835Y-105802457D01*
X192154623Y-105933373D01*
X192248868Y-106042139D01*
X192248869Y-106042140D01*
X192248872Y-106042143D01*
X192369947Y-106119953D01*
X192476403Y-106151211D01*
X192508035Y-106160499D01*
X192508037Y-106160500D01*
X192508039Y-106160500D01*
X192651963Y-106160500D01*
X192651964Y-106160499D01*
X192790053Y-106119953D01*
X192911128Y-106042143D01*
X193005377Y-105933373D01*
X193065165Y-105802457D01*
X193085647Y-105660000D01*
X193065165Y-105517543D01*
X193005377Y-105386627D01*
X192911128Y-105277857D01*
X192911126Y-105277855D01*
X192911123Y-105277853D01*
X192890690Y-105264721D01*
X192858390Y-105218197D01*
X192856700Y-105202470D01*
X192856700Y-102795265D01*
X192878374Y-102742939D01*
X193401211Y-102220102D01*
X195111415Y-100509898D01*
X195147843Y-100446803D01*
X195147844Y-100446802D01*
X195166700Y-100376428D01*
X195166700Y-97083572D01*
X195147844Y-97013198D01*
X195147844Y-97013197D01*
X195147843Y-97013194D01*
X195129629Y-96981649D01*
X195111415Y-96950102D01*
X191128374Y-92967061D01*
X191106700Y-92914735D01*
X191106700Y-82543573D01*
X191087844Y-82473198D01*
X191087844Y-82473197D01*
X191087843Y-82473194D01*
X191069629Y-82441649D01*
X191051415Y-82410102D01*
X190317466Y-81676153D01*
X190295792Y-81623827D01*
X190296543Y-81613310D01*
X190305647Y-81550000D01*
X190285165Y-81407543D01*
X190225377Y-81276627D01*
X190131128Y-81167857D01*
X190074182Y-81131260D01*
X190010054Y-81090047D01*
X190010050Y-81090046D01*
X189871964Y-81049500D01*
X189871961Y-81049500D01*
X189728039Y-81049500D01*
X189728036Y-81049500D01*
X189589949Y-81090046D01*
X189589945Y-81090047D01*
X189468875Y-81167855D01*
X189468868Y-81167860D01*
X189374623Y-81276626D01*
X189314834Y-81407545D01*
X189294353Y-81550000D01*
X184640500Y-81550000D01*
X184640500Y-66229746D01*
X187969500Y-66229746D01*
X187981133Y-66288232D01*
X188010608Y-66332343D01*
X188025448Y-66354552D01*
X188054304Y-66373833D01*
X188091767Y-66398866D01*
X188091768Y-66398866D01*
X188091769Y-66398867D01*
X188150252Y-66410500D01*
X188150254Y-66410500D01*
X189889746Y-66410500D01*
X189889748Y-66410500D01*
X189948231Y-66398867D01*
X190014552Y-66354552D01*
X190058867Y-66288231D01*
X190070500Y-66229748D01*
X190070500Y-65360000D01*
X190504417Y-65360000D01*
X190524700Y-65565934D01*
X190584768Y-65763954D01*
X190682315Y-65946450D01*
X190813590Y-66106410D01*
X190973550Y-66237685D01*
X191156046Y-66335232D01*
X191354066Y-66395300D01*
X191560000Y-66415583D01*
X191765934Y-66395300D01*
X191963954Y-66335232D01*
X192146450Y-66237685D01*
X192306410Y-66106410D01*
X192437685Y-65946450D01*
X192535232Y-65763954D01*
X192595300Y-65565934D01*
X192615583Y-65360000D01*
X193044417Y-65360000D01*
X193064700Y-65565934D01*
X193124768Y-65763954D01*
X193222315Y-65946450D01*
X193353590Y-66106410D01*
X193513550Y-66237685D01*
X193696046Y-66335232D01*
X193770781Y-66357902D01*
X193814562Y-66393831D01*
X193823300Y-66428715D01*
X193823300Y-85413572D01*
X193823300Y-85486428D01*
X193842156Y-85556803D01*
X193878585Y-85619898D01*
X200131626Y-91872939D01*
X200153300Y-91925264D01*
X200153300Y-104794734D01*
X200131626Y-104847060D01*
X199935699Y-105042987D01*
X199883373Y-105064661D01*
X199881122Y-105064500D01*
X199876961Y-105064500D01*
X199733039Y-105064500D01*
X199733036Y-105064500D01*
X199594949Y-105105046D01*
X199594945Y-105105047D01*
X199473875Y-105182855D01*
X199473868Y-105182860D01*
X199379623Y-105291626D01*
X199319834Y-105422545D01*
X199299353Y-105565000D01*
X199319834Y-105707454D01*
X199379623Y-105838373D01*
X199473868Y-105947139D01*
X199473869Y-105947140D01*
X199473872Y-105947143D01*
X199594947Y-106024953D01*
X199701403Y-106056211D01*
X199733035Y-106065499D01*
X199733037Y-106065500D01*
X199733039Y-106065500D01*
X199876963Y-106065500D01*
X199876964Y-106065499D01*
X200015053Y-106024953D01*
X200136128Y-105947143D01*
X200230377Y-105838373D01*
X200290165Y-105707457D01*
X200310647Y-105565000D01*
X200301545Y-105501700D01*
X200315551Y-105446825D01*
X200322459Y-105438853D01*
X200651415Y-105109898D01*
X200687843Y-105046803D01*
X200687844Y-105046802D01*
X200706700Y-104976428D01*
X200706700Y-91743572D01*
X200687844Y-91673198D01*
X200687844Y-91673197D01*
X200687843Y-91673194D01*
X200669629Y-91641649D01*
X200651415Y-91610102D01*
X194398374Y-85357061D01*
X194376700Y-85304735D01*
X194376700Y-66428715D01*
X194398374Y-66376389D01*
X194429217Y-66357902D01*
X194503954Y-66335232D01*
X194686450Y-66237685D01*
X194846410Y-66106410D01*
X194977685Y-65946450D01*
X195075232Y-65763954D01*
X195135300Y-65565934D01*
X195155583Y-65360000D01*
X195584417Y-65360000D01*
X195604700Y-65565934D01*
X195664768Y-65763954D01*
X195762315Y-65946450D01*
X195893590Y-66106410D01*
X196053550Y-66237685D01*
X196236046Y-66335232D01*
X196434066Y-66395300D01*
X196640000Y-66415583D01*
X196845934Y-66395300D01*
X197043954Y-66335232D01*
X197226450Y-66237685D01*
X197386410Y-66106410D01*
X197517685Y-65946450D01*
X197615232Y-65763954D01*
X197675300Y-65565934D01*
X197695583Y-65360000D01*
X197675300Y-65154066D01*
X197615232Y-64956046D01*
X197517685Y-64773550D01*
X197386410Y-64613590D01*
X197226450Y-64482315D01*
X197043954Y-64384768D01*
X196932158Y-64350855D01*
X196845935Y-64324700D01*
X196640000Y-64304417D01*
X196434064Y-64324700D01*
X196236043Y-64384769D01*
X196053549Y-64482315D01*
X195893590Y-64613589D01*
X195893589Y-64613590D01*
X195762315Y-64773549D01*
X195664769Y-64956043D01*
X195604700Y-65154064D01*
X195604700Y-65154066D01*
X195584417Y-65360000D01*
X195155583Y-65360000D01*
X195135300Y-65154066D01*
X195075232Y-64956046D01*
X194977685Y-64773550D01*
X194846410Y-64613590D01*
X194686450Y-64482315D01*
X194503954Y-64384768D01*
X194392158Y-64350855D01*
X194305935Y-64324700D01*
X194100000Y-64304417D01*
X193894064Y-64324700D01*
X193696043Y-64384769D01*
X193513549Y-64482315D01*
X193353590Y-64613589D01*
X193353589Y-64613590D01*
X193222315Y-64773549D01*
X193124769Y-64956043D01*
X193064700Y-65154064D01*
X193064700Y-65154066D01*
X193044417Y-65360000D01*
X192615583Y-65360000D01*
X192595300Y-65154066D01*
X192535232Y-64956046D01*
X192437685Y-64773550D01*
X192306410Y-64613590D01*
X192146450Y-64482315D01*
X191963954Y-64384768D01*
X191852158Y-64350855D01*
X191765935Y-64324700D01*
X191560000Y-64304417D01*
X191354064Y-64324700D01*
X191156043Y-64384769D01*
X190973549Y-64482315D01*
X190813590Y-64613589D01*
X190813589Y-64613590D01*
X190682315Y-64773549D01*
X190584769Y-64956043D01*
X190524700Y-65154064D01*
X190524700Y-65154066D01*
X190504417Y-65360000D01*
X190070500Y-65360000D01*
X190070500Y-64490252D01*
X190058867Y-64431769D01*
X190014552Y-64365448D01*
X189992343Y-64350608D01*
X189948232Y-64321133D01*
X189948233Y-64321133D01*
X189918989Y-64315316D01*
X189889748Y-64309500D01*
X188150252Y-64309500D01*
X188121010Y-64315316D01*
X188091767Y-64321133D01*
X188025449Y-64365447D01*
X188025447Y-64365449D01*
X187981133Y-64431767D01*
X187969500Y-64490253D01*
X187969500Y-66229746D01*
X184640500Y-66229746D01*
X184640500Y-63394500D01*
X184662174Y-63342174D01*
X184714500Y-63320500D01*
X200975500Y-63320500D01*
X201027826Y-63342174D01*
G37*
G04 #@! TD.AperFunction*
M02*
