G04 #@! TF.GenerationSoftware,KiCad,Pcbnew,8.0.1*
G04 #@! TF.CreationDate,2025-02-25T23:19:28-07:00*
G04 #@! TF.ProjectId,Button_Flex,42757474-6f6e-45f4-966c-65782e6b6963,rev?*
G04 #@! TF.SameCoordinates,Original*
G04 #@! TF.FileFunction,Copper,L1,Top*
G04 #@! TF.FilePolarity,Positive*
%FSLAX46Y46*%
G04 Gerber Fmt 4.6, Leading zero omitted, Abs format (unit mm)*
G04 Created by KiCad (PCBNEW 8.0.1) date 2025-02-25 23:19:28*
%MOMM*%
%LPD*%
G01*
G04 APERTURE LIST*
G04 Aperture macros list*
%AMRoundRect*
0 Rectangle with rounded corners*
0 $1 Rounding radius*
0 $2 $3 $4 $5 $6 $7 $8 $9 X,Y pos of 4 corners*
0 Add a 4 corners polygon primitive as box body*
4,1,4,$2,$3,$4,$5,$6,$7,$8,$9,$2,$3,0*
0 Add four circle primitives for the rounded corners*
1,1,$1+$1,$2,$3*
1,1,$1+$1,$4,$5*
1,1,$1+$1,$6,$7*
1,1,$1+$1,$8,$9*
0 Add four rect primitives between the rounded corners*
20,1,$1+$1,$2,$3,$4,$5,0*
20,1,$1+$1,$4,$5,$6,$7,0*
20,1,$1+$1,$6,$7,$8,$9,0*
20,1,$1+$1,$8,$9,$2,$3,0*%
G04 Aperture macros list end*
G04 #@! TA.AperFunction,SMDPad,CuDef*
%ADD10RoundRect,0.200000X-0.200000X-0.275000X0.200000X-0.275000X0.200000X0.275000X-0.200000X0.275000X0*%
G04 #@! TD*
G04 #@! TA.AperFunction,SMDPad,CuDef*
%ADD11R,1.700000X0.650000*%
G04 #@! TD*
G04 #@! TA.AperFunction,SMDPad,CuDef*
%ADD12R,1.549908X1.400048*%
G04 #@! TD*
G04 #@! TA.AperFunction,SMDPad,CuDef*
%ADD13R,1.400048X1.549908*%
G04 #@! TD*
G04 #@! TA.AperFunction,SMDPad,CuDef*
%ADD14RoundRect,0.225000X-0.225000X-0.250000X0.225000X-0.250000X0.225000X0.250000X-0.225000X0.250000X0*%
G04 #@! TD*
G04 #@! TA.AperFunction,SMDPad,CuDef*
%ADD15RoundRect,0.200000X-0.275000X0.200000X-0.275000X-0.200000X0.275000X-0.200000X0.275000X0.200000X0*%
G04 #@! TD*
G04 #@! TA.AperFunction,SMDPad,CuDef*
%ADD16R,0.609600X1.320800*%
G04 #@! TD*
G04 #@! TA.AperFunction,ComponentPad*
%ADD17R,1.700000X1.700000*%
G04 #@! TD*
G04 #@! TA.AperFunction,ComponentPad*
%ADD18O,1.700000X1.700000*%
G04 #@! TD*
G04 #@! TA.AperFunction,SMDPad,CuDef*
%ADD19RoundRect,0.200000X0.275000X-0.200000X0.275000X0.200000X-0.275000X0.200000X-0.275000X-0.200000X0*%
G04 #@! TD*
G04 #@! TA.AperFunction,ViaPad*
%ADD20C,0.600000*%
G04 #@! TD*
G04 #@! TA.AperFunction,Conductor*
%ADD21C,0.152400*%
G04 #@! TD*
G04 APERTURE END LIST*
D10*
X198860000Y-107110000D03*
X197210000Y-107110000D03*
D11*
X187420000Y-103310000D03*
X187420000Y-104580000D03*
X187420000Y-105850000D03*
X187420000Y-107120000D03*
X194720000Y-107120000D03*
X194720000Y-105850000D03*
X194720000Y-104580000D03*
X194720000Y-103310000D03*
D12*
X188825002Y-95343900D03*
X188825002Y-99843902D03*
X196774998Y-99843902D03*
X196774998Y-95343900D03*
D13*
X194930000Y-91294998D03*
X199430002Y-91294998D03*
X199430002Y-83345002D03*
X194930000Y-83345002D03*
X186549999Y-91294998D03*
X191050001Y-91294998D03*
X191050001Y-83345002D03*
X186549999Y-83345002D03*
D12*
X188825002Y-74960000D03*
X188825002Y-79460002D03*
X196774998Y-79460002D03*
X196774998Y-74960000D03*
D14*
X199260000Y-103350000D03*
X197710000Y-103350000D03*
X191650000Y-71140000D03*
X193200000Y-71140000D03*
D15*
X199460000Y-78700000D03*
X199460000Y-80350000D03*
D14*
X191650000Y-68430000D03*
X193200000Y-68430000D03*
D16*
X186789999Y-70790400D03*
X188690001Y-70790400D03*
X187740000Y-68760000D03*
D15*
X185780000Y-76220000D03*
X185780000Y-77870000D03*
D17*
X189020000Y-65360000D03*
D18*
X191560000Y-65360000D03*
X194100000Y-65360000D03*
X196640000Y-65360000D03*
D10*
X196800000Y-70790000D03*
X198450000Y-70790000D03*
D19*
X185940000Y-98400000D03*
X185940000Y-96750000D03*
D20*
X192250000Y-72780000D03*
X199805000Y-105565000D03*
X199060000Y-100950000D03*
X189800000Y-81550000D03*
X192580000Y-105660000D03*
X193150000Y-99210000D03*
X189975000Y-103905000D03*
X199460000Y-73980000D03*
X185560000Y-81340000D03*
X192980000Y-81460000D03*
X197590000Y-93460000D03*
D21*
X198860000Y-106510000D02*
X198860000Y-107110000D01*
X199805000Y-105565000D02*
X198860000Y-106510000D01*
X197200000Y-107120000D02*
X197210000Y-107110000D01*
X194720000Y-107120000D02*
X197200000Y-107120000D01*
X192250000Y-72780000D02*
X191650000Y-72180000D01*
X191650000Y-72180000D02*
X191650000Y-71140000D01*
X197180000Y-82200000D02*
X197180000Y-85070000D01*
X199430002Y-87320002D02*
X199430002Y-91294998D01*
X197170000Y-81900000D02*
X197170000Y-82190000D01*
X197170000Y-82190000D02*
X197180000Y-82200000D01*
X197180000Y-85070000D02*
X199430002Y-87320002D01*
X198720000Y-80350000D02*
X197170000Y-81900000D01*
X199460000Y-80350000D02*
X198720000Y-80350000D01*
X199060000Y-100960000D02*
X199060000Y-100950000D01*
X198590000Y-101430000D02*
X199060000Y-100960000D01*
X197710000Y-102310000D02*
X198590000Y-101430000D01*
X197710000Y-103350000D02*
X197710000Y-102310000D01*
X193150000Y-99210000D02*
X194936276Y-99210000D01*
X199430002Y-94716274D02*
X199430002Y-91294998D01*
X194936276Y-99210000D02*
X199430002Y-94716274D01*
X189800000Y-81550000D02*
X189800000Y-81520000D01*
X188825002Y-80545002D02*
X188825002Y-79460002D01*
X189800000Y-81520000D02*
X188825002Y-80545002D01*
X192770000Y-105850000D02*
X192580000Y-105660000D01*
X194720000Y-105850000D02*
X192770000Y-105850000D01*
X189300000Y-104580000D02*
X187420000Y-104580000D01*
X189975000Y-103905000D02*
X189300000Y-104580000D01*
X188825002Y-100885002D02*
X188825002Y-99843902D01*
X190820000Y-102880000D02*
X188825002Y-100885002D01*
X190820000Y-105150000D02*
X190820000Y-102880000D01*
X190120000Y-105850000D02*
X190820000Y-105150000D01*
X187420000Y-105850000D02*
X190120000Y-105850000D01*
X185940000Y-99190000D02*
X185940000Y-98400000D01*
X186593902Y-99843902D02*
X185940000Y-99190000D01*
X188825002Y-99843902D02*
X186593902Y-99843902D01*
X191050001Y-93350001D02*
X191050001Y-91294998D01*
X191360000Y-93660000D02*
X191050001Y-93350001D01*
X191360000Y-103300000D02*
X191360000Y-93660000D01*
X192640000Y-104580000D02*
X191360000Y-103300000D01*
X194720000Y-104580000D02*
X192640000Y-104580000D01*
X197630000Y-72910000D02*
X198450000Y-72090000D01*
X192920000Y-74720000D02*
X194730000Y-72910000D01*
X192920000Y-76830000D02*
X192920000Y-74720000D01*
X198450000Y-72090000D02*
X198450000Y-70790000D01*
X190289998Y-79460002D02*
X192920000Y-76830000D01*
X188825002Y-79460002D02*
X190289998Y-79460002D01*
X194730000Y-72910000D02*
X197630000Y-72910000D01*
X198480000Y-74960000D02*
X199460000Y-73980000D01*
X196774998Y-74960000D02*
X198480000Y-74960000D01*
X189020000Y-66270000D02*
X189020000Y-65360000D01*
X187740000Y-67550000D02*
X189020000Y-66270000D01*
X187740000Y-68760000D02*
X187740000Y-67550000D01*
X186549999Y-82329999D02*
X185560000Y-81340000D01*
X186549999Y-83345002D02*
X186549999Y-82329999D01*
X194865002Y-83345002D02*
X192980000Y-81460000D01*
X194930000Y-83345002D02*
X194865002Y-83345002D01*
X196774998Y-94275002D02*
X197590000Y-93460000D01*
X196774998Y-95343900D02*
X196774998Y-94275002D01*
X194730000Y-107110000D02*
X194720000Y-107120000D01*
X194760000Y-103350000D02*
X194720000Y-103310000D01*
X197710000Y-103350000D02*
X194760000Y-103350000D01*
X191050001Y-89090001D02*
X191050001Y-91294998D01*
X188830000Y-82790000D02*
X188830000Y-86870000D01*
X185780000Y-79740000D02*
X188830000Y-82790000D01*
X185780000Y-77870000D02*
X185780000Y-79740000D01*
X188830000Y-86870000D02*
X191050001Y-89090001D01*
X189820400Y-70790400D02*
X188690001Y-70790400D01*
X190170000Y-71140000D02*
X189820400Y-70790400D01*
X191650000Y-71140000D02*
X190170000Y-71140000D01*
X189610000Y-68430000D02*
X191650000Y-68430000D01*
X189280000Y-68760000D02*
X189610000Y-68430000D01*
X187740000Y-68760000D02*
X189280000Y-68760000D01*
G04 #@! TA.AperFunction,Conductor*
G36*
X201022638Y-63338093D02*
G01*
X201048358Y-63382642D01*
X201049500Y-63395700D01*
X201049500Y-109154300D01*
X201031907Y-109202638D01*
X200987358Y-109228358D01*
X200974300Y-109229500D01*
X184715700Y-109229500D01*
X184667362Y-109211907D01*
X184641642Y-109167358D01*
X184640500Y-109154300D01*
X184640500Y-107370000D01*
X186070000Y-107370000D01*
X186070000Y-107492831D01*
X186076401Y-107552374D01*
X186076402Y-107552377D01*
X186126648Y-107687090D01*
X186126649Y-107687092D01*
X186212810Y-107802189D01*
X186327907Y-107888350D01*
X186327909Y-107888351D01*
X186462622Y-107938597D01*
X186462625Y-107938598D01*
X186522168Y-107944999D01*
X186522180Y-107945000D01*
X187170000Y-107945000D01*
X187170000Y-107370000D01*
X187670000Y-107370000D01*
X187670000Y-107945000D01*
X188317820Y-107945000D01*
X188317831Y-107944999D01*
X188377374Y-107938598D01*
X188377377Y-107938597D01*
X188512090Y-107888351D01*
X188512092Y-107888350D01*
X188627189Y-107802189D01*
X188713350Y-107687092D01*
X188713351Y-107687090D01*
X188763597Y-107552377D01*
X188763598Y-107552374D01*
X188769999Y-107492831D01*
X188770000Y-107492820D01*
X188770000Y-107464748D01*
X193669500Y-107464748D01*
X193681132Y-107523229D01*
X193681133Y-107523231D01*
X193725448Y-107589552D01*
X193791769Y-107633867D01*
X193821010Y-107639683D01*
X193850251Y-107645500D01*
X193850252Y-107645500D01*
X195589749Y-107645500D01*
X195609242Y-107641622D01*
X195648231Y-107633867D01*
X195714552Y-107589552D01*
X195758867Y-107523231D01*
X195770500Y-107464748D01*
X195770500Y-107464747D01*
X195770501Y-107464742D01*
X195770523Y-107464522D01*
X195770560Y-107464443D01*
X195771221Y-107461124D01*
X195772072Y-107461293D01*
X195792774Y-107418144D01*
X195839631Y-107396919D01*
X195845360Y-107396700D01*
X196542135Y-107396700D01*
X196590473Y-107414293D01*
X196616193Y-107458842D01*
X196616409Y-107460138D01*
X196624352Y-107510302D01*
X196681951Y-107623344D01*
X196771655Y-107713048D01*
X196771657Y-107713049D01*
X196771658Y-107713050D01*
X196884694Y-107770645D01*
X196884696Y-107770646D01*
X196978481Y-107785500D01*
X197441518Y-107785499D01*
X197449646Y-107784211D01*
X197535301Y-107770647D01*
X197535302Y-107770646D01*
X197535304Y-107770646D01*
X197648342Y-107713050D01*
X197738050Y-107623342D01*
X197795646Y-107510304D01*
X197810500Y-107416519D01*
X197810500Y-107416512D01*
X198259500Y-107416512D01*
X198259501Y-107416524D01*
X198274352Y-107510301D01*
X198331951Y-107623344D01*
X198421655Y-107713048D01*
X198421657Y-107713049D01*
X198421658Y-107713050D01*
X198534694Y-107770645D01*
X198534696Y-107770646D01*
X198628481Y-107785500D01*
X199091518Y-107785499D01*
X199099646Y-107784211D01*
X199185301Y-107770647D01*
X199185302Y-107770646D01*
X199185304Y-107770646D01*
X199298342Y-107713050D01*
X199388050Y-107623342D01*
X199445646Y-107510304D01*
X199460500Y-107416519D01*
X199460499Y-106803482D01*
X199456028Y-106775251D01*
X199445647Y-106709698D01*
X199415457Y-106650448D01*
X199388050Y-106596658D01*
X199388049Y-106596657D01*
X199388048Y-106596655D01*
X199329526Y-106538133D01*
X199307786Y-106491513D01*
X199321100Y-106441826D01*
X199329520Y-106431791D01*
X199673875Y-106087436D01*
X199720494Y-106065697D01*
X199727660Y-106065901D01*
X199727660Y-106065500D01*
X199876958Y-106065500D01*
X199876961Y-106065500D01*
X200015053Y-106024953D01*
X200136128Y-105947143D01*
X200230377Y-105838373D01*
X200290165Y-105707457D01*
X200310647Y-105565000D01*
X200290165Y-105422543D01*
X200273763Y-105386629D01*
X200230377Y-105291627D01*
X200230375Y-105291624D01*
X200139222Y-105186428D01*
X200136128Y-105182857D01*
X200136127Y-105182856D01*
X200136125Y-105182855D01*
X200099784Y-105159500D01*
X200015053Y-105105047D01*
X200015052Y-105105046D01*
X199876963Y-105064500D01*
X199876961Y-105064500D01*
X199733039Y-105064500D01*
X199733036Y-105064500D01*
X199594948Y-105105046D01*
X199473874Y-105182855D01*
X199473872Y-105182856D01*
X199379624Y-105291624D01*
X199379622Y-105291627D01*
X199319835Y-105422540D01*
X199299353Y-105565000D01*
X199308368Y-105627703D01*
X199297832Y-105678052D01*
X199287107Y-105691578D01*
X198638584Y-106340101D01*
X198597547Y-106411178D01*
X198558141Y-106444242D01*
X198544188Y-106447850D01*
X198541194Y-106448324D01*
X198534694Y-106449354D01*
X198421655Y-106506951D01*
X198331951Y-106596655D01*
X198274354Y-106709694D01*
X198259500Y-106803478D01*
X198259500Y-107416512D01*
X197810500Y-107416512D01*
X197810499Y-106803482D01*
X197806028Y-106775251D01*
X197795647Y-106709698D01*
X197765457Y-106650448D01*
X197738050Y-106596658D01*
X197738049Y-106596657D01*
X197738048Y-106596655D01*
X197648344Y-106506951D01*
X197535304Y-106449354D01*
X197535306Y-106449354D01*
X197487774Y-106441826D01*
X197441519Y-106434500D01*
X197441517Y-106434500D01*
X196978487Y-106434500D01*
X196978475Y-106434501D01*
X196884698Y-106449352D01*
X196771655Y-106506951D01*
X196681951Y-106596655D01*
X196624354Y-106709694D01*
X196619798Y-106738457D01*
X196613936Y-106775478D01*
X196613241Y-106779864D01*
X196588303Y-106824854D01*
X196540280Y-106843289D01*
X196538967Y-106843300D01*
X195845360Y-106843300D01*
X195797022Y-106825707D01*
X195771302Y-106781158D01*
X195770523Y-106775478D01*
X195770501Y-106775257D01*
X195758867Y-106716770D01*
X195758866Y-106716768D01*
X195754142Y-106709698D01*
X195714552Y-106650448D01*
X195648231Y-106606133D01*
X195648229Y-106606132D01*
X195589749Y-106594500D01*
X195589748Y-106594500D01*
X193850252Y-106594500D01*
X193850251Y-106594500D01*
X193791770Y-106606132D01*
X193791768Y-106606133D01*
X193725448Y-106650448D01*
X193681133Y-106716768D01*
X193681132Y-106716770D01*
X193669500Y-106775251D01*
X193669500Y-107464748D01*
X188770000Y-107464748D01*
X188770000Y-107370000D01*
X187670000Y-107370000D01*
X187170000Y-107370000D01*
X186070000Y-107370000D01*
X184640500Y-107370000D01*
X184640500Y-103654748D01*
X186369500Y-103654748D01*
X186381132Y-103713229D01*
X186381133Y-103713231D01*
X186425448Y-103779552D01*
X186491769Y-103823867D01*
X186521010Y-103829683D01*
X186550251Y-103835500D01*
X186550252Y-103835500D01*
X188289749Y-103835500D01*
X188309242Y-103831622D01*
X188348231Y-103823867D01*
X188414552Y-103779552D01*
X188458867Y-103713231D01*
X188470500Y-103654748D01*
X188470500Y-102965252D01*
X188458867Y-102906769D01*
X188414552Y-102840448D01*
X188348231Y-102796133D01*
X188348229Y-102796132D01*
X188289749Y-102784500D01*
X188289748Y-102784500D01*
X186550252Y-102784500D01*
X186550251Y-102784500D01*
X186491770Y-102796132D01*
X186491768Y-102796133D01*
X186425448Y-102840448D01*
X186381133Y-102906768D01*
X186381132Y-102906770D01*
X186369500Y-102965251D01*
X186369500Y-103654748D01*
X184640500Y-103654748D01*
X184640500Y-96500000D01*
X184965000Y-96500000D01*
X185690000Y-96500000D01*
X185690000Y-95850000D01*
X186190000Y-95850000D01*
X186190000Y-96500000D01*
X186914999Y-96500000D01*
X186914999Y-96493420D01*
X186914998Y-96493415D01*
X186908590Y-96422894D01*
X186858019Y-96260603D01*
X186770071Y-96115121D01*
X186718622Y-96063672D01*
X187849548Y-96063672D01*
X187861180Y-96122153D01*
X187861181Y-96122155D01*
X187905496Y-96188476D01*
X187971817Y-96232791D01*
X188001058Y-96238607D01*
X188030299Y-96244424D01*
X188030300Y-96244424D01*
X189619705Y-96244424D01*
X189639198Y-96240546D01*
X189678187Y-96232791D01*
X189744508Y-96188476D01*
X189788823Y-96122155D01*
X189800456Y-96063672D01*
X189800456Y-94624128D01*
X189799406Y-94618851D01*
X189788823Y-94565646D01*
X189788822Y-94565644D01*
X189744508Y-94499324D01*
X189678187Y-94455009D01*
X189678185Y-94455008D01*
X189619705Y-94443376D01*
X189619704Y-94443376D01*
X188030300Y-94443376D01*
X188030299Y-94443376D01*
X187971818Y-94455008D01*
X187971816Y-94455009D01*
X187905496Y-94499324D01*
X187861181Y-94565644D01*
X187861180Y-94565646D01*
X187849548Y-94624127D01*
X187849548Y-96063672D01*
X186718622Y-96063672D01*
X186649878Y-95994928D01*
X186504396Y-95906980D01*
X186342107Y-95856409D01*
X186342103Y-95856408D01*
X186271583Y-95850000D01*
X186190000Y-95850000D01*
X185690000Y-95850000D01*
X185608419Y-95850000D01*
X185608415Y-95850001D01*
X185537894Y-95856409D01*
X185375603Y-95906980D01*
X185230121Y-95994928D01*
X185109928Y-96115121D01*
X185021980Y-96260603D01*
X184971409Y-96422892D01*
X184971408Y-96422896D01*
X184965000Y-96493416D01*
X184965000Y-96500000D01*
X184640500Y-96500000D01*
X184640500Y-92089700D01*
X185649475Y-92089700D01*
X185661107Y-92148181D01*
X185661108Y-92148183D01*
X185705423Y-92214504D01*
X185771744Y-92258819D01*
X185800985Y-92264635D01*
X185830226Y-92270452D01*
X185830227Y-92270452D01*
X187269772Y-92270452D01*
X187289265Y-92266574D01*
X187328254Y-92258819D01*
X187394575Y-92214504D01*
X187438890Y-92148183D01*
X187450523Y-92089700D01*
X187450523Y-90500296D01*
X187438890Y-90441813D01*
X187394575Y-90375492D01*
X187328254Y-90331177D01*
X187328252Y-90331176D01*
X187269772Y-90319544D01*
X187269771Y-90319544D01*
X185830227Y-90319544D01*
X185830226Y-90319544D01*
X185771745Y-90331176D01*
X185771743Y-90331177D01*
X185705423Y-90375492D01*
X185661108Y-90441812D01*
X185661107Y-90441814D01*
X185649475Y-90500295D01*
X185649475Y-92089700D01*
X184640500Y-92089700D01*
X184640500Y-81340000D01*
X185054353Y-81340000D01*
X185074835Y-81482459D01*
X185134622Y-81613372D01*
X185134624Y-81613375D01*
X185203149Y-81692457D01*
X185228872Y-81722143D01*
X185349947Y-81799953D01*
X185488039Y-81840500D01*
X185488042Y-81840500D01*
X185637340Y-81840500D01*
X185637340Y-81843292D01*
X185677583Y-81851703D01*
X185691125Y-81862438D01*
X186069861Y-82241174D01*
X186091601Y-82287794D01*
X186078287Y-82337481D01*
X186036150Y-82366986D01*
X186016687Y-82369548D01*
X185830226Y-82369548D01*
X185771745Y-82381180D01*
X185771743Y-82381181D01*
X185705423Y-82425496D01*
X185661108Y-82491816D01*
X185661107Y-82491818D01*
X185649475Y-82550299D01*
X185649475Y-84139704D01*
X185661107Y-84198185D01*
X185661108Y-84198187D01*
X185705423Y-84264508D01*
X185771744Y-84308823D01*
X185800985Y-84314639D01*
X185830226Y-84320456D01*
X185830227Y-84320456D01*
X187269772Y-84320456D01*
X187289265Y-84316578D01*
X187328254Y-84308823D01*
X187394575Y-84264508D01*
X187438890Y-84198187D01*
X187450523Y-84139704D01*
X187450523Y-82550300D01*
X187438890Y-82491817D01*
X187394575Y-82425496D01*
X187328254Y-82381181D01*
X187328252Y-82381180D01*
X187269772Y-82369548D01*
X187269771Y-82369548D01*
X186901899Y-82369548D01*
X186853561Y-82351955D01*
X186827841Y-82307406D01*
X186826699Y-82294348D01*
X186826699Y-82293572D01*
X186807843Y-82223196D01*
X186807843Y-82223195D01*
X186771415Y-82160102D01*
X186077891Y-81466578D01*
X186056151Y-81419958D01*
X186056630Y-81402705D01*
X186065647Y-81340000D01*
X186045165Y-81197543D01*
X186040178Y-81186624D01*
X185985377Y-81066627D01*
X185985375Y-81066624D01*
X185891127Y-80957856D01*
X185891125Y-80957855D01*
X185770051Y-80880046D01*
X185770052Y-80880046D01*
X185631963Y-80839500D01*
X185631961Y-80839500D01*
X185488039Y-80839500D01*
X185488036Y-80839500D01*
X185349948Y-80880046D01*
X185228874Y-80957855D01*
X185228872Y-80957856D01*
X185134624Y-81066624D01*
X185134622Y-81066627D01*
X185074835Y-81197540D01*
X185054353Y-81340000D01*
X184640500Y-81340000D01*
X184640500Y-76470000D01*
X184805001Y-76470000D01*
X184805001Y-76476584D01*
X184811409Y-76547105D01*
X184861980Y-76709396D01*
X184949928Y-76854878D01*
X185070121Y-76975071D01*
X185215603Y-77063019D01*
X185377892Y-77113590D01*
X185377896Y-77113591D01*
X185448416Y-77119999D01*
X185461885Y-77119999D01*
X185510224Y-77137589D01*
X185535947Y-77182136D01*
X185527018Y-77232795D01*
X185487615Y-77265862D01*
X185473653Y-77269473D01*
X185379697Y-77284352D01*
X185266655Y-77341951D01*
X185176951Y-77431655D01*
X185119354Y-77544694D01*
X185104500Y-77638479D01*
X185104500Y-78101512D01*
X185104501Y-78101524D01*
X185119352Y-78195301D01*
X185176951Y-78308344D01*
X185266655Y-78398048D01*
X185266657Y-78398049D01*
X185266658Y-78398050D01*
X185379696Y-78455646D01*
X185439864Y-78465175D01*
X185484854Y-78490113D01*
X185503289Y-78538136D01*
X185503300Y-78539448D01*
X185503300Y-79703572D01*
X185503300Y-79776428D01*
X185522156Y-79846803D01*
X185558585Y-79909898D01*
X185558586Y-79909899D01*
X188531274Y-82882587D01*
X188553014Y-82929207D01*
X188553300Y-82935761D01*
X188553300Y-86833572D01*
X188553300Y-86906428D01*
X188572156Y-86976803D01*
X188608585Y-87039898D01*
X188608586Y-87039899D01*
X190751275Y-89182588D01*
X190773015Y-89229208D01*
X190773301Y-89235762D01*
X190773301Y-90244344D01*
X190755708Y-90292682D01*
X190711159Y-90318402D01*
X190698101Y-90319544D01*
X190330228Y-90319544D01*
X190271747Y-90331176D01*
X190271745Y-90331177D01*
X190205425Y-90375492D01*
X190161110Y-90441812D01*
X190161109Y-90441814D01*
X190149477Y-90500295D01*
X190149477Y-92089700D01*
X190161109Y-92148181D01*
X190161110Y-92148183D01*
X190205425Y-92214504D01*
X190271746Y-92258819D01*
X190300987Y-92264635D01*
X190330228Y-92270452D01*
X190330229Y-92270452D01*
X190698101Y-92270452D01*
X190746439Y-92288045D01*
X190772159Y-92332594D01*
X190773301Y-92345652D01*
X190773301Y-93313573D01*
X190773301Y-93386429D01*
X190792157Y-93456804D01*
X190828586Y-93519899D01*
X190828587Y-93519900D01*
X191061274Y-93752587D01*
X191083014Y-93799207D01*
X191083300Y-93805761D01*
X191083300Y-102570439D01*
X191065707Y-102618777D01*
X191021158Y-102644497D01*
X190970500Y-102635564D01*
X190954926Y-102623613D01*
X189204113Y-100872800D01*
X189182373Y-100826180D01*
X189195687Y-100776493D01*
X189237824Y-100746988D01*
X189257287Y-100744426D01*
X189619705Y-100744426D01*
X189639198Y-100740548D01*
X189678187Y-100732793D01*
X189744508Y-100688478D01*
X189788823Y-100622157D01*
X189800456Y-100563674D01*
X189800456Y-99124130D01*
X189788823Y-99065647D01*
X189744508Y-98999326D01*
X189678187Y-98955011D01*
X189678185Y-98955010D01*
X189619705Y-98943378D01*
X189619704Y-98943378D01*
X188030300Y-98943378D01*
X188030299Y-98943378D01*
X187971818Y-98955010D01*
X187971816Y-98955011D01*
X187905496Y-98999326D01*
X187861181Y-99065646D01*
X187861180Y-99065648D01*
X187849548Y-99124129D01*
X187849548Y-99492002D01*
X187831955Y-99540340D01*
X187787406Y-99566060D01*
X187774348Y-99567202D01*
X186739663Y-99567202D01*
X186691325Y-99549609D01*
X186686489Y-99545176D01*
X186260489Y-99119176D01*
X186238749Y-99072556D01*
X186252063Y-99022869D01*
X186294200Y-98993364D01*
X186301887Y-98991730D01*
X186340304Y-98985646D01*
X186453342Y-98928050D01*
X186543050Y-98838342D01*
X186600646Y-98725304D01*
X186615500Y-98631519D01*
X186615499Y-98168482D01*
X186615498Y-98168475D01*
X186600647Y-98074698D01*
X186543048Y-97961655D01*
X186453344Y-97871951D01*
X186340304Y-97814354D01*
X186340306Y-97814354D01*
X186287037Y-97805917D01*
X186246519Y-97799500D01*
X186246517Y-97799500D01*
X186246347Y-97799473D01*
X186201357Y-97774535D01*
X186182922Y-97726511D01*
X186199670Y-97677874D01*
X186243762Y-97651381D01*
X186258111Y-97649999D01*
X186271581Y-97649999D01*
X186271584Y-97649998D01*
X186342105Y-97643590D01*
X186504396Y-97593019D01*
X186649878Y-97505071D01*
X186770071Y-97384878D01*
X186858019Y-97239396D01*
X186908590Y-97077107D01*
X186908591Y-97077103D01*
X186914999Y-97006583D01*
X186915000Y-97006582D01*
X186915000Y-97000000D01*
X184965001Y-97000000D01*
X184965001Y-97006584D01*
X184971409Y-97077105D01*
X185021980Y-97239396D01*
X185109928Y-97384878D01*
X185230121Y-97505071D01*
X185375603Y-97593019D01*
X185537892Y-97643590D01*
X185537896Y-97643591D01*
X185608416Y-97649999D01*
X185621885Y-97649999D01*
X185670224Y-97667589D01*
X185695947Y-97712136D01*
X185687018Y-97762795D01*
X185647615Y-97795862D01*
X185633653Y-97799473D01*
X185539697Y-97814352D01*
X185426655Y-97871951D01*
X185336951Y-97961655D01*
X185279354Y-98074694D01*
X185264500Y-98168479D01*
X185264500Y-98631512D01*
X185264501Y-98631524D01*
X185279352Y-98725301D01*
X185336951Y-98838344D01*
X185426655Y-98928048D01*
X185426657Y-98928049D01*
X185426658Y-98928050D01*
X185539696Y-98985646D01*
X185599864Y-98995175D01*
X185644854Y-99020113D01*
X185663289Y-99068136D01*
X185663300Y-99069449D01*
X185663300Y-99153572D01*
X185663300Y-99226428D01*
X185682156Y-99296803D01*
X185718585Y-99359898D01*
X186424004Y-100065317D01*
X186487099Y-100101746D01*
X186557474Y-100120602D01*
X187774348Y-100120602D01*
X187822686Y-100138195D01*
X187848406Y-100182744D01*
X187849548Y-100195802D01*
X187849548Y-100563674D01*
X187861180Y-100622155D01*
X187861181Y-100622157D01*
X187905496Y-100688478D01*
X187971817Y-100732793D01*
X188001058Y-100738609D01*
X188030299Y-100744426D01*
X188030300Y-100744426D01*
X188473102Y-100744426D01*
X188521440Y-100762019D01*
X188547160Y-100806568D01*
X188548302Y-100819626D01*
X188548302Y-100848574D01*
X188548302Y-100921430D01*
X188567158Y-100991805D01*
X188584271Y-101021444D01*
X188603588Y-101054901D01*
X190521274Y-102972587D01*
X190543014Y-103019207D01*
X190543300Y-103025761D01*
X190543300Y-103598895D01*
X190525707Y-103647233D01*
X190481158Y-103672953D01*
X190430500Y-103664020D01*
X190404468Y-103635386D01*
X190403283Y-103636149D01*
X190400375Y-103631624D01*
X190306127Y-103522856D01*
X190306125Y-103522855D01*
X190185051Y-103445046D01*
X190185052Y-103445046D01*
X190046963Y-103404500D01*
X190046961Y-103404500D01*
X189903039Y-103404500D01*
X189903036Y-103404500D01*
X189764948Y-103445046D01*
X189643874Y-103522855D01*
X189643872Y-103522856D01*
X189549624Y-103631624D01*
X189549622Y-103631627D01*
X189489835Y-103762540D01*
X189469353Y-103905000D01*
X189478368Y-103967701D01*
X189467832Y-104018051D01*
X189457108Y-104031577D01*
X189207413Y-104281274D01*
X189160792Y-104303014D01*
X189154238Y-104303300D01*
X188545360Y-104303300D01*
X188497022Y-104285707D01*
X188471302Y-104241158D01*
X188470523Y-104235478D01*
X188470501Y-104235257D01*
X188458867Y-104176770D01*
X188458866Y-104176768D01*
X188414552Y-104110448D01*
X188348231Y-104066133D01*
X188348229Y-104066132D01*
X188289749Y-104054500D01*
X188289748Y-104054500D01*
X186550252Y-104054500D01*
X186550251Y-104054500D01*
X186491770Y-104066132D01*
X186491768Y-104066133D01*
X186425448Y-104110448D01*
X186381133Y-104176768D01*
X186381132Y-104176770D01*
X186369500Y-104235251D01*
X186369500Y-104924748D01*
X186381132Y-104983229D01*
X186381133Y-104983231D01*
X186425448Y-105049552D01*
X186491769Y-105093867D01*
X186521010Y-105099683D01*
X186550251Y-105105500D01*
X186550252Y-105105500D01*
X188289749Y-105105500D01*
X188309242Y-105101622D01*
X188348231Y-105093867D01*
X188414552Y-105049552D01*
X188458867Y-104983231D01*
X188470500Y-104924748D01*
X188470500Y-104924747D01*
X188470501Y-104924742D01*
X188470523Y-104924522D01*
X188470560Y-104924443D01*
X188471221Y-104921124D01*
X188472072Y-104921293D01*
X188492774Y-104878144D01*
X188539631Y-104856919D01*
X188545360Y-104856700D01*
X189336427Y-104856700D01*
X189336428Y-104856700D01*
X189406803Y-104837844D01*
X189469898Y-104801415D01*
X189843875Y-104427437D01*
X189890494Y-104405698D01*
X189897660Y-104405897D01*
X189897660Y-104405500D01*
X190046958Y-104405500D01*
X190046961Y-104405500D01*
X190185053Y-104364953D01*
X190306128Y-104287143D01*
X190400377Y-104178373D01*
X190400378Y-104178369D01*
X190403283Y-104173851D01*
X190404711Y-104174769D01*
X190435776Y-104143205D01*
X190486983Y-104138313D01*
X190529354Y-104167481D01*
X190543300Y-104211104D01*
X190543300Y-105004239D01*
X190525707Y-105052577D01*
X190521274Y-105057413D01*
X190027413Y-105551274D01*
X189980793Y-105573014D01*
X189974239Y-105573300D01*
X188545360Y-105573300D01*
X188497022Y-105555707D01*
X188471302Y-105511158D01*
X188470523Y-105505478D01*
X188470501Y-105505257D01*
X188458867Y-105446770D01*
X188458866Y-105446768D01*
X188442677Y-105422540D01*
X188414552Y-105380448D01*
X188348231Y-105336133D01*
X188348229Y-105336132D01*
X188289749Y-105324500D01*
X188289748Y-105324500D01*
X186550252Y-105324500D01*
X186550251Y-105324500D01*
X186491770Y-105336132D01*
X186491768Y-105336133D01*
X186425448Y-105380448D01*
X186381133Y-105446768D01*
X186381132Y-105446770D01*
X186369500Y-105505251D01*
X186369500Y-106194748D01*
X186382578Y-106260495D01*
X186380008Y-106261006D01*
X186381741Y-106300669D01*
X186350428Y-106341480D01*
X186336306Y-106348514D01*
X186327918Y-106351643D01*
X186327907Y-106351649D01*
X186212810Y-106437810D01*
X186126649Y-106552907D01*
X186126648Y-106552909D01*
X186076402Y-106687622D01*
X186076401Y-106687625D01*
X186070000Y-106747168D01*
X186070000Y-106870000D01*
X188770000Y-106870000D01*
X188770000Y-106747180D01*
X188769999Y-106747168D01*
X188763598Y-106687625D01*
X188763597Y-106687622D01*
X188713351Y-106552909D01*
X188713350Y-106552907D01*
X188627189Y-106437810D01*
X188512092Y-106351649D01*
X188512088Y-106351647D01*
X188503699Y-106348518D01*
X188464557Y-106315142D01*
X188456026Y-106264414D01*
X188457906Y-106258057D01*
X188458865Y-106253233D01*
X188458867Y-106253231D01*
X188470500Y-106194748D01*
X188470500Y-106194747D01*
X188470501Y-106194742D01*
X188470523Y-106194522D01*
X188470560Y-106194443D01*
X188471221Y-106191124D01*
X188472072Y-106191293D01*
X188492774Y-106148144D01*
X188539631Y-106126919D01*
X188545360Y-106126700D01*
X190156427Y-106126700D01*
X190156428Y-106126700D01*
X190226803Y-106107844D01*
X190289898Y-106071415D01*
X190701313Y-105660000D01*
X192074353Y-105660000D01*
X192094835Y-105802459D01*
X192154622Y-105933372D01*
X192154624Y-105933375D01*
X192233977Y-106024953D01*
X192248872Y-106042143D01*
X192369947Y-106119953D01*
X192508039Y-106160500D01*
X192508042Y-106160500D01*
X192651958Y-106160500D01*
X192651961Y-106160500D01*
X192756701Y-106129745D01*
X192777887Y-106126700D01*
X193594640Y-106126700D01*
X193642978Y-106144293D01*
X193668698Y-106188842D01*
X193669477Y-106194522D01*
X193669498Y-106194742D01*
X193681132Y-106253229D01*
X193681133Y-106253231D01*
X193725448Y-106319552D01*
X193791769Y-106363867D01*
X193821010Y-106369683D01*
X193850251Y-106375500D01*
X193850252Y-106375500D01*
X195589749Y-106375500D01*
X195609242Y-106371622D01*
X195648231Y-106363867D01*
X195714552Y-106319552D01*
X195758867Y-106253231D01*
X195770500Y-106194748D01*
X195770500Y-105505252D01*
X195758867Y-105446769D01*
X195714552Y-105380448D01*
X195648231Y-105336133D01*
X195648229Y-105336132D01*
X195589749Y-105324500D01*
X195589748Y-105324500D01*
X193850252Y-105324500D01*
X193850251Y-105324500D01*
X193791770Y-105336132D01*
X193791768Y-105336133D01*
X193725448Y-105380448D01*
X193681133Y-105446768D01*
X193681132Y-105446770D01*
X193669498Y-105505257D01*
X193669477Y-105505478D01*
X193669439Y-105505556D01*
X193668779Y-105508876D01*
X193667927Y-105508706D01*
X193647226Y-105551856D01*
X193600369Y-105573081D01*
X193594640Y-105573300D01*
X193137831Y-105573300D01*
X193089493Y-105555707D01*
X193067656Y-105522317D01*
X193067399Y-105522435D01*
X193066625Y-105520741D01*
X193065679Y-105519294D01*
X193065164Y-105517541D01*
X193005378Y-105386629D01*
X193005375Y-105386624D01*
X192911127Y-105277856D01*
X192911125Y-105277855D01*
X192790051Y-105200046D01*
X192790052Y-105200046D01*
X192651963Y-105159500D01*
X192651961Y-105159500D01*
X192508039Y-105159500D01*
X192508036Y-105159500D01*
X192369948Y-105200046D01*
X192248874Y-105277855D01*
X192248872Y-105277856D01*
X192154624Y-105386624D01*
X192154622Y-105386627D01*
X192094835Y-105517540D01*
X192074353Y-105660000D01*
X190701313Y-105660000D01*
X191041415Y-105319898D01*
X191059658Y-105288300D01*
X191077844Y-105256802D01*
X191096700Y-105186428D01*
X191096700Y-103609561D01*
X191114293Y-103561223D01*
X191158842Y-103535503D01*
X191209500Y-103544436D01*
X191225074Y-103556387D01*
X192418585Y-104749898D01*
X192470102Y-104801415D01*
X192533198Y-104837844D01*
X192603572Y-104856700D01*
X193594640Y-104856700D01*
X193642978Y-104874293D01*
X193668698Y-104918842D01*
X193669477Y-104924522D01*
X193669498Y-104924742D01*
X193681132Y-104983229D01*
X193681133Y-104983231D01*
X193725448Y-105049552D01*
X193791769Y-105093867D01*
X193821010Y-105099683D01*
X193850251Y-105105500D01*
X193850252Y-105105500D01*
X195589749Y-105105500D01*
X195609242Y-105101622D01*
X195648231Y-105093867D01*
X195714552Y-105049552D01*
X195758867Y-104983231D01*
X195770500Y-104924748D01*
X195770500Y-104235252D01*
X195758867Y-104176769D01*
X195714552Y-104110448D01*
X195648231Y-104066133D01*
X195648229Y-104066132D01*
X195589749Y-104054500D01*
X195589748Y-104054500D01*
X193850252Y-104054500D01*
X193850251Y-104054500D01*
X193791770Y-104066132D01*
X193791768Y-104066133D01*
X193725448Y-104110448D01*
X193681133Y-104176768D01*
X193681132Y-104176770D01*
X193669498Y-104235257D01*
X193669477Y-104235478D01*
X193669439Y-104235556D01*
X193668779Y-104238876D01*
X193667927Y-104238706D01*
X193647226Y-104281856D01*
X193600369Y-104303081D01*
X193594640Y-104303300D01*
X192785761Y-104303300D01*
X192737423Y-104285707D01*
X192732587Y-104281274D01*
X192106061Y-103654748D01*
X193669500Y-103654748D01*
X193681132Y-103713229D01*
X193681133Y-103713231D01*
X193725448Y-103779552D01*
X193791769Y-103823867D01*
X193821010Y-103829683D01*
X193850251Y-103835500D01*
X193850252Y-103835500D01*
X195589749Y-103835500D01*
X195609242Y-103831622D01*
X195648231Y-103823867D01*
X195714552Y-103779552D01*
X195758867Y-103713231D01*
X195764039Y-103687228D01*
X195790725Y-103643253D01*
X195837794Y-103626700D01*
X196994198Y-103626700D01*
X197042536Y-103644293D01*
X197068256Y-103688842D01*
X197068472Y-103690136D01*
X197075281Y-103733127D01*
X197136473Y-103853222D01*
X197231777Y-103948526D01*
X197231779Y-103948527D01*
X197231780Y-103948528D01*
X197351872Y-104009718D01*
X197351874Y-104009719D01*
X197451512Y-104025500D01*
X197451516Y-104025500D01*
X197968484Y-104025500D01*
X197968488Y-104025500D01*
X198068126Y-104009719D01*
X198188220Y-103948528D01*
X198251340Y-103885407D01*
X198297959Y-103863668D01*
X198347646Y-103876981D01*
X198371022Y-103904838D01*
X198371154Y-103904757D01*
X198371709Y-103905657D01*
X198372669Y-103906801D01*
X198373456Y-103908490D01*
X198462424Y-104052728D01*
X198462427Y-104052732D01*
X198582267Y-104172572D01*
X198582271Y-104172575D01*
X198726514Y-104261545D01*
X198726513Y-104261545D01*
X198887392Y-104314855D01*
X198887391Y-104314855D01*
X198986690Y-104324999D01*
X199009999Y-104324999D01*
X199010000Y-104324998D01*
X199010000Y-103600000D01*
X199510000Y-103600000D01*
X199510000Y-104324999D01*
X199533309Y-104324999D01*
X199632610Y-104314854D01*
X199793486Y-104261545D01*
X199937728Y-104172575D01*
X199937732Y-104172572D01*
X200057572Y-104052732D01*
X200057575Y-104052728D01*
X200146545Y-103908486D01*
X200199855Y-103747607D01*
X200210000Y-103648308D01*
X200210000Y-103600000D01*
X199510000Y-103600000D01*
X199010000Y-103600000D01*
X199010000Y-102375000D01*
X199510000Y-102375000D01*
X199510000Y-103100000D01*
X200209999Y-103100000D01*
X200209999Y-103051690D01*
X200199854Y-102952389D01*
X200146545Y-102791513D01*
X200057575Y-102647271D01*
X200057572Y-102647267D01*
X199937732Y-102527427D01*
X199937728Y-102527424D01*
X199793485Y-102438454D01*
X199793486Y-102438454D01*
X199632607Y-102385144D01*
X199632608Y-102385144D01*
X199533309Y-102375000D01*
X199510000Y-102375000D01*
X199010000Y-102375000D01*
X198986690Y-102375000D01*
X198887389Y-102385145D01*
X198726513Y-102438454D01*
X198582271Y-102527424D01*
X198582267Y-102527427D01*
X198462427Y-102647267D01*
X198462424Y-102647271D01*
X198373450Y-102791519D01*
X198372666Y-102793202D01*
X198372005Y-102793862D01*
X198371154Y-102795243D01*
X198370826Y-102795041D01*
X198336291Y-102829573D01*
X198285046Y-102834053D01*
X198251340Y-102814591D01*
X198188222Y-102751473D01*
X198068129Y-102690282D01*
X198068126Y-102690281D01*
X198061335Y-102689205D01*
X198050134Y-102687431D01*
X198005144Y-102662491D01*
X197986711Y-102614467D01*
X197986700Y-102613157D01*
X197986700Y-102455761D01*
X198004293Y-102407423D01*
X198008726Y-102402587D01*
X198811415Y-101599898D01*
X198938786Y-101472526D01*
X198985407Y-101450786D01*
X198991961Y-101450500D01*
X199131958Y-101450500D01*
X199131961Y-101450500D01*
X199270053Y-101409953D01*
X199391128Y-101332143D01*
X199485377Y-101223373D01*
X199545165Y-101092457D01*
X199565647Y-100950000D01*
X199545165Y-100807543D01*
X199511027Y-100732793D01*
X199485377Y-100676627D01*
X199485375Y-100676624D01*
X199391127Y-100567856D01*
X199391125Y-100567855D01*
X199270051Y-100490046D01*
X199270052Y-100490046D01*
X199131963Y-100449500D01*
X199131961Y-100449500D01*
X198988039Y-100449500D01*
X198988036Y-100449500D01*
X198849948Y-100490046D01*
X198728874Y-100567855D01*
X198728872Y-100567856D01*
X198634624Y-100676624D01*
X198634622Y-100676627D01*
X198574835Y-100807540D01*
X198554353Y-100950000D01*
X198564625Y-101021444D01*
X198554089Y-101071794D01*
X198543365Y-101085320D01*
X198420102Y-101208585D01*
X198420101Y-101208585D01*
X197488583Y-102140103D01*
X197452155Y-102203196D01*
X197452156Y-102203197D01*
X197433300Y-102273573D01*
X197433300Y-102613157D01*
X197415707Y-102661495D01*
X197371158Y-102687215D01*
X197369866Y-102687431D01*
X197351874Y-102690281D01*
X197351870Y-102690282D01*
X197231777Y-102751473D01*
X197136473Y-102846777D01*
X197075281Y-102966872D01*
X197068472Y-103009864D01*
X197043533Y-103054854D01*
X196995510Y-103073289D01*
X196994198Y-103073300D01*
X195845700Y-103073300D01*
X195797362Y-103055707D01*
X195771642Y-103011158D01*
X195770500Y-102998100D01*
X195770500Y-102965251D01*
X195758867Y-102906770D01*
X195758866Y-102906768D01*
X195714552Y-102840448D01*
X195648231Y-102796133D01*
X195648229Y-102796132D01*
X195589749Y-102784500D01*
X195589748Y-102784500D01*
X193850252Y-102784500D01*
X193850251Y-102784500D01*
X193791770Y-102796132D01*
X193791768Y-102796133D01*
X193725448Y-102840448D01*
X193681133Y-102906768D01*
X193681132Y-102906770D01*
X193669500Y-102965251D01*
X193669500Y-103654748D01*
X192106061Y-103654748D01*
X191658726Y-103207413D01*
X191636986Y-103160793D01*
X191636700Y-103154239D01*
X191636700Y-100563674D01*
X195799544Y-100563674D01*
X195811176Y-100622155D01*
X195811177Y-100622157D01*
X195855492Y-100688478D01*
X195921813Y-100732793D01*
X195951054Y-100738609D01*
X195980295Y-100744426D01*
X195980296Y-100744426D01*
X197569701Y-100744426D01*
X197589194Y-100740548D01*
X197628183Y-100732793D01*
X197694504Y-100688478D01*
X197738819Y-100622157D01*
X197750452Y-100563674D01*
X197750452Y-99124130D01*
X197738819Y-99065647D01*
X197694504Y-98999326D01*
X197628183Y-98955011D01*
X197628181Y-98955010D01*
X197569701Y-98943378D01*
X197569700Y-98943378D01*
X195980296Y-98943378D01*
X195980295Y-98943378D01*
X195921814Y-98955010D01*
X195921812Y-98955011D01*
X195855492Y-98999326D01*
X195811177Y-99065646D01*
X195811176Y-99065648D01*
X195799544Y-99124129D01*
X195799544Y-100563674D01*
X191636700Y-100563674D01*
X191636700Y-99210000D01*
X192644353Y-99210000D01*
X192664835Y-99352459D01*
X192724622Y-99483372D01*
X192724624Y-99483375D01*
X192778175Y-99545176D01*
X192818872Y-99592143D01*
X192939947Y-99669953D01*
X193078039Y-99710500D01*
X193078042Y-99710500D01*
X193221958Y-99710500D01*
X193221961Y-99710500D01*
X193360053Y-99669953D01*
X193481128Y-99592143D01*
X193521825Y-99545176D01*
X193550005Y-99512655D01*
X193594955Y-99487645D01*
X193606837Y-99486700D01*
X194972703Y-99486700D01*
X194972704Y-99486700D01*
X195043079Y-99467844D01*
X195106174Y-99431415D01*
X199651417Y-94886172D01*
X199687845Y-94823077D01*
X199687846Y-94823076D01*
X199706702Y-94752702D01*
X199706702Y-92345652D01*
X199724295Y-92297314D01*
X199768844Y-92271594D01*
X199781902Y-92270452D01*
X200149775Y-92270452D01*
X200169268Y-92266574D01*
X200208257Y-92258819D01*
X200274578Y-92214504D01*
X200318893Y-92148183D01*
X200330526Y-92089700D01*
X200330526Y-90500296D01*
X200318893Y-90441813D01*
X200274578Y-90375492D01*
X200208257Y-90331177D01*
X200208255Y-90331176D01*
X200149775Y-90319544D01*
X200149774Y-90319544D01*
X199781902Y-90319544D01*
X199733564Y-90301951D01*
X199707844Y-90257402D01*
X199706702Y-90244344D01*
X199706702Y-87283575D01*
X199687846Y-87213201D01*
X199687845Y-87213199D01*
X199651416Y-87150103D01*
X199599900Y-87098587D01*
X197478726Y-84977413D01*
X197456986Y-84930793D01*
X197456700Y-84924239D01*
X197456700Y-84139704D01*
X198529478Y-84139704D01*
X198541110Y-84198185D01*
X198541111Y-84198187D01*
X198585426Y-84264508D01*
X198651747Y-84308823D01*
X198680988Y-84314639D01*
X198710229Y-84320456D01*
X198710230Y-84320456D01*
X200149775Y-84320456D01*
X200169268Y-84316578D01*
X200208257Y-84308823D01*
X200274578Y-84264508D01*
X200318893Y-84198187D01*
X200330526Y-84139704D01*
X200330526Y-82550300D01*
X200318893Y-82491817D01*
X200274578Y-82425496D01*
X200208257Y-82381181D01*
X200208255Y-82381180D01*
X200149775Y-82369548D01*
X200149774Y-82369548D01*
X198710230Y-82369548D01*
X198710229Y-82369548D01*
X198651748Y-82381180D01*
X198651746Y-82381181D01*
X198585426Y-82425496D01*
X198541111Y-82491816D01*
X198541110Y-82491818D01*
X198529478Y-82550299D01*
X198529478Y-84139704D01*
X197456700Y-84139704D01*
X197456700Y-82163571D01*
X197454021Y-82153573D01*
X197454021Y-82153572D01*
X197449262Y-82135809D01*
X197446700Y-82116348D01*
X197446700Y-82045760D01*
X197464293Y-81997422D01*
X197468715Y-81992597D01*
X198721662Y-80739649D01*
X198768281Y-80717910D01*
X198817968Y-80731224D01*
X198841837Y-80758682D01*
X198856465Y-80787391D01*
X198856951Y-80788344D01*
X198946655Y-80878048D01*
X198946657Y-80878049D01*
X198946658Y-80878050D01*
X199059694Y-80935645D01*
X199059696Y-80935646D01*
X199153481Y-80950500D01*
X199766518Y-80950499D01*
X199774646Y-80949211D01*
X199860301Y-80935647D01*
X199860302Y-80935646D01*
X199860304Y-80935646D01*
X199973342Y-80878050D01*
X200063050Y-80788342D01*
X200120646Y-80675304D01*
X200135500Y-80581519D01*
X200135499Y-80118482D01*
X200131330Y-80092155D01*
X200120647Y-80024698D01*
X200063048Y-79911655D01*
X199973344Y-79821951D01*
X199860304Y-79764354D01*
X199860306Y-79764354D01*
X199807037Y-79755917D01*
X199766519Y-79749500D01*
X199766517Y-79749500D01*
X199766347Y-79749473D01*
X199721357Y-79724535D01*
X199702922Y-79676511D01*
X199719670Y-79627874D01*
X199763762Y-79601381D01*
X199778111Y-79599999D01*
X199791581Y-79599999D01*
X199791584Y-79599998D01*
X199862105Y-79593590D01*
X200024396Y-79543019D01*
X200169878Y-79455071D01*
X200290071Y-79334878D01*
X200378019Y-79189396D01*
X200428590Y-79027107D01*
X200428591Y-79027103D01*
X200434999Y-78956583D01*
X200435000Y-78956582D01*
X200435000Y-78950000D01*
X198485001Y-78950000D01*
X198485001Y-78956584D01*
X198491409Y-79027105D01*
X198541980Y-79189396D01*
X198629928Y-79334878D01*
X198750121Y-79455071D01*
X198895603Y-79543019D01*
X199057892Y-79593590D01*
X199057896Y-79593591D01*
X199128416Y-79599999D01*
X199141885Y-79599999D01*
X199190224Y-79617589D01*
X199215947Y-79662136D01*
X199207018Y-79712795D01*
X199167615Y-79745862D01*
X199153653Y-79749473D01*
X199059697Y-79764352D01*
X198946655Y-79821951D01*
X198856951Y-79911655D01*
X198796667Y-80029969D01*
X198794545Y-80028888D01*
X198768772Y-80061875D01*
X198728925Y-80073300D01*
X198683572Y-80073300D01*
X198657816Y-80080200D01*
X198613199Y-80092155D01*
X198550100Y-80128586D01*
X196948583Y-81730103D01*
X196912156Y-81793195D01*
X196912154Y-81793200D01*
X196908232Y-81807841D01*
X196908232Y-81807843D01*
X196901746Y-81832050D01*
X196893300Y-81863572D01*
X196893300Y-82153572D01*
X196893300Y-82226428D01*
X196897251Y-82241174D01*
X196900738Y-82254187D01*
X196903300Y-82273649D01*
X196903300Y-85033572D01*
X196903300Y-85106428D01*
X196922156Y-85176803D01*
X196958585Y-85239898D01*
X196958586Y-85239899D01*
X199131276Y-87412589D01*
X199153016Y-87459209D01*
X199153302Y-87465763D01*
X199153302Y-90244344D01*
X199135709Y-90292682D01*
X199091160Y-90318402D01*
X199078102Y-90319544D01*
X198710229Y-90319544D01*
X198651748Y-90331176D01*
X198651746Y-90331177D01*
X198585426Y-90375492D01*
X198541111Y-90441812D01*
X198541110Y-90441814D01*
X198529478Y-90500295D01*
X198529478Y-92089700D01*
X198541110Y-92148181D01*
X198541111Y-92148183D01*
X198585426Y-92214504D01*
X198651747Y-92258819D01*
X198680988Y-92264635D01*
X198710229Y-92270452D01*
X198710230Y-92270452D01*
X199078102Y-92270452D01*
X199126440Y-92288045D01*
X199152160Y-92332594D01*
X199153302Y-92345652D01*
X199153302Y-94570513D01*
X199135709Y-94618851D01*
X199131276Y-94623687D01*
X197878826Y-95876137D01*
X197832206Y-95897877D01*
X197782519Y-95884563D01*
X197753014Y-95842426D01*
X197750452Y-95822963D01*
X197750452Y-94624127D01*
X197738819Y-94565646D01*
X197738818Y-94565644D01*
X197694504Y-94499324D01*
X197628183Y-94455009D01*
X197628181Y-94455008D01*
X197569701Y-94443376D01*
X197569700Y-94443376D01*
X197179485Y-94443376D01*
X197131147Y-94425783D01*
X197105427Y-94381234D01*
X197114360Y-94330576D01*
X197126307Y-94315005D01*
X197458875Y-93982437D01*
X197505494Y-93960698D01*
X197512660Y-93960897D01*
X197512660Y-93960500D01*
X197661958Y-93960500D01*
X197661961Y-93960500D01*
X197800053Y-93919953D01*
X197921128Y-93842143D01*
X198015377Y-93733373D01*
X198075165Y-93602457D01*
X198095647Y-93460000D01*
X198075165Y-93317543D01*
X198015377Y-93186627D01*
X198015375Y-93186624D01*
X197921127Y-93077856D01*
X197921125Y-93077855D01*
X197800051Y-93000046D01*
X197800052Y-93000046D01*
X197661963Y-92959500D01*
X197661961Y-92959500D01*
X197518039Y-92959500D01*
X197518036Y-92959500D01*
X197379948Y-93000046D01*
X197258874Y-93077855D01*
X197258872Y-93077856D01*
X197164624Y-93186624D01*
X197164622Y-93186627D01*
X197104835Y-93317540D01*
X197084353Y-93460000D01*
X197093368Y-93522703D01*
X197082832Y-93573052D01*
X197072107Y-93586578D01*
X196553582Y-94105103D01*
X196517153Y-94168198D01*
X196517154Y-94168199D01*
X196498298Y-94238575D01*
X196498298Y-94368176D01*
X196480705Y-94416514D01*
X196436156Y-94442234D01*
X196423098Y-94443376D01*
X195980295Y-94443376D01*
X195921814Y-94455008D01*
X195921812Y-94455009D01*
X195855492Y-94499324D01*
X195811177Y-94565644D01*
X195811176Y-94565646D01*
X195799544Y-94624127D01*
X195799544Y-96063672D01*
X195811176Y-96122153D01*
X195811177Y-96122155D01*
X195855492Y-96188476D01*
X195921813Y-96232791D01*
X195951054Y-96238607D01*
X195980295Y-96244424D01*
X195980296Y-96244424D01*
X197328991Y-96244424D01*
X197377329Y-96262017D01*
X197403049Y-96306566D01*
X197394116Y-96357224D01*
X197382165Y-96372798D01*
X194843689Y-98911274D01*
X194797069Y-98933014D01*
X194790515Y-98933300D01*
X193606837Y-98933300D01*
X193558499Y-98915707D01*
X193550005Y-98907345D01*
X193481130Y-98827859D01*
X193481125Y-98827855D01*
X193360051Y-98750046D01*
X193360052Y-98750046D01*
X193221963Y-98709500D01*
X193221961Y-98709500D01*
X193078039Y-98709500D01*
X193078036Y-98709500D01*
X192939948Y-98750046D01*
X192818874Y-98827855D01*
X192818872Y-98827856D01*
X192724624Y-98936624D01*
X192724622Y-98936627D01*
X192664835Y-99067540D01*
X192644353Y-99210000D01*
X191636700Y-99210000D01*
X191636700Y-93623571D01*
X191632486Y-93607844D01*
X191632486Y-93607845D01*
X191617844Y-93553197D01*
X191581415Y-93490102D01*
X191348727Y-93257414D01*
X191326987Y-93210794D01*
X191326701Y-93204240D01*
X191326701Y-92345652D01*
X191344294Y-92297314D01*
X191388843Y-92271594D01*
X191401901Y-92270452D01*
X191769774Y-92270452D01*
X191789267Y-92266574D01*
X191828256Y-92258819D01*
X191894577Y-92214504D01*
X191938892Y-92148183D01*
X191950525Y-92089700D01*
X194029476Y-92089700D01*
X194041108Y-92148181D01*
X194041109Y-92148183D01*
X194085424Y-92214504D01*
X194151745Y-92258819D01*
X194180986Y-92264635D01*
X194210227Y-92270452D01*
X194210228Y-92270452D01*
X195649773Y-92270452D01*
X195669266Y-92266574D01*
X195708255Y-92258819D01*
X195774576Y-92214504D01*
X195818891Y-92148183D01*
X195830524Y-92089700D01*
X195830524Y-90500296D01*
X195818891Y-90441813D01*
X195774576Y-90375492D01*
X195708255Y-90331177D01*
X195708253Y-90331176D01*
X195649773Y-90319544D01*
X195649772Y-90319544D01*
X194210228Y-90319544D01*
X194210227Y-90319544D01*
X194151746Y-90331176D01*
X194151744Y-90331177D01*
X194085424Y-90375492D01*
X194041109Y-90441812D01*
X194041108Y-90441814D01*
X194029476Y-90500295D01*
X194029476Y-92089700D01*
X191950525Y-92089700D01*
X191950525Y-90500296D01*
X191938892Y-90441813D01*
X191894577Y-90375492D01*
X191828256Y-90331177D01*
X191828254Y-90331176D01*
X191769774Y-90319544D01*
X191769773Y-90319544D01*
X191401901Y-90319544D01*
X191353563Y-90301951D01*
X191327843Y-90257402D01*
X191326701Y-90244344D01*
X191326701Y-89053574D01*
X191307845Y-88983200D01*
X191307844Y-88983198D01*
X191271415Y-88920102D01*
X191219899Y-88868586D01*
X189128726Y-86777413D01*
X189106986Y-86730793D01*
X189106700Y-86724239D01*
X189106700Y-84139704D01*
X190149477Y-84139704D01*
X190161109Y-84198185D01*
X190161110Y-84198187D01*
X190205425Y-84264508D01*
X190271746Y-84308823D01*
X190300987Y-84314639D01*
X190330228Y-84320456D01*
X190330229Y-84320456D01*
X191769774Y-84320456D01*
X191789267Y-84316578D01*
X191828256Y-84308823D01*
X191894577Y-84264508D01*
X191938892Y-84198187D01*
X191950525Y-84139704D01*
X191950525Y-82550300D01*
X191938892Y-82491817D01*
X191894577Y-82425496D01*
X191828256Y-82381181D01*
X191828254Y-82381180D01*
X191769774Y-82369548D01*
X191769773Y-82369548D01*
X190330229Y-82369548D01*
X190330228Y-82369548D01*
X190271747Y-82381180D01*
X190271745Y-82381181D01*
X190205425Y-82425496D01*
X190161110Y-82491816D01*
X190161109Y-82491818D01*
X190149477Y-82550299D01*
X190149477Y-84139704D01*
X189106700Y-84139704D01*
X189106700Y-82753573D01*
X189087844Y-82683199D01*
X189087843Y-82683197D01*
X189051414Y-82620101D01*
X188999898Y-82568585D01*
X186611087Y-80179774D01*
X187849548Y-80179774D01*
X187861180Y-80238255D01*
X187861181Y-80238257D01*
X187905496Y-80304578D01*
X187971817Y-80348893D01*
X188001058Y-80354709D01*
X188030299Y-80360526D01*
X188030300Y-80360526D01*
X188473102Y-80360526D01*
X188521440Y-80378119D01*
X188547160Y-80422668D01*
X188548302Y-80435726D01*
X188548302Y-80508574D01*
X188548302Y-80581430D01*
X188567158Y-80651805D01*
X188603587Y-80714900D01*
X188603588Y-80714901D01*
X189285878Y-81397191D01*
X189307618Y-81443811D01*
X189307139Y-81461066D01*
X189294353Y-81549999D01*
X189314835Y-81692459D01*
X189374622Y-81823372D01*
X189374624Y-81823375D01*
X189409455Y-81863572D01*
X189468872Y-81932143D01*
X189589947Y-82009953D01*
X189728039Y-82050500D01*
X189728042Y-82050500D01*
X189871958Y-82050500D01*
X189871961Y-82050500D01*
X190010053Y-82009953D01*
X190131128Y-81932143D01*
X190225377Y-81823373D01*
X190285165Y-81692457D01*
X190305647Y-81550000D01*
X190292707Y-81460000D01*
X192474353Y-81460000D01*
X192494835Y-81602459D01*
X192554622Y-81733372D01*
X192554624Y-81733375D01*
X192640126Y-81832050D01*
X192648872Y-81842143D01*
X192769947Y-81919953D01*
X192908039Y-81960500D01*
X192908042Y-81960500D01*
X193057340Y-81960500D01*
X193057340Y-81963292D01*
X193097583Y-81971703D01*
X193111125Y-81982438D01*
X194007450Y-82878763D01*
X194029190Y-82925383D01*
X194029476Y-82931937D01*
X194029476Y-84139704D01*
X194041108Y-84198185D01*
X194041109Y-84198187D01*
X194085424Y-84264508D01*
X194151745Y-84308823D01*
X194180986Y-84314639D01*
X194210227Y-84320456D01*
X194210228Y-84320456D01*
X195649773Y-84320456D01*
X195669266Y-84316578D01*
X195708255Y-84308823D01*
X195774576Y-84264508D01*
X195818891Y-84198187D01*
X195830524Y-84139704D01*
X195830524Y-82550300D01*
X195818891Y-82491817D01*
X195774576Y-82425496D01*
X195708255Y-82381181D01*
X195708253Y-82381180D01*
X195649773Y-82369548D01*
X195649772Y-82369548D01*
X194312009Y-82369548D01*
X194263671Y-82351955D01*
X194258835Y-82347522D01*
X193497891Y-81586578D01*
X193476151Y-81539958D01*
X193476630Y-81522705D01*
X193485647Y-81460000D01*
X193465165Y-81317543D01*
X193405377Y-81186627D01*
X193405375Y-81186624D01*
X193311127Y-81077856D01*
X193311125Y-81077855D01*
X193269555Y-81051140D01*
X193190053Y-81000047D01*
X193190052Y-81000046D01*
X193051963Y-80959500D01*
X193051961Y-80959500D01*
X192908039Y-80959500D01*
X192908036Y-80959500D01*
X192769948Y-81000046D01*
X192648874Y-81077855D01*
X192648872Y-81077856D01*
X192554624Y-81186624D01*
X192554622Y-81186627D01*
X192494835Y-81317540D01*
X192474353Y-81460000D01*
X190292707Y-81460000D01*
X190285165Y-81407543D01*
X190282953Y-81402700D01*
X190225377Y-81276627D01*
X190225375Y-81276624D01*
X190131127Y-81167856D01*
X190131125Y-81167855D01*
X190010051Y-81090046D01*
X190010052Y-81090046D01*
X189871963Y-81049500D01*
X189871961Y-81049500D01*
X189751961Y-81049500D01*
X189703623Y-81031907D01*
X189698787Y-81027474D01*
X189160213Y-80488900D01*
X189138473Y-80442280D01*
X189151787Y-80392593D01*
X189193924Y-80363088D01*
X189213387Y-80360526D01*
X189619705Y-80360526D01*
X189639198Y-80356648D01*
X189678187Y-80348893D01*
X189744508Y-80304578D01*
X189788823Y-80238257D01*
X189800456Y-80179774D01*
X195799544Y-80179774D01*
X195811176Y-80238255D01*
X195811177Y-80238257D01*
X195855492Y-80304578D01*
X195921813Y-80348893D01*
X195951054Y-80354709D01*
X195980295Y-80360526D01*
X195980296Y-80360526D01*
X197569701Y-80360526D01*
X197589194Y-80356648D01*
X197628183Y-80348893D01*
X197694504Y-80304578D01*
X197738819Y-80238257D01*
X197750452Y-80179774D01*
X197750452Y-78740230D01*
X197738819Y-78681747D01*
X197694504Y-78615426D01*
X197628183Y-78571111D01*
X197628181Y-78571110D01*
X197569701Y-78559478D01*
X197569700Y-78559478D01*
X195980296Y-78559478D01*
X195980295Y-78559478D01*
X195921814Y-78571110D01*
X195921812Y-78571111D01*
X195855492Y-78615426D01*
X195811177Y-78681746D01*
X195811176Y-78681748D01*
X195799544Y-78740229D01*
X195799544Y-80179774D01*
X189800456Y-80179774D01*
X189800456Y-79811902D01*
X189818049Y-79763564D01*
X189862598Y-79737844D01*
X189875656Y-79736702D01*
X190326425Y-79736702D01*
X190326426Y-79736702D01*
X190396801Y-79717846D01*
X190459896Y-79681417D01*
X191691313Y-78450000D01*
X198485000Y-78450000D01*
X199210000Y-78450000D01*
X199210000Y-77800000D01*
X199710000Y-77800000D01*
X199710000Y-78450000D01*
X200434999Y-78450000D01*
X200434999Y-78443420D01*
X200434998Y-78443415D01*
X200428590Y-78372894D01*
X200378019Y-78210603D01*
X200290071Y-78065121D01*
X200169878Y-77944928D01*
X200024396Y-77856980D01*
X199862107Y-77806409D01*
X199862103Y-77806408D01*
X199791583Y-77800000D01*
X199710000Y-77800000D01*
X199210000Y-77800000D01*
X199128419Y-77800000D01*
X199128415Y-77800001D01*
X199057894Y-77806409D01*
X198895603Y-77856980D01*
X198750121Y-77944928D01*
X198629928Y-78065121D01*
X198541980Y-78210603D01*
X198491409Y-78372892D01*
X198491408Y-78372896D01*
X198485000Y-78443416D01*
X198485000Y-78450000D01*
X191691313Y-78450000D01*
X193141415Y-76999898D01*
X193177843Y-76936803D01*
X193177844Y-76936802D01*
X193196700Y-76866428D01*
X193196700Y-75679772D01*
X195799544Y-75679772D01*
X195811176Y-75738253D01*
X195811177Y-75738255D01*
X195855492Y-75804576D01*
X195921813Y-75848891D01*
X195951054Y-75854707D01*
X195980295Y-75860524D01*
X195980296Y-75860524D01*
X197569701Y-75860524D01*
X197589194Y-75856646D01*
X197628183Y-75848891D01*
X197694504Y-75804576D01*
X197738819Y-75738255D01*
X197750452Y-75679772D01*
X197750452Y-75311900D01*
X197768045Y-75263562D01*
X197812594Y-75237842D01*
X197825652Y-75236700D01*
X198516427Y-75236700D01*
X198516428Y-75236700D01*
X198586803Y-75217844D01*
X198649898Y-75181415D01*
X199328874Y-74502437D01*
X199375494Y-74480698D01*
X199382660Y-74480897D01*
X199382660Y-74480500D01*
X199531958Y-74480500D01*
X199531961Y-74480500D01*
X199670053Y-74439953D01*
X199791128Y-74362143D01*
X199885377Y-74253373D01*
X199945165Y-74122457D01*
X199965647Y-73980000D01*
X199945165Y-73837543D01*
X199885377Y-73706627D01*
X199885375Y-73706624D01*
X199791127Y-73597856D01*
X199791125Y-73597855D01*
X199670051Y-73520046D01*
X199670052Y-73520046D01*
X199531963Y-73479500D01*
X199531961Y-73479500D01*
X199388039Y-73479500D01*
X199388036Y-73479500D01*
X199249948Y-73520046D01*
X199128874Y-73597855D01*
X199128872Y-73597856D01*
X199034624Y-73706624D01*
X199034622Y-73706627D01*
X198974835Y-73837540D01*
X198954353Y-73980000D01*
X198963368Y-74042703D01*
X198952832Y-74093052D01*
X198942107Y-74106578D01*
X198387412Y-74661274D01*
X198340793Y-74683014D01*
X198334239Y-74683300D01*
X197825652Y-74683300D01*
X197777314Y-74665707D01*
X197751594Y-74621158D01*
X197750452Y-74608100D01*
X197750452Y-74240227D01*
X197738819Y-74181746D01*
X197738818Y-74181744D01*
X197694504Y-74115424D01*
X197628183Y-74071109D01*
X197628181Y-74071108D01*
X197569701Y-74059476D01*
X197569700Y-74059476D01*
X195980296Y-74059476D01*
X195980295Y-74059476D01*
X195921814Y-74071108D01*
X195921812Y-74071109D01*
X195855492Y-74115424D01*
X195811177Y-74181744D01*
X195811176Y-74181746D01*
X195799544Y-74240227D01*
X195799544Y-75679772D01*
X193196700Y-75679772D01*
X193196700Y-74865761D01*
X193214293Y-74817423D01*
X193218726Y-74812587D01*
X194822587Y-73208726D01*
X194869207Y-73186986D01*
X194875761Y-73186700D01*
X197666427Y-73186700D01*
X197666428Y-73186700D01*
X197736803Y-73167844D01*
X197799898Y-73131415D01*
X198671415Y-72259898D01*
X198707844Y-72196803D01*
X198726700Y-72126428D01*
X198726700Y-72053572D01*
X198726700Y-71521074D01*
X198744293Y-71472736D01*
X198770808Y-71454858D01*
X198770031Y-71453333D01*
X198794825Y-71440699D01*
X198888342Y-71393050D01*
X198978050Y-71303342D01*
X199035646Y-71190304D01*
X199050500Y-71096519D01*
X199050499Y-70483482D01*
X199046530Y-70458419D01*
X199035647Y-70389698D01*
X198978048Y-70276655D01*
X198888344Y-70186951D01*
X198775304Y-70129354D01*
X198775306Y-70129354D01*
X198728411Y-70121927D01*
X198681519Y-70114500D01*
X198681517Y-70114500D01*
X198218487Y-70114500D01*
X198218475Y-70114501D01*
X198124698Y-70129352D01*
X198011655Y-70186951D01*
X197921951Y-70276655D01*
X197864354Y-70389694D01*
X197849473Y-70483652D01*
X197824535Y-70528642D01*
X197776511Y-70547077D01*
X197727874Y-70530329D01*
X197701381Y-70486237D01*
X197699999Y-70471888D01*
X197699999Y-70458419D01*
X197699998Y-70458415D01*
X197693590Y-70387894D01*
X197643019Y-70225603D01*
X197555071Y-70080121D01*
X197434878Y-69959928D01*
X197289396Y-69871980D01*
X197127107Y-69821409D01*
X197127103Y-69821408D01*
X197056583Y-69815000D01*
X197050000Y-69815000D01*
X197050000Y-71764999D01*
X197056580Y-71764999D01*
X197056584Y-71764998D01*
X197127105Y-71758590D01*
X197289396Y-71708019D01*
X197434878Y-71620071D01*
X197555071Y-71499878D01*
X197643019Y-71354396D01*
X197693590Y-71192107D01*
X197693591Y-71192103D01*
X197699999Y-71121583D01*
X197699999Y-71108114D01*
X197717589Y-71059775D01*
X197762136Y-71034052D01*
X197812795Y-71042981D01*
X197845862Y-71082384D01*
X197849473Y-71096346D01*
X197864352Y-71190302D01*
X197921951Y-71303344D01*
X198011655Y-71393048D01*
X198011657Y-71393049D01*
X198011658Y-71393050D01*
X198058074Y-71416700D01*
X198129969Y-71453333D01*
X198128886Y-71455458D01*
X198161859Y-71481201D01*
X198173300Y-71521074D01*
X198173300Y-71944239D01*
X198155707Y-71992577D01*
X198151274Y-71997413D01*
X197537413Y-72611274D01*
X197490793Y-72633014D01*
X197484239Y-72633300D01*
X194766428Y-72633300D01*
X194693572Y-72633300D01*
X194667816Y-72640200D01*
X194623199Y-72652155D01*
X194560100Y-72688586D01*
X192698583Y-74550103D01*
X192662155Y-74613196D01*
X192662156Y-74613197D01*
X192643300Y-74683573D01*
X192643300Y-76684239D01*
X192625707Y-76732577D01*
X192621274Y-76737413D01*
X190197411Y-79161276D01*
X190150791Y-79183016D01*
X190144237Y-79183302D01*
X189875656Y-79183302D01*
X189827318Y-79165709D01*
X189801598Y-79121160D01*
X189800456Y-79108102D01*
X189800456Y-78740229D01*
X189788823Y-78681748D01*
X189788822Y-78681746D01*
X189744508Y-78615426D01*
X189678187Y-78571111D01*
X189678185Y-78571110D01*
X189619705Y-78559478D01*
X189619704Y-78559478D01*
X188030300Y-78559478D01*
X188030299Y-78559478D01*
X187971818Y-78571110D01*
X187971816Y-78571111D01*
X187905496Y-78615426D01*
X187861181Y-78681746D01*
X187861180Y-78681748D01*
X187849548Y-78740229D01*
X187849548Y-80179774D01*
X186611087Y-80179774D01*
X186078726Y-79647413D01*
X186056986Y-79600793D01*
X186056700Y-79594239D01*
X186056700Y-78539448D01*
X186074293Y-78491110D01*
X186118842Y-78465390D01*
X186119982Y-78465199D01*
X186180304Y-78455646D01*
X186293342Y-78398050D01*
X186383050Y-78308342D01*
X186440646Y-78195304D01*
X186455500Y-78101519D01*
X186455499Y-77638482D01*
X186455498Y-77638475D01*
X186440647Y-77544698D01*
X186383048Y-77431655D01*
X186293344Y-77341951D01*
X186180304Y-77284354D01*
X186180306Y-77284354D01*
X186127037Y-77275917D01*
X186086519Y-77269500D01*
X186086517Y-77269500D01*
X186086347Y-77269473D01*
X186041357Y-77244535D01*
X186022922Y-77196511D01*
X186039670Y-77147874D01*
X186083762Y-77121381D01*
X186098111Y-77119999D01*
X186111581Y-77119999D01*
X186111584Y-77119998D01*
X186182105Y-77113590D01*
X186344396Y-77063019D01*
X186489878Y-76975071D01*
X186610071Y-76854878D01*
X186698019Y-76709396D01*
X186748590Y-76547107D01*
X186748591Y-76547103D01*
X186754999Y-76476583D01*
X186755000Y-76476582D01*
X186755000Y-76470000D01*
X184805001Y-76470000D01*
X184640500Y-76470000D01*
X184640500Y-75970000D01*
X184805000Y-75970000D01*
X185530000Y-75970000D01*
X185530000Y-75320000D01*
X186030000Y-75320000D01*
X186030000Y-75970000D01*
X186754999Y-75970000D01*
X186754999Y-75963420D01*
X186754998Y-75963415D01*
X186748590Y-75892894D01*
X186698019Y-75730603D01*
X186667290Y-75679772D01*
X187849548Y-75679772D01*
X187861180Y-75738253D01*
X187861181Y-75738255D01*
X187905496Y-75804576D01*
X187971817Y-75848891D01*
X188001058Y-75854707D01*
X188030299Y-75860524D01*
X188030300Y-75860524D01*
X189619705Y-75860524D01*
X189639198Y-75856646D01*
X189678187Y-75848891D01*
X189744508Y-75804576D01*
X189788823Y-75738255D01*
X189800456Y-75679772D01*
X189800456Y-74240228D01*
X189788823Y-74181745D01*
X189744508Y-74115424D01*
X189678187Y-74071109D01*
X189678185Y-74071108D01*
X189619705Y-74059476D01*
X189619704Y-74059476D01*
X188030300Y-74059476D01*
X188030299Y-74059476D01*
X187971818Y-74071108D01*
X187971816Y-74071109D01*
X187905496Y-74115424D01*
X187861181Y-74181744D01*
X187861180Y-74181746D01*
X187849548Y-74240227D01*
X187849548Y-75679772D01*
X186667290Y-75679772D01*
X186610071Y-75585121D01*
X186489878Y-75464928D01*
X186344396Y-75376980D01*
X186182107Y-75326409D01*
X186182103Y-75326408D01*
X186111583Y-75320000D01*
X186030000Y-75320000D01*
X185530000Y-75320000D01*
X185448419Y-75320000D01*
X185448415Y-75320001D01*
X185377894Y-75326409D01*
X185215603Y-75376980D01*
X185070121Y-75464928D01*
X184949928Y-75585121D01*
X184861980Y-75730603D01*
X184811409Y-75892892D01*
X184811408Y-75892896D01*
X184805000Y-75963416D01*
X184805000Y-75970000D01*
X184640500Y-75970000D01*
X184640500Y-71040400D01*
X185985199Y-71040400D01*
X185985199Y-71498631D01*
X185991600Y-71558174D01*
X185991601Y-71558177D01*
X186041847Y-71692890D01*
X186041848Y-71692892D01*
X186128009Y-71807989D01*
X186243106Y-71894150D01*
X186243108Y-71894151D01*
X186377821Y-71944397D01*
X186377824Y-71944398D01*
X186437367Y-71950799D01*
X186437379Y-71950800D01*
X186539999Y-71950800D01*
X186539999Y-71040400D01*
X187039999Y-71040400D01*
X187039999Y-71950800D01*
X187142619Y-71950800D01*
X187142630Y-71950799D01*
X187202173Y-71944398D01*
X187202176Y-71944397D01*
X187336889Y-71894151D01*
X187336891Y-71894150D01*
X187451988Y-71807989D01*
X187538149Y-71692892D01*
X187538150Y-71692890D01*
X187588396Y-71558177D01*
X187588397Y-71558174D01*
X187594798Y-71498631D01*
X187594799Y-71498620D01*
X187594799Y-71470548D01*
X188184701Y-71470548D01*
X188196333Y-71529029D01*
X188196334Y-71529031D01*
X188240649Y-71595352D01*
X188306970Y-71639667D01*
X188336211Y-71645483D01*
X188365452Y-71651300D01*
X188365453Y-71651300D01*
X189014550Y-71651300D01*
X189034043Y-71647422D01*
X189073032Y-71639667D01*
X189139353Y-71595352D01*
X189183668Y-71529031D01*
X189195301Y-71470548D01*
X189195301Y-71142300D01*
X189212894Y-71093962D01*
X189257443Y-71068242D01*
X189270501Y-71067100D01*
X189674639Y-71067100D01*
X189722977Y-71084693D01*
X189727813Y-71089126D01*
X190000102Y-71361415D01*
X190063197Y-71397844D01*
X190133572Y-71416700D01*
X190934198Y-71416700D01*
X190982536Y-71434293D01*
X191008256Y-71478842D01*
X191008472Y-71480136D01*
X191015281Y-71523127D01*
X191076473Y-71643222D01*
X191171777Y-71738526D01*
X191171779Y-71738527D01*
X191171780Y-71738528D01*
X191291874Y-71799719D01*
X191309865Y-71802568D01*
X191354852Y-71827503D01*
X191373288Y-71875525D01*
X191373300Y-71876841D01*
X191373300Y-72143572D01*
X191373300Y-72216428D01*
X191392156Y-72286803D01*
X191428585Y-72349898D01*
X191428586Y-72349899D01*
X191732107Y-72653420D01*
X191753847Y-72700040D01*
X191753368Y-72717295D01*
X191744353Y-72779999D01*
X191764835Y-72922459D01*
X191824622Y-73053372D01*
X191824624Y-73053375D01*
X191892246Y-73131415D01*
X191918872Y-73162143D01*
X192039947Y-73239953D01*
X192178039Y-73280500D01*
X192178042Y-73280500D01*
X192321958Y-73280500D01*
X192321961Y-73280500D01*
X192460053Y-73239953D01*
X192581128Y-73162143D01*
X192675377Y-73053373D01*
X192735165Y-72922457D01*
X192755647Y-72780000D01*
X192735165Y-72637543D01*
X192733227Y-72633300D01*
X192675377Y-72506627D01*
X192675375Y-72506624D01*
X192581127Y-72397856D01*
X192581125Y-72397855D01*
X192556722Y-72382172D01*
X192460053Y-72320047D01*
X192460052Y-72320046D01*
X192321963Y-72279500D01*
X192321961Y-72279500D01*
X192178039Y-72279500D01*
X192172661Y-72279500D01*
X192172661Y-72276710D01*
X192132402Y-72268288D01*
X192118875Y-72257562D01*
X191948726Y-72087413D01*
X191926986Y-72040793D01*
X191926700Y-72034239D01*
X191926700Y-71876841D01*
X191944293Y-71828503D01*
X191988842Y-71802783D01*
X191989945Y-71802598D01*
X192008126Y-71799719D01*
X192128220Y-71738528D01*
X192191340Y-71675407D01*
X192237959Y-71653668D01*
X192287646Y-71666981D01*
X192311022Y-71694838D01*
X192311154Y-71694757D01*
X192311709Y-71695657D01*
X192312669Y-71696801D01*
X192313456Y-71698490D01*
X192402424Y-71842728D01*
X192402427Y-71842732D01*
X192522267Y-71962572D01*
X192522271Y-71962575D01*
X192666514Y-72051545D01*
X192666513Y-72051545D01*
X192827392Y-72104855D01*
X192827391Y-72104855D01*
X192926690Y-72114999D01*
X192949999Y-72114999D01*
X192950000Y-72114998D01*
X192950000Y-71390000D01*
X193450000Y-71390000D01*
X193450000Y-72114999D01*
X193473309Y-72114999D01*
X193572610Y-72104854D01*
X193733486Y-72051545D01*
X193877728Y-71962575D01*
X193877732Y-71962572D01*
X193997572Y-71842732D01*
X193997575Y-71842728D01*
X194086545Y-71698486D01*
X194139855Y-71537607D01*
X194150000Y-71438308D01*
X194150000Y-71390000D01*
X193450000Y-71390000D01*
X192950000Y-71390000D01*
X192950000Y-71040000D01*
X195900001Y-71040000D01*
X195900001Y-71121584D01*
X195906409Y-71192105D01*
X195956980Y-71354396D01*
X196044928Y-71499878D01*
X196165121Y-71620071D01*
X196310603Y-71708019D01*
X196472892Y-71758590D01*
X196472896Y-71758591D01*
X196543416Y-71764999D01*
X196550000Y-71764998D01*
X196550000Y-71040000D01*
X195900001Y-71040000D01*
X192950000Y-71040000D01*
X192950000Y-70165000D01*
X193450000Y-70165000D01*
X193450000Y-70890000D01*
X194149999Y-70890000D01*
X194149999Y-70841690D01*
X194139854Y-70742389D01*
X194086545Y-70581513D01*
X194060939Y-70540000D01*
X195900000Y-70540000D01*
X196550000Y-70540000D01*
X196550000Y-69814999D01*
X196549999Y-69814999D01*
X196543438Y-69815000D01*
X196472889Y-69821410D01*
X196310603Y-69871980D01*
X196165121Y-69959928D01*
X196044928Y-70080121D01*
X195956980Y-70225603D01*
X195906409Y-70387892D01*
X195906408Y-70387896D01*
X195900000Y-70458416D01*
X195900000Y-70540000D01*
X194060939Y-70540000D01*
X193997575Y-70437271D01*
X193997572Y-70437267D01*
X193877732Y-70317427D01*
X193877728Y-70317424D01*
X193733485Y-70228454D01*
X193733486Y-70228454D01*
X193572607Y-70175144D01*
X193572608Y-70175144D01*
X193473309Y-70165000D01*
X193450000Y-70165000D01*
X192950000Y-70165000D01*
X192926690Y-70165000D01*
X192827389Y-70175145D01*
X192666513Y-70228454D01*
X192522271Y-70317424D01*
X192522267Y-70317427D01*
X192402427Y-70437267D01*
X192402424Y-70437271D01*
X192313450Y-70581519D01*
X192312666Y-70583202D01*
X192312005Y-70583862D01*
X192311154Y-70585243D01*
X192310826Y-70585041D01*
X192276291Y-70619573D01*
X192225046Y-70624053D01*
X192191340Y-70604591D01*
X192128222Y-70541473D01*
X192008126Y-70480281D01*
X192008128Y-70480281D01*
X191908490Y-70464500D01*
X191908488Y-70464500D01*
X191391512Y-70464500D01*
X191391509Y-70464500D01*
X191291872Y-70480281D01*
X191171777Y-70541473D01*
X191076473Y-70636777D01*
X191015281Y-70756872D01*
X191008472Y-70799864D01*
X190983533Y-70844854D01*
X190935510Y-70863289D01*
X190934198Y-70863300D01*
X190315761Y-70863300D01*
X190267423Y-70845707D01*
X190262587Y-70841274D01*
X189990299Y-70568986D01*
X189990298Y-70568985D01*
X189927203Y-70532556D01*
X189927200Y-70532555D01*
X189927201Y-70532555D01*
X189882583Y-70520600D01*
X189856828Y-70513700D01*
X189856827Y-70513700D01*
X189270501Y-70513700D01*
X189222163Y-70496107D01*
X189196443Y-70451558D01*
X189195301Y-70438500D01*
X189195301Y-70110251D01*
X189183668Y-70051770D01*
X189183667Y-70051768D01*
X189164192Y-70022622D01*
X189139353Y-69985448D01*
X189073032Y-69941133D01*
X189073030Y-69941132D01*
X189014550Y-69929500D01*
X189014549Y-69929500D01*
X188365453Y-69929500D01*
X188365452Y-69929500D01*
X188306971Y-69941132D01*
X188306969Y-69941133D01*
X188240649Y-69985448D01*
X188196334Y-70051768D01*
X188196333Y-70051770D01*
X188184701Y-70110251D01*
X188184701Y-71470548D01*
X187594799Y-71470548D01*
X187594799Y-71040400D01*
X187039999Y-71040400D01*
X186539999Y-71040400D01*
X185985199Y-71040400D01*
X184640500Y-71040400D01*
X184640500Y-70540400D01*
X185985199Y-70540400D01*
X186539999Y-70540400D01*
X187039999Y-70540400D01*
X187594799Y-70540400D01*
X187594799Y-70082180D01*
X187594798Y-70082168D01*
X187588397Y-70022625D01*
X187588396Y-70022622D01*
X187538150Y-69887909D01*
X187538149Y-69887907D01*
X187451988Y-69772810D01*
X187429933Y-69756300D01*
X187401780Y-69713248D01*
X187407888Y-69662172D01*
X187445397Y-69626971D01*
X187474999Y-69620900D01*
X188064549Y-69620900D01*
X188084042Y-69617022D01*
X188123031Y-69609267D01*
X188189352Y-69564952D01*
X188233667Y-69498631D01*
X188245300Y-69440148D01*
X188245300Y-69111900D01*
X188262893Y-69063562D01*
X188307442Y-69037842D01*
X188320500Y-69036700D01*
X189316427Y-69036700D01*
X189316428Y-69036700D01*
X189386803Y-69017844D01*
X189449898Y-68981415D01*
X189702587Y-68728726D01*
X189749207Y-68706986D01*
X189755761Y-68706700D01*
X190934198Y-68706700D01*
X190982536Y-68724293D01*
X191008256Y-68768842D01*
X191008472Y-68770136D01*
X191015281Y-68813127D01*
X191076473Y-68933222D01*
X191171777Y-69028526D01*
X191171779Y-69028527D01*
X191171780Y-69028528D01*
X191291872Y-69089718D01*
X191291874Y-69089719D01*
X191391512Y-69105500D01*
X191391516Y-69105500D01*
X191908484Y-69105500D01*
X191908488Y-69105500D01*
X192008126Y-69089719D01*
X192128220Y-69028528D01*
X192191340Y-68965407D01*
X192237959Y-68943668D01*
X192287646Y-68956981D01*
X192311022Y-68984838D01*
X192311154Y-68984757D01*
X192311709Y-68985657D01*
X192312669Y-68986801D01*
X192313456Y-68988490D01*
X192402424Y-69132728D01*
X192402427Y-69132732D01*
X192522267Y-69252572D01*
X192522271Y-69252575D01*
X192666514Y-69341545D01*
X192666513Y-69341545D01*
X192827392Y-69394855D01*
X192827391Y-69394855D01*
X192926690Y-69404999D01*
X192949999Y-69404999D01*
X192950000Y-69404998D01*
X192950000Y-68680000D01*
X193450000Y-68680000D01*
X193450000Y-69404999D01*
X193473309Y-69404999D01*
X193572610Y-69394854D01*
X193733486Y-69341545D01*
X193877728Y-69252575D01*
X193877732Y-69252572D01*
X193997572Y-69132732D01*
X193997575Y-69132728D01*
X194086545Y-68988486D01*
X194139855Y-68827607D01*
X194150000Y-68728308D01*
X194150000Y-68680000D01*
X193450000Y-68680000D01*
X192950000Y-68680000D01*
X192950000Y-67455000D01*
X193450000Y-67455000D01*
X193450000Y-68180000D01*
X194149999Y-68180000D01*
X194149999Y-68131690D01*
X194139854Y-68032389D01*
X194086545Y-67871513D01*
X193997575Y-67727271D01*
X193997572Y-67727267D01*
X193877732Y-67607427D01*
X193877728Y-67607424D01*
X193733485Y-67518454D01*
X193733486Y-67518454D01*
X193572607Y-67465144D01*
X193572608Y-67465144D01*
X193473309Y-67455000D01*
X193450000Y-67455000D01*
X192950000Y-67455000D01*
X192926690Y-67455000D01*
X192827389Y-67465145D01*
X192666513Y-67518454D01*
X192522271Y-67607424D01*
X192522267Y-67607427D01*
X192402427Y-67727267D01*
X192402424Y-67727271D01*
X192313450Y-67871519D01*
X192312666Y-67873202D01*
X192312005Y-67873862D01*
X192311154Y-67875243D01*
X192310826Y-67875041D01*
X192276291Y-67909573D01*
X192225046Y-67914053D01*
X192191340Y-67894591D01*
X192128222Y-67831473D01*
X192008126Y-67770281D01*
X192008128Y-67770281D01*
X191908490Y-67754500D01*
X191908488Y-67754500D01*
X191391512Y-67754500D01*
X191391509Y-67754500D01*
X191291872Y-67770281D01*
X191171777Y-67831473D01*
X191076473Y-67926777D01*
X191015281Y-68046872D01*
X191008472Y-68089864D01*
X190983533Y-68134854D01*
X190935510Y-68153289D01*
X190934198Y-68153300D01*
X189573572Y-68153300D01*
X189554717Y-68158352D01*
X189503199Y-68172155D01*
X189503197Y-68172156D01*
X189440101Y-68208585D01*
X189313757Y-68334929D01*
X189187412Y-68461274D01*
X189140793Y-68483014D01*
X189134239Y-68483300D01*
X188320500Y-68483300D01*
X188272162Y-68465707D01*
X188246442Y-68421158D01*
X188245300Y-68408100D01*
X188245300Y-68079851D01*
X188233667Y-68021370D01*
X188233666Y-68021368D01*
X188189352Y-67955048D01*
X188123031Y-67910733D01*
X188123028Y-67910732D01*
X188077229Y-67901622D01*
X188033252Y-67874936D01*
X188016700Y-67827867D01*
X188016700Y-67695761D01*
X188034293Y-67647423D01*
X188038726Y-67642587D01*
X189244901Y-66436413D01*
X189245679Y-66437191D01*
X189284786Y-66412281D01*
X189301058Y-66410500D01*
X189889749Y-66410500D01*
X189909242Y-66406622D01*
X189948231Y-66398867D01*
X190014552Y-66354552D01*
X190058867Y-66288231D01*
X190070500Y-66229748D01*
X190070500Y-65546817D01*
X190088093Y-65498479D01*
X190132642Y-65472759D01*
X190183300Y-65481692D01*
X190216365Y-65521097D01*
X190220614Y-65540263D01*
X190225430Y-65595316D01*
X190286569Y-65823490D01*
X190286570Y-65823494D01*
X190386398Y-66037576D01*
X190521885Y-66231072D01*
X190521896Y-66231085D01*
X190688914Y-66398103D01*
X190688927Y-66398114D01*
X190882423Y-66533601D01*
X190882423Y-66533602D01*
X191096505Y-66633429D01*
X191310000Y-66690634D01*
X191310000Y-65793012D01*
X191367007Y-65825925D01*
X191494174Y-65860000D01*
X191625826Y-65860000D01*
X191752993Y-65825925D01*
X191810000Y-65793012D01*
X191810000Y-66690634D01*
X192023494Y-66633429D01*
X192237576Y-66533602D01*
X192237576Y-66533601D01*
X192431072Y-66398114D01*
X192431085Y-66398103D01*
X192598103Y-66231085D01*
X192598114Y-66231072D01*
X192733601Y-66037576D01*
X192733602Y-66037576D01*
X192833429Y-65823494D01*
X192833430Y-65823490D01*
X192894569Y-65595316D01*
X192905479Y-65470615D01*
X192927218Y-65423995D01*
X192973839Y-65402255D01*
X193023526Y-65415569D01*
X193053031Y-65457706D01*
X193055231Y-65469798D01*
X193064699Y-65565932D01*
X193124765Y-65763947D01*
X193124770Y-65763959D01*
X193156593Y-65823494D01*
X193222315Y-65946450D01*
X193353590Y-66106410D01*
X193513550Y-66237685D01*
X193696046Y-66335232D01*
X193696050Y-66335233D01*
X193696052Y-66335234D01*
X193759733Y-66354551D01*
X193894066Y-66395300D01*
X194100000Y-66415583D01*
X194305934Y-66395300D01*
X194503954Y-66335232D01*
X194686450Y-66237685D01*
X194846410Y-66106410D01*
X194977685Y-65946450D01*
X195075232Y-65763954D01*
X195135300Y-65565934D01*
X195144768Y-65469797D01*
X195167014Y-65423418D01*
X195213869Y-65402188D01*
X195263408Y-65416043D01*
X195292451Y-65458499D01*
X195294520Y-65470615D01*
X195305430Y-65595316D01*
X195366569Y-65823490D01*
X195366570Y-65823494D01*
X195466398Y-66037576D01*
X195601885Y-66231072D01*
X195601896Y-66231085D01*
X195768914Y-66398103D01*
X195768927Y-66398114D01*
X195962423Y-66533601D01*
X195962423Y-66533602D01*
X196176505Y-66633429D01*
X196390000Y-66690634D01*
X196390000Y-65793012D01*
X196447007Y-65825925D01*
X196574174Y-65860000D01*
X196705826Y-65860000D01*
X196832993Y-65825925D01*
X196890000Y-65793012D01*
X196890000Y-66690634D01*
X197103494Y-66633429D01*
X197317576Y-66533602D01*
X197317576Y-66533601D01*
X197511072Y-66398114D01*
X197511085Y-66398103D01*
X197678103Y-66231085D01*
X197678114Y-66231072D01*
X197813601Y-66037576D01*
X197813602Y-66037576D01*
X197913429Y-65823494D01*
X197913431Y-65823490D01*
X197970636Y-65610000D01*
X197073012Y-65610000D01*
X197105925Y-65552993D01*
X197140000Y-65425826D01*
X197140000Y-65294174D01*
X197105925Y-65167007D01*
X197073012Y-65110000D01*
X197970636Y-65110000D01*
X197913431Y-64896509D01*
X197913429Y-64896505D01*
X197813603Y-64682427D01*
X197678107Y-64488918D01*
X197511085Y-64321896D01*
X197511072Y-64321885D01*
X197317576Y-64186398D01*
X197317576Y-64186397D01*
X197103494Y-64086570D01*
X197103490Y-64086568D01*
X196890000Y-64029364D01*
X196890000Y-64926988D01*
X196832993Y-64894075D01*
X196705826Y-64860000D01*
X196574174Y-64860000D01*
X196447007Y-64894075D01*
X196390000Y-64926988D01*
X196390000Y-64029364D01*
X196176509Y-64086568D01*
X196176505Y-64086570D01*
X195962427Y-64186396D01*
X195768918Y-64321892D01*
X195601892Y-64488918D01*
X195466396Y-64682427D01*
X195366570Y-64896505D01*
X195366569Y-64896509D01*
X195305430Y-65124683D01*
X195294520Y-65249384D01*
X195272780Y-65296005D01*
X195226160Y-65317744D01*
X195176473Y-65304430D01*
X195146968Y-65262293D01*
X195144769Y-65250205D01*
X195135300Y-65154066D01*
X195097598Y-65029778D01*
X195075234Y-64956052D01*
X195075229Y-64956040D01*
X194977687Y-64773554D01*
X194977684Y-64773549D01*
X194846410Y-64613590D01*
X194686450Y-64482315D01*
X194686445Y-64482312D01*
X194503959Y-64384770D01*
X194503947Y-64384765D01*
X194305932Y-64324699D01*
X194100000Y-64304417D01*
X193894067Y-64324699D01*
X193696052Y-64384765D01*
X193696040Y-64384770D01*
X193513554Y-64482312D01*
X193513549Y-64482315D01*
X193353590Y-64613590D01*
X193222315Y-64773549D01*
X193222312Y-64773554D01*
X193124770Y-64956040D01*
X193124765Y-64956052D01*
X193064699Y-65154067D01*
X193055231Y-65250201D01*
X193032984Y-65296582D01*
X192986129Y-65317811D01*
X192936590Y-65303956D01*
X192907547Y-65261499D01*
X192905479Y-65249384D01*
X192894569Y-65124683D01*
X192833430Y-64896509D01*
X192833429Y-64896505D01*
X192733603Y-64682427D01*
X192598107Y-64488918D01*
X192431085Y-64321896D01*
X192431072Y-64321885D01*
X192237576Y-64186398D01*
X192237576Y-64186397D01*
X192023494Y-64086570D01*
X192023490Y-64086568D01*
X191810000Y-64029364D01*
X191810000Y-64926988D01*
X191752993Y-64894075D01*
X191625826Y-64860000D01*
X191494174Y-64860000D01*
X191367007Y-64894075D01*
X191310000Y-64926988D01*
X191310000Y-64029364D01*
X191096509Y-64086568D01*
X191096505Y-64086570D01*
X190882427Y-64186396D01*
X190688918Y-64321892D01*
X190521892Y-64488918D01*
X190386396Y-64682427D01*
X190286570Y-64896505D01*
X190286569Y-64896509D01*
X190225430Y-65124683D01*
X190220614Y-65179736D01*
X190198874Y-65226356D01*
X190152254Y-65248096D01*
X190102567Y-65234782D01*
X190073062Y-65192645D01*
X190070500Y-65173182D01*
X190070500Y-64490251D01*
X190058867Y-64431770D01*
X190058866Y-64431768D01*
X190014552Y-64365448D01*
X189948231Y-64321133D01*
X189948229Y-64321132D01*
X189889749Y-64309500D01*
X189889748Y-64309500D01*
X188150252Y-64309500D01*
X188150251Y-64309500D01*
X188091770Y-64321132D01*
X188091768Y-64321133D01*
X188025448Y-64365448D01*
X187981133Y-64431768D01*
X187981132Y-64431770D01*
X187969500Y-64490251D01*
X187969500Y-66229748D01*
X187981132Y-66288229D01*
X187981133Y-66288231D01*
X188025448Y-66354552D01*
X188091769Y-66398867D01*
X188121010Y-66404683D01*
X188150251Y-66410500D01*
X188150252Y-66410500D01*
X188306639Y-66410500D01*
X188354977Y-66428093D01*
X188380697Y-66472642D01*
X188371764Y-66523300D01*
X188359813Y-66538874D01*
X187518585Y-67380101D01*
X187518583Y-67380103D01*
X187482155Y-67443196D01*
X187482156Y-67443197D01*
X187463300Y-67513573D01*
X187463300Y-67827867D01*
X187445707Y-67876205D01*
X187402771Y-67901622D01*
X187356971Y-67910732D01*
X187356968Y-67910733D01*
X187290648Y-67955048D01*
X187246333Y-68021368D01*
X187246332Y-68021370D01*
X187234700Y-68079851D01*
X187234700Y-69440148D01*
X187246332Y-69498629D01*
X187246334Y-69498633D01*
X187259568Y-69518439D01*
X187271794Y-69568404D01*
X187249042Y-69614539D01*
X187201959Y-69635256D01*
X187189003Y-69634986D01*
X187142630Y-69630000D01*
X187039999Y-69630000D01*
X187039999Y-70540400D01*
X186539999Y-70540400D01*
X186539999Y-69630000D01*
X186437367Y-69630000D01*
X186377824Y-69636401D01*
X186377821Y-69636402D01*
X186243108Y-69686648D01*
X186243106Y-69686649D01*
X186128009Y-69772810D01*
X186041848Y-69887907D01*
X186041847Y-69887909D01*
X185991601Y-70022622D01*
X185991600Y-70022625D01*
X185985199Y-70082168D01*
X185985199Y-70540400D01*
X184640500Y-70540400D01*
X184640500Y-63395700D01*
X184658093Y-63347362D01*
X184702642Y-63321642D01*
X184715700Y-63320500D01*
X200974300Y-63320500D01*
X201022638Y-63338093D01*
G37*
G04 #@! TD.AperFunction*
M02*
