%TF.GenerationSoftware,KiCad,Pcbnew,8.0.1*%
%TF.CreationDate,2025-01-22T19:34:23-07:00*%
%TF.ProjectId,TempSensor,54656d70-5365-46e7-936f-722e6b696361,rev?*%
%TF.SameCoordinates,Original*%
%TF.FileFunction,Copper,L2,Bot*%
%TF.FilePolarity,Positive*%
%FSLAX46Y46*%
G04 Gerber Fmt 4.6, Leading zero omitted, Abs format (unit mm)*
G04 Created by KiCad (PCBNEW 8.0.1) date 2025-01-22 19:34:23*
%MOMM*%
%LPD*%
G01*
G04 APERTURE LIST*
%TA.AperFunction,ComponentPad*%
%ADD10R,1.700000X1.700000*%
%TD*%
%TA.AperFunction,ComponentPad*%
%ADD11O,1.700000X1.700000*%
%TD*%
%TA.AperFunction,ViaPad*%
%ADD12C,0.600000*%
%TD*%
%TA.AperFunction,Conductor*%
%ADD13C,0.152400*%
%TD*%
G04 APERTURE END LIST*
D10*
%TO.P,J2,1,Pin_1*%
%TO.N,VCC*%
X174090000Y-63660000D03*
D11*
%TO.P,J2,2,Pin_2*%
%TO.N,GND*%
X176630000Y-63660000D03*
%TO.P,J2,3,Pin_3*%
%TO.N,LED1*%
X179170000Y-63660000D03*
%TO.P,J2,4,Pin_4*%
%TO.N,LED2*%
X181710000Y-63660000D03*
%TD*%
D12*
%TO.N,VDD_3.3V*%
X183730000Y-66420000D03*
X172610000Y-86000000D03*
X176300000Y-72800000D03*
X173870000Y-74210000D03*
X171960000Y-81020000D03*
%TO.N,SQ_Pulse*%
X171400000Y-76290000D03*
X175850000Y-80030000D03*
%TO.N,LED1*%
X177850000Y-72430000D03*
%TO.N,LED2*%
X180120000Y-70070000D03*
%TD*%
D13*
%TO.N,SQ_Pulse*%
X172040000Y-80030000D02*
X170880000Y-78870000D01*
X170880000Y-76740000D02*
X170890000Y-76730000D01*
X171330000Y-76290000D02*
X171400000Y-76290000D01*
X170880000Y-78870000D02*
X170880000Y-76740000D01*
X170890000Y-76730000D02*
X171330000Y-76290000D01*
X175850000Y-80030000D02*
X172040000Y-80030000D01*
%TO.N,LED1*%
X179170000Y-71110000D02*
X179170000Y-63660000D01*
X177850000Y-72430000D02*
X179170000Y-71110000D01*
%TO.N,LED2*%
X181710000Y-68480000D02*
X181710000Y-63660000D01*
X180120000Y-70070000D02*
X181710000Y-68480000D01*
%TD*%
%TA.AperFunction,Conductor*%
%TO.N,VDD_3.3V*%
G36*
X185777638Y-61978093D02*
G01*
X185803358Y-62022642D01*
X185804500Y-62035700D01*
X185804500Y-89594300D01*
X185786907Y-89642638D01*
X185742358Y-89668358D01*
X185729300Y-89669500D01*
X170520700Y-89669500D01*
X170472362Y-89651907D01*
X170446642Y-89607358D01*
X170445500Y-89594300D01*
X170445500Y-78910519D01*
X170676300Y-78910519D01*
X170707311Y-78985387D01*
X170764613Y-79042689D01*
X170764614Y-79042689D01*
X170775190Y-79053265D01*
X171863018Y-80141093D01*
X171863031Y-80141108D01*
X171924611Y-80202688D01*
X171924613Y-80202689D01*
X171955624Y-80215534D01*
X171955629Y-80215535D01*
X171999482Y-80233701D01*
X172089271Y-80233701D01*
X172089279Y-80233700D01*
X175288271Y-80233700D01*
X175336609Y-80251293D01*
X175357747Y-80280122D01*
X175369140Y-80307627D01*
X175457378Y-80422621D01*
X175572373Y-80510860D01*
X175572374Y-80510860D01*
X175572375Y-80510861D01*
X175706291Y-80566330D01*
X175850000Y-80585250D01*
X175993709Y-80566330D01*
X176127625Y-80510861D01*
X176242621Y-80422621D01*
X176330861Y-80307625D01*
X176386330Y-80173709D01*
X176405250Y-80030000D01*
X176386330Y-79886291D01*
X176330861Y-79752375D01*
X176330860Y-79752374D01*
X176330860Y-79752373D01*
X176242621Y-79637378D01*
X176127626Y-79549139D01*
X175993711Y-79493671D01*
X175993709Y-79493670D01*
X175850000Y-79474750D01*
X175706291Y-79493670D01*
X175706288Y-79493670D01*
X175706288Y-79493671D01*
X175572373Y-79549139D01*
X175457378Y-79637378D01*
X175369140Y-79752372D01*
X175357747Y-79779878D01*
X175322995Y-79817803D01*
X175288271Y-79826300D01*
X172155523Y-79826300D01*
X172107185Y-79808707D01*
X172102349Y-79804274D01*
X171105726Y-78807651D01*
X171083986Y-78761031D01*
X171083700Y-78754477D01*
X171083700Y-76867385D01*
X171101293Y-76819047D01*
X171145842Y-76793327D01*
X171187674Y-76797908D01*
X171256291Y-76826330D01*
X171400000Y-76845250D01*
X171543709Y-76826330D01*
X171677625Y-76770861D01*
X171792621Y-76682621D01*
X171880861Y-76567625D01*
X171936330Y-76433709D01*
X171955250Y-76290000D01*
X171936330Y-76146291D01*
X171880861Y-76012375D01*
X171880860Y-76012374D01*
X171880860Y-76012373D01*
X171792621Y-75897378D01*
X171677626Y-75809139D01*
X171543711Y-75753671D01*
X171543709Y-75753670D01*
X171400000Y-75734750D01*
X171256291Y-75753670D01*
X171256288Y-75753670D01*
X171256288Y-75753671D01*
X171122373Y-75809139D01*
X171007378Y-75897378D01*
X170919139Y-76012373D01*
X170863671Y-76146288D01*
X170863670Y-76146291D01*
X170844750Y-76290000D01*
X170862848Y-76427468D01*
X170851714Y-76477688D01*
X170841466Y-76490457D01*
X170774617Y-76557308D01*
X170774614Y-76557311D01*
X170764617Y-76567306D01*
X170764614Y-76567309D01*
X170764614Y-76567310D01*
X170764613Y-76567311D01*
X170735963Y-76595961D01*
X170707313Y-76624610D01*
X170707312Y-76624612D01*
X170707311Y-76624613D01*
X170676300Y-76699481D01*
X170676300Y-78910519D01*
X170445500Y-78910519D01*
X170445500Y-72430000D01*
X177294750Y-72430000D01*
X177313670Y-72573709D01*
X177313671Y-72573711D01*
X177369139Y-72707626D01*
X177457378Y-72822621D01*
X177572373Y-72910860D01*
X177572374Y-72910860D01*
X177572375Y-72910861D01*
X177706291Y-72966330D01*
X177850000Y-72985250D01*
X177993709Y-72966330D01*
X178127625Y-72910861D01*
X178242621Y-72822621D01*
X178330861Y-72707625D01*
X178386330Y-72573709D01*
X178405250Y-72430000D01*
X178386330Y-72286291D01*
X178374937Y-72258785D01*
X178372694Y-72207394D01*
X178391237Y-72176836D01*
X179285385Y-71282689D01*
X179285387Y-71282689D01*
X179342689Y-71225387D01*
X179351772Y-71203458D01*
X179373701Y-71150519D01*
X179373701Y-71069481D01*
X179373701Y-71063426D01*
X179373700Y-71063412D01*
X179373700Y-70070000D01*
X179564750Y-70070000D01*
X179583670Y-70213709D01*
X179583671Y-70213711D01*
X179639139Y-70347626D01*
X179727378Y-70462621D01*
X179842373Y-70550860D01*
X179842374Y-70550860D01*
X179842375Y-70550861D01*
X179976291Y-70606330D01*
X180120000Y-70625250D01*
X180263709Y-70606330D01*
X180397625Y-70550861D01*
X180512621Y-70462621D01*
X180600861Y-70347625D01*
X180656330Y-70213709D01*
X180675250Y-70070000D01*
X180656330Y-69926291D01*
X180644937Y-69898785D01*
X180642694Y-69847394D01*
X180661237Y-69816836D01*
X181825385Y-68652689D01*
X181825387Y-68652689D01*
X181882689Y-68595387D01*
X181895534Y-68564375D01*
X181913701Y-68520518D01*
X181913701Y-68439481D01*
X181913701Y-68433426D01*
X181913700Y-68433412D01*
X181913700Y-64751749D01*
X181931293Y-64703411D01*
X181967070Y-64679788D01*
X182070411Y-64648440D01*
X182113945Y-64635235D01*
X182113947Y-64635234D01*
X182113954Y-64635232D01*
X182296450Y-64537685D01*
X182456410Y-64406410D01*
X182587685Y-64246450D01*
X182685232Y-64063954D01*
X182745300Y-63865934D01*
X182765583Y-63660000D01*
X182745300Y-63454066D01*
X182685232Y-63256046D01*
X182587685Y-63073550D01*
X182456410Y-62913590D01*
X182296450Y-62782315D01*
X182296445Y-62782312D01*
X182113959Y-62684770D01*
X182113947Y-62684765D01*
X181915932Y-62624699D01*
X181710000Y-62604417D01*
X181504067Y-62624699D01*
X181306052Y-62684765D01*
X181306040Y-62684770D01*
X181123554Y-62782312D01*
X181123549Y-62782315D01*
X180963590Y-62913590D01*
X180832315Y-63073549D01*
X180832312Y-63073554D01*
X180734770Y-63256040D01*
X180734765Y-63256052D01*
X180674699Y-63454067D01*
X180654417Y-63660000D01*
X180674699Y-63865932D01*
X180734765Y-64063947D01*
X180734770Y-64063959D01*
X180832312Y-64246445D01*
X180832315Y-64246450D01*
X180963590Y-64406410D01*
X181123550Y-64537685D01*
X181306046Y-64635232D01*
X181306049Y-64635233D01*
X181306054Y-64635235D01*
X181369733Y-64654551D01*
X181452929Y-64679788D01*
X181494078Y-64710654D01*
X181506300Y-64751749D01*
X181506300Y-68364476D01*
X181488707Y-68412814D01*
X181484274Y-68417650D01*
X180373163Y-69528760D01*
X180326543Y-69550500D01*
X180291213Y-69545062D01*
X180275248Y-69538449D01*
X180263710Y-69533670D01*
X180120000Y-69514750D01*
X179976291Y-69533670D01*
X179976288Y-69533670D01*
X179976288Y-69533671D01*
X179842373Y-69589139D01*
X179727378Y-69677378D01*
X179639139Y-69792373D01*
X179595063Y-69898785D01*
X179583670Y-69926291D01*
X179564750Y-70070000D01*
X179373700Y-70070000D01*
X179373700Y-64751749D01*
X179391293Y-64703411D01*
X179427070Y-64679788D01*
X179530411Y-64648440D01*
X179573945Y-64635235D01*
X179573947Y-64635234D01*
X179573954Y-64635232D01*
X179756450Y-64537685D01*
X179916410Y-64406410D01*
X180047685Y-64246450D01*
X180145232Y-64063954D01*
X180205300Y-63865934D01*
X180225583Y-63660000D01*
X180205300Y-63454066D01*
X180145232Y-63256046D01*
X180047685Y-63073550D01*
X179916410Y-62913590D01*
X179756450Y-62782315D01*
X179756445Y-62782312D01*
X179573959Y-62684770D01*
X179573947Y-62684765D01*
X179375932Y-62624699D01*
X179170000Y-62604417D01*
X178964067Y-62624699D01*
X178766052Y-62684765D01*
X178766040Y-62684770D01*
X178583554Y-62782312D01*
X178583549Y-62782315D01*
X178423590Y-62913590D01*
X178292315Y-63073549D01*
X178292312Y-63073554D01*
X178194770Y-63256040D01*
X178194765Y-63256052D01*
X178134699Y-63454067D01*
X178114417Y-63660000D01*
X178134699Y-63865932D01*
X178194765Y-64063947D01*
X178194770Y-64063959D01*
X178292312Y-64246445D01*
X178292315Y-64246450D01*
X178423590Y-64406410D01*
X178583550Y-64537685D01*
X178766046Y-64635232D01*
X178766049Y-64635233D01*
X178766054Y-64635235D01*
X178829733Y-64654551D01*
X178912929Y-64679788D01*
X178954078Y-64710654D01*
X178966300Y-64751749D01*
X178966300Y-70994476D01*
X178948707Y-71042814D01*
X178944274Y-71047650D01*
X178103163Y-71888760D01*
X178056543Y-71910500D01*
X178021213Y-71905062D01*
X178005248Y-71898449D01*
X177993710Y-71893670D01*
X177850000Y-71874750D01*
X177706291Y-71893670D01*
X177706288Y-71893670D01*
X177706288Y-71893671D01*
X177572373Y-71949139D01*
X177457378Y-72037378D01*
X177369139Y-72152373D01*
X177325063Y-72258785D01*
X177313670Y-72286291D01*
X177294750Y-72430000D01*
X170445500Y-72430000D01*
X170445500Y-64529748D01*
X173039500Y-64529748D01*
X173051132Y-64588229D01*
X173051133Y-64588231D01*
X173095448Y-64654552D01*
X173161769Y-64698867D01*
X173184613Y-64703411D01*
X173220251Y-64710500D01*
X173220252Y-64710500D01*
X174959749Y-64710500D01*
X174979242Y-64706622D01*
X175018231Y-64698867D01*
X175084552Y-64654552D01*
X175128867Y-64588231D01*
X175140500Y-64529748D01*
X175140500Y-63660000D01*
X175574417Y-63660000D01*
X175594699Y-63865932D01*
X175654765Y-64063947D01*
X175654770Y-64063959D01*
X175752312Y-64246445D01*
X175752315Y-64246450D01*
X175883590Y-64406410D01*
X176043550Y-64537685D01*
X176226046Y-64635232D01*
X176226050Y-64635233D01*
X176226052Y-64635234D01*
X176289733Y-64654551D01*
X176424066Y-64695300D01*
X176630000Y-64715583D01*
X176835934Y-64695300D01*
X177033954Y-64635232D01*
X177216450Y-64537685D01*
X177376410Y-64406410D01*
X177507685Y-64246450D01*
X177605232Y-64063954D01*
X177665300Y-63865934D01*
X177685583Y-63660000D01*
X177665300Y-63454066D01*
X177605232Y-63256046D01*
X177507685Y-63073550D01*
X177376410Y-62913590D01*
X177216450Y-62782315D01*
X177216445Y-62782312D01*
X177033959Y-62684770D01*
X177033947Y-62684765D01*
X176835932Y-62624699D01*
X176630000Y-62604417D01*
X176424067Y-62624699D01*
X176226052Y-62684765D01*
X176226040Y-62684770D01*
X176043554Y-62782312D01*
X176043549Y-62782315D01*
X175883590Y-62913590D01*
X175752315Y-63073549D01*
X175752312Y-63073554D01*
X175654770Y-63256040D01*
X175654765Y-63256052D01*
X175594699Y-63454067D01*
X175574417Y-63660000D01*
X175140500Y-63660000D01*
X175140500Y-62790252D01*
X175128867Y-62731769D01*
X175084552Y-62665448D01*
X175018231Y-62621133D01*
X175018229Y-62621132D01*
X174959749Y-62609500D01*
X174959748Y-62609500D01*
X173220252Y-62609500D01*
X173220251Y-62609500D01*
X173161770Y-62621132D01*
X173161768Y-62621133D01*
X173095448Y-62665448D01*
X173051133Y-62731768D01*
X173051132Y-62731770D01*
X173039500Y-62790251D01*
X173039500Y-64529748D01*
X170445500Y-64529748D01*
X170445500Y-62035700D01*
X170463093Y-61987362D01*
X170507642Y-61961642D01*
X170520700Y-61960500D01*
X185729300Y-61960500D01*
X185777638Y-61978093D01*
G37*
%TD.AperFunction*%
%TD*%
M02*
