%TF.GenerationSoftware,KiCad,Pcbnew,8.0.1*%
%TF.CreationDate,2025-01-22T19:34:23-07:00*%
%TF.ProjectId,TempSensor,54656d70-5365-46e7-936f-722e6b696361,rev?*%
%TF.SameCoordinates,Original*%
%TF.FileFunction,Legend,Top*%
%TF.FilePolarity,Positive*%
%FSLAX46Y46*%
G04 Gerber Fmt 4.6, Leading zero omitted, Abs format (unit mm)*
G04 Created by KiCad (PCBNEW 8.0.1) date 2025-01-22 19:34:23*
%MOMM*%
%LPD*%
G01*
G04 APERTURE LIST*
G04 Aperture macros list*
%AMRoundRect*
0 Rectangle with rounded corners*
0 $1 Rounding radius*
0 $2 $3 $4 $5 $6 $7 $8 $9 X,Y pos of 4 corners*
0 Add a 4 corners polygon primitive as box body*
4,1,4,$2,$3,$4,$5,$6,$7,$8,$9,$2,$3,0*
0 Add four circle primitives for the rounded corners*
1,1,$1+$1,$2,$3*
1,1,$1+$1,$4,$5*
1,1,$1+$1,$6,$7*
1,1,$1+$1,$8,$9*
0 Add four rect primitives between the rounded corners*
20,1,$1+$1,$2,$3,$4,$5,0*
20,1,$1+$1,$4,$5,$6,$7,0*
20,1,$1+$1,$6,$7,$8,$9,0*
20,1,$1+$1,$8,$9,$2,$3,0*%
G04 Aperture macros list end*
%ADD10C,0.100000*%
%ADD11C,0.150000*%
%ADD12C,0.152400*%
%ADD13C,0.120000*%
%ADD14R,0.558800X1.473200*%
%ADD15RoundRect,0.237500X-0.237500X0.300000X-0.237500X-0.300000X0.237500X-0.300000X0.237500X0.300000X0*%
%ADD16RoundRect,0.237500X-0.237500X0.250000X-0.237500X-0.250000X0.237500X-0.250000X0.237500X0.250000X0*%
%ADD17R,1.700000X1.700000*%
%ADD18O,1.700000X1.700000*%
%ADD19R,1.320800X0.508000*%
%ADD20RoundRect,0.237500X0.250000X0.237500X-0.250000X0.237500X-0.250000X-0.237500X0.250000X-0.237500X0*%
%ADD21RoundRect,0.237500X0.237500X-0.300000X0.237500X0.300000X-0.237500X0.300000X-0.237500X-0.300000X0*%
%ADD22RoundRect,0.237500X0.300000X0.237500X-0.300000X0.237500X-0.300000X-0.237500X0.300000X-0.237500X0*%
%ADD23R,0.558800X1.320800*%
%ADD24R,0.450000X1.450000*%
G04 APERTURE END LIST*
D10*
X188592657Y-80434046D02*
X188545038Y-80386427D01*
X188545038Y-80386427D02*
X188497419Y-80291189D01*
X188497419Y-80291189D02*
X188497419Y-80053094D01*
X188497419Y-80053094D02*
X188545038Y-79957856D01*
X188545038Y-79957856D02*
X188592657Y-79910237D01*
X188592657Y-79910237D02*
X188687895Y-79862618D01*
X188687895Y-79862618D02*
X188783133Y-79862618D01*
X188783133Y-79862618D02*
X188925990Y-79910237D01*
X188925990Y-79910237D02*
X189497419Y-80481665D01*
X189497419Y-80481665D02*
X189497419Y-79862618D01*
X188925990Y-79291189D02*
X188878371Y-79386427D01*
X188878371Y-79386427D02*
X188830752Y-79434046D01*
X188830752Y-79434046D02*
X188735514Y-79481665D01*
X188735514Y-79481665D02*
X188687895Y-79481665D01*
X188687895Y-79481665D02*
X188592657Y-79434046D01*
X188592657Y-79434046D02*
X188545038Y-79386427D01*
X188545038Y-79386427D02*
X188497419Y-79291189D01*
X188497419Y-79291189D02*
X188497419Y-79100713D01*
X188497419Y-79100713D02*
X188545038Y-79005475D01*
X188545038Y-79005475D02*
X188592657Y-78957856D01*
X188592657Y-78957856D02*
X188687895Y-78910237D01*
X188687895Y-78910237D02*
X188735514Y-78910237D01*
X188735514Y-78910237D02*
X188830752Y-78957856D01*
X188830752Y-78957856D02*
X188878371Y-79005475D01*
X188878371Y-79005475D02*
X188925990Y-79100713D01*
X188925990Y-79100713D02*
X188925990Y-79291189D01*
X188925990Y-79291189D02*
X188973609Y-79386427D01*
X188973609Y-79386427D02*
X189021228Y-79434046D01*
X189021228Y-79434046D02*
X189116466Y-79481665D01*
X189116466Y-79481665D02*
X189306942Y-79481665D01*
X189306942Y-79481665D02*
X189402180Y-79434046D01*
X189402180Y-79434046D02*
X189449800Y-79386427D01*
X189449800Y-79386427D02*
X189497419Y-79291189D01*
X189497419Y-79291189D02*
X189497419Y-79100713D01*
X189497419Y-79100713D02*
X189449800Y-79005475D01*
X189449800Y-79005475D02*
X189402180Y-78957856D01*
X189402180Y-78957856D02*
X189306942Y-78910237D01*
X189306942Y-78910237D02*
X189116466Y-78910237D01*
X189116466Y-78910237D02*
X189021228Y-78957856D01*
X189021228Y-78957856D02*
X188973609Y-79005475D01*
X188973609Y-79005475D02*
X188925990Y-79100713D01*
X189402180Y-78481665D02*
X189449800Y-78434046D01*
X189449800Y-78434046D02*
X189497419Y-78481665D01*
X189497419Y-78481665D02*
X189449800Y-78529284D01*
X189449800Y-78529284D02*
X189402180Y-78481665D01*
X189402180Y-78481665D02*
X189497419Y-78481665D01*
X188497419Y-78100713D02*
X188497419Y-77434047D01*
X188497419Y-77434047D02*
X189497419Y-77862618D01*
X189497419Y-76529285D02*
X189497419Y-77100713D01*
X189497419Y-76814999D02*
X188497419Y-76814999D01*
X188497419Y-76814999D02*
X188640276Y-76910237D01*
X188640276Y-76910237D02*
X188735514Y-77005475D01*
X188735514Y-77005475D02*
X188783133Y-77100713D01*
X188497419Y-75910237D02*
X188497419Y-75814999D01*
X188497419Y-75814999D02*
X188545038Y-75719761D01*
X188545038Y-75719761D02*
X188592657Y-75672142D01*
X188592657Y-75672142D02*
X188687895Y-75624523D01*
X188687895Y-75624523D02*
X188878371Y-75576904D01*
X188878371Y-75576904D02*
X189116466Y-75576904D01*
X189116466Y-75576904D02*
X189306942Y-75624523D01*
X189306942Y-75624523D02*
X189402180Y-75672142D01*
X189402180Y-75672142D02*
X189449800Y-75719761D01*
X189449800Y-75719761D02*
X189497419Y-75814999D01*
X189497419Y-75814999D02*
X189497419Y-75910237D01*
X189497419Y-75910237D02*
X189449800Y-76005475D01*
X189449800Y-76005475D02*
X189402180Y-76053094D01*
X189402180Y-76053094D02*
X189306942Y-76100713D01*
X189306942Y-76100713D02*
X189116466Y-76148332D01*
X189116466Y-76148332D02*
X188878371Y-76148332D01*
X188878371Y-76148332D02*
X188687895Y-76100713D01*
X188687895Y-76100713D02*
X188592657Y-76053094D01*
X188592657Y-76053094D02*
X188545038Y-76005475D01*
X188545038Y-76005475D02*
X188497419Y-75910237D01*
X188497419Y-74957856D02*
X188497419Y-74862618D01*
X188497419Y-74862618D02*
X188545038Y-74767380D01*
X188545038Y-74767380D02*
X188592657Y-74719761D01*
X188592657Y-74719761D02*
X188687895Y-74672142D01*
X188687895Y-74672142D02*
X188878371Y-74624523D01*
X188878371Y-74624523D02*
X189116466Y-74624523D01*
X189116466Y-74624523D02*
X189306942Y-74672142D01*
X189306942Y-74672142D02*
X189402180Y-74719761D01*
X189402180Y-74719761D02*
X189449800Y-74767380D01*
X189449800Y-74767380D02*
X189497419Y-74862618D01*
X189497419Y-74862618D02*
X189497419Y-74957856D01*
X189497419Y-74957856D02*
X189449800Y-75053094D01*
X189449800Y-75053094D02*
X189402180Y-75100713D01*
X189402180Y-75100713D02*
X189306942Y-75148332D01*
X189306942Y-75148332D02*
X189116466Y-75195951D01*
X189116466Y-75195951D02*
X188878371Y-75195951D01*
X188878371Y-75195951D02*
X188687895Y-75148332D01*
X188687895Y-75148332D02*
X188592657Y-75100713D01*
X188592657Y-75100713D02*
X188545038Y-75053094D01*
X188545038Y-75053094D02*
X188497419Y-74957856D01*
X189497419Y-73434046D02*
X188830752Y-73434046D01*
X188925990Y-73434046D02*
X188878371Y-73386427D01*
X188878371Y-73386427D02*
X188830752Y-73291189D01*
X188830752Y-73291189D02*
X188830752Y-73148332D01*
X188830752Y-73148332D02*
X188878371Y-73053094D01*
X188878371Y-73053094D02*
X188973609Y-73005475D01*
X188973609Y-73005475D02*
X189497419Y-73005475D01*
X188973609Y-73005475D02*
X188878371Y-72957856D01*
X188878371Y-72957856D02*
X188830752Y-72862618D01*
X188830752Y-72862618D02*
X188830752Y-72719761D01*
X188830752Y-72719761D02*
X188878371Y-72624522D01*
X188878371Y-72624522D02*
X188973609Y-72576903D01*
X188973609Y-72576903D02*
X189497419Y-72576903D01*
X189497419Y-72100713D02*
X188830752Y-72100713D01*
X188925990Y-72100713D02*
X188878371Y-72053094D01*
X188878371Y-72053094D02*
X188830752Y-71957856D01*
X188830752Y-71957856D02*
X188830752Y-71814999D01*
X188830752Y-71814999D02*
X188878371Y-71719761D01*
X188878371Y-71719761D02*
X188973609Y-71672142D01*
X188973609Y-71672142D02*
X189497419Y-71672142D01*
X188973609Y-71672142D02*
X188878371Y-71624523D01*
X188878371Y-71624523D02*
X188830752Y-71529285D01*
X188830752Y-71529285D02*
X188830752Y-71386428D01*
X188830752Y-71386428D02*
X188878371Y-71291189D01*
X188878371Y-71291189D02*
X188973609Y-71243570D01*
X188973609Y-71243570D02*
X189497419Y-71243570D01*
X186805000Y-61460000D02*
X190726420Y-61460000D01*
X186805000Y-90170000D02*
X190726420Y-90170000D01*
X190140000Y-61460000D02*
X190140000Y-90170000D01*
X190140000Y-61460000D02*
X190140000Y-90170000D01*
X190140000Y-61460000D02*
X190726421Y-62586504D01*
X190140000Y-61460000D02*
X189553579Y-62586504D01*
X190140000Y-90170000D02*
X189553579Y-89043496D01*
X190140000Y-90170000D02*
X190726421Y-89043496D01*
X174077381Y-58437419D02*
X173505953Y-58437419D01*
X173791667Y-58437419D02*
X173791667Y-57437419D01*
X173791667Y-57437419D02*
X173696429Y-57580276D01*
X173696429Y-57580276D02*
X173601191Y-57675514D01*
X173601191Y-57675514D02*
X173505953Y-57723133D01*
X174934524Y-57437419D02*
X174744048Y-57437419D01*
X174744048Y-57437419D02*
X174648810Y-57485038D01*
X174648810Y-57485038D02*
X174601191Y-57532657D01*
X174601191Y-57532657D02*
X174505953Y-57675514D01*
X174505953Y-57675514D02*
X174458334Y-57865990D01*
X174458334Y-57865990D02*
X174458334Y-58246942D01*
X174458334Y-58246942D02*
X174505953Y-58342180D01*
X174505953Y-58342180D02*
X174553572Y-58389800D01*
X174553572Y-58389800D02*
X174648810Y-58437419D01*
X174648810Y-58437419D02*
X174839286Y-58437419D01*
X174839286Y-58437419D02*
X174934524Y-58389800D01*
X174934524Y-58389800D02*
X174982143Y-58342180D01*
X174982143Y-58342180D02*
X175029762Y-58246942D01*
X175029762Y-58246942D02*
X175029762Y-58008847D01*
X175029762Y-58008847D02*
X174982143Y-57913609D01*
X174982143Y-57913609D02*
X174934524Y-57865990D01*
X174934524Y-57865990D02*
X174839286Y-57818371D01*
X174839286Y-57818371D02*
X174648810Y-57818371D01*
X174648810Y-57818371D02*
X174553572Y-57865990D01*
X174553572Y-57865990D02*
X174505953Y-57913609D01*
X174505953Y-57913609D02*
X174458334Y-58008847D01*
X175458334Y-58342180D02*
X175505953Y-58389800D01*
X175505953Y-58389800D02*
X175458334Y-58437419D01*
X175458334Y-58437419D02*
X175410715Y-58389800D01*
X175410715Y-58389800D02*
X175458334Y-58342180D01*
X175458334Y-58342180D02*
X175458334Y-58437419D01*
X175839286Y-57437419D02*
X176458333Y-57437419D01*
X176458333Y-57437419D02*
X176125000Y-57818371D01*
X176125000Y-57818371D02*
X176267857Y-57818371D01*
X176267857Y-57818371D02*
X176363095Y-57865990D01*
X176363095Y-57865990D02*
X176410714Y-57913609D01*
X176410714Y-57913609D02*
X176458333Y-58008847D01*
X176458333Y-58008847D02*
X176458333Y-58246942D01*
X176458333Y-58246942D02*
X176410714Y-58342180D01*
X176410714Y-58342180D02*
X176363095Y-58389800D01*
X176363095Y-58389800D02*
X176267857Y-58437419D01*
X176267857Y-58437419D02*
X175982143Y-58437419D01*
X175982143Y-58437419D02*
X175886905Y-58389800D01*
X175886905Y-58389800D02*
X175839286Y-58342180D01*
X177315476Y-57437419D02*
X177125000Y-57437419D01*
X177125000Y-57437419D02*
X177029762Y-57485038D01*
X177029762Y-57485038D02*
X176982143Y-57532657D01*
X176982143Y-57532657D02*
X176886905Y-57675514D01*
X176886905Y-57675514D02*
X176839286Y-57865990D01*
X176839286Y-57865990D02*
X176839286Y-58246942D01*
X176839286Y-58246942D02*
X176886905Y-58342180D01*
X176886905Y-58342180D02*
X176934524Y-58389800D01*
X176934524Y-58389800D02*
X177029762Y-58437419D01*
X177029762Y-58437419D02*
X177220238Y-58437419D01*
X177220238Y-58437419D02*
X177315476Y-58389800D01*
X177315476Y-58389800D02*
X177363095Y-58342180D01*
X177363095Y-58342180D02*
X177410714Y-58246942D01*
X177410714Y-58246942D02*
X177410714Y-58008847D01*
X177410714Y-58008847D02*
X177363095Y-57913609D01*
X177363095Y-57913609D02*
X177315476Y-57865990D01*
X177315476Y-57865990D02*
X177220238Y-57818371D01*
X177220238Y-57818371D02*
X177029762Y-57818371D01*
X177029762Y-57818371D02*
X176934524Y-57865990D01*
X176934524Y-57865990D02*
X176886905Y-57913609D01*
X176886905Y-57913609D02*
X176839286Y-58008847D01*
X178029762Y-57437419D02*
X178125000Y-57437419D01*
X178125000Y-57437419D02*
X178220238Y-57485038D01*
X178220238Y-57485038D02*
X178267857Y-57532657D01*
X178267857Y-57532657D02*
X178315476Y-57627895D01*
X178315476Y-57627895D02*
X178363095Y-57818371D01*
X178363095Y-57818371D02*
X178363095Y-58056466D01*
X178363095Y-58056466D02*
X178315476Y-58246942D01*
X178315476Y-58246942D02*
X178267857Y-58342180D01*
X178267857Y-58342180D02*
X178220238Y-58389800D01*
X178220238Y-58389800D02*
X178125000Y-58437419D01*
X178125000Y-58437419D02*
X178029762Y-58437419D01*
X178029762Y-58437419D02*
X177934524Y-58389800D01*
X177934524Y-58389800D02*
X177886905Y-58342180D01*
X177886905Y-58342180D02*
X177839286Y-58246942D01*
X177839286Y-58246942D02*
X177791667Y-58056466D01*
X177791667Y-58056466D02*
X177791667Y-57818371D01*
X177791667Y-57818371D02*
X177839286Y-57627895D01*
X177839286Y-57627895D02*
X177886905Y-57532657D01*
X177886905Y-57532657D02*
X177934524Y-57485038D01*
X177934524Y-57485038D02*
X178029762Y-57437419D01*
X178982143Y-57437419D02*
X179077381Y-57437419D01*
X179077381Y-57437419D02*
X179172619Y-57485038D01*
X179172619Y-57485038D02*
X179220238Y-57532657D01*
X179220238Y-57532657D02*
X179267857Y-57627895D01*
X179267857Y-57627895D02*
X179315476Y-57818371D01*
X179315476Y-57818371D02*
X179315476Y-58056466D01*
X179315476Y-58056466D02*
X179267857Y-58246942D01*
X179267857Y-58246942D02*
X179220238Y-58342180D01*
X179220238Y-58342180D02*
X179172619Y-58389800D01*
X179172619Y-58389800D02*
X179077381Y-58437419D01*
X179077381Y-58437419D02*
X178982143Y-58437419D01*
X178982143Y-58437419D02*
X178886905Y-58389800D01*
X178886905Y-58389800D02*
X178839286Y-58342180D01*
X178839286Y-58342180D02*
X178791667Y-58246942D01*
X178791667Y-58246942D02*
X178744048Y-58056466D01*
X178744048Y-58056466D02*
X178744048Y-57818371D01*
X178744048Y-57818371D02*
X178791667Y-57627895D01*
X178791667Y-57627895D02*
X178839286Y-57532657D01*
X178839286Y-57532657D02*
X178886905Y-57485038D01*
X178886905Y-57485038D02*
X178982143Y-57437419D01*
X180505953Y-58437419D02*
X180505953Y-57770752D01*
X180505953Y-57865990D02*
X180553572Y-57818371D01*
X180553572Y-57818371D02*
X180648810Y-57770752D01*
X180648810Y-57770752D02*
X180791667Y-57770752D01*
X180791667Y-57770752D02*
X180886905Y-57818371D01*
X180886905Y-57818371D02*
X180934524Y-57913609D01*
X180934524Y-57913609D02*
X180934524Y-58437419D01*
X180934524Y-57913609D02*
X180982143Y-57818371D01*
X180982143Y-57818371D02*
X181077381Y-57770752D01*
X181077381Y-57770752D02*
X181220238Y-57770752D01*
X181220238Y-57770752D02*
X181315477Y-57818371D01*
X181315477Y-57818371D02*
X181363096Y-57913609D01*
X181363096Y-57913609D02*
X181363096Y-58437419D01*
X181839286Y-58437419D02*
X181839286Y-57770752D01*
X181839286Y-57865990D02*
X181886905Y-57818371D01*
X181886905Y-57818371D02*
X181982143Y-57770752D01*
X181982143Y-57770752D02*
X182125000Y-57770752D01*
X182125000Y-57770752D02*
X182220238Y-57818371D01*
X182220238Y-57818371D02*
X182267857Y-57913609D01*
X182267857Y-57913609D02*
X182267857Y-58437419D01*
X182267857Y-57913609D02*
X182315476Y-57818371D01*
X182315476Y-57818371D02*
X182410714Y-57770752D01*
X182410714Y-57770752D02*
X182553571Y-57770752D01*
X182553571Y-57770752D02*
X182648810Y-57818371D01*
X182648810Y-57818371D02*
X182696429Y-57913609D01*
X182696429Y-57913609D02*
X182696429Y-58437419D01*
X169945000Y-60960000D02*
X169945000Y-58493580D01*
X186305000Y-60960000D02*
X186305000Y-58493580D01*
X169945000Y-59080000D02*
X186305000Y-59080000D01*
X169945000Y-59080000D02*
X186305000Y-59080000D01*
X169945000Y-59080000D02*
X171071504Y-58493579D01*
X169945000Y-59080000D02*
X171071504Y-59666421D01*
X186305000Y-59080000D02*
X185178496Y-59666421D01*
X186305000Y-59080000D02*
X185178496Y-58493579D01*
D11*
X170394817Y-78939302D02*
X171204340Y-78939302D01*
X171204340Y-78939302D02*
X171299578Y-78891683D01*
X171299578Y-78891683D02*
X171347198Y-78844064D01*
X171347198Y-78844064D02*
X171394817Y-78748826D01*
X171394817Y-78748826D02*
X171394817Y-78558350D01*
X171394817Y-78558350D02*
X171347198Y-78463112D01*
X171347198Y-78463112D02*
X171299578Y-78415493D01*
X171299578Y-78415493D02*
X171204340Y-78367874D01*
X171204340Y-78367874D02*
X170394817Y-78367874D01*
X170394817Y-77986921D02*
X170394817Y-77367874D01*
X170394817Y-77367874D02*
X170775769Y-77701207D01*
X170775769Y-77701207D02*
X170775769Y-77558350D01*
X170775769Y-77558350D02*
X170823388Y-77463112D01*
X170823388Y-77463112D02*
X170871007Y-77415493D01*
X170871007Y-77415493D02*
X170966245Y-77367874D01*
X170966245Y-77367874D02*
X171204340Y-77367874D01*
X171204340Y-77367874D02*
X171299578Y-77415493D01*
X171299578Y-77415493D02*
X171347198Y-77463112D01*
X171347198Y-77463112D02*
X171394817Y-77558350D01*
X171394817Y-77558350D02*
X171394817Y-77844064D01*
X171394817Y-77844064D02*
X171347198Y-77939302D01*
X171347198Y-77939302D02*
X171299578Y-77986921D01*
X171363333Y-68879580D02*
X171315714Y-68927200D01*
X171315714Y-68927200D02*
X171172857Y-68974819D01*
X171172857Y-68974819D02*
X171077619Y-68974819D01*
X171077619Y-68974819D02*
X170934762Y-68927200D01*
X170934762Y-68927200D02*
X170839524Y-68831961D01*
X170839524Y-68831961D02*
X170791905Y-68736723D01*
X170791905Y-68736723D02*
X170744286Y-68546247D01*
X170744286Y-68546247D02*
X170744286Y-68403390D01*
X170744286Y-68403390D02*
X170791905Y-68212914D01*
X170791905Y-68212914D02*
X170839524Y-68117676D01*
X170839524Y-68117676D02*
X170934762Y-68022438D01*
X170934762Y-68022438D02*
X171077619Y-67974819D01*
X171077619Y-67974819D02*
X171172857Y-67974819D01*
X171172857Y-67974819D02*
X171315714Y-68022438D01*
X171315714Y-68022438D02*
X171363333Y-68070057D01*
X172315714Y-68974819D02*
X171744286Y-68974819D01*
X172030000Y-68974819D02*
X172030000Y-67974819D01*
X172030000Y-67974819D02*
X171934762Y-68117676D01*
X171934762Y-68117676D02*
X171839524Y-68212914D01*
X171839524Y-68212914D02*
X171744286Y-68260533D01*
X185324819Y-81306666D02*
X184848628Y-81639999D01*
X185324819Y-81878094D02*
X184324819Y-81878094D01*
X184324819Y-81878094D02*
X184324819Y-81497142D01*
X184324819Y-81497142D02*
X184372438Y-81401904D01*
X184372438Y-81401904D02*
X184420057Y-81354285D01*
X184420057Y-81354285D02*
X184515295Y-81306666D01*
X184515295Y-81306666D02*
X184658152Y-81306666D01*
X184658152Y-81306666D02*
X184753390Y-81354285D01*
X184753390Y-81354285D02*
X184801009Y-81401904D01*
X184801009Y-81401904D02*
X184848628Y-81497142D01*
X184848628Y-81497142D02*
X184848628Y-81878094D01*
X184420057Y-80925713D02*
X184372438Y-80878094D01*
X184372438Y-80878094D02*
X184324819Y-80782856D01*
X184324819Y-80782856D02*
X184324819Y-80544761D01*
X184324819Y-80544761D02*
X184372438Y-80449523D01*
X184372438Y-80449523D02*
X184420057Y-80401904D01*
X184420057Y-80401904D02*
X184515295Y-80354285D01*
X184515295Y-80354285D02*
X184610533Y-80354285D01*
X184610533Y-80354285D02*
X184753390Y-80401904D01*
X184753390Y-80401904D02*
X185324819Y-80973332D01*
X185324819Y-80973332D02*
X185324819Y-80354285D01*
X171214819Y-63993333D02*
X171929104Y-63993333D01*
X171929104Y-63993333D02*
X172071961Y-64040952D01*
X172071961Y-64040952D02*
X172167200Y-64136190D01*
X172167200Y-64136190D02*
X172214819Y-64279047D01*
X172214819Y-64279047D02*
X172214819Y-64374285D01*
X171310057Y-63564761D02*
X171262438Y-63517142D01*
X171262438Y-63517142D02*
X171214819Y-63421904D01*
X171214819Y-63421904D02*
X171214819Y-63183809D01*
X171214819Y-63183809D02*
X171262438Y-63088571D01*
X171262438Y-63088571D02*
X171310057Y-63040952D01*
X171310057Y-63040952D02*
X171405295Y-62993333D01*
X171405295Y-62993333D02*
X171500533Y-62993333D01*
X171500533Y-62993333D02*
X171643390Y-63040952D01*
X171643390Y-63040952D02*
X172214819Y-63612380D01*
X172214819Y-63612380D02*
X172214819Y-62993333D01*
X179308095Y-69934819D02*
X179308095Y-70744342D01*
X179308095Y-70744342D02*
X179355714Y-70839580D01*
X179355714Y-70839580D02*
X179403333Y-70887200D01*
X179403333Y-70887200D02*
X179498571Y-70934819D01*
X179498571Y-70934819D02*
X179689047Y-70934819D01*
X179689047Y-70934819D02*
X179784285Y-70887200D01*
X179784285Y-70887200D02*
X179831904Y-70839580D01*
X179831904Y-70839580D02*
X179879523Y-70744342D01*
X179879523Y-70744342D02*
X179879523Y-69934819D01*
X180308095Y-70030057D02*
X180355714Y-69982438D01*
X180355714Y-69982438D02*
X180450952Y-69934819D01*
X180450952Y-69934819D02*
X180689047Y-69934819D01*
X180689047Y-69934819D02*
X180784285Y-69982438D01*
X180784285Y-69982438D02*
X180831904Y-70030057D01*
X180831904Y-70030057D02*
X180879523Y-70125295D01*
X180879523Y-70125295D02*
X180879523Y-70220533D01*
X180879523Y-70220533D02*
X180831904Y-70363390D01*
X180831904Y-70363390D02*
X180260476Y-70934819D01*
X180260476Y-70934819D02*
X180879523Y-70934819D01*
X177223333Y-84044819D02*
X176890000Y-83568628D01*
X176651905Y-84044819D02*
X176651905Y-83044819D01*
X176651905Y-83044819D02*
X177032857Y-83044819D01*
X177032857Y-83044819D02*
X177128095Y-83092438D01*
X177128095Y-83092438D02*
X177175714Y-83140057D01*
X177175714Y-83140057D02*
X177223333Y-83235295D01*
X177223333Y-83235295D02*
X177223333Y-83378152D01*
X177223333Y-83378152D02*
X177175714Y-83473390D01*
X177175714Y-83473390D02*
X177128095Y-83521009D01*
X177128095Y-83521009D02*
X177032857Y-83568628D01*
X177032857Y-83568628D02*
X176651905Y-83568628D01*
X177556667Y-83044819D02*
X178175714Y-83044819D01*
X178175714Y-83044819D02*
X177842381Y-83425771D01*
X177842381Y-83425771D02*
X177985238Y-83425771D01*
X177985238Y-83425771D02*
X178080476Y-83473390D01*
X178080476Y-83473390D02*
X178128095Y-83521009D01*
X178128095Y-83521009D02*
X178175714Y-83616247D01*
X178175714Y-83616247D02*
X178175714Y-83854342D01*
X178175714Y-83854342D02*
X178128095Y-83949580D01*
X178128095Y-83949580D02*
X178080476Y-83997200D01*
X178080476Y-83997200D02*
X177985238Y-84044819D01*
X177985238Y-84044819D02*
X177699524Y-84044819D01*
X177699524Y-84044819D02*
X177604286Y-83997200D01*
X177604286Y-83997200D02*
X177556667Y-83949580D01*
X181226667Y-84162295D02*
X180960000Y-83781342D01*
X180769524Y-84162295D02*
X180769524Y-83362295D01*
X180769524Y-83362295D02*
X181074286Y-83362295D01*
X181074286Y-83362295D02*
X181150476Y-83400390D01*
X181150476Y-83400390D02*
X181188571Y-83438485D01*
X181188571Y-83438485D02*
X181226667Y-83514676D01*
X181226667Y-83514676D02*
X181226667Y-83628961D01*
X181226667Y-83628961D02*
X181188571Y-83705152D01*
X181188571Y-83705152D02*
X181150476Y-83743247D01*
X181150476Y-83743247D02*
X181074286Y-83781342D01*
X181074286Y-83781342D02*
X180769524Y-83781342D01*
X181912381Y-83628961D02*
X181912381Y-84162295D01*
X181721905Y-83324200D02*
X181531428Y-83895628D01*
X181531428Y-83895628D02*
X182026667Y-83895628D01*
X182429580Y-75149166D02*
X182477200Y-75196785D01*
X182477200Y-75196785D02*
X182524819Y-75339642D01*
X182524819Y-75339642D02*
X182524819Y-75434880D01*
X182524819Y-75434880D02*
X182477200Y-75577737D01*
X182477200Y-75577737D02*
X182381961Y-75672975D01*
X182381961Y-75672975D02*
X182286723Y-75720594D01*
X182286723Y-75720594D02*
X182096247Y-75768213D01*
X182096247Y-75768213D02*
X181953390Y-75768213D01*
X181953390Y-75768213D02*
X181762914Y-75720594D01*
X181762914Y-75720594D02*
X181667676Y-75672975D01*
X181667676Y-75672975D02*
X181572438Y-75577737D01*
X181572438Y-75577737D02*
X181524819Y-75434880D01*
X181524819Y-75434880D02*
X181524819Y-75339642D01*
X181524819Y-75339642D02*
X181572438Y-75196785D01*
X181572438Y-75196785D02*
X181620057Y-75149166D01*
X181524819Y-74815832D02*
X181524819Y-74196785D01*
X181524819Y-74196785D02*
X181905771Y-74530118D01*
X181905771Y-74530118D02*
X181905771Y-74387261D01*
X181905771Y-74387261D02*
X181953390Y-74292023D01*
X181953390Y-74292023D02*
X182001009Y-74244404D01*
X182001009Y-74244404D02*
X182096247Y-74196785D01*
X182096247Y-74196785D02*
X182334342Y-74196785D01*
X182334342Y-74196785D02*
X182429580Y-74244404D01*
X182429580Y-74244404D02*
X182477200Y-74292023D01*
X182477200Y-74292023D02*
X182524819Y-74387261D01*
X182524819Y-74387261D02*
X182524819Y-74672975D01*
X182524819Y-74672975D02*
X182477200Y-74768213D01*
X182477200Y-74768213D02*
X182429580Y-74815832D01*
X183509580Y-68059167D02*
X183557200Y-68106786D01*
X183557200Y-68106786D02*
X183604819Y-68249643D01*
X183604819Y-68249643D02*
X183604819Y-68344881D01*
X183604819Y-68344881D02*
X183557200Y-68487738D01*
X183557200Y-68487738D02*
X183461961Y-68582976D01*
X183461961Y-68582976D02*
X183366723Y-68630595D01*
X183366723Y-68630595D02*
X183176247Y-68678214D01*
X183176247Y-68678214D02*
X183033390Y-68678214D01*
X183033390Y-68678214D02*
X182842914Y-68630595D01*
X182842914Y-68630595D02*
X182747676Y-68582976D01*
X182747676Y-68582976D02*
X182652438Y-68487738D01*
X182652438Y-68487738D02*
X182604819Y-68344881D01*
X182604819Y-68344881D02*
X182604819Y-68249643D01*
X182604819Y-68249643D02*
X182652438Y-68106786D01*
X182652438Y-68106786D02*
X182700057Y-68059167D01*
X182700057Y-67678214D02*
X182652438Y-67630595D01*
X182652438Y-67630595D02*
X182604819Y-67535357D01*
X182604819Y-67535357D02*
X182604819Y-67297262D01*
X182604819Y-67297262D02*
X182652438Y-67202024D01*
X182652438Y-67202024D02*
X182700057Y-67154405D01*
X182700057Y-67154405D02*
X182795295Y-67106786D01*
X182795295Y-67106786D02*
X182890533Y-67106786D01*
X182890533Y-67106786D02*
X183033390Y-67154405D01*
X183033390Y-67154405D02*
X183604819Y-67725833D01*
X183604819Y-67725833D02*
X183604819Y-67106786D01*
X171523333Y-86819580D02*
X171475714Y-86867200D01*
X171475714Y-86867200D02*
X171332857Y-86914819D01*
X171332857Y-86914819D02*
X171237619Y-86914819D01*
X171237619Y-86914819D02*
X171094762Y-86867200D01*
X171094762Y-86867200D02*
X170999524Y-86771961D01*
X170999524Y-86771961D02*
X170951905Y-86676723D01*
X170951905Y-86676723D02*
X170904286Y-86486247D01*
X170904286Y-86486247D02*
X170904286Y-86343390D01*
X170904286Y-86343390D02*
X170951905Y-86152914D01*
X170951905Y-86152914D02*
X170999524Y-86057676D01*
X170999524Y-86057676D02*
X171094762Y-85962438D01*
X171094762Y-85962438D02*
X171237619Y-85914819D01*
X171237619Y-85914819D02*
X171332857Y-85914819D01*
X171332857Y-85914819D02*
X171475714Y-85962438D01*
X171475714Y-85962438D02*
X171523333Y-86010057D01*
X172380476Y-86248152D02*
X172380476Y-86914819D01*
X172142381Y-85867200D02*
X171904286Y-86581485D01*
X171904286Y-86581485D02*
X172523333Y-86581485D01*
X179588095Y-86854819D02*
X179588095Y-87664342D01*
X179588095Y-87664342D02*
X179635714Y-87759580D01*
X179635714Y-87759580D02*
X179683333Y-87807200D01*
X179683333Y-87807200D02*
X179778571Y-87854819D01*
X179778571Y-87854819D02*
X179969047Y-87854819D01*
X179969047Y-87854819D02*
X180064285Y-87807200D01*
X180064285Y-87807200D02*
X180111904Y-87759580D01*
X180111904Y-87759580D02*
X180159523Y-87664342D01*
X180159523Y-87664342D02*
X180159523Y-86854819D01*
X181159523Y-87854819D02*
X180588095Y-87854819D01*
X180873809Y-87854819D02*
X180873809Y-86854819D01*
X180873809Y-86854819D02*
X180778571Y-86997676D01*
X180778571Y-86997676D02*
X180683333Y-87092914D01*
X180683333Y-87092914D02*
X180588095Y-87140533D01*
X183323333Y-71484819D02*
X182990000Y-71008628D01*
X182751905Y-71484819D02*
X182751905Y-70484819D01*
X182751905Y-70484819D02*
X183132857Y-70484819D01*
X183132857Y-70484819D02*
X183228095Y-70532438D01*
X183228095Y-70532438D02*
X183275714Y-70580057D01*
X183275714Y-70580057D02*
X183323333Y-70675295D01*
X183323333Y-70675295D02*
X183323333Y-70818152D01*
X183323333Y-70818152D02*
X183275714Y-70913390D01*
X183275714Y-70913390D02*
X183228095Y-70961009D01*
X183228095Y-70961009D02*
X183132857Y-71008628D01*
X183132857Y-71008628D02*
X182751905Y-71008628D01*
X184275714Y-71484819D02*
X183704286Y-71484819D01*
X183990000Y-71484819D02*
X183990000Y-70484819D01*
X183990000Y-70484819D02*
X183894762Y-70627676D01*
X183894762Y-70627676D02*
X183799524Y-70722914D01*
X183799524Y-70722914D02*
X183704286Y-70770533D01*
X176029819Y-77771904D02*
X176839342Y-77771904D01*
X176839342Y-77771904D02*
X176934580Y-77724285D01*
X176934580Y-77724285D02*
X176982200Y-77676666D01*
X176982200Y-77676666D02*
X177029819Y-77581428D01*
X177029819Y-77581428D02*
X177029819Y-77390952D01*
X177029819Y-77390952D02*
X176982200Y-77295714D01*
X176982200Y-77295714D02*
X176934580Y-77248095D01*
X176934580Y-77248095D02*
X176839342Y-77200476D01*
X176839342Y-77200476D02*
X176029819Y-77200476D01*
X176363152Y-76295714D02*
X177029819Y-76295714D01*
X175982200Y-76533809D02*
X176696485Y-76771904D01*
X176696485Y-76771904D02*
X176696485Y-76152857D01*
D12*
%TO.C,U3*%
X172015999Y-77136084D02*
X172015999Y-77588716D01*
X175063999Y-77588716D02*
X175063999Y-77136084D01*
D13*
%TO.C,C1*%
X173510000Y-67756234D02*
X173510000Y-68048768D01*
X174530000Y-67756234D02*
X174530000Y-68048768D01*
%TO.C,R2*%
X182937500Y-78447776D02*
X182937500Y-78957224D01*
X183982500Y-78447776D02*
X183982500Y-78957224D01*
%TO.C,J2*%
X172760000Y-64990000D02*
X172760000Y-63660000D01*
X174090000Y-64990000D02*
X172760000Y-64990000D01*
X175360000Y-62330000D02*
X183040000Y-62330000D01*
X175360000Y-64990000D02*
X175360000Y-62330000D01*
X175360000Y-64990000D02*
X183040000Y-64990000D01*
X183040000Y-64990000D02*
X183040000Y-62330000D01*
D12*
%TO.C,U2*%
X176826700Y-69666401D02*
X178884100Y-69666401D01*
X178884100Y-66313601D02*
X176826700Y-66313601D01*
X178884100Y-68353262D02*
X178884100Y-67626740D01*
D13*
%TO.C,R3*%
X177677224Y-81567500D02*
X177167776Y-81567500D01*
X177677224Y-82612500D02*
X177167776Y-82612500D01*
%TO.C,R4*%
X181427224Y-81557500D02*
X180917776Y-81557500D01*
X181427224Y-82602500D02*
X180917776Y-82602500D01*
%TO.C,C3*%
X182990000Y-75128767D02*
X182990000Y-74836233D01*
X184010000Y-75128767D02*
X184010000Y-74836233D01*
%TO.C,C2*%
X181210000Y-67746234D02*
X181210000Y-68038768D01*
X182230000Y-67746234D02*
X182230000Y-68038768D01*
%TO.C,C4*%
X173183767Y-87620000D02*
X172891233Y-87620000D01*
X173183767Y-88640000D02*
X172891233Y-88640000D01*
D12*
%TO.C,U1*%
X175929000Y-86280500D02*
X175929000Y-87931500D01*
X176967860Y-86280500D02*
X175929000Y-86280500D01*
X177242180Y-87931500D02*
X177917820Y-87931500D01*
X179231000Y-86280500D02*
X178192140Y-86280500D01*
X179231000Y-87931500D02*
X179231000Y-86280500D01*
X176706240Y-89544400D02*
G75*
G02*
X176553840Y-89544400I-76200J0D01*
G01*
X176553840Y-89544400D02*
G75*
G02*
X176706240Y-89544400I76200J0D01*
G01*
D13*
%TO.C,R1*%
X180587224Y-71637500D02*
X180077776Y-71637500D01*
X180587224Y-72682500D02*
X180077776Y-72682500D01*
%TO.C,U4*%
X177455000Y-75510000D02*
X177455000Y-78510000D01*
X180695000Y-75510000D02*
X180695000Y-78510000D01*
X177625000Y-79010000D02*
X177295000Y-79250000D01*
X177295000Y-78770000D01*
X177625000Y-79010000D01*
G36*
X177625000Y-79010000D02*
G01*
X177295000Y-79250000D01*
X177295000Y-78770000D01*
X177625000Y-79010000D01*
G37*
%TD*%
%LPC*%
D14*
%TO.C,U3*%
X172589998Y-78480000D03*
X173539999Y-78480000D03*
X174490000Y-78480000D03*
X174490000Y-76244800D03*
X173539999Y-76244800D03*
X172589998Y-76244800D03*
%TD*%
D15*
%TO.C,C1*%
X174020000Y-67040001D03*
X174020000Y-68765001D03*
%TD*%
D16*
%TO.C,R2*%
X183460000Y-77790000D03*
X183460000Y-79615000D03*
%TD*%
D17*
%TO.C,J2*%
X174090000Y-63660000D03*
D18*
X176630000Y-63660000D03*
X179170000Y-63660000D03*
X181710000Y-63660000D03*
%TD*%
D19*
%TO.C,U2*%
X176560000Y-67040000D03*
X176560000Y-67990001D03*
X176560000Y-68940002D03*
X179150800Y-68940002D03*
X179150800Y-67040000D03*
%TD*%
D20*
%TO.C,R3*%
X178335000Y-82090000D03*
X176510000Y-82090000D03*
%TD*%
%TO.C,R4*%
X182085000Y-82080000D03*
X180260000Y-82080000D03*
%TD*%
D21*
%TO.C,C3*%
X183500000Y-75845000D03*
X183500000Y-74120000D03*
%TD*%
D15*
%TO.C,C2*%
X181720000Y-67030001D03*
X181720000Y-68755001D03*
%TD*%
D22*
%TO.C,C4*%
X173900000Y-88130000D03*
X172175000Y-88130000D03*
%TD*%
D23*
%TO.C,U1*%
X176630040Y-88122000D03*
X178529960Y-88122000D03*
X177580000Y-86090000D03*
%TD*%
D20*
%TO.C,R1*%
X181245000Y-72160000D03*
X179420000Y-72160000D03*
%TD*%
D24*
%TO.C,U4*%
X178100000Y-79210000D03*
X178750000Y-79210000D03*
X179400000Y-79210000D03*
X180050000Y-79210000D03*
X180050000Y-74810000D03*
X179400000Y-74810000D03*
X178750000Y-74810000D03*
X178100000Y-74810000D03*
%TD*%
%LPD*%
M02*
