%TF.GenerationSoftware,KiCad,Pcbnew,8.0.1*%
%TF.CreationDate,2025-01-22T20:15:40-07:00*%
%TF.ProjectId,BatterySwitch,42617474-6572-4795-9377-697463682e6b,rev?*%
%TF.SameCoordinates,Original*%
%TF.FileFunction,Copper,L1,Top*%
%TF.FilePolarity,Positive*%
%FSLAX46Y46*%
G04 Gerber Fmt 4.6, Leading zero omitted, Abs format (unit mm)*
G04 Created by KiCad (PCBNEW 8.0.1) date 2025-01-22 20:15:40*
%MOMM*%
%LPD*%
G01*
G04 APERTURE LIST*
%TA.AperFunction,SMDPad,CuDef*%
%ADD10R,0.990600X2.489200*%
%TD*%
%TA.AperFunction,ComponentPad*%
%ADD11C,1.346200*%
%TD*%
%TA.AperFunction,ComponentPad*%
%ADD12R,1.700000X1.700000*%
%TD*%
%TA.AperFunction,ComponentPad*%
%ADD13O,1.700000X1.700000*%
%TD*%
%TA.AperFunction,Conductor*%
%ADD14C,0.200000*%
%TD*%
G04 APERTURE END LIST*
D10*
%TO.P,SW1,1,1*%
%TO.N,SWITCH_OUT*%
X136490000Y-77050000D03*
%TO.P,SW1,2,2*%
X134490002Y-77050000D03*
%TO.P,SW1,3,3*%
%TO.N,VCC*%
X132490000Y-77050000D03*
D11*
%TO.P,SW1,5*%
%TO.N,N/C*%
X136640000Y-73300000D03*
%TO.P,SW1,6*%
X130340002Y-73300000D03*
%TD*%
D12*
%TO.P,J2,1,Pin_1*%
%TO.N,GND*%
X132615000Y-81340000D03*
D13*
%TO.P,J2,2,Pin_2*%
%TO.N,SWITCH_OUT*%
X130075000Y-81340000D03*
%TD*%
D12*
%TO.P,J1,1,Pin_1*%
%TO.N,VCC*%
X126340000Y-77230000D03*
D13*
%TO.P,J1,2,Pin_2*%
%TO.N,GND*%
X126340000Y-74690000D03*
%TD*%
D14*
%TO.N,VCC*%
X132490000Y-77050000D02*
X132310000Y-77230000D01*
X132310000Y-77230000D02*
X126340000Y-77230000D01*
X132500000Y-76640000D02*
X132500000Y-77800000D01*
%TO.N,SWITCH_OUT*%
X130075000Y-81340000D02*
X130075000Y-79915000D01*
X134490002Y-77050000D02*
X136490000Y-77050000D01*
X130910000Y-79080000D02*
X133920000Y-79080000D01*
X134490002Y-78509998D02*
X134490002Y-77050000D01*
X130075000Y-79915000D02*
X130910000Y-79080000D01*
X133920000Y-79080000D02*
X134490002Y-78509998D01*
%TD*%
%TA.AperFunction,Conductor*%
%TO.N,GND*%
G36*
X130086718Y-72338093D02*
G01*
X130112438Y-72382642D01*
X130103505Y-72433300D01*
X130068966Y-72464399D01*
X129900796Y-72539272D01*
X129752232Y-72647210D01*
X129752231Y-72647211D01*
X129629350Y-72783683D01*
X129629349Y-72783685D01*
X129537533Y-72942715D01*
X129537530Y-72942722D01*
X129480785Y-73117366D01*
X129480785Y-73117367D01*
X129461590Y-73299999D01*
X129461590Y-73300000D01*
X129480785Y-73482632D01*
X129480785Y-73482633D01*
X129537530Y-73657277D01*
X129537533Y-73657284D01*
X129629349Y-73816314D01*
X129629350Y-73816316D01*
X129752231Y-73952788D01*
X129752232Y-73952789D01*
X129834317Y-74012427D01*
X129900796Y-74060727D01*
X130068558Y-74135419D01*
X130248183Y-74173600D01*
X130248185Y-74173600D01*
X130431819Y-74173600D01*
X130431821Y-74173600D01*
X130611446Y-74135419D01*
X130779208Y-74060727D01*
X130927774Y-73952787D01*
X131050652Y-73816318D01*
X131142471Y-73657282D01*
X131144223Y-73651892D01*
X131162750Y-73594868D01*
X131199219Y-73482632D01*
X131218414Y-73300000D01*
X131199219Y-73117368D01*
X131180303Y-73059151D01*
X131142473Y-72942722D01*
X131142470Y-72942715D01*
X131050654Y-72783685D01*
X131050653Y-72783683D01*
X130927772Y-72647211D01*
X130927771Y-72647210D01*
X130779207Y-72539272D01*
X130611038Y-72464399D01*
X130574035Y-72428666D01*
X130568658Y-72377508D01*
X130597422Y-72334862D01*
X130641624Y-72320500D01*
X136338378Y-72320500D01*
X136386716Y-72338093D01*
X136412436Y-72382642D01*
X136403503Y-72433300D01*
X136368964Y-72464399D01*
X136200794Y-72539272D01*
X136052230Y-72647210D01*
X136052229Y-72647211D01*
X135929348Y-72783683D01*
X135929347Y-72783685D01*
X135837531Y-72942715D01*
X135837528Y-72942722D01*
X135780783Y-73117366D01*
X135780783Y-73117367D01*
X135761588Y-73299999D01*
X135761588Y-73300000D01*
X135780783Y-73482632D01*
X135780783Y-73482633D01*
X135837528Y-73657277D01*
X135837531Y-73657284D01*
X135929347Y-73816314D01*
X135929348Y-73816316D01*
X136052229Y-73952788D01*
X136052230Y-73952789D01*
X136134315Y-74012427D01*
X136200794Y-74060727D01*
X136368556Y-74135419D01*
X136548181Y-74173600D01*
X136548183Y-74173600D01*
X136731817Y-74173600D01*
X136731819Y-74173600D01*
X136911444Y-74135419D01*
X137079206Y-74060727D01*
X137227772Y-73952787D01*
X137350650Y-73816318D01*
X137442469Y-73657282D01*
X137444221Y-73651892D01*
X137462748Y-73594868D01*
X137499217Y-73482632D01*
X137518412Y-73300000D01*
X137499217Y-73117368D01*
X137480301Y-73059151D01*
X137442471Y-72942722D01*
X137442468Y-72942715D01*
X137350652Y-72783685D01*
X137350651Y-72783683D01*
X137227770Y-72647211D01*
X137227769Y-72647210D01*
X137079205Y-72539272D01*
X136911036Y-72464399D01*
X136874033Y-72428666D01*
X136868656Y-72377508D01*
X136897420Y-72334862D01*
X136941622Y-72320500D01*
X138164300Y-72320500D01*
X138212638Y-72338093D01*
X138238358Y-72382642D01*
X138239500Y-72395700D01*
X138239500Y-83104300D01*
X138221907Y-83152638D01*
X138177358Y-83178358D01*
X138164300Y-83179500D01*
X124695700Y-83179500D01*
X124647362Y-83161907D01*
X124621642Y-83117358D01*
X124620500Y-83104300D01*
X124620500Y-81340000D01*
X129019417Y-81340000D01*
X129039699Y-81545932D01*
X129099765Y-81743947D01*
X129099770Y-81743959D01*
X129132892Y-81805925D01*
X129197315Y-81926450D01*
X129328590Y-82086410D01*
X129488550Y-82217685D01*
X129671046Y-82315232D01*
X129671050Y-82315233D01*
X129671052Y-82315234D01*
X129744778Y-82337598D01*
X129869066Y-82375300D01*
X130075000Y-82395583D01*
X130280934Y-82375300D01*
X130478954Y-82315232D01*
X130661450Y-82217685D01*
X130821410Y-82086410D01*
X130952685Y-81926450D01*
X131050232Y-81743954D01*
X131110300Y-81545934D01*
X131114962Y-81498599D01*
X131137209Y-81452220D01*
X131184063Y-81430990D01*
X131233602Y-81444845D01*
X131262646Y-81487301D01*
X131265000Y-81505971D01*
X131265000Y-82237831D01*
X131271401Y-82297374D01*
X131271402Y-82297377D01*
X131321648Y-82432090D01*
X131321649Y-82432092D01*
X131407810Y-82547189D01*
X131522907Y-82633350D01*
X131522909Y-82633351D01*
X131657622Y-82683597D01*
X131657625Y-82683598D01*
X131717168Y-82689999D01*
X131717180Y-82690000D01*
X132365000Y-82690000D01*
X132365000Y-81773012D01*
X132422007Y-81805925D01*
X132549174Y-81840000D01*
X132680826Y-81840000D01*
X132807993Y-81805925D01*
X132865000Y-81773012D01*
X132865000Y-82690000D01*
X133512820Y-82690000D01*
X133512831Y-82689999D01*
X133572374Y-82683598D01*
X133572377Y-82683597D01*
X133707090Y-82633351D01*
X133707092Y-82633350D01*
X133822189Y-82547189D01*
X133908350Y-82432092D01*
X133908351Y-82432090D01*
X133958597Y-82297377D01*
X133958598Y-82297374D01*
X133964999Y-82237831D01*
X133965000Y-82237820D01*
X133965000Y-81590000D01*
X133048012Y-81590000D01*
X133080925Y-81532993D01*
X133115000Y-81405826D01*
X133115000Y-81274174D01*
X133080925Y-81147007D01*
X133048012Y-81090000D01*
X133965000Y-81090000D01*
X133965000Y-80442180D01*
X133964999Y-80442168D01*
X133958598Y-80382625D01*
X133958597Y-80382622D01*
X133908351Y-80247909D01*
X133908350Y-80247907D01*
X133822189Y-80132810D01*
X133707092Y-80046649D01*
X133707090Y-80046648D01*
X133572377Y-79996402D01*
X133572374Y-79996401D01*
X133512831Y-79990000D01*
X132865000Y-79990000D01*
X132865000Y-80906988D01*
X132807993Y-80874075D01*
X132680826Y-80840000D01*
X132549174Y-80840000D01*
X132422007Y-80874075D01*
X132365000Y-80906988D01*
X132365000Y-79990000D01*
X131717168Y-79990000D01*
X131657625Y-79996401D01*
X131657622Y-79996402D01*
X131522909Y-80046648D01*
X131522907Y-80046649D01*
X131407810Y-80132810D01*
X131321649Y-80247907D01*
X131321648Y-80247909D01*
X131271402Y-80382622D01*
X131271401Y-80382625D01*
X131265000Y-80442168D01*
X131265000Y-81174028D01*
X131247407Y-81222366D01*
X131202858Y-81248086D01*
X131152200Y-81239153D01*
X131119135Y-81199748D01*
X131114962Y-81181399D01*
X131110300Y-81134067D01*
X131050234Y-80936052D01*
X131050229Y-80936040D01*
X130952687Y-80753554D01*
X130952684Y-80753549D01*
X130821410Y-80593590D01*
X130661450Y-80462315D01*
X130661445Y-80462312D01*
X130478959Y-80364770D01*
X130478956Y-80364769D01*
X130478954Y-80364768D01*
X130428869Y-80349574D01*
X130387721Y-80318706D01*
X130375500Y-80277613D01*
X130375500Y-80070619D01*
X130393093Y-80022281D01*
X130397526Y-80017445D01*
X131012445Y-79402526D01*
X131059065Y-79380786D01*
X131065619Y-79380500D01*
X133959560Y-79380500D01*
X133959562Y-79380500D01*
X134035989Y-79360021D01*
X134104511Y-79320460D01*
X134160460Y-79264511D01*
X134730462Y-78694509D01*
X134770024Y-78625986D01*
X134790159Y-78550836D01*
X134819663Y-78508700D01*
X134862797Y-78495100D01*
X135005051Y-78495100D01*
X135024544Y-78491222D01*
X135063533Y-78483467D01*
X135129854Y-78439152D01*
X135174169Y-78372831D01*
X135185802Y-78314348D01*
X135185802Y-77425700D01*
X135203395Y-77377362D01*
X135247944Y-77351642D01*
X135261002Y-77350500D01*
X135719000Y-77350500D01*
X135767338Y-77368093D01*
X135793058Y-77412642D01*
X135794200Y-77425700D01*
X135794200Y-78314348D01*
X135805832Y-78372829D01*
X135805833Y-78372831D01*
X135850148Y-78439152D01*
X135916469Y-78483467D01*
X135945710Y-78489283D01*
X135974951Y-78495100D01*
X135974952Y-78495100D01*
X137005049Y-78495100D01*
X137024542Y-78491222D01*
X137063531Y-78483467D01*
X137129852Y-78439152D01*
X137174167Y-78372831D01*
X137185800Y-78314348D01*
X137185800Y-75785652D01*
X137174167Y-75727169D01*
X137129852Y-75660848D01*
X137063531Y-75616533D01*
X137063529Y-75616532D01*
X137005049Y-75604900D01*
X137005048Y-75604900D01*
X135974952Y-75604900D01*
X135974951Y-75604900D01*
X135916470Y-75616532D01*
X135916468Y-75616533D01*
X135850148Y-75660848D01*
X135805833Y-75727168D01*
X135805832Y-75727170D01*
X135794200Y-75785651D01*
X135794200Y-76674300D01*
X135776607Y-76722638D01*
X135732058Y-76748358D01*
X135719000Y-76749500D01*
X135261002Y-76749500D01*
X135212664Y-76731907D01*
X135186944Y-76687358D01*
X135185802Y-76674300D01*
X135185802Y-75785651D01*
X135174169Y-75727170D01*
X135174168Y-75727168D01*
X135129854Y-75660848D01*
X135063533Y-75616533D01*
X135063531Y-75616532D01*
X135005051Y-75604900D01*
X135005050Y-75604900D01*
X133974954Y-75604900D01*
X133974953Y-75604900D01*
X133916472Y-75616532D01*
X133916470Y-75616533D01*
X133850150Y-75660848D01*
X133805835Y-75727168D01*
X133805834Y-75727170D01*
X133794202Y-75785651D01*
X133794202Y-78314348D01*
X133805834Y-78372829D01*
X133805835Y-78372831D01*
X133850150Y-78439152D01*
X133916471Y-78483467D01*
X133924525Y-78485069D01*
X133968502Y-78511753D01*
X133985038Y-78560463D01*
X133966395Y-78608406D01*
X133963031Y-78611998D01*
X133817554Y-78757474D01*
X133770935Y-78779214D01*
X133764381Y-78779500D01*
X130870438Y-78779500D01*
X130832224Y-78789739D01*
X130794009Y-78799979D01*
X130725490Y-78839539D01*
X130725484Y-78839543D01*
X129890489Y-79674540D01*
X129862514Y-79702514D01*
X129834540Y-79730488D01*
X129834539Y-79730490D01*
X129794979Y-79799009D01*
X129774500Y-79875439D01*
X129774500Y-80277613D01*
X129756907Y-80325951D01*
X129721130Y-80349574D01*
X129671046Y-80364768D01*
X129671045Y-80364768D01*
X129671040Y-80364770D01*
X129488554Y-80462312D01*
X129488549Y-80462315D01*
X129328590Y-80593590D01*
X129197315Y-80753549D01*
X129197312Y-80753554D01*
X129099770Y-80936040D01*
X129099765Y-80936052D01*
X129039699Y-81134067D01*
X129019417Y-81340000D01*
X124620500Y-81340000D01*
X124620500Y-74940000D01*
X125009364Y-74940000D01*
X125066568Y-75153490D01*
X125066570Y-75153494D01*
X125166398Y-75367576D01*
X125301885Y-75561072D01*
X125301896Y-75561085D01*
X125468914Y-75728103D01*
X125468927Y-75728114D01*
X125662423Y-75863601D01*
X125662423Y-75863602D01*
X125876505Y-75963429D01*
X125876509Y-75963430D01*
X126104683Y-76024569D01*
X126159736Y-76029386D01*
X126206356Y-76051126D01*
X126228096Y-76097746D01*
X126214782Y-76147433D01*
X126172645Y-76176938D01*
X126153182Y-76179500D01*
X125470251Y-76179500D01*
X125411770Y-76191132D01*
X125411768Y-76191133D01*
X125345448Y-76235448D01*
X125301133Y-76301768D01*
X125301132Y-76301770D01*
X125289500Y-76360251D01*
X125289500Y-78099748D01*
X125301132Y-78158229D01*
X125301133Y-78158231D01*
X125345448Y-78224552D01*
X125411769Y-78268867D01*
X125441010Y-78274683D01*
X125470251Y-78280500D01*
X125470252Y-78280500D01*
X127209749Y-78280500D01*
X127229242Y-78276622D01*
X127268231Y-78268867D01*
X127334552Y-78224552D01*
X127378867Y-78158231D01*
X127390500Y-78099748D01*
X127390500Y-77605700D01*
X127408093Y-77557362D01*
X127452642Y-77531642D01*
X127465700Y-77530500D01*
X131719000Y-77530500D01*
X131767338Y-77548093D01*
X131793058Y-77592642D01*
X131794200Y-77605700D01*
X131794200Y-78314348D01*
X131805832Y-78372829D01*
X131805833Y-78372831D01*
X131850148Y-78439152D01*
X131916469Y-78483467D01*
X131945710Y-78489283D01*
X131974951Y-78495100D01*
X131974952Y-78495100D01*
X133005049Y-78495100D01*
X133024542Y-78491222D01*
X133063531Y-78483467D01*
X133129852Y-78439152D01*
X133174167Y-78372831D01*
X133185800Y-78314348D01*
X133185800Y-75785652D01*
X133174167Y-75727169D01*
X133129852Y-75660848D01*
X133063531Y-75616533D01*
X133063529Y-75616532D01*
X133005049Y-75604900D01*
X133005048Y-75604900D01*
X131974952Y-75604900D01*
X131974951Y-75604900D01*
X131916470Y-75616532D01*
X131916468Y-75616533D01*
X131850148Y-75660848D01*
X131805833Y-75727168D01*
X131805832Y-75727170D01*
X131794200Y-75785651D01*
X131794200Y-76854300D01*
X131776607Y-76902638D01*
X131732058Y-76928358D01*
X131719000Y-76929500D01*
X127465700Y-76929500D01*
X127417362Y-76911907D01*
X127391642Y-76867358D01*
X127390500Y-76854300D01*
X127390500Y-76360251D01*
X127378867Y-76301770D01*
X127378866Y-76301768D01*
X127334552Y-76235448D01*
X127268231Y-76191133D01*
X127268229Y-76191132D01*
X127209749Y-76179500D01*
X127209748Y-76179500D01*
X126526818Y-76179500D01*
X126478480Y-76161907D01*
X126452760Y-76117358D01*
X126461693Y-76066700D01*
X126501098Y-76033635D01*
X126520264Y-76029386D01*
X126575316Y-76024569D01*
X126803490Y-75963430D01*
X126803494Y-75963429D01*
X127017576Y-75863602D01*
X127017576Y-75863601D01*
X127211072Y-75728114D01*
X127211085Y-75728103D01*
X127378103Y-75561085D01*
X127378114Y-75561072D01*
X127513601Y-75367576D01*
X127513602Y-75367576D01*
X127613429Y-75153494D01*
X127613431Y-75153490D01*
X127670636Y-74940000D01*
X126773012Y-74940000D01*
X126805925Y-74882993D01*
X126840000Y-74755826D01*
X126840000Y-74624174D01*
X126805925Y-74497007D01*
X126773012Y-74440000D01*
X127670636Y-74440000D01*
X127613431Y-74226509D01*
X127613429Y-74226505D01*
X127513603Y-74012427D01*
X127378107Y-73818918D01*
X127211085Y-73651896D01*
X127211072Y-73651885D01*
X127017576Y-73516398D01*
X127017576Y-73516397D01*
X126803494Y-73416570D01*
X126803490Y-73416568D01*
X126590000Y-73359364D01*
X126590000Y-74256988D01*
X126532993Y-74224075D01*
X126405826Y-74190000D01*
X126274174Y-74190000D01*
X126147007Y-74224075D01*
X126090000Y-74256988D01*
X126090000Y-73359364D01*
X125876509Y-73416568D01*
X125876505Y-73416570D01*
X125662427Y-73516396D01*
X125468918Y-73651892D01*
X125301892Y-73818918D01*
X125166396Y-74012427D01*
X125066570Y-74226505D01*
X125066568Y-74226509D01*
X125009364Y-74440000D01*
X125906988Y-74440000D01*
X125874075Y-74497007D01*
X125840000Y-74624174D01*
X125840000Y-74755826D01*
X125874075Y-74882993D01*
X125906988Y-74940000D01*
X125009364Y-74940000D01*
X124620500Y-74940000D01*
X124620500Y-72395700D01*
X124638093Y-72347362D01*
X124682642Y-72321642D01*
X124695700Y-72320500D01*
X130038380Y-72320500D01*
X130086718Y-72338093D01*
G37*
%TD.AperFunction*%
%TD*%
M02*
