%TF.GenerationSoftware,KiCad,Pcbnew,8.0.1*%
%TF.CreationDate,2025-01-22T20:15:40-07:00*%
%TF.ProjectId,BatterySwitch,42617474-6572-4795-9377-697463682e6b,rev?*%
%TF.SameCoordinates,Original*%
%TF.FileFunction,Legend,Bot*%
%TF.FilePolarity,Positive*%
%FSLAX46Y46*%
G04 Gerber Fmt 4.6, Leading zero omitted, Abs format (unit mm)*
G04 Created by KiCad (PCBNEW 8.0.1) date 2025-01-22 20:15:40*
%MOMM*%
%LPD*%
G01*
G04 APERTURE LIST*
%ADD10C,0.150000*%
%ADD11C,0.508000*%
%ADD12C,0.120000*%
%ADD13C,1.346200*%
%ADD14R,1.700000X1.700000*%
%ADD15O,1.700000X1.700000*%
G04 APERTURE END LIST*
D10*
X126593333Y-79574819D02*
X126593333Y-80289104D01*
X126593333Y-80289104D02*
X126640952Y-80431961D01*
X126640952Y-80431961D02*
X126736190Y-80527200D01*
X126736190Y-80527200D02*
X126879047Y-80574819D01*
X126879047Y-80574819D02*
X126974285Y-80574819D01*
X125593333Y-80574819D02*
X126164761Y-80574819D01*
X125879047Y-80574819D02*
X125879047Y-79574819D01*
X125879047Y-79574819D02*
X125974285Y-79717676D01*
X125974285Y-79717676D02*
X126069523Y-79812914D01*
X126069523Y-79812914D02*
X126164761Y-79860533D01*
D11*
%TO.C,SW1*%
X140195601Y-77050000D02*
G75*
G02*
X139433601Y-77050000I-381000J0D01*
G01*
X139433601Y-77050000D02*
G75*
G02*
X140195601Y-77050000I381000J0D01*
G01*
D12*
%TO.C,J1*%
X125010000Y-73360000D02*
X125010000Y-75960000D01*
X125010000Y-78560000D02*
X125010000Y-77230000D01*
X126340000Y-78560000D02*
X125010000Y-78560000D01*
X127670000Y-73360000D02*
X125010000Y-73360000D01*
X127670000Y-73360000D02*
X127670000Y-75960000D01*
X127670000Y-75960000D02*
X125010000Y-75960000D01*
%TD*%
%LPC*%
D13*
%TO.C,SW1*%
X136640000Y-73300000D03*
X130340002Y-73300000D03*
%TD*%
D14*
%TO.C,J2*%
X132615000Y-81340000D03*
D15*
X130075000Y-81340000D03*
%TD*%
D14*
%TO.C,J1*%
X126340000Y-77230000D03*
D15*
X126340000Y-74690000D03*
%TD*%
%LPD*%
M02*
