%TF.GenerationSoftware,KiCad,Pcbnew,8.0.1*%
%TF.CreationDate,2025-01-22T20:20:58-07:00*%
%TF.ProjectId,BPW34Holder,42505733-3448-46f6-9c64-65722e6b6963,rev?*%
%TF.SameCoordinates,Original*%
%TF.FileFunction,Legend,Top*%
%TF.FilePolarity,Positive*%
%FSLAX46Y46*%
G04 Gerber Fmt 4.6, Leading zero omitted, Abs format (unit mm)*
G04 Created by KiCad (PCBNEW 8.0.1) date 2025-01-22 20:20:58*
%MOMM*%
%LPD*%
G01*
G04 APERTURE LIST*
G04 Aperture macros list*
%AMRoundRect*
0 Rectangle with rounded corners*
0 $1 Rounding radius*
0 $2 $3 $4 $5 $6 $7 $8 $9 X,Y pos of 4 corners*
0 Add a 4 corners polygon primitive as box body*
4,1,4,$2,$3,$4,$5,$6,$7,$8,$9,$2,$3,0*
0 Add four circle primitives for the rounded corners*
1,1,$1+$1,$2,$3*
1,1,$1+$1,$4,$5*
1,1,$1+$1,$6,$7*
1,1,$1+$1,$8,$9*
0 Add four rect primitives between the rounded corners*
20,1,$1+$1,$2,$3,$4,$5,0*
20,1,$1+$1,$4,$5,$6,$7,0*
20,1,$1+$1,$6,$7,$8,$9,0*
20,1,$1+$1,$8,$9,$2,$3,0*%
G04 Aperture macros list end*
%ADD10C,0.100000*%
%ADD11C,0.150000*%
%ADD12C,0.120000*%
%ADD13C,2.500000*%
%ADD14RoundRect,0.187500X0.562500X0.862500X-0.562500X0.862500X-0.562500X-0.862500X0.562500X-0.862500X0*%
%ADD15RoundRect,0.162500X0.587500X0.487500X-0.587500X0.487500X-0.587500X-0.487500X0.587500X-0.487500X0*%
%ADD16RoundRect,0.175000X0.525000X0.825000X-0.525000X0.825000X-0.525000X-0.825000X0.525000X-0.825000X0*%
%ADD17RoundRect,0.150000X0.550000X0.450000X-0.550000X0.450000X-0.550000X-0.450000X0.550000X-0.450000X0*%
%ADD18R,1.700000X1.700000*%
%ADD19O,1.700000X1.700000*%
G04 APERTURE END LIST*
D10*
X135147381Y-51427419D02*
X135337857Y-51427419D01*
X135337857Y-51427419D02*
X135433095Y-51379800D01*
X135433095Y-51379800D02*
X135480714Y-51332180D01*
X135480714Y-51332180D02*
X135575952Y-51189323D01*
X135575952Y-51189323D02*
X135623571Y-50998847D01*
X135623571Y-50998847D02*
X135623571Y-50617895D01*
X135623571Y-50617895D02*
X135575952Y-50522657D01*
X135575952Y-50522657D02*
X135528333Y-50475038D01*
X135528333Y-50475038D02*
X135433095Y-50427419D01*
X135433095Y-50427419D02*
X135242619Y-50427419D01*
X135242619Y-50427419D02*
X135147381Y-50475038D01*
X135147381Y-50475038D02*
X135099762Y-50522657D01*
X135099762Y-50522657D02*
X135052143Y-50617895D01*
X135052143Y-50617895D02*
X135052143Y-50855990D01*
X135052143Y-50855990D02*
X135099762Y-50951228D01*
X135099762Y-50951228D02*
X135147381Y-50998847D01*
X135147381Y-50998847D02*
X135242619Y-51046466D01*
X135242619Y-51046466D02*
X135433095Y-51046466D01*
X135433095Y-51046466D02*
X135528333Y-50998847D01*
X135528333Y-50998847D02*
X135575952Y-50951228D01*
X135575952Y-50951228D02*
X135623571Y-50855990D01*
X136052143Y-51332180D02*
X136099762Y-51379800D01*
X136099762Y-51379800D02*
X136052143Y-51427419D01*
X136052143Y-51427419D02*
X136004524Y-51379800D01*
X136004524Y-51379800D02*
X136052143Y-51332180D01*
X136052143Y-51332180D02*
X136052143Y-51427419D01*
X136480714Y-50522657D02*
X136528333Y-50475038D01*
X136528333Y-50475038D02*
X136623571Y-50427419D01*
X136623571Y-50427419D02*
X136861666Y-50427419D01*
X136861666Y-50427419D02*
X136956904Y-50475038D01*
X136956904Y-50475038D02*
X137004523Y-50522657D01*
X137004523Y-50522657D02*
X137052142Y-50617895D01*
X137052142Y-50617895D02*
X137052142Y-50713133D01*
X137052142Y-50713133D02*
X137004523Y-50855990D01*
X137004523Y-50855990D02*
X136433095Y-51427419D01*
X136433095Y-51427419D02*
X137052142Y-51427419D01*
X137528333Y-51427419D02*
X137718809Y-51427419D01*
X137718809Y-51427419D02*
X137814047Y-51379800D01*
X137814047Y-51379800D02*
X137861666Y-51332180D01*
X137861666Y-51332180D02*
X137956904Y-51189323D01*
X137956904Y-51189323D02*
X138004523Y-50998847D01*
X138004523Y-50998847D02*
X138004523Y-50617895D01*
X138004523Y-50617895D02*
X137956904Y-50522657D01*
X137956904Y-50522657D02*
X137909285Y-50475038D01*
X137909285Y-50475038D02*
X137814047Y-50427419D01*
X137814047Y-50427419D02*
X137623571Y-50427419D01*
X137623571Y-50427419D02*
X137528333Y-50475038D01*
X137528333Y-50475038D02*
X137480714Y-50522657D01*
X137480714Y-50522657D02*
X137433095Y-50617895D01*
X137433095Y-50617895D02*
X137433095Y-50855990D01*
X137433095Y-50855990D02*
X137480714Y-50951228D01*
X137480714Y-50951228D02*
X137528333Y-50998847D01*
X137528333Y-50998847D02*
X137623571Y-51046466D01*
X137623571Y-51046466D02*
X137814047Y-51046466D01*
X137814047Y-51046466D02*
X137909285Y-50998847D01*
X137909285Y-50998847D02*
X137956904Y-50951228D01*
X137956904Y-50951228D02*
X138004523Y-50855990D01*
X138623571Y-50427419D02*
X138718809Y-50427419D01*
X138718809Y-50427419D02*
X138814047Y-50475038D01*
X138814047Y-50475038D02*
X138861666Y-50522657D01*
X138861666Y-50522657D02*
X138909285Y-50617895D01*
X138909285Y-50617895D02*
X138956904Y-50808371D01*
X138956904Y-50808371D02*
X138956904Y-51046466D01*
X138956904Y-51046466D02*
X138909285Y-51236942D01*
X138909285Y-51236942D02*
X138861666Y-51332180D01*
X138861666Y-51332180D02*
X138814047Y-51379800D01*
X138814047Y-51379800D02*
X138718809Y-51427419D01*
X138718809Y-51427419D02*
X138623571Y-51427419D01*
X138623571Y-51427419D02*
X138528333Y-51379800D01*
X138528333Y-51379800D02*
X138480714Y-51332180D01*
X138480714Y-51332180D02*
X138433095Y-51236942D01*
X138433095Y-51236942D02*
X138385476Y-51046466D01*
X138385476Y-51046466D02*
X138385476Y-50808371D01*
X138385476Y-50808371D02*
X138433095Y-50617895D01*
X138433095Y-50617895D02*
X138480714Y-50522657D01*
X138480714Y-50522657D02*
X138528333Y-50475038D01*
X138528333Y-50475038D02*
X138623571Y-50427419D01*
X139575952Y-50427419D02*
X139671190Y-50427419D01*
X139671190Y-50427419D02*
X139766428Y-50475038D01*
X139766428Y-50475038D02*
X139814047Y-50522657D01*
X139814047Y-50522657D02*
X139861666Y-50617895D01*
X139861666Y-50617895D02*
X139909285Y-50808371D01*
X139909285Y-50808371D02*
X139909285Y-51046466D01*
X139909285Y-51046466D02*
X139861666Y-51236942D01*
X139861666Y-51236942D02*
X139814047Y-51332180D01*
X139814047Y-51332180D02*
X139766428Y-51379800D01*
X139766428Y-51379800D02*
X139671190Y-51427419D01*
X139671190Y-51427419D02*
X139575952Y-51427419D01*
X139575952Y-51427419D02*
X139480714Y-51379800D01*
X139480714Y-51379800D02*
X139433095Y-51332180D01*
X139433095Y-51332180D02*
X139385476Y-51236942D01*
X139385476Y-51236942D02*
X139337857Y-51046466D01*
X139337857Y-51046466D02*
X139337857Y-50808371D01*
X139337857Y-50808371D02*
X139385476Y-50617895D01*
X139385476Y-50617895D02*
X139433095Y-50522657D01*
X139433095Y-50522657D02*
X139480714Y-50475038D01*
X139480714Y-50475038D02*
X139575952Y-50427419D01*
X141099762Y-51427419D02*
X141099762Y-50760752D01*
X141099762Y-50855990D02*
X141147381Y-50808371D01*
X141147381Y-50808371D02*
X141242619Y-50760752D01*
X141242619Y-50760752D02*
X141385476Y-50760752D01*
X141385476Y-50760752D02*
X141480714Y-50808371D01*
X141480714Y-50808371D02*
X141528333Y-50903609D01*
X141528333Y-50903609D02*
X141528333Y-51427419D01*
X141528333Y-50903609D02*
X141575952Y-50808371D01*
X141575952Y-50808371D02*
X141671190Y-50760752D01*
X141671190Y-50760752D02*
X141814047Y-50760752D01*
X141814047Y-50760752D02*
X141909286Y-50808371D01*
X141909286Y-50808371D02*
X141956905Y-50903609D01*
X141956905Y-50903609D02*
X141956905Y-51427419D01*
X142433095Y-51427419D02*
X142433095Y-50760752D01*
X142433095Y-50855990D02*
X142480714Y-50808371D01*
X142480714Y-50808371D02*
X142575952Y-50760752D01*
X142575952Y-50760752D02*
X142718809Y-50760752D01*
X142718809Y-50760752D02*
X142814047Y-50808371D01*
X142814047Y-50808371D02*
X142861666Y-50903609D01*
X142861666Y-50903609D02*
X142861666Y-51427419D01*
X142861666Y-50903609D02*
X142909285Y-50808371D01*
X142909285Y-50808371D02*
X143004523Y-50760752D01*
X143004523Y-50760752D02*
X143147380Y-50760752D01*
X143147380Y-50760752D02*
X143242619Y-50808371D01*
X143242619Y-50808371D02*
X143290238Y-50903609D01*
X143290238Y-50903609D02*
X143290238Y-51427419D01*
X134550000Y-53110000D02*
X134550000Y-51483580D01*
X143840000Y-53110000D02*
X143840000Y-51483580D01*
X134550000Y-52070000D02*
X143840000Y-52070000D01*
X134550000Y-52070000D02*
X143840000Y-52070000D01*
X134550000Y-52070000D02*
X135676504Y-51483579D01*
X134550000Y-52070000D02*
X135676504Y-52656421D01*
X143840000Y-52070000D02*
X142713496Y-52656421D01*
X143840000Y-52070000D02*
X142713496Y-51483579D01*
X146737419Y-64252618D02*
X146737419Y-64824046D01*
X146737419Y-64538332D02*
X145737419Y-64538332D01*
X145737419Y-64538332D02*
X145880276Y-64633570D01*
X145880276Y-64633570D02*
X145975514Y-64728808D01*
X145975514Y-64728808D02*
X146023133Y-64824046D01*
X145737419Y-63919284D02*
X145737419Y-63300237D01*
X145737419Y-63300237D02*
X146118371Y-63633570D01*
X146118371Y-63633570D02*
X146118371Y-63490713D01*
X146118371Y-63490713D02*
X146165990Y-63395475D01*
X146165990Y-63395475D02*
X146213609Y-63347856D01*
X146213609Y-63347856D02*
X146308847Y-63300237D01*
X146308847Y-63300237D02*
X146546942Y-63300237D01*
X146546942Y-63300237D02*
X146642180Y-63347856D01*
X146642180Y-63347856D02*
X146689800Y-63395475D01*
X146689800Y-63395475D02*
X146737419Y-63490713D01*
X146737419Y-63490713D02*
X146737419Y-63776427D01*
X146737419Y-63776427D02*
X146689800Y-63871665D01*
X146689800Y-63871665D02*
X146642180Y-63919284D01*
X146642180Y-62871665D02*
X146689800Y-62824046D01*
X146689800Y-62824046D02*
X146737419Y-62871665D01*
X146737419Y-62871665D02*
X146689800Y-62919284D01*
X146689800Y-62919284D02*
X146642180Y-62871665D01*
X146642180Y-62871665D02*
X146737419Y-62871665D01*
X146737419Y-61871666D02*
X146737419Y-62443094D01*
X146737419Y-62157380D02*
X145737419Y-62157380D01*
X145737419Y-62157380D02*
X145880276Y-62252618D01*
X145880276Y-62252618D02*
X145975514Y-62347856D01*
X145975514Y-62347856D02*
X146023133Y-62443094D01*
X146737419Y-61395475D02*
X146737419Y-61204999D01*
X146737419Y-61204999D02*
X146689800Y-61109761D01*
X146689800Y-61109761D02*
X146642180Y-61062142D01*
X146642180Y-61062142D02*
X146499323Y-60966904D01*
X146499323Y-60966904D02*
X146308847Y-60919285D01*
X146308847Y-60919285D02*
X145927895Y-60919285D01*
X145927895Y-60919285D02*
X145832657Y-60966904D01*
X145832657Y-60966904D02*
X145785038Y-61014523D01*
X145785038Y-61014523D02*
X145737419Y-61109761D01*
X145737419Y-61109761D02*
X145737419Y-61300237D01*
X145737419Y-61300237D02*
X145785038Y-61395475D01*
X145785038Y-61395475D02*
X145832657Y-61443094D01*
X145832657Y-61443094D02*
X145927895Y-61490713D01*
X145927895Y-61490713D02*
X146165990Y-61490713D01*
X146165990Y-61490713D02*
X146261228Y-61443094D01*
X146261228Y-61443094D02*
X146308847Y-61395475D01*
X146308847Y-61395475D02*
X146356466Y-61300237D01*
X146356466Y-61300237D02*
X146356466Y-61109761D01*
X146356466Y-61109761D02*
X146308847Y-61014523D01*
X146308847Y-61014523D02*
X146261228Y-60966904D01*
X146261228Y-60966904D02*
X146165990Y-60919285D01*
X145737419Y-60300237D02*
X145737419Y-60204999D01*
X145737419Y-60204999D02*
X145785038Y-60109761D01*
X145785038Y-60109761D02*
X145832657Y-60062142D01*
X145832657Y-60062142D02*
X145927895Y-60014523D01*
X145927895Y-60014523D02*
X146118371Y-59966904D01*
X146118371Y-59966904D02*
X146356466Y-59966904D01*
X146356466Y-59966904D02*
X146546942Y-60014523D01*
X146546942Y-60014523D02*
X146642180Y-60062142D01*
X146642180Y-60062142D02*
X146689800Y-60109761D01*
X146689800Y-60109761D02*
X146737419Y-60204999D01*
X146737419Y-60204999D02*
X146737419Y-60300237D01*
X146737419Y-60300237D02*
X146689800Y-60395475D01*
X146689800Y-60395475D02*
X146642180Y-60443094D01*
X146642180Y-60443094D02*
X146546942Y-60490713D01*
X146546942Y-60490713D02*
X146356466Y-60538332D01*
X146356466Y-60538332D02*
X146118371Y-60538332D01*
X146118371Y-60538332D02*
X145927895Y-60490713D01*
X145927895Y-60490713D02*
X145832657Y-60443094D01*
X145832657Y-60443094D02*
X145785038Y-60395475D01*
X145785038Y-60395475D02*
X145737419Y-60300237D01*
X145737419Y-59347856D02*
X145737419Y-59252618D01*
X145737419Y-59252618D02*
X145785038Y-59157380D01*
X145785038Y-59157380D02*
X145832657Y-59109761D01*
X145832657Y-59109761D02*
X145927895Y-59062142D01*
X145927895Y-59062142D02*
X146118371Y-59014523D01*
X146118371Y-59014523D02*
X146356466Y-59014523D01*
X146356466Y-59014523D02*
X146546942Y-59062142D01*
X146546942Y-59062142D02*
X146642180Y-59109761D01*
X146642180Y-59109761D02*
X146689800Y-59157380D01*
X146689800Y-59157380D02*
X146737419Y-59252618D01*
X146737419Y-59252618D02*
X146737419Y-59347856D01*
X146737419Y-59347856D02*
X146689800Y-59443094D01*
X146689800Y-59443094D02*
X146642180Y-59490713D01*
X146642180Y-59490713D02*
X146546942Y-59538332D01*
X146546942Y-59538332D02*
X146356466Y-59585951D01*
X146356466Y-59585951D02*
X146118371Y-59585951D01*
X146118371Y-59585951D02*
X145927895Y-59538332D01*
X145927895Y-59538332D02*
X145832657Y-59490713D01*
X145832657Y-59490713D02*
X145785038Y-59443094D01*
X145785038Y-59443094D02*
X145737419Y-59347856D01*
X146737419Y-57824046D02*
X146070752Y-57824046D01*
X146165990Y-57824046D02*
X146118371Y-57776427D01*
X146118371Y-57776427D02*
X146070752Y-57681189D01*
X146070752Y-57681189D02*
X146070752Y-57538332D01*
X146070752Y-57538332D02*
X146118371Y-57443094D01*
X146118371Y-57443094D02*
X146213609Y-57395475D01*
X146213609Y-57395475D02*
X146737419Y-57395475D01*
X146213609Y-57395475D02*
X146118371Y-57347856D01*
X146118371Y-57347856D02*
X146070752Y-57252618D01*
X146070752Y-57252618D02*
X146070752Y-57109761D01*
X146070752Y-57109761D02*
X146118371Y-57014522D01*
X146118371Y-57014522D02*
X146213609Y-56966903D01*
X146213609Y-56966903D02*
X146737419Y-56966903D01*
X146737419Y-56490713D02*
X146070752Y-56490713D01*
X146165990Y-56490713D02*
X146118371Y-56443094D01*
X146118371Y-56443094D02*
X146070752Y-56347856D01*
X146070752Y-56347856D02*
X146070752Y-56204999D01*
X146070752Y-56204999D02*
X146118371Y-56109761D01*
X146118371Y-56109761D02*
X146213609Y-56062142D01*
X146213609Y-56062142D02*
X146737419Y-56062142D01*
X146213609Y-56062142D02*
X146118371Y-56014523D01*
X146118371Y-56014523D02*
X146070752Y-55919285D01*
X146070752Y-55919285D02*
X146070752Y-55776428D01*
X146070752Y-55776428D02*
X146118371Y-55681189D01*
X146118371Y-55681189D02*
X146213609Y-55633570D01*
X146213609Y-55633570D02*
X146737419Y-55633570D01*
X144560000Y-53610000D02*
X147966420Y-53610000D01*
X144560000Y-66800000D02*
X147966420Y-66800000D01*
X147380000Y-53610000D02*
X147380000Y-66800000D01*
X147380000Y-53610000D02*
X147380000Y-66800000D01*
X147380000Y-53610000D02*
X147966421Y-54736504D01*
X147380000Y-53610000D02*
X146793579Y-54736504D01*
X147380000Y-66800000D02*
X146793579Y-65673496D01*
X147380000Y-66800000D02*
X147966421Y-65673496D01*
D11*
X138478095Y-58954819D02*
X138478095Y-57954819D01*
X138478095Y-58431009D02*
X139049523Y-58431009D01*
X139049523Y-58954819D02*
X139049523Y-57954819D01*
X140049523Y-58954819D02*
X139478095Y-58954819D01*
X139763809Y-58954819D02*
X139763809Y-57954819D01*
X139763809Y-57954819D02*
X139668571Y-58097676D01*
X139668571Y-58097676D02*
X139573333Y-58192914D01*
X139573333Y-58192914D02*
X139478095Y-58240533D01*
X142261905Y-62214819D02*
X142261905Y-61214819D01*
X142261905Y-61214819D02*
X142500000Y-61214819D01*
X142500000Y-61214819D02*
X142642857Y-61262438D01*
X142642857Y-61262438D02*
X142738095Y-61357676D01*
X142738095Y-61357676D02*
X142785714Y-61452914D01*
X142785714Y-61452914D02*
X142833333Y-61643390D01*
X142833333Y-61643390D02*
X142833333Y-61786247D01*
X142833333Y-61786247D02*
X142785714Y-61976723D01*
X142785714Y-61976723D02*
X142738095Y-62071961D01*
X142738095Y-62071961D02*
X142642857Y-62167200D01*
X142642857Y-62167200D02*
X142500000Y-62214819D01*
X142500000Y-62214819D02*
X142261905Y-62214819D01*
X143785714Y-62214819D02*
X143214286Y-62214819D01*
X143500000Y-62214819D02*
X143500000Y-61214819D01*
X143500000Y-61214819D02*
X143404762Y-61357676D01*
X143404762Y-61357676D02*
X143309524Y-61452914D01*
X143309524Y-61452914D02*
X143214286Y-61500533D01*
X137778095Y-60564819D02*
X137778095Y-59564819D01*
X137778095Y-60041009D02*
X138349523Y-60041009D01*
X138349523Y-60564819D02*
X138349523Y-59564819D01*
X138778095Y-59660057D02*
X138825714Y-59612438D01*
X138825714Y-59612438D02*
X138920952Y-59564819D01*
X138920952Y-59564819D02*
X139159047Y-59564819D01*
X139159047Y-59564819D02*
X139254285Y-59612438D01*
X139254285Y-59612438D02*
X139301904Y-59660057D01*
X139301904Y-59660057D02*
X139349523Y-59755295D01*
X139349523Y-59755295D02*
X139349523Y-59850533D01*
X139349523Y-59850533D02*
X139301904Y-59993390D01*
X139301904Y-59993390D02*
X138730476Y-60564819D01*
X138730476Y-60564819D02*
X139349523Y-60564819D01*
X142239819Y-56063333D02*
X142954104Y-56063333D01*
X142954104Y-56063333D02*
X143096961Y-56110952D01*
X143096961Y-56110952D02*
X143192200Y-56206190D01*
X143192200Y-56206190D02*
X143239819Y-56349047D01*
X143239819Y-56349047D02*
X143239819Y-56444285D01*
X143239819Y-55063333D02*
X143239819Y-55634761D01*
X143239819Y-55349047D02*
X142239819Y-55349047D01*
X142239819Y-55349047D02*
X142382676Y-55444285D01*
X142382676Y-55444285D02*
X142477914Y-55539523D01*
X142477914Y-55539523D02*
X142525533Y-55634761D01*
D12*
%TO.C,D1*%
X135610000Y-65330000D02*
X136800000Y-65330000D01*
X136790000Y-62620000D02*
X135610000Y-62620000D01*
X136800000Y-61820000D02*
X136800000Y-62620000D01*
X136800000Y-65330000D02*
X136800000Y-66220000D01*
X136800000Y-66220000D02*
X141600000Y-66220000D01*
X141600000Y-61820000D02*
X136800000Y-61820000D01*
X141600000Y-62620000D02*
X141600000Y-61820000D01*
X141600000Y-66220000D02*
X141600000Y-65330000D01*
%TO.C,J1*%
X136585000Y-54400000D02*
X136585000Y-57060000D01*
X139185000Y-54400000D02*
X136585000Y-54400000D01*
X139185000Y-54400000D02*
X139185000Y-57060000D01*
X139185000Y-57060000D02*
X136585000Y-57060000D01*
X140455000Y-54400000D02*
X141785000Y-54400000D01*
X141785000Y-54400000D02*
X141785000Y-55730000D01*
%TD*%
%LPC*%
D13*
%TO.C,H1*%
X142190000Y-59600000D03*
%TD*%
D14*
%TO.C,D1*%
X136150000Y-64020000D03*
D15*
X142250000Y-64020000D03*
D16*
X136150000Y-64020000D03*
D17*
X142250000Y-64020000D03*
%TD*%
D13*
%TO.C,H2*%
X136180000Y-59600000D03*
%TD*%
D18*
%TO.C,J1*%
X140455000Y-55730000D03*
D19*
X137915000Y-55730000D03*
%TD*%
%LPD*%
M02*
