M48
; DRILL file {KiCad 8.0.1} date 2025-01-22T20:34:08-0700
; FORMAT={-:-/ absolute / metric / decimal}
; #@! TF.CreationDate,2025-01-22T20:34:08-07:00
; #@! TF.GenerationSoftware,Kicad,Pcbnew,8.0.1
; #@! TF.FileFunction,Plated,1,2,PTH
FMAT,2
METRIC
; #@! TA.AperFunction,Plated,PTH,ViaDrill
T1C0.300
; #@! TA.AperFunction,Plated,PTH,ComponentDrill
T2C1.000
%
G90
G05
T1
X111.87Y-101.88
X111.96Y-71.15
X112.26Y-74.06
X112.41Y-76.0
X112.57Y-134.11
X113.13Y-118.33
X113.74Y-54.4
X116.49Y-74.49
X116.5Y-86.31
X117.87Y-110.33
X118.11Y-92.73
X118.48Y-65.94
T2
X109.17Y-50.09
X111.71Y-50.09
X114.25Y-50.09
X116.79Y-50.09
X119.0Y-57.46
X119.0Y-60.0
X119.0Y-79.96
X119.0Y-82.5
X119.0Y-102.46
X119.0Y-105.0
X119.0Y-124.96
X119.0Y-127.5
M30
