%TF.GenerationSoftware,KiCad,Pcbnew,8.0.1*%
%TF.CreationDate,2025-01-22T20:34:06-07:00*%
%TF.ProjectId,VibrationBand,56696272-6174-4696-9f6e-42616e642e6b,rev?*%
%TF.SameCoordinates,Original*%
%TF.FileFunction,Paste,Top*%
%TF.FilePolarity,Positive*%
%FSLAX46Y46*%
G04 Gerber Fmt 4.6, Leading zero omitted, Abs format (unit mm)*
G04 Created by KiCad (PCBNEW 8.0.1) date 2025-01-22 20:34:06*
%MOMM*%
%LPD*%
G01*
G04 APERTURE LIST*
G04 Aperture macros list*
%AMRoundRect*
0 Rectangle with rounded corners*
0 $1 Rounding radius*
0 $2 $3 $4 $5 $6 $7 $8 $9 X,Y pos of 4 corners*
0 Add a 4 corners polygon primitive as box body*
4,1,4,$2,$3,$4,$5,$6,$7,$8,$9,$2,$3,0*
0 Add four circle primitives for the rounded corners*
1,1,$1+$1,$2,$3*
1,1,$1+$1,$4,$5*
1,1,$1+$1,$6,$7*
1,1,$1+$1,$8,$9*
0 Add four rect primitives between the rounded corners*
20,1,$1+$1,$2,$3,$4,$5,0*
20,1,$1+$1,$4,$5,$6,$7,0*
20,1,$1+$1,$6,$7,$8,$9,0*
20,1,$1+$1,$8,$9,$2,$3,0*%
G04 Aperture macros list end*
%ADD10RoundRect,0.237500X0.250000X0.237500X-0.250000X0.237500X-0.250000X-0.237500X0.250000X-0.237500X0*%
%ADD11R,1.111200X0.600800*%
%ADD12R,1.700000X0.650000*%
%ADD13R,0.558800X1.219200*%
%ADD14RoundRect,0.150000X-0.512500X-0.150000X0.512500X-0.150000X0.512500X0.150000X-0.512500X0.150000X0*%
%ADD15RoundRect,0.237500X0.237500X-0.300000X0.237500X0.300000X-0.237500X0.300000X-0.237500X-0.300000X0*%
%ADD16RoundRect,0.237500X-0.237500X0.300000X-0.237500X-0.300000X0.237500X-0.300000X0.237500X0.300000X0*%
%ADD17RoundRect,0.237500X-0.250000X-0.237500X0.250000X-0.237500X0.250000X0.237500X-0.250000X0.237500X0*%
G04 APERTURE END LIST*
D10*
%TO.C,R5*%
X109355000Y-135540000D03*
X107530000Y-135540000D03*
%TD*%
%TO.C,R1*%
X109910000Y-88670000D03*
X108085000Y-88670000D03*
%TD*%
D11*
%TO.C,D2*%
X113120000Y-94370000D03*
X109670000Y-94370000D03*
%TD*%
D12*
%TO.C,U1*%
X109235000Y-68610000D03*
X109235000Y-69880000D03*
X109235000Y-71150000D03*
X109235000Y-72420000D03*
X116535000Y-72420000D03*
X116535000Y-71150000D03*
X116535000Y-69880000D03*
X116535000Y-68610000D03*
%TD*%
D11*
%TO.C,D4*%
X112280000Y-126950000D03*
X108830000Y-126950000D03*
%TD*%
%TO.C,D3*%
X112930000Y-111030000D03*
X109480000Y-111030000D03*
%TD*%
D13*
%TO.C,TR4*%
X107849000Y-132896800D03*
X109754000Y-132896800D03*
X108801500Y-130763200D03*
%TD*%
D10*
%TO.C,R3*%
X110230000Y-102550000D03*
X108405000Y-102550000D03*
%TD*%
D14*
%TO.C,U2*%
X109740000Y-57100000D03*
X109740000Y-58050000D03*
X109740000Y-59000000D03*
X112015000Y-59000000D03*
X112015000Y-57100000D03*
%TD*%
D15*
%TO.C,C1*%
X107010000Y-58777500D03*
X107010000Y-57052500D03*
%TD*%
D13*
%TO.C,TR1*%
X108385000Y-86110000D03*
X110290000Y-86110000D03*
X109337500Y-83976400D03*
%TD*%
%TO.C,TR3*%
X108515000Y-116250000D03*
X110420000Y-116250000D03*
X109467500Y-114116400D03*
%TD*%
D10*
%TO.C,R4*%
X110070000Y-119810000D03*
X108245000Y-119810000D03*
%TD*%
D16*
%TO.C,C2*%
X114330000Y-57072500D03*
X114330000Y-58797500D03*
%TD*%
D17*
%TO.C,R2*%
X108570000Y-64990000D03*
X110395000Y-64990000D03*
%TD*%
D11*
%TO.C,D1*%
X112790000Y-80620000D03*
X109340000Y-80620000D03*
%TD*%
D13*
%TO.C,TR2*%
X108699000Y-99826800D03*
X110604000Y-99826800D03*
X109651500Y-97693200D03*
%TD*%
M02*
