G04 #@! TF.GenerationSoftware,KiCad,Pcbnew,8.0.1*
G04 #@! TF.CreationDate,2025-02-25T23:30:01-07:00*
G04 #@! TF.ProjectId,Temperature_Flex,54656d70-6572-4617-9475-72655f466c65,rev?*
G04 #@! TF.SameCoordinates,Original*
G04 #@! TF.FileFunction,Paste,Top*
G04 #@! TF.FilePolarity,Positive*
%FSLAX46Y46*%
G04 Gerber Fmt 4.6, Leading zero omitted, Abs format (unit mm)*
G04 Created by KiCad (PCBNEW 8.0.1) date 2025-02-25 23:30:01*
%MOMM*%
%LPD*%
G01*
G04 APERTURE LIST*
G04 Aperture macros list*
%AMRoundRect*
0 Rectangle with rounded corners*
0 $1 Rounding radius*
0 $2 $3 $4 $5 $6 $7 $8 $9 X,Y pos of 4 corners*
0 Add a 4 corners polygon primitive as box body*
4,1,4,$2,$3,$4,$5,$6,$7,$8,$9,$2,$3,0*
0 Add four circle primitives for the rounded corners*
1,1,$1+$1,$2,$3*
1,1,$1+$1,$4,$5*
1,1,$1+$1,$6,$7*
1,1,$1+$1,$8,$9*
0 Add four rect primitives between the rounded corners*
20,1,$1+$1,$2,$3,$4,$5,0*
20,1,$1+$1,$4,$5,$6,$7,0*
20,1,$1+$1,$6,$7,$8,$9,0*
20,1,$1+$1,$8,$9,$2,$3,0*%
G04 Aperture macros list end*
%ADD10R,0.449999X1.050000*%
%ADD11RoundRect,0.225000X-0.250000X0.225000X-0.250000X-0.225000X0.250000X-0.225000X0.250000X0.225000X0*%
%ADD12R,0.609600X1.625600*%
%ADD13RoundRect,0.200000X-0.275000X0.200000X-0.275000X-0.200000X0.275000X-0.200000X0.275000X0.200000X0*%
%ADD14RoundRect,0.225000X-0.225000X-0.250000X0.225000X-0.250000X0.225000X0.250000X-0.225000X0.250000X0*%
%ADD15O,1.649999X0.650001*%
%ADD16RoundRect,0.200000X0.275000X-0.200000X0.275000X0.200000X-0.275000X0.200000X-0.275000X-0.200000X0*%
%ADD17R,1.320800X0.508000*%
%ADD18RoundRect,0.225000X0.250000X-0.225000X0.250000X0.225000X-0.250000X0.225000X-0.250000X-0.225000X0*%
%ADD19RoundRect,0.150000X0.512500X0.150000X-0.512500X0.150000X-0.512500X-0.150000X0.512500X-0.150000X0*%
G04 APERTURE END LIST*
D10*
X198080000Y-67120001D03*
X198730001Y-67120001D03*
X199380000Y-67120001D03*
X199380000Y-64670001D03*
X198730001Y-64670001D03*
X198080000Y-64670001D03*
D11*
X190640000Y-56080000D03*
X190640000Y-57630000D03*
D12*
X190340040Y-74540000D03*
X192239960Y-74540000D03*
X191290000Y-72406400D03*
D13*
X183280000Y-62270000D03*
X183280000Y-63920000D03*
D14*
X186150000Y-74550000D03*
X187700000Y-74550000D03*
D15*
X186320000Y-62490000D03*
X186320000Y-63760000D03*
X186320000Y-65030000D03*
X186320000Y-66300000D03*
X191969999Y-66300000D03*
X191969999Y-65030000D03*
X191969999Y-63760000D03*
X191969999Y-62490000D03*
D16*
X200400000Y-57020000D03*
X200400000Y-55370000D03*
D13*
X197460000Y-61280000D03*
X197460000Y-62930000D03*
D17*
X185720000Y-56070000D03*
X185720000Y-57020001D03*
X185720000Y-57970002D03*
X188310800Y-57970002D03*
X188310800Y-56070000D03*
D18*
X194830000Y-67490000D03*
X194830000Y-65940000D03*
D11*
X193700000Y-56540000D03*
X193700000Y-58090000D03*
D19*
X198095000Y-58080000D03*
X198095000Y-57130000D03*
X198095000Y-56180000D03*
X195820000Y-56180000D03*
X195820000Y-58080000D03*
D11*
X194910000Y-62460000D03*
X194910000Y-64010000D03*
D14*
X189050000Y-68680000D03*
X190600000Y-68680000D03*
D11*
X183460000Y-56110000D03*
X183460000Y-57660000D03*
M02*
