G04 #@! TF.GenerationSoftware,KiCad,Pcbnew,8.0.1*
G04 #@! TF.CreationDate,2025-02-25T23:30:01-07:00*
G04 #@! TF.ProjectId,Temperature_Flex,54656d70-6572-4617-9475-72655f466c65,rev?*
G04 #@! TF.SameCoordinates,Original*
G04 #@! TF.FileFunction,Copper,L1,Top*
G04 #@! TF.FilePolarity,Positive*
%FSLAX46Y46*%
G04 Gerber Fmt 4.6, Leading zero omitted, Abs format (unit mm)*
G04 Created by KiCad (PCBNEW 8.0.1) date 2025-02-25 23:30:01*
%MOMM*%
%LPD*%
G01*
G04 APERTURE LIST*
G04 Aperture macros list*
%AMRoundRect*
0 Rectangle with rounded corners*
0 $1 Rounding radius*
0 $2 $3 $4 $5 $6 $7 $8 $9 X,Y pos of 4 corners*
0 Add a 4 corners polygon primitive as box body*
4,1,4,$2,$3,$4,$5,$6,$7,$8,$9,$2,$3,0*
0 Add four circle primitives for the rounded corners*
1,1,$1+$1,$2,$3*
1,1,$1+$1,$4,$5*
1,1,$1+$1,$6,$7*
1,1,$1+$1,$8,$9*
0 Add four rect primitives between the rounded corners*
20,1,$1+$1,$2,$3,$4,$5,0*
20,1,$1+$1,$4,$5,$6,$7,0*
20,1,$1+$1,$6,$7,$8,$9,0*
20,1,$1+$1,$8,$9,$2,$3,0*%
G04 Aperture macros list end*
G04 #@! TA.AperFunction,SMDPad,CuDef*
%ADD10R,0.449999X1.050000*%
G04 #@! TD*
G04 #@! TA.AperFunction,SMDPad,CuDef*
%ADD11RoundRect,0.225000X-0.250000X0.225000X-0.250000X-0.225000X0.250000X-0.225000X0.250000X0.225000X0*%
G04 #@! TD*
G04 #@! TA.AperFunction,SMDPad,CuDef*
%ADD12R,0.609600X1.625600*%
G04 #@! TD*
G04 #@! TA.AperFunction,SMDPad,CuDef*
%ADD13RoundRect,0.200000X-0.275000X0.200000X-0.275000X-0.200000X0.275000X-0.200000X0.275000X0.200000X0*%
G04 #@! TD*
G04 #@! TA.AperFunction,SMDPad,CuDef*
%ADD14RoundRect,0.225000X-0.225000X-0.250000X0.225000X-0.250000X0.225000X0.250000X-0.225000X0.250000X0*%
G04 #@! TD*
G04 #@! TA.AperFunction,SMDPad,CuDef*
%ADD15O,1.649999X0.650001*%
G04 #@! TD*
G04 #@! TA.AperFunction,SMDPad,CuDef*
%ADD16RoundRect,0.200000X0.275000X-0.200000X0.275000X0.200000X-0.275000X0.200000X-0.275000X-0.200000X0*%
G04 #@! TD*
G04 #@! TA.AperFunction,SMDPad,CuDef*
%ADD17R,1.320800X0.508000*%
G04 #@! TD*
G04 #@! TA.AperFunction,SMDPad,CuDef*
%ADD18RoundRect,0.225000X0.250000X-0.225000X0.250000X0.225000X-0.250000X0.225000X-0.250000X-0.225000X0*%
G04 #@! TD*
G04 #@! TA.AperFunction,ComponentPad*
%ADD19R,1.700000X1.700000*%
G04 #@! TD*
G04 #@! TA.AperFunction,ComponentPad*
%ADD20O,1.700000X1.700000*%
G04 #@! TD*
G04 #@! TA.AperFunction,SMDPad,CuDef*
%ADD21RoundRect,0.150000X0.512500X0.150000X-0.512500X0.150000X-0.512500X-0.150000X0.512500X-0.150000X0*%
G04 #@! TD*
G04 #@! TA.AperFunction,ViaPad*
%ADD22C,0.600000*%
G04 #@! TD*
G04 #@! TA.AperFunction,Conductor*
%ADD23C,0.152400*%
G04 #@! TD*
G04 APERTURE END LIST*
D10*
X198080000Y-67120001D03*
X198730001Y-67120001D03*
X199380000Y-67120001D03*
X199380000Y-64670001D03*
X198730001Y-64670001D03*
X198080000Y-64670001D03*
D11*
X190640000Y-56080000D03*
X190640000Y-57630000D03*
D12*
X190340040Y-74540000D03*
X192239960Y-74540000D03*
X191290000Y-72406400D03*
D13*
X183280000Y-62270000D03*
X183280000Y-63920000D03*
D14*
X186150000Y-74550000D03*
X187700000Y-74550000D03*
D15*
X186320000Y-62490000D03*
X186320000Y-63760000D03*
X186320000Y-65030000D03*
X186320000Y-66300000D03*
X191969999Y-66300000D03*
X191969999Y-65030000D03*
X191969999Y-63760000D03*
X191969999Y-62490000D03*
D16*
X200400000Y-57020000D03*
X200400000Y-55370000D03*
D13*
X197460000Y-61280000D03*
X197460000Y-62930000D03*
D17*
X185720000Y-56070000D03*
X185720000Y-57020001D03*
X185720000Y-57970002D03*
X188310800Y-57970002D03*
X188310800Y-56070000D03*
D18*
X194830000Y-67490000D03*
X194830000Y-65940000D03*
D11*
X193700000Y-56540000D03*
X193700000Y-58090000D03*
D19*
X187380000Y-52260000D03*
D20*
X189920000Y-52260000D03*
X192460000Y-52260000D03*
X195000000Y-52260000D03*
D21*
X198095000Y-58080000D03*
X198095000Y-57130000D03*
X198095000Y-56180000D03*
X195820000Y-56180000D03*
X195820000Y-58080000D03*
D11*
X194910000Y-62460000D03*
X194910000Y-64010000D03*
D14*
X189050000Y-68680000D03*
X190600000Y-68680000D03*
D11*
X183460000Y-56110000D03*
X183460000Y-57660000D03*
D22*
X197280000Y-68670000D03*
X185150000Y-69250000D03*
X196980000Y-59940000D03*
X194410000Y-61040000D03*
X198780000Y-62600000D03*
X186900000Y-72330000D03*
X192000000Y-58840000D03*
X191460000Y-54740000D03*
X188130000Y-64280000D03*
X189800000Y-65410000D03*
D23*
X182220000Y-56480000D02*
X182590000Y-56110000D01*
X182590000Y-56110000D02*
X183460000Y-56110000D01*
X182930000Y-59440000D02*
X182220000Y-58730000D01*
X182220000Y-58730000D02*
X182220000Y-56480000D01*
X185720000Y-58560000D02*
X184840000Y-59440000D01*
X184840000Y-59440000D02*
X182930000Y-59440000D01*
X185720000Y-57970002D02*
X185720000Y-58560000D01*
X193380000Y-54250000D02*
X192460000Y-53330000D01*
X192460000Y-53330000D02*
X192460000Y-52260000D01*
X194710000Y-54250000D02*
X193380000Y-54250000D01*
X195820000Y-55360000D02*
X194710000Y-54250000D01*
X195820000Y-56180000D02*
X195820000Y-55360000D01*
X192790000Y-52260000D02*
X192460000Y-52260000D01*
X198520000Y-52260000D02*
X195000000Y-52260000D01*
X200400000Y-54140000D02*
X198520000Y-52260000D01*
X200400000Y-55370000D02*
X200400000Y-54140000D01*
X199860000Y-55370000D02*
X200400000Y-55370000D01*
X199050000Y-56180000D02*
X199860000Y-55370000D01*
X198095000Y-56180000D02*
X199050000Y-56180000D01*
X183460000Y-57660000D02*
X184040000Y-57660000D01*
X184040000Y-57660000D02*
X184679999Y-57020001D01*
X184679999Y-57020001D02*
X185720000Y-57020001D01*
X185720000Y-56070000D02*
X185620000Y-56070000D01*
X185720000Y-56070000D02*
X185720000Y-55460000D01*
X185620000Y-56070000D02*
X185610000Y-56080000D01*
X186319198Y-55910000D02*
X186329200Y-55899998D01*
X185720000Y-55460000D02*
X187380000Y-53800000D01*
X183500000Y-56070000D02*
X183460000Y-56110000D01*
X185720000Y-56070000D02*
X183500000Y-56070000D01*
X187380000Y-53800000D02*
X187380000Y-52260000D01*
X197460000Y-61280000D02*
X197460000Y-60420000D01*
X186320000Y-68080000D02*
X185150000Y-69250000D01*
X188310800Y-56070000D02*
X190630000Y-56070000D01*
X193700000Y-58090000D02*
X192750000Y-58090000D01*
X186900000Y-72330000D02*
X187700000Y-73130000D01*
X192750000Y-58090000D02*
X192000000Y-58840000D01*
X198080000Y-67870000D02*
X198080000Y-67020001D01*
X190640000Y-55560000D02*
X191460000Y-54740000D01*
X195820000Y-58080000D02*
X193710000Y-58080000D01*
X186290000Y-66330000D02*
X186320000Y-66300000D01*
X191999999Y-62460000D02*
X191969999Y-62490000D01*
X194910000Y-61540000D02*
X194410000Y-61040000D01*
X195820000Y-58080000D02*
X195740000Y-58080000D01*
X187710000Y-74540000D02*
X187700000Y-74550000D01*
X195740000Y-58080000D02*
X195510000Y-57850000D01*
X192019999Y-62440000D02*
X191969999Y-62490000D01*
X190340040Y-74540000D02*
X187710000Y-74540000D01*
X197280000Y-68670000D02*
X198080000Y-67870000D01*
X198730001Y-64770000D02*
X198730001Y-62649999D01*
X194910000Y-62460000D02*
X191999999Y-62460000D01*
X186320000Y-66300000D02*
X186320000Y-68080000D01*
X198730001Y-62649999D02*
X198780000Y-62600000D01*
X197460000Y-60420000D02*
X196980000Y-59940000D01*
X190630000Y-56070000D02*
X190640000Y-56080000D01*
X193710000Y-58080000D02*
X193700000Y-58090000D01*
X187700000Y-73130000D02*
X187700000Y-74550000D01*
X194910000Y-62460000D02*
X194910000Y-61540000D01*
X190640000Y-56080000D02*
X190640000Y-55560000D01*
X190600000Y-68680000D02*
X191280000Y-68680000D01*
X191280000Y-68680000D02*
X191969999Y-67990001D01*
X191969999Y-67990001D02*
X191969999Y-66300000D01*
X185540000Y-63760000D02*
X186320000Y-63760000D01*
X194020000Y-65940000D02*
X193110000Y-65030000D01*
X193110000Y-65030000D02*
X191969999Y-65030000D01*
X187610000Y-63760000D02*
X186320000Y-63760000D01*
X188130000Y-64280000D02*
X187610000Y-63760000D01*
X194830000Y-65940000D02*
X194020000Y-65940000D01*
X191969999Y-65030000D02*
X190180000Y-65030000D01*
X184050000Y-62270000D02*
X185540000Y-63760000D01*
X190180000Y-65030000D02*
X189800000Y-65410000D01*
X183280000Y-62270000D02*
X184050000Y-62270000D01*
X185050000Y-65030000D02*
X183940000Y-63920000D01*
X190940000Y-60090000D02*
X189490000Y-61540000D01*
X189490000Y-64180000D02*
X188640000Y-65030000D01*
X197460000Y-62930000D02*
X196680000Y-62930000D01*
X196680000Y-62930000D02*
X196100000Y-62350000D01*
X196100000Y-62350000D02*
X196100000Y-60890000D01*
X188640000Y-65030000D02*
X186320000Y-65030000D01*
X183940000Y-63920000D02*
X183280000Y-63920000D01*
X198080000Y-64770000D02*
X198080000Y-64280000D01*
X196100000Y-60890000D02*
X195300000Y-60090000D01*
X195300000Y-60090000D02*
X190940000Y-60090000D01*
X186320000Y-65030000D02*
X185050000Y-65030000D01*
X198080000Y-64280000D02*
X197460000Y-63660000D01*
X197460000Y-63660000D02*
X197460000Y-62930000D01*
X189490000Y-61540000D02*
X189490000Y-64180000D01*
X199380000Y-72630000D02*
X199380000Y-67020001D01*
X192239960Y-74540000D02*
X197470000Y-74540000D01*
X197470000Y-74540000D02*
X199380000Y-72630000D01*
X199380000Y-63960000D02*
X200330000Y-63010000D01*
X200330000Y-63010000D02*
X200330000Y-58760000D01*
X200330000Y-58760000D02*
X199650000Y-58080000D01*
X199650000Y-58080000D02*
X198095000Y-58080000D01*
X199380000Y-64770000D02*
X199380000Y-63960000D01*
G04 #@! TA.AperFunction,Conductor*
G36*
X184561325Y-57387973D02*
G01*
X184578333Y-57414439D01*
X184616245Y-57516088D01*
X184616246Y-57516089D01*
X184702411Y-57631189D01*
X184817508Y-57717352D01*
X184820558Y-57719017D01*
X184856100Y-57763114D01*
X184859100Y-57783969D01*
X184859100Y-58243750D01*
X184862981Y-58263260D01*
X184870733Y-58302234D01*
X184881391Y-58318184D01*
X184915048Y-58368554D01*
X184959160Y-58398029D01*
X184981367Y-58412868D01*
X184981368Y-58412868D01*
X184981369Y-58412869D01*
X185039852Y-58424502D01*
X185285533Y-58424502D01*
X185337859Y-58446176D01*
X185359533Y-58498502D01*
X185337859Y-58550828D01*
X184747061Y-59141626D01*
X184694735Y-59163300D01*
X183075265Y-59163300D01*
X183022939Y-59141626D01*
X182518374Y-58637061D01*
X182496700Y-58584735D01*
X182496700Y-58370510D01*
X182518374Y-58318184D01*
X182570700Y-58296510D01*
X182623026Y-58318184D01*
X182633683Y-58331662D01*
X182637426Y-58337731D01*
X182757268Y-58457573D01*
X182901517Y-58546547D01*
X183062391Y-58599855D01*
X183161689Y-58609999D01*
X183209999Y-58609998D01*
X183210000Y-58609998D01*
X183210000Y-57910000D01*
X183710000Y-57910000D01*
X183710000Y-58609999D01*
X183758307Y-58609999D01*
X183758312Y-58609998D01*
X183857608Y-58599855D01*
X184018482Y-58546547D01*
X184162731Y-58457573D01*
X184282573Y-58337731D01*
X184371547Y-58193482D01*
X184424855Y-58032608D01*
X184434999Y-57933311D01*
X184435000Y-57933309D01*
X184435000Y-57910000D01*
X183710000Y-57910000D01*
X183210000Y-57910000D01*
X183210000Y-57484000D01*
X183231674Y-57431674D01*
X183284000Y-57410000D01*
X184434999Y-57410000D01*
X184456423Y-57388575D01*
X184456673Y-57387973D01*
X184508999Y-57366299D01*
X184561325Y-57387973D01*
G37*
G04 #@! TD.AperFunction*
G04 #@! TA.AperFunction,Conductor*
G36*
X201347826Y-50592174D02*
G01*
X201369500Y-50644500D01*
X201369500Y-56350312D01*
X201347826Y-56402638D01*
X201295500Y-56424312D01*
X201243174Y-56402638D01*
X201232172Y-56388595D01*
X201230074Y-56385125D01*
X201109874Y-56264925D01*
X200964393Y-56176979D01*
X200802109Y-56126410D01*
X200802099Y-56126408D01*
X200731582Y-56120000D01*
X200650000Y-56120000D01*
X200650000Y-57919999D01*
X200731571Y-57919999D01*
X200731583Y-57919998D01*
X200802102Y-57913591D01*
X200802106Y-57913590D01*
X200964393Y-57863020D01*
X201109874Y-57775074D01*
X201230075Y-57654873D01*
X201232170Y-57651408D01*
X201277786Y-57617838D01*
X201333779Y-57626357D01*
X201367349Y-57671973D01*
X201369500Y-57689687D01*
X201369500Y-76355500D01*
X201347826Y-76407826D01*
X201295500Y-76429500D01*
X181824500Y-76429500D01*
X181772174Y-76407826D01*
X181750500Y-76355500D01*
X181750500Y-74800000D01*
X185200001Y-74800000D01*
X185200001Y-74848312D01*
X185210144Y-74947608D01*
X185263452Y-75108482D01*
X185352426Y-75252731D01*
X185472268Y-75372573D01*
X185616517Y-75461547D01*
X185777391Y-75514855D01*
X185876689Y-75524999D01*
X185900000Y-75524999D01*
X185900000Y-74800000D01*
X185200001Y-74800000D01*
X181750500Y-74800000D01*
X181750500Y-74300000D01*
X185200000Y-74300000D01*
X185900000Y-74300000D01*
X185900000Y-73575000D01*
X185876693Y-73575000D01*
X185876686Y-73575001D01*
X185777391Y-73585144D01*
X185616517Y-73638452D01*
X185472268Y-73727426D01*
X185352426Y-73847268D01*
X185263452Y-73991517D01*
X185210144Y-74152391D01*
X185200000Y-74251688D01*
X185200000Y-74300000D01*
X181750500Y-74300000D01*
X181750500Y-72330000D01*
X186394353Y-72330000D01*
X186414834Y-72472454D01*
X186414834Y-72472455D01*
X186414835Y-72472457D01*
X186434441Y-72515387D01*
X186474623Y-72603373D01*
X186568868Y-72712139D01*
X186568869Y-72712140D01*
X186568872Y-72712143D01*
X186689947Y-72789953D01*
X186796403Y-72821211D01*
X186828035Y-72830499D01*
X186828037Y-72830500D01*
X186977254Y-72830500D01*
X186977254Y-72833512D01*
X187022662Y-72845055D01*
X187030699Y-72852012D01*
X187401626Y-73222939D01*
X187423300Y-73275265D01*
X187423300Y-73814182D01*
X187401626Y-73866508D01*
X187360877Y-73887271D01*
X187341877Y-73890280D01*
X187341871Y-73890282D01*
X187221780Y-73951471D01*
X187157448Y-74015803D01*
X187105121Y-74037477D01*
X187052796Y-74015803D01*
X187038056Y-73994751D01*
X187036550Y-73991522D01*
X186947573Y-73847268D01*
X186827731Y-73727426D01*
X186683482Y-73638452D01*
X186522608Y-73585144D01*
X186423311Y-73575000D01*
X186400000Y-73575000D01*
X186400000Y-75524999D01*
X186423307Y-75524999D01*
X186423312Y-75524998D01*
X186522608Y-75514855D01*
X186683482Y-75461547D01*
X186827731Y-75372573D01*
X186947573Y-75252731D01*
X187036546Y-75108483D01*
X187038054Y-75105251D01*
X187079810Y-75066986D01*
X187136393Y-75069454D01*
X187157448Y-75084196D01*
X187221780Y-75148528D01*
X187341874Y-75209719D01*
X187441511Y-75225500D01*
X187441512Y-75225500D01*
X187958489Y-75225500D01*
X188008307Y-75217609D01*
X188058126Y-75209719D01*
X188178220Y-75148528D01*
X188273528Y-75053220D01*
X188334719Y-74933126D01*
X188343272Y-74879123D01*
X188372865Y-74830833D01*
X188416361Y-74816700D01*
X189760740Y-74816700D01*
X189813066Y-74838374D01*
X189834740Y-74890700D01*
X189834740Y-75372546D01*
X189846373Y-75431032D01*
X189866763Y-75461547D01*
X189890688Y-75497352D01*
X189932064Y-75524999D01*
X189957007Y-75541666D01*
X189957008Y-75541666D01*
X189957009Y-75541667D01*
X190015492Y-75553300D01*
X190015494Y-75553300D01*
X190664586Y-75553300D01*
X190664588Y-75553300D01*
X190723071Y-75541667D01*
X190789392Y-75497352D01*
X190833707Y-75431031D01*
X190845340Y-75372548D01*
X190845340Y-73791687D01*
X190867014Y-73739361D01*
X190919340Y-73717687D01*
X190927256Y-73718112D01*
X190937367Y-73719199D01*
X190937369Y-73719200D01*
X191040000Y-73719200D01*
X191540000Y-73719200D01*
X191642631Y-73719200D01*
X191642632Y-73719199D01*
X191652744Y-73718112D01*
X191707088Y-73734064D01*
X191734235Y-73783771D01*
X191734660Y-73791687D01*
X191734660Y-75372546D01*
X191746293Y-75431032D01*
X191766683Y-75461547D01*
X191790608Y-75497352D01*
X191831984Y-75524999D01*
X191856927Y-75541666D01*
X191856928Y-75541666D01*
X191856929Y-75541667D01*
X191915412Y-75553300D01*
X191915414Y-75553300D01*
X192564506Y-75553300D01*
X192564508Y-75553300D01*
X192622991Y-75541667D01*
X192689312Y-75497352D01*
X192733627Y-75431031D01*
X192745260Y-75372548D01*
X192745260Y-74890700D01*
X192766934Y-74838374D01*
X192819260Y-74816700D01*
X197506427Y-74816700D01*
X197506428Y-74816700D01*
X197576803Y-74797844D01*
X197639898Y-74761415D01*
X199601415Y-72799898D01*
X199637844Y-72736803D01*
X199656700Y-72666428D01*
X199656700Y-72593572D01*
X199656700Y-67891149D01*
X199678374Y-67838823D01*
X199689587Y-67829621D01*
X199714373Y-67813059D01*
X199749552Y-67789553D01*
X199793867Y-67723232D01*
X199805500Y-67664749D01*
X199805500Y-66575253D01*
X199793867Y-66516770D01*
X199784556Y-66502836D01*
X199771002Y-66482551D01*
X199749552Y-66450449D01*
X199701319Y-66418220D01*
X199683232Y-66406134D01*
X199683233Y-66406134D01*
X199653989Y-66400317D01*
X199624748Y-66394501D01*
X199464970Y-66394501D01*
X199412644Y-66372827D01*
X199400022Y-66355966D01*
X199398354Y-66352913D01*
X199312189Y-66237812D01*
X199197089Y-66151647D01*
X199197088Y-66151646D01*
X199062381Y-66101404D01*
X199062376Y-66101403D01*
X199002830Y-66095001D01*
X198955000Y-66095001D01*
X198955000Y-66566537D01*
X198954644Y-66573784D01*
X198954500Y-66575247D01*
X198954500Y-67664752D01*
X198954643Y-67666204D01*
X198955000Y-67673460D01*
X198955000Y-68145001D01*
X199002827Y-68145001D01*
X199021387Y-68143005D01*
X199075731Y-68158960D01*
X199102876Y-68208668D01*
X199103300Y-68216581D01*
X199103300Y-72484735D01*
X199081626Y-72537061D01*
X197377061Y-74241626D01*
X197324735Y-74263300D01*
X192819260Y-74263300D01*
X192766934Y-74241626D01*
X192745260Y-74189300D01*
X192745260Y-73707453D01*
X192745260Y-73707452D01*
X192733627Y-73648969D01*
X192689312Y-73582648D01*
X192667103Y-73567808D01*
X192622992Y-73538333D01*
X192622993Y-73538333D01*
X192593749Y-73532516D01*
X192564508Y-73526700D01*
X192120336Y-73526700D01*
X192068010Y-73505026D01*
X192046336Y-73452700D01*
X192051002Y-73426840D01*
X192088396Y-73326580D01*
X192088397Y-73326575D01*
X192094800Y-73267028D01*
X192094800Y-72656400D01*
X191540000Y-72656400D01*
X191540000Y-73719200D01*
X191040000Y-73719200D01*
X191040000Y-72656400D01*
X190485200Y-72656400D01*
X190485200Y-73267028D01*
X190491602Y-73326575D01*
X190491603Y-73326580D01*
X190528998Y-73426840D01*
X190526977Y-73483441D01*
X190485524Y-73522034D01*
X190459664Y-73526700D01*
X190015492Y-73526700D01*
X189986250Y-73532516D01*
X189957007Y-73538333D01*
X189890689Y-73582647D01*
X189890687Y-73582649D01*
X189846373Y-73648967D01*
X189834740Y-73707453D01*
X189834740Y-74189300D01*
X189813066Y-74241626D01*
X189760740Y-74263300D01*
X188413193Y-74263300D01*
X188360867Y-74241626D01*
X188340104Y-74200875D01*
X188334719Y-74166873D01*
X188334718Y-74166872D01*
X188333552Y-74164584D01*
X188273528Y-74046780D01*
X188178220Y-73951472D01*
X188178219Y-73951471D01*
X188058128Y-73890282D01*
X188058127Y-73890281D01*
X188058126Y-73890281D01*
X188058124Y-73890280D01*
X188058122Y-73890280D01*
X188039123Y-73887271D01*
X187990832Y-73857678D01*
X187976700Y-73814182D01*
X187976700Y-73093573D01*
X187957844Y-73023198D01*
X187957844Y-73023197D01*
X187957843Y-73023194D01*
X187939629Y-72991649D01*
X187921415Y-72960102D01*
X187417466Y-72456153D01*
X187395792Y-72403827D01*
X187396543Y-72393310D01*
X187405647Y-72330000D01*
X187385165Y-72187543D01*
X187370942Y-72156400D01*
X190485200Y-72156400D01*
X191040000Y-72156400D01*
X191040000Y-71093600D01*
X191540000Y-71093600D01*
X191540000Y-72156400D01*
X192094800Y-72156400D01*
X192094800Y-71545771D01*
X192088397Y-71486224D01*
X192088396Y-71486219D01*
X192038154Y-71351512D01*
X192038153Y-71351511D01*
X191951988Y-71236411D01*
X191836888Y-71150246D01*
X191836887Y-71150245D01*
X191702180Y-71100003D01*
X191702175Y-71100002D01*
X191642629Y-71093600D01*
X191540000Y-71093600D01*
X191040000Y-71093600D01*
X190937371Y-71093600D01*
X190877824Y-71100002D01*
X190877819Y-71100003D01*
X190743112Y-71150245D01*
X190743111Y-71150246D01*
X190628011Y-71236411D01*
X190541846Y-71351511D01*
X190541845Y-71351512D01*
X190491603Y-71486219D01*
X190491602Y-71486224D01*
X190485200Y-71545771D01*
X190485200Y-72156400D01*
X187370942Y-72156400D01*
X187325377Y-72056627D01*
X187231128Y-71947857D01*
X187174182Y-71911260D01*
X187110054Y-71870047D01*
X187110050Y-71870046D01*
X186971964Y-71829500D01*
X186971961Y-71829500D01*
X186828039Y-71829500D01*
X186828036Y-71829500D01*
X186689949Y-71870046D01*
X186689945Y-71870047D01*
X186568875Y-71947855D01*
X186568868Y-71947860D01*
X186474623Y-72056626D01*
X186414834Y-72187545D01*
X186394353Y-72330000D01*
X181750500Y-72330000D01*
X181750500Y-69250000D01*
X184644353Y-69250000D01*
X184664834Y-69392454D01*
X184724623Y-69523373D01*
X184818868Y-69632139D01*
X184818869Y-69632140D01*
X184818872Y-69632143D01*
X184939947Y-69709953D01*
X185046403Y-69741211D01*
X185078035Y-69750499D01*
X185078037Y-69750500D01*
X185078039Y-69750500D01*
X185221963Y-69750500D01*
X185221964Y-69750499D01*
X185360053Y-69709953D01*
X185481128Y-69632143D01*
X185575377Y-69523373D01*
X185635165Y-69392457D01*
X185655647Y-69250000D01*
X185646545Y-69186700D01*
X185660551Y-69131825D01*
X185667459Y-69123852D01*
X185861312Y-68930000D01*
X188100001Y-68930000D01*
X188100001Y-68978312D01*
X188110144Y-69077608D01*
X188163452Y-69238482D01*
X188252426Y-69382731D01*
X188372268Y-69502573D01*
X188516517Y-69591547D01*
X188677391Y-69644855D01*
X188776689Y-69654999D01*
X188800000Y-69654999D01*
X189300000Y-69654999D01*
X189323307Y-69654999D01*
X189323312Y-69654998D01*
X189422608Y-69644855D01*
X189583482Y-69591547D01*
X189727731Y-69502573D01*
X189847573Y-69382731D01*
X189936546Y-69238483D01*
X189938054Y-69235251D01*
X189979810Y-69196986D01*
X190036393Y-69199454D01*
X190057448Y-69214196D01*
X190121780Y-69278528D01*
X190241874Y-69339719D01*
X190341511Y-69355500D01*
X190341512Y-69355500D01*
X190858489Y-69355500D01*
X190908307Y-69347609D01*
X190958126Y-69339719D01*
X191078220Y-69278528D01*
X191173528Y-69183220D01*
X191234719Y-69063126D01*
X191241688Y-69019123D01*
X191271281Y-68970833D01*
X191311669Y-68957709D01*
X191311620Y-68957333D01*
X191313652Y-68957065D01*
X191314777Y-68956700D01*
X191316427Y-68956700D01*
X191316428Y-68956700D01*
X191386803Y-68937844D01*
X191449898Y-68901415D01*
X191681313Y-68670000D01*
X196774353Y-68670000D01*
X196794834Y-68812454D01*
X196854623Y-68943373D01*
X196948868Y-69052139D01*
X196948869Y-69052140D01*
X196948872Y-69052143D01*
X197035076Y-69107543D01*
X197060442Y-69123845D01*
X197069947Y-69129953D01*
X197176403Y-69161211D01*
X197208035Y-69170499D01*
X197208037Y-69170500D01*
X197208039Y-69170500D01*
X197351963Y-69170500D01*
X197351964Y-69170499D01*
X197490053Y-69129953D01*
X197611128Y-69052143D01*
X197705377Y-68943373D01*
X197765165Y-68812457D01*
X197785647Y-68670000D01*
X197776545Y-68606700D01*
X197790551Y-68551825D01*
X197797459Y-68543852D01*
X198222037Y-68119274D01*
X198274359Y-68097603D01*
X198300219Y-68102269D01*
X198397620Y-68138597D01*
X198397625Y-68138598D01*
X198457172Y-68145001D01*
X198505002Y-68145001D01*
X198505002Y-67673440D01*
X198505359Y-67666185D01*
X198505500Y-67664753D01*
X198505500Y-66575247D01*
X198505358Y-66573804D01*
X198505002Y-66566557D01*
X198505002Y-66095001D01*
X198457172Y-66095001D01*
X198397625Y-66101403D01*
X198397620Y-66101404D01*
X198262913Y-66151646D01*
X198262912Y-66151647D01*
X198147812Y-66237812D01*
X198061647Y-66352913D01*
X198059980Y-66355966D01*
X198015880Y-66391504D01*
X197995032Y-66394501D01*
X197835252Y-66394501D01*
X197806010Y-66400317D01*
X197776767Y-66406134D01*
X197710449Y-66450448D01*
X197710447Y-66450450D01*
X197666133Y-66516768D01*
X197666133Y-66516770D01*
X197654500Y-66575253D01*
X197654500Y-67664749D01*
X197656229Y-67673440D01*
X197666133Y-67723233D01*
X197700213Y-67774237D01*
X197711262Y-67829786D01*
X197691010Y-67867675D01*
X197410699Y-68147986D01*
X197358373Y-68169660D01*
X197356122Y-68169500D01*
X197351961Y-68169500D01*
X197208039Y-68169500D01*
X197208036Y-68169500D01*
X197069949Y-68210046D01*
X197069945Y-68210047D01*
X196948875Y-68287855D01*
X196948868Y-68287860D01*
X196854623Y-68396626D01*
X196794834Y-68527545D01*
X196774353Y-68670000D01*
X191681313Y-68670000D01*
X192191414Y-68159899D01*
X192227843Y-68096804D01*
X192246699Y-68026429D01*
X192246699Y-67953573D01*
X192246699Y-67740000D01*
X193855001Y-67740000D01*
X193855001Y-67763312D01*
X193865144Y-67862608D01*
X193918452Y-68023482D01*
X194007426Y-68167731D01*
X194127268Y-68287573D01*
X194271517Y-68376547D01*
X194432391Y-68429855D01*
X194531689Y-68439999D01*
X194531690Y-68439999D01*
X194579999Y-68439998D01*
X194580000Y-68439998D01*
X194580000Y-67740000D01*
X195080000Y-67740000D01*
X195080000Y-68439999D01*
X195128307Y-68439999D01*
X195128312Y-68439998D01*
X195227608Y-68429855D01*
X195388482Y-68376547D01*
X195532731Y-68287573D01*
X195652573Y-68167731D01*
X195741547Y-68023482D01*
X195794855Y-67862608D01*
X195804999Y-67763311D01*
X195805000Y-67763309D01*
X195805000Y-67740000D01*
X195080000Y-67740000D01*
X194580000Y-67740000D01*
X193855001Y-67740000D01*
X192246699Y-67740000D01*
X192246699Y-66899500D01*
X192268373Y-66847174D01*
X192320699Y-66825500D01*
X192539183Y-66825500D01*
X192539183Y-66825499D01*
X192672834Y-66789688D01*
X192792663Y-66720505D01*
X192890503Y-66622665D01*
X192959686Y-66502836D01*
X192995497Y-66369185D01*
X192995498Y-66369185D01*
X192995498Y-66230815D01*
X192995497Y-66230814D01*
X192986835Y-66198488D01*
X192959686Y-66097164D01*
X192890503Y-65977335D01*
X192792663Y-65879495D01*
X192672834Y-65810312D01*
X192672829Y-65810310D01*
X192539183Y-65774500D01*
X192539181Y-65774500D01*
X191400817Y-65774500D01*
X191400815Y-65774500D01*
X191267168Y-65810310D01*
X191267163Y-65810312D01*
X191147334Y-65879495D01*
X191049495Y-65977334D01*
X190980312Y-66097163D01*
X190980310Y-66097168D01*
X190944500Y-66230814D01*
X190944500Y-66369185D01*
X190980310Y-66502831D01*
X190980312Y-66502836D01*
X191049495Y-66622665D01*
X191147335Y-66720505D01*
X191267164Y-66789688D01*
X191400814Y-66825499D01*
X191400815Y-66825500D01*
X191400817Y-66825500D01*
X191619299Y-66825500D01*
X191671625Y-66847174D01*
X191693299Y-66899500D01*
X191693299Y-67844735D01*
X191671625Y-67897061D01*
X191319259Y-68249426D01*
X191266933Y-68271100D01*
X191214607Y-68249426D01*
X191200999Y-68230695D01*
X191173528Y-68176780D01*
X191078220Y-68081472D01*
X191078219Y-68081471D01*
X190958126Y-68020281D01*
X190958125Y-68020280D01*
X190858489Y-68004500D01*
X190858488Y-68004500D01*
X190341512Y-68004500D01*
X190341511Y-68004500D01*
X190241874Y-68020280D01*
X190241873Y-68020281D01*
X190121780Y-68081471D01*
X190057448Y-68145803D01*
X190005121Y-68167477D01*
X189952796Y-68145803D01*
X189938056Y-68124751D01*
X189936550Y-68121522D01*
X189847573Y-67977268D01*
X189727731Y-67857426D01*
X189583482Y-67768452D01*
X189422608Y-67715144D01*
X189323311Y-67705000D01*
X189300000Y-67705000D01*
X189300000Y-69654999D01*
X188800000Y-69654999D01*
X188800000Y-68930000D01*
X188100001Y-68930000D01*
X185861312Y-68930000D01*
X186361313Y-68430000D01*
X188100000Y-68430000D01*
X188800000Y-68430000D01*
X188800000Y-67705000D01*
X188776693Y-67705000D01*
X188776686Y-67705001D01*
X188677391Y-67715144D01*
X188516517Y-67768452D01*
X188372268Y-67857426D01*
X188252426Y-67977268D01*
X188163452Y-68121517D01*
X188110144Y-68282391D01*
X188100000Y-68381688D01*
X188100000Y-68430000D01*
X186361313Y-68430000D01*
X186541415Y-68249898D01*
X186577844Y-68186803D01*
X186596700Y-68116428D01*
X186596700Y-68043572D01*
X186596700Y-66899500D01*
X186618374Y-66847174D01*
X186670700Y-66825500D01*
X186889184Y-66825500D01*
X186889184Y-66825499D01*
X187022835Y-66789688D01*
X187142664Y-66720505D01*
X187240504Y-66622665D01*
X187309687Y-66502836D01*
X187345498Y-66369185D01*
X187345499Y-66369185D01*
X187345499Y-66230815D01*
X187345498Y-66230814D01*
X187336836Y-66198488D01*
X187309687Y-66097164D01*
X187240504Y-65977335D01*
X187142664Y-65879495D01*
X187022835Y-65810312D01*
X187022830Y-65810310D01*
X186889184Y-65774500D01*
X186889182Y-65774500D01*
X185750818Y-65774500D01*
X185750816Y-65774500D01*
X185617169Y-65810310D01*
X185617164Y-65810312D01*
X185497335Y-65879495D01*
X185399496Y-65977334D01*
X185330313Y-66097163D01*
X185330311Y-66097168D01*
X185294501Y-66230814D01*
X185294501Y-66369185D01*
X185330311Y-66502831D01*
X185330313Y-66502836D01*
X185399496Y-66622665D01*
X185497336Y-66720505D01*
X185617165Y-66789688D01*
X185750815Y-66825499D01*
X185750816Y-66825500D01*
X185750818Y-66825500D01*
X185969300Y-66825500D01*
X186021626Y-66847174D01*
X186043300Y-66899500D01*
X186043300Y-67934734D01*
X186021626Y-67987060D01*
X185280699Y-68727986D01*
X185228373Y-68749660D01*
X185226122Y-68749500D01*
X185221961Y-68749500D01*
X185078039Y-68749500D01*
X185078036Y-68749500D01*
X184939949Y-68790046D01*
X184939945Y-68790047D01*
X184818875Y-68867855D01*
X184818868Y-68867860D01*
X184724623Y-68976626D01*
X184664834Y-69107545D01*
X184644353Y-69250000D01*
X181750500Y-69250000D01*
X181750500Y-64151519D01*
X182604500Y-64151519D01*
X182619353Y-64245304D01*
X182619354Y-64245306D01*
X182676950Y-64358342D01*
X182766658Y-64448050D01*
X182879696Y-64505646D01*
X182973481Y-64520500D01*
X183586518Y-64520499D01*
X183586519Y-64520499D01*
X183680304Y-64505646D01*
X183680306Y-64505645D01*
X183705007Y-64493059D01*
X183793342Y-64448050D01*
X183882714Y-64358677D01*
X183935039Y-64337004D01*
X183987365Y-64358678D01*
X184880102Y-65251415D01*
X184943197Y-65287844D01*
X185013572Y-65306700D01*
X185330234Y-65306700D01*
X185382560Y-65328374D01*
X185394319Y-65343699D01*
X185399496Y-65352665D01*
X185497336Y-65450505D01*
X185617165Y-65519688D01*
X185750815Y-65555499D01*
X185750816Y-65555500D01*
X185750818Y-65555500D01*
X186889184Y-65555500D01*
X186889184Y-65555499D01*
X187022835Y-65519688D01*
X187142664Y-65450505D01*
X187183169Y-65410000D01*
X189294353Y-65410000D01*
X189314834Y-65552454D01*
X189314834Y-65552455D01*
X189314835Y-65552457D01*
X189330804Y-65587424D01*
X189374623Y-65683373D01*
X189468868Y-65792139D01*
X189468869Y-65792140D01*
X189468872Y-65792143D01*
X189589947Y-65869953D01*
X189696403Y-65901211D01*
X189728035Y-65910499D01*
X189728037Y-65910500D01*
X189728039Y-65910500D01*
X189871963Y-65910500D01*
X189871964Y-65910499D01*
X190010053Y-65869953D01*
X190131128Y-65792143D01*
X190225377Y-65683373D01*
X190285165Y-65552457D01*
X190305647Y-65410000D01*
X190302948Y-65391230D01*
X190316954Y-65336354D01*
X190365663Y-65307453D01*
X190376195Y-65306700D01*
X190980233Y-65306700D01*
X191032559Y-65328374D01*
X191044318Y-65343699D01*
X191049495Y-65352665D01*
X191147335Y-65450505D01*
X191267164Y-65519688D01*
X191400814Y-65555499D01*
X191400815Y-65555500D01*
X191400817Y-65555500D01*
X192539183Y-65555500D01*
X192539183Y-65555499D01*
X192672834Y-65519688D01*
X192792663Y-65450505D01*
X192890503Y-65352665D01*
X192895680Y-65343699D01*
X192940613Y-65309221D01*
X192959765Y-65306700D01*
X192964735Y-65306700D01*
X193017061Y-65328374D01*
X193798585Y-66109898D01*
X193798584Y-66109898D01*
X193840333Y-66151646D01*
X193850102Y-66161415D01*
X193913198Y-66197844D01*
X193983572Y-66216700D01*
X194094182Y-66216700D01*
X194146508Y-66238374D01*
X194167271Y-66279123D01*
X194170280Y-66298122D01*
X194170282Y-66298128D01*
X194231471Y-66418219D01*
X194295803Y-66482551D01*
X194317477Y-66534877D01*
X194295803Y-66587203D01*
X194274759Y-66601940D01*
X194271520Y-66603450D01*
X194127268Y-66692426D01*
X194007426Y-66812268D01*
X193918452Y-66956517D01*
X193865144Y-67117391D01*
X193855000Y-67216688D01*
X193855000Y-67240000D01*
X195804999Y-67240000D01*
X195804999Y-67216693D01*
X195804998Y-67216687D01*
X195794855Y-67117391D01*
X195741547Y-66956517D01*
X195652573Y-66812268D01*
X195532731Y-66692426D01*
X195388484Y-66603454D01*
X195385243Y-66601942D01*
X195346983Y-66560181D01*
X195349457Y-66503598D01*
X195364193Y-66482554D01*
X195428528Y-66418220D01*
X195489719Y-66298126D01*
X195505500Y-66198488D01*
X195505500Y-65681512D01*
X195489719Y-65581874D01*
X195428528Y-65461780D01*
X195333220Y-65366472D01*
X195333219Y-65366471D01*
X195213126Y-65305281D01*
X195213125Y-65305280D01*
X195113489Y-65289500D01*
X195113488Y-65289500D01*
X194546512Y-65289500D01*
X194546511Y-65289500D01*
X194446874Y-65305280D01*
X194446873Y-65305281D01*
X194326780Y-65366471D01*
X194231473Y-65461778D01*
X194176996Y-65568694D01*
X194133929Y-65605476D01*
X194077466Y-65601032D01*
X194058739Y-65587426D01*
X193279898Y-64808585D01*
X193254660Y-64794013D01*
X193216809Y-64772159D01*
X193216803Y-64772156D01*
X193146428Y-64753300D01*
X193146427Y-64753300D01*
X192959765Y-64753300D01*
X192907439Y-64731626D01*
X192895680Y-64716301D01*
X192890503Y-64707335D01*
X192792663Y-64609495D01*
X192672834Y-64540312D01*
X192672829Y-64540310D01*
X192539183Y-64504500D01*
X192539181Y-64504500D01*
X191400817Y-64504500D01*
X191400815Y-64504500D01*
X191267168Y-64540310D01*
X191267163Y-64540312D01*
X191147334Y-64609495D01*
X191049494Y-64707335D01*
X191044318Y-64716301D01*
X190999385Y-64750779D01*
X190980233Y-64753300D01*
X190216428Y-64753300D01*
X190143572Y-64753300D01*
X190108384Y-64762728D01*
X190073196Y-64772156D01*
X190073190Y-64772159D01*
X190010102Y-64808584D01*
X189930699Y-64887987D01*
X189878373Y-64909661D01*
X189876122Y-64909500D01*
X189871961Y-64909500D01*
X189728039Y-64909500D01*
X189728036Y-64909500D01*
X189589949Y-64950046D01*
X189589945Y-64950047D01*
X189468875Y-65027855D01*
X189468868Y-65027860D01*
X189374623Y-65136626D01*
X189314834Y-65267545D01*
X189294353Y-65410000D01*
X187183169Y-65410000D01*
X187240504Y-65352665D01*
X187245681Y-65343699D01*
X187290614Y-65309221D01*
X187309766Y-65306700D01*
X188676427Y-65306700D01*
X188676428Y-65306700D01*
X188746803Y-65287844D01*
X188809898Y-65251415D01*
X189711415Y-64349898D01*
X189747844Y-64286802D01*
X189766700Y-64216428D01*
X189766700Y-64143572D01*
X189766700Y-63829185D01*
X190944500Y-63829185D01*
X190980310Y-63962831D01*
X190980312Y-63962836D01*
X191049495Y-64082665D01*
X191147335Y-64180505D01*
X191267164Y-64249688D01*
X191400814Y-64285499D01*
X191400815Y-64285500D01*
X191400817Y-64285500D01*
X192539183Y-64285500D01*
X192539183Y-64285499D01*
X192634348Y-64260000D01*
X193935001Y-64260000D01*
X193935001Y-64283312D01*
X193945144Y-64382608D01*
X193998452Y-64543482D01*
X194087426Y-64687731D01*
X194207268Y-64807573D01*
X194351517Y-64896547D01*
X194512391Y-64949855D01*
X194611689Y-64959999D01*
X194611690Y-64959999D01*
X194659999Y-64959998D01*
X194660000Y-64959998D01*
X194660000Y-64260000D01*
X195160000Y-64260000D01*
X195160000Y-64959999D01*
X195208307Y-64959999D01*
X195208312Y-64959998D01*
X195307608Y-64949855D01*
X195468482Y-64896547D01*
X195612731Y-64807573D01*
X195732573Y-64687731D01*
X195821547Y-64543482D01*
X195874855Y-64382608D01*
X195884999Y-64283311D01*
X195885000Y-64283309D01*
X195885000Y-64260000D01*
X195160000Y-64260000D01*
X194660000Y-64260000D01*
X193935001Y-64260000D01*
X192634348Y-64260000D01*
X192672834Y-64249688D01*
X192792663Y-64180505D01*
X192890503Y-64082665D01*
X192959686Y-63962836D01*
X192995497Y-63829185D01*
X192995498Y-63829185D01*
X192995498Y-63690815D01*
X192995497Y-63690814D01*
X192981182Y-63637391D01*
X192959686Y-63557164D01*
X192890503Y-63437335D01*
X192792663Y-63339495D01*
X192672834Y-63270312D01*
X192672829Y-63270310D01*
X192539183Y-63234500D01*
X192539181Y-63234500D01*
X191400817Y-63234500D01*
X191400815Y-63234500D01*
X191267168Y-63270310D01*
X191267163Y-63270312D01*
X191147334Y-63339495D01*
X191049495Y-63437334D01*
X190980312Y-63557163D01*
X190980310Y-63557168D01*
X190944500Y-63690814D01*
X190944500Y-63829185D01*
X189766700Y-63829185D01*
X189766700Y-62559185D01*
X190944500Y-62559185D01*
X190980310Y-62692831D01*
X190980312Y-62692836D01*
X191049495Y-62812665D01*
X191147335Y-62910505D01*
X191267164Y-62979688D01*
X191400814Y-63015499D01*
X191400815Y-63015500D01*
X191400817Y-63015500D01*
X192539183Y-63015500D01*
X192539183Y-63015499D01*
X192672834Y-62979688D01*
X192792663Y-62910505D01*
X192890503Y-62812665D01*
X192912999Y-62773699D01*
X192957932Y-62739222D01*
X192977085Y-62736700D01*
X194174182Y-62736700D01*
X194226508Y-62758374D01*
X194247271Y-62799123D01*
X194250280Y-62818122D01*
X194250282Y-62818128D01*
X194311471Y-62938219D01*
X194375803Y-63002551D01*
X194397477Y-63054877D01*
X194375803Y-63107203D01*
X194354759Y-63121940D01*
X194351520Y-63123450D01*
X194207268Y-63212426D01*
X194087426Y-63332268D01*
X193998452Y-63476517D01*
X193945144Y-63637391D01*
X193935000Y-63736688D01*
X193935000Y-63760000D01*
X195884999Y-63760000D01*
X195884999Y-63736693D01*
X195884998Y-63736687D01*
X195874855Y-63637391D01*
X195821547Y-63476517D01*
X195732573Y-63332268D01*
X195612731Y-63212426D01*
X195468484Y-63123454D01*
X195465243Y-63121942D01*
X195426983Y-63080181D01*
X195429457Y-63023598D01*
X195444193Y-63002554D01*
X195508528Y-62938220D01*
X195569719Y-62818126D01*
X195585500Y-62718488D01*
X195585500Y-62201512D01*
X195569719Y-62101874D01*
X195508528Y-61981780D01*
X195413220Y-61886472D01*
X195413219Y-61886471D01*
X195293126Y-61825281D01*
X195249123Y-61818311D01*
X195200832Y-61788717D01*
X195186700Y-61745222D01*
X195186700Y-61503573D01*
X195167844Y-61433198D01*
X195167844Y-61433197D01*
X195167843Y-61433194D01*
X195149629Y-61401649D01*
X195131415Y-61370102D01*
X194927466Y-61166153D01*
X194905792Y-61113827D01*
X194906543Y-61103310D01*
X194915647Y-61040000D01*
X194895165Y-60897543D01*
X194835377Y-60766627D01*
X194764356Y-60684664D01*
X194741131Y-60657860D01*
X194741129Y-60657859D01*
X194741128Y-60657857D01*
X194669112Y-60611575D01*
X194620054Y-60580047D01*
X194620050Y-60580046D01*
X194481964Y-60539500D01*
X194481961Y-60539500D01*
X194338039Y-60539500D01*
X194338036Y-60539500D01*
X194199949Y-60580046D01*
X194199945Y-60580047D01*
X194078875Y-60657855D01*
X194078868Y-60657860D01*
X193984623Y-60766626D01*
X193924834Y-60897545D01*
X193904353Y-61040000D01*
X193924834Y-61182454D01*
X193984623Y-61313373D01*
X194078868Y-61422139D01*
X194078869Y-61422140D01*
X194078872Y-61422143D01*
X194199947Y-61499953D01*
X194306403Y-61531211D01*
X194338035Y-61540499D01*
X194338037Y-61540500D01*
X194487254Y-61540500D01*
X194487254Y-61543512D01*
X194532662Y-61555055D01*
X194540699Y-61562012D01*
X194611626Y-61632939D01*
X194633300Y-61685265D01*
X194633300Y-61745222D01*
X194611626Y-61797548D01*
X194570877Y-61818311D01*
X194526873Y-61825281D01*
X194406780Y-61886471D01*
X194311471Y-61981780D01*
X194250282Y-62101871D01*
X194250280Y-62101877D01*
X194247271Y-62120877D01*
X194217678Y-62169168D01*
X194174182Y-62183300D01*
X192937120Y-62183300D01*
X192884794Y-62161626D01*
X192792663Y-62069495D01*
X192672834Y-62000312D01*
X192672829Y-62000310D01*
X192539183Y-61964500D01*
X192539181Y-61964500D01*
X191400817Y-61964500D01*
X191400815Y-61964500D01*
X191267168Y-62000310D01*
X191267163Y-62000312D01*
X191147334Y-62069495D01*
X191049495Y-62167334D01*
X190980312Y-62287163D01*
X190980310Y-62287168D01*
X190944500Y-62420814D01*
X190944500Y-62559185D01*
X189766700Y-62559185D01*
X189766700Y-61685265D01*
X189788374Y-61632939D01*
X191032939Y-60388374D01*
X191085265Y-60366700D01*
X195154735Y-60366700D01*
X195207061Y-60388374D01*
X195801626Y-60982939D01*
X195823300Y-61035265D01*
X195823300Y-62313572D01*
X195823300Y-62386428D01*
X195842156Y-62456803D01*
X195878585Y-62519898D01*
X196510102Y-63151415D01*
X196573197Y-63187844D01*
X196643572Y-63206700D01*
X196716428Y-63206700D01*
X196729797Y-63206700D01*
X196782123Y-63228374D01*
X196795745Y-63250604D01*
X196796709Y-63250114D01*
X196832064Y-63319501D01*
X196856950Y-63368342D01*
X196946658Y-63458050D01*
X197059696Y-63515646D01*
X197120876Y-63525336D01*
X197169167Y-63554927D01*
X197183300Y-63598424D01*
X197183300Y-63623572D01*
X197183300Y-63696428D01*
X197199794Y-63757987D01*
X197202156Y-63766803D01*
X197202159Y-63766809D01*
X197224013Y-63804660D01*
X197238585Y-63829898D01*
X197632826Y-64224139D01*
X197654500Y-64276464D01*
X197654500Y-65214747D01*
X197666133Y-65273233D01*
X197677003Y-65289500D01*
X197710448Y-65339553D01*
X197754560Y-65369028D01*
X197776767Y-65383867D01*
X197776768Y-65383867D01*
X197776769Y-65383868D01*
X197835252Y-65395501D01*
X197835254Y-65395501D01*
X198324747Y-65395501D01*
X198324748Y-65395501D01*
X198369793Y-65386541D01*
X198390381Y-65382446D01*
X198391213Y-65386629D01*
X198418809Y-65386528D01*
X198419622Y-65382446D01*
X198426769Y-65383867D01*
X198426770Y-65383868D01*
X198485253Y-65395501D01*
X198485255Y-65395501D01*
X198974748Y-65395501D01*
X198974749Y-65395501D01*
X199019794Y-65386541D01*
X199040382Y-65382446D01*
X199041212Y-65386620D01*
X199068806Y-65386541D01*
X199069621Y-65382446D01*
X199076768Y-65383867D01*
X199076769Y-65383868D01*
X199135252Y-65395501D01*
X199135254Y-65395501D01*
X199624746Y-65395501D01*
X199624748Y-65395501D01*
X199683231Y-65383868D01*
X199749552Y-65339553D01*
X199793867Y-65273232D01*
X199805500Y-65214749D01*
X199805500Y-64125253D01*
X199793867Y-64066770D01*
X199775807Y-64039741D01*
X199764757Y-63984192D01*
X199785007Y-63946304D01*
X200551415Y-63179898D01*
X200587844Y-63116803D01*
X200606700Y-63046428D01*
X200606700Y-62973572D01*
X200606700Y-58723572D01*
X200592373Y-58670102D01*
X200587844Y-58653197D01*
X200587843Y-58653195D01*
X200587843Y-58653194D01*
X200555066Y-58596426D01*
X200551415Y-58590102D01*
X200007126Y-58045813D01*
X199985453Y-57993489D01*
X200007127Y-57941163D01*
X200059453Y-57919489D01*
X200066159Y-57919794D01*
X200068422Y-57919999D01*
X200150000Y-57919999D01*
X200150000Y-57270000D01*
X199425001Y-57270000D01*
X199425001Y-57276583D01*
X199431408Y-57347102D01*
X199431409Y-57347106D01*
X199481979Y-57509393D01*
X199569925Y-57654874D01*
X199592025Y-57676974D01*
X199613699Y-57729300D01*
X199592025Y-57781626D01*
X199539699Y-57803300D01*
X199181802Y-57803300D01*
X199129476Y-57781626D01*
X199107802Y-57729300D01*
X199123327Y-57683950D01*
X199125179Y-57681560D01*
X199208781Y-57540199D01*
X199254599Y-57382493D01*
X199254796Y-57380000D01*
X196935204Y-57380000D01*
X196935400Y-57382493D01*
X196981218Y-57540199D01*
X197064817Y-57681556D01*
X197180944Y-57797683D01*
X197198525Y-57808081D01*
X197232530Y-57853373D01*
X197234082Y-57882440D01*
X197232001Y-57896724D01*
X197232000Y-57896746D01*
X197232000Y-58263264D01*
X197241927Y-58331393D01*
X197241927Y-58331394D01*
X197293301Y-58436482D01*
X197293302Y-58436483D01*
X197376017Y-58519198D01*
X197481107Y-58570573D01*
X197549240Y-58580500D01*
X197549246Y-58580500D01*
X198640754Y-58580500D01*
X198640760Y-58580500D01*
X198708893Y-58570573D01*
X198813983Y-58519198D01*
X198896698Y-58436483D01*
X198915413Y-58398199D01*
X198957865Y-58360710D01*
X198981894Y-58356700D01*
X199504735Y-58356700D01*
X199557061Y-58378374D01*
X200031626Y-58852939D01*
X200053300Y-58905265D01*
X200053300Y-62864735D01*
X200031626Y-62917061D01*
X199158584Y-63790103D01*
X199144786Y-63814002D01*
X199099852Y-63848479D01*
X199043699Y-63841085D01*
X199009222Y-63796151D01*
X199006701Y-63777000D01*
X199006701Y-63089661D01*
X199028375Y-63037335D01*
X199040694Y-63027408D01*
X199111128Y-62982143D01*
X199205377Y-62873373D01*
X199265165Y-62742457D01*
X199285647Y-62600000D01*
X199265165Y-62457543D01*
X199205377Y-62326627D01*
X199111128Y-62217857D01*
X199054182Y-62181260D01*
X198990054Y-62140047D01*
X198990050Y-62140046D01*
X198851964Y-62099500D01*
X198851961Y-62099500D01*
X198708039Y-62099500D01*
X198708036Y-62099500D01*
X198569949Y-62140046D01*
X198569945Y-62140047D01*
X198448875Y-62217855D01*
X198448868Y-62217860D01*
X198354623Y-62326626D01*
X198294834Y-62457545D01*
X198274353Y-62600000D01*
X198294834Y-62742454D01*
X198294834Y-62742455D01*
X198294835Y-62742457D01*
X198354623Y-62873373D01*
X198435228Y-62966396D01*
X198453301Y-63014854D01*
X198453301Y-63879902D01*
X198431627Y-63932228D01*
X198379301Y-63953902D01*
X198364866Y-63952480D01*
X198324749Y-63944501D01*
X198324748Y-63944501D01*
X198166466Y-63944501D01*
X198114140Y-63922827D01*
X197829953Y-63638640D01*
X197808279Y-63586314D01*
X197829953Y-63533988D01*
X197855222Y-63518504D01*
X197855114Y-63518291D01*
X197857823Y-63516910D01*
X197859417Y-63515934D01*
X197860297Y-63515646D01*
X197860304Y-63515646D01*
X197973342Y-63458050D01*
X198063050Y-63368342D01*
X198120646Y-63255304D01*
X198135500Y-63161519D01*
X198135499Y-62698482D01*
X198128983Y-62657340D01*
X198120646Y-62604695D01*
X198120645Y-62604693D01*
X198063049Y-62491657D01*
X197973343Y-62401951D01*
X197973342Y-62401950D01*
X197860304Y-62344354D01*
X197860302Y-62344353D01*
X197860301Y-62344353D01*
X197766519Y-62329500D01*
X197153480Y-62329500D01*
X197059695Y-62344353D01*
X197059693Y-62344354D01*
X196946657Y-62401950D01*
X196856949Y-62491658D01*
X196827587Y-62549284D01*
X196784519Y-62586067D01*
X196728057Y-62581622D01*
X196709327Y-62568014D01*
X196398374Y-62257061D01*
X196376700Y-62204735D01*
X196376700Y-60853573D01*
X196357844Y-60783198D01*
X196357844Y-60783197D01*
X196357843Y-60783194D01*
X196339629Y-60751649D01*
X196321415Y-60720102D01*
X195541313Y-59940000D01*
X196474353Y-59940000D01*
X196494834Y-60082454D01*
X196494834Y-60082455D01*
X196494835Y-60082457D01*
X196554623Y-60213373D01*
X196648868Y-60322139D01*
X196648869Y-60322140D01*
X196648872Y-60322143D01*
X196769947Y-60399953D01*
X196876403Y-60431211D01*
X196908035Y-60440499D01*
X196908037Y-60440500D01*
X197057254Y-60440500D01*
X197057254Y-60443512D01*
X197102662Y-60455055D01*
X197110699Y-60462012D01*
X197161626Y-60512939D01*
X197183300Y-60565265D01*
X197183300Y-60611575D01*
X197161626Y-60663901D01*
X197120876Y-60684664D01*
X197059695Y-60694354D01*
X197059693Y-60694354D01*
X196946657Y-60751950D01*
X196856951Y-60841656D01*
X196799353Y-60954698D01*
X196784500Y-61048480D01*
X196784500Y-61511519D01*
X196799353Y-61605304D01*
X196799354Y-61605306D01*
X196839632Y-61684354D01*
X196856950Y-61718342D01*
X196946658Y-61808050D01*
X197059696Y-61865646D01*
X197153481Y-61880500D01*
X197766518Y-61880499D01*
X197766519Y-61880499D01*
X197860304Y-61865646D01*
X197860306Y-61865645D01*
X197892624Y-61849178D01*
X197973342Y-61808050D01*
X198063050Y-61718342D01*
X198120646Y-61605304D01*
X198135500Y-61511519D01*
X198135499Y-61048482D01*
X198128551Y-61004613D01*
X198120646Y-60954695D01*
X198120645Y-60954693D01*
X198069121Y-60853573D01*
X198063050Y-60841658D01*
X197973342Y-60751950D01*
X197860304Y-60694354D01*
X197860302Y-60694353D01*
X197860301Y-60694353D01*
X197799124Y-60684664D01*
X197750833Y-60655071D01*
X197736700Y-60611575D01*
X197736700Y-60383573D01*
X197732179Y-60366700D01*
X197717844Y-60313198D01*
X197681415Y-60250102D01*
X197681414Y-60250101D01*
X197629898Y-60198584D01*
X197629898Y-60198585D01*
X197497466Y-60066153D01*
X197475792Y-60013827D01*
X197476543Y-60003310D01*
X197485647Y-59940000D01*
X197465165Y-59797543D01*
X197405377Y-59666627D01*
X197311128Y-59557857D01*
X197254182Y-59521260D01*
X197190054Y-59480047D01*
X197190050Y-59480046D01*
X197051964Y-59439500D01*
X197051961Y-59439500D01*
X196908039Y-59439500D01*
X196908036Y-59439500D01*
X196769949Y-59480046D01*
X196769945Y-59480047D01*
X196648875Y-59557855D01*
X196648868Y-59557860D01*
X196554623Y-59666626D01*
X196494834Y-59797545D01*
X196474353Y-59940000D01*
X195541313Y-59940000D01*
X195469898Y-59868585D01*
X195444660Y-59854013D01*
X195406809Y-59832159D01*
X195406803Y-59832156D01*
X195336428Y-59813300D01*
X190976428Y-59813300D01*
X190903572Y-59813300D01*
X190868384Y-59822728D01*
X190833196Y-59832156D01*
X190833190Y-59832159D01*
X190770105Y-59868583D01*
X190770103Y-59868584D01*
X189268584Y-61370103D01*
X189268583Y-61370105D01*
X189232156Y-61433194D01*
X189232156Y-61433198D01*
X189213300Y-61503573D01*
X189213300Y-64034735D01*
X189191626Y-64087061D01*
X188702559Y-64576127D01*
X188650233Y-64597801D01*
X188597907Y-64576127D01*
X188576233Y-64523801D01*
X188582920Y-64493062D01*
X188615165Y-64422457D01*
X188635647Y-64280000D01*
X188615165Y-64137543D01*
X188555377Y-64006627D01*
X188492326Y-63933862D01*
X188461131Y-63897860D01*
X188461129Y-63897859D01*
X188461128Y-63897857D01*
X188372789Y-63841085D01*
X188340054Y-63820047D01*
X188340050Y-63820046D01*
X188201964Y-63779500D01*
X188201961Y-63779500D01*
X188058039Y-63779500D01*
X188052747Y-63779500D01*
X188052747Y-63776508D01*
X188007270Y-63764894D01*
X187999300Y-63757987D01*
X187903469Y-63662156D01*
X187779898Y-63538585D01*
X187742357Y-63516910D01*
X187716809Y-63502159D01*
X187716803Y-63502156D01*
X187646428Y-63483300D01*
X187646427Y-63483300D01*
X187309766Y-63483300D01*
X187257440Y-63461626D01*
X187245681Y-63446301D01*
X187240504Y-63437335D01*
X187157213Y-63354044D01*
X187135539Y-63301718D01*
X187157213Y-63249392D01*
X187181221Y-63233351D01*
X187210780Y-63221107D01*
X187345902Y-63130821D01*
X187460820Y-63015903D01*
X187551105Y-62880783D01*
X187609420Y-62740000D01*
X185027698Y-62740000D01*
X184985809Y-62767988D01*
X184930261Y-62756938D01*
X184919053Y-62747740D01*
X184411312Y-62239999D01*
X185030579Y-62239999D01*
X185030580Y-62240000D01*
X186070000Y-62240000D01*
X186070000Y-61665000D01*
X186570000Y-61665000D01*
X186570000Y-62240000D01*
X187609420Y-62240000D01*
X187609420Y-62239999D01*
X187551105Y-62099216D01*
X187460820Y-61964096D01*
X187345902Y-61849178D01*
X187210780Y-61758892D01*
X187060647Y-61696705D01*
X187060636Y-61696702D01*
X186901253Y-61665000D01*
X186570000Y-61665000D01*
X186070000Y-61665000D01*
X185738747Y-61665000D01*
X185579363Y-61696702D01*
X185579352Y-61696705D01*
X185429219Y-61758892D01*
X185294097Y-61849178D01*
X185179179Y-61964096D01*
X185088894Y-62099216D01*
X185030579Y-62239999D01*
X184411312Y-62239999D01*
X184219898Y-62048585D01*
X184194660Y-62034013D01*
X184156809Y-62012159D01*
X184156803Y-62012156D01*
X184112598Y-62000312D01*
X184086428Y-61993300D01*
X184086427Y-61993300D01*
X184010203Y-61993300D01*
X183957877Y-61971626D01*
X183944254Y-61949395D01*
X183943291Y-61949886D01*
X183883049Y-61831657D01*
X183793343Y-61741951D01*
X183793342Y-61741950D01*
X183680304Y-61684354D01*
X183680302Y-61684353D01*
X183680301Y-61684353D01*
X183586519Y-61669500D01*
X182973480Y-61669500D01*
X182879695Y-61684353D01*
X182879693Y-61684354D01*
X182766657Y-61741950D01*
X182676951Y-61831656D01*
X182619353Y-61944698D01*
X182604500Y-62038480D01*
X182604500Y-62501519D01*
X182619353Y-62595304D01*
X182619354Y-62595306D01*
X182650963Y-62657340D01*
X182676950Y-62708342D01*
X182766658Y-62798050D01*
X182879696Y-62855646D01*
X182973481Y-62870500D01*
X183586518Y-62870499D01*
X183586519Y-62870499D01*
X183680304Y-62855646D01*
X183680306Y-62855645D01*
X183682419Y-62854568D01*
X183793342Y-62798050D01*
X183883050Y-62708342D01*
X183909037Y-62657340D01*
X183952104Y-62620558D01*
X184008567Y-62625002D01*
X184027297Y-62638610D01*
X185308528Y-63919841D01*
X185327679Y-63953010D01*
X185330311Y-63962831D01*
X185330313Y-63962837D01*
X185399495Y-64082664D01*
X185399496Y-64082665D01*
X185497336Y-64180505D01*
X185617165Y-64249688D01*
X185750815Y-64285499D01*
X185750816Y-64285500D01*
X185750818Y-64285500D01*
X186889184Y-64285500D01*
X186889184Y-64285499D01*
X187022835Y-64249688D01*
X187142664Y-64180505D01*
X187240504Y-64082665D01*
X187245681Y-64073699D01*
X187290614Y-64039221D01*
X187309766Y-64036700D01*
X187464735Y-64036700D01*
X187517061Y-64058374D01*
X187612532Y-64153845D01*
X187634206Y-64206171D01*
X187633453Y-64216701D01*
X187624353Y-64279999D01*
X187644834Y-64422454D01*
X187704623Y-64553373D01*
X187771749Y-64630841D01*
X187789634Y-64684579D01*
X187764282Y-64735226D01*
X187715823Y-64753300D01*
X187309766Y-64753300D01*
X187257440Y-64731626D01*
X187245681Y-64716301D01*
X187240504Y-64707335D01*
X187142664Y-64609495D01*
X187022835Y-64540312D01*
X187022830Y-64540310D01*
X186889184Y-64504500D01*
X186889182Y-64504500D01*
X185750818Y-64504500D01*
X185750816Y-64504500D01*
X185617169Y-64540310D01*
X185617164Y-64540312D01*
X185497335Y-64609495D01*
X185399495Y-64707335D01*
X185394319Y-64716301D01*
X185349386Y-64750779D01*
X185330234Y-64753300D01*
X185195265Y-64753300D01*
X185142939Y-64731626D01*
X184627739Y-64216426D01*
X184109898Y-63698585D01*
X184084660Y-63684013D01*
X184046809Y-63662159D01*
X184046803Y-63662156D01*
X183993342Y-63647832D01*
X183948408Y-63613353D01*
X183942114Y-63599216D01*
X183940644Y-63594691D01*
X183901824Y-63518504D01*
X183883050Y-63481658D01*
X183793342Y-63391950D01*
X183680304Y-63334354D01*
X183680302Y-63334353D01*
X183680301Y-63334353D01*
X183586519Y-63319500D01*
X182973480Y-63319500D01*
X182879695Y-63334353D01*
X182879693Y-63334354D01*
X182766657Y-63391950D01*
X182676951Y-63481656D01*
X182619353Y-63594698D01*
X182604500Y-63688480D01*
X182604500Y-64151519D01*
X181750500Y-64151519D01*
X181750500Y-58766428D01*
X181943300Y-58766428D01*
X181962156Y-58836803D01*
X181962159Y-58836809D01*
X181971472Y-58852939D01*
X181998585Y-58899898D01*
X182760102Y-59661415D01*
X182823197Y-59697844D01*
X182893572Y-59716700D01*
X182893573Y-59716700D01*
X184876427Y-59716700D01*
X184876428Y-59716700D01*
X184946803Y-59697844D01*
X185009898Y-59661415D01*
X185831313Y-58840000D01*
X191494353Y-58840000D01*
X191514834Y-58982454D01*
X191574623Y-59113373D01*
X191668868Y-59222139D01*
X191668869Y-59222140D01*
X191668872Y-59222143D01*
X191789947Y-59299953D01*
X191896403Y-59331211D01*
X191928035Y-59340499D01*
X191928037Y-59340500D01*
X191928039Y-59340500D01*
X192071963Y-59340500D01*
X192071964Y-59340499D01*
X192210053Y-59299953D01*
X192331128Y-59222143D01*
X192425377Y-59113373D01*
X192485165Y-58982457D01*
X192505647Y-58840000D01*
X192496545Y-58776700D01*
X192510551Y-58721825D01*
X192517459Y-58713853D01*
X192842939Y-58388374D01*
X192895265Y-58366700D01*
X192964182Y-58366700D01*
X193016508Y-58388374D01*
X193037271Y-58429123D01*
X193040280Y-58448122D01*
X193040282Y-58448128D01*
X193100659Y-58566626D01*
X193101472Y-58568220D01*
X193196780Y-58663528D01*
X193316874Y-58724719D01*
X193416511Y-58740500D01*
X193416512Y-58740500D01*
X193983489Y-58740500D01*
X194050452Y-58729894D01*
X194083126Y-58724719D01*
X194203220Y-58663528D01*
X194298528Y-58568220D01*
X194359719Y-58448126D01*
X194364312Y-58419124D01*
X194393904Y-58370833D01*
X194437401Y-58356700D01*
X194933106Y-58356700D01*
X194985432Y-58378374D01*
X194999587Y-58398200D01*
X195018301Y-58436482D01*
X195018302Y-58436483D01*
X195101017Y-58519198D01*
X195206107Y-58570573D01*
X195274240Y-58580500D01*
X195274246Y-58580500D01*
X196365754Y-58580500D01*
X196365760Y-58580500D01*
X196433893Y-58570573D01*
X196538983Y-58519198D01*
X196621698Y-58436483D01*
X196673073Y-58331393D01*
X196683000Y-58263260D01*
X196683000Y-57896740D01*
X196673073Y-57828607D01*
X196621698Y-57723517D01*
X196538983Y-57640802D01*
X196538982Y-57640801D01*
X196433894Y-57589427D01*
X196365764Y-57579500D01*
X196365760Y-57579500D01*
X195579311Y-57579500D01*
X195560160Y-57576979D01*
X195546428Y-57573300D01*
X195473572Y-57573300D01*
X195459840Y-57576979D01*
X195440689Y-57579500D01*
X195274235Y-57579500D01*
X195206106Y-57589427D01*
X195206105Y-57589427D01*
X195101017Y-57640801D01*
X195018301Y-57723517D01*
X194999587Y-57761800D01*
X194957135Y-57799290D01*
X194933106Y-57803300D01*
X194434234Y-57803300D01*
X194381908Y-57781626D01*
X194361145Y-57740876D01*
X194359719Y-57731877D01*
X194359719Y-57731874D01*
X194298528Y-57611780D01*
X194234196Y-57547448D01*
X194212522Y-57495122D01*
X194234196Y-57442796D01*
X194255251Y-57428054D01*
X194258483Y-57426546D01*
X194402731Y-57337573D01*
X194522573Y-57217731D01*
X194611547Y-57073482D01*
X194664855Y-56912608D01*
X194674999Y-56813311D01*
X194675000Y-56813309D01*
X194675000Y-56790000D01*
X192725001Y-56790000D01*
X192725001Y-56813312D01*
X192735144Y-56912608D01*
X192788452Y-57073482D01*
X192877426Y-57217731D01*
X192997268Y-57337573D01*
X193141522Y-57426550D01*
X193144751Y-57428056D01*
X193183015Y-57469813D01*
X193180543Y-57526396D01*
X193165803Y-57547448D01*
X193101471Y-57611780D01*
X193040282Y-57731871D01*
X193040280Y-57731877D01*
X193037271Y-57750877D01*
X193007678Y-57799168D01*
X192964182Y-57813300D01*
X192786428Y-57813300D01*
X192713572Y-57813300D01*
X192680519Y-57822156D01*
X192643196Y-57832156D01*
X192643190Y-57832159D01*
X192580105Y-57868583D01*
X192580103Y-57868584D01*
X192130699Y-58317987D01*
X192078373Y-58339661D01*
X192076122Y-58339500D01*
X192071961Y-58339500D01*
X191928039Y-58339500D01*
X191928036Y-58339500D01*
X191789949Y-58380046D01*
X191789945Y-58380047D01*
X191668875Y-58457855D01*
X191668868Y-58457860D01*
X191574623Y-58566626D01*
X191514834Y-58697545D01*
X191494353Y-58840000D01*
X185831313Y-58840000D01*
X185941415Y-58729898D01*
X185977844Y-58666803D01*
X185996700Y-58596428D01*
X185996700Y-58523572D01*
X185996700Y-58498502D01*
X186018374Y-58446176D01*
X186070700Y-58424502D01*
X186400146Y-58424502D01*
X186400148Y-58424502D01*
X186458631Y-58412869D01*
X186524952Y-58368554D01*
X186569267Y-58302233D01*
X186580900Y-58243750D01*
X187449900Y-58243750D01*
X187453781Y-58263260D01*
X187461533Y-58302234D01*
X187472191Y-58318184D01*
X187505848Y-58368554D01*
X187549960Y-58398029D01*
X187572167Y-58412868D01*
X187572168Y-58412868D01*
X187572169Y-58412869D01*
X187630652Y-58424502D01*
X187630654Y-58424502D01*
X188990946Y-58424502D01*
X188990948Y-58424502D01*
X189049431Y-58412869D01*
X189115752Y-58368554D01*
X189160067Y-58302233D01*
X189171700Y-58243750D01*
X189171700Y-57880000D01*
X189665001Y-57880000D01*
X189665001Y-57903312D01*
X189675144Y-58002608D01*
X189728452Y-58163482D01*
X189817426Y-58307731D01*
X189937268Y-58427573D01*
X190081517Y-58516547D01*
X190242391Y-58569855D01*
X190341689Y-58579999D01*
X190341690Y-58579999D01*
X190389999Y-58579998D01*
X190390000Y-58579998D01*
X190390000Y-57880000D01*
X190890000Y-57880000D01*
X190890000Y-58579999D01*
X190938307Y-58579999D01*
X190938312Y-58579998D01*
X191037608Y-58569855D01*
X191198482Y-58516547D01*
X191342731Y-58427573D01*
X191462573Y-58307731D01*
X191551547Y-58163482D01*
X191604855Y-58002608D01*
X191614999Y-57903311D01*
X191615000Y-57903309D01*
X191615000Y-57880000D01*
X190890000Y-57880000D01*
X190390000Y-57880000D01*
X189665001Y-57880000D01*
X189171700Y-57880000D01*
X189171700Y-57696254D01*
X189160067Y-57637771D01*
X189115752Y-57571450D01*
X189079831Y-57547448D01*
X189049432Y-57527135D01*
X189049433Y-57527135D01*
X189020189Y-57521318D01*
X188990948Y-57515502D01*
X187630652Y-57515502D01*
X187601410Y-57521318D01*
X187572167Y-57527135D01*
X187505849Y-57571449D01*
X187505847Y-57571451D01*
X187461533Y-57637769D01*
X187461533Y-57637771D01*
X187449900Y-57696254D01*
X187449900Y-58243750D01*
X186580900Y-58243750D01*
X186580900Y-57783969D01*
X186602574Y-57731643D01*
X186619442Y-57719017D01*
X186622491Y-57717352D01*
X186737588Y-57631189D01*
X186823753Y-57516089D01*
X186823754Y-57516088D01*
X186873996Y-57381381D01*
X186873997Y-57381376D01*
X186880400Y-57321829D01*
X186880400Y-57270001D01*
X184559599Y-57270001D01*
X184538895Y-57290705D01*
X184486569Y-57312378D01*
X184434243Y-57290703D01*
X184416326Y-57261654D01*
X184371547Y-57126517D01*
X184282573Y-56982268D01*
X184162731Y-56862426D01*
X184018484Y-56773454D01*
X184015243Y-56771942D01*
X183976983Y-56730181D01*
X183979457Y-56673598D01*
X183994193Y-56652554D01*
X184058528Y-56588220D01*
X184119719Y-56468126D01*
X184126658Y-56424312D01*
X184129064Y-56409124D01*
X184158657Y-56360833D01*
X184202153Y-56346700D01*
X184601073Y-56346700D01*
X184653399Y-56368374D01*
X184675073Y-56420700D01*
X184660313Y-56465047D01*
X184616246Y-56523912D01*
X184616245Y-56523913D01*
X184566003Y-56658620D01*
X184566002Y-56658625D01*
X184559600Y-56718172D01*
X184559600Y-56770001D01*
X186880400Y-56770001D01*
X186880400Y-56718172D01*
X186873997Y-56658625D01*
X186873996Y-56658620D01*
X186823754Y-56523913D01*
X186823753Y-56523912D01*
X186737588Y-56408812D01*
X186650674Y-56343748D01*
X187449900Y-56343748D01*
X187458444Y-56386700D01*
X187461533Y-56402231D01*
X187461533Y-56402232D01*
X187485329Y-56437844D01*
X187505848Y-56468552D01*
X187549960Y-56498027D01*
X187572167Y-56512866D01*
X187572168Y-56512866D01*
X187572169Y-56512867D01*
X187630652Y-56524500D01*
X187630654Y-56524500D01*
X188990946Y-56524500D01*
X188990948Y-56524500D01*
X189049431Y-56512867D01*
X189115752Y-56468552D01*
X189160067Y-56402231D01*
X189160067Y-56402228D01*
X189162855Y-56395500D01*
X189165675Y-56396668D01*
X189190734Y-56359169D01*
X189231843Y-56346700D01*
X189902599Y-56346700D01*
X189954925Y-56368374D01*
X189975688Y-56409125D01*
X189980280Y-56438126D01*
X189980281Y-56438127D01*
X189995567Y-56468126D01*
X190041471Y-56558219D01*
X190041473Y-56558221D01*
X190105803Y-56622551D01*
X190127477Y-56674877D01*
X190105803Y-56727203D01*
X190084759Y-56741940D01*
X190081520Y-56743450D01*
X189937268Y-56832426D01*
X189817426Y-56952268D01*
X189728452Y-57096517D01*
X189675144Y-57257391D01*
X189665000Y-57356688D01*
X189665000Y-57380000D01*
X191614999Y-57380000D01*
X191614999Y-57356693D01*
X191614998Y-57356687D01*
X191604855Y-57257391D01*
X191551547Y-57096517D01*
X191462573Y-56952268D01*
X191342731Y-56832426D01*
X191198484Y-56743454D01*
X191195243Y-56741942D01*
X191156983Y-56700181D01*
X191159457Y-56643598D01*
X191174193Y-56622554D01*
X191238528Y-56558220D01*
X191299719Y-56438126D01*
X191315500Y-56338488D01*
X191315500Y-56290000D01*
X192725000Y-56290000D01*
X193450000Y-56290000D01*
X193450000Y-55590000D01*
X193950000Y-55590000D01*
X193950000Y-56290000D01*
X194674999Y-56290000D01*
X194674999Y-56266693D01*
X194674998Y-56266687D01*
X194664855Y-56167391D01*
X194611547Y-56006517D01*
X194522573Y-55862268D01*
X194402731Y-55742426D01*
X194258482Y-55653452D01*
X194097608Y-55600144D01*
X193998311Y-55590000D01*
X193950000Y-55590000D01*
X193450000Y-55590000D01*
X193449999Y-55589999D01*
X193401692Y-55590000D01*
X193401686Y-55590001D01*
X193302391Y-55600144D01*
X193141517Y-55653452D01*
X192997268Y-55742426D01*
X192877426Y-55862268D01*
X192788452Y-56006517D01*
X192735144Y-56167391D01*
X192725000Y-56266688D01*
X192725000Y-56290000D01*
X191315500Y-56290000D01*
X191315500Y-55821512D01*
X191311499Y-55796253D01*
X191299719Y-55721874D01*
X191299718Y-55721873D01*
X191274025Y-55671448D01*
X191238528Y-55601780D01*
X191166356Y-55529608D01*
X191144682Y-55477282D01*
X191166356Y-55424956D01*
X191238122Y-55353190D01*
X191329300Y-55262011D01*
X191381625Y-55240338D01*
X191383878Y-55240500D01*
X191388039Y-55240500D01*
X191531963Y-55240500D01*
X191531964Y-55240499D01*
X191670053Y-55199953D01*
X191791128Y-55122143D01*
X191885377Y-55013373D01*
X191945165Y-54882457D01*
X191965647Y-54740000D01*
X191945165Y-54597543D01*
X191885377Y-54466627D01*
X191861814Y-54439434D01*
X191791131Y-54357860D01*
X191791129Y-54357859D01*
X191791128Y-54357857D01*
X191734182Y-54321260D01*
X191670054Y-54280047D01*
X191670050Y-54280046D01*
X191531964Y-54239500D01*
X191531961Y-54239500D01*
X191388039Y-54239500D01*
X191388036Y-54239500D01*
X191249949Y-54280046D01*
X191249945Y-54280047D01*
X191128875Y-54357855D01*
X191128868Y-54357860D01*
X191034623Y-54466626D01*
X190974834Y-54597545D01*
X190954353Y-54740000D01*
X190963453Y-54803296D01*
X190949446Y-54858174D01*
X190942532Y-54866153D01*
X190418584Y-55390103D01*
X190418582Y-55390105D01*
X190417173Y-55392547D01*
X190416045Y-55393411D01*
X190415632Y-55393951D01*
X190415487Y-55393840D01*
X190372236Y-55427021D01*
X190358900Y-55429312D01*
X190356510Y-55429500D01*
X190256874Y-55445280D01*
X190256873Y-55445281D01*
X190136780Y-55506471D01*
X190041471Y-55601780D01*
X189980282Y-55721871D01*
X189980280Y-55721877D01*
X189978855Y-55730876D01*
X189949262Y-55779167D01*
X189905766Y-55793300D01*
X189231843Y-55793300D01*
X189179517Y-55771626D01*
X189164625Y-55743766D01*
X189162855Y-55744500D01*
X189160066Y-55737767D01*
X189121132Y-55679500D01*
X189115752Y-55671448D01*
X189056383Y-55631778D01*
X189049432Y-55627133D01*
X189049433Y-55627133D01*
X189020189Y-55621316D01*
X188990948Y-55615500D01*
X187630652Y-55615500D01*
X187601410Y-55621316D01*
X187572167Y-55627133D01*
X187505849Y-55671447D01*
X187505847Y-55671449D01*
X187461533Y-55737767D01*
X187458524Y-55752896D01*
X187449900Y-55796252D01*
X187449900Y-56343748D01*
X186650674Y-56343748D01*
X186622487Y-56322647D01*
X186619435Y-56320980D01*
X186583897Y-56276880D01*
X186580900Y-56256032D01*
X186580900Y-56036352D01*
X186585843Y-56011500D01*
X186585788Y-56011486D01*
X186586016Y-56010632D01*
X186586534Y-56008032D01*
X186587042Y-56006805D01*
X186587042Y-56006803D01*
X186587044Y-56006801D01*
X186605900Y-55936426D01*
X186605900Y-55863570D01*
X186587044Y-55793195D01*
X186582851Y-55785932D01*
X186574359Y-55763369D01*
X186572073Y-55751877D01*
X186569267Y-55737769D01*
X186558645Y-55721873D01*
X186530332Y-55679500D01*
X186524952Y-55671448D01*
X186465583Y-55631778D01*
X186458632Y-55627133D01*
X186458633Y-55627133D01*
X186429389Y-55621316D01*
X186400148Y-55615500D01*
X186400146Y-55615500D01*
X186134465Y-55615500D01*
X186082139Y-55593826D01*
X186060465Y-55541500D01*
X186082139Y-55489174D01*
X186449174Y-55122139D01*
X187601415Y-53969898D01*
X187637844Y-53906802D01*
X187656700Y-53836428D01*
X187656700Y-53763572D01*
X187656700Y-53384500D01*
X187678374Y-53332174D01*
X187730700Y-53310500D01*
X188249746Y-53310500D01*
X188249748Y-53310500D01*
X188308231Y-53298867D01*
X188374552Y-53254552D01*
X188418867Y-53188231D01*
X188430500Y-53129748D01*
X188430500Y-52419331D01*
X188452174Y-52367005D01*
X188504500Y-52345331D01*
X188556826Y-52367005D01*
X188578218Y-52412882D01*
X188585430Y-52495317D01*
X188585431Y-52495325D01*
X188646566Y-52723483D01*
X188646571Y-52723494D01*
X188746401Y-52937579D01*
X188881888Y-53131075D01*
X189048924Y-53298111D01*
X189242420Y-53433598D01*
X189456505Y-53533428D01*
X189456508Y-53533430D01*
X189670000Y-53590634D01*
X189670000Y-52693012D01*
X189727007Y-52725925D01*
X189854174Y-52760000D01*
X189985826Y-52760000D01*
X190112993Y-52725925D01*
X190170000Y-52693012D01*
X190170000Y-53590634D01*
X190383491Y-53533430D01*
X190383494Y-53533428D01*
X190597579Y-53433598D01*
X190791075Y-53298111D01*
X190958111Y-53131075D01*
X191093598Y-52937579D01*
X191193428Y-52723494D01*
X191193433Y-52723483D01*
X191254568Y-52495325D01*
X191254569Y-52495318D01*
X191266604Y-52357758D01*
X191292755Y-52307520D01*
X191346771Y-52290489D01*
X191397009Y-52316640D01*
X191413966Y-52356953D01*
X191424700Y-52465935D01*
X191446166Y-52536700D01*
X191484768Y-52663954D01*
X191582315Y-52846450D01*
X191713590Y-53006410D01*
X191873550Y-53137685D01*
X192056046Y-53235232D01*
X192130781Y-53257902D01*
X192174562Y-53293831D01*
X192183300Y-53328715D01*
X192183300Y-53366428D01*
X192202156Y-53436803D01*
X192238585Y-53499898D01*
X193158585Y-54419898D01*
X193158584Y-54419898D01*
X193205313Y-54466626D01*
X193210102Y-54471415D01*
X193273198Y-54507844D01*
X193343572Y-54526700D01*
X194564735Y-54526700D01*
X194617061Y-54548374D01*
X195521626Y-55452939D01*
X195543300Y-55505265D01*
X195543300Y-55605500D01*
X195521626Y-55657826D01*
X195469300Y-55679500D01*
X195274235Y-55679500D01*
X195206106Y-55689427D01*
X195206105Y-55689427D01*
X195101017Y-55740801D01*
X195018301Y-55823517D01*
X194966927Y-55928605D01*
X194966927Y-55928606D01*
X194957000Y-55996735D01*
X194957000Y-56363264D01*
X194966927Y-56431393D01*
X194966927Y-56431394D01*
X195018301Y-56536482D01*
X195018302Y-56536483D01*
X195101017Y-56619198D01*
X195206107Y-56670573D01*
X195274240Y-56680500D01*
X195274246Y-56680500D01*
X196365754Y-56680500D01*
X196365760Y-56680500D01*
X196433893Y-56670573D01*
X196538983Y-56619198D01*
X196621698Y-56536483D01*
X196673073Y-56431393D01*
X196683000Y-56363260D01*
X196683000Y-55996740D01*
X196673073Y-55928607D01*
X196621698Y-55823517D01*
X196538983Y-55740802D01*
X196538982Y-55740801D01*
X196433894Y-55689427D01*
X196365764Y-55679500D01*
X196365760Y-55679500D01*
X196170700Y-55679500D01*
X196118374Y-55657826D01*
X196096700Y-55605500D01*
X196096700Y-55323571D01*
X196085910Y-55283299D01*
X196085910Y-55283298D01*
X196077845Y-55253200D01*
X196077842Y-55253193D01*
X196065634Y-55232050D01*
X196041415Y-55190102D01*
X194879898Y-54028585D01*
X194854660Y-54014013D01*
X194816809Y-53992159D01*
X194816803Y-53992156D01*
X194746428Y-53973300D01*
X194746427Y-53973300D01*
X193525265Y-53973300D01*
X193472939Y-53951626D01*
X192864511Y-53343198D01*
X192842837Y-53290872D01*
X192864511Y-53238546D01*
X192881950Y-53225612D01*
X193046450Y-53137685D01*
X193206410Y-53006410D01*
X193337685Y-52846450D01*
X193435232Y-52663954D01*
X193495300Y-52465934D01*
X193515583Y-52260000D01*
X193944417Y-52260000D01*
X193964700Y-52465935D01*
X193986166Y-52536700D01*
X194024768Y-52663954D01*
X194122315Y-52846450D01*
X194253590Y-53006410D01*
X194413550Y-53137685D01*
X194596046Y-53235232D01*
X194794066Y-53295300D01*
X195000000Y-53315583D01*
X195205934Y-53295300D01*
X195403954Y-53235232D01*
X195586450Y-53137685D01*
X195746410Y-53006410D01*
X195877685Y-52846450D01*
X195975232Y-52663954D01*
X195997902Y-52589217D01*
X196033833Y-52545438D01*
X196068716Y-52536700D01*
X198374735Y-52536700D01*
X198427061Y-52558374D01*
X200101626Y-54232939D01*
X200123300Y-54285265D01*
X200123300Y-54701575D01*
X200101626Y-54753901D01*
X200060876Y-54774664D01*
X199999695Y-54784354D01*
X199999693Y-54784354D01*
X199886657Y-54841950D01*
X199796951Y-54931656D01*
X199739353Y-55044698D01*
X199731721Y-55092883D01*
X199702127Y-55141173D01*
X199695638Y-55145387D01*
X199690107Y-55148580D01*
X199690102Y-55148584D01*
X199007830Y-55830856D01*
X198955504Y-55852530D01*
X198903178Y-55830856D01*
X198898425Y-55825244D01*
X198813982Y-55740801D01*
X198708894Y-55689427D01*
X198640764Y-55679500D01*
X198640760Y-55679500D01*
X197549240Y-55679500D01*
X197549235Y-55679500D01*
X197481106Y-55689427D01*
X197481105Y-55689427D01*
X197376017Y-55740801D01*
X197293301Y-55823517D01*
X197241927Y-55928605D01*
X197241927Y-55928606D01*
X197232000Y-55996735D01*
X197232000Y-56363253D01*
X197232001Y-56363274D01*
X197234082Y-56377559D01*
X197220176Y-56432462D01*
X197198526Y-56451918D01*
X197180944Y-56462316D01*
X197064817Y-56578443D01*
X196981218Y-56719800D01*
X196935400Y-56877506D01*
X196935204Y-56880000D01*
X199254796Y-56880000D01*
X199254599Y-56877506D01*
X199223366Y-56770000D01*
X199425000Y-56770000D01*
X200150000Y-56770000D01*
X200150000Y-56120000D01*
X200068429Y-56120000D01*
X200068416Y-56120001D01*
X199997897Y-56126408D01*
X199997893Y-56126409D01*
X199835606Y-56176979D01*
X199690125Y-56264925D01*
X199569925Y-56385125D01*
X199481979Y-56530606D01*
X199431410Y-56692890D01*
X199431408Y-56692900D01*
X199425000Y-56763417D01*
X199425000Y-56770000D01*
X199223366Y-56770000D01*
X199208781Y-56719800D01*
X199125182Y-56578443D01*
X199111608Y-56564869D01*
X199089934Y-56512543D01*
X199111608Y-56460217D01*
X199144781Y-56441065D01*
X199156803Y-56437844D01*
X199219898Y-56401415D01*
X199752634Y-55868677D01*
X199804960Y-55847004D01*
X199857286Y-55868678D01*
X199886658Y-55898050D01*
X199999696Y-55955646D01*
X200093481Y-55970500D01*
X200706518Y-55970499D01*
X200706519Y-55970499D01*
X200800304Y-55955646D01*
X200800306Y-55955645D01*
X200838025Y-55936426D01*
X200913342Y-55898050D01*
X201003050Y-55808342D01*
X201060646Y-55695304D01*
X201075500Y-55601519D01*
X201075499Y-55138482D01*
X201072911Y-55122143D01*
X201060646Y-55044695D01*
X201060645Y-55044693D01*
X201003049Y-54931657D01*
X200913343Y-54841951D01*
X200913342Y-54841950D01*
X200800304Y-54784354D01*
X200800302Y-54784353D01*
X200800301Y-54784353D01*
X200739124Y-54774664D01*
X200690833Y-54745071D01*
X200676700Y-54701575D01*
X200676700Y-54103573D01*
X200676700Y-54103572D01*
X200657844Y-54033198D01*
X200621415Y-53970102D01*
X200602939Y-53951626D01*
X200569898Y-53918584D01*
X200569898Y-53918585D01*
X198689898Y-52038585D01*
X198664660Y-52024013D01*
X198626809Y-52002159D01*
X198626803Y-52002156D01*
X198556428Y-51983300D01*
X198556427Y-51983300D01*
X196068716Y-51983300D01*
X196016390Y-51961626D01*
X195997903Y-51930782D01*
X195975232Y-51856046D01*
X195877685Y-51673550D01*
X195746410Y-51513590D01*
X195586450Y-51382315D01*
X195403954Y-51284768D01*
X195292158Y-51250855D01*
X195205935Y-51224700D01*
X195000000Y-51204417D01*
X194794064Y-51224700D01*
X194596043Y-51284769D01*
X194413549Y-51382315D01*
X194253590Y-51513589D01*
X194253589Y-51513590D01*
X194122315Y-51673549D01*
X194024769Y-51856043D01*
X193964700Y-52054064D01*
X193944417Y-52260000D01*
X193515583Y-52260000D01*
X193495300Y-52054066D01*
X193435232Y-51856046D01*
X193337685Y-51673550D01*
X193206410Y-51513590D01*
X193046450Y-51382315D01*
X192863954Y-51284768D01*
X192752158Y-51250855D01*
X192665935Y-51224700D01*
X192460000Y-51204417D01*
X192254064Y-51224700D01*
X192056043Y-51284769D01*
X191873549Y-51382315D01*
X191713590Y-51513589D01*
X191713589Y-51513590D01*
X191582315Y-51673549D01*
X191484769Y-51856043D01*
X191424700Y-52054064D01*
X191413966Y-52163046D01*
X191387267Y-52212995D01*
X191333068Y-52229436D01*
X191283119Y-52202737D01*
X191266604Y-52162241D01*
X191254569Y-52024681D01*
X191254568Y-52024674D01*
X191193433Y-51796516D01*
X191193428Y-51796505D01*
X191093598Y-51582421D01*
X190958109Y-51388921D01*
X190791075Y-51221888D01*
X190791076Y-51221888D01*
X190597579Y-51086401D01*
X190383494Y-50986571D01*
X190383483Y-50986566D01*
X190170000Y-50929363D01*
X190170000Y-51826988D01*
X190112993Y-51794075D01*
X189985826Y-51760000D01*
X189854174Y-51760000D01*
X189727007Y-51794075D01*
X189670000Y-51826988D01*
X189670000Y-50929363D01*
X189669999Y-50929363D01*
X189456512Y-50986567D01*
X189242421Y-51086401D01*
X189048921Y-51221890D01*
X188881890Y-51388921D01*
X188746401Y-51582421D01*
X188646571Y-51796505D01*
X188646566Y-51796516D01*
X188585431Y-52024674D01*
X188585430Y-52024681D01*
X188578218Y-52107118D01*
X188552066Y-52157355D01*
X188498050Y-52174386D01*
X188447813Y-52148234D01*
X188430500Y-52100668D01*
X188430500Y-51390253D01*
X188428921Y-51382315D01*
X188418867Y-51331769D01*
X188374552Y-51265448D01*
X188352343Y-51250608D01*
X188308232Y-51221133D01*
X188308233Y-51221133D01*
X188278989Y-51215316D01*
X188249748Y-51209500D01*
X186510252Y-51209500D01*
X186481010Y-51215316D01*
X186451767Y-51221133D01*
X186385449Y-51265447D01*
X186385447Y-51265449D01*
X186341133Y-51331767D01*
X186329500Y-51390253D01*
X186329500Y-53129746D01*
X186341133Y-53188232D01*
X186366109Y-53225610D01*
X186385448Y-53254552D01*
X186393946Y-53260230D01*
X186451767Y-53298866D01*
X186451768Y-53298866D01*
X186451769Y-53298867D01*
X186510252Y-53310500D01*
X187029300Y-53310500D01*
X187081626Y-53332174D01*
X187103300Y-53384500D01*
X187103300Y-53654735D01*
X187081626Y-53707061D01*
X185498584Y-55290103D01*
X185498583Y-55290105D01*
X185462159Y-55353190D01*
X185462156Y-55353196D01*
X185443300Y-55423573D01*
X185443300Y-55541500D01*
X185421626Y-55593826D01*
X185369300Y-55615500D01*
X185039852Y-55615500D01*
X185010610Y-55621316D01*
X184981367Y-55627133D01*
X184915049Y-55671447D01*
X184915047Y-55671449D01*
X184870733Y-55737767D01*
X184867945Y-55744500D01*
X184865124Y-55743331D01*
X184840066Y-55780831D01*
X184798957Y-55793300D01*
X184186174Y-55793300D01*
X184133848Y-55771626D01*
X184120240Y-55752896D01*
X184090895Y-55695304D01*
X184058528Y-55631780D01*
X183963220Y-55536472D01*
X183963219Y-55536471D01*
X183843126Y-55475281D01*
X183843125Y-55475280D01*
X183743489Y-55459500D01*
X183743488Y-55459500D01*
X183176512Y-55459500D01*
X183176511Y-55459500D01*
X183076874Y-55475280D01*
X183076873Y-55475281D01*
X182956780Y-55536471D01*
X182861471Y-55631780D01*
X182800282Y-55751871D01*
X182800280Y-55751877D01*
X182797271Y-55770877D01*
X182767678Y-55819168D01*
X182724182Y-55833300D01*
X182626428Y-55833300D01*
X182553572Y-55833300D01*
X182518384Y-55842728D01*
X182483196Y-55852156D01*
X182483190Y-55852159D01*
X182420105Y-55888583D01*
X182420103Y-55888584D01*
X181998584Y-56310103D01*
X181998583Y-56310105D01*
X181962155Y-56373197D01*
X181954595Y-56401416D01*
X181954377Y-56402231D01*
X181943300Y-56443572D01*
X181943300Y-58693572D01*
X181943300Y-58766428D01*
X181750500Y-58766428D01*
X181750500Y-50644500D01*
X181772174Y-50592174D01*
X181824500Y-50570500D01*
X201295500Y-50570500D01*
X201347826Y-50592174D01*
G37*
G04 #@! TD.AperFunction*
M02*
