G04 #@! TF.GenerationSoftware,KiCad,Pcbnew,8.0.1*
G04 #@! TF.CreationDate,2025-02-25T21:17:40-07:00*
G04 #@! TF.ProjectId,IRRemote,49525265-6d6f-4746-952e-6b696361645f,rev?*
G04 #@! TF.SameCoordinates,Original*
G04 #@! TF.FileFunction,Legend,Top*
G04 #@! TF.FilePolarity,Positive*
%FSLAX46Y46*%
G04 Gerber Fmt 4.6, Leading zero omitted, Abs format (unit mm)*
G04 Created by KiCad (PCBNEW 8.0.1) date 2025-02-25 21:17:40*
%MOMM*%
%LPD*%
G01*
G04 APERTURE LIST*
G04 Aperture macros list*
%AMRoundRect*
0 Rectangle with rounded corners*
0 $1 Rounding radius*
0 $2 $3 $4 $5 $6 $7 $8 $9 X,Y pos of 4 corners*
0 Add a 4 corners polygon primitive as box body*
4,1,4,$2,$3,$4,$5,$6,$7,$8,$9,$2,$3,0*
0 Add four circle primitives for the rounded corners*
1,1,$1+$1,$2,$3*
1,1,$1+$1,$4,$5*
1,1,$1+$1,$6,$7*
1,1,$1+$1,$8,$9*
0 Add four rect primitives between the rounded corners*
20,1,$1+$1,$2,$3,$4,$5,0*
20,1,$1+$1,$4,$5,$6,$7,0*
20,1,$1+$1,$6,$7,$8,$9,0*
20,1,$1+$1,$8,$9,$2,$3,0*%
G04 Aperture macros list end*
%ADD10C,0.150000*%
%ADD11C,0.120000*%
%ADD12R,1.700000X1.700000*%
%ADD13O,1.700000X1.700000*%
%ADD14RoundRect,0.225000X-0.250000X0.225000X-0.250000X-0.225000X0.250000X-0.225000X0.250000X0.225000X0*%
%ADD15C,2.500000*%
%ADD16RoundRect,0.187500X-0.562500X-0.862500X0.562500X-0.862500X0.562500X0.862500X-0.562500X0.862500X0*%
%ADD17RoundRect,0.162500X-0.587500X-0.487500X0.587500X-0.487500X0.587500X0.487500X-0.587500X0.487500X0*%
%ADD18RoundRect,0.175000X-0.525000X-0.825000X0.525000X-0.825000X0.525000X0.825000X-0.525000X0.825000X0*%
%ADD19RoundRect,0.150000X-0.550000X-0.450000X0.550000X-0.450000X0.550000X0.450000X-0.550000X0.450000X0*%
%ADD20RoundRect,0.225000X0.250000X-0.225000X0.250000X0.225000X-0.250000X0.225000X-0.250000X-0.225000X0*%
%ADD21R,1.700000X0.650000*%
%ADD22RoundRect,0.200000X0.275000X-0.200000X0.275000X0.200000X-0.275000X0.200000X-0.275000X-0.200000X0*%
G04 APERTURE END LIST*
D10*
X143756667Y-78476104D02*
X143718571Y-78514200D01*
X143718571Y-78514200D02*
X143604286Y-78552295D01*
X143604286Y-78552295D02*
X143528095Y-78552295D01*
X143528095Y-78552295D02*
X143413809Y-78514200D01*
X143413809Y-78514200D02*
X143337619Y-78438009D01*
X143337619Y-78438009D02*
X143299524Y-78361819D01*
X143299524Y-78361819D02*
X143261428Y-78209438D01*
X143261428Y-78209438D02*
X143261428Y-78095152D01*
X143261428Y-78095152D02*
X143299524Y-77942771D01*
X143299524Y-77942771D02*
X143337619Y-77866580D01*
X143337619Y-77866580D02*
X143413809Y-77790390D01*
X143413809Y-77790390D02*
X143528095Y-77752295D01*
X143528095Y-77752295D02*
X143604286Y-77752295D01*
X143604286Y-77752295D02*
X143718571Y-77790390D01*
X143718571Y-77790390D02*
X143756667Y-77828485D01*
X144023333Y-77752295D02*
X144518571Y-77752295D01*
X144518571Y-77752295D02*
X144251905Y-78057057D01*
X144251905Y-78057057D02*
X144366190Y-78057057D01*
X144366190Y-78057057D02*
X144442381Y-78095152D01*
X144442381Y-78095152D02*
X144480476Y-78133247D01*
X144480476Y-78133247D02*
X144518571Y-78209438D01*
X144518571Y-78209438D02*
X144518571Y-78399914D01*
X144518571Y-78399914D02*
X144480476Y-78476104D01*
X144480476Y-78476104D02*
X144442381Y-78514200D01*
X144442381Y-78514200D02*
X144366190Y-78552295D01*
X144366190Y-78552295D02*
X144137619Y-78552295D01*
X144137619Y-78552295D02*
X144061428Y-78514200D01*
X144061428Y-78514200D02*
X144023333Y-78476104D01*
X134960476Y-65602295D02*
X134960476Y-64802295D01*
X134960476Y-65183247D02*
X135417619Y-65183247D01*
X135417619Y-65602295D02*
X135417619Y-64802295D01*
X136217618Y-65602295D02*
X135760475Y-65602295D01*
X135989047Y-65602295D02*
X135989047Y-64802295D01*
X135989047Y-64802295D02*
X135912856Y-64916580D01*
X135912856Y-64916580D02*
X135836666Y-64992771D01*
X135836666Y-64992771D02*
X135760475Y-65030866D01*
X132949524Y-81672295D02*
X132949524Y-80872295D01*
X132949524Y-80872295D02*
X133140000Y-80872295D01*
X133140000Y-80872295D02*
X133254286Y-80910390D01*
X133254286Y-80910390D02*
X133330476Y-80986580D01*
X133330476Y-80986580D02*
X133368571Y-81062771D01*
X133368571Y-81062771D02*
X133406667Y-81215152D01*
X133406667Y-81215152D02*
X133406667Y-81329438D01*
X133406667Y-81329438D02*
X133368571Y-81481819D01*
X133368571Y-81481819D02*
X133330476Y-81558009D01*
X133330476Y-81558009D02*
X133254286Y-81634200D01*
X133254286Y-81634200D02*
X133140000Y-81672295D01*
X133140000Y-81672295D02*
X132949524Y-81672295D01*
X133711428Y-80948485D02*
X133749524Y-80910390D01*
X133749524Y-80910390D02*
X133825714Y-80872295D01*
X133825714Y-80872295D02*
X134016190Y-80872295D01*
X134016190Y-80872295D02*
X134092381Y-80910390D01*
X134092381Y-80910390D02*
X134130476Y-80948485D01*
X134130476Y-80948485D02*
X134168571Y-81024676D01*
X134168571Y-81024676D02*
X134168571Y-81100866D01*
X134168571Y-81100866D02*
X134130476Y-81215152D01*
X134130476Y-81215152D02*
X133673333Y-81672295D01*
X133673333Y-81672295D02*
X134168571Y-81672295D01*
X142046667Y-68526104D02*
X142008571Y-68564200D01*
X142008571Y-68564200D02*
X141894286Y-68602295D01*
X141894286Y-68602295D02*
X141818095Y-68602295D01*
X141818095Y-68602295D02*
X141703809Y-68564200D01*
X141703809Y-68564200D02*
X141627619Y-68488009D01*
X141627619Y-68488009D02*
X141589524Y-68411819D01*
X141589524Y-68411819D02*
X141551428Y-68259438D01*
X141551428Y-68259438D02*
X141551428Y-68145152D01*
X141551428Y-68145152D02*
X141589524Y-67992771D01*
X141589524Y-67992771D02*
X141627619Y-67916580D01*
X141627619Y-67916580D02*
X141703809Y-67840390D01*
X141703809Y-67840390D02*
X141818095Y-67802295D01*
X141818095Y-67802295D02*
X141894286Y-67802295D01*
X141894286Y-67802295D02*
X142008571Y-67840390D01*
X142008571Y-67840390D02*
X142046667Y-67878485D01*
X142732381Y-67802295D02*
X142580000Y-67802295D01*
X142580000Y-67802295D02*
X142503809Y-67840390D01*
X142503809Y-67840390D02*
X142465714Y-67878485D01*
X142465714Y-67878485D02*
X142389524Y-67992771D01*
X142389524Y-67992771D02*
X142351428Y-68145152D01*
X142351428Y-68145152D02*
X142351428Y-68449914D01*
X142351428Y-68449914D02*
X142389524Y-68526104D01*
X142389524Y-68526104D02*
X142427619Y-68564200D01*
X142427619Y-68564200D02*
X142503809Y-68602295D01*
X142503809Y-68602295D02*
X142656190Y-68602295D01*
X142656190Y-68602295D02*
X142732381Y-68564200D01*
X142732381Y-68564200D02*
X142770476Y-68526104D01*
X142770476Y-68526104D02*
X142808571Y-68449914D01*
X142808571Y-68449914D02*
X142808571Y-68259438D01*
X142808571Y-68259438D02*
X142770476Y-68183247D01*
X142770476Y-68183247D02*
X142732381Y-68145152D01*
X142732381Y-68145152D02*
X142656190Y-68107057D01*
X142656190Y-68107057D02*
X142503809Y-68107057D01*
X142503809Y-68107057D02*
X142427619Y-68145152D01*
X142427619Y-68145152D02*
X142389524Y-68183247D01*
X142389524Y-68183247D02*
X142351428Y-68259438D01*
X140600476Y-65552295D02*
X140600476Y-64752295D01*
X140600476Y-65133247D02*
X141057619Y-65133247D01*
X141057619Y-65552295D02*
X141057619Y-64752295D01*
X141400475Y-64828485D02*
X141438571Y-64790390D01*
X141438571Y-64790390D02*
X141514761Y-64752295D01*
X141514761Y-64752295D02*
X141705237Y-64752295D01*
X141705237Y-64752295D02*
X141781428Y-64790390D01*
X141781428Y-64790390D02*
X141819523Y-64828485D01*
X141819523Y-64828485D02*
X141857618Y-64904676D01*
X141857618Y-64904676D02*
X141857618Y-64980866D01*
X141857618Y-64980866D02*
X141819523Y-65095152D01*
X141819523Y-65095152D02*
X141362380Y-65552295D01*
X141362380Y-65552295D02*
X141857618Y-65552295D01*
X132766667Y-72602295D02*
X132500000Y-72221342D01*
X132309524Y-72602295D02*
X132309524Y-71802295D01*
X132309524Y-71802295D02*
X132614286Y-71802295D01*
X132614286Y-71802295D02*
X132690476Y-71840390D01*
X132690476Y-71840390D02*
X132728571Y-71878485D01*
X132728571Y-71878485D02*
X132766667Y-71954676D01*
X132766667Y-71954676D02*
X132766667Y-72068961D01*
X132766667Y-72068961D02*
X132728571Y-72145152D01*
X132728571Y-72145152D02*
X132690476Y-72183247D01*
X132690476Y-72183247D02*
X132614286Y-72221342D01*
X132614286Y-72221342D02*
X132309524Y-72221342D01*
X133071428Y-71878485D02*
X133109524Y-71840390D01*
X133109524Y-71840390D02*
X133185714Y-71802295D01*
X133185714Y-71802295D02*
X133376190Y-71802295D01*
X133376190Y-71802295D02*
X133452381Y-71840390D01*
X133452381Y-71840390D02*
X133490476Y-71878485D01*
X133490476Y-71878485D02*
X133528571Y-71954676D01*
X133528571Y-71954676D02*
X133528571Y-72030866D01*
X133528571Y-72030866D02*
X133490476Y-72145152D01*
X133490476Y-72145152D02*
X133033333Y-72602295D01*
X133033333Y-72602295D02*
X133528571Y-72602295D01*
D11*
X135750000Y-67950000D02*
X135750000Y-70610000D01*
X138350000Y-67950000D02*
X135750000Y-67950000D01*
X138350000Y-67950000D02*
X138350000Y-70610000D01*
X138350000Y-70610000D02*
X135750000Y-70610000D01*
X139620000Y-67950000D02*
X140950000Y-67950000D01*
X140950000Y-67950000D02*
X140950000Y-69280000D01*
X143200000Y-79964420D02*
X143200000Y-80245580D01*
X144220000Y-79964420D02*
X144220000Y-80245580D01*
X136120000Y-77770000D02*
X136120000Y-78660000D01*
X136120000Y-81370000D02*
X136120000Y-82170000D01*
X136120000Y-82170000D02*
X140920000Y-82170000D01*
X140920000Y-77770000D02*
X136120000Y-77770000D01*
X140920000Y-78660000D02*
X140920000Y-77770000D01*
X140920000Y-82170000D02*
X140920000Y-81370000D01*
X140930000Y-81370000D02*
X142110000Y-81370000D01*
X142110000Y-78660000D02*
X140920000Y-78660000D01*
X143080000Y-70085580D02*
X143080000Y-69804420D01*
X144100000Y-70085580D02*
X144100000Y-69804420D01*
D10*
X135730000Y-72000000D02*
X135730000Y-72205000D01*
X135730000Y-72000000D02*
X141230000Y-72000000D01*
X135730000Y-77510000D02*
X135730000Y-77305000D01*
X135730000Y-77510000D02*
X141230000Y-77510000D01*
X141230000Y-72000000D02*
X141230000Y-72205000D01*
X141230000Y-77510000D02*
X141230000Y-77305000D01*
D11*
X135180000Y-72255000D02*
X134940000Y-71925000D01*
X135420000Y-71925000D01*
X135180000Y-72255000D01*
G36*
X135180000Y-72255000D02*
G01*
X134940000Y-71925000D01*
X135420000Y-71925000D01*
X135180000Y-72255000D01*
G37*
X132787500Y-70212258D02*
X132787500Y-69737742D01*
X133832500Y-70212258D02*
X133832500Y-69737742D01*
%LPC*%
D12*
X139620000Y-69280000D03*
D13*
X137080000Y-69280000D03*
D14*
X143710000Y-79330000D03*
X143710000Y-80880000D03*
D15*
X133620000Y-66340000D03*
D16*
X141570000Y-79970000D03*
D17*
X135470000Y-79970000D03*
D18*
X141570000Y-79970000D03*
D19*
X135470000Y-79970000D03*
D20*
X143590000Y-70720000D03*
X143590000Y-69170000D03*
D15*
X143100000Y-66240000D03*
D21*
X134830000Y-72850000D03*
X134830000Y-74120000D03*
X134830000Y-75390000D03*
X134830000Y-76660000D03*
X142130000Y-76660000D03*
X142130000Y-75390000D03*
X142130000Y-74120000D03*
X142130000Y-72850000D03*
D22*
X133310000Y-70800000D03*
X133310000Y-69150000D03*
%LPD*%
M02*
