G04 #@! TF.GenerationSoftware,KiCad,Pcbnew,8.0.1*
G04 #@! TF.CreationDate,2025-02-25T21:17:40-07:00*
G04 #@! TF.ProjectId,IRRemote,49525265-6d6f-4746-952e-6b696361645f,rev?*
G04 #@! TF.SameCoordinates,Original*
G04 #@! TF.FileFunction,Copper,L1,Top*
G04 #@! TF.FilePolarity,Positive*
%FSLAX46Y46*%
G04 Gerber Fmt 4.6, Leading zero omitted, Abs format (unit mm)*
G04 Created by KiCad (PCBNEW 8.0.1) date 2025-02-25 21:17:40*
%MOMM*%
%LPD*%
G01*
G04 APERTURE LIST*
G04 Aperture macros list*
%AMRoundRect*
0 Rectangle with rounded corners*
0 $1 Rounding radius*
0 $2 $3 $4 $5 $6 $7 $8 $9 X,Y pos of 4 corners*
0 Add a 4 corners polygon primitive as box body*
4,1,4,$2,$3,$4,$5,$6,$7,$8,$9,$2,$3,0*
0 Add four circle primitives for the rounded corners*
1,1,$1+$1,$2,$3*
1,1,$1+$1,$4,$5*
1,1,$1+$1,$6,$7*
1,1,$1+$1,$8,$9*
0 Add four rect primitives between the rounded corners*
20,1,$1+$1,$2,$3,$4,$5,0*
20,1,$1+$1,$4,$5,$6,$7,0*
20,1,$1+$1,$6,$7,$8,$9,0*
20,1,$1+$1,$8,$9,$2,$3,0*%
G04 Aperture macros list end*
G04 #@! TA.AperFunction,ComponentPad*
%ADD10R,1.700000X1.700000*%
G04 #@! TD*
G04 #@! TA.AperFunction,ComponentPad*
%ADD11O,1.700000X1.700000*%
G04 #@! TD*
G04 #@! TA.AperFunction,SMDPad,CuDef*
%ADD12RoundRect,0.225000X-0.250000X0.225000X-0.250000X-0.225000X0.250000X-0.225000X0.250000X0.225000X0*%
G04 #@! TD*
G04 #@! TA.AperFunction,ComponentPad*
%ADD13C,2.500000*%
G04 #@! TD*
G04 #@! TA.AperFunction,SMDPad,CuDef*
%ADD14RoundRect,0.175000X-0.525000X-0.825000X0.525000X-0.825000X0.525000X0.825000X-0.525000X0.825000X0*%
G04 #@! TD*
G04 #@! TA.AperFunction,SMDPad,CuDef*
%ADD15RoundRect,0.150000X-0.550000X-0.450000X0.550000X-0.450000X0.550000X0.450000X-0.550000X0.450000X0*%
G04 #@! TD*
G04 #@! TA.AperFunction,SMDPad,CuDef*
%ADD16RoundRect,0.225000X0.250000X-0.225000X0.250000X0.225000X-0.250000X0.225000X-0.250000X-0.225000X0*%
G04 #@! TD*
G04 #@! TA.AperFunction,SMDPad,CuDef*
%ADD17R,1.700000X0.650000*%
G04 #@! TD*
G04 #@! TA.AperFunction,SMDPad,CuDef*
%ADD18RoundRect,0.200000X0.275000X-0.200000X0.275000X0.200000X-0.275000X0.200000X-0.275000X-0.200000X0*%
G04 #@! TD*
G04 #@! TA.AperFunction,ViaPad*
%ADD19C,0.600000*%
G04 #@! TD*
G04 #@! TA.AperFunction,Conductor*
%ADD20C,0.200000*%
G04 #@! TD*
G04 #@! TA.AperFunction,Conductor*
%ADD21C,0.152400*%
G04 #@! TD*
G04 APERTURE END LIST*
D10*
X139620000Y-69280000D03*
D11*
X137080000Y-69280000D03*
D12*
X143710000Y-79330000D03*
X143710000Y-80880000D03*
D13*
X133620000Y-66340000D03*
D14*
X141570000Y-79970000D03*
D15*
X135470000Y-79970000D03*
D16*
X143590000Y-70720000D03*
X143590000Y-69170000D03*
D13*
X143100000Y-66240000D03*
D17*
X134830000Y-72850000D03*
X134830000Y-74120000D03*
X134830000Y-75390000D03*
X134830000Y-76660000D03*
X142130000Y-76660000D03*
X142130000Y-75390000D03*
X142130000Y-74120000D03*
X142130000Y-72850000D03*
D18*
X133310000Y-70800000D03*
X133310000Y-69150000D03*
D19*
X135100000Y-71120000D03*
X133315000Y-75920000D03*
X141770000Y-71390000D03*
X139210000Y-71360000D03*
X139790000Y-76910000D03*
X140140000Y-81310000D03*
X136620000Y-75450000D03*
X135850000Y-67520000D03*
D20*
X142950000Y-66390000D02*
X143100000Y-66240000D01*
D21*
X139620000Y-68340000D02*
X141720000Y-66240000D01*
X139620000Y-69280000D02*
X139620000Y-68340000D01*
X141720000Y-66240000D02*
X143100000Y-66240000D01*
X140700000Y-72850000D02*
X142130000Y-72850000D01*
X143590000Y-71370000D02*
X143590000Y-70720000D01*
X139210000Y-71360000D02*
X140700000Y-72850000D01*
X142130000Y-72830000D02*
X143590000Y-71370000D01*
X142130000Y-72850000D02*
X142130000Y-72830000D01*
X134500000Y-71990000D02*
X137610000Y-71990000D01*
X137610000Y-71990000D02*
X141010000Y-75390000D01*
X133310000Y-70800000D02*
X134500000Y-71990000D01*
X141010000Y-75390000D02*
X142130000Y-75390000D01*
X140200000Y-76910000D02*
X139790000Y-76910000D01*
X141570000Y-78280000D02*
X140200000Y-76910000D01*
X143710000Y-80880000D02*
X143640000Y-80810000D01*
X143710000Y-80880000D02*
X143230000Y-80880000D01*
X143230000Y-80880000D02*
X142320000Y-79970000D01*
X143530000Y-80700000D02*
X143710000Y-80880000D01*
X142320000Y-79970000D02*
X141570000Y-79970000D01*
X139720000Y-76980000D02*
X139790000Y-76910000D01*
X141570000Y-79970000D02*
X141570000Y-78280000D01*
X139720000Y-80890000D02*
X139720000Y-76980000D01*
X140140000Y-81310000D02*
X139720000Y-80890000D01*
X135780000Y-74120000D02*
X134830000Y-74120000D01*
X136620000Y-75450000D02*
X136620000Y-74960000D01*
X136620000Y-74960000D02*
X135780000Y-74120000D01*
X135840000Y-67520000D02*
X134210000Y-69150000D01*
X135850000Y-67520000D02*
X135840000Y-67520000D01*
X134210000Y-69150000D02*
X133310000Y-69150000D01*
G04 #@! TA.AperFunction,Conductor*
G36*
X141790167Y-64958093D02*
G01*
X141815887Y-65002642D01*
X141806954Y-65053300D01*
X141800623Y-65062586D01*
X141650028Y-65251426D01*
X141650025Y-65251429D01*
X141518885Y-65478569D01*
X141518879Y-65478581D01*
X141423061Y-65722725D01*
X141364694Y-65978442D01*
X141345093Y-66240000D01*
X141364694Y-66501557D01*
X141423061Y-66757274D01*
X141518879Y-67001418D01*
X141518885Y-67001430D01*
X141650025Y-67228570D01*
X141650028Y-67228573D01*
X141697873Y-67288571D01*
X141697874Y-67288572D01*
X142237426Y-66749020D01*
X142323249Y-66877463D01*
X142462537Y-67016751D01*
X142590978Y-67102572D01*
X142050831Y-67642719D01*
X142050831Y-67642722D01*
X142222541Y-67759791D01*
X142222544Y-67759792D01*
X142458861Y-67873597D01*
X142709492Y-67950906D01*
X142709505Y-67950909D01*
X142968858Y-67990000D01*
X143231142Y-67990000D01*
X143490494Y-67950909D01*
X143490507Y-67950906D01*
X143741138Y-67873597D01*
X143977454Y-67759793D01*
X144149167Y-67642721D01*
X144149167Y-67642719D01*
X143609021Y-67102573D01*
X143737463Y-67016751D01*
X143876751Y-66877463D01*
X143962573Y-66749020D01*
X144502124Y-67288571D01*
X144502125Y-67288571D01*
X144549969Y-67228578D01*
X144549971Y-67228574D01*
X144559175Y-67212634D01*
X144598580Y-67179569D01*
X144650020Y-67179569D01*
X144689425Y-67212634D01*
X144699500Y-67250234D01*
X144699500Y-68767887D01*
X144681907Y-68816225D01*
X144637358Y-68841945D01*
X144586700Y-68833012D01*
X144553635Y-68793607D01*
X144552917Y-68791541D01*
X144501545Y-68636513D01*
X144412575Y-68492271D01*
X144412572Y-68492267D01*
X144292732Y-68372427D01*
X144292728Y-68372424D01*
X144148485Y-68283454D01*
X144148486Y-68283454D01*
X143987607Y-68230144D01*
X143987608Y-68230144D01*
X143888309Y-68220000D01*
X143840000Y-68220000D01*
X143840000Y-69344800D01*
X143822407Y-69393138D01*
X143777858Y-69418858D01*
X143764800Y-69420000D01*
X142615001Y-69420000D01*
X142615001Y-69443309D01*
X142625145Y-69542610D01*
X142678454Y-69703486D01*
X142767424Y-69847728D01*
X142767427Y-69847732D01*
X142887267Y-69967572D01*
X142887271Y-69967575D01*
X143031512Y-70056545D01*
X143033192Y-70057328D01*
X143033852Y-70057988D01*
X143035243Y-70058846D01*
X143035039Y-70059175D01*
X143069569Y-70093698D01*
X143074056Y-70144942D01*
X143054592Y-70178659D01*
X142991472Y-70241779D01*
X142930281Y-70361872D01*
X142914500Y-70461509D01*
X142914500Y-70978490D01*
X142930281Y-71078127D01*
X142991473Y-71198222D01*
X143086777Y-71293526D01*
X143086779Y-71293527D01*
X143086780Y-71293528D01*
X143119350Y-71310123D01*
X143154432Y-71347744D01*
X143157124Y-71399113D01*
X143138384Y-71430301D01*
X142266213Y-72302474D01*
X142219593Y-72324214D01*
X142213039Y-72324500D01*
X141260251Y-72324500D01*
X141201770Y-72336132D01*
X141201768Y-72336133D01*
X141135448Y-72380448D01*
X141091133Y-72446768D01*
X141091132Y-72446770D01*
X141079498Y-72505257D01*
X141079477Y-72505478D01*
X141079439Y-72505556D01*
X141078779Y-72508876D01*
X141077927Y-72508706D01*
X141057226Y-72551856D01*
X141010369Y-72573081D01*
X141004640Y-72573300D01*
X140845761Y-72573300D01*
X140797423Y-72555707D01*
X140792587Y-72551274D01*
X139772400Y-71531087D01*
X139750660Y-71484467D01*
X139751016Y-71468110D01*
X139765250Y-71360000D01*
X139746330Y-71216291D01*
X139690861Y-71082375D01*
X139690860Y-71082374D01*
X139690860Y-71082373D01*
X139602621Y-70967378D01*
X139487626Y-70879139D01*
X139353711Y-70823671D01*
X139353709Y-70823670D01*
X139210000Y-70804750D01*
X139066291Y-70823670D01*
X139066288Y-70823670D01*
X139066288Y-70823671D01*
X138932373Y-70879139D01*
X138817378Y-70967378D01*
X138729139Y-71082373D01*
X138711357Y-71125304D01*
X138673670Y-71216291D01*
X138654750Y-71360000D01*
X138673670Y-71503709D01*
X138673671Y-71503711D01*
X138729139Y-71637626D01*
X138817378Y-71752621D01*
X138932373Y-71840860D01*
X138932374Y-71840860D01*
X138932375Y-71840861D01*
X139066291Y-71896330D01*
X139210000Y-71915250D01*
X139318101Y-71901017D01*
X139368317Y-71912150D01*
X139381087Y-71922400D01*
X140530102Y-73071415D01*
X140593197Y-73107844D01*
X140663572Y-73126700D01*
X140736428Y-73126700D01*
X141004640Y-73126700D01*
X141052978Y-73144293D01*
X141078698Y-73188842D01*
X141079477Y-73194522D01*
X141079498Y-73194742D01*
X141091132Y-73253229D01*
X141091133Y-73253231D01*
X141135448Y-73319552D01*
X141201769Y-73363867D01*
X141231010Y-73369683D01*
X141260251Y-73375500D01*
X141260252Y-73375500D01*
X142999749Y-73375500D01*
X143019242Y-73371622D01*
X143058231Y-73363867D01*
X143124552Y-73319552D01*
X143168867Y-73253231D01*
X143180500Y-73194748D01*
X143180500Y-72505252D01*
X143168867Y-72446769D01*
X143124552Y-72380448D01*
X143108609Y-72369795D01*
X143078193Y-72328313D01*
X143081558Y-72276983D01*
X143097210Y-72254101D01*
X143811415Y-71539898D01*
X143847844Y-71476803D01*
X143863813Y-71417200D01*
X143893315Y-71375065D01*
X143924683Y-71362391D01*
X143973126Y-71354719D01*
X144093220Y-71293528D01*
X144188528Y-71198220D01*
X144249719Y-71078126D01*
X144265500Y-70978488D01*
X144265500Y-70461512D01*
X144249719Y-70361874D01*
X144188528Y-70241780D01*
X144188527Y-70241779D01*
X144188526Y-70241777D01*
X144125408Y-70178659D01*
X144103668Y-70132039D01*
X144116982Y-70082352D01*
X144144839Y-70058979D01*
X144144757Y-70058846D01*
X144145671Y-70058281D01*
X144146811Y-70057326D01*
X144148490Y-70056543D01*
X144292728Y-69967575D01*
X144292732Y-69967572D01*
X144412572Y-69847732D01*
X144412575Y-69847728D01*
X144501545Y-69703486D01*
X144552917Y-69548456D01*
X144584822Y-69508106D01*
X144635199Y-69497704D01*
X144680476Y-69522117D01*
X144699468Y-69569923D01*
X144699500Y-69572110D01*
X144699500Y-78657734D01*
X144681907Y-78706072D01*
X144637358Y-78731792D01*
X144586700Y-78722859D01*
X144560296Y-78697213D01*
X144532573Y-78652268D01*
X144412732Y-78532427D01*
X144412728Y-78532424D01*
X144268485Y-78443454D01*
X144268486Y-78443454D01*
X144107607Y-78390144D01*
X144107608Y-78390144D01*
X144008309Y-78380000D01*
X143960000Y-78380000D01*
X143960000Y-79504800D01*
X143942407Y-79553138D01*
X143897858Y-79578858D01*
X143884800Y-79580000D01*
X142735001Y-79580000D01*
X142735001Y-79603309D01*
X142745145Y-79702610D01*
X142794623Y-79851925D01*
X142793127Y-79903343D01*
X142758930Y-79941770D01*
X142708033Y-79949225D01*
X142670066Y-79928753D01*
X142492526Y-79751213D01*
X142470786Y-79704593D01*
X142470500Y-79698039D01*
X142470500Y-79109365D01*
X142470499Y-79109353D01*
X142466222Y-79080000D01*
X142735000Y-79080000D01*
X143460000Y-79080000D01*
X143460000Y-78379999D01*
X143411691Y-78380000D01*
X143312389Y-78390145D01*
X143151513Y-78443454D01*
X143007271Y-78532424D01*
X143007267Y-78532427D01*
X142887427Y-78652267D01*
X142887424Y-78652271D01*
X142798454Y-78796513D01*
X142745144Y-78957392D01*
X142735000Y-79056691D01*
X142735000Y-79080000D01*
X142466222Y-79080000D01*
X142459866Y-79036375D01*
X142443216Y-79002317D01*
X142404826Y-78923789D01*
X142404824Y-78923787D01*
X142404824Y-78923786D01*
X142316213Y-78835175D01*
X142316211Y-78835174D01*
X142203625Y-78780134D01*
X142203624Y-78780133D01*
X142130646Y-78769500D01*
X142130636Y-78769500D01*
X141921900Y-78769500D01*
X141873562Y-78751907D01*
X141847842Y-78707358D01*
X141846700Y-78694300D01*
X141846700Y-78243573D01*
X141827844Y-78173197D01*
X141827844Y-78173196D01*
X141791416Y-78110103D01*
X140686061Y-77004748D01*
X141079500Y-77004748D01*
X141091132Y-77063229D01*
X141091133Y-77063231D01*
X141135448Y-77129552D01*
X141201769Y-77173867D01*
X141231010Y-77179683D01*
X141260251Y-77185500D01*
X141260252Y-77185500D01*
X142999749Y-77185500D01*
X143019242Y-77181622D01*
X143058231Y-77173867D01*
X143124552Y-77129552D01*
X143168867Y-77063231D01*
X143180500Y-77004748D01*
X143180500Y-76315252D01*
X143168867Y-76256769D01*
X143124552Y-76190448D01*
X143058231Y-76146133D01*
X143058229Y-76146132D01*
X142999749Y-76134500D01*
X142999748Y-76134500D01*
X141260252Y-76134500D01*
X141260251Y-76134500D01*
X141201770Y-76146132D01*
X141201768Y-76146133D01*
X141135448Y-76190448D01*
X141091133Y-76256768D01*
X141091132Y-76256770D01*
X141079500Y-76315251D01*
X141079500Y-77004748D01*
X140686061Y-77004748D01*
X140369899Y-76688586D01*
X140369898Y-76688585D01*
X140306803Y-76652156D01*
X140306800Y-76652155D01*
X140306795Y-76652153D01*
X140305317Y-76651757D01*
X140304465Y-76651188D01*
X140302247Y-76650269D01*
X140302429Y-76649827D01*
X140265125Y-76624900D01*
X140182621Y-76517378D01*
X140067626Y-76429139D01*
X139933711Y-76373671D01*
X139933709Y-76373670D01*
X139790000Y-76354750D01*
X139646291Y-76373670D01*
X139646288Y-76373670D01*
X139646288Y-76373671D01*
X139512373Y-76429139D01*
X139397378Y-76517378D01*
X139309139Y-76632373D01*
X139253671Y-76766288D01*
X139253670Y-76766291D01*
X139234750Y-76910000D01*
X139253670Y-77053709D01*
X139253671Y-77053711D01*
X139309139Y-77187626D01*
X139339423Y-77227092D01*
X139397379Y-77302621D01*
X139413878Y-77315281D01*
X139441517Y-77358662D01*
X139443300Y-77374941D01*
X139443300Y-80853572D01*
X139443300Y-80926428D01*
X139462156Y-80996803D01*
X139498585Y-81059898D01*
X139498586Y-81059899D01*
X139577598Y-81138911D01*
X139599338Y-81185531D01*
X139598981Y-81201900D01*
X139594212Y-81238127D01*
X139584750Y-81310000D01*
X139603670Y-81453709D01*
X139603671Y-81453711D01*
X139659139Y-81587626D01*
X139747378Y-81702621D01*
X139862373Y-81790860D01*
X139862374Y-81790860D01*
X139862375Y-81790861D01*
X139996291Y-81846330D01*
X140140000Y-81865250D01*
X140283709Y-81846330D01*
X140417625Y-81790861D01*
X140532621Y-81702621D01*
X140620861Y-81587625D01*
X140676330Y-81453709D01*
X140695250Y-81310000D01*
X140676330Y-81166291D01*
X140673273Y-81158912D01*
X140671030Y-81107523D01*
X140702345Y-81066713D01*
X140752565Y-81055579D01*
X140795924Y-81076962D01*
X140823786Y-81104824D01*
X140823787Y-81104824D01*
X140823789Y-81104826D01*
X140936375Y-81159866D01*
X141009353Y-81170499D01*
X141009361Y-81170499D01*
X141009364Y-81170500D01*
X141009366Y-81170500D01*
X142130634Y-81170500D01*
X142130636Y-81170500D01*
X142130638Y-81170499D01*
X142130646Y-81170499D01*
X142185980Y-81162436D01*
X142203625Y-81159866D01*
X142316211Y-81104826D01*
X142404826Y-81016211D01*
X142459866Y-80903625D01*
X142464426Y-80872329D01*
X142470499Y-80830646D01*
X142470500Y-80830634D01*
X142470500Y-80693361D01*
X142488093Y-80645023D01*
X142532642Y-80619303D01*
X142583300Y-80628236D01*
X142598874Y-80640187D01*
X143012474Y-81053787D01*
X143034214Y-81100407D01*
X143034500Y-81106961D01*
X143034500Y-81138490D01*
X143050281Y-81238127D01*
X143111473Y-81358222D01*
X143206777Y-81453526D01*
X143206779Y-81453527D01*
X143206780Y-81453528D01*
X143326872Y-81514718D01*
X143326874Y-81514719D01*
X143426512Y-81530500D01*
X143426516Y-81530500D01*
X143993484Y-81530500D01*
X143993488Y-81530500D01*
X144093126Y-81514719D01*
X144213220Y-81453528D01*
X144308528Y-81358220D01*
X144369719Y-81238126D01*
X144385500Y-81138488D01*
X144385500Y-80621512D01*
X144369719Y-80521874D01*
X144308528Y-80401780D01*
X144308527Y-80401779D01*
X144308526Y-80401777D01*
X144245408Y-80338659D01*
X144223668Y-80292039D01*
X144236982Y-80242352D01*
X144264839Y-80218979D01*
X144264757Y-80218846D01*
X144265671Y-80218281D01*
X144266811Y-80217326D01*
X144268490Y-80216543D01*
X144412728Y-80127575D01*
X144412732Y-80127572D01*
X144532572Y-80007732D01*
X144532575Y-80007728D01*
X144560296Y-79962787D01*
X144600646Y-79930882D01*
X144652064Y-79932378D01*
X144690491Y-79966575D01*
X144699500Y-80002265D01*
X144699500Y-82274300D01*
X144681907Y-82322638D01*
X144637358Y-82348358D01*
X144624300Y-82349500D01*
X132265700Y-82349500D01*
X132217362Y-82331907D01*
X132191642Y-82287358D01*
X132190500Y-82274300D01*
X132190500Y-80220000D01*
X134270000Y-80220000D01*
X134270000Y-80485649D01*
X134272898Y-80522482D01*
X134272900Y-80522493D01*
X134318718Y-80680197D01*
X134402317Y-80821556D01*
X134402323Y-80821563D01*
X134518436Y-80937676D01*
X134518443Y-80937682D01*
X134659802Y-81021281D01*
X134817506Y-81067099D01*
X134817517Y-81067101D01*
X134854350Y-81069999D01*
X134854359Y-81070000D01*
X135220000Y-81070000D01*
X135220000Y-80220000D01*
X135720000Y-80220000D01*
X135720000Y-81070000D01*
X136085641Y-81070000D01*
X136085649Y-81069999D01*
X136122482Y-81067101D01*
X136122493Y-81067099D01*
X136280197Y-81021281D01*
X136421556Y-80937682D01*
X136421563Y-80937676D01*
X136537676Y-80821563D01*
X136537682Y-80821556D01*
X136621281Y-80680197D01*
X136667099Y-80522493D01*
X136667101Y-80522482D01*
X136669999Y-80485649D01*
X136670000Y-80485640D01*
X136670000Y-80220000D01*
X135720000Y-80220000D01*
X135220000Y-80220000D01*
X134270000Y-80220000D01*
X132190500Y-80220000D01*
X132190500Y-79720000D01*
X134270000Y-79720000D01*
X135220000Y-79720000D01*
X135220000Y-78870000D01*
X135720000Y-78870000D01*
X135720000Y-79720000D01*
X136670000Y-79720000D01*
X136670000Y-79454359D01*
X136669999Y-79454350D01*
X136667101Y-79417517D01*
X136667099Y-79417506D01*
X136621281Y-79259802D01*
X136537682Y-79118443D01*
X136537676Y-79118436D01*
X136421563Y-79002323D01*
X136421556Y-79002317D01*
X136280197Y-78918718D01*
X136122493Y-78872900D01*
X136122482Y-78872898D01*
X136085649Y-78870000D01*
X135720000Y-78870000D01*
X135220000Y-78870000D01*
X134854350Y-78870000D01*
X134817517Y-78872898D01*
X134817506Y-78872900D01*
X134659802Y-78918718D01*
X134518443Y-79002317D01*
X134518436Y-79002323D01*
X134402323Y-79118436D01*
X134402317Y-79118443D01*
X134318718Y-79259802D01*
X134272900Y-79417506D01*
X134272898Y-79417517D01*
X134270000Y-79454350D01*
X134270000Y-79720000D01*
X132190500Y-79720000D01*
X132190500Y-76910000D01*
X133480000Y-76910000D01*
X133480000Y-77032831D01*
X133486401Y-77092374D01*
X133486402Y-77092377D01*
X133536648Y-77227090D01*
X133536649Y-77227092D01*
X133622810Y-77342189D01*
X133737907Y-77428350D01*
X133737909Y-77428351D01*
X133872622Y-77478597D01*
X133872625Y-77478598D01*
X133932168Y-77484999D01*
X133932180Y-77485000D01*
X134580000Y-77485000D01*
X134580000Y-76910000D01*
X135080000Y-76910000D01*
X135080000Y-77485000D01*
X135727820Y-77485000D01*
X135727831Y-77484999D01*
X135787374Y-77478598D01*
X135787377Y-77478597D01*
X135922090Y-77428351D01*
X135922092Y-77428350D01*
X136037189Y-77342189D01*
X136123350Y-77227092D01*
X136123351Y-77227090D01*
X136173597Y-77092377D01*
X136173598Y-77092374D01*
X136179999Y-77032831D01*
X136180000Y-77032820D01*
X136180000Y-76910000D01*
X135080000Y-76910000D01*
X134580000Y-76910000D01*
X133480000Y-76910000D01*
X132190500Y-76910000D01*
X132190500Y-76410000D01*
X133480000Y-76410000D01*
X136180000Y-76410000D01*
X136180000Y-76287180D01*
X136179999Y-76287168D01*
X136173598Y-76227625D01*
X136173597Y-76227622D01*
X136123351Y-76092909D01*
X136123350Y-76092907D01*
X136037189Y-75977810D01*
X135922092Y-75891649D01*
X135922088Y-75891647D01*
X135913699Y-75888518D01*
X135874557Y-75855142D01*
X135866026Y-75804414D01*
X135867906Y-75798057D01*
X135868865Y-75793233D01*
X135868867Y-75793231D01*
X135880500Y-75734748D01*
X135880500Y-75045252D01*
X135868867Y-74986769D01*
X135824552Y-74920448D01*
X135758231Y-74876133D01*
X135758229Y-74876132D01*
X135699749Y-74864500D01*
X135699748Y-74864500D01*
X133960252Y-74864500D01*
X133960251Y-74864500D01*
X133901770Y-74876132D01*
X133901768Y-74876133D01*
X133835448Y-74920448D01*
X133791133Y-74986768D01*
X133791132Y-74986770D01*
X133779500Y-75045251D01*
X133779500Y-75734748D01*
X133792578Y-75800495D01*
X133790008Y-75801006D01*
X133791741Y-75840669D01*
X133760428Y-75881480D01*
X133746306Y-75888514D01*
X133737918Y-75891643D01*
X133737907Y-75891649D01*
X133622810Y-75977810D01*
X133536649Y-76092907D01*
X133536648Y-76092909D01*
X133486402Y-76227622D01*
X133486401Y-76227625D01*
X133480000Y-76287168D01*
X133480000Y-76410000D01*
X132190500Y-76410000D01*
X132190500Y-74464748D01*
X133779500Y-74464748D01*
X133791132Y-74523229D01*
X133791133Y-74523231D01*
X133835448Y-74589552D01*
X133901769Y-74633867D01*
X133931010Y-74639683D01*
X133960251Y-74645500D01*
X133960252Y-74645500D01*
X135699749Y-74645500D01*
X135719242Y-74641622D01*
X135758231Y-74633867D01*
X135793432Y-74610345D01*
X135843397Y-74598119D01*
X135888385Y-74619698D01*
X136223593Y-74954906D01*
X136245333Y-75001526D01*
X136232019Y-75051213D01*
X136230079Y-75053859D01*
X136139139Y-75172373D01*
X136083671Y-75306288D01*
X136083670Y-75306291D01*
X136064750Y-75450000D01*
X136083670Y-75593709D01*
X136083671Y-75593711D01*
X136139139Y-75727626D01*
X136227378Y-75842621D01*
X136342373Y-75930860D01*
X136342374Y-75930860D01*
X136342375Y-75930861D01*
X136476291Y-75986330D01*
X136620000Y-76005250D01*
X136763709Y-75986330D01*
X136897625Y-75930861D01*
X137012621Y-75842621D01*
X137100861Y-75727625D01*
X137156330Y-75593709D01*
X137175250Y-75450000D01*
X137156330Y-75306291D01*
X137100861Y-75172375D01*
X137100860Y-75172374D01*
X137100860Y-75172373D01*
X137012621Y-75057378D01*
X136926121Y-74991004D01*
X136898482Y-74947620D01*
X136896700Y-74931344D01*
X136896700Y-74923573D01*
X136877844Y-74853199D01*
X136877843Y-74853197D01*
X136841414Y-74790101D01*
X136789898Y-74738585D01*
X135949898Y-73898585D01*
X135918097Y-73880224D01*
X135885035Y-73840820D01*
X135880500Y-73815101D01*
X135880500Y-73775251D01*
X135868867Y-73716770D01*
X135868866Y-73716768D01*
X135824552Y-73650448D01*
X135758231Y-73606133D01*
X135758229Y-73606132D01*
X135699749Y-73594500D01*
X135699748Y-73594500D01*
X133960252Y-73594500D01*
X133960251Y-73594500D01*
X133901770Y-73606132D01*
X133901768Y-73606133D01*
X133835448Y-73650448D01*
X133791133Y-73716768D01*
X133791132Y-73716770D01*
X133779500Y-73775251D01*
X133779500Y-74464748D01*
X132190500Y-74464748D01*
X132190500Y-71031512D01*
X132634500Y-71031512D01*
X132634501Y-71031524D01*
X132649352Y-71125301D01*
X132706951Y-71238344D01*
X132796655Y-71328048D01*
X132796657Y-71328049D01*
X132796658Y-71328050D01*
X132909694Y-71385645D01*
X132909696Y-71385646D01*
X133003481Y-71400500D01*
X133488038Y-71400499D01*
X133536376Y-71418092D01*
X133541212Y-71422525D01*
X134314813Y-72196126D01*
X134336553Y-72242746D01*
X134323239Y-72292433D01*
X134281102Y-72321938D01*
X134261639Y-72324500D01*
X133960251Y-72324500D01*
X133901770Y-72336132D01*
X133901768Y-72336133D01*
X133835448Y-72380448D01*
X133791133Y-72446768D01*
X133791132Y-72446770D01*
X133779500Y-72505251D01*
X133779500Y-73194748D01*
X133791132Y-73253229D01*
X133791133Y-73253231D01*
X133835448Y-73319552D01*
X133901769Y-73363867D01*
X133931010Y-73369683D01*
X133960251Y-73375500D01*
X133960252Y-73375500D01*
X135699749Y-73375500D01*
X135719242Y-73371622D01*
X135758231Y-73363867D01*
X135824552Y-73319552D01*
X135868867Y-73253231D01*
X135880500Y-73194748D01*
X135880500Y-72505252D01*
X135868867Y-72446769D01*
X135868866Y-72446767D01*
X135868865Y-72446765D01*
X135826711Y-72383679D01*
X135814484Y-72333714D01*
X135837235Y-72287579D01*
X135884318Y-72266861D01*
X135889237Y-72266700D01*
X137464239Y-72266700D01*
X137512577Y-72284293D01*
X137517413Y-72288726D01*
X140840102Y-75611415D01*
X140903197Y-75647844D01*
X140973572Y-75666700D01*
X141004640Y-75666700D01*
X141052978Y-75684293D01*
X141078698Y-75728842D01*
X141079477Y-75734522D01*
X141079498Y-75734742D01*
X141091132Y-75793229D01*
X141091133Y-75793231D01*
X141135448Y-75859552D01*
X141201769Y-75903867D01*
X141231010Y-75909683D01*
X141260251Y-75915500D01*
X141260252Y-75915500D01*
X142999749Y-75915500D01*
X143019242Y-75911622D01*
X143058231Y-75903867D01*
X143124552Y-75859552D01*
X143168867Y-75793231D01*
X143180500Y-75734748D01*
X143180500Y-75045252D01*
X143168867Y-74986769D01*
X143124552Y-74920448D01*
X143058231Y-74876133D01*
X143058229Y-74876132D01*
X142999749Y-74864500D01*
X142999748Y-74864500D01*
X141260252Y-74864500D01*
X141260251Y-74864500D01*
X141201770Y-74876132D01*
X141201768Y-74876133D01*
X141135448Y-74920448D01*
X141104769Y-74966362D01*
X141063285Y-74996778D01*
X141011955Y-74993413D01*
X140989069Y-74977756D01*
X140476061Y-74464748D01*
X141079500Y-74464748D01*
X141091132Y-74523229D01*
X141091133Y-74523231D01*
X141135448Y-74589552D01*
X141201769Y-74633867D01*
X141231010Y-74639683D01*
X141260251Y-74645500D01*
X141260252Y-74645500D01*
X142999749Y-74645500D01*
X143019242Y-74641622D01*
X143058231Y-74633867D01*
X143124552Y-74589552D01*
X143168867Y-74523231D01*
X143180500Y-74464748D01*
X143180500Y-73775252D01*
X143168867Y-73716769D01*
X143124552Y-73650448D01*
X143058231Y-73606133D01*
X143058229Y-73606132D01*
X142999749Y-73594500D01*
X142999748Y-73594500D01*
X141260252Y-73594500D01*
X141260251Y-73594500D01*
X141201770Y-73606132D01*
X141201768Y-73606133D01*
X141135448Y-73650448D01*
X141091133Y-73716768D01*
X141091132Y-73716770D01*
X141079500Y-73775251D01*
X141079500Y-74464748D01*
X140476061Y-74464748D01*
X137779899Y-71768586D01*
X137779898Y-71768585D01*
X137716803Y-71732156D01*
X137716800Y-71732155D01*
X137716801Y-71732155D01*
X137672183Y-71720200D01*
X137646428Y-71713300D01*
X137646427Y-71713300D01*
X134645761Y-71713300D01*
X134597423Y-71695707D01*
X134592587Y-71691274D01*
X134005392Y-71104079D01*
X133983652Y-71057459D01*
X133984293Y-71039136D01*
X133985499Y-71031524D01*
X133985500Y-71031519D01*
X133985499Y-70568482D01*
X133972625Y-70487189D01*
X133970647Y-70474698D01*
X133913048Y-70361655D01*
X133823344Y-70271951D01*
X133710304Y-70214354D01*
X133710306Y-70214354D01*
X133663411Y-70206927D01*
X133616519Y-70199500D01*
X133616517Y-70199500D01*
X133003487Y-70199500D01*
X133003475Y-70199501D01*
X132909698Y-70214352D01*
X132796655Y-70271951D01*
X132706951Y-70361655D01*
X132649354Y-70474694D01*
X132634500Y-70568479D01*
X132634500Y-71031512D01*
X132190500Y-71031512D01*
X132190500Y-69381512D01*
X132634500Y-69381512D01*
X132634501Y-69381524D01*
X132649352Y-69475301D01*
X132706951Y-69588344D01*
X132796655Y-69678048D01*
X132796657Y-69678049D01*
X132796658Y-69678050D01*
X132909694Y-69735645D01*
X132909696Y-69735646D01*
X133003481Y-69750500D01*
X133616518Y-69750499D01*
X133645400Y-69745925D01*
X133710301Y-69735647D01*
X133710302Y-69735646D01*
X133710304Y-69735646D01*
X133823342Y-69678050D01*
X133913050Y-69588342D01*
X133970646Y-69475304D01*
X133970645Y-69475304D01*
X133973333Y-69470031D01*
X133975454Y-69471111D01*
X134001228Y-69438125D01*
X134041075Y-69426700D01*
X134246427Y-69426700D01*
X134246428Y-69426700D01*
X134316803Y-69407844D01*
X134379898Y-69371415D01*
X134471313Y-69280000D01*
X136024417Y-69280000D01*
X136044699Y-69485932D01*
X136104765Y-69683947D01*
X136104770Y-69683959D01*
X136192310Y-69847732D01*
X136202315Y-69866450D01*
X136333590Y-70026410D01*
X136493550Y-70157685D01*
X136493554Y-70157687D01*
X136650873Y-70241777D01*
X136676046Y-70255232D01*
X136676050Y-70255233D01*
X136676052Y-70255234D01*
X136731162Y-70271951D01*
X136874066Y-70315300D01*
X137080000Y-70335583D01*
X137285934Y-70315300D01*
X137483954Y-70255232D01*
X137666450Y-70157685D01*
X137826410Y-70026410D01*
X137957685Y-69866450D01*
X138055232Y-69683954D01*
X138115300Y-69485934D01*
X138119962Y-69438599D01*
X138142209Y-69392220D01*
X138189063Y-69370990D01*
X138238602Y-69384845D01*
X138267646Y-69427301D01*
X138270000Y-69445971D01*
X138270000Y-70177831D01*
X138276401Y-70237374D01*
X138276402Y-70237377D01*
X138326648Y-70372090D01*
X138326649Y-70372092D01*
X138412810Y-70487189D01*
X138527907Y-70573350D01*
X138527909Y-70573351D01*
X138662622Y-70623597D01*
X138662625Y-70623598D01*
X138722168Y-70629999D01*
X138722180Y-70630000D01*
X139370000Y-70630000D01*
X139370000Y-69713012D01*
X139427007Y-69745925D01*
X139554174Y-69780000D01*
X139685826Y-69780000D01*
X139812993Y-69745925D01*
X139870000Y-69713012D01*
X139870000Y-70630000D01*
X140517820Y-70630000D01*
X140517831Y-70629999D01*
X140577374Y-70623598D01*
X140577377Y-70623597D01*
X140712090Y-70573351D01*
X140712092Y-70573350D01*
X140827189Y-70487189D01*
X140913350Y-70372092D01*
X140913351Y-70372090D01*
X140963597Y-70237377D01*
X140963598Y-70237374D01*
X140969999Y-70177831D01*
X140970000Y-70177820D01*
X140970000Y-69530000D01*
X140053012Y-69530000D01*
X140085925Y-69472993D01*
X140120000Y-69345826D01*
X140120000Y-69214174D01*
X140085925Y-69087007D01*
X140053012Y-69030000D01*
X140970000Y-69030000D01*
X140970000Y-68920000D01*
X142615000Y-68920000D01*
X143340000Y-68920000D01*
X143340000Y-68219999D01*
X143291691Y-68220000D01*
X143192389Y-68230145D01*
X143031513Y-68283454D01*
X142887271Y-68372424D01*
X142887267Y-68372427D01*
X142767427Y-68492267D01*
X142767424Y-68492271D01*
X142678454Y-68636513D01*
X142625144Y-68797392D01*
X142615000Y-68896691D01*
X142615000Y-68920000D01*
X140970000Y-68920000D01*
X140970000Y-68382180D01*
X140969999Y-68382168D01*
X140963598Y-68322625D01*
X140963597Y-68322622D01*
X140913351Y-68187909D01*
X140913350Y-68187907D01*
X140827189Y-68072810D01*
X140712092Y-67986649D01*
X140712090Y-67986648D01*
X140577377Y-67936402D01*
X140577374Y-67936401D01*
X140517831Y-67930000D01*
X139870000Y-67930000D01*
X139870000Y-68846988D01*
X139812993Y-68814075D01*
X139685826Y-68780000D01*
X139554174Y-68780000D01*
X139427007Y-68814075D01*
X139370000Y-68846988D01*
X139370000Y-67930000D01*
X138722168Y-67930000D01*
X138662625Y-67936401D01*
X138662622Y-67936402D01*
X138527909Y-67986648D01*
X138527907Y-67986649D01*
X138412810Y-68072810D01*
X138326649Y-68187907D01*
X138326648Y-68187909D01*
X138276402Y-68322622D01*
X138276401Y-68322625D01*
X138270000Y-68382168D01*
X138270000Y-69114028D01*
X138252407Y-69162366D01*
X138207858Y-69188086D01*
X138157200Y-69179153D01*
X138124135Y-69139748D01*
X138119962Y-69121399D01*
X138115300Y-69074067D01*
X138055234Y-68876052D01*
X138055229Y-68876040D01*
X137957687Y-68693554D01*
X137957684Y-68693549D01*
X137910876Y-68636513D01*
X137826410Y-68533590D01*
X137666450Y-68402315D01*
X137666445Y-68402312D01*
X137483959Y-68304770D01*
X137483947Y-68304765D01*
X137285932Y-68244699D01*
X137080000Y-68224417D01*
X136874067Y-68244699D01*
X136676052Y-68304765D01*
X136676040Y-68304770D01*
X136493554Y-68402312D01*
X136493549Y-68402315D01*
X136333590Y-68533590D01*
X136202315Y-68693549D01*
X136202312Y-68693554D01*
X136104770Y-68876040D01*
X136104765Y-68876052D01*
X136044699Y-69074067D01*
X136024417Y-69280000D01*
X134471313Y-69280000D01*
X135670075Y-68081236D01*
X135716694Y-68059497D01*
X135733056Y-68059853D01*
X135850000Y-68075250D01*
X135993709Y-68056330D01*
X136127625Y-68000861D01*
X136242621Y-67912621D01*
X136330861Y-67797625D01*
X136386330Y-67663709D01*
X136405250Y-67520000D01*
X136386330Y-67376291D01*
X136330861Y-67242375D01*
X136330860Y-67242374D01*
X136330860Y-67242373D01*
X136242621Y-67127378D01*
X136127626Y-67039139D01*
X136032936Y-66999918D01*
X135993709Y-66983670D01*
X135850000Y-66964750D01*
X135706291Y-66983670D01*
X135706288Y-66983670D01*
X135706288Y-66983671D01*
X135572373Y-67039139D01*
X135457378Y-67127378D01*
X135369139Y-67242373D01*
X135313671Y-67376288D01*
X135313670Y-67376291D01*
X135294750Y-67520000D01*
X135307817Y-67619262D01*
X135296683Y-67669483D01*
X135286434Y-67682251D01*
X134117413Y-68851274D01*
X134070793Y-68873014D01*
X134064239Y-68873300D01*
X134041075Y-68873300D01*
X133992737Y-68855707D01*
X133974853Y-68829194D01*
X133973333Y-68829969D01*
X133913048Y-68711655D01*
X133823344Y-68621951D01*
X133710304Y-68564354D01*
X133710306Y-68564354D01*
X133663411Y-68556927D01*
X133616519Y-68549500D01*
X133616517Y-68549500D01*
X133003487Y-68549500D01*
X133003475Y-68549501D01*
X132909698Y-68564352D01*
X132796655Y-68621951D01*
X132706951Y-68711655D01*
X132649354Y-68824694D01*
X132634500Y-68918479D01*
X132634500Y-69381512D01*
X132190500Y-69381512D01*
X132190500Y-67050660D01*
X132208093Y-67002322D01*
X132252642Y-66976602D01*
X132303300Y-66985535D01*
X132334566Y-67020453D01*
X132339948Y-67032722D01*
X132339948Y-67032724D01*
X132471429Y-67233969D01*
X132634233Y-67410822D01*
X132634237Y-67410826D01*
X132823934Y-67558473D01*
X133018397Y-67663711D01*
X133035344Y-67672882D01*
X133262703Y-67750934D01*
X133499808Y-67790500D01*
X133499811Y-67790500D01*
X133740189Y-67790500D01*
X133740192Y-67790500D01*
X133977297Y-67750934D01*
X134204656Y-67672882D01*
X134416067Y-67558472D01*
X134605764Y-67410825D01*
X134768571Y-67233969D01*
X134900049Y-67032728D01*
X134996610Y-66812591D01*
X135055620Y-66579563D01*
X135075471Y-66340000D01*
X135055620Y-66100437D01*
X134996610Y-65867409D01*
X134900049Y-65647272D01*
X134768571Y-65446031D01*
X134605764Y-65269175D01*
X134605762Y-65269173D01*
X134416065Y-65121526D01*
X134342724Y-65081836D01*
X134308586Y-65043357D01*
X134307168Y-64991937D01*
X134339135Y-64951636D01*
X134378515Y-64940500D01*
X141741829Y-64940500D01*
X141790167Y-64958093D01*
G37*
G04 #@! TD.AperFunction*
M02*
