G04 #@! TF.GenerationSoftware,KiCad,Pcbnew,8.0.1*
G04 #@! TF.CreationDate,2025-02-25T21:17:40-07:00*
G04 #@! TF.ProjectId,IRRemote,49525265-6d6f-4746-952e-6b696361645f,rev?*
G04 #@! TF.SameCoordinates,Original*
G04 #@! TF.FileFunction,Copper,L2,Bot*
G04 #@! TF.FilePolarity,Positive*
%FSLAX46Y46*%
G04 Gerber Fmt 4.6, Leading zero omitted, Abs format (unit mm)*
G04 Created by KiCad (PCBNEW 8.0.1) date 2025-02-25 21:17:40*
%MOMM*%
%LPD*%
G01*
G04 APERTURE LIST*
G04 Aperture macros list*
%AMRoundRect*
0 Rectangle with rounded corners*
0 $1 Rounding radius*
0 $2 $3 $4 $5 $6 $7 $8 $9 X,Y pos of 4 corners*
0 Add a 4 corners polygon primitive as box body*
4,1,4,$2,$3,$4,$5,$6,$7,$8,$9,$2,$3,0*
0 Add four circle primitives for the rounded corners*
1,1,$1+$1,$2,$3*
1,1,$1+$1,$4,$5*
1,1,$1+$1,$6,$7*
1,1,$1+$1,$8,$9*
0 Add four rect primitives between the rounded corners*
20,1,$1+$1,$2,$3,$4,$5,0*
20,1,$1+$1,$4,$5,$6,$7,0*
20,1,$1+$1,$6,$7,$8,$9,0*
20,1,$1+$1,$8,$9,$2,$3,0*%
G04 Aperture macros list end*
G04 #@! TA.AperFunction,ComponentPad*
%ADD10R,1.700000X1.700000*%
G04 #@! TD*
G04 #@! TA.AperFunction,ComponentPad*
%ADD11O,1.700000X1.700000*%
G04 #@! TD*
G04 #@! TA.AperFunction,ComponentPad*
%ADD12C,2.500000*%
G04 #@! TD*
G04 #@! TA.AperFunction,SMDPad,CuDef*
%ADD13RoundRect,0.150000X-0.512500X-0.150000X0.512500X-0.150000X0.512500X0.150000X-0.512500X0.150000X0*%
G04 #@! TD*
G04 #@! TA.AperFunction,SMDPad,CuDef*
%ADD14RoundRect,0.225000X-0.250000X0.225000X-0.250000X-0.225000X0.250000X-0.225000X0.250000X0.225000X0*%
G04 #@! TD*
G04 #@! TA.AperFunction,SMDPad,CuDef*
%ADD15R,1.003300X0.990600*%
G04 #@! TD*
G04 #@! TA.AperFunction,SMDPad,CuDef*
%ADD16RoundRect,0.225000X-0.225000X-0.250000X0.225000X-0.250000X0.225000X0.250000X-0.225000X0.250000X0*%
G04 #@! TD*
G04 #@! TA.AperFunction,SMDPad,CuDef*
%ADD17RoundRect,0.200000X-0.200000X-0.275000X0.200000X-0.275000X0.200000X0.275000X-0.200000X0.275000X0*%
G04 #@! TD*
G04 #@! TA.AperFunction,SMDPad,CuDef*
%ADD18RoundRect,0.225000X0.250000X-0.225000X0.250000X0.225000X-0.250000X0.225000X-0.250000X-0.225000X0*%
G04 #@! TD*
G04 #@! TA.AperFunction,SMDPad,CuDef*
%ADD19RoundRect,0.150000X-0.150000X0.512500X-0.150000X-0.512500X0.150000X-0.512500X0.150000X0.512500X0*%
G04 #@! TD*
G04 #@! TA.AperFunction,SMDPad,CuDef*
%ADD20RoundRect,0.200000X0.200000X0.275000X-0.200000X0.275000X-0.200000X-0.275000X0.200000X-0.275000X0*%
G04 #@! TD*
G04 #@! TA.AperFunction,ViaPad*
%ADD21C,0.600000*%
G04 #@! TD*
G04 #@! TA.AperFunction,Conductor*
%ADD22C,0.152400*%
G04 #@! TD*
G04 APERTURE END LIST*
D10*
X139620000Y-69280000D03*
D11*
X137080000Y-69280000D03*
D12*
X133620000Y-66340000D03*
X143100000Y-66240000D03*
D13*
X137130000Y-74340000D03*
X137130000Y-73390000D03*
X137130000Y-72440000D03*
X139405000Y-72440000D03*
X139405000Y-74340000D03*
D14*
X134760000Y-72660000D03*
X134760000Y-74210000D03*
D15*
X139676700Y-65830000D03*
X136870000Y-65830000D03*
D16*
X141115000Y-76270000D03*
X142665000Y-76270000D03*
D17*
X141045000Y-78230000D03*
X142695000Y-78230000D03*
D18*
X142240000Y-74240000D03*
X142240000Y-72690000D03*
D19*
X136655000Y-76885000D03*
X137605000Y-76885000D03*
X138555000Y-76885000D03*
X138555000Y-79160000D03*
X136655000Y-79160000D03*
D18*
X134465000Y-78760000D03*
X134465000Y-77210000D03*
D20*
X142762500Y-80180000D03*
X141112500Y-80180000D03*
D21*
X135100000Y-71120000D03*
X133315000Y-75920000D03*
X141770000Y-71390000D03*
X139210000Y-71360000D03*
X139790000Y-76910000D03*
X140140000Y-81310000D03*
X136620000Y-75450000D03*
X135850000Y-67520000D03*
D22*
X137130000Y-73390000D02*
X136280000Y-73390000D01*
X134585000Y-77090000D02*
X134465000Y-77210000D01*
X140510000Y-76270000D02*
X140032400Y-75792400D01*
X139620000Y-69280000D02*
X139620000Y-66270000D01*
X141115000Y-76270000D02*
X140510000Y-76270000D01*
X134760000Y-72660000D02*
X134760000Y-71460000D01*
X133315000Y-76655000D02*
X133315000Y-75920000D01*
X139620000Y-66270000D02*
X139660000Y-66230000D01*
X141770000Y-71390000D02*
X142240000Y-71860000D01*
X133870000Y-77210000D02*
X133315000Y-76655000D01*
X137947600Y-75792400D02*
X137605000Y-76135000D01*
X137605000Y-76885000D02*
X136655000Y-76885000D01*
X134760000Y-71460000D02*
X135100000Y-71120000D01*
X135550000Y-72660000D02*
X134760000Y-72660000D01*
X137605000Y-76135000D02*
X137605000Y-76885000D01*
X142240000Y-71860000D02*
X142240000Y-72690000D01*
X136655000Y-76885000D02*
X136450000Y-77090000D01*
X134465000Y-77210000D02*
X133870000Y-77210000D01*
X136450000Y-77090000D02*
X134585000Y-77090000D01*
X140032400Y-75792400D02*
X137947600Y-75792400D01*
X136280000Y-73390000D02*
X135550000Y-72660000D01*
X134780000Y-69280000D02*
X133620000Y-68120000D01*
X136230000Y-74340000D02*
X137130000Y-74340000D01*
X137130000Y-69330000D02*
X137080000Y-69280000D01*
X133820000Y-74210000D02*
X133350000Y-73740000D01*
X134760000Y-74210000D02*
X133820000Y-74210000D01*
X136100000Y-74210000D02*
X136230000Y-74340000D01*
X134760000Y-74210000D02*
X136100000Y-74210000D01*
X137130000Y-72440000D02*
X137130000Y-69330000D01*
X133620000Y-68120000D02*
X133620000Y-66340000D01*
X133350000Y-73740000D02*
X133350000Y-70710000D01*
X133350000Y-70710000D02*
X134780000Y-69280000D01*
X134780000Y-69280000D02*
X137080000Y-69280000D01*
X139790000Y-76910000D02*
X138580000Y-76910000D01*
X140460000Y-81630000D02*
X142290000Y-81630000D01*
X138580000Y-76910000D02*
X138555000Y-76885000D01*
X142850000Y-81070000D02*
X142850000Y-80180000D01*
X140140000Y-81310000D02*
X140460000Y-81630000D01*
X142290000Y-81630000D02*
X142850000Y-81070000D01*
X142695000Y-78230000D02*
X142695000Y-76300000D01*
X136630000Y-75440000D02*
X142400000Y-75440000D01*
X142665000Y-75705000D02*
X142665000Y-76270000D01*
X142400000Y-75440000D02*
X142665000Y-75705000D01*
X136620000Y-75450000D02*
X136630000Y-75440000D01*
X142695000Y-76300000D02*
X142665000Y-76270000D01*
X141025000Y-78250000D02*
X141045000Y-78230000D01*
X141025000Y-80180000D02*
X141025000Y-78250000D01*
X139185000Y-79160000D02*
X138555000Y-79160000D01*
X141045000Y-78230000D02*
X140115000Y-78230000D01*
X140115000Y-78230000D02*
X139185000Y-79160000D01*
X136280000Y-67520000D02*
X136853300Y-66946700D01*
X135850000Y-67520000D02*
X136280000Y-67520000D01*
X136853300Y-66946700D02*
X136853300Y-66230000D01*
G04 #@! TA.AperFunction,Conductor*
G36*
X136255687Y-64960185D02*
G01*
X136301442Y-65012989D01*
X136311386Y-65082147D01*
X136282361Y-65145703D01*
X136257540Y-65167602D01*
X136223797Y-65190148D01*
X136179482Y-65256469D01*
X136179481Y-65256470D01*
X136167850Y-65314947D01*
X136167850Y-66345052D01*
X136179481Y-66403529D01*
X136179482Y-66403530D01*
X136223797Y-66469852D01*
X136290119Y-66514167D01*
X136290120Y-66514168D01*
X136348597Y-66525799D01*
X136348600Y-66525800D01*
X136348602Y-66525800D01*
X136452600Y-66525800D01*
X136519639Y-66545485D01*
X136565394Y-66598289D01*
X136576600Y-66649800D01*
X136576600Y-66780724D01*
X136556915Y-66847763D01*
X136540281Y-66868405D01*
X136341405Y-67067280D01*
X136280082Y-67100765D01*
X136210390Y-67095781D01*
X136178238Y-67077975D01*
X136127625Y-67039139D01*
X136127623Y-67039138D01*
X135993712Y-66983671D01*
X135993710Y-66983670D01*
X135993709Y-66983670D01*
X135921854Y-66974210D01*
X135850001Y-66964750D01*
X135849999Y-66964750D01*
X135706291Y-66983670D01*
X135706287Y-66983671D01*
X135572377Y-67039137D01*
X135457379Y-67127379D01*
X135369137Y-67242377D01*
X135313671Y-67376287D01*
X135313670Y-67376291D01*
X135294750Y-67519999D01*
X135294750Y-67520000D01*
X135313670Y-67663708D01*
X135313671Y-67663712D01*
X135369137Y-67797622D01*
X135369138Y-67797624D01*
X135369139Y-67797625D01*
X135457379Y-67912621D01*
X135572375Y-68000861D01*
X135706291Y-68056330D01*
X135833280Y-68073048D01*
X135849999Y-68075250D01*
X135850000Y-68075250D01*
X135850001Y-68075250D01*
X135864977Y-68073278D01*
X135993709Y-68056330D01*
X136127625Y-68000861D01*
X136242621Y-67912621D01*
X136309866Y-67824984D01*
X136366292Y-67783784D01*
X136376136Y-67780701D01*
X136386803Y-67777844D01*
X136386805Y-67777842D01*
X136386807Y-67777842D01*
X136412041Y-67763272D01*
X136449898Y-67741415D01*
X137074715Y-67116598D01*
X137103190Y-67067280D01*
X137111144Y-67053504D01*
X137111144Y-67053503D01*
X137129999Y-66983133D01*
X137130000Y-66983127D01*
X137130000Y-66649800D01*
X137149685Y-66582761D01*
X137202489Y-66537006D01*
X137254000Y-66525800D01*
X137391400Y-66525800D01*
X137391401Y-66525799D01*
X137406218Y-66522852D01*
X137449879Y-66514168D01*
X137449879Y-66514167D01*
X137449881Y-66514167D01*
X137516202Y-66469852D01*
X137560517Y-66403531D01*
X137566329Y-66374308D01*
X137598714Y-66312399D01*
X137659429Y-66277824D01*
X137687947Y-66274500D01*
X138858753Y-66274500D01*
X138925792Y-66294185D01*
X138971547Y-66346989D01*
X138980371Y-66374310D01*
X138986183Y-66403531D01*
X139030497Y-66469852D01*
X139096819Y-66514167D01*
X139096820Y-66514168D01*
X139155297Y-66525799D01*
X139155300Y-66525800D01*
X139155302Y-66525800D01*
X139219300Y-66525800D01*
X139286339Y-66545485D01*
X139332094Y-66598289D01*
X139343300Y-66649800D01*
X139343300Y-68105500D01*
X139323615Y-68172539D01*
X139270811Y-68218294D01*
X139219300Y-68229500D01*
X138750247Y-68229500D01*
X138691770Y-68241131D01*
X138691769Y-68241132D01*
X138625447Y-68285447D01*
X138581132Y-68351769D01*
X138581131Y-68351770D01*
X138569500Y-68410247D01*
X138569500Y-70149752D01*
X138581131Y-70208229D01*
X138581132Y-70208230D01*
X138625447Y-70274552D01*
X138691769Y-70318867D01*
X138691770Y-70318868D01*
X138750247Y-70330499D01*
X138750250Y-70330500D01*
X138750252Y-70330500D01*
X140489750Y-70330500D01*
X140489751Y-70330499D01*
X140504568Y-70327552D01*
X140548229Y-70318868D01*
X140548229Y-70318867D01*
X140548231Y-70318867D01*
X140614552Y-70274552D01*
X140658867Y-70208231D01*
X140658867Y-70208229D01*
X140658868Y-70208229D01*
X140670499Y-70149752D01*
X140670500Y-70149750D01*
X140670500Y-68410249D01*
X140670499Y-68410247D01*
X140658868Y-68351770D01*
X140658867Y-68351769D01*
X140614552Y-68285447D01*
X140548230Y-68241132D01*
X140548229Y-68241131D01*
X140489752Y-68229500D01*
X140489748Y-68229500D01*
X140020700Y-68229500D01*
X139953661Y-68209815D01*
X139907906Y-68157011D01*
X139896700Y-68105500D01*
X139896700Y-66649800D01*
X139916385Y-66582761D01*
X139969189Y-66537006D01*
X140020700Y-66525800D01*
X140198100Y-66525800D01*
X140198101Y-66525799D01*
X140212918Y-66522852D01*
X140256579Y-66514168D01*
X140256579Y-66514167D01*
X140256581Y-66514167D01*
X140322902Y-66469852D01*
X140367217Y-66403531D01*
X140367217Y-66403529D01*
X140367218Y-66403529D01*
X140378849Y-66345052D01*
X140378850Y-66345050D01*
X140378850Y-65314949D01*
X140378849Y-65314947D01*
X140367218Y-65256470D01*
X140367217Y-65256469D01*
X140322902Y-65190148D01*
X140289160Y-65167602D01*
X140244356Y-65113989D01*
X140235649Y-65044664D01*
X140265804Y-64981637D01*
X140325248Y-64944918D01*
X140358052Y-64940500D01*
X142046838Y-64940500D01*
X142113877Y-64960185D01*
X142159632Y-65012989D01*
X142169576Y-65082147D01*
X142140551Y-65145703D01*
X142123000Y-65162353D01*
X142114242Y-65169169D01*
X142114239Y-65169172D01*
X141951430Y-65346029D01*
X141951427Y-65346033D01*
X141819951Y-65547270D01*
X141723389Y-65767410D01*
X141664379Y-66000440D01*
X141644529Y-66239994D01*
X141644529Y-66240005D01*
X141664379Y-66479559D01*
X141723389Y-66712589D01*
X141819951Y-66932729D01*
X141951427Y-67133966D01*
X141951429Y-67133969D01*
X142114236Y-67310825D01*
X142114239Y-67310827D01*
X142114242Y-67310830D01*
X142303924Y-67458466D01*
X142303930Y-67458470D01*
X142303933Y-67458472D01*
X142515344Y-67572882D01*
X142515347Y-67572883D01*
X142742699Y-67650933D01*
X142742701Y-67650933D01*
X142742703Y-67650934D01*
X142979808Y-67690500D01*
X142979809Y-67690500D01*
X143220191Y-67690500D01*
X143220192Y-67690500D01*
X143457297Y-67650934D01*
X143684656Y-67572882D01*
X143896067Y-67458472D01*
X144085764Y-67310825D01*
X144248571Y-67133969D01*
X144380049Y-66932728D01*
X144461945Y-66746023D01*
X144506900Y-66692539D01*
X144573636Y-66671849D01*
X144640964Y-66690523D01*
X144687507Y-66742634D01*
X144699500Y-66795835D01*
X144699500Y-82225500D01*
X144679815Y-82292539D01*
X144627011Y-82338294D01*
X144575500Y-82349500D01*
X132314500Y-82349500D01*
X132247461Y-82329815D01*
X132201706Y-82277011D01*
X132190500Y-82225500D01*
X132190500Y-79010000D01*
X133490001Y-79010000D01*
X133490001Y-79033322D01*
X133500144Y-79132607D01*
X133553452Y-79293481D01*
X133553457Y-79293492D01*
X133642424Y-79437728D01*
X133642427Y-79437732D01*
X133762267Y-79557572D01*
X133762271Y-79557575D01*
X133906507Y-79646542D01*
X133906518Y-79646547D01*
X134067393Y-79699855D01*
X134166683Y-79709999D01*
X134214999Y-79709998D01*
X134215000Y-79709998D01*
X134215000Y-79010000D01*
X134715000Y-79010000D01*
X134715000Y-79709999D01*
X134763308Y-79709999D01*
X134763322Y-79709998D01*
X134862607Y-79699855D01*
X135023481Y-79646547D01*
X135023492Y-79646542D01*
X135167728Y-79557575D01*
X135167732Y-79557572D01*
X135287572Y-79437732D01*
X135287575Y-79437728D01*
X135304678Y-79410000D01*
X135855000Y-79410000D01*
X135855000Y-79738149D01*
X135857899Y-79774989D01*
X135857900Y-79774995D01*
X135903716Y-79932693D01*
X135903717Y-79932696D01*
X135987314Y-80074052D01*
X135987321Y-80074061D01*
X136103438Y-80190178D01*
X136103447Y-80190185D01*
X136244801Y-80273781D01*
X136402514Y-80319600D01*
X136402511Y-80319600D01*
X136404998Y-80319795D01*
X136405000Y-80319795D01*
X136405000Y-79410000D01*
X136905000Y-79410000D01*
X136905000Y-80319795D01*
X136905001Y-80319795D01*
X136907486Y-80319600D01*
X137065198Y-80273781D01*
X137206552Y-80190185D01*
X137206561Y-80190178D01*
X137322678Y-80074061D01*
X137322685Y-80074052D01*
X137406282Y-79932696D01*
X137406283Y-79932693D01*
X137452099Y-79774995D01*
X137452100Y-79774989D01*
X137454999Y-79738149D01*
X137455000Y-79738134D01*
X137455000Y-79705760D01*
X138054500Y-79705760D01*
X138064426Y-79773891D01*
X138115803Y-79878985D01*
X138198514Y-79961696D01*
X138198515Y-79961696D01*
X138198517Y-79961698D01*
X138303607Y-80013073D01*
X138337673Y-80018036D01*
X138371739Y-80023000D01*
X138371740Y-80023000D01*
X138738261Y-80023000D01*
X138760971Y-80019691D01*
X138806393Y-80013073D01*
X138911483Y-79961698D01*
X138994198Y-79878983D01*
X139045573Y-79773893D01*
X139055500Y-79705760D01*
X139055500Y-79560700D01*
X139075185Y-79493661D01*
X139127989Y-79447906D01*
X139179500Y-79436700D01*
X139221428Y-79436700D01*
X139221433Y-79436699D01*
X139291803Y-79417844D01*
X139291804Y-79417844D01*
X139336755Y-79391890D01*
X139354898Y-79381415D01*
X140193294Y-78543019D01*
X140254617Y-78509534D01*
X140280975Y-78506700D01*
X140333871Y-78506700D01*
X140400910Y-78526385D01*
X140446665Y-78579189D01*
X140456344Y-78611303D01*
X140459352Y-78630299D01*
X140459352Y-78630300D01*
X140459353Y-78630303D01*
X140459354Y-78630304D01*
X140516950Y-78743342D01*
X140516952Y-78743344D01*
X140516954Y-78743347D01*
X140606652Y-78833045D01*
X140606656Y-78833048D01*
X140606658Y-78833050D01*
X140680597Y-78870724D01*
X140731391Y-78918696D01*
X140748300Y-78981207D01*
X140748300Y-79463185D01*
X140728615Y-79530224D01*
X140680597Y-79573669D01*
X140674155Y-79576951D01*
X140584454Y-79666652D01*
X140584451Y-79666657D01*
X140526852Y-79779698D01*
X140512000Y-79873475D01*
X140512000Y-80486517D01*
X140522792Y-80554657D01*
X140526854Y-80580304D01*
X140564186Y-80653572D01*
X140577082Y-80722239D01*
X140550806Y-80786980D01*
X140493700Y-80827237D01*
X140423894Y-80830229D01*
X140406249Y-80824427D01*
X140380820Y-80813894D01*
X140283709Y-80773670D01*
X140283708Y-80773669D01*
X140283706Y-80773669D01*
X140140001Y-80754750D01*
X140139999Y-80754750D01*
X139996291Y-80773670D01*
X139996287Y-80773671D01*
X139862377Y-80829137D01*
X139747379Y-80917379D01*
X139659137Y-81032377D01*
X139603671Y-81166287D01*
X139603670Y-81166291D01*
X139584750Y-81309999D01*
X139584750Y-81310000D01*
X139603670Y-81453708D01*
X139603671Y-81453712D01*
X139659137Y-81587622D01*
X139659138Y-81587624D01*
X139659139Y-81587625D01*
X139747379Y-81702621D01*
X139862375Y-81790861D01*
X139996291Y-81846330D01*
X140121755Y-81862848D01*
X140139999Y-81865250D01*
X140140000Y-81865250D01*
X140140001Y-81865250D01*
X140169091Y-81861419D01*
X140240010Y-81852083D01*
X140309044Y-81862848D01*
X140318196Y-81867636D01*
X140353197Y-81887844D01*
X140423568Y-81906699D01*
X140423572Y-81906700D01*
X140423575Y-81906700D01*
X142326428Y-81906700D01*
X142326433Y-81906699D01*
X142396803Y-81887844D01*
X142396804Y-81887844D01*
X142440096Y-81862848D01*
X142459898Y-81851415D01*
X143071415Y-81239898D01*
X143087652Y-81211775D01*
X143107844Y-81176804D01*
X143107844Y-81176803D01*
X143126699Y-81106433D01*
X143126700Y-81106427D01*
X143126700Y-80896814D01*
X143146385Y-80829775D01*
X143194405Y-80786329D01*
X143200842Y-80783050D01*
X143290550Y-80693342D01*
X143348146Y-80580304D01*
X143348146Y-80580302D01*
X143348147Y-80580301D01*
X143362999Y-80486524D01*
X143363000Y-80486519D01*
X143362999Y-79873482D01*
X143348146Y-79779696D01*
X143290550Y-79666658D01*
X143290546Y-79666654D01*
X143290545Y-79666652D01*
X143200847Y-79576954D01*
X143200844Y-79576952D01*
X143200842Y-79576950D01*
X143124017Y-79537805D01*
X143087801Y-79519352D01*
X142994024Y-79504500D01*
X142530982Y-79504500D01*
X142450019Y-79517323D01*
X142437196Y-79519354D01*
X142324158Y-79576950D01*
X142324157Y-79576951D01*
X142324152Y-79576954D01*
X142234454Y-79666652D01*
X142234451Y-79666657D01*
X142176852Y-79779698D01*
X142162000Y-79873475D01*
X142162000Y-80486517D01*
X142172792Y-80554657D01*
X142176854Y-80580304D01*
X142234450Y-80693342D01*
X142234452Y-80693344D01*
X142234454Y-80693347D01*
X142324152Y-80783045D01*
X142324154Y-80783046D01*
X142324158Y-80783050D01*
X142437196Y-80840646D01*
X142437197Y-80840646D01*
X142445891Y-80845076D01*
X142444895Y-80847029D01*
X142491756Y-80879073D01*
X142518952Y-80943433D01*
X142507036Y-81012279D01*
X142483441Y-81045245D01*
X142211706Y-81316981D01*
X142150383Y-81350466D01*
X142124025Y-81353300D01*
X140809695Y-81353300D01*
X140742656Y-81333615D01*
X140696901Y-81280811D01*
X140686756Y-81245485D01*
X140686020Y-81239898D01*
X140676330Y-81166291D01*
X140620861Y-81032375D01*
X140606116Y-81013160D01*
X140580923Y-80947994D01*
X140594960Y-80879549D01*
X140643774Y-80829559D01*
X140711865Y-80813894D01*
X140760786Y-80827189D01*
X140765437Y-80829559D01*
X140787198Y-80840647D01*
X140880975Y-80855499D01*
X140880981Y-80855500D01*
X141344018Y-80855499D01*
X141437804Y-80840646D01*
X141550842Y-80783050D01*
X141640550Y-80693342D01*
X141698146Y-80580304D01*
X141698146Y-80580302D01*
X141698147Y-80580301D01*
X141712999Y-80486524D01*
X141713000Y-80486519D01*
X141712999Y-79873482D01*
X141698146Y-79779696D01*
X141640550Y-79666658D01*
X141640546Y-79666654D01*
X141640545Y-79666652D01*
X141550847Y-79576954D01*
X141550844Y-79576952D01*
X141550842Y-79576950D01*
X141437804Y-79519354D01*
X141437802Y-79519353D01*
X141437801Y-79519353D01*
X141406299Y-79514363D01*
X141343165Y-79484432D01*
X141306235Y-79425120D01*
X141301700Y-79391890D01*
X141301700Y-79001589D01*
X141321385Y-78934550D01*
X141369405Y-78891105D01*
X141483338Y-78833052D01*
X141483337Y-78833052D01*
X141483342Y-78833050D01*
X141573050Y-78743342D01*
X141630646Y-78630304D01*
X141630646Y-78630302D01*
X141630647Y-78630301D01*
X141644156Y-78545004D01*
X141645500Y-78536519D01*
X141645499Y-77923482D01*
X141630646Y-77829696D01*
X141573050Y-77716658D01*
X141573046Y-77716654D01*
X141573045Y-77716652D01*
X141483347Y-77626954D01*
X141483344Y-77626952D01*
X141483342Y-77626950D01*
X141406517Y-77587805D01*
X141370301Y-77569352D01*
X141276524Y-77554500D01*
X140813482Y-77554500D01*
X140732519Y-77567323D01*
X140719696Y-77569354D01*
X140606658Y-77626950D01*
X140606657Y-77626951D01*
X140606652Y-77626954D01*
X140516954Y-77716652D01*
X140516951Y-77716657D01*
X140516950Y-77716658D01*
X140482878Y-77783528D01*
X140459354Y-77829696D01*
X140456345Y-77848697D01*
X140426416Y-77911832D01*
X140367105Y-77948764D01*
X140333871Y-77953300D01*
X140078566Y-77953300D01*
X140008196Y-77972155D01*
X140008195Y-77972155D01*
X139945107Y-78008581D01*
X139945098Y-78008587D01*
X139266363Y-78687323D01*
X139205040Y-78720808D01*
X139135348Y-78715824D01*
X139079415Y-78673952D01*
X139055978Y-78617520D01*
X139045573Y-78546108D01*
X139045573Y-78546107D01*
X138994198Y-78441017D01*
X138994196Y-78441015D01*
X138994196Y-78441014D01*
X138911485Y-78358303D01*
X138806391Y-78306926D01*
X138738261Y-78297000D01*
X138738260Y-78297000D01*
X138371740Y-78297000D01*
X138371739Y-78297000D01*
X138303608Y-78306926D01*
X138198514Y-78358303D01*
X138115803Y-78441014D01*
X138064426Y-78546108D01*
X138054500Y-78614239D01*
X138054500Y-79705760D01*
X137455000Y-79705760D01*
X137455000Y-79410000D01*
X136905000Y-79410000D01*
X136405000Y-79410000D01*
X135855000Y-79410000D01*
X135304678Y-79410000D01*
X135376542Y-79293492D01*
X135376547Y-79293481D01*
X135429855Y-79132606D01*
X135439999Y-79033322D01*
X135440000Y-79033309D01*
X135440000Y-79010000D01*
X134715000Y-79010000D01*
X134215000Y-79010000D01*
X133490001Y-79010000D01*
X132190500Y-79010000D01*
X132190500Y-78910000D01*
X135855000Y-78910000D01*
X136405000Y-78910000D01*
X136405000Y-78000203D01*
X136905000Y-78000203D01*
X136905000Y-78910000D01*
X137455000Y-78910000D01*
X137455000Y-78581865D01*
X137454999Y-78581850D01*
X137452100Y-78545010D01*
X137452099Y-78545004D01*
X137406283Y-78387306D01*
X137406282Y-78387303D01*
X137322685Y-78245947D01*
X137322678Y-78245938D01*
X137206561Y-78129821D01*
X137206552Y-78129814D01*
X137065196Y-78046217D01*
X137065193Y-78046216D01*
X136907494Y-78000400D01*
X136907497Y-78000400D01*
X136905000Y-78000203D01*
X136405000Y-78000203D01*
X136402503Y-78000400D01*
X136244806Y-78046216D01*
X136244803Y-78046217D01*
X136103447Y-78129814D01*
X136103438Y-78129821D01*
X135987321Y-78245938D01*
X135987314Y-78245947D01*
X135903717Y-78387303D01*
X135903716Y-78387306D01*
X135857900Y-78545004D01*
X135857899Y-78545010D01*
X135855000Y-78581850D01*
X135855000Y-78910000D01*
X132190500Y-78910000D01*
X132190500Y-67220483D01*
X132210185Y-67153444D01*
X132262989Y-67107689D01*
X132332147Y-67097745D01*
X132395703Y-67126770D01*
X132418303Y-67152654D01*
X132471429Y-67233969D01*
X132634236Y-67410825D01*
X132634239Y-67410827D01*
X132634242Y-67410830D01*
X132823924Y-67558466D01*
X132823930Y-67558470D01*
X132823933Y-67558472D01*
X133035344Y-67672882D01*
X133035347Y-67672883D01*
X133259563Y-67749856D01*
X133316578Y-67790241D01*
X133342709Y-67855041D01*
X133343300Y-67867137D01*
X133343300Y-68156433D01*
X133362155Y-68226803D01*
X133362155Y-68226804D01*
X133398581Y-68289892D01*
X133398587Y-68289901D01*
X134301005Y-69192319D01*
X134334490Y-69253642D01*
X134329506Y-69323334D01*
X134301005Y-69367681D01*
X133128587Y-70540098D01*
X133128585Y-70540101D01*
X133092154Y-70603199D01*
X133087931Y-70618962D01*
X133087931Y-70618964D01*
X133073300Y-70673568D01*
X133073300Y-73776433D01*
X133092155Y-73846803D01*
X133092155Y-73846804D01*
X133128581Y-73909892D01*
X133128587Y-73909901D01*
X133375426Y-74156739D01*
X133598585Y-74379898D01*
X133650102Y-74431415D01*
X133678223Y-74447651D01*
X133713197Y-74467844D01*
X133783568Y-74486699D01*
X133783572Y-74486700D01*
X133983733Y-74486700D01*
X134050772Y-74506385D01*
X134096527Y-74559189D01*
X134099116Y-74565839D01*
X134100280Y-74568125D01*
X134100281Y-74568126D01*
X134161472Y-74688220D01*
X134161474Y-74688222D01*
X134161476Y-74688225D01*
X134256774Y-74783523D01*
X134256778Y-74783526D01*
X134256780Y-74783528D01*
X134376874Y-74844719D01*
X134376876Y-74844719D01*
X134376878Y-74844720D01*
X134476507Y-74860500D01*
X134476512Y-74860500D01*
X135043493Y-74860500D01*
X135143121Y-74844720D01*
X135143121Y-74844719D01*
X135143126Y-74844719D01*
X135263220Y-74783528D01*
X135358528Y-74688220D01*
X135419719Y-74568126D01*
X135419719Y-74568124D01*
X135424149Y-74559431D01*
X135426405Y-74560580D01*
X135457773Y-74514707D01*
X135522131Y-74487508D01*
X135536267Y-74486700D01*
X135934025Y-74486700D01*
X136001064Y-74506385D01*
X136021707Y-74523020D01*
X136060098Y-74561412D01*
X136060101Y-74561414D01*
X136060102Y-74561415D01*
X136060105Y-74561417D01*
X136060107Y-74561418D01*
X136123195Y-74597844D01*
X136193566Y-74616699D01*
X136193572Y-74616700D01*
X136211894Y-74616700D01*
X136278933Y-74636385D01*
X136323295Y-74686241D01*
X136328302Y-74696484D01*
X136393996Y-74762178D01*
X136427481Y-74823501D01*
X136422497Y-74893193D01*
X136380625Y-74949126D01*
X136353767Y-74964420D01*
X136342378Y-74969137D01*
X136342375Y-74969138D01*
X136342375Y-74969139D01*
X136285290Y-75012942D01*
X136227379Y-75057379D01*
X136139137Y-75172377D01*
X136083671Y-75306287D01*
X136083670Y-75306291D01*
X136064750Y-75449999D01*
X136064750Y-75450000D01*
X136083670Y-75593708D01*
X136083671Y-75593712D01*
X136139137Y-75727622D01*
X136139138Y-75727624D01*
X136139139Y-75727625D01*
X136227379Y-75842621D01*
X136291639Y-75891930D01*
X136332840Y-75948356D01*
X136336995Y-76018102D01*
X136303833Y-76077985D01*
X136215802Y-76166016D01*
X136164426Y-76271108D01*
X136154500Y-76339239D01*
X136154500Y-76689300D01*
X136134815Y-76756339D01*
X136082011Y-76802094D01*
X136030500Y-76813300D01*
X135181052Y-76813300D01*
X135114013Y-76793615D01*
X135070567Y-76745595D01*
X135063526Y-76731777D01*
X134968225Y-76636476D01*
X134968221Y-76636473D01*
X134968220Y-76636472D01*
X134848126Y-76575281D01*
X134848124Y-76575280D01*
X134848121Y-76575279D01*
X134748493Y-76559500D01*
X134748488Y-76559500D01*
X134181512Y-76559500D01*
X134181507Y-76559500D01*
X134081878Y-76575279D01*
X133961778Y-76636473D01*
X133961774Y-76636476D01*
X133912463Y-76685788D01*
X133851140Y-76719273D01*
X133781448Y-76714289D01*
X133737101Y-76685788D01*
X133628019Y-76576706D01*
X133594534Y-76515383D01*
X133591700Y-76489025D01*
X133591700Y-76462720D01*
X133611385Y-76395681D01*
X133640212Y-76364345D01*
X133707621Y-76312621D01*
X133795861Y-76197625D01*
X133851330Y-76063709D01*
X133870250Y-75920000D01*
X133851330Y-75776291D01*
X133795861Y-75642375D01*
X133707621Y-75527379D01*
X133592625Y-75439139D01*
X133592624Y-75439138D01*
X133592622Y-75439137D01*
X133458712Y-75383671D01*
X133458710Y-75383670D01*
X133458709Y-75383670D01*
X133386854Y-75374210D01*
X133315001Y-75364750D01*
X133314999Y-75364750D01*
X133171291Y-75383670D01*
X133171287Y-75383671D01*
X133037377Y-75439137D01*
X132922379Y-75527379D01*
X132834137Y-75642377D01*
X132778671Y-75776287D01*
X132778670Y-75776291D01*
X132759750Y-75919999D01*
X132759750Y-75920000D01*
X132778670Y-76063708D01*
X132778671Y-76063712D01*
X132834137Y-76197622D01*
X132834138Y-76197624D01*
X132834139Y-76197625D01*
X132922379Y-76312621D01*
X132989786Y-76364345D01*
X133030989Y-76420772D01*
X133038300Y-76462720D01*
X133038300Y-76691433D01*
X133057155Y-76761803D01*
X133057155Y-76761804D01*
X133093581Y-76824892D01*
X133093587Y-76824901D01*
X133455387Y-77186700D01*
X133648585Y-77379898D01*
X133700102Y-77431415D01*
X133740814Y-77454920D01*
X133789029Y-77505488D01*
X133801286Y-77542908D01*
X133805279Y-77568123D01*
X133810865Y-77579085D01*
X133866472Y-77688220D01*
X133866474Y-77688222D01*
X133866476Y-77688225D01*
X133885424Y-77707173D01*
X133918909Y-77768496D01*
X133913925Y-77838188D01*
X133872053Y-77894121D01*
X133862841Y-77900392D01*
X133762268Y-77962426D01*
X133642427Y-78082267D01*
X133642424Y-78082271D01*
X133553457Y-78226507D01*
X133553452Y-78226518D01*
X133500144Y-78387393D01*
X133490000Y-78486677D01*
X133490000Y-78510000D01*
X135439999Y-78510000D01*
X135439999Y-78486692D01*
X135439998Y-78486677D01*
X135429855Y-78387392D01*
X135376547Y-78226518D01*
X135376542Y-78226507D01*
X135287575Y-78082271D01*
X135287572Y-78082267D01*
X135167732Y-77962427D01*
X135167728Y-77962424D01*
X135067159Y-77900392D01*
X135020434Y-77848444D01*
X135009213Y-77779482D01*
X135037056Y-77715400D01*
X135044565Y-77707182D01*
X135063528Y-77688220D01*
X135124719Y-77568126D01*
X135128713Y-77542908D01*
X135140055Y-77471302D01*
X135169984Y-77408167D01*
X135229296Y-77371236D01*
X135262528Y-77366700D01*
X136037924Y-77366700D01*
X136104963Y-77386385D01*
X136150718Y-77439189D01*
X136160628Y-77472822D01*
X136164426Y-77498891D01*
X136215803Y-77603985D01*
X136298514Y-77686696D01*
X136298515Y-77686696D01*
X136298517Y-77686698D01*
X136403607Y-77738073D01*
X136437673Y-77743036D01*
X136471739Y-77748000D01*
X136471740Y-77748000D01*
X136838261Y-77748000D01*
X136860971Y-77744691D01*
X136906393Y-77738073D01*
X137011483Y-77686698D01*
X137011485Y-77686696D01*
X137042319Y-77655863D01*
X137103642Y-77622378D01*
X137173334Y-77627362D01*
X137217681Y-77655863D01*
X137248514Y-77686696D01*
X137248515Y-77686696D01*
X137248517Y-77686698D01*
X137353607Y-77738073D01*
X137387673Y-77743036D01*
X137421739Y-77748000D01*
X137421740Y-77748000D01*
X137788261Y-77748000D01*
X137810971Y-77744691D01*
X137856393Y-77738073D01*
X137961483Y-77686698D01*
X137961485Y-77686696D01*
X137992319Y-77655863D01*
X138053642Y-77622378D01*
X138123334Y-77627362D01*
X138167681Y-77655863D01*
X138198514Y-77686696D01*
X138198515Y-77686696D01*
X138198517Y-77686698D01*
X138303607Y-77738073D01*
X138337673Y-77743036D01*
X138371739Y-77748000D01*
X138371740Y-77748000D01*
X138738261Y-77748000D01*
X138760971Y-77744691D01*
X138806393Y-77738073D01*
X138911483Y-77686698D01*
X138994198Y-77603983D01*
X139045573Y-77498893D01*
X139055500Y-77430760D01*
X139055500Y-77310700D01*
X139075185Y-77243661D01*
X139127989Y-77197906D01*
X139179500Y-77186700D01*
X139247280Y-77186700D01*
X139314319Y-77206385D01*
X139345654Y-77235212D01*
X139397379Y-77302621D01*
X139512375Y-77390861D01*
X139646291Y-77446330D01*
X139773280Y-77463048D01*
X139789999Y-77465250D01*
X139790000Y-77465250D01*
X139790001Y-77465250D01*
X139804977Y-77463278D01*
X139933709Y-77446330D01*
X140067625Y-77390861D01*
X140182621Y-77302621D01*
X140270861Y-77187625D01*
X140326330Y-77053709D01*
X140345250Y-76910000D01*
X140342443Y-76888679D01*
X140353208Y-76819644D01*
X140399588Y-76767388D01*
X140466857Y-76748502D01*
X140533657Y-76768982D01*
X140553063Y-76784812D01*
X140636774Y-76868523D01*
X140636778Y-76868526D01*
X140636780Y-76868528D01*
X140756874Y-76929719D01*
X140756876Y-76929719D01*
X140756878Y-76929720D01*
X140856507Y-76945500D01*
X140856512Y-76945500D01*
X141373493Y-76945500D01*
X141473121Y-76929720D01*
X141473121Y-76929719D01*
X141473126Y-76929719D01*
X141593220Y-76868528D01*
X141688528Y-76773220D01*
X141749719Y-76653126D01*
X141755977Y-76613615D01*
X141765500Y-76553493D01*
X141765500Y-75986506D01*
X141750519Y-75891928D01*
X141749719Y-75886874D01*
X141749717Y-75886870D01*
X141747168Y-75879023D01*
X141745169Y-75809182D01*
X141781247Y-75749348D01*
X141843947Y-75718517D01*
X141865097Y-75716700D01*
X141914903Y-75716700D01*
X141981942Y-75736385D01*
X142027697Y-75789189D01*
X142037641Y-75858347D01*
X142032832Y-75879023D01*
X142030280Y-75886876D01*
X142014500Y-75986506D01*
X142014500Y-76553493D01*
X142030279Y-76653121D01*
X142030280Y-76653124D01*
X142030281Y-76653126D01*
X142089313Y-76768982D01*
X142091473Y-76773221D01*
X142091476Y-76773225D01*
X142186774Y-76868523D01*
X142186778Y-76868526D01*
X142186780Y-76868528D01*
X142306874Y-76929719D01*
X142313694Y-76930799D01*
X142376830Y-76960727D01*
X142413763Y-77020037D01*
X142418300Y-77053273D01*
X142418300Y-77468601D01*
X142398615Y-77535640D01*
X142350596Y-77579085D01*
X142256659Y-77626949D01*
X142256652Y-77626954D01*
X142166954Y-77716652D01*
X142166951Y-77716657D01*
X142166950Y-77716658D01*
X142150980Y-77748000D01*
X142109352Y-77829698D01*
X142094500Y-77923475D01*
X142094500Y-78536517D01*
X142105292Y-78604657D01*
X142109354Y-78630304D01*
X142166950Y-78743342D01*
X142166952Y-78743344D01*
X142166954Y-78743347D01*
X142256652Y-78833045D01*
X142256654Y-78833046D01*
X142256658Y-78833050D01*
X142355279Y-78883300D01*
X142369698Y-78890647D01*
X142463475Y-78905499D01*
X142463481Y-78905500D01*
X142926518Y-78905499D01*
X143020304Y-78890646D01*
X143133342Y-78833050D01*
X143223050Y-78743342D01*
X143280646Y-78630304D01*
X143280646Y-78630302D01*
X143280647Y-78630301D01*
X143294156Y-78545004D01*
X143295500Y-78536519D01*
X143295499Y-77923482D01*
X143280646Y-77829696D01*
X143223050Y-77716658D01*
X143223046Y-77716654D01*
X143223045Y-77716652D01*
X143133347Y-77626954D01*
X143133343Y-77626951D01*
X143133342Y-77626950D01*
X143124369Y-77622378D01*
X143039404Y-77579085D01*
X142988609Y-77531110D01*
X142971700Y-77468601D01*
X142971700Y-77031908D01*
X142991385Y-76964869D01*
X143039403Y-76921425D01*
X143143220Y-76868528D01*
X143238528Y-76773220D01*
X143299719Y-76653126D01*
X143305977Y-76613615D01*
X143315500Y-76553493D01*
X143315500Y-75986506D01*
X143299720Y-75886878D01*
X143299719Y-75886876D01*
X143299719Y-75886874D01*
X143238528Y-75766780D01*
X143238526Y-75766778D01*
X143238523Y-75766774D01*
X143143225Y-75671476D01*
X143143221Y-75671473D01*
X143143220Y-75671472D01*
X143023126Y-75610281D01*
X143023125Y-75610280D01*
X143023122Y-75610279D01*
X142978843Y-75603266D01*
X142915709Y-75573335D01*
X142890858Y-75542796D01*
X142886419Y-75535108D01*
X142886416Y-75535105D01*
X142886415Y-75535102D01*
X142801312Y-75449999D01*
X142699813Y-75348499D01*
X142666328Y-75287176D01*
X142671312Y-75217484D01*
X142713184Y-75161551D01*
X142748492Y-75143111D01*
X142798484Y-75126545D01*
X142798492Y-75126542D01*
X142942728Y-75037575D01*
X142942732Y-75037572D01*
X143062572Y-74917732D01*
X143062575Y-74917728D01*
X143151542Y-74773492D01*
X143151547Y-74773481D01*
X143204855Y-74612606D01*
X143214999Y-74513322D01*
X143215000Y-74513309D01*
X143215000Y-74490000D01*
X141265001Y-74490000D01*
X141265001Y-74513322D01*
X141275144Y-74612607D01*
X141328452Y-74773481D01*
X141328457Y-74773492D01*
X141417424Y-74917728D01*
X141417427Y-74917732D01*
X141451314Y-74951619D01*
X141484799Y-75012942D01*
X141479815Y-75082634D01*
X141437943Y-75138567D01*
X141372479Y-75162984D01*
X141363633Y-75163300D01*
X140462802Y-75163300D01*
X140395763Y-75143615D01*
X140350008Y-75090811D01*
X140340064Y-75021653D01*
X140369089Y-74958097D01*
X140375121Y-74951619D01*
X140435178Y-74891561D01*
X140435185Y-74891552D01*
X140518781Y-74750198D01*
X140564600Y-74592486D01*
X140564795Y-74590001D01*
X140564795Y-74590000D01*
X138245205Y-74590000D01*
X138245204Y-74590001D01*
X138245399Y-74592486D01*
X138291218Y-74750198D01*
X138374814Y-74891552D01*
X138374821Y-74891561D01*
X138434879Y-74951619D01*
X138468364Y-75012942D01*
X138463380Y-75082634D01*
X138421508Y-75138567D01*
X138356044Y-75162984D01*
X138347198Y-75163300D01*
X137155047Y-75163300D01*
X137088008Y-75143615D01*
X137056673Y-75114789D01*
X137012621Y-75057379D01*
X137012618Y-75057376D01*
X137012616Y-75057374D01*
X137007423Y-75052181D01*
X136973938Y-74990858D01*
X136978922Y-74921166D01*
X137020794Y-74865233D01*
X137086258Y-74840816D01*
X137095104Y-74840500D01*
X137675761Y-74840500D01*
X137698471Y-74837191D01*
X137743893Y-74830573D01*
X137848983Y-74779198D01*
X137931698Y-74696483D01*
X137983073Y-74591393D01*
X137993000Y-74523260D01*
X137993000Y-74156740D01*
X137983276Y-74089998D01*
X138245204Y-74089998D01*
X138245205Y-74090000D01*
X139155000Y-74090000D01*
X139155000Y-73540000D01*
X139655000Y-73540000D01*
X139655000Y-74090000D01*
X140564795Y-74090000D01*
X140564795Y-74089998D01*
X140564600Y-74087513D01*
X140518781Y-73929801D01*
X140435185Y-73788447D01*
X140435178Y-73788438D01*
X140319061Y-73672321D01*
X140319052Y-73672314D01*
X140177696Y-73588717D01*
X140177693Y-73588716D01*
X140019995Y-73542900D01*
X140019989Y-73542899D01*
X139983149Y-73540000D01*
X139655000Y-73540000D01*
X139155000Y-73540000D01*
X138826850Y-73540000D01*
X138790010Y-73542899D01*
X138790004Y-73542900D01*
X138632306Y-73588716D01*
X138632303Y-73588717D01*
X138490947Y-73672314D01*
X138490938Y-73672321D01*
X138374821Y-73788438D01*
X138374814Y-73788447D01*
X138291218Y-73929801D01*
X138245399Y-74087513D01*
X138245204Y-74089998D01*
X137983276Y-74089998D01*
X137983073Y-74088607D01*
X137931698Y-73983517D01*
X137931696Y-73983515D01*
X137931696Y-73983514D01*
X137900863Y-73952681D01*
X137867378Y-73891358D01*
X137872362Y-73821666D01*
X137900863Y-73777319D01*
X137931696Y-73746485D01*
X137931698Y-73746483D01*
X137983073Y-73641393D01*
X137993000Y-73573260D01*
X137993000Y-73206740D01*
X137983073Y-73138607D01*
X137931698Y-73033517D01*
X137931696Y-73033515D01*
X137931696Y-73033514D01*
X137900863Y-73002681D01*
X137867378Y-72941358D01*
X137872362Y-72871666D01*
X137900863Y-72827319D01*
X137931696Y-72796485D01*
X137931698Y-72796483D01*
X137983073Y-72691393D01*
X137993000Y-72623260D01*
X138542000Y-72623260D01*
X138551926Y-72691391D01*
X138603303Y-72796485D01*
X138686014Y-72879196D01*
X138686015Y-72879196D01*
X138686017Y-72879198D01*
X138791107Y-72930573D01*
X138825173Y-72935536D01*
X138859239Y-72940500D01*
X138859240Y-72940500D01*
X139950761Y-72940500D01*
X139976841Y-72936700D01*
X140018893Y-72930573D01*
X140123983Y-72879198D01*
X140206698Y-72796483D01*
X140258073Y-72691393D01*
X140268000Y-72623260D01*
X140268000Y-72256740D01*
X140258073Y-72188607D01*
X140206698Y-72083517D01*
X140206696Y-72083515D01*
X140206696Y-72083514D01*
X140123985Y-72000803D01*
X140018891Y-71949426D01*
X139950761Y-71939500D01*
X139950760Y-71939500D01*
X138859240Y-71939500D01*
X138859239Y-71939500D01*
X138791108Y-71949426D01*
X138686014Y-72000803D01*
X138603303Y-72083514D01*
X138551926Y-72188608D01*
X138542000Y-72256739D01*
X138542000Y-72623260D01*
X137993000Y-72623260D01*
X137993000Y-72256740D01*
X137983073Y-72188607D01*
X137931698Y-72083517D01*
X137931696Y-72083515D01*
X137931696Y-72083514D01*
X137848985Y-72000803D01*
X137743891Y-71949426D01*
X137675761Y-71939500D01*
X137675760Y-71939500D01*
X137530700Y-71939500D01*
X137463661Y-71919815D01*
X137417906Y-71867011D01*
X137406700Y-71815500D01*
X137406700Y-71390000D01*
X141214750Y-71390000D01*
X141233670Y-71533708D01*
X141233671Y-71533712D01*
X141289137Y-71667622D01*
X141289138Y-71667624D01*
X141289139Y-71667625D01*
X141377379Y-71782621D01*
X141492375Y-71870861D01*
X141492376Y-71870861D01*
X141492377Y-71870862D01*
X141537013Y-71889350D01*
X141626291Y-71926330D01*
X141642652Y-71928484D01*
X141706545Y-71956747D01*
X141745018Y-72015071D01*
X141745851Y-72084935D01*
X141714148Y-72139103D01*
X141641473Y-72211778D01*
X141580279Y-72331878D01*
X141564500Y-72431506D01*
X141564500Y-72948493D01*
X141580279Y-73048121D01*
X141580280Y-73048124D01*
X141580281Y-73048126D01*
X141626384Y-73138608D01*
X141641473Y-73168221D01*
X141641476Y-73168225D01*
X141660424Y-73187173D01*
X141693909Y-73248496D01*
X141688925Y-73318188D01*
X141647053Y-73374121D01*
X141637841Y-73380392D01*
X141537268Y-73442426D01*
X141417427Y-73562267D01*
X141417424Y-73562271D01*
X141328457Y-73706507D01*
X141328452Y-73706518D01*
X141275144Y-73867393D01*
X141265000Y-73966677D01*
X141265000Y-73990000D01*
X143214999Y-73990000D01*
X143214999Y-73966692D01*
X143214998Y-73966677D01*
X143204855Y-73867392D01*
X143151547Y-73706518D01*
X143151542Y-73706507D01*
X143062575Y-73562271D01*
X143062572Y-73562267D01*
X142942732Y-73442427D01*
X142942728Y-73442424D01*
X142842159Y-73380392D01*
X142795434Y-73328444D01*
X142784213Y-73259482D01*
X142812056Y-73195400D01*
X142819565Y-73187182D01*
X142838528Y-73168220D01*
X142899719Y-73048126D01*
X142902033Y-73033517D01*
X142915500Y-72948493D01*
X142915500Y-72431506D01*
X142899720Y-72331878D01*
X142899719Y-72331876D01*
X142899719Y-72331874D01*
X142838528Y-72211780D01*
X142838526Y-72211778D01*
X142838523Y-72211774D01*
X142743225Y-72116476D01*
X142743221Y-72116473D01*
X142743220Y-72116472D01*
X142623126Y-72055281D01*
X142623123Y-72055280D01*
X142623122Y-72055280D01*
X142621298Y-72054991D01*
X142619256Y-72054023D01*
X142613840Y-72052263D01*
X142614067Y-72051562D01*
X142558164Y-72025059D01*
X142521235Y-71965746D01*
X142516700Y-71932518D01*
X142516700Y-71823575D01*
X142516699Y-71823568D01*
X142497844Y-71753198D01*
X142497844Y-71753196D01*
X142461418Y-71690108D01*
X142461415Y-71690102D01*
X142409898Y-71638585D01*
X142349417Y-71578104D01*
X142315932Y-71516781D01*
X142314159Y-71474241D01*
X142325250Y-71390000D01*
X142306330Y-71246291D01*
X142250861Y-71112375D01*
X142162621Y-70997379D01*
X142047625Y-70909139D01*
X142047624Y-70909138D01*
X142047622Y-70909137D01*
X141913712Y-70853671D01*
X141913710Y-70853670D01*
X141913709Y-70853670D01*
X141827917Y-70842375D01*
X141770001Y-70834750D01*
X141769999Y-70834750D01*
X141626291Y-70853670D01*
X141626287Y-70853671D01*
X141492377Y-70909137D01*
X141377379Y-70997379D01*
X141289137Y-71112377D01*
X141233671Y-71246287D01*
X141233670Y-71246291D01*
X141214750Y-71389999D01*
X141214750Y-71390000D01*
X137406700Y-71390000D01*
X137406700Y-70370086D01*
X137426385Y-70303047D01*
X137479189Y-70257292D01*
X137483248Y-70255525D01*
X137483949Y-70255234D01*
X137483951Y-70255232D01*
X137483954Y-70255232D01*
X137666450Y-70157685D01*
X137826410Y-70026410D01*
X137957685Y-69866450D01*
X138055232Y-69683954D01*
X138115300Y-69485934D01*
X138135583Y-69280000D01*
X138115300Y-69074066D01*
X138055232Y-68876046D01*
X137957685Y-68693550D01*
X137905702Y-68630209D01*
X137826410Y-68533589D01*
X137676121Y-68410252D01*
X137666450Y-68402315D01*
X137483954Y-68304768D01*
X137285934Y-68244700D01*
X137285932Y-68244699D01*
X137285934Y-68244699D01*
X137080000Y-68224417D01*
X136874067Y-68244699D01*
X136676043Y-68304769D01*
X136588114Y-68351769D01*
X136493550Y-68402315D01*
X136493548Y-68402316D01*
X136493547Y-68402317D01*
X136333589Y-68533589D01*
X136202317Y-68693547D01*
X136104767Y-68876047D01*
X136092861Y-68915296D01*
X136054563Y-68973735D01*
X135990751Y-69002191D01*
X135974201Y-69003300D01*
X134945975Y-69003300D01*
X134878936Y-68983615D01*
X134858294Y-68966981D01*
X133933019Y-68041706D01*
X133899534Y-67980383D01*
X133896700Y-67954025D01*
X133896700Y-67867137D01*
X133916385Y-67800098D01*
X133969189Y-67754343D01*
X133980437Y-67749856D01*
X134005034Y-67741412D01*
X134204656Y-67672882D01*
X134416067Y-67558472D01*
X134605764Y-67410825D01*
X134768571Y-67233969D01*
X134900049Y-67032728D01*
X134996610Y-66812591D01*
X135055620Y-66579563D01*
X135074892Y-66346989D01*
X135075471Y-66340005D01*
X135075471Y-66339994D01*
X135055620Y-66100440D01*
X135055620Y-66100437D01*
X134996610Y-65867409D01*
X134900049Y-65647272D01*
X134768571Y-65446031D01*
X134605764Y-65269175D01*
X134605759Y-65269171D01*
X134605757Y-65269169D01*
X134468520Y-65162353D01*
X134427707Y-65105643D01*
X134424032Y-65035870D01*
X134458664Y-64975187D01*
X134520605Y-64942860D01*
X134544682Y-64940500D01*
X136188648Y-64940500D01*
X136255687Y-64960185D01*
G37*
G04 #@! TD.AperFunction*
M02*
