G04 #@! TF.GenerationSoftware,KiCad,Pcbnew,8.0.1*
G04 #@! TF.CreationDate,2025-03-18T21:27:00-06:00*
G04 #@! TF.ProjectId,Temperature_Flex_boost,54656d70-6572-4617-9475-72655f466c65,rev?*
G04 #@! TF.SameCoordinates,Original*
G04 #@! TF.FileFunction,Copper,L1,Top*
G04 #@! TF.FilePolarity,Positive*
%FSLAX46Y46*%
G04 Gerber Fmt 4.6, Leading zero omitted, Abs format (unit mm)*
G04 Created by KiCad (PCBNEW 8.0.1) date 2025-03-18 21:27:00*
%MOMM*%
%LPD*%
G01*
G04 APERTURE LIST*
G04 Aperture macros list*
%AMRoundRect*
0 Rectangle with rounded corners*
0 $1 Rounding radius*
0 $2 $3 $4 $5 $6 $7 $8 $9 X,Y pos of 4 corners*
0 Add a 4 corners polygon primitive as box body*
4,1,4,$2,$3,$4,$5,$6,$7,$8,$9,$2,$3,0*
0 Add four circle primitives for the rounded corners*
1,1,$1+$1,$2,$3*
1,1,$1+$1,$4,$5*
1,1,$1+$1,$6,$7*
1,1,$1+$1,$8,$9*
0 Add four rect primitives between the rounded corners*
20,1,$1+$1,$2,$3,$4,$5,0*
20,1,$1+$1,$4,$5,$6,$7,0*
20,1,$1+$1,$6,$7,$8,$9,0*
20,1,$1+$1,$8,$9,$2,$3,0*%
G04 Aperture macros list end*
G04 #@! TA.AperFunction,SMDPad,CuDef*
%ADD10RoundRect,0.225000X0.225000X0.250000X-0.225000X0.250000X-0.225000X-0.250000X0.225000X-0.250000X0*%
G04 #@! TD*
G04 #@! TA.AperFunction,SMDPad,CuDef*
%ADD11R,0.399999X0.850001*%
G04 #@! TD*
G04 #@! TA.AperFunction,SMDPad,CuDef*
%ADD12RoundRect,0.225000X-0.225000X-0.250000X0.225000X-0.250000X0.225000X0.250000X-0.225000X0.250000X0*%
G04 #@! TD*
G04 #@! TA.AperFunction,SMDPad,CuDef*
%ADD13R,0.609600X1.625600*%
G04 #@! TD*
G04 #@! TA.AperFunction,SMDPad,CuDef*
%ADD14RoundRect,0.200000X-0.200000X-0.275000X0.200000X-0.275000X0.200000X0.275000X-0.200000X0.275000X0*%
G04 #@! TD*
G04 #@! TA.AperFunction,SMDPad,CuDef*
%ADD15RoundRect,0.200000X-0.275000X0.200000X-0.275000X-0.200000X0.275000X-0.200000X0.275000X0.200000X0*%
G04 #@! TD*
G04 #@! TA.AperFunction,SMDPad,CuDef*
%ADD16RoundRect,0.250001X-0.462499X-0.849999X0.462499X-0.849999X0.462499X0.849999X-0.462499X0.849999X0*%
G04 #@! TD*
G04 #@! TA.AperFunction,SMDPad,CuDef*
%ADD17O,1.649999X0.650001*%
G04 #@! TD*
G04 #@! TA.AperFunction,SMDPad,CuDef*
%ADD18RoundRect,0.200000X0.275000X-0.200000X0.275000X0.200000X-0.275000X0.200000X-0.275000X-0.200000X0*%
G04 #@! TD*
G04 #@! TA.AperFunction,SMDPad,CuDef*
%ADD19R,0.599999X1.000000*%
G04 #@! TD*
G04 #@! TA.AperFunction,SMDPad,CuDef*
%ADD20RoundRect,0.225000X0.250000X-0.225000X0.250000X0.225000X-0.250000X0.225000X-0.250000X-0.225000X0*%
G04 #@! TD*
G04 #@! TA.AperFunction,SMDPad,CuDef*
%ADD21R,1.416000X0.451600*%
G04 #@! TD*
G04 #@! TA.AperFunction,SMDPad,CuDef*
%ADD22RoundRect,0.225000X-0.250000X0.225000X-0.250000X-0.225000X0.250000X-0.225000X0.250000X0.225000X0*%
G04 #@! TD*
G04 #@! TA.AperFunction,ComponentPad*
%ADD23R,1.700000X1.700000*%
G04 #@! TD*
G04 #@! TA.AperFunction,ComponentPad*
%ADD24O,1.700000X1.700000*%
G04 #@! TD*
G04 #@! TA.AperFunction,SMDPad,CuDef*
%ADD25RoundRect,0.150000X0.512500X0.150000X-0.512500X0.150000X-0.512500X-0.150000X0.512500X-0.150000X0*%
G04 #@! TD*
G04 #@! TA.AperFunction,ViaPad*
%ADD26C,0.600000*%
G04 #@! TD*
G04 #@! TA.AperFunction,Conductor*
%ADD27C,0.152400*%
G04 #@! TD*
G04 APERTURE END LIST*
D10*
X184960000Y-51290000D03*
X183410000Y-51290000D03*
D11*
X198080000Y-67020001D03*
X198730001Y-67020001D03*
X199380000Y-67020001D03*
X199380000Y-64770000D03*
X198730001Y-64770000D03*
X198080000Y-64770000D03*
D12*
X192210000Y-52600000D03*
X193760000Y-52600000D03*
D13*
X190340040Y-74540000D03*
X192239960Y-74540000D03*
X191290000Y-72406400D03*
D14*
X196620000Y-72290000D03*
X198270000Y-72290000D03*
D15*
X183280000Y-62270000D03*
X183280000Y-63920000D03*
D16*
X183025000Y-56590000D03*
X185350000Y-56590000D03*
D12*
X192210000Y-54310000D03*
X193760000Y-54310000D03*
X186150000Y-74550000D03*
X187700000Y-74550000D03*
X192220000Y-50850000D03*
X193770000Y-50850000D03*
D17*
X186320000Y-62490000D03*
X186320000Y-63760000D03*
X186320000Y-65030000D03*
X186320000Y-66300000D03*
X191969999Y-66300000D03*
X191969999Y-65030000D03*
X191969999Y-63760000D03*
X191969999Y-62490000D03*
D18*
X200400000Y-57020000D03*
X200400000Y-55370000D03*
D14*
X196650000Y-74700000D03*
X198300000Y-74700000D03*
D15*
X197780000Y-61250000D03*
X197780000Y-62900000D03*
D19*
X187850001Y-54000000D03*
X188800002Y-54000000D03*
X189750000Y-54000000D03*
X189750000Y-51250000D03*
X187850001Y-51250000D03*
D20*
X194830000Y-67490000D03*
X194830000Y-65940000D03*
D12*
X186800000Y-59530000D03*
X188350000Y-59530000D03*
D21*
X190251600Y-56600000D03*
X187850000Y-56600000D03*
D22*
X193700000Y-56540000D03*
X193700000Y-58090000D03*
D23*
X187690000Y-48100000D03*
D24*
X190230000Y-48100000D03*
X192770000Y-48100000D03*
X195310000Y-48100000D03*
D25*
X198095000Y-58080000D03*
X198095000Y-57130000D03*
X198095000Y-56180000D03*
X195820000Y-56180000D03*
X195820000Y-58080000D03*
D22*
X194910000Y-62460000D03*
X194910000Y-64010000D03*
D12*
X189050000Y-68680000D03*
X190600000Y-68680000D03*
X190400000Y-59520000D03*
X191950000Y-59520000D03*
D26*
X188130000Y-64280000D03*
X189800000Y-65410000D03*
X197280000Y-68670000D03*
X191970000Y-58030000D03*
X185150000Y-69250000D03*
X199500000Y-61950000D03*
X186900000Y-72330000D03*
X193800000Y-61170000D03*
X197060000Y-59900000D03*
D27*
X190600000Y-68680000D02*
X191280000Y-68680000D01*
X191280000Y-68680000D02*
X191969999Y-67990001D01*
X191969999Y-67990001D02*
X191969999Y-66300000D01*
X185540000Y-63760000D02*
X186320000Y-63760000D01*
X194020000Y-65940000D02*
X193110000Y-65030000D01*
X193110000Y-65030000D02*
X191969999Y-65030000D01*
X187610000Y-63760000D02*
X186320000Y-63760000D01*
X188130000Y-64280000D02*
X187610000Y-63760000D01*
X194830000Y-65940000D02*
X194020000Y-65940000D01*
X191969999Y-65030000D02*
X190180000Y-65030000D01*
X184050000Y-62270000D02*
X185540000Y-63760000D01*
X190180000Y-65030000D02*
X189800000Y-65410000D01*
X183280000Y-62270000D02*
X184050000Y-62270000D01*
X195820000Y-56180000D02*
X195820000Y-51150000D01*
X195820000Y-51150000D02*
X192770000Y-48100000D01*
X198095000Y-56180000D02*
X199050000Y-56180000D01*
X198520000Y-52260000D02*
X198520000Y-51310000D01*
X199050000Y-56180000D02*
X199860000Y-55370000D01*
X200400000Y-54140000D02*
X198520000Y-52260000D01*
X200400000Y-55370000D02*
X200400000Y-54140000D01*
X198520000Y-51310000D02*
X195310000Y-48100000D01*
X199860000Y-55370000D02*
X200400000Y-55370000D01*
X198080000Y-63900000D02*
X197780000Y-63600000D01*
X186320000Y-65030000D02*
X188640000Y-65030000D01*
X197780000Y-63600000D02*
X197780000Y-62900000D01*
X185050000Y-65030000D02*
X183940000Y-63920000D01*
X195380000Y-60590000D02*
X196130000Y-61340000D01*
X196770000Y-62900000D02*
X197780000Y-62900000D01*
X196130000Y-61340000D02*
X196130000Y-62260000D01*
X183940000Y-63920000D02*
X183280000Y-63920000D01*
X198080000Y-64770000D02*
X198080000Y-64280000D01*
X198080000Y-64670001D02*
X198080000Y-63900000D01*
X186320000Y-65030000D02*
X185050000Y-65030000D01*
X190680000Y-60590000D02*
X195380000Y-60590000D01*
X196130000Y-62260000D02*
X196770000Y-62900000D01*
X188640000Y-65030000D02*
X189260000Y-64410000D01*
X189260000Y-64410000D02*
X189260000Y-62010000D01*
X189260000Y-62010000D02*
X190680000Y-60590000D01*
X192239960Y-73290040D02*
X192895000Y-72635000D01*
X192239960Y-74540000D02*
X192239960Y-73290040D01*
X193240000Y-72290000D02*
X192895000Y-72635000D01*
X196620000Y-72290000D02*
X193240000Y-72290000D01*
X199380000Y-63960000D02*
X200330000Y-63010000D01*
X200330000Y-63010000D02*
X200330000Y-58760000D01*
X200330000Y-58760000D02*
X199650000Y-58080000D01*
X199650000Y-58080000D02*
X198095000Y-58080000D01*
X199380000Y-64770000D02*
X199380000Y-63960000D01*
X197780000Y-61250000D02*
X197780000Y-60620000D01*
X186320000Y-68080000D02*
X185150000Y-69250000D01*
X186900000Y-72330000D02*
X187700000Y-73130000D01*
X198080000Y-67870000D02*
X198080000Y-67020001D01*
X191550000Y-50850000D02*
X191150000Y-51250000D01*
X195820000Y-58080000D02*
X193710000Y-58080000D01*
X186290000Y-66330000D02*
X186320000Y-66300000D01*
X191999999Y-62460000D02*
X191969999Y-62490000D01*
X192210000Y-55810000D02*
X192210000Y-54310000D01*
X195820000Y-58080000D02*
X195740000Y-58080000D01*
X191150000Y-51250000D02*
X189750000Y-51250000D01*
X193700000Y-58090000D02*
X192030000Y-58090000D01*
X191970000Y-58030000D02*
X190830000Y-58030000D01*
X187710000Y-74540000D02*
X187700000Y-74550000D01*
X192220000Y-50850000D02*
X191550000Y-50850000D01*
X190830000Y-58030000D02*
X190251600Y-57451600D01*
X195740000Y-58080000D02*
X195510000Y-57850000D01*
X192019999Y-62440000D02*
X191969999Y-62490000D01*
X190340040Y-74540000D02*
X187710000Y-74540000D01*
X192220000Y-54300000D02*
X192210000Y-54310000D01*
X193800000Y-61170000D02*
X194170000Y-61170000D01*
X192030000Y-58090000D02*
X191970000Y-58030000D01*
X197280000Y-68670000D02*
X198080000Y-67870000D01*
X193700000Y-59200000D02*
X193700000Y-58090000D01*
X194910000Y-62460000D02*
X191999999Y-62460000D01*
X198730001Y-62719999D02*
X198730001Y-64770000D01*
X192220000Y-50850000D02*
X192220000Y-54300000D01*
X186320000Y-66300000D02*
X186320000Y-68080000D01*
X193380000Y-59520000D02*
X193700000Y-59200000D01*
X191420000Y-56600000D02*
X192210000Y-55810000D01*
X190251600Y-56600000D02*
X191420000Y-56600000D01*
X199500000Y-61950000D02*
X198730001Y-62719999D01*
X194170000Y-61170000D02*
X194910000Y-61910000D01*
X191950000Y-59520000D02*
X193380000Y-59520000D01*
X193710000Y-58080000D02*
X193700000Y-58090000D01*
X187700000Y-73130000D02*
X187700000Y-74550000D01*
X190251600Y-57451600D02*
X190251600Y-56600000D01*
X194910000Y-61910000D02*
X194910000Y-62460000D01*
X197780000Y-60620000D02*
X197060000Y-59900000D01*
X190390000Y-59530000D02*
X190400000Y-59520000D01*
X188350000Y-59530000D02*
X190390000Y-59530000D01*
X198270000Y-73070000D02*
X198270000Y-72290000D01*
X198270000Y-72290000D02*
X198950000Y-72290000D01*
X197960000Y-73380000D02*
X198270000Y-73070000D01*
X199380000Y-71860000D02*
X199380000Y-67120001D01*
X196650000Y-74700000D02*
X196650000Y-74070000D01*
X196650000Y-74070000D02*
X197340000Y-73380000D01*
X198950000Y-72290000D02*
X199380000Y-71860000D01*
X197340000Y-73380000D02*
X197960000Y-73380000D01*
G04 #@! TA.AperFunction,Conductor*
G36*
X201347826Y-46282174D02*
G01*
X201369500Y-46334500D01*
X201369500Y-56350312D01*
X201347826Y-56402638D01*
X201295500Y-56424312D01*
X201243174Y-56402638D01*
X201232172Y-56388595D01*
X201230074Y-56385125D01*
X201109874Y-56264925D01*
X200964393Y-56176979D01*
X200802109Y-56126410D01*
X200802099Y-56126408D01*
X200731582Y-56120000D01*
X200650000Y-56120000D01*
X200650000Y-57919999D01*
X200731571Y-57919999D01*
X200731583Y-57919998D01*
X200802102Y-57913591D01*
X200802106Y-57913590D01*
X200964393Y-57863020D01*
X201109874Y-57775074D01*
X201230075Y-57654873D01*
X201232170Y-57651408D01*
X201277786Y-57617838D01*
X201333779Y-57626357D01*
X201367349Y-57671973D01*
X201369500Y-57689687D01*
X201369500Y-76355500D01*
X201347826Y-76407826D01*
X201295500Y-76429500D01*
X181824500Y-76429500D01*
X181772174Y-76407826D01*
X181750500Y-76355500D01*
X181750500Y-74800000D01*
X185200001Y-74800000D01*
X185200001Y-74848312D01*
X185210144Y-74947608D01*
X185263452Y-75108482D01*
X185352426Y-75252731D01*
X185472268Y-75372573D01*
X185616517Y-75461547D01*
X185777391Y-75514855D01*
X185876689Y-75524999D01*
X185900000Y-75524999D01*
X185900000Y-74800000D01*
X185200001Y-74800000D01*
X181750500Y-74800000D01*
X181750500Y-74300000D01*
X185200000Y-74300000D01*
X185900000Y-74300000D01*
X185900000Y-73575000D01*
X185876693Y-73575000D01*
X185876686Y-73575001D01*
X185777391Y-73585144D01*
X185616517Y-73638452D01*
X185472268Y-73727426D01*
X185352426Y-73847268D01*
X185263452Y-73991517D01*
X185210144Y-74152391D01*
X185200000Y-74251688D01*
X185200000Y-74300000D01*
X181750500Y-74300000D01*
X181750500Y-72330000D01*
X186394353Y-72330000D01*
X186414834Y-72472454D01*
X186414834Y-72472455D01*
X186414835Y-72472457D01*
X186457875Y-72566700D01*
X186474623Y-72603373D01*
X186568868Y-72712139D01*
X186568869Y-72712140D01*
X186568872Y-72712143D01*
X186689947Y-72789953D01*
X186796403Y-72821211D01*
X186828035Y-72830499D01*
X186828037Y-72830500D01*
X186977254Y-72830500D01*
X186977254Y-72833512D01*
X187022662Y-72845055D01*
X187030699Y-72852012D01*
X187401626Y-73222939D01*
X187423300Y-73275265D01*
X187423300Y-73814182D01*
X187401626Y-73866508D01*
X187360877Y-73887271D01*
X187341877Y-73890280D01*
X187341871Y-73890282D01*
X187221780Y-73951471D01*
X187157448Y-74015803D01*
X187105121Y-74037477D01*
X187052796Y-74015803D01*
X187038056Y-73994751D01*
X187036550Y-73991522D01*
X186947573Y-73847268D01*
X186827731Y-73727426D01*
X186683482Y-73638452D01*
X186522608Y-73585144D01*
X186423311Y-73575000D01*
X186400000Y-73575000D01*
X186400000Y-75524999D01*
X186423307Y-75524999D01*
X186423312Y-75524998D01*
X186522608Y-75514855D01*
X186683482Y-75461547D01*
X186827731Y-75372573D01*
X186947573Y-75252731D01*
X187036546Y-75108483D01*
X187038054Y-75105251D01*
X187079810Y-75066986D01*
X187136393Y-75069454D01*
X187157448Y-75084196D01*
X187221780Y-75148528D01*
X187341874Y-75209719D01*
X187441511Y-75225500D01*
X187441512Y-75225500D01*
X187958489Y-75225500D01*
X188008307Y-75217609D01*
X188058126Y-75209719D01*
X188178220Y-75148528D01*
X188273528Y-75053220D01*
X188334719Y-74933126D01*
X188343272Y-74879123D01*
X188372865Y-74830833D01*
X188416361Y-74816700D01*
X189760740Y-74816700D01*
X189813066Y-74838374D01*
X189834740Y-74890700D01*
X189834740Y-75372548D01*
X189842165Y-75409874D01*
X189846373Y-75431032D01*
X189866763Y-75461547D01*
X189890688Y-75497352D01*
X189932064Y-75524999D01*
X189957007Y-75541666D01*
X189957008Y-75541666D01*
X189957009Y-75541667D01*
X190015492Y-75553300D01*
X190015494Y-75553300D01*
X190664586Y-75553300D01*
X190664588Y-75553300D01*
X190723071Y-75541667D01*
X190789392Y-75497352D01*
X190833707Y-75431031D01*
X190845340Y-75372548D01*
X190845340Y-73791687D01*
X190867014Y-73739361D01*
X190919340Y-73717687D01*
X190927256Y-73718112D01*
X190937367Y-73719199D01*
X190937369Y-73719200D01*
X191040000Y-73719200D01*
X191540000Y-73719200D01*
X191642631Y-73719200D01*
X191642632Y-73719199D01*
X191652744Y-73718112D01*
X191707088Y-73734064D01*
X191734235Y-73783771D01*
X191734660Y-73791687D01*
X191734660Y-75372548D01*
X191742085Y-75409874D01*
X191746293Y-75431032D01*
X191766683Y-75461547D01*
X191790608Y-75497352D01*
X191831984Y-75524999D01*
X191856927Y-75541666D01*
X191856928Y-75541666D01*
X191856929Y-75541667D01*
X191915412Y-75553300D01*
X191915414Y-75553300D01*
X192564506Y-75553300D01*
X192564508Y-75553300D01*
X192622991Y-75541667D01*
X192689312Y-75497352D01*
X192733627Y-75431031D01*
X192745260Y-75372548D01*
X192745260Y-75006519D01*
X196049500Y-75006519D01*
X196064353Y-75100304D01*
X196064354Y-75100306D01*
X196088925Y-75148528D01*
X196121950Y-75213342D01*
X196211658Y-75303050D01*
X196324696Y-75360646D01*
X196418481Y-75375500D01*
X196881518Y-75375499D01*
X196881519Y-75375499D01*
X196975304Y-75360646D01*
X196975306Y-75360645D01*
X196977419Y-75359568D01*
X197088342Y-75303050D01*
X197178050Y-75213342D01*
X197235646Y-75100304D01*
X197250500Y-75006519D01*
X197250500Y-74950000D01*
X197400001Y-74950000D01*
X197400001Y-75031583D01*
X197406408Y-75102102D01*
X197406409Y-75102106D01*
X197456979Y-75264393D01*
X197544925Y-75409874D01*
X197665125Y-75530074D01*
X197810606Y-75618020D01*
X197972890Y-75668589D01*
X197972901Y-75668591D01*
X198043421Y-75674999D01*
X198050000Y-75674998D01*
X198050000Y-74950000D01*
X198550000Y-74950000D01*
X198550000Y-75674999D01*
X198556571Y-75674999D01*
X198556583Y-75674998D01*
X198627102Y-75668591D01*
X198627106Y-75668590D01*
X198789393Y-75618020D01*
X198934874Y-75530074D01*
X199055074Y-75409874D01*
X199143020Y-75264393D01*
X199193589Y-75102109D01*
X199193591Y-75102099D01*
X199199999Y-75031582D01*
X199200000Y-75031573D01*
X199200000Y-74950000D01*
X198550000Y-74950000D01*
X198050000Y-74950000D01*
X197400001Y-74950000D01*
X197250500Y-74950000D01*
X197250499Y-74393482D01*
X197246531Y-74368429D01*
X197235646Y-74299695D01*
X197235645Y-74299693D01*
X197178049Y-74186657D01*
X197103678Y-74112286D01*
X197082004Y-74059960D01*
X197103678Y-74007634D01*
X197253635Y-73857678D01*
X197432939Y-73678374D01*
X197485265Y-73656700D01*
X197752393Y-73656700D01*
X197804719Y-73678374D01*
X197826393Y-73730700D01*
X197804719Y-73783026D01*
X197790676Y-73794028D01*
X197665125Y-73869925D01*
X197544925Y-73990125D01*
X197456979Y-74135606D01*
X197406410Y-74297890D01*
X197406408Y-74297900D01*
X197400000Y-74368417D01*
X197400000Y-74450000D01*
X198050000Y-74450000D01*
X198050000Y-73725000D01*
X198550000Y-73725000D01*
X198550000Y-74450000D01*
X199199999Y-74450000D01*
X199199999Y-74368429D01*
X199199998Y-74368416D01*
X199193591Y-74297897D01*
X199193590Y-74297893D01*
X199143020Y-74135606D01*
X199055074Y-73990125D01*
X198934874Y-73869925D01*
X198789393Y-73781979D01*
X198627109Y-73731410D01*
X198627099Y-73731408D01*
X198556582Y-73725000D01*
X198550000Y-73725000D01*
X198050000Y-73725000D01*
X198050000Y-73698000D01*
X198047415Y-73691760D01*
X198069089Y-73639434D01*
X198084407Y-73627679D01*
X198129898Y-73601415D01*
X198491415Y-73239898D01*
X198527844Y-73176803D01*
X198546700Y-73106428D01*
X198546700Y-73033572D01*
X198546700Y-73020202D01*
X198568374Y-72967876D01*
X198590606Y-72954256D01*
X198590114Y-72953291D01*
X198650716Y-72922412D01*
X198708342Y-72893050D01*
X198798050Y-72803342D01*
X198855646Y-72690304D01*
X198865336Y-72629124D01*
X198894929Y-72580833D01*
X198938425Y-72566700D01*
X198986427Y-72566700D01*
X198986428Y-72566700D01*
X199056803Y-72547844D01*
X199119898Y-72511415D01*
X199601415Y-72029898D01*
X199637844Y-71966803D01*
X199656700Y-71896428D01*
X199656700Y-71823572D01*
X199656700Y-67674444D01*
X199678374Y-67622118D01*
X199689577Y-67612923D01*
X199724552Y-67589554D01*
X199768867Y-67523233D01*
X199780500Y-67464750D01*
X199780500Y-66575252D01*
X199768867Y-66516769D01*
X199766701Y-66513528D01*
X199746003Y-66482551D01*
X199724552Y-66450448D01*
X199702343Y-66435608D01*
X199658232Y-66406133D01*
X199658233Y-66406133D01*
X199628989Y-66400316D01*
X199599748Y-66394500D01*
X199439970Y-66394500D01*
X199387644Y-66372826D01*
X199375022Y-66355965D01*
X199373354Y-66352912D01*
X199287189Y-66237811D01*
X199172089Y-66151646D01*
X199172088Y-66151645D01*
X199037381Y-66101403D01*
X199037376Y-66101402D01*
X198977830Y-66095000D01*
X198930000Y-66095000D01*
X198930000Y-67945002D01*
X198977829Y-67945002D01*
X199021388Y-67940318D01*
X199075732Y-67956274D01*
X199102876Y-68005982D01*
X199103300Y-68013894D01*
X199103300Y-71714734D01*
X199081626Y-71767060D01*
X198962549Y-71886136D01*
X198910223Y-71907810D01*
X198857897Y-71886136D01*
X198844289Y-71867406D01*
X198798049Y-71776657D01*
X198708343Y-71686951D01*
X198708342Y-71686950D01*
X198595304Y-71629354D01*
X198595302Y-71629353D01*
X198595301Y-71629353D01*
X198501519Y-71614500D01*
X198038480Y-71614500D01*
X197944695Y-71629353D01*
X197944693Y-71629354D01*
X197831657Y-71686950D01*
X197741951Y-71776656D01*
X197684353Y-71889698D01*
X197669500Y-71983480D01*
X197669500Y-72596519D01*
X197684353Y-72690304D01*
X197684354Y-72690306D01*
X197741950Y-72803342D01*
X197831659Y-72893051D01*
X197889283Y-72922412D01*
X197926066Y-72965479D01*
X197921622Y-73021941D01*
X197908015Y-73040671D01*
X197867062Y-73081625D01*
X197814736Y-73103300D01*
X197303572Y-73103300D01*
X197291898Y-73106428D01*
X197233197Y-73122156D01*
X197233193Y-73122158D01*
X197170105Y-73158582D01*
X196428584Y-73900103D01*
X196428583Y-73900105D01*
X196392156Y-73963194D01*
X196389635Y-73972606D01*
X196389634Y-73972605D01*
X196389634Y-73972609D01*
X196386273Y-73985152D01*
X196351794Y-74030085D01*
X196326376Y-74039087D01*
X196324703Y-74039352D01*
X196324698Y-74039353D01*
X196211656Y-74096951D01*
X196121951Y-74186656D01*
X196064353Y-74299698D01*
X196049500Y-74393480D01*
X196049500Y-75006519D01*
X192745260Y-75006519D01*
X192745260Y-73707452D01*
X192733627Y-73648969D01*
X192726193Y-73637844D01*
X192701852Y-73601415D01*
X192689312Y-73582648D01*
X192667103Y-73567808D01*
X192622992Y-73538333D01*
X192576223Y-73529030D01*
X192529131Y-73497564D01*
X192516660Y-73456452D01*
X192516660Y-73435305D01*
X192538334Y-73382979D01*
X193332939Y-72588374D01*
X193385265Y-72566700D01*
X195951576Y-72566700D01*
X196003902Y-72588374D01*
X196024665Y-72629125D01*
X196034353Y-72690304D01*
X196034354Y-72690306D01*
X196085127Y-72789952D01*
X196091950Y-72803342D01*
X196181658Y-72893050D01*
X196294696Y-72950646D01*
X196388481Y-72965500D01*
X196851518Y-72965499D01*
X196851519Y-72965499D01*
X196945304Y-72950646D01*
X196945306Y-72950645D01*
X196967699Y-72939235D01*
X197058342Y-72893050D01*
X197148050Y-72803342D01*
X197205646Y-72690304D01*
X197220500Y-72596519D01*
X197220499Y-71983482D01*
X197217858Y-71966809D01*
X197205646Y-71889695D01*
X197205645Y-71889693D01*
X197148049Y-71776657D01*
X197058343Y-71686951D01*
X197058342Y-71686950D01*
X196945304Y-71629354D01*
X196945302Y-71629353D01*
X196945301Y-71629353D01*
X196851519Y-71614500D01*
X196388480Y-71614500D01*
X196294695Y-71629353D01*
X196294693Y-71629354D01*
X196181657Y-71686950D01*
X196091951Y-71776656D01*
X196034353Y-71889698D01*
X196024664Y-71950876D01*
X195995071Y-71999167D01*
X195951575Y-72013300D01*
X193276428Y-72013300D01*
X193203572Y-72013300D01*
X193168384Y-72022728D01*
X193133196Y-72032156D01*
X193133190Y-72032159D01*
X193070105Y-72068583D01*
X193070103Y-72068584D01*
X192221126Y-72917561D01*
X192168800Y-72939235D01*
X192116474Y-72917561D01*
X192094800Y-72865235D01*
X192094800Y-72656400D01*
X191540000Y-72656400D01*
X191540000Y-73719200D01*
X191040000Y-73719200D01*
X191040000Y-72656400D01*
X190485200Y-72656400D01*
X190485200Y-73267028D01*
X190491602Y-73326575D01*
X190491603Y-73326580D01*
X190528998Y-73426840D01*
X190526977Y-73483441D01*
X190485524Y-73522034D01*
X190459664Y-73526700D01*
X190015492Y-73526700D01*
X189986250Y-73532516D01*
X189957007Y-73538333D01*
X189890689Y-73582647D01*
X189890687Y-73582649D01*
X189846373Y-73648967D01*
X189834740Y-73707453D01*
X189834740Y-74189300D01*
X189813066Y-74241626D01*
X189760740Y-74263300D01*
X188413193Y-74263300D01*
X188360867Y-74241626D01*
X188340104Y-74200875D01*
X188334719Y-74166873D01*
X188334718Y-74166872D01*
X188333552Y-74164584D01*
X188273528Y-74046780D01*
X188178220Y-73951472D01*
X188178219Y-73951471D01*
X188058128Y-73890282D01*
X188058127Y-73890281D01*
X188058126Y-73890281D01*
X188058124Y-73890280D01*
X188058122Y-73890280D01*
X188039123Y-73887271D01*
X187990832Y-73857678D01*
X187976700Y-73814182D01*
X187976700Y-73093573D01*
X187957844Y-73023198D01*
X187957844Y-73023197D01*
X187957843Y-73023194D01*
X187925903Y-72967876D01*
X187921415Y-72960102D01*
X187417466Y-72456153D01*
X187395792Y-72403827D01*
X187396543Y-72393310D01*
X187405647Y-72330000D01*
X187385165Y-72187543D01*
X187370942Y-72156400D01*
X190485200Y-72156400D01*
X191040000Y-72156400D01*
X191040000Y-71093600D01*
X191540000Y-71093600D01*
X191540000Y-72156400D01*
X192094800Y-72156400D01*
X192094800Y-71545771D01*
X192088397Y-71486224D01*
X192088396Y-71486219D01*
X192038154Y-71351512D01*
X192038153Y-71351511D01*
X191951988Y-71236411D01*
X191836888Y-71150246D01*
X191836887Y-71150245D01*
X191702180Y-71100003D01*
X191702175Y-71100002D01*
X191642629Y-71093600D01*
X191540000Y-71093600D01*
X191040000Y-71093600D01*
X190937371Y-71093600D01*
X190877824Y-71100002D01*
X190877819Y-71100003D01*
X190743112Y-71150245D01*
X190743111Y-71150246D01*
X190628011Y-71236411D01*
X190541846Y-71351511D01*
X190541845Y-71351512D01*
X190491603Y-71486219D01*
X190491602Y-71486224D01*
X190485200Y-71545771D01*
X190485200Y-72156400D01*
X187370942Y-72156400D01*
X187325377Y-72056627D01*
X187231128Y-71947857D01*
X187140623Y-71889693D01*
X187110054Y-71870047D01*
X187110050Y-71870046D01*
X186971964Y-71829500D01*
X186971961Y-71829500D01*
X186828039Y-71829500D01*
X186828036Y-71829500D01*
X186689949Y-71870046D01*
X186689945Y-71870047D01*
X186568875Y-71947855D01*
X186568868Y-71947860D01*
X186474623Y-72056626D01*
X186414834Y-72187545D01*
X186394353Y-72330000D01*
X181750500Y-72330000D01*
X181750500Y-69250000D01*
X184644353Y-69250000D01*
X184664834Y-69392454D01*
X184724623Y-69523373D01*
X184818868Y-69632139D01*
X184818869Y-69632140D01*
X184818872Y-69632143D01*
X184939947Y-69709953D01*
X185046403Y-69741211D01*
X185078035Y-69750499D01*
X185078037Y-69750500D01*
X185078039Y-69750500D01*
X185221963Y-69750500D01*
X185221964Y-69750499D01*
X185360053Y-69709953D01*
X185481128Y-69632143D01*
X185575377Y-69523373D01*
X185635165Y-69392457D01*
X185655647Y-69250000D01*
X185646545Y-69186700D01*
X185660551Y-69131825D01*
X185667459Y-69123852D01*
X185861312Y-68930000D01*
X188100001Y-68930000D01*
X188100001Y-68978312D01*
X188110144Y-69077608D01*
X188163452Y-69238482D01*
X188252426Y-69382731D01*
X188372268Y-69502573D01*
X188516517Y-69591547D01*
X188677391Y-69644855D01*
X188776689Y-69654999D01*
X188800000Y-69654999D01*
X189300000Y-69654999D01*
X189323307Y-69654999D01*
X189323312Y-69654998D01*
X189422608Y-69644855D01*
X189583482Y-69591547D01*
X189727731Y-69502573D01*
X189847573Y-69382731D01*
X189936546Y-69238483D01*
X189938054Y-69235251D01*
X189979810Y-69196986D01*
X190036393Y-69199454D01*
X190057448Y-69214196D01*
X190121780Y-69278528D01*
X190241874Y-69339719D01*
X190341511Y-69355500D01*
X190341512Y-69355500D01*
X190858489Y-69355500D01*
X190908307Y-69347609D01*
X190958126Y-69339719D01*
X191078220Y-69278528D01*
X191173528Y-69183220D01*
X191234719Y-69063126D01*
X191241688Y-69019123D01*
X191271281Y-68970833D01*
X191311669Y-68957709D01*
X191311620Y-68957333D01*
X191313652Y-68957065D01*
X191314777Y-68956700D01*
X191316427Y-68956700D01*
X191316428Y-68956700D01*
X191386803Y-68937844D01*
X191449898Y-68901415D01*
X191681313Y-68670000D01*
X196774353Y-68670000D01*
X196794834Y-68812454D01*
X196854623Y-68943373D01*
X196948868Y-69052139D01*
X196948869Y-69052140D01*
X196948872Y-69052143D01*
X197035076Y-69107543D01*
X197060442Y-69123845D01*
X197069947Y-69129953D01*
X197176403Y-69161211D01*
X197208035Y-69170499D01*
X197208037Y-69170500D01*
X197208039Y-69170500D01*
X197351963Y-69170500D01*
X197351964Y-69170499D01*
X197490053Y-69129953D01*
X197611128Y-69052143D01*
X197705377Y-68943373D01*
X197765165Y-68812457D01*
X197785647Y-68670000D01*
X197776545Y-68606700D01*
X197790551Y-68551825D01*
X197797459Y-68543852D01*
X198301415Y-68039898D01*
X198337844Y-67976803D01*
X198337844Y-67976802D01*
X198339905Y-67973233D01*
X198384838Y-67938755D01*
X198418006Y-67938262D01*
X198418023Y-67938105D01*
X198419309Y-67938243D01*
X198421012Y-67938218D01*
X198422629Y-67938600D01*
X198482172Y-67945002D01*
X198530002Y-67945002D01*
X198530002Y-66095000D01*
X198482172Y-66095000D01*
X198422625Y-66101402D01*
X198422620Y-66101403D01*
X198287913Y-66151645D01*
X198287912Y-66151646D01*
X198172812Y-66237811D01*
X198086647Y-66352912D01*
X198084980Y-66355965D01*
X198040880Y-66391503D01*
X198020032Y-66394500D01*
X197860252Y-66394500D01*
X197831010Y-66400316D01*
X197801767Y-66406133D01*
X197735449Y-66450447D01*
X197735447Y-66450449D01*
X197691133Y-66516767D01*
X197679500Y-66575253D01*
X197679500Y-67464748D01*
X197691133Y-67523234D01*
X197720608Y-67567345D01*
X197735448Y-67589554D01*
X197770413Y-67612917D01*
X197801878Y-67660007D01*
X197803300Y-67674444D01*
X197803300Y-67724734D01*
X197781626Y-67777060D01*
X197410699Y-68147987D01*
X197358373Y-68169661D01*
X197356122Y-68169500D01*
X197351961Y-68169500D01*
X197208039Y-68169500D01*
X197208036Y-68169500D01*
X197069949Y-68210046D01*
X197069945Y-68210047D01*
X196948875Y-68287855D01*
X196948868Y-68287860D01*
X196854623Y-68396626D01*
X196794834Y-68527545D01*
X196774353Y-68670000D01*
X191681313Y-68670000D01*
X192191414Y-68159899D01*
X192227843Y-68096804D01*
X192246699Y-68026429D01*
X192246699Y-67953573D01*
X192246699Y-67740000D01*
X193855001Y-67740000D01*
X193855001Y-67763312D01*
X193865144Y-67862608D01*
X193918452Y-68023482D01*
X194007426Y-68167731D01*
X194127268Y-68287573D01*
X194271517Y-68376547D01*
X194432391Y-68429855D01*
X194531689Y-68439999D01*
X194531690Y-68439999D01*
X194579999Y-68439998D01*
X194580000Y-68439998D01*
X194580000Y-67740000D01*
X195080000Y-67740000D01*
X195080000Y-68439999D01*
X195128307Y-68439999D01*
X195128312Y-68439998D01*
X195227608Y-68429855D01*
X195388482Y-68376547D01*
X195532731Y-68287573D01*
X195652573Y-68167731D01*
X195741547Y-68023482D01*
X195794855Y-67862608D01*
X195804999Y-67763311D01*
X195805000Y-67763309D01*
X195805000Y-67740000D01*
X195080000Y-67740000D01*
X194580000Y-67740000D01*
X193855001Y-67740000D01*
X192246699Y-67740000D01*
X192246699Y-66899500D01*
X192268373Y-66847174D01*
X192320699Y-66825500D01*
X192539183Y-66825500D01*
X192539183Y-66825499D01*
X192672834Y-66789688D01*
X192792663Y-66720505D01*
X192890503Y-66622665D01*
X192959686Y-66502836D01*
X192995497Y-66369185D01*
X192995498Y-66369185D01*
X192995498Y-66230815D01*
X192995497Y-66230814D01*
X192986835Y-66198488D01*
X192959686Y-66097164D01*
X192890503Y-65977335D01*
X192792663Y-65879495D01*
X192672834Y-65810312D01*
X192672829Y-65810310D01*
X192539183Y-65774500D01*
X192539181Y-65774500D01*
X191400817Y-65774500D01*
X191400815Y-65774500D01*
X191267168Y-65810310D01*
X191267163Y-65810312D01*
X191147334Y-65879495D01*
X191049495Y-65977334D01*
X190980312Y-66097163D01*
X190980310Y-66097168D01*
X190944500Y-66230814D01*
X190944500Y-66369185D01*
X190980310Y-66502831D01*
X190980312Y-66502836D01*
X191049495Y-66622665D01*
X191147335Y-66720505D01*
X191267164Y-66789688D01*
X191400814Y-66825499D01*
X191400815Y-66825500D01*
X191400817Y-66825500D01*
X191619299Y-66825500D01*
X191671625Y-66847174D01*
X191693299Y-66899500D01*
X191693299Y-67844735D01*
X191671625Y-67897061D01*
X191319259Y-68249426D01*
X191266933Y-68271100D01*
X191214607Y-68249426D01*
X191200999Y-68230695D01*
X191190478Y-68210047D01*
X191173528Y-68176780D01*
X191078220Y-68081472D01*
X191078219Y-68081471D01*
X190958126Y-68020281D01*
X190958125Y-68020280D01*
X190858489Y-68004500D01*
X190858488Y-68004500D01*
X190341512Y-68004500D01*
X190341511Y-68004500D01*
X190241874Y-68020280D01*
X190241873Y-68020281D01*
X190121780Y-68081471D01*
X190057448Y-68145803D01*
X190005121Y-68167477D01*
X189952796Y-68145803D01*
X189938056Y-68124751D01*
X189936550Y-68121522D01*
X189847573Y-67977268D01*
X189727731Y-67857426D01*
X189583482Y-67768452D01*
X189422608Y-67715144D01*
X189323311Y-67705000D01*
X189300000Y-67705000D01*
X189300000Y-69654999D01*
X188800000Y-69654999D01*
X188800000Y-68930000D01*
X188100001Y-68930000D01*
X185861312Y-68930000D01*
X186361313Y-68430000D01*
X188100000Y-68430000D01*
X188800000Y-68430000D01*
X188800000Y-67705000D01*
X188776693Y-67705000D01*
X188776686Y-67705001D01*
X188677391Y-67715144D01*
X188516517Y-67768452D01*
X188372268Y-67857426D01*
X188252426Y-67977268D01*
X188163452Y-68121517D01*
X188110144Y-68282391D01*
X188100000Y-68381688D01*
X188100000Y-68430000D01*
X186361313Y-68430000D01*
X186541415Y-68249898D01*
X186577844Y-68186803D01*
X186596700Y-68116428D01*
X186596700Y-68043572D01*
X186596700Y-66899500D01*
X186618374Y-66847174D01*
X186670700Y-66825500D01*
X186889184Y-66825500D01*
X186889184Y-66825499D01*
X187022835Y-66789688D01*
X187142664Y-66720505D01*
X187240504Y-66622665D01*
X187309687Y-66502836D01*
X187345498Y-66369185D01*
X187345499Y-66369185D01*
X187345499Y-66230815D01*
X187345498Y-66230814D01*
X187336836Y-66198488D01*
X187309687Y-66097164D01*
X187240504Y-65977335D01*
X187142664Y-65879495D01*
X187022835Y-65810312D01*
X187022830Y-65810310D01*
X186889184Y-65774500D01*
X186889182Y-65774500D01*
X185750818Y-65774500D01*
X185750816Y-65774500D01*
X185617169Y-65810310D01*
X185617164Y-65810312D01*
X185497335Y-65879495D01*
X185399496Y-65977334D01*
X185330313Y-66097163D01*
X185330311Y-66097168D01*
X185294501Y-66230814D01*
X185294501Y-66369185D01*
X185330311Y-66502831D01*
X185330313Y-66502836D01*
X185399496Y-66622665D01*
X185497336Y-66720505D01*
X185617165Y-66789688D01*
X185750815Y-66825499D01*
X185750816Y-66825500D01*
X185750818Y-66825500D01*
X185969300Y-66825500D01*
X186021626Y-66847174D01*
X186043300Y-66899500D01*
X186043300Y-67934734D01*
X186021626Y-67987060D01*
X185280699Y-68727986D01*
X185228373Y-68749660D01*
X185226122Y-68749500D01*
X185221961Y-68749500D01*
X185078039Y-68749500D01*
X185078036Y-68749500D01*
X184939949Y-68790046D01*
X184939945Y-68790047D01*
X184818875Y-68867855D01*
X184818868Y-68867860D01*
X184724623Y-68976626D01*
X184664834Y-69107545D01*
X184644353Y-69250000D01*
X181750500Y-69250000D01*
X181750500Y-64151519D01*
X182604500Y-64151519D01*
X182619353Y-64245304D01*
X182619354Y-64245306D01*
X182666078Y-64337004D01*
X182676950Y-64358342D01*
X182766658Y-64448050D01*
X182879696Y-64505646D01*
X182973481Y-64520500D01*
X183586518Y-64520499D01*
X183586519Y-64520499D01*
X183680304Y-64505646D01*
X183680306Y-64505645D01*
X183705007Y-64493059D01*
X183793342Y-64448050D01*
X183882714Y-64358677D01*
X183935039Y-64337004D01*
X183987365Y-64358678D01*
X184880102Y-65251415D01*
X184943197Y-65287844D01*
X185013572Y-65306700D01*
X185330234Y-65306700D01*
X185382560Y-65328374D01*
X185394319Y-65343699D01*
X185399496Y-65352665D01*
X185497336Y-65450505D01*
X185617165Y-65519688D01*
X185750815Y-65555499D01*
X185750816Y-65555500D01*
X185750818Y-65555500D01*
X186889184Y-65555500D01*
X186889184Y-65555499D01*
X187022835Y-65519688D01*
X187142664Y-65450505D01*
X187183169Y-65410000D01*
X189294353Y-65410000D01*
X189314834Y-65552454D01*
X189314834Y-65552455D01*
X189314835Y-65552457D01*
X189330804Y-65587424D01*
X189374623Y-65683373D01*
X189468868Y-65792139D01*
X189468869Y-65792140D01*
X189468872Y-65792143D01*
X189589947Y-65869953D01*
X189696403Y-65901211D01*
X189728035Y-65910499D01*
X189728037Y-65910500D01*
X189728039Y-65910500D01*
X189871963Y-65910500D01*
X189871964Y-65910499D01*
X190010053Y-65869953D01*
X190131128Y-65792143D01*
X190225377Y-65683373D01*
X190285165Y-65552457D01*
X190305647Y-65410000D01*
X190302948Y-65391230D01*
X190316954Y-65336354D01*
X190365663Y-65307453D01*
X190376195Y-65306700D01*
X190980233Y-65306700D01*
X191032559Y-65328374D01*
X191044318Y-65343699D01*
X191049495Y-65352665D01*
X191147335Y-65450505D01*
X191267164Y-65519688D01*
X191400814Y-65555499D01*
X191400815Y-65555500D01*
X191400817Y-65555500D01*
X192539183Y-65555500D01*
X192539183Y-65555499D01*
X192672834Y-65519688D01*
X192792663Y-65450505D01*
X192890503Y-65352665D01*
X192895680Y-65343699D01*
X192940613Y-65309221D01*
X192959765Y-65306700D01*
X192964735Y-65306700D01*
X193017061Y-65328374D01*
X193798585Y-66109898D01*
X193798584Y-66109898D01*
X193840332Y-66151645D01*
X193850102Y-66161415D01*
X193913198Y-66197844D01*
X193983572Y-66216700D01*
X194094182Y-66216700D01*
X194146508Y-66238374D01*
X194167271Y-66279123D01*
X194170280Y-66298122D01*
X194170282Y-66298128D01*
X194231471Y-66418219D01*
X194295803Y-66482551D01*
X194317477Y-66534877D01*
X194295803Y-66587203D01*
X194274759Y-66601940D01*
X194271520Y-66603450D01*
X194127268Y-66692426D01*
X194007426Y-66812268D01*
X193918452Y-66956517D01*
X193865144Y-67117391D01*
X193855000Y-67216688D01*
X193855000Y-67240000D01*
X195804999Y-67240000D01*
X195804999Y-67216693D01*
X195804998Y-67216687D01*
X195794855Y-67117391D01*
X195741547Y-66956517D01*
X195652573Y-66812268D01*
X195532731Y-66692426D01*
X195388484Y-66603454D01*
X195385243Y-66601942D01*
X195346983Y-66560181D01*
X195349457Y-66503598D01*
X195364193Y-66482554D01*
X195428528Y-66418220D01*
X195489719Y-66298126D01*
X195505500Y-66198488D01*
X195505500Y-65681512D01*
X195489719Y-65581874D01*
X195428528Y-65461780D01*
X195333220Y-65366472D01*
X195333219Y-65366471D01*
X195213126Y-65305281D01*
X195213125Y-65305280D01*
X195113489Y-65289500D01*
X195113488Y-65289500D01*
X194546512Y-65289500D01*
X194546511Y-65289500D01*
X194446874Y-65305280D01*
X194446873Y-65305281D01*
X194326780Y-65366471D01*
X194231473Y-65461778D01*
X194176996Y-65568694D01*
X194133929Y-65605476D01*
X194077466Y-65601032D01*
X194058739Y-65587426D01*
X193279898Y-64808585D01*
X193254660Y-64794013D01*
X193216809Y-64772159D01*
X193216803Y-64772156D01*
X193146428Y-64753300D01*
X193146427Y-64753300D01*
X192959765Y-64753300D01*
X192907439Y-64731626D01*
X192895680Y-64716301D01*
X192890503Y-64707335D01*
X192792663Y-64609495D01*
X192672834Y-64540312D01*
X192672829Y-64540310D01*
X192539183Y-64504500D01*
X192539181Y-64504500D01*
X191400817Y-64504500D01*
X191400815Y-64504500D01*
X191267168Y-64540310D01*
X191267163Y-64540312D01*
X191147334Y-64609495D01*
X191049494Y-64707335D01*
X191044318Y-64716301D01*
X190999385Y-64750779D01*
X190980233Y-64753300D01*
X190216428Y-64753300D01*
X190143572Y-64753300D01*
X190108384Y-64762728D01*
X190073196Y-64772156D01*
X190073190Y-64772159D01*
X190010102Y-64808584D01*
X189930699Y-64887987D01*
X189878373Y-64909661D01*
X189876122Y-64909500D01*
X189871961Y-64909500D01*
X189728039Y-64909500D01*
X189728036Y-64909500D01*
X189589949Y-64950046D01*
X189589945Y-64950047D01*
X189468875Y-65027855D01*
X189468868Y-65027860D01*
X189374623Y-65136626D01*
X189314834Y-65267545D01*
X189294353Y-65410000D01*
X187183169Y-65410000D01*
X187240504Y-65352665D01*
X187245681Y-65343699D01*
X187290614Y-65309221D01*
X187309766Y-65306700D01*
X188676427Y-65306700D01*
X188676428Y-65306700D01*
X188746803Y-65287844D01*
X188809898Y-65251415D01*
X189481415Y-64579898D01*
X189517844Y-64516802D01*
X189536700Y-64446428D01*
X189536700Y-63829185D01*
X190944500Y-63829185D01*
X190980310Y-63962831D01*
X190980312Y-63962836D01*
X191049495Y-64082665D01*
X191147335Y-64180505D01*
X191267164Y-64249688D01*
X191400814Y-64285499D01*
X191400815Y-64285500D01*
X191400817Y-64285500D01*
X192539183Y-64285500D01*
X192539183Y-64285499D01*
X192634348Y-64260000D01*
X193935001Y-64260000D01*
X193935001Y-64283312D01*
X193945144Y-64382608D01*
X193998452Y-64543482D01*
X194087426Y-64687731D01*
X194207268Y-64807573D01*
X194351517Y-64896547D01*
X194512391Y-64949855D01*
X194611689Y-64959999D01*
X194611690Y-64959999D01*
X194659999Y-64959998D01*
X194660000Y-64959998D01*
X194660000Y-64260000D01*
X195160000Y-64260000D01*
X195160000Y-64959999D01*
X195208307Y-64959999D01*
X195208312Y-64959998D01*
X195307608Y-64949855D01*
X195468482Y-64896547D01*
X195612731Y-64807573D01*
X195732573Y-64687731D01*
X195821547Y-64543482D01*
X195874855Y-64382608D01*
X195884999Y-64283311D01*
X195885000Y-64283309D01*
X195885000Y-64260000D01*
X195160000Y-64260000D01*
X194660000Y-64260000D01*
X193935001Y-64260000D01*
X192634348Y-64260000D01*
X192672834Y-64249688D01*
X192792663Y-64180505D01*
X192890503Y-64082665D01*
X192959686Y-63962836D01*
X192995497Y-63829185D01*
X192995498Y-63829185D01*
X192995498Y-63690815D01*
X192995497Y-63690814D01*
X192981182Y-63637391D01*
X192959686Y-63557164D01*
X192890503Y-63437335D01*
X192792663Y-63339495D01*
X192672834Y-63270312D01*
X192672829Y-63270310D01*
X192539183Y-63234500D01*
X192539181Y-63234500D01*
X191400817Y-63234500D01*
X191400815Y-63234500D01*
X191267168Y-63270310D01*
X191267163Y-63270312D01*
X191147334Y-63339495D01*
X191049495Y-63437334D01*
X190980312Y-63557163D01*
X190980310Y-63557168D01*
X190944500Y-63690814D01*
X190944500Y-63829185D01*
X189536700Y-63829185D01*
X189536700Y-62155265D01*
X189558374Y-62102939D01*
X190772939Y-60888374D01*
X190825265Y-60866700D01*
X193273144Y-60866700D01*
X193325470Y-60888374D01*
X193347144Y-60940700D01*
X193340457Y-60971437D01*
X193334186Y-60985171D01*
X193314834Y-61027545D01*
X193294353Y-61170000D01*
X193314834Y-61312454D01*
X193374623Y-61443373D01*
X193468868Y-61552139D01*
X193468869Y-61552140D01*
X193468872Y-61552143D01*
X193589947Y-61629953D01*
X193696403Y-61661211D01*
X193728035Y-61670499D01*
X193728037Y-61670500D01*
X193728039Y-61670500D01*
X193871963Y-61670500D01*
X193871964Y-61670499D01*
X193875363Y-61669501D01*
X194010053Y-61629953D01*
X194099044Y-61572761D01*
X194154780Y-61562706D01*
X194191376Y-61582689D01*
X194398643Y-61789956D01*
X194420317Y-61842282D01*
X194398643Y-61894608D01*
X194311471Y-61981780D01*
X194250282Y-62101871D01*
X194250280Y-62101877D01*
X194247271Y-62120877D01*
X194217678Y-62169168D01*
X194174182Y-62183300D01*
X192937120Y-62183300D01*
X192884794Y-62161626D01*
X192792663Y-62069495D01*
X192672834Y-62000312D01*
X192672829Y-62000310D01*
X192539183Y-61964500D01*
X192539181Y-61964500D01*
X191400817Y-61964500D01*
X191400815Y-61964500D01*
X191267168Y-62000310D01*
X191267163Y-62000312D01*
X191147334Y-62069495D01*
X191049495Y-62167334D01*
X190980312Y-62287163D01*
X190980310Y-62287168D01*
X190944500Y-62420814D01*
X190944500Y-62559185D01*
X190980310Y-62692831D01*
X190980312Y-62692836D01*
X191049495Y-62812665D01*
X191147335Y-62910505D01*
X191267164Y-62979688D01*
X191400814Y-63015499D01*
X191400815Y-63015500D01*
X191400817Y-63015500D01*
X192539183Y-63015500D01*
X192539183Y-63015499D01*
X192672834Y-62979688D01*
X192792663Y-62910505D01*
X192890503Y-62812665D01*
X192912999Y-62773699D01*
X192957932Y-62739222D01*
X192977085Y-62736700D01*
X194174182Y-62736700D01*
X194226508Y-62758374D01*
X194247271Y-62799123D01*
X194250280Y-62818122D01*
X194250282Y-62818128D01*
X194311471Y-62938219D01*
X194375803Y-63002551D01*
X194397477Y-63054877D01*
X194375803Y-63107203D01*
X194354759Y-63121940D01*
X194351520Y-63123450D01*
X194207268Y-63212426D01*
X194087426Y-63332268D01*
X193998452Y-63476517D01*
X193945144Y-63637391D01*
X193935000Y-63736688D01*
X193935000Y-63760000D01*
X195884999Y-63760000D01*
X195884999Y-63736693D01*
X195884998Y-63736687D01*
X195874855Y-63637391D01*
X195821547Y-63476517D01*
X195732573Y-63332268D01*
X195612731Y-63212426D01*
X195468484Y-63123454D01*
X195465243Y-63121942D01*
X195426983Y-63080181D01*
X195429457Y-63023598D01*
X195444193Y-63002554D01*
X195508528Y-62938220D01*
X195569719Y-62818126D01*
X195585500Y-62718488D01*
X195585500Y-62201512D01*
X195573320Y-62124613D01*
X195569719Y-62101874D01*
X195569718Y-62101873D01*
X195568364Y-62099216D01*
X195508528Y-61981780D01*
X195413220Y-61886472D01*
X195413219Y-61886471D01*
X195293126Y-61825281D01*
X195293125Y-61825280D01*
X195204129Y-61811185D01*
X195155838Y-61781592D01*
X195151620Y-61775097D01*
X195150935Y-61773911D01*
X195131415Y-61740102D01*
X194384337Y-60993024D01*
X194362664Y-60940700D01*
X194384338Y-60888374D01*
X194436664Y-60866700D01*
X195234735Y-60866700D01*
X195287061Y-60888374D01*
X195831626Y-61432939D01*
X195853300Y-61485265D01*
X195853300Y-62223572D01*
X195853300Y-62296428D01*
X195862870Y-62332144D01*
X195872156Y-62366803D01*
X195872159Y-62366809D01*
X195875128Y-62371951D01*
X195908585Y-62429898D01*
X196600102Y-63121415D01*
X196663197Y-63157844D01*
X196733572Y-63176700D01*
X196806428Y-63176700D01*
X197049797Y-63176700D01*
X197102123Y-63198374D01*
X197115745Y-63220604D01*
X197116709Y-63220114D01*
X197142287Y-63270312D01*
X197176950Y-63338342D01*
X197266658Y-63428050D01*
X197379696Y-63485646D01*
X197440876Y-63495336D01*
X197489167Y-63524927D01*
X197503300Y-63568424D01*
X197503300Y-63636428D01*
X197517247Y-63688480D01*
X197522156Y-63706803D01*
X197522159Y-63706809D01*
X197544013Y-63744660D01*
X197558585Y-63769898D01*
X197781626Y-63992939D01*
X197803300Y-64045264D01*
X197803300Y-64115555D01*
X197781626Y-64167881D01*
X197770414Y-64177083D01*
X197735448Y-64200447D01*
X197735447Y-64200448D01*
X197691133Y-64266766D01*
X197679500Y-64325252D01*
X197679500Y-65214747D01*
X197691133Y-65273233D01*
X197702003Y-65289500D01*
X197735448Y-65339553D01*
X197779560Y-65369028D01*
X197801767Y-65383867D01*
X197801768Y-65383867D01*
X197801769Y-65383868D01*
X197860252Y-65395501D01*
X197860254Y-65395501D01*
X198299746Y-65395501D01*
X198299748Y-65395501D01*
X198358231Y-65383868D01*
X198363884Y-65380090D01*
X198419430Y-65369037D01*
X198446112Y-65380087D01*
X198451770Y-65383868D01*
X198510253Y-65395501D01*
X198510255Y-65395501D01*
X198949747Y-65395501D01*
X198949749Y-65395501D01*
X199008232Y-65383868D01*
X199013884Y-65380090D01*
X199069432Y-65369038D01*
X199096111Y-65380088D01*
X199101767Y-65383867D01*
X199101768Y-65383867D01*
X199101769Y-65383868D01*
X199160252Y-65395501D01*
X199160254Y-65395501D01*
X199599746Y-65395501D01*
X199599748Y-65395501D01*
X199658231Y-65383868D01*
X199724552Y-65339553D01*
X199768867Y-65273232D01*
X199780500Y-65214749D01*
X199780500Y-64325251D01*
X199768867Y-64266768D01*
X199724552Y-64200447D01*
X199689586Y-64177083D01*
X199658121Y-64129990D01*
X199656700Y-64115555D01*
X199656700Y-64105264D01*
X199678373Y-64052939D01*
X200551415Y-63179898D01*
X200587844Y-63116803D01*
X200606700Y-63046428D01*
X200606700Y-62973572D01*
X200606700Y-58723572D01*
X200587844Y-58653198D01*
X200587844Y-58653197D01*
X200551415Y-58590102D01*
X200007126Y-58045813D01*
X199985453Y-57993489D01*
X200007127Y-57941163D01*
X200059453Y-57919489D01*
X200066159Y-57919794D01*
X200068422Y-57919999D01*
X200150000Y-57919999D01*
X200150000Y-57270000D01*
X199425001Y-57270000D01*
X199425001Y-57276583D01*
X199431408Y-57347102D01*
X199431409Y-57347106D01*
X199481979Y-57509393D01*
X199569925Y-57654874D01*
X199592025Y-57676974D01*
X199613699Y-57729300D01*
X199592025Y-57781626D01*
X199539699Y-57803300D01*
X199181802Y-57803300D01*
X199129476Y-57781626D01*
X199107802Y-57729300D01*
X199123327Y-57683950D01*
X199125179Y-57681560D01*
X199208781Y-57540199D01*
X199254599Y-57382493D01*
X199254796Y-57380000D01*
X196935204Y-57380000D01*
X196935400Y-57382493D01*
X196981218Y-57540199D01*
X197064817Y-57681556D01*
X197180944Y-57797683D01*
X197198525Y-57808081D01*
X197232530Y-57853373D01*
X197234082Y-57882440D01*
X197232001Y-57896724D01*
X197232000Y-57896746D01*
X197232000Y-58263264D01*
X197241927Y-58331393D01*
X197241927Y-58331394D01*
X197293301Y-58436482D01*
X197293302Y-58436483D01*
X197376017Y-58519198D01*
X197481107Y-58570573D01*
X197549240Y-58580500D01*
X197549246Y-58580500D01*
X198640754Y-58580500D01*
X198640760Y-58580500D01*
X198708893Y-58570573D01*
X198813983Y-58519198D01*
X198896698Y-58436483D01*
X198915413Y-58398199D01*
X198957865Y-58360710D01*
X198981894Y-58356700D01*
X199504735Y-58356700D01*
X199557061Y-58378374D01*
X200031626Y-58852939D01*
X200053300Y-58905265D01*
X200053300Y-61625856D01*
X200031626Y-61678182D01*
X199979300Y-61699856D01*
X199926974Y-61678182D01*
X199923381Y-61674324D01*
X199831128Y-61567857D01*
X199774182Y-61531260D01*
X199710054Y-61490047D01*
X199710050Y-61490046D01*
X199571964Y-61449500D01*
X199571961Y-61449500D01*
X199428039Y-61449500D01*
X199428036Y-61449500D01*
X199289949Y-61490046D01*
X199289945Y-61490047D01*
X199168875Y-61567855D01*
X199168868Y-61567860D01*
X199074623Y-61676626D01*
X199014834Y-61807545D01*
X198994353Y-61950000D01*
X199003453Y-62013296D01*
X198989446Y-62068174D01*
X198982532Y-62076153D01*
X198527297Y-62531390D01*
X198474971Y-62553064D01*
X198422645Y-62531390D01*
X198409037Y-62512660D01*
X198403360Y-62501518D01*
X198383050Y-62461658D01*
X198293342Y-62371950D01*
X198180304Y-62314354D01*
X198180302Y-62314353D01*
X198180301Y-62314353D01*
X198086519Y-62299500D01*
X197473480Y-62299500D01*
X197379695Y-62314353D01*
X197379693Y-62314354D01*
X197266657Y-62371950D01*
X197176951Y-62461656D01*
X197176950Y-62461658D01*
X197119354Y-62574696D01*
X197119353Y-62574698D01*
X197116711Y-62579885D01*
X197114532Y-62578774D01*
X197083393Y-62615234D01*
X197049798Y-62623300D01*
X196915265Y-62623300D01*
X196862939Y-62601626D01*
X196428374Y-62167061D01*
X196406700Y-62114735D01*
X196406700Y-61303574D01*
X196406700Y-61303572D01*
X196404485Y-61295304D01*
X196387844Y-61233197D01*
X196351415Y-61170102D01*
X195549898Y-60368585D01*
X195524660Y-60354013D01*
X195486809Y-60332159D01*
X195486803Y-60332156D01*
X195416428Y-60313300D01*
X192354190Y-60313300D01*
X192301864Y-60291626D01*
X192280190Y-60239300D01*
X192301864Y-60186974D01*
X192320595Y-60173366D01*
X192358594Y-60154003D01*
X192428220Y-60118528D01*
X192523528Y-60023220D01*
X192584719Y-59903126D01*
X192585214Y-59900000D01*
X196554353Y-59900000D01*
X196574834Y-60042454D01*
X196634623Y-60173373D01*
X196728868Y-60282139D01*
X196728869Y-60282140D01*
X196728872Y-60282143D01*
X196849947Y-60359953D01*
X196956403Y-60391211D01*
X196988035Y-60400499D01*
X196988037Y-60400500D01*
X197137254Y-60400500D01*
X197137254Y-60403512D01*
X197182662Y-60415055D01*
X197190699Y-60422012D01*
X197343014Y-60574327D01*
X197364688Y-60626653D01*
X197343014Y-60678979D01*
X197324284Y-60692587D01*
X197266658Y-60721949D01*
X197176951Y-60811656D01*
X197119353Y-60924698D01*
X197104500Y-61018480D01*
X197104500Y-61481519D01*
X197119353Y-61575304D01*
X197119354Y-61575306D01*
X197167349Y-61669500D01*
X197176950Y-61688342D01*
X197266658Y-61778050D01*
X197379696Y-61835646D01*
X197473481Y-61850500D01*
X198086518Y-61850499D01*
X198086519Y-61850499D01*
X198180304Y-61835646D01*
X198180306Y-61835645D01*
X198200648Y-61825280D01*
X198293342Y-61778050D01*
X198383050Y-61688342D01*
X198440646Y-61575304D01*
X198455500Y-61481519D01*
X198455499Y-61018482D01*
X198450223Y-60985171D01*
X198440646Y-60924695D01*
X198440645Y-60924693D01*
X198410770Y-60866061D01*
X198383050Y-60811658D01*
X198293342Y-60721950D01*
X198180304Y-60664354D01*
X198180302Y-60664353D01*
X198180301Y-60664353D01*
X198119124Y-60654664D01*
X198070833Y-60625071D01*
X198058846Y-60588180D01*
X198057333Y-60588380D01*
X198056700Y-60583572D01*
X198048662Y-60553571D01*
X198048662Y-60553570D01*
X198037845Y-60513201D01*
X198037844Y-60513197D01*
X198001415Y-60450102D01*
X197577466Y-60026153D01*
X197555792Y-59973827D01*
X197556543Y-59963310D01*
X197565647Y-59900000D01*
X197545165Y-59757543D01*
X197485377Y-59626627D01*
X197391128Y-59517857D01*
X197334182Y-59481260D01*
X197270054Y-59440047D01*
X197270050Y-59440046D01*
X197131964Y-59399500D01*
X197131961Y-59399500D01*
X196988039Y-59399500D01*
X196988036Y-59399500D01*
X196849949Y-59440046D01*
X196849945Y-59440047D01*
X196728875Y-59517855D01*
X196728868Y-59517860D01*
X196634623Y-59626626D01*
X196574834Y-59757545D01*
X196554353Y-59900000D01*
X192585214Y-59900000D01*
X192591688Y-59859123D01*
X192621281Y-59810833D01*
X192664777Y-59796700D01*
X193416427Y-59796700D01*
X193416428Y-59796700D01*
X193486803Y-59777844D01*
X193549898Y-59741415D01*
X193921415Y-59369898D01*
X193932844Y-59350102D01*
X193957844Y-59306802D01*
X193976700Y-59236428D01*
X193976700Y-58804777D01*
X193998374Y-58752451D01*
X194039123Y-58731688D01*
X194083126Y-58724719D01*
X194203220Y-58663528D01*
X194298528Y-58568220D01*
X194359719Y-58448126D01*
X194364312Y-58419124D01*
X194393904Y-58370833D01*
X194437401Y-58356700D01*
X194933106Y-58356700D01*
X194985432Y-58378374D01*
X194999587Y-58398200D01*
X195018301Y-58436482D01*
X195018302Y-58436483D01*
X195101017Y-58519198D01*
X195206107Y-58570573D01*
X195274240Y-58580500D01*
X195274246Y-58580500D01*
X196365754Y-58580500D01*
X196365760Y-58580500D01*
X196433893Y-58570573D01*
X196538983Y-58519198D01*
X196621698Y-58436483D01*
X196673073Y-58331393D01*
X196683000Y-58263260D01*
X196683000Y-57896740D01*
X196673073Y-57828607D01*
X196621698Y-57723517D01*
X196538983Y-57640802D01*
X196538982Y-57640801D01*
X196433894Y-57589427D01*
X196365764Y-57579500D01*
X196365760Y-57579500D01*
X195579311Y-57579500D01*
X195560160Y-57576979D01*
X195546428Y-57573300D01*
X195473572Y-57573300D01*
X195459840Y-57576979D01*
X195440689Y-57579500D01*
X195274235Y-57579500D01*
X195206106Y-57589427D01*
X195206105Y-57589427D01*
X195101017Y-57640801D01*
X195018301Y-57723517D01*
X194999587Y-57761800D01*
X194957135Y-57799290D01*
X194933106Y-57803300D01*
X194434234Y-57803300D01*
X194381908Y-57781626D01*
X194361145Y-57740876D01*
X194359782Y-57732272D01*
X194359719Y-57731874D01*
X194298528Y-57611780D01*
X194234196Y-57547448D01*
X194212522Y-57495122D01*
X194234196Y-57442796D01*
X194255251Y-57428054D01*
X194258483Y-57426546D01*
X194402731Y-57337573D01*
X194522573Y-57217731D01*
X194611547Y-57073482D01*
X194664855Y-56912608D01*
X194674999Y-56813311D01*
X194675000Y-56813309D01*
X194675000Y-56790000D01*
X192725001Y-56790000D01*
X192725001Y-56813312D01*
X192735144Y-56912608D01*
X192788452Y-57073482D01*
X192877426Y-57217731D01*
X192997268Y-57337573D01*
X193141522Y-57426550D01*
X193144751Y-57428056D01*
X193183015Y-57469813D01*
X193180543Y-57526396D01*
X193165803Y-57547448D01*
X193101471Y-57611780D01*
X193040282Y-57731871D01*
X193040280Y-57731877D01*
X193037271Y-57750877D01*
X193007678Y-57799168D01*
X192964182Y-57813300D01*
X192468816Y-57813300D01*
X192416490Y-57791626D01*
X192401504Y-57770042D01*
X192395377Y-57756627D01*
X192301131Y-57647860D01*
X192301129Y-57647859D01*
X192301128Y-57647857D01*
X192244182Y-57611260D01*
X192180054Y-57570047D01*
X192180050Y-57570046D01*
X192041964Y-57529500D01*
X192041961Y-57529500D01*
X191898039Y-57529500D01*
X191898036Y-57529500D01*
X191759949Y-57570046D01*
X191759945Y-57570047D01*
X191649851Y-57640801D01*
X191638872Y-57647857D01*
X191569635Y-57727760D01*
X191518990Y-57753111D01*
X191513711Y-57753300D01*
X190975265Y-57753300D01*
X190922939Y-57731626D01*
X190549974Y-57358661D01*
X190528300Y-57306335D01*
X190528300Y-57100300D01*
X190549974Y-57047974D01*
X190602300Y-57026300D01*
X190979346Y-57026300D01*
X190979348Y-57026300D01*
X191037831Y-57014667D01*
X191104152Y-56970352D01*
X191144755Y-56909587D01*
X191191848Y-56878122D01*
X191206283Y-56876700D01*
X191456427Y-56876700D01*
X191456428Y-56876700D01*
X191526803Y-56857844D01*
X191589898Y-56821415D01*
X192121313Y-56290000D01*
X192725000Y-56290000D01*
X193450000Y-56290000D01*
X193450000Y-55590000D01*
X193950000Y-55590000D01*
X193950000Y-56290000D01*
X194674999Y-56290000D01*
X194674999Y-56266693D01*
X194674998Y-56266687D01*
X194664855Y-56167391D01*
X194611547Y-56006517D01*
X194522573Y-55862268D01*
X194402731Y-55742426D01*
X194258482Y-55653452D01*
X194097608Y-55600144D01*
X193998311Y-55590000D01*
X193950000Y-55590000D01*
X193450000Y-55590000D01*
X193449999Y-55589999D01*
X193401692Y-55590000D01*
X193401686Y-55590001D01*
X193302391Y-55600144D01*
X193141517Y-55653452D01*
X192997268Y-55742426D01*
X192877426Y-55862268D01*
X192788452Y-56006517D01*
X192735144Y-56167391D01*
X192725000Y-56266688D01*
X192725000Y-56290000D01*
X192121313Y-56290000D01*
X192431415Y-55979898D01*
X192467844Y-55916803D01*
X192486700Y-55846428D01*
X192486700Y-55773572D01*
X192486700Y-55045817D01*
X192508374Y-54993491D01*
X192549125Y-54972728D01*
X192568126Y-54969719D01*
X192688220Y-54908528D01*
X192752552Y-54844195D01*
X192804876Y-54822522D01*
X192857203Y-54844196D01*
X192871942Y-54865243D01*
X192873454Y-54868484D01*
X192962426Y-55012731D01*
X193082268Y-55132573D01*
X193226517Y-55221547D01*
X193387391Y-55274855D01*
X193486689Y-55284999D01*
X193510000Y-55284999D01*
X193510000Y-54560000D01*
X194010000Y-54560000D01*
X194010000Y-55284999D01*
X194033307Y-55284999D01*
X194033312Y-55284998D01*
X194132608Y-55274855D01*
X194293482Y-55221547D01*
X194437731Y-55132573D01*
X194557573Y-55012731D01*
X194646547Y-54868482D01*
X194699855Y-54707608D01*
X194709999Y-54608311D01*
X194710000Y-54608309D01*
X194710000Y-54560000D01*
X194010000Y-54560000D01*
X193510000Y-54560000D01*
X193510000Y-52850000D01*
X194010000Y-52850000D01*
X194010000Y-54060000D01*
X194709999Y-54060000D01*
X194709999Y-54011693D01*
X194709998Y-54011687D01*
X194699855Y-53912391D01*
X194646547Y-53751517D01*
X194557573Y-53607268D01*
X194457631Y-53507326D01*
X194435957Y-53455000D01*
X194457631Y-53402674D01*
X194557573Y-53302731D01*
X194646547Y-53158482D01*
X194699855Y-52997608D01*
X194709999Y-52898311D01*
X194710000Y-52898309D01*
X194710000Y-52850000D01*
X194010000Y-52850000D01*
X193510000Y-52850000D01*
X193510000Y-52350000D01*
X194010000Y-52350000D01*
X194709999Y-52350000D01*
X194709999Y-52301693D01*
X194709998Y-52301687D01*
X194699855Y-52202391D01*
X194646547Y-52041517D01*
X194557573Y-51897268D01*
X194442391Y-51782086D01*
X194420717Y-51729760D01*
X194442391Y-51677434D01*
X194446750Y-51673554D01*
X194567573Y-51552731D01*
X194656547Y-51408482D01*
X194709855Y-51247608D01*
X194719999Y-51148311D01*
X194720000Y-51148309D01*
X194720000Y-51100000D01*
X194020000Y-51100000D01*
X194020000Y-51827348D01*
X194010000Y-51851490D01*
X194010000Y-52350000D01*
X193510000Y-52350000D01*
X193510000Y-51622652D01*
X193520000Y-51598509D01*
X193520000Y-49875000D01*
X193496693Y-49875000D01*
X193496686Y-49875001D01*
X193397391Y-49885144D01*
X193236517Y-49938452D01*
X193092268Y-50027426D01*
X192972426Y-50147268D01*
X192883450Y-50291520D01*
X192881940Y-50294759D01*
X192840178Y-50333017D01*
X192783595Y-50330540D01*
X192762551Y-50315803D01*
X192698219Y-50251471D01*
X192578126Y-50190281D01*
X192578125Y-50190280D01*
X192478489Y-50174500D01*
X192478488Y-50174500D01*
X191961512Y-50174500D01*
X191961511Y-50174500D01*
X191861874Y-50190280D01*
X191861873Y-50190281D01*
X191741780Y-50251471D01*
X191646471Y-50346780D01*
X191585281Y-50466873D01*
X191578237Y-50511347D01*
X191548644Y-50559638D01*
X191518188Y-50571788D01*
X191518257Y-50572045D01*
X191516093Y-50572624D01*
X191514812Y-50573136D01*
X191513579Y-50573298D01*
X191443197Y-50592156D01*
X191443193Y-50592158D01*
X191420175Y-50605448D01*
X191380105Y-50628582D01*
X191057061Y-50951626D01*
X191004735Y-50973300D01*
X190324500Y-50973300D01*
X190272174Y-50951626D01*
X190250500Y-50899300D01*
X190250500Y-50730253D01*
X190249131Y-50723370D01*
X190238867Y-50671769D01*
X190194552Y-50605448D01*
X190172343Y-50590608D01*
X190128232Y-50561133D01*
X190128233Y-50561133D01*
X190098989Y-50555316D01*
X190069748Y-50549500D01*
X189430252Y-50549500D01*
X189401010Y-50555316D01*
X189371767Y-50561133D01*
X189305449Y-50605447D01*
X189305447Y-50605449D01*
X189261133Y-50671767D01*
X189259504Y-50679959D01*
X189249500Y-50730252D01*
X189249500Y-51769748D01*
X189256004Y-51802445D01*
X189261133Y-51828232D01*
X189276674Y-51851490D01*
X189305448Y-51894552D01*
X189349560Y-51924027D01*
X189371767Y-51938866D01*
X189371768Y-51938866D01*
X189371769Y-51938867D01*
X189430252Y-51950500D01*
X189430254Y-51950500D01*
X190069746Y-51950500D01*
X190069748Y-51950500D01*
X190128231Y-51938867D01*
X190194552Y-51894552D01*
X190238867Y-51828231D01*
X190250500Y-51769748D01*
X190250500Y-51600700D01*
X190272174Y-51548374D01*
X190324500Y-51526700D01*
X191186427Y-51526700D01*
X191186428Y-51526700D01*
X191256803Y-51507844D01*
X191319898Y-51471415D01*
X191504117Y-51287195D01*
X191556441Y-51265522D01*
X191608767Y-51287196D01*
X191622374Y-51305926D01*
X191646472Y-51353220D01*
X191741780Y-51448528D01*
X191861874Y-51509719D01*
X191880874Y-51512728D01*
X191929166Y-51542319D01*
X191943300Y-51585817D01*
X191943300Y-51862598D01*
X191921626Y-51914924D01*
X191880877Y-51935687D01*
X191851877Y-51940280D01*
X191851871Y-51940282D01*
X191731780Y-52001471D01*
X191636471Y-52096780D01*
X191575281Y-52216873D01*
X191575280Y-52216874D01*
X191559500Y-52316511D01*
X191559500Y-52883488D01*
X191575280Y-52983125D01*
X191575281Y-52983126D01*
X191636472Y-53103220D01*
X191731780Y-53198528D01*
X191848328Y-53257912D01*
X191851872Y-53259718D01*
X191851873Y-53259719D01*
X191859741Y-53260965D01*
X191880875Y-53264312D01*
X191929167Y-53293904D01*
X191943300Y-53337401D01*
X191943300Y-53572598D01*
X191921626Y-53624924D01*
X191880877Y-53645687D01*
X191851877Y-53650280D01*
X191851871Y-53650282D01*
X191731780Y-53711471D01*
X191636471Y-53806780D01*
X191575281Y-53926873D01*
X191575280Y-53926874D01*
X191559500Y-54026511D01*
X191559500Y-54593488D01*
X191575280Y-54693125D01*
X191575281Y-54693126D01*
X191629930Y-54800382D01*
X191636472Y-54813220D01*
X191731780Y-54908528D01*
X191851874Y-54969719D01*
X191870874Y-54972728D01*
X191919166Y-55002319D01*
X191933300Y-55045817D01*
X191933300Y-55664735D01*
X191911626Y-55717061D01*
X191327061Y-56301626D01*
X191274735Y-56323300D01*
X191206283Y-56323300D01*
X191153957Y-56301626D01*
X191144755Y-56290413D01*
X191127724Y-56264925D01*
X191104152Y-56229648D01*
X191081943Y-56214808D01*
X191037832Y-56185333D01*
X191037833Y-56185333D01*
X191008589Y-56179516D01*
X190979348Y-56173700D01*
X189523852Y-56173700D01*
X189494610Y-56179516D01*
X189465367Y-56185333D01*
X189399049Y-56229647D01*
X189399047Y-56229649D01*
X189354733Y-56295967D01*
X189346977Y-56334957D01*
X189343924Y-56350312D01*
X189343100Y-56354453D01*
X189343100Y-56845546D01*
X189354733Y-56904032D01*
X189358445Y-56909587D01*
X189399048Y-56970352D01*
X189443160Y-56999827D01*
X189465367Y-57014666D01*
X189465368Y-57014666D01*
X189465369Y-57014667D01*
X189523852Y-57026300D01*
X189900900Y-57026300D01*
X189953226Y-57047974D01*
X189974900Y-57100300D01*
X189974900Y-57415172D01*
X189974900Y-57488028D01*
X189993756Y-57558403D01*
X190030185Y-57621498D01*
X190660102Y-58251415D01*
X190723197Y-58287844D01*
X190793572Y-58306700D01*
X190866428Y-58306700D01*
X191513711Y-58306700D01*
X191566037Y-58328374D01*
X191569627Y-58332229D01*
X191638872Y-58412143D01*
X191759947Y-58489953D01*
X191866403Y-58521211D01*
X191898035Y-58530499D01*
X191898037Y-58530500D01*
X191898039Y-58530500D01*
X192041963Y-58530500D01*
X192041964Y-58530499D01*
X192180053Y-58489953D01*
X192301128Y-58412143D01*
X192318373Y-58392241D01*
X192369020Y-58366889D01*
X192374299Y-58366700D01*
X192964182Y-58366700D01*
X193016508Y-58388374D01*
X193037271Y-58429123D01*
X193040280Y-58448122D01*
X193040282Y-58448128D01*
X193082252Y-58530500D01*
X193101472Y-58568220D01*
X193196780Y-58663528D01*
X193316874Y-58724719D01*
X193360876Y-58731688D01*
X193409167Y-58761281D01*
X193423300Y-58804777D01*
X193423300Y-59054735D01*
X193401626Y-59107061D01*
X193287061Y-59221626D01*
X193234735Y-59243300D01*
X192664777Y-59243300D01*
X192612451Y-59221626D01*
X192591688Y-59180876D01*
X192591419Y-59179175D01*
X192584719Y-59136874D01*
X192523528Y-59016780D01*
X192428220Y-58921472D01*
X192428219Y-58921471D01*
X192308126Y-58860281D01*
X192308125Y-58860280D01*
X192208489Y-58844500D01*
X192208488Y-58844500D01*
X191691512Y-58844500D01*
X191691511Y-58844500D01*
X191591874Y-58860280D01*
X191591873Y-58860281D01*
X191471780Y-58921471D01*
X191376471Y-59016780D01*
X191315281Y-59136873D01*
X191315280Y-59136874D01*
X191299500Y-59236511D01*
X191299500Y-59803488D01*
X191315280Y-59903125D01*
X191315281Y-59903126D01*
X191376471Y-60023219D01*
X191471780Y-60118528D01*
X191579405Y-60173366D01*
X191616188Y-60216433D01*
X191611744Y-60272895D01*
X191568677Y-60309678D01*
X191545810Y-60313300D01*
X190804190Y-60313300D01*
X190751864Y-60291626D01*
X190730190Y-60239300D01*
X190751864Y-60186974D01*
X190770595Y-60173366D01*
X190808594Y-60154003D01*
X190878220Y-60118528D01*
X190973528Y-60023220D01*
X191034719Y-59903126D01*
X191050500Y-59803488D01*
X191050500Y-59236512D01*
X191050486Y-59236426D01*
X191034719Y-59136874D01*
X191034718Y-59136873D01*
X191019528Y-59107061D01*
X190973528Y-59016780D01*
X190878220Y-58921472D01*
X190878219Y-58921471D01*
X190758126Y-58860281D01*
X190758125Y-58860280D01*
X190658489Y-58844500D01*
X190658488Y-58844500D01*
X190141512Y-58844500D01*
X190141511Y-58844500D01*
X190041874Y-58860280D01*
X190041873Y-58860281D01*
X189921780Y-58921471D01*
X189826471Y-59016780D01*
X189765281Y-59136873D01*
X189765280Y-59136873D01*
X189756728Y-59190876D01*
X189727135Y-59239167D01*
X189683639Y-59253300D01*
X189064777Y-59253300D01*
X189012451Y-59231626D01*
X188991688Y-59190876D01*
X188989835Y-59179175D01*
X188984719Y-59146874D01*
X188923528Y-59026780D01*
X188828220Y-58931472D01*
X188828219Y-58931471D01*
X188708126Y-58870281D01*
X188708125Y-58870280D01*
X188608489Y-58854500D01*
X188608488Y-58854500D01*
X188091512Y-58854500D01*
X188091511Y-58854500D01*
X187991874Y-58870280D01*
X187991873Y-58870281D01*
X187871780Y-58931471D01*
X187776471Y-59026780D01*
X187715281Y-59146873D01*
X187715280Y-59146874D01*
X187699500Y-59246511D01*
X187699500Y-59813488D01*
X187715280Y-59913125D01*
X187715281Y-59913126D01*
X187771376Y-60023220D01*
X187776472Y-60033220D01*
X187871780Y-60128528D01*
X187991874Y-60189719D01*
X188091511Y-60205500D01*
X188091512Y-60205500D01*
X188608489Y-60205500D01*
X188671626Y-60195500D01*
X188708126Y-60189719D01*
X188828220Y-60128528D01*
X188923528Y-60033220D01*
X188984719Y-59913126D01*
X188991688Y-59869123D01*
X189021281Y-59820833D01*
X189064777Y-59806700D01*
X189686807Y-59806700D01*
X189739133Y-59828374D01*
X189759896Y-59869125D01*
X189765280Y-59903126D01*
X189765281Y-59903127D01*
X189770376Y-59913126D01*
X189826472Y-60023220D01*
X189921780Y-60118528D01*
X190041874Y-60179719D01*
X190141511Y-60195500D01*
X190533721Y-60195500D01*
X190586047Y-60217174D01*
X190607721Y-60269500D01*
X190586047Y-60321826D01*
X190570722Y-60333585D01*
X190552384Y-60344173D01*
X190552383Y-60344174D01*
X190510101Y-60368585D01*
X189038584Y-61840103D01*
X189038583Y-61840105D01*
X189002156Y-61903195D01*
X189000088Y-61910916D01*
X188983300Y-61973572D01*
X188983300Y-61973573D01*
X188983300Y-64264735D01*
X188961626Y-64317061D01*
X188702559Y-64576127D01*
X188650233Y-64597801D01*
X188597907Y-64576127D01*
X188576233Y-64523801D01*
X188582920Y-64493062D01*
X188615165Y-64422457D01*
X188635647Y-64280000D01*
X188615165Y-64137543D01*
X188555377Y-64006627D01*
X188461128Y-63897857D01*
X188372789Y-63841085D01*
X188340054Y-63820047D01*
X188340050Y-63820046D01*
X188201964Y-63779500D01*
X188201961Y-63779500D01*
X188058039Y-63779500D01*
X188052747Y-63779500D01*
X188052747Y-63776508D01*
X188007270Y-63764894D01*
X187999300Y-63757987D01*
X187903469Y-63662156D01*
X187779898Y-63538585D01*
X187754660Y-63524013D01*
X187716809Y-63502159D01*
X187716803Y-63502156D01*
X187688781Y-63494648D01*
X187646428Y-63483300D01*
X187646427Y-63483300D01*
X187309766Y-63483300D01*
X187257440Y-63461626D01*
X187245681Y-63446301D01*
X187240504Y-63437335D01*
X187157213Y-63354044D01*
X187135539Y-63301718D01*
X187157213Y-63249392D01*
X187181221Y-63233351D01*
X187210780Y-63221107D01*
X187345902Y-63130821D01*
X187460820Y-63015903D01*
X187551105Y-62880783D01*
X187609420Y-62740000D01*
X185027698Y-62740000D01*
X184985809Y-62767988D01*
X184930261Y-62756938D01*
X184919053Y-62747740D01*
X184411312Y-62239999D01*
X185030579Y-62239999D01*
X185030580Y-62240000D01*
X186070000Y-62240000D01*
X186070000Y-61665000D01*
X186570000Y-61665000D01*
X186570000Y-62240000D01*
X187609420Y-62240000D01*
X187609420Y-62239999D01*
X187551105Y-62099216D01*
X187460820Y-61964096D01*
X187345902Y-61849178D01*
X187210780Y-61758892D01*
X187060647Y-61696705D01*
X187060636Y-61696702D01*
X186901253Y-61665000D01*
X186570000Y-61665000D01*
X186070000Y-61665000D01*
X185738747Y-61665000D01*
X185579363Y-61696702D01*
X185579352Y-61696705D01*
X185429219Y-61758892D01*
X185294097Y-61849178D01*
X185179179Y-61964096D01*
X185088894Y-62099216D01*
X185030579Y-62239999D01*
X184411312Y-62239999D01*
X184219898Y-62048585D01*
X184194660Y-62034013D01*
X184156809Y-62012159D01*
X184156803Y-62012156D01*
X184112598Y-62000312D01*
X184086428Y-61993300D01*
X184086427Y-61993300D01*
X184010203Y-61993300D01*
X183957877Y-61971626D01*
X183944254Y-61949395D01*
X183943291Y-61949886D01*
X183895779Y-61856640D01*
X183883050Y-61831658D01*
X183793342Y-61741950D01*
X183680304Y-61684354D01*
X183680302Y-61684353D01*
X183680301Y-61684353D01*
X183586519Y-61669500D01*
X182973480Y-61669500D01*
X182879695Y-61684353D01*
X182879693Y-61684354D01*
X182766657Y-61741950D01*
X182676951Y-61831656D01*
X182619353Y-61944698D01*
X182604500Y-62038480D01*
X182604500Y-62501519D01*
X182619353Y-62595304D01*
X182619354Y-62595306D01*
X182650963Y-62657340D01*
X182676950Y-62708342D01*
X182766658Y-62798050D01*
X182879696Y-62855646D01*
X182973481Y-62870500D01*
X183586518Y-62870499D01*
X183586519Y-62870499D01*
X183680304Y-62855646D01*
X183680306Y-62855645D01*
X183721585Y-62834612D01*
X183793342Y-62798050D01*
X183883050Y-62708342D01*
X183909037Y-62657340D01*
X183952104Y-62620558D01*
X184008567Y-62625002D01*
X184027297Y-62638610D01*
X185308528Y-63919841D01*
X185327679Y-63953010D01*
X185330311Y-63962831D01*
X185330313Y-63962837D01*
X185394847Y-64074613D01*
X185399496Y-64082665D01*
X185497336Y-64180505D01*
X185617165Y-64249688D01*
X185750815Y-64285499D01*
X185750816Y-64285500D01*
X185750818Y-64285500D01*
X186889184Y-64285500D01*
X186889184Y-64285499D01*
X187022835Y-64249688D01*
X187142664Y-64180505D01*
X187240504Y-64082665D01*
X187245681Y-64073699D01*
X187290614Y-64039221D01*
X187309766Y-64036700D01*
X187464735Y-64036700D01*
X187517061Y-64058374D01*
X187612532Y-64153845D01*
X187634206Y-64206171D01*
X187633453Y-64216701D01*
X187624353Y-64279999D01*
X187644834Y-64422454D01*
X187644834Y-64422455D01*
X187644835Y-64422457D01*
X187687923Y-64516806D01*
X187704623Y-64553373D01*
X187771749Y-64630841D01*
X187789634Y-64684579D01*
X187764282Y-64735226D01*
X187715823Y-64753300D01*
X187309766Y-64753300D01*
X187257440Y-64731626D01*
X187245681Y-64716301D01*
X187240504Y-64707335D01*
X187142664Y-64609495D01*
X187022835Y-64540312D01*
X187022830Y-64540310D01*
X186889184Y-64504500D01*
X186889182Y-64504500D01*
X185750818Y-64504500D01*
X185750816Y-64504500D01*
X185617169Y-64540310D01*
X185617164Y-64540312D01*
X185497335Y-64609495D01*
X185399495Y-64707335D01*
X185394319Y-64716301D01*
X185349386Y-64750779D01*
X185330234Y-64753300D01*
X185195265Y-64753300D01*
X185142939Y-64731626D01*
X184628014Y-64216701D01*
X184109898Y-63698585D01*
X184084660Y-63684013D01*
X184046809Y-63662159D01*
X184046803Y-63662156D01*
X183993342Y-63647832D01*
X183948408Y-63613353D01*
X183942114Y-63599216D01*
X183940644Y-63594691D01*
X183893494Y-63502156D01*
X183883050Y-63481658D01*
X183793342Y-63391950D01*
X183680304Y-63334354D01*
X183680302Y-63334353D01*
X183680301Y-63334353D01*
X183586519Y-63319500D01*
X182973480Y-63319500D01*
X182879695Y-63334353D01*
X182879693Y-63334354D01*
X182766657Y-63391950D01*
X182676951Y-63481656D01*
X182619353Y-63594698D01*
X182604500Y-63688480D01*
X182604500Y-64151519D01*
X181750500Y-64151519D01*
X181750500Y-59263072D01*
X181772174Y-59210746D01*
X181824500Y-59189072D01*
X181835031Y-59189824D01*
X181874500Y-59195500D01*
X181874504Y-59195500D01*
X184051924Y-59195500D01*
X184051927Y-59195500D01*
X184086328Y-59191977D01*
X184140588Y-59208208D01*
X184167480Y-59258054D01*
X184167850Y-59267087D01*
X184167673Y-59275849D01*
X184157572Y-59775849D01*
X184153337Y-59985500D01*
X184138459Y-60721951D01*
X184137129Y-60787760D01*
X184139408Y-60811657D01*
X184141615Y-60834809D01*
X184141618Y-60834828D01*
X184153445Y-60890225D01*
X184156788Y-60903654D01*
X184156789Y-60903656D01*
X184200797Y-60983819D01*
X184200803Y-60983827D01*
X184247208Y-61036053D01*
X184265023Y-61053787D01*
X184265025Y-61053788D01*
X184265027Y-61053790D01*
X184345395Y-61097438D01*
X184412674Y-61116285D01*
X184412677Y-61116285D01*
X184412679Y-61116286D01*
X184470659Y-61123886D01*
X184470662Y-61123886D01*
X184470668Y-61123887D01*
X184470670Y-61123886D01*
X184470671Y-61123887D01*
X185211209Y-61114659D01*
X187432832Y-61086975D01*
X187472940Y-61082512D01*
X187520353Y-61072448D01*
X187527066Y-61070906D01*
X187608726Y-61029725D01*
X187662547Y-60985171D01*
X187680893Y-60967988D01*
X187727327Y-60889196D01*
X187748517Y-60822616D01*
X187758143Y-60764921D01*
X187763374Y-60532685D01*
X187759583Y-60488500D01*
X187749342Y-60436293D01*
X187746964Y-60425668D01*
X187705456Y-60344174D01*
X187705455Y-60344173D01*
X187705452Y-60344168D01*
X187660683Y-60290529D01*
X187660679Y-60290525D01*
X187652766Y-60282144D01*
X187643429Y-60272254D01*
X187564451Y-60226138D01*
X187564449Y-60226137D01*
X187564447Y-60226136D01*
X187497800Y-60205219D01*
X187497789Y-60205216D01*
X187485587Y-60202192D01*
X187473387Y-60199169D01*
X187473386Y-60199169D01*
X187385569Y-60202921D01*
X187332366Y-60183499D01*
X187308478Y-60132146D01*
X187327900Y-60078943D01*
X187330086Y-60076662D01*
X187373525Y-60033223D01*
X187373528Y-60033220D01*
X187434719Y-59913126D01*
X187450500Y-59813488D01*
X187450500Y-59246512D01*
X187446558Y-59221626D01*
X187434719Y-59146874D01*
X187434718Y-59146873D01*
X187429623Y-59136874D01*
X187373528Y-59026780D01*
X187368257Y-59021509D01*
X187346583Y-58969183D01*
X187368257Y-58916857D01*
X187420583Y-58895183D01*
X187438976Y-58897505D01*
X187452896Y-58901078D01*
X187522658Y-58904956D01*
X187547796Y-58904814D01*
X187626524Y-58881211D01*
X187635394Y-58878552D01*
X187635394Y-58878551D01*
X187635400Y-58878550D01*
X187696184Y-58844096D01*
X187742446Y-58808305D01*
X188642766Y-57878941D01*
X188656062Y-57863796D01*
X188671173Y-57844778D01*
X188707331Y-57775252D01*
X188727158Y-57708254D01*
X188735606Y-57650375D01*
X188736030Y-57450499D01*
X188733653Y-57428056D01*
X188731381Y-57406604D01*
X188731377Y-57406582D01*
X188726163Y-57382493D01*
X188720173Y-57354817D01*
X188717640Y-57344427D01*
X188705651Y-57321928D01*
X188674633Y-57263719D01*
X188674628Y-57263712D01*
X188648887Y-57234006D01*
X188628875Y-57210911D01*
X188611284Y-57192957D01*
X188611281Y-57192955D01*
X188611279Y-57192953D01*
X188557898Y-57163093D01*
X188522812Y-57118633D01*
X188529442Y-57062385D01*
X188573902Y-57027299D01*
X188579563Y-57025938D01*
X188636231Y-57014667D01*
X188702552Y-56970352D01*
X188746867Y-56904031D01*
X188758500Y-56845548D01*
X188758500Y-56354452D01*
X188746867Y-56295969D01*
X188702552Y-56229648D01*
X188680343Y-56214808D01*
X188636232Y-56185333D01*
X188582093Y-56174564D01*
X188535001Y-56143098D01*
X188523952Y-56087549D01*
X188555418Y-56040457D01*
X188561854Y-56036614D01*
X188595654Y-56018696D01*
X188648555Y-55973054D01*
X188666548Y-55955498D01*
X188711364Y-55875776D01*
X188731191Y-55808778D01*
X188739639Y-55750899D01*
X188741085Y-55069125D01*
X188739930Y-55046935D01*
X188737096Y-55020314D01*
X188713114Y-54943582D01*
X188679629Y-54882259D01*
X188679617Y-54882240D01*
X188679618Y-54882240D01*
X188668937Y-54865243D01*
X188666255Y-54860975D01*
X188666251Y-54860972D01*
X188666250Y-54860970D01*
X188597756Y-54800385D01*
X188597754Y-54800384D01*
X188597752Y-54800382D01*
X188588533Y-54795348D01*
X188552999Y-54751247D01*
X188550002Y-54730402D01*
X188550002Y-53000000D01*
X189050002Y-53000000D01*
X189050002Y-55000000D01*
X189147831Y-55000000D01*
X189207377Y-54993597D01*
X189207382Y-54993596D01*
X189342089Y-54943354D01*
X189342090Y-54943353D01*
X189457190Y-54857188D01*
X189543355Y-54742087D01*
X189545023Y-54739035D01*
X189589123Y-54703497D01*
X189609971Y-54700500D01*
X190069746Y-54700500D01*
X190069748Y-54700500D01*
X190128231Y-54688867D01*
X190194552Y-54644552D01*
X190238867Y-54578231D01*
X190250500Y-54519748D01*
X190250500Y-53480252D01*
X190238867Y-53421769D01*
X190194552Y-53355448D01*
X190162802Y-53334233D01*
X190128232Y-53311133D01*
X190128233Y-53311133D01*
X190098989Y-53305316D01*
X190069748Y-53299500D01*
X189609971Y-53299500D01*
X189557645Y-53277826D01*
X189545023Y-53260965D01*
X189543355Y-53257912D01*
X189457190Y-53142811D01*
X189342090Y-53056646D01*
X189342089Y-53056645D01*
X189207382Y-53006403D01*
X189207377Y-53006402D01*
X189147831Y-53000000D01*
X189050002Y-53000000D01*
X188550002Y-53000000D01*
X188452173Y-53000000D01*
X188392626Y-53006402D01*
X188392621Y-53006403D01*
X188257914Y-53056645D01*
X188257913Y-53056646D01*
X188142813Y-53142811D01*
X188056648Y-53257912D01*
X188054981Y-53260965D01*
X188010881Y-53296503D01*
X187990033Y-53299500D01*
X187530253Y-53299500D01*
X187514010Y-53302731D01*
X187471767Y-53311133D01*
X187468289Y-53312574D01*
X187411652Y-53312567D01*
X187371608Y-53272513D01*
X187371614Y-53215879D01*
X187375808Y-53205807D01*
X187381823Y-53189433D01*
X187389602Y-53098308D01*
X187379905Y-53029114D01*
X187374900Y-53004478D01*
X187332177Y-52923613D01*
X187286610Y-52870647D01*
X187269084Y-52852632D01*
X187269083Y-52852631D01*
X187189425Y-52807700D01*
X187122459Y-52787778D01*
X187064591Y-52779247D01*
X185748775Y-52774564D01*
X185739259Y-52773915D01*
X185617588Y-52757693D01*
X185600264Y-52756126D01*
X185585117Y-52755402D01*
X185579297Y-52755124D01*
X185561875Y-52755030D01*
X185561873Y-52755030D01*
X185561866Y-52755030D01*
X184663639Y-52788297D01*
X184610547Y-52768575D01*
X184586951Y-52717087D01*
X184586903Y-52715015D01*
X184583498Y-52337067D01*
X184604700Y-52284550D01*
X184656828Y-52262405D01*
X184665018Y-52262785D01*
X184686692Y-52264999D01*
X184710000Y-52264999D01*
X184710000Y-51540000D01*
X185210000Y-51540000D01*
X185210000Y-52264999D01*
X185233307Y-52264999D01*
X185233312Y-52264998D01*
X185332608Y-52254855D01*
X185493482Y-52201547D01*
X185637731Y-52112573D01*
X185757573Y-51992731D01*
X185846547Y-51848482D01*
X185899855Y-51687608D01*
X185909999Y-51588311D01*
X185910000Y-51588309D01*
X185910000Y-51540000D01*
X185210000Y-51540000D01*
X184710000Y-51540000D01*
X184710000Y-51114000D01*
X184731674Y-51061674D01*
X184784000Y-51040000D01*
X185909999Y-51040000D01*
X185909999Y-50991693D01*
X185909998Y-50991687D01*
X185899855Y-50892391D01*
X185846547Y-50731517D01*
X185789371Y-50638820D01*
X185780349Y-50582906D01*
X185813506Y-50536989D01*
X185851382Y-50525978D01*
X187332102Y-50506580D01*
X187384705Y-50527567D01*
X187407063Y-50579605D01*
X187394598Y-50621686D01*
X187361134Y-50671767D01*
X187359505Y-50679959D01*
X187349501Y-50730252D01*
X187349501Y-51769748D01*
X187356005Y-51802445D01*
X187361134Y-51828232D01*
X187376675Y-51851490D01*
X187405449Y-51894552D01*
X187449561Y-51924027D01*
X187471768Y-51938866D01*
X187471769Y-51938866D01*
X187471770Y-51938867D01*
X187530253Y-51950500D01*
X187530255Y-51950500D01*
X188169747Y-51950500D01*
X188169749Y-51950500D01*
X188228232Y-51938867D01*
X188294553Y-51894552D01*
X188338868Y-51828231D01*
X188350501Y-51769748D01*
X188350501Y-50730252D01*
X188338868Y-50671769D01*
X188296431Y-50608259D01*
X188285382Y-50552713D01*
X188316846Y-50505620D01*
X188356989Y-50493154D01*
X188821216Y-50487073D01*
X188862777Y-50482270D01*
X188911830Y-50471453D01*
X188919974Y-50469482D01*
X189001001Y-50427069D01*
X189054141Y-50381705D01*
X189072223Y-50364249D01*
X189117459Y-50284763D01*
X189137639Y-50217871D01*
X189146391Y-50160036D01*
X189151169Y-49513365D01*
X189150077Y-49490630D01*
X189147246Y-49463356D01*
X189123207Y-49386087D01*
X189089722Y-49324764D01*
X189089717Y-49324756D01*
X189089711Y-49324745D01*
X189081705Y-49312006D01*
X189076348Y-49303480D01*
X189076344Y-49303477D01*
X189076343Y-49303475D01*
X189007846Y-49242887D01*
X189007839Y-49242883D01*
X188946541Y-49209411D01*
X188946501Y-49209391D01*
X188923770Y-49198729D01*
X188923767Y-49198728D01*
X188923765Y-49198727D01*
X188923763Y-49198726D01*
X188923758Y-49198725D01*
X188833381Y-49184788D01*
X188833378Y-49184788D01*
X188833377Y-49184788D01*
X188764566Y-49189709D01*
X188710828Y-49171822D01*
X188685476Y-49121175D01*
X188697759Y-49074786D01*
X188728867Y-49028231D01*
X188740500Y-48969748D01*
X188740500Y-48259331D01*
X188762174Y-48207005D01*
X188814500Y-48185331D01*
X188866826Y-48207005D01*
X188888218Y-48252882D01*
X188895430Y-48335317D01*
X188895431Y-48335325D01*
X188956566Y-48563483D01*
X188956571Y-48563494D01*
X189056401Y-48777579D01*
X189191888Y-48971075D01*
X189358924Y-49138111D01*
X189552420Y-49273598D01*
X189766505Y-49373428D01*
X189766508Y-49373430D01*
X189980000Y-49430634D01*
X189980000Y-48533012D01*
X190037007Y-48565925D01*
X190164174Y-48600000D01*
X190295826Y-48600000D01*
X190422993Y-48565925D01*
X190480000Y-48533012D01*
X190480000Y-49430634D01*
X190693491Y-49373430D01*
X190693494Y-49373428D01*
X190907579Y-49273598D01*
X191101075Y-49138111D01*
X191268111Y-48971075D01*
X191403598Y-48777579D01*
X191503428Y-48563494D01*
X191503433Y-48563483D01*
X191564568Y-48335325D01*
X191564569Y-48335318D01*
X191576604Y-48197758D01*
X191602755Y-48147520D01*
X191656771Y-48130489D01*
X191707009Y-48156640D01*
X191723966Y-48196953D01*
X191734700Y-48305935D01*
X191760855Y-48392158D01*
X191794768Y-48503954D01*
X191892315Y-48686450D01*
X192023590Y-48846410D01*
X192183550Y-48977685D01*
X192366046Y-49075232D01*
X192564066Y-49135300D01*
X192770000Y-49155583D01*
X192975934Y-49135300D01*
X193173954Y-49075232D01*
X193242831Y-49038415D01*
X193299193Y-49032864D01*
X193330039Y-49051352D01*
X194034517Y-49755830D01*
X194056191Y-49808156D01*
X194034518Y-49860481D01*
X194020000Y-49874999D01*
X194020000Y-50600000D01*
X194719999Y-50600000D01*
X194734115Y-50585883D01*
X194741673Y-50567638D01*
X194793999Y-50545964D01*
X194846325Y-50567638D01*
X195521626Y-51242939D01*
X195543300Y-51295265D01*
X195543300Y-55605500D01*
X195521626Y-55657826D01*
X195469300Y-55679500D01*
X195274235Y-55679500D01*
X195206106Y-55689427D01*
X195206105Y-55689427D01*
X195101017Y-55740801D01*
X195018301Y-55823517D01*
X194966927Y-55928605D01*
X194966927Y-55928606D01*
X194957000Y-55996735D01*
X194957000Y-56363264D01*
X194966927Y-56431393D01*
X194966927Y-56431394D01*
X195018301Y-56536482D01*
X195018302Y-56536483D01*
X195101017Y-56619198D01*
X195206107Y-56670573D01*
X195274240Y-56680500D01*
X195274246Y-56680500D01*
X196365754Y-56680500D01*
X196365760Y-56680500D01*
X196433893Y-56670573D01*
X196538983Y-56619198D01*
X196621698Y-56536483D01*
X196673073Y-56431393D01*
X196683000Y-56363260D01*
X196683000Y-55996740D01*
X196673073Y-55928607D01*
X196621698Y-55823517D01*
X196538983Y-55740802D01*
X196538982Y-55740801D01*
X196433894Y-55689427D01*
X196365764Y-55679500D01*
X196365760Y-55679500D01*
X196170700Y-55679500D01*
X196118374Y-55657826D01*
X196096700Y-55605500D01*
X196096700Y-51113573D01*
X196096700Y-51113572D01*
X196077844Y-51043198D01*
X196041415Y-50980102D01*
X196034613Y-50973300D01*
X195989898Y-50928584D01*
X195989898Y-50928585D01*
X193721352Y-48660039D01*
X193699678Y-48607713D01*
X193708414Y-48572833D01*
X193745232Y-48503954D01*
X193805300Y-48305934D01*
X193825583Y-48100000D01*
X194254417Y-48100000D01*
X194274700Y-48305935D01*
X194300855Y-48392158D01*
X194334768Y-48503954D01*
X194432315Y-48686450D01*
X194563590Y-48846410D01*
X194723550Y-48977685D01*
X194906046Y-49075232D01*
X195104066Y-49135300D01*
X195310000Y-49155583D01*
X195515934Y-49135300D01*
X195713954Y-49075232D01*
X195782831Y-49038415D01*
X195839193Y-49032864D01*
X195870039Y-49051352D01*
X198221626Y-51402939D01*
X198243300Y-51455265D01*
X198243300Y-52223572D01*
X198243300Y-52296428D01*
X198262156Y-52366803D01*
X198298585Y-52429898D01*
X200101626Y-54232939D01*
X200123300Y-54285264D01*
X200123300Y-54701575D01*
X200101626Y-54753901D01*
X200060876Y-54774664D01*
X199999695Y-54784354D01*
X199999693Y-54784354D01*
X199886657Y-54841950D01*
X199796951Y-54931656D01*
X199739353Y-55044698D01*
X199731721Y-55092883D01*
X199702127Y-55141173D01*
X199695638Y-55145387D01*
X199690107Y-55148580D01*
X199690102Y-55148584D01*
X199007830Y-55830856D01*
X198955504Y-55852530D01*
X198903178Y-55830856D01*
X198898425Y-55825244D01*
X198813982Y-55740801D01*
X198708894Y-55689427D01*
X198640764Y-55679500D01*
X198640760Y-55679500D01*
X197549240Y-55679500D01*
X197549235Y-55679500D01*
X197481106Y-55689427D01*
X197481105Y-55689427D01*
X197376017Y-55740801D01*
X197293301Y-55823517D01*
X197241927Y-55928605D01*
X197241927Y-55928606D01*
X197232000Y-55996735D01*
X197232000Y-56363253D01*
X197232001Y-56363274D01*
X197234082Y-56377559D01*
X197220176Y-56432462D01*
X197198526Y-56451918D01*
X197180944Y-56462316D01*
X197064817Y-56578443D01*
X196981218Y-56719800D01*
X196935400Y-56877506D01*
X196935204Y-56880000D01*
X199254796Y-56880000D01*
X199254599Y-56877506D01*
X199223366Y-56770000D01*
X199425000Y-56770000D01*
X200150000Y-56770000D01*
X200150000Y-56120000D01*
X200068429Y-56120000D01*
X200068416Y-56120001D01*
X199997897Y-56126408D01*
X199997893Y-56126409D01*
X199835606Y-56176979D01*
X199690125Y-56264925D01*
X199569925Y-56385125D01*
X199481979Y-56530606D01*
X199431410Y-56692890D01*
X199431408Y-56692900D01*
X199425000Y-56763417D01*
X199425000Y-56770000D01*
X199223366Y-56770000D01*
X199208781Y-56719800D01*
X199125182Y-56578443D01*
X199111608Y-56564869D01*
X199089934Y-56512543D01*
X199111608Y-56460217D01*
X199144781Y-56441065D01*
X199156803Y-56437844D01*
X199219898Y-56401415D01*
X199752634Y-55868677D01*
X199804960Y-55847004D01*
X199857286Y-55868678D01*
X199886658Y-55898050D01*
X199999696Y-55955646D01*
X200093481Y-55970500D01*
X200706518Y-55970499D01*
X200706519Y-55970499D01*
X200800304Y-55955646D01*
X200800306Y-55955645D01*
X200828216Y-55941424D01*
X200913342Y-55898050D01*
X201003050Y-55808342D01*
X201060646Y-55695304D01*
X201075500Y-55601519D01*
X201075499Y-55138482D01*
X201068277Y-55092883D01*
X201060646Y-55044695D01*
X201060645Y-55044693D01*
X201022443Y-54969719D01*
X201003050Y-54931658D01*
X200913342Y-54841950D01*
X200800304Y-54784354D01*
X200800302Y-54784353D01*
X200800301Y-54784353D01*
X200739124Y-54774664D01*
X200690833Y-54745071D01*
X200676700Y-54701575D01*
X200676700Y-54103573D01*
X200665025Y-54060000D01*
X200657844Y-54033198D01*
X200621415Y-53970102D01*
X200621414Y-53970101D01*
X200569898Y-53918584D01*
X200569898Y-53918585D01*
X198818374Y-52167061D01*
X198796700Y-52114735D01*
X198796700Y-51273573D01*
X198794543Y-51265522D01*
X198777844Y-51203198D01*
X198741415Y-51140102D01*
X198734801Y-51133488D01*
X198689898Y-51088584D01*
X198689898Y-51088585D01*
X196261352Y-48660039D01*
X196239678Y-48607713D01*
X196248414Y-48572833D01*
X196285232Y-48503954D01*
X196345300Y-48305934D01*
X196365583Y-48100000D01*
X196345300Y-47894066D01*
X196285232Y-47696046D01*
X196187685Y-47513550D01*
X196056410Y-47353590D01*
X195896450Y-47222315D01*
X195713954Y-47124768D01*
X195602158Y-47090855D01*
X195515935Y-47064700D01*
X195310000Y-47044417D01*
X195104064Y-47064700D01*
X194906043Y-47124769D01*
X194723549Y-47222315D01*
X194563590Y-47353589D01*
X194563589Y-47353590D01*
X194432315Y-47513549D01*
X194334769Y-47696043D01*
X194274700Y-47894064D01*
X194254417Y-48100000D01*
X193825583Y-48100000D01*
X193805300Y-47894066D01*
X193745232Y-47696046D01*
X193647685Y-47513550D01*
X193516410Y-47353590D01*
X193356450Y-47222315D01*
X193173954Y-47124768D01*
X193062158Y-47090855D01*
X192975935Y-47064700D01*
X192770000Y-47044417D01*
X192564064Y-47064700D01*
X192366043Y-47124769D01*
X192183549Y-47222315D01*
X192023590Y-47353589D01*
X192023589Y-47353590D01*
X191892315Y-47513549D01*
X191794769Y-47696043D01*
X191734700Y-47894064D01*
X191723966Y-48003046D01*
X191697267Y-48052995D01*
X191643068Y-48069436D01*
X191593119Y-48042737D01*
X191576604Y-48002241D01*
X191564569Y-47864681D01*
X191564568Y-47864674D01*
X191503433Y-47636516D01*
X191503428Y-47636505D01*
X191403598Y-47422421D01*
X191268109Y-47228921D01*
X191101075Y-47061888D01*
X191101076Y-47061888D01*
X190907579Y-46926401D01*
X190693494Y-46826571D01*
X190693483Y-46826566D01*
X190480000Y-46769363D01*
X190480000Y-47666988D01*
X190422993Y-47634075D01*
X190295826Y-47600000D01*
X190164174Y-47600000D01*
X190037007Y-47634075D01*
X189980000Y-47666988D01*
X189980000Y-46769363D01*
X189979999Y-46769363D01*
X189766512Y-46826567D01*
X189552421Y-46926401D01*
X189358921Y-47061890D01*
X189191890Y-47228921D01*
X189056401Y-47422421D01*
X188956571Y-47636505D01*
X188956566Y-47636516D01*
X188895431Y-47864674D01*
X188895430Y-47864681D01*
X188888218Y-47947118D01*
X188862066Y-47997355D01*
X188808050Y-48014386D01*
X188757813Y-47988234D01*
X188740500Y-47940668D01*
X188740500Y-47230253D01*
X188737102Y-47213170D01*
X188728867Y-47171769D01*
X188702380Y-47132129D01*
X188691331Y-47076583D01*
X188722795Y-47029490D01*
X188770485Y-47017311D01*
X188804966Y-47020387D01*
X188851645Y-47024553D01*
X188851646Y-47024552D01*
X188851648Y-47024553D01*
X188920878Y-47015121D01*
X188920886Y-47015119D01*
X188920896Y-47015118D01*
X188945529Y-47010212D01*
X188986312Y-46988865D01*
X189026558Y-46967800D01*
X189079699Y-46922437D01*
X189097784Y-46904978D01*
X189143020Y-46825492D01*
X189163200Y-46758600D01*
X189171952Y-46700766D01*
X189174272Y-46386936D01*
X189169741Y-46342474D01*
X189169739Y-46342465D01*
X189169692Y-46342003D01*
X189185949Y-46287749D01*
X189235808Y-46260881D01*
X189243311Y-46260500D01*
X201295500Y-46260500D01*
X201347826Y-46282174D01*
G37*
G04 #@! TD.AperFunction*
G04 #@! TA.AperFunction,Conductor*
G36*
X185590435Y-52961391D02*
G01*
X185730000Y-52980000D01*
X187063860Y-52984746D01*
X187130827Y-53004669D01*
X187176394Y-53057635D01*
X187186091Y-53126829D01*
X187162684Y-53183056D01*
X187106648Y-53257910D01*
X187106646Y-53257913D01*
X187056404Y-53392620D01*
X187056402Y-53392627D01*
X187050001Y-53452155D01*
X187050001Y-53750000D01*
X187976001Y-53750000D01*
X188043040Y-53769685D01*
X188088795Y-53822489D01*
X188100001Y-53874000D01*
X188100001Y-55000000D01*
X188197829Y-55000000D01*
X188197845Y-54999999D01*
X188257373Y-54993598D01*
X188257377Y-54993597D01*
X188368251Y-54952244D01*
X188437943Y-54947260D01*
X188499266Y-54980745D01*
X188532751Y-55042068D01*
X188535585Y-55068689D01*
X188534139Y-55750463D01*
X188514312Y-55817461D01*
X188461411Y-55863103D01*
X188410139Y-55874200D01*
X188075800Y-55874200D01*
X188075800Y-57325800D01*
X188406530Y-57325800D01*
X188473569Y-57345485D01*
X188519324Y-57398289D01*
X188530530Y-57450063D01*
X188530106Y-57649939D01*
X188510279Y-57716937D01*
X188495168Y-57735955D01*
X188208070Y-58032315D01*
X187600000Y-58660000D01*
X187599999Y-58660000D01*
X187594848Y-58665319D01*
X187534064Y-58699773D01*
X187464302Y-58695895D01*
X187440689Y-58684578D01*
X187333492Y-58618457D01*
X187333481Y-58618452D01*
X187172606Y-58565144D01*
X187073322Y-58555000D01*
X187050000Y-58555000D01*
X187050000Y-60504999D01*
X187073308Y-60504999D01*
X187073322Y-60504998D01*
X187172607Y-60494855D01*
X187333481Y-60441547D01*
X187333488Y-60441544D01*
X187368859Y-60419727D01*
X187436252Y-60401286D01*
X187502915Y-60422208D01*
X187547685Y-60475850D01*
X187557926Y-60528057D01*
X187552695Y-60760293D01*
X187531505Y-60826873D01*
X187477684Y-60871427D01*
X187430271Y-60881491D01*
X184468107Y-60918403D01*
X184400828Y-60899556D01*
X184354418Y-60847326D01*
X184342587Y-60791911D01*
X184363030Y-59780000D01*
X185850001Y-59780000D01*
X185850001Y-59828322D01*
X185860144Y-59927607D01*
X185913452Y-60088481D01*
X185913457Y-60088492D01*
X186002424Y-60232728D01*
X186002427Y-60232732D01*
X186122267Y-60352572D01*
X186122271Y-60352575D01*
X186266507Y-60441542D01*
X186266518Y-60441547D01*
X186427393Y-60494855D01*
X186526683Y-60504999D01*
X186550000Y-60504998D01*
X186550000Y-59780000D01*
X185850001Y-59780000D01*
X184363030Y-59780000D01*
X184373131Y-59280000D01*
X185850000Y-59280000D01*
X186550000Y-59280000D01*
X186550000Y-58554999D01*
X186526693Y-58555000D01*
X186526674Y-58555001D01*
X186427392Y-58565144D01*
X186266518Y-58618452D01*
X186266507Y-58618457D01*
X186122271Y-58707424D01*
X186122267Y-58707427D01*
X186002427Y-58827267D01*
X186002424Y-58827271D01*
X185913457Y-58971507D01*
X185913452Y-58971518D01*
X185860144Y-59132393D01*
X185850000Y-59231677D01*
X185850000Y-59280000D01*
X184373131Y-59280000D01*
X184394236Y-58235275D01*
X184415271Y-58168650D01*
X184468988Y-58123971D01*
X184538333Y-58115427D01*
X184561372Y-58122544D01*
X184561524Y-58122086D01*
X184734803Y-58179505D01*
X184734810Y-58179506D01*
X184837514Y-58189999D01*
X184837527Y-58190000D01*
X185100000Y-58190000D01*
X185600000Y-58190000D01*
X185862473Y-58190000D01*
X185862485Y-58189999D01*
X185965189Y-58179506D01*
X185965196Y-58179505D01*
X186131618Y-58124358D01*
X186131623Y-58124356D01*
X186280844Y-58032315D01*
X186404815Y-57908344D01*
X186496856Y-57759123D01*
X186496858Y-57759118D01*
X186552005Y-57592696D01*
X186552006Y-57592689D01*
X186562499Y-57489985D01*
X186562500Y-57489972D01*
X186562500Y-57258576D01*
X186582185Y-57191537D01*
X186634989Y-57145782D01*
X186704147Y-57135838D01*
X186767703Y-57164863D01*
X186781436Y-57179614D01*
X186784812Y-57182990D01*
X186899906Y-57269150D01*
X186899913Y-57269154D01*
X187034620Y-57319396D01*
X187034627Y-57319398D01*
X187094155Y-57325799D01*
X187094172Y-57325800D01*
X187624200Y-57325800D01*
X187624200Y-56825800D01*
X186623611Y-56825800D01*
X186602796Y-56837166D01*
X186576438Y-56840000D01*
X185600000Y-56840000D01*
X185600000Y-58190000D01*
X185100000Y-58190000D01*
X185100000Y-54990000D01*
X185600000Y-54990000D01*
X185600000Y-56340000D01*
X186556438Y-56340000D01*
X186623477Y-56359685D01*
X186641489Y-56374200D01*
X187624200Y-56374200D01*
X187624200Y-55874200D01*
X187094155Y-55874200D01*
X187034627Y-55880601D01*
X187034620Y-55880603D01*
X186899913Y-55930845D01*
X186899906Y-55930849D01*
X186784812Y-56017009D01*
X186778540Y-56023282D01*
X186777318Y-56022060D01*
X186729825Y-56057608D01*
X186660132Y-56062587D01*
X186598812Y-56029097D01*
X186565332Y-55967772D01*
X186562500Y-55941423D01*
X186562500Y-55690027D01*
X186562499Y-55690014D01*
X186552006Y-55587310D01*
X186552005Y-55587303D01*
X186496858Y-55420881D01*
X186496856Y-55420876D01*
X186404815Y-55271655D01*
X186280844Y-55147684D01*
X186131623Y-55055643D01*
X186131618Y-55055641D01*
X185965196Y-55000494D01*
X185965189Y-55000493D01*
X185862485Y-54990000D01*
X185600000Y-54990000D01*
X185100000Y-54990000D01*
X184837514Y-54990000D01*
X184734810Y-55000493D01*
X184734800Y-55000495D01*
X184624252Y-55037127D01*
X184554424Y-55039529D01*
X184494382Y-55003797D01*
X184463190Y-54941276D01*
X184461274Y-54916916D01*
X184464806Y-54742086D01*
X184474747Y-54250000D01*
X187050001Y-54250000D01*
X187050001Y-54547844D01*
X187056402Y-54607372D01*
X187056404Y-54607379D01*
X187106646Y-54742086D01*
X187106650Y-54742093D01*
X187192810Y-54857187D01*
X187192813Y-54857190D01*
X187307907Y-54943350D01*
X187307914Y-54943354D01*
X187442621Y-54993596D01*
X187442628Y-54993598D01*
X187502156Y-54999999D01*
X187502173Y-55000000D01*
X187600001Y-55000000D01*
X187600001Y-54250000D01*
X187050001Y-54250000D01*
X184474747Y-54250000D01*
X184497634Y-53117072D01*
X184518669Y-53050447D01*
X184572386Y-53005768D01*
X184617015Y-52995666D01*
X185569481Y-52960389D01*
X185590435Y-52961391D01*
G37*
G04 #@! TD.AperFunction*
G04 #@! TA.AperFunction,Conductor*
G36*
X188911820Y-46280185D02*
G01*
X188957575Y-46332989D01*
X188968778Y-46385417D01*
X188966458Y-46699247D01*
X188946278Y-46766139D01*
X188893137Y-46811502D01*
X188823907Y-46820934D01*
X188790432Y-46809655D01*
X188790399Y-46809746D01*
X188787573Y-46808692D01*
X188783038Y-46807164D01*
X188782093Y-46806648D01*
X188647379Y-46756403D01*
X188647372Y-46756401D01*
X188587844Y-46750000D01*
X187940000Y-46750000D01*
X187940000Y-47666988D01*
X187882993Y-47634075D01*
X187755826Y-47600000D01*
X187624174Y-47600000D01*
X187497007Y-47634075D01*
X187440000Y-47666988D01*
X187440000Y-46750000D01*
X186792155Y-46750000D01*
X186732627Y-46756401D01*
X186732620Y-46756403D01*
X186597913Y-46806645D01*
X186597906Y-46806649D01*
X186482812Y-46892809D01*
X186482809Y-46892812D01*
X186396649Y-47007906D01*
X186396645Y-47007913D01*
X186346403Y-47142620D01*
X186346401Y-47142627D01*
X186340000Y-47202155D01*
X186340000Y-47850000D01*
X187256988Y-47850000D01*
X187224075Y-47907007D01*
X187190000Y-48034174D01*
X187190000Y-48165826D01*
X187224075Y-48292993D01*
X187256988Y-48350000D01*
X186340000Y-48350000D01*
X186340000Y-48997844D01*
X186346401Y-49057372D01*
X186346403Y-49057379D01*
X186396645Y-49192086D01*
X186396649Y-49192093D01*
X186482809Y-49307187D01*
X186482812Y-49307190D01*
X186597906Y-49393350D01*
X186597913Y-49393354D01*
X186732620Y-49443596D01*
X186732627Y-49443598D01*
X186792155Y-49449999D01*
X186792172Y-49450000D01*
X187440000Y-49450000D01*
X187440000Y-48533012D01*
X187497007Y-48565925D01*
X187624174Y-48600000D01*
X187755826Y-48600000D01*
X187882993Y-48565925D01*
X187940000Y-48533012D01*
X187940000Y-49450000D01*
X188587828Y-49450000D01*
X188587844Y-49449999D01*
X188647372Y-49443598D01*
X188647376Y-49443597D01*
X188778344Y-49394749D01*
X188848036Y-49389765D01*
X188909359Y-49423250D01*
X188942844Y-49484573D01*
X188945675Y-49511847D01*
X188940897Y-50158518D01*
X188920717Y-50225410D01*
X188867577Y-50270774D01*
X188818524Y-50281591D01*
X184360000Y-50340000D01*
X184360902Y-50440123D01*
X184341822Y-50507337D01*
X184289432Y-50553566D01*
X184220366Y-50564132D01*
X184156552Y-50535680D01*
X184149226Y-50528921D01*
X184087732Y-50467427D01*
X184087728Y-50467424D01*
X183943492Y-50378457D01*
X183943481Y-50378452D01*
X183782606Y-50325144D01*
X183683322Y-50315000D01*
X183660000Y-50315000D01*
X183660000Y-52264999D01*
X183683308Y-52264999D01*
X183683322Y-52264998D01*
X183782607Y-52254855D01*
X183943481Y-52201547D01*
X183943492Y-52201542D01*
X184087727Y-52112576D01*
X184164380Y-52035923D01*
X184225703Y-52002438D01*
X184295395Y-52007422D01*
X184351329Y-52049293D01*
X184375746Y-52114757D01*
X184376057Y-52122487D01*
X184382625Y-52851565D01*
X184365605Y-52915390D01*
X184322704Y-52988573D01*
X184301669Y-53055201D01*
X184292176Y-53112916D01*
X184269289Y-54245850D01*
X184265054Y-54455499D01*
X184265054Y-54455500D01*
X184255816Y-54912759D01*
X184255816Y-54912784D01*
X184256406Y-54933020D01*
X184258321Y-54957379D01*
X184258323Y-54957389D01*
X184279305Y-55033018D01*
X184310492Y-55095528D01*
X184310497Y-55095538D01*
X184323073Y-55117302D01*
X184323073Y-55117303D01*
X184351729Y-55144606D01*
X184386687Y-55205102D01*
X184390177Y-55236369D01*
X184388564Y-55336991D01*
X184367808Y-55403706D01*
X184314277Y-55448609D01*
X184244968Y-55457442D01*
X184181886Y-55427402D01*
X184159041Y-55400100D01*
X184079815Y-55271655D01*
X183955844Y-55147684D01*
X183806623Y-55055643D01*
X183806618Y-55055641D01*
X183640196Y-55000494D01*
X183640189Y-55000493D01*
X183537485Y-54990000D01*
X183275000Y-54990000D01*
X183275000Y-58190000D01*
X183537473Y-58190000D01*
X183537485Y-58189999D01*
X183640189Y-58179506D01*
X183640196Y-58179505D01*
X183806618Y-58124358D01*
X183806623Y-58124356D01*
X183955841Y-58032317D01*
X184017423Y-57970735D01*
X184078746Y-57937250D01*
X184148438Y-57942234D01*
X184204372Y-57984105D01*
X184228789Y-58049569D01*
X184220016Y-58099700D01*
X184221403Y-58100138D01*
X184198271Y-58173404D01*
X184188778Y-58231119D01*
X184175902Y-58868505D01*
X184154867Y-58935133D01*
X184101150Y-58979812D01*
X184051927Y-58990000D01*
X181874500Y-58990000D01*
X181807461Y-58970315D01*
X181761706Y-58917511D01*
X181750500Y-58866000D01*
X181750500Y-57987255D01*
X181770185Y-57920216D01*
X181822989Y-57874461D01*
X181892147Y-57864517D01*
X181955703Y-57893542D01*
X181965021Y-57903290D01*
X181965076Y-57903236D01*
X182094155Y-58032315D01*
X182243376Y-58124356D01*
X182243381Y-58124358D01*
X182409803Y-58179505D01*
X182409810Y-58179506D01*
X182512514Y-58189999D01*
X182512527Y-58190000D01*
X182775000Y-58190000D01*
X182775000Y-54990000D01*
X182512514Y-54990000D01*
X182409810Y-55000493D01*
X182409803Y-55000494D01*
X182243381Y-55055641D01*
X182243376Y-55055643D01*
X182094155Y-55147684D01*
X181965076Y-55276764D01*
X181963687Y-55275375D01*
X181914741Y-55310033D01*
X181844942Y-55313170D01*
X181784527Y-55278072D01*
X181752678Y-55215884D01*
X181750500Y-55192744D01*
X181750500Y-51540000D01*
X182460001Y-51540000D01*
X182460001Y-51588322D01*
X182470144Y-51687607D01*
X182523452Y-51848481D01*
X182523457Y-51848492D01*
X182612424Y-51992728D01*
X182612427Y-51992732D01*
X182732267Y-52112572D01*
X182732271Y-52112575D01*
X182876507Y-52201542D01*
X182876518Y-52201547D01*
X183037393Y-52254855D01*
X183136683Y-52264999D01*
X183160000Y-52264998D01*
X183160000Y-51540000D01*
X182460001Y-51540000D01*
X181750500Y-51540000D01*
X181750500Y-51040000D01*
X182460000Y-51040000D01*
X183160000Y-51040000D01*
X183160000Y-50314999D01*
X183136693Y-50315000D01*
X183136674Y-50315001D01*
X183037392Y-50325144D01*
X182876518Y-50378452D01*
X182876507Y-50378457D01*
X182732271Y-50467424D01*
X182732267Y-50467427D01*
X182612427Y-50587267D01*
X182612424Y-50587271D01*
X182523457Y-50731507D01*
X182523452Y-50731518D01*
X182470144Y-50892393D01*
X182460000Y-50991677D01*
X182460000Y-51040000D01*
X181750500Y-51040000D01*
X181750500Y-46384500D01*
X181770185Y-46317461D01*
X181822989Y-46271706D01*
X181874500Y-46260500D01*
X188844781Y-46260500D01*
X188911820Y-46280185D01*
G37*
G04 #@! TD.AperFunction*
M02*
