G04 #@! TF.GenerationSoftware,KiCad,Pcbnew,8.0.1*
G04 #@! TF.CreationDate,2025-03-18T21:27:00-06:00*
G04 #@! TF.ProjectId,Temperature_Flex_boost,54656d70-6572-4617-9475-72655f466c65,rev?*
G04 #@! TF.SameCoordinates,Original*
G04 #@! TF.FileFunction,Copper,L2,Bot*
G04 #@! TF.FilePolarity,Positive*
%FSLAX46Y46*%
G04 Gerber Fmt 4.6, Leading zero omitted, Abs format (unit mm)*
G04 Created by KiCad (PCBNEW 8.0.1) date 2025-03-18 21:27:00*
%MOMM*%
%LPD*%
G01*
G04 APERTURE LIST*
G04 #@! TA.AperFunction,ComponentPad*
%ADD10R,1.700000X1.700000*%
G04 #@! TD*
G04 #@! TA.AperFunction,ComponentPad*
%ADD11O,1.700000X1.700000*%
G04 #@! TD*
G04 #@! TA.AperFunction,ViaPad*
%ADD12C,0.600000*%
G04 #@! TD*
G04 #@! TA.AperFunction,Conductor*
%ADD13C,0.152400*%
G04 #@! TD*
G04 APERTURE END LIST*
D10*
X187690000Y-48100000D03*
D11*
X190230000Y-48100000D03*
X192770000Y-48100000D03*
X195310000Y-48100000D03*
D12*
X188130000Y-64280000D03*
X189800000Y-65410000D03*
X197280000Y-68670000D03*
X191970000Y-58030000D03*
X185150000Y-69250000D03*
X199500000Y-61950000D03*
X186900000Y-72330000D03*
X193800000Y-61170000D03*
X197060000Y-59900000D03*
D13*
X188130000Y-64320000D02*
X189220000Y-65410000D01*
X188130000Y-64280000D02*
X188130000Y-64320000D01*
X189220000Y-65410000D02*
X189800000Y-65410000D01*
G04 #@! TA.AperFunction,Conductor*
G36*
X201312539Y-46280185D02*
G01*
X201358294Y-46332989D01*
X201369500Y-46384500D01*
X201369500Y-76305500D01*
X201349815Y-76372539D01*
X201297011Y-76418294D01*
X201245500Y-76429500D01*
X181874500Y-76429500D01*
X181807461Y-76409815D01*
X181761706Y-76357011D01*
X181750500Y-76305500D01*
X181750500Y-64280000D01*
X187624353Y-64280000D01*
X187644834Y-64422456D01*
X187661443Y-64458823D01*
X187704623Y-64553373D01*
X187798872Y-64662143D01*
X187919947Y-64739953D01*
X187919950Y-64739954D01*
X187919949Y-64739954D01*
X188058036Y-64780499D01*
X188058038Y-64780500D01*
X188058039Y-64780500D01*
X188147825Y-64780500D01*
X188214864Y-64800185D01*
X188235506Y-64816819D01*
X189050098Y-65631412D01*
X189050101Y-65631414D01*
X189050102Y-65631415D01*
X189050105Y-65631417D01*
X189050107Y-65631418D01*
X189113195Y-65667844D01*
X189183566Y-65686699D01*
X189183572Y-65686700D01*
X189320877Y-65686700D01*
X189387916Y-65706385D01*
X189414588Y-65729495D01*
X189468872Y-65792143D01*
X189589947Y-65869953D01*
X189589950Y-65869954D01*
X189589949Y-65869954D01*
X189728036Y-65910499D01*
X189728038Y-65910500D01*
X189728039Y-65910500D01*
X189871962Y-65910500D01*
X189871962Y-65910499D01*
X190010053Y-65869953D01*
X190131128Y-65792143D01*
X190225377Y-65683373D01*
X190285165Y-65552457D01*
X190305647Y-65410000D01*
X190285165Y-65267543D01*
X190225377Y-65136627D01*
X190131128Y-65027857D01*
X190010053Y-64950047D01*
X190010051Y-64950046D01*
X190010049Y-64950045D01*
X190010050Y-64950045D01*
X189871963Y-64909500D01*
X189871961Y-64909500D01*
X189728039Y-64909500D01*
X189728036Y-64909500D01*
X189589949Y-64950045D01*
X189468870Y-65027858D01*
X189444809Y-65055626D01*
X189386031Y-65093399D01*
X189316161Y-65093399D01*
X189263416Y-65062103D01*
X188660136Y-64458823D01*
X188626651Y-64397500D01*
X188625079Y-64353498D01*
X188635647Y-64280000D01*
X188615165Y-64137543D01*
X188555377Y-64006627D01*
X188461128Y-63897857D01*
X188340053Y-63820047D01*
X188340051Y-63820046D01*
X188340049Y-63820045D01*
X188340050Y-63820045D01*
X188201963Y-63779500D01*
X188201961Y-63779500D01*
X188058039Y-63779500D01*
X188058036Y-63779500D01*
X187919949Y-63820045D01*
X187798873Y-63897856D01*
X187704623Y-64006626D01*
X187704622Y-64006628D01*
X187644834Y-64137543D01*
X187624353Y-64280000D01*
X181750500Y-64280000D01*
X181750500Y-48969752D01*
X186639500Y-48969752D01*
X186651131Y-49028229D01*
X186651132Y-49028230D01*
X186695447Y-49094552D01*
X186761769Y-49138867D01*
X186761770Y-49138868D01*
X186820247Y-49150499D01*
X186820250Y-49150500D01*
X186820252Y-49150500D01*
X188559750Y-49150500D01*
X188559751Y-49150499D01*
X188574568Y-49147552D01*
X188618229Y-49138868D01*
X188618229Y-49138867D01*
X188618231Y-49138867D01*
X188684552Y-49094552D01*
X188728867Y-49028231D01*
X188728867Y-49028229D01*
X188728868Y-49028229D01*
X188740499Y-48969752D01*
X188740500Y-48969750D01*
X188740500Y-48100000D01*
X189174417Y-48100000D01*
X189194699Y-48305932D01*
X189194700Y-48305934D01*
X189254768Y-48503954D01*
X189352315Y-48686450D01*
X189352317Y-48686452D01*
X189483589Y-48846410D01*
X189580209Y-48925702D01*
X189643550Y-48977685D01*
X189826046Y-49075232D01*
X190024066Y-49135300D01*
X190024065Y-49135300D01*
X190042529Y-49137118D01*
X190230000Y-49155583D01*
X190435934Y-49135300D01*
X190633954Y-49075232D01*
X190816450Y-48977685D01*
X190976410Y-48846410D01*
X191107685Y-48686450D01*
X191205232Y-48503954D01*
X191265300Y-48305934D01*
X191285583Y-48100000D01*
X191714417Y-48100000D01*
X191734699Y-48305932D01*
X191734700Y-48305934D01*
X191794768Y-48503954D01*
X191892315Y-48686450D01*
X191892317Y-48686452D01*
X192023589Y-48846410D01*
X192120209Y-48925702D01*
X192183550Y-48977685D01*
X192366046Y-49075232D01*
X192564066Y-49135300D01*
X192564065Y-49135300D01*
X192582529Y-49137118D01*
X192770000Y-49155583D01*
X192975934Y-49135300D01*
X193173954Y-49075232D01*
X193356450Y-48977685D01*
X193516410Y-48846410D01*
X193647685Y-48686450D01*
X193745232Y-48503954D01*
X193805300Y-48305934D01*
X193825583Y-48100000D01*
X194254417Y-48100000D01*
X194274699Y-48305932D01*
X194274700Y-48305934D01*
X194334768Y-48503954D01*
X194432315Y-48686450D01*
X194432317Y-48686452D01*
X194563589Y-48846410D01*
X194660209Y-48925702D01*
X194723550Y-48977685D01*
X194906046Y-49075232D01*
X195104066Y-49135300D01*
X195104065Y-49135300D01*
X195122529Y-49137118D01*
X195310000Y-49155583D01*
X195515934Y-49135300D01*
X195713954Y-49075232D01*
X195896450Y-48977685D01*
X196056410Y-48846410D01*
X196187685Y-48686450D01*
X196285232Y-48503954D01*
X196345300Y-48305934D01*
X196365583Y-48100000D01*
X196345300Y-47894066D01*
X196285232Y-47696046D01*
X196187685Y-47513550D01*
X196135702Y-47450209D01*
X196056410Y-47353589D01*
X195906121Y-47230252D01*
X195896450Y-47222315D01*
X195713954Y-47124768D01*
X195515934Y-47064700D01*
X195515932Y-47064699D01*
X195515934Y-47064699D01*
X195310000Y-47044417D01*
X195104067Y-47064699D01*
X194906043Y-47124769D01*
X194818114Y-47171769D01*
X194723550Y-47222315D01*
X194723548Y-47222316D01*
X194723547Y-47222317D01*
X194563589Y-47353589D01*
X194432317Y-47513547D01*
X194334769Y-47696043D01*
X194274699Y-47894067D01*
X194254417Y-48100000D01*
X193825583Y-48100000D01*
X193805300Y-47894066D01*
X193745232Y-47696046D01*
X193647685Y-47513550D01*
X193595702Y-47450209D01*
X193516410Y-47353589D01*
X193366121Y-47230252D01*
X193356450Y-47222315D01*
X193173954Y-47124768D01*
X192975934Y-47064700D01*
X192975932Y-47064699D01*
X192975934Y-47064699D01*
X192770000Y-47044417D01*
X192564067Y-47064699D01*
X192366043Y-47124769D01*
X192278114Y-47171769D01*
X192183550Y-47222315D01*
X192183548Y-47222316D01*
X192183547Y-47222317D01*
X192023589Y-47353589D01*
X191892317Y-47513547D01*
X191794769Y-47696043D01*
X191734699Y-47894067D01*
X191714417Y-48100000D01*
X191285583Y-48100000D01*
X191265300Y-47894066D01*
X191205232Y-47696046D01*
X191107685Y-47513550D01*
X191055702Y-47450209D01*
X190976410Y-47353589D01*
X190826121Y-47230252D01*
X190816450Y-47222315D01*
X190633954Y-47124768D01*
X190435934Y-47064700D01*
X190435932Y-47064699D01*
X190435934Y-47064699D01*
X190230000Y-47044417D01*
X190024067Y-47064699D01*
X189826043Y-47124769D01*
X189738114Y-47171769D01*
X189643550Y-47222315D01*
X189643548Y-47222316D01*
X189643547Y-47222317D01*
X189483589Y-47353589D01*
X189352317Y-47513547D01*
X189254769Y-47696043D01*
X189194699Y-47894067D01*
X189174417Y-48100000D01*
X188740500Y-48100000D01*
X188740500Y-47230249D01*
X188740499Y-47230247D01*
X188728868Y-47171770D01*
X188728867Y-47171769D01*
X188684552Y-47105447D01*
X188618230Y-47061132D01*
X188618229Y-47061131D01*
X188559752Y-47049500D01*
X188559748Y-47049500D01*
X186820252Y-47049500D01*
X186820247Y-47049500D01*
X186761770Y-47061131D01*
X186761769Y-47061132D01*
X186695447Y-47105447D01*
X186651132Y-47171769D01*
X186651131Y-47171770D01*
X186639500Y-47230247D01*
X186639500Y-48969752D01*
X181750500Y-48969752D01*
X181750500Y-46384500D01*
X181770185Y-46317461D01*
X181822989Y-46271706D01*
X181874500Y-46260500D01*
X201245500Y-46260500D01*
X201312539Y-46280185D01*
G37*
G04 #@! TD.AperFunction*
M02*
