G04 #@! TF.GenerationSoftware,KiCad,Pcbnew,8.0.1*
G04 #@! TF.CreationDate,2025-03-18T21:27:00-06:00*
G04 #@! TF.ProjectId,Temperature_Flex_boost,54656d70-6572-4617-9475-72655f466c65,rev?*
G04 #@! TF.SameCoordinates,Original*
G04 #@! TF.FileFunction,Legend,Top*
G04 #@! TF.FilePolarity,Positive*
%FSLAX46Y46*%
G04 Gerber Fmt 4.6, Leading zero omitted, Abs format (unit mm)*
G04 Created by KiCad (PCBNEW 8.0.1) date 2025-03-18 21:27:00*
%MOMM*%
%LPD*%
G01*
G04 APERTURE LIST*
G04 Aperture macros list*
%AMRoundRect*
0 Rectangle with rounded corners*
0 $1 Rounding radius*
0 $2 $3 $4 $5 $6 $7 $8 $9 X,Y pos of 4 corners*
0 Add a 4 corners polygon primitive as box body*
4,1,4,$2,$3,$4,$5,$6,$7,$8,$9,$2,$3,0*
0 Add four circle primitives for the rounded corners*
1,1,$1+$1,$2,$3*
1,1,$1+$1,$4,$5*
1,1,$1+$1,$6,$7*
1,1,$1+$1,$8,$9*
0 Add four rect primitives between the rounded corners*
20,1,$1+$1,$2,$3,$4,$5,0*
20,1,$1+$1,$4,$5,$6,$7,0*
20,1,$1+$1,$6,$7,$8,$9,0*
20,1,$1+$1,$8,$9,$2,$3,0*%
G04 Aperture macros list end*
%ADD10C,0.150000*%
%ADD11C,0.120000*%
%ADD12C,0.200000*%
%ADD13C,0.152400*%
%ADD14RoundRect,0.225000X0.225000X0.250000X-0.225000X0.250000X-0.225000X-0.250000X0.225000X-0.250000X0*%
%ADD15R,0.399999X0.850001*%
%ADD16RoundRect,0.225000X-0.225000X-0.250000X0.225000X-0.250000X0.225000X0.250000X-0.225000X0.250000X0*%
%ADD17R,0.609600X1.625600*%
%ADD18RoundRect,0.200000X-0.200000X-0.275000X0.200000X-0.275000X0.200000X0.275000X-0.200000X0.275000X0*%
%ADD19RoundRect,0.200000X-0.275000X0.200000X-0.275000X-0.200000X0.275000X-0.200000X0.275000X0.200000X0*%
%ADD20RoundRect,0.250001X-0.462499X-0.849999X0.462499X-0.849999X0.462499X0.849999X-0.462499X0.849999X0*%
%ADD21O,1.649999X0.650001*%
%ADD22RoundRect,0.200000X0.275000X-0.200000X0.275000X0.200000X-0.275000X0.200000X-0.275000X-0.200000X0*%
%ADD23R,0.599999X1.000000*%
%ADD24RoundRect,0.225000X0.250000X-0.225000X0.250000X0.225000X-0.250000X0.225000X-0.250000X-0.225000X0*%
%ADD25R,1.416000X0.451600*%
%ADD26RoundRect,0.225000X-0.250000X0.225000X-0.250000X-0.225000X0.250000X-0.225000X0.250000X0.225000X0*%
%ADD27R,1.700000X1.700000*%
%ADD28O,1.700000X1.700000*%
%ADD29RoundRect,0.150000X0.512500X0.150000X-0.512500X0.150000X-0.512500X-0.150000X0.512500X-0.150000X0*%
G04 APERTURE END LIST*
D10*
X184056667Y-52956104D02*
X184018571Y-52994200D01*
X184018571Y-52994200D02*
X183904286Y-53032295D01*
X183904286Y-53032295D02*
X183828095Y-53032295D01*
X183828095Y-53032295D02*
X183713809Y-52994200D01*
X183713809Y-52994200D02*
X183637619Y-52918009D01*
X183637619Y-52918009D02*
X183599524Y-52841819D01*
X183599524Y-52841819D02*
X183561428Y-52689438D01*
X183561428Y-52689438D02*
X183561428Y-52575152D01*
X183561428Y-52575152D02*
X183599524Y-52422771D01*
X183599524Y-52422771D02*
X183637619Y-52346580D01*
X183637619Y-52346580D02*
X183713809Y-52270390D01*
X183713809Y-52270390D02*
X183828095Y-52232295D01*
X183828095Y-52232295D02*
X183904286Y-52232295D01*
X183904286Y-52232295D02*
X184018571Y-52270390D01*
X184018571Y-52270390D02*
X184056667Y-52308485D01*
X184323333Y-52232295D02*
X184856667Y-52232295D01*
X184856667Y-52232295D02*
X184513809Y-53032295D01*
X198280476Y-68042295D02*
X198280476Y-68689914D01*
X198280476Y-68689914D02*
X198318571Y-68766104D01*
X198318571Y-68766104D02*
X198356666Y-68804200D01*
X198356666Y-68804200D02*
X198432857Y-68842295D01*
X198432857Y-68842295D02*
X198585238Y-68842295D01*
X198585238Y-68842295D02*
X198661428Y-68804200D01*
X198661428Y-68804200D02*
X198699523Y-68766104D01*
X198699523Y-68766104D02*
X198737619Y-68689914D01*
X198737619Y-68689914D02*
X198737619Y-68042295D01*
X199042380Y-68042295D02*
X199537618Y-68042295D01*
X199537618Y-68042295D02*
X199270952Y-68347057D01*
X199270952Y-68347057D02*
X199385237Y-68347057D01*
X199385237Y-68347057D02*
X199461428Y-68385152D01*
X199461428Y-68385152D02*
X199499523Y-68423247D01*
X199499523Y-68423247D02*
X199537618Y-68499438D01*
X199537618Y-68499438D02*
X199537618Y-68689914D01*
X199537618Y-68689914D02*
X199499523Y-68766104D01*
X199499523Y-68766104D02*
X199461428Y-68804200D01*
X199461428Y-68804200D02*
X199385237Y-68842295D01*
X199385237Y-68842295D02*
X199156666Y-68842295D01*
X199156666Y-68842295D02*
X199080475Y-68804200D01*
X199080475Y-68804200D02*
X199042380Y-68766104D01*
X195346667Y-53006104D02*
X195308571Y-53044200D01*
X195308571Y-53044200D02*
X195194286Y-53082295D01*
X195194286Y-53082295D02*
X195118095Y-53082295D01*
X195118095Y-53082295D02*
X195003809Y-53044200D01*
X195003809Y-53044200D02*
X194927619Y-52968009D01*
X194927619Y-52968009D02*
X194889524Y-52891819D01*
X194889524Y-52891819D02*
X194851428Y-52739438D01*
X194851428Y-52739438D02*
X194851428Y-52625152D01*
X194851428Y-52625152D02*
X194889524Y-52472771D01*
X194889524Y-52472771D02*
X194927619Y-52396580D01*
X194927619Y-52396580D02*
X195003809Y-52320390D01*
X195003809Y-52320390D02*
X195118095Y-52282295D01*
X195118095Y-52282295D02*
X195194286Y-52282295D01*
X195194286Y-52282295D02*
X195308571Y-52320390D01*
X195308571Y-52320390D02*
X195346667Y-52358485D01*
X195651428Y-52358485D02*
X195689524Y-52320390D01*
X195689524Y-52320390D02*
X195765714Y-52282295D01*
X195765714Y-52282295D02*
X195956190Y-52282295D01*
X195956190Y-52282295D02*
X196032381Y-52320390D01*
X196032381Y-52320390D02*
X196070476Y-52358485D01*
X196070476Y-52358485D02*
X196108571Y-52434676D01*
X196108571Y-52434676D02*
X196108571Y-52510866D01*
X196108571Y-52510866D02*
X196070476Y-52625152D01*
X196070476Y-52625152D02*
X195613333Y-53082295D01*
X195613333Y-53082295D02*
X196108571Y-53082295D01*
X192820476Y-71012295D02*
X192820476Y-71659914D01*
X192820476Y-71659914D02*
X192858571Y-71736104D01*
X192858571Y-71736104D02*
X192896666Y-71774200D01*
X192896666Y-71774200D02*
X192972857Y-71812295D01*
X192972857Y-71812295D02*
X193125238Y-71812295D01*
X193125238Y-71812295D02*
X193201428Y-71774200D01*
X193201428Y-71774200D02*
X193239523Y-71736104D01*
X193239523Y-71736104D02*
X193277619Y-71659914D01*
X193277619Y-71659914D02*
X193277619Y-71012295D01*
X194039523Y-71012295D02*
X193658571Y-71012295D01*
X193658571Y-71012295D02*
X193620475Y-71393247D01*
X193620475Y-71393247D02*
X193658571Y-71355152D01*
X193658571Y-71355152D02*
X193734761Y-71317057D01*
X193734761Y-71317057D02*
X193925237Y-71317057D01*
X193925237Y-71317057D02*
X194001428Y-71355152D01*
X194001428Y-71355152D02*
X194039523Y-71393247D01*
X194039523Y-71393247D02*
X194077618Y-71469438D01*
X194077618Y-71469438D02*
X194077618Y-71659914D01*
X194077618Y-71659914D02*
X194039523Y-71736104D01*
X194039523Y-71736104D02*
X194001428Y-71774200D01*
X194001428Y-71774200D02*
X193925237Y-71812295D01*
X193925237Y-71812295D02*
X193734761Y-71812295D01*
X193734761Y-71812295D02*
X193658571Y-71774200D01*
X193658571Y-71774200D02*
X193620475Y-71736104D01*
X199891905Y-72692295D02*
X199625238Y-72311342D01*
X199434762Y-72692295D02*
X199434762Y-71892295D01*
X199434762Y-71892295D02*
X199739524Y-71892295D01*
X199739524Y-71892295D02*
X199815714Y-71930390D01*
X199815714Y-71930390D02*
X199853809Y-71968485D01*
X199853809Y-71968485D02*
X199891905Y-72044676D01*
X199891905Y-72044676D02*
X199891905Y-72158961D01*
X199891905Y-72158961D02*
X199853809Y-72235152D01*
X199853809Y-72235152D02*
X199815714Y-72273247D01*
X199815714Y-72273247D02*
X199739524Y-72311342D01*
X199739524Y-72311342D02*
X199434762Y-72311342D01*
X200120476Y-71892295D02*
X200577619Y-71892295D01*
X200349047Y-72692295D02*
X200349047Y-71892295D01*
X201263333Y-72692295D02*
X200806190Y-72692295D01*
X201034762Y-72692295D02*
X201034762Y-71892295D01*
X201034762Y-71892295D02*
X200958571Y-72006580D01*
X200958571Y-72006580D02*
X200882381Y-72082771D01*
X200882381Y-72082771D02*
X200806190Y-72120866D01*
X183146667Y-61262295D02*
X182880000Y-60881342D01*
X182689524Y-61262295D02*
X182689524Y-60462295D01*
X182689524Y-60462295D02*
X182994286Y-60462295D01*
X182994286Y-60462295D02*
X183070476Y-60500390D01*
X183070476Y-60500390D02*
X183108571Y-60538485D01*
X183108571Y-60538485D02*
X183146667Y-60614676D01*
X183146667Y-60614676D02*
X183146667Y-60728961D01*
X183146667Y-60728961D02*
X183108571Y-60805152D01*
X183108571Y-60805152D02*
X183070476Y-60843247D01*
X183070476Y-60843247D02*
X182994286Y-60881342D01*
X182994286Y-60881342D02*
X182689524Y-60881342D01*
X183908571Y-61262295D02*
X183451428Y-61262295D01*
X183680000Y-61262295D02*
X183680000Y-60462295D01*
X183680000Y-60462295D02*
X183603809Y-60576580D01*
X183603809Y-60576580D02*
X183527619Y-60652771D01*
X183527619Y-60652771D02*
X183451428Y-60690866D01*
X184054166Y-54902295D02*
X183673214Y-54902295D01*
X183673214Y-54902295D02*
X183673214Y-54102295D01*
X184739880Y-54902295D02*
X184282737Y-54902295D01*
X184511309Y-54902295D02*
X184511309Y-54102295D01*
X184511309Y-54102295D02*
X184435118Y-54216580D01*
X184435118Y-54216580D02*
X184358928Y-54292771D01*
X184358928Y-54292771D02*
X184282737Y-54330866D01*
X195326667Y-54556104D02*
X195288571Y-54594200D01*
X195288571Y-54594200D02*
X195174286Y-54632295D01*
X195174286Y-54632295D02*
X195098095Y-54632295D01*
X195098095Y-54632295D02*
X194983809Y-54594200D01*
X194983809Y-54594200D02*
X194907619Y-54518009D01*
X194907619Y-54518009D02*
X194869524Y-54441819D01*
X194869524Y-54441819D02*
X194831428Y-54289438D01*
X194831428Y-54289438D02*
X194831428Y-54175152D01*
X194831428Y-54175152D02*
X194869524Y-54022771D01*
X194869524Y-54022771D02*
X194907619Y-53946580D01*
X194907619Y-53946580D02*
X194983809Y-53870390D01*
X194983809Y-53870390D02*
X195098095Y-53832295D01*
X195098095Y-53832295D02*
X195174286Y-53832295D01*
X195174286Y-53832295D02*
X195288571Y-53870390D01*
X195288571Y-53870390D02*
X195326667Y-53908485D01*
X195783809Y-54175152D02*
X195707619Y-54137057D01*
X195707619Y-54137057D02*
X195669524Y-54098961D01*
X195669524Y-54098961D02*
X195631428Y-54022771D01*
X195631428Y-54022771D02*
X195631428Y-53984676D01*
X195631428Y-53984676D02*
X195669524Y-53908485D01*
X195669524Y-53908485D02*
X195707619Y-53870390D01*
X195707619Y-53870390D02*
X195783809Y-53832295D01*
X195783809Y-53832295D02*
X195936190Y-53832295D01*
X195936190Y-53832295D02*
X196012381Y-53870390D01*
X196012381Y-53870390D02*
X196050476Y-53908485D01*
X196050476Y-53908485D02*
X196088571Y-53984676D01*
X196088571Y-53984676D02*
X196088571Y-54022771D01*
X196088571Y-54022771D02*
X196050476Y-54098961D01*
X196050476Y-54098961D02*
X196012381Y-54137057D01*
X196012381Y-54137057D02*
X195936190Y-54175152D01*
X195936190Y-54175152D02*
X195783809Y-54175152D01*
X195783809Y-54175152D02*
X195707619Y-54213247D01*
X195707619Y-54213247D02*
X195669524Y-54251342D01*
X195669524Y-54251342D02*
X195631428Y-54327533D01*
X195631428Y-54327533D02*
X195631428Y-54479914D01*
X195631428Y-54479914D02*
X195669524Y-54556104D01*
X195669524Y-54556104D02*
X195707619Y-54594200D01*
X195707619Y-54594200D02*
X195783809Y-54632295D01*
X195783809Y-54632295D02*
X195936190Y-54632295D01*
X195936190Y-54632295D02*
X196012381Y-54594200D01*
X196012381Y-54594200D02*
X196050476Y-54556104D01*
X196050476Y-54556104D02*
X196088571Y-54479914D01*
X196088571Y-54479914D02*
X196088571Y-54327533D01*
X196088571Y-54327533D02*
X196050476Y-54251342D01*
X196050476Y-54251342D02*
X196012381Y-54213247D01*
X196012381Y-54213247D02*
X195936190Y-54175152D01*
X186791667Y-73406104D02*
X186753571Y-73444200D01*
X186753571Y-73444200D02*
X186639286Y-73482295D01*
X186639286Y-73482295D02*
X186563095Y-73482295D01*
X186563095Y-73482295D02*
X186448809Y-73444200D01*
X186448809Y-73444200D02*
X186372619Y-73368009D01*
X186372619Y-73368009D02*
X186334524Y-73291819D01*
X186334524Y-73291819D02*
X186296428Y-73139438D01*
X186296428Y-73139438D02*
X186296428Y-73025152D01*
X186296428Y-73025152D02*
X186334524Y-72872771D01*
X186334524Y-72872771D02*
X186372619Y-72796580D01*
X186372619Y-72796580D02*
X186448809Y-72720390D01*
X186448809Y-72720390D02*
X186563095Y-72682295D01*
X186563095Y-72682295D02*
X186639286Y-72682295D01*
X186639286Y-72682295D02*
X186753571Y-72720390D01*
X186753571Y-72720390D02*
X186791667Y-72758485D01*
X187477381Y-72682295D02*
X187325000Y-72682295D01*
X187325000Y-72682295D02*
X187248809Y-72720390D01*
X187248809Y-72720390D02*
X187210714Y-72758485D01*
X187210714Y-72758485D02*
X187134524Y-72872771D01*
X187134524Y-72872771D02*
X187096428Y-73025152D01*
X187096428Y-73025152D02*
X187096428Y-73329914D01*
X187096428Y-73329914D02*
X187134524Y-73406104D01*
X187134524Y-73406104D02*
X187172619Y-73444200D01*
X187172619Y-73444200D02*
X187248809Y-73482295D01*
X187248809Y-73482295D02*
X187401190Y-73482295D01*
X187401190Y-73482295D02*
X187477381Y-73444200D01*
X187477381Y-73444200D02*
X187515476Y-73406104D01*
X187515476Y-73406104D02*
X187553571Y-73329914D01*
X187553571Y-73329914D02*
X187553571Y-73139438D01*
X187553571Y-73139438D02*
X187515476Y-73063247D01*
X187515476Y-73063247D02*
X187477381Y-73025152D01*
X187477381Y-73025152D02*
X187401190Y-72987057D01*
X187401190Y-72987057D02*
X187248809Y-72987057D01*
X187248809Y-72987057D02*
X187172619Y-73025152D01*
X187172619Y-73025152D02*
X187134524Y-73063247D01*
X187134524Y-73063247D02*
X187096428Y-73139438D01*
X195616667Y-51236104D02*
X195578571Y-51274200D01*
X195578571Y-51274200D02*
X195464286Y-51312295D01*
X195464286Y-51312295D02*
X195388095Y-51312295D01*
X195388095Y-51312295D02*
X195273809Y-51274200D01*
X195273809Y-51274200D02*
X195197619Y-51198009D01*
X195197619Y-51198009D02*
X195159524Y-51121819D01*
X195159524Y-51121819D02*
X195121428Y-50969438D01*
X195121428Y-50969438D02*
X195121428Y-50855152D01*
X195121428Y-50855152D02*
X195159524Y-50702771D01*
X195159524Y-50702771D02*
X195197619Y-50626580D01*
X195197619Y-50626580D02*
X195273809Y-50550390D01*
X195273809Y-50550390D02*
X195388095Y-50512295D01*
X195388095Y-50512295D02*
X195464286Y-50512295D01*
X195464286Y-50512295D02*
X195578571Y-50550390D01*
X195578571Y-50550390D02*
X195616667Y-50588485D01*
X195997619Y-51312295D02*
X196150000Y-51312295D01*
X196150000Y-51312295D02*
X196226190Y-51274200D01*
X196226190Y-51274200D02*
X196264286Y-51236104D01*
X196264286Y-51236104D02*
X196340476Y-51121819D01*
X196340476Y-51121819D02*
X196378571Y-50969438D01*
X196378571Y-50969438D02*
X196378571Y-50664676D01*
X196378571Y-50664676D02*
X196340476Y-50588485D01*
X196340476Y-50588485D02*
X196302381Y-50550390D01*
X196302381Y-50550390D02*
X196226190Y-50512295D01*
X196226190Y-50512295D02*
X196073809Y-50512295D01*
X196073809Y-50512295D02*
X195997619Y-50550390D01*
X195997619Y-50550390D02*
X195959524Y-50588485D01*
X195959524Y-50588485D02*
X195921428Y-50664676D01*
X195921428Y-50664676D02*
X195921428Y-50855152D01*
X195921428Y-50855152D02*
X195959524Y-50931342D01*
X195959524Y-50931342D02*
X195997619Y-50969438D01*
X195997619Y-50969438D02*
X196073809Y-51007533D01*
X196073809Y-51007533D02*
X196226190Y-51007533D01*
X196226190Y-51007533D02*
X196302381Y-50969438D01*
X196302381Y-50969438D02*
X196340476Y-50931342D01*
X196340476Y-50931342D02*
X196378571Y-50855152D01*
X187740476Y-60462295D02*
X187740476Y-61109914D01*
X187740476Y-61109914D02*
X187778571Y-61186104D01*
X187778571Y-61186104D02*
X187816666Y-61224200D01*
X187816666Y-61224200D02*
X187892857Y-61262295D01*
X187892857Y-61262295D02*
X188045238Y-61262295D01*
X188045238Y-61262295D02*
X188121428Y-61224200D01*
X188121428Y-61224200D02*
X188159523Y-61186104D01*
X188159523Y-61186104D02*
X188197619Y-61109914D01*
X188197619Y-61109914D02*
X188197619Y-60462295D01*
X188540475Y-60538485D02*
X188578571Y-60500390D01*
X188578571Y-60500390D02*
X188654761Y-60462295D01*
X188654761Y-60462295D02*
X188845237Y-60462295D01*
X188845237Y-60462295D02*
X188921428Y-60500390D01*
X188921428Y-60500390D02*
X188959523Y-60538485D01*
X188959523Y-60538485D02*
X188997618Y-60614676D01*
X188997618Y-60614676D02*
X188997618Y-60690866D01*
X188997618Y-60690866D02*
X188959523Y-60805152D01*
X188959523Y-60805152D02*
X188502380Y-61262295D01*
X188502380Y-61262295D02*
X188997618Y-61262295D01*
X200572295Y-53605237D02*
X200191342Y-53871904D01*
X200572295Y-54062380D02*
X199772295Y-54062380D01*
X199772295Y-54062380D02*
X199772295Y-53757618D01*
X199772295Y-53757618D02*
X199810390Y-53681428D01*
X199810390Y-53681428D02*
X199848485Y-53643333D01*
X199848485Y-53643333D02*
X199924676Y-53605237D01*
X199924676Y-53605237D02*
X200038961Y-53605237D01*
X200038961Y-53605237D02*
X200115152Y-53643333D01*
X200115152Y-53643333D02*
X200153247Y-53681428D01*
X200153247Y-53681428D02*
X200191342Y-53757618D01*
X200191342Y-53757618D02*
X200191342Y-54062380D01*
X200648485Y-53452857D02*
X200648485Y-52843333D01*
X200496104Y-52195713D02*
X200534200Y-52233809D01*
X200534200Y-52233809D02*
X200572295Y-52348094D01*
X200572295Y-52348094D02*
X200572295Y-52424285D01*
X200572295Y-52424285D02*
X200534200Y-52538571D01*
X200534200Y-52538571D02*
X200458009Y-52614761D01*
X200458009Y-52614761D02*
X200381819Y-52652856D01*
X200381819Y-52652856D02*
X200229438Y-52690952D01*
X200229438Y-52690952D02*
X200115152Y-52690952D01*
X200115152Y-52690952D02*
X199962771Y-52652856D01*
X199962771Y-52652856D02*
X199886580Y-52614761D01*
X199886580Y-52614761D02*
X199810390Y-52538571D01*
X199810390Y-52538571D02*
X199772295Y-52424285D01*
X199772295Y-52424285D02*
X199772295Y-52348094D01*
X199772295Y-52348094D02*
X199810390Y-52233809D01*
X199810390Y-52233809D02*
X199848485Y-52195713D01*
X200038961Y-51509999D02*
X200572295Y-51509999D01*
X200038961Y-51852856D02*
X200458009Y-51852856D01*
X200458009Y-51852856D02*
X200534200Y-51814761D01*
X200534200Y-51814761D02*
X200572295Y-51738571D01*
X200572295Y-51738571D02*
X200572295Y-51624285D01*
X200572295Y-51624285D02*
X200534200Y-51548094D01*
X200534200Y-51548094D02*
X200496104Y-51509999D01*
X200572295Y-51129046D02*
X200038961Y-51129046D01*
X200191342Y-51129046D02*
X200115152Y-51090951D01*
X200115152Y-51090951D02*
X200077057Y-51052856D01*
X200077057Y-51052856D02*
X200038961Y-50976665D01*
X200038961Y-50976665D02*
X200038961Y-50900475D01*
X200572295Y-50633808D02*
X200038961Y-50633808D01*
X200191342Y-50633808D02*
X200115152Y-50595713D01*
X200115152Y-50595713D02*
X200077057Y-50557618D01*
X200077057Y-50557618D02*
X200038961Y-50481427D01*
X200038961Y-50481427D02*
X200038961Y-50405237D01*
X200572295Y-49719523D02*
X200572295Y-50176666D01*
X200572295Y-49948094D02*
X199772295Y-49948094D01*
X199772295Y-49948094D02*
X199886580Y-50024285D01*
X199886580Y-50024285D02*
X199962771Y-50100475D01*
X199962771Y-50100475D02*
X200000866Y-50176666D01*
X199911905Y-75282295D02*
X199645238Y-74901342D01*
X199454762Y-75282295D02*
X199454762Y-74482295D01*
X199454762Y-74482295D02*
X199759524Y-74482295D01*
X199759524Y-74482295D02*
X199835714Y-74520390D01*
X199835714Y-74520390D02*
X199873809Y-74558485D01*
X199873809Y-74558485D02*
X199911905Y-74634676D01*
X199911905Y-74634676D02*
X199911905Y-74748961D01*
X199911905Y-74748961D02*
X199873809Y-74825152D01*
X199873809Y-74825152D02*
X199835714Y-74863247D01*
X199835714Y-74863247D02*
X199759524Y-74901342D01*
X199759524Y-74901342D02*
X199454762Y-74901342D01*
X200140476Y-74482295D02*
X200597619Y-74482295D01*
X200369047Y-75282295D02*
X200369047Y-74482295D01*
X200826190Y-74558485D02*
X200864286Y-74520390D01*
X200864286Y-74520390D02*
X200940476Y-74482295D01*
X200940476Y-74482295D02*
X201130952Y-74482295D01*
X201130952Y-74482295D02*
X201207143Y-74520390D01*
X201207143Y-74520390D02*
X201245238Y-74558485D01*
X201245238Y-74558485D02*
X201283333Y-74634676D01*
X201283333Y-74634676D02*
X201283333Y-74710866D01*
X201283333Y-74710866D02*
X201245238Y-74825152D01*
X201245238Y-74825152D02*
X200788095Y-75282295D01*
X200788095Y-75282295D02*
X201283333Y-75282295D01*
X199572295Y-61273332D02*
X199191342Y-61539999D01*
X199572295Y-61730475D02*
X198772295Y-61730475D01*
X198772295Y-61730475D02*
X198772295Y-61425713D01*
X198772295Y-61425713D02*
X198810390Y-61349523D01*
X198810390Y-61349523D02*
X198848485Y-61311428D01*
X198848485Y-61311428D02*
X198924676Y-61273332D01*
X198924676Y-61273332D02*
X199038961Y-61273332D01*
X199038961Y-61273332D02*
X199115152Y-61311428D01*
X199115152Y-61311428D02*
X199153247Y-61349523D01*
X199153247Y-61349523D02*
X199191342Y-61425713D01*
X199191342Y-61425713D02*
X199191342Y-61730475D01*
X198848485Y-60968571D02*
X198810390Y-60930475D01*
X198810390Y-60930475D02*
X198772295Y-60854285D01*
X198772295Y-60854285D02*
X198772295Y-60663809D01*
X198772295Y-60663809D02*
X198810390Y-60587618D01*
X198810390Y-60587618D02*
X198848485Y-60549523D01*
X198848485Y-60549523D02*
X198924676Y-60511428D01*
X198924676Y-60511428D02*
X199000866Y-60511428D01*
X199000866Y-60511428D02*
X199115152Y-60549523D01*
X199115152Y-60549523D02*
X199572295Y-61006666D01*
X199572295Y-61006666D02*
X199572295Y-60511428D01*
X185550476Y-52692295D02*
X185550476Y-53339914D01*
X185550476Y-53339914D02*
X185588571Y-53416104D01*
X185588571Y-53416104D02*
X185626666Y-53454200D01*
X185626666Y-53454200D02*
X185702857Y-53492295D01*
X185702857Y-53492295D02*
X185855238Y-53492295D01*
X185855238Y-53492295D02*
X185931428Y-53454200D01*
X185931428Y-53454200D02*
X185969523Y-53416104D01*
X185969523Y-53416104D02*
X186007619Y-53339914D01*
X186007619Y-53339914D02*
X186007619Y-52692295D01*
X186807618Y-53492295D02*
X186350475Y-53492295D01*
X186579047Y-53492295D02*
X186579047Y-52692295D01*
X186579047Y-52692295D02*
X186502856Y-52806580D01*
X186502856Y-52806580D02*
X186426666Y-52882771D01*
X186426666Y-52882771D02*
X186350475Y-52920866D01*
X193508095Y-69336104D02*
X193469999Y-69374200D01*
X193469999Y-69374200D02*
X193355714Y-69412295D01*
X193355714Y-69412295D02*
X193279523Y-69412295D01*
X193279523Y-69412295D02*
X193165237Y-69374200D01*
X193165237Y-69374200D02*
X193089047Y-69298009D01*
X193089047Y-69298009D02*
X193050952Y-69221819D01*
X193050952Y-69221819D02*
X193012856Y-69069438D01*
X193012856Y-69069438D02*
X193012856Y-68955152D01*
X193012856Y-68955152D02*
X193050952Y-68802771D01*
X193050952Y-68802771D02*
X193089047Y-68726580D01*
X193089047Y-68726580D02*
X193165237Y-68650390D01*
X193165237Y-68650390D02*
X193279523Y-68612295D01*
X193279523Y-68612295D02*
X193355714Y-68612295D01*
X193355714Y-68612295D02*
X193469999Y-68650390D01*
X193469999Y-68650390D02*
X193508095Y-68688485D01*
X193736666Y-68612295D02*
X194193809Y-68612295D01*
X193965237Y-69412295D02*
X193965237Y-68612295D01*
X194460476Y-69412295D02*
X194460476Y-68878961D01*
X194460476Y-68612295D02*
X194422380Y-68650390D01*
X194422380Y-68650390D02*
X194460476Y-68688485D01*
X194460476Y-68688485D02*
X194498571Y-68650390D01*
X194498571Y-68650390D02*
X194460476Y-68612295D01*
X194460476Y-68612295D02*
X194460476Y-68688485D01*
X194841428Y-69412295D02*
X194841428Y-68878961D01*
X194841428Y-68955152D02*
X194879523Y-68917057D01*
X194879523Y-68917057D02*
X194955713Y-68878961D01*
X194955713Y-68878961D02*
X195069999Y-68878961D01*
X195069999Y-68878961D02*
X195146190Y-68917057D01*
X195146190Y-68917057D02*
X195184285Y-68993247D01*
X195184285Y-68993247D02*
X195184285Y-69412295D01*
X195184285Y-68993247D02*
X195222380Y-68917057D01*
X195222380Y-68917057D02*
X195298571Y-68878961D01*
X195298571Y-68878961D02*
X195412856Y-68878961D01*
X195412856Y-68878961D02*
X195489047Y-68917057D01*
X195489047Y-68917057D02*
X195527142Y-68993247D01*
X195527142Y-68993247D02*
X195527142Y-69412295D01*
X196327142Y-69412295D02*
X195869999Y-69412295D01*
X196098571Y-69412295D02*
X196098571Y-68612295D01*
X196098571Y-68612295D02*
X196022380Y-68726580D01*
X196022380Y-68726580D02*
X195946190Y-68802771D01*
X195946190Y-68802771D02*
X195869999Y-68840866D01*
X184966667Y-60012295D02*
X184700000Y-59631342D01*
X184509524Y-60012295D02*
X184509524Y-59212295D01*
X184509524Y-59212295D02*
X184814286Y-59212295D01*
X184814286Y-59212295D02*
X184890476Y-59250390D01*
X184890476Y-59250390D02*
X184928571Y-59288485D01*
X184928571Y-59288485D02*
X184966667Y-59364676D01*
X184966667Y-59364676D02*
X184966667Y-59478961D01*
X184966667Y-59478961D02*
X184928571Y-59555152D01*
X184928571Y-59555152D02*
X184890476Y-59593247D01*
X184890476Y-59593247D02*
X184814286Y-59631342D01*
X184814286Y-59631342D02*
X184509524Y-59631342D01*
X185233333Y-59212295D02*
X185728571Y-59212295D01*
X185728571Y-59212295D02*
X185461905Y-59517057D01*
X185461905Y-59517057D02*
X185576190Y-59517057D01*
X185576190Y-59517057D02*
X185652381Y-59555152D01*
X185652381Y-59555152D02*
X185690476Y-59593247D01*
X185690476Y-59593247D02*
X185728571Y-59669438D01*
X185728571Y-59669438D02*
X185728571Y-59859914D01*
X185728571Y-59859914D02*
X185690476Y-59936104D01*
X185690476Y-59936104D02*
X185652381Y-59974200D01*
X185652381Y-59974200D02*
X185576190Y-60012295D01*
X185576190Y-60012295D02*
X185347619Y-60012295D01*
X185347619Y-60012295D02*
X185271428Y-59974200D01*
X185271428Y-59974200D02*
X185233333Y-59936104D01*
X192486104Y-57213332D02*
X192524200Y-57251428D01*
X192524200Y-57251428D02*
X192562295Y-57365713D01*
X192562295Y-57365713D02*
X192562295Y-57441904D01*
X192562295Y-57441904D02*
X192524200Y-57556190D01*
X192524200Y-57556190D02*
X192448009Y-57632380D01*
X192448009Y-57632380D02*
X192371819Y-57670475D01*
X192371819Y-57670475D02*
X192219438Y-57708571D01*
X192219438Y-57708571D02*
X192105152Y-57708571D01*
X192105152Y-57708571D02*
X191952771Y-57670475D01*
X191952771Y-57670475D02*
X191876580Y-57632380D01*
X191876580Y-57632380D02*
X191800390Y-57556190D01*
X191800390Y-57556190D02*
X191762295Y-57441904D01*
X191762295Y-57441904D02*
X191762295Y-57365713D01*
X191762295Y-57365713D02*
X191800390Y-57251428D01*
X191800390Y-57251428D02*
X191838485Y-57213332D01*
X192562295Y-56413332D02*
X192181342Y-56679999D01*
X192562295Y-56870475D02*
X191762295Y-56870475D01*
X191762295Y-56870475D02*
X191762295Y-56565713D01*
X191762295Y-56565713D02*
X191800390Y-56489523D01*
X191800390Y-56489523D02*
X191838485Y-56451428D01*
X191838485Y-56451428D02*
X191914676Y-56413332D01*
X191914676Y-56413332D02*
X192028961Y-56413332D01*
X192028961Y-56413332D02*
X192105152Y-56451428D01*
X192105152Y-56451428D02*
X192143247Y-56489523D01*
X192143247Y-56489523D02*
X192181342Y-56565713D01*
X192181342Y-56565713D02*
X192181342Y-56870475D01*
X192562295Y-55651428D02*
X192562295Y-56108571D01*
X192562295Y-55879999D02*
X191762295Y-55879999D01*
X191762295Y-55879999D02*
X191876580Y-55956190D01*
X191876580Y-55956190D02*
X191952771Y-56032380D01*
X191952771Y-56032380D02*
X191990866Y-56108571D01*
X193666667Y-59816104D02*
X193628571Y-59854200D01*
X193628571Y-59854200D02*
X193514286Y-59892295D01*
X193514286Y-59892295D02*
X193438095Y-59892295D01*
X193438095Y-59892295D02*
X193323809Y-59854200D01*
X193323809Y-59854200D02*
X193247619Y-59778009D01*
X193247619Y-59778009D02*
X193209524Y-59701819D01*
X193209524Y-59701819D02*
X193171428Y-59549438D01*
X193171428Y-59549438D02*
X193171428Y-59435152D01*
X193171428Y-59435152D02*
X193209524Y-59282771D01*
X193209524Y-59282771D02*
X193247619Y-59206580D01*
X193247619Y-59206580D02*
X193323809Y-59130390D01*
X193323809Y-59130390D02*
X193438095Y-59092295D01*
X193438095Y-59092295D02*
X193514286Y-59092295D01*
X193514286Y-59092295D02*
X193628571Y-59130390D01*
X193628571Y-59130390D02*
X193666667Y-59168485D01*
X194390476Y-59092295D02*
X194009524Y-59092295D01*
X194009524Y-59092295D02*
X193971428Y-59473247D01*
X193971428Y-59473247D02*
X194009524Y-59435152D01*
X194009524Y-59435152D02*
X194085714Y-59397057D01*
X194085714Y-59397057D02*
X194276190Y-59397057D01*
X194276190Y-59397057D02*
X194352381Y-59435152D01*
X194352381Y-59435152D02*
X194390476Y-59473247D01*
X194390476Y-59473247D02*
X194428571Y-59549438D01*
X194428571Y-59549438D02*
X194428571Y-59739914D01*
X194428571Y-59739914D02*
X194390476Y-59816104D01*
X194390476Y-59816104D02*
X194352381Y-59854200D01*
X194352381Y-59854200D02*
X194276190Y-59892295D01*
X194276190Y-59892295D02*
X194085714Y-59892295D01*
X194085714Y-59892295D02*
X194009524Y-59854200D01*
X194009524Y-59854200D02*
X193971428Y-59816104D01*
X184922295Y-48366666D02*
X185493723Y-48366666D01*
X185493723Y-48366666D02*
X185608009Y-48404761D01*
X185608009Y-48404761D02*
X185684200Y-48480952D01*
X185684200Y-48480952D02*
X185722295Y-48595237D01*
X185722295Y-48595237D02*
X185722295Y-48671428D01*
X184998485Y-48023809D02*
X184960390Y-47985713D01*
X184960390Y-47985713D02*
X184922295Y-47909523D01*
X184922295Y-47909523D02*
X184922295Y-47719047D01*
X184922295Y-47719047D02*
X184960390Y-47642856D01*
X184960390Y-47642856D02*
X184998485Y-47604761D01*
X184998485Y-47604761D02*
X185074676Y-47566666D01*
X185074676Y-47566666D02*
X185150866Y-47566666D01*
X185150866Y-47566666D02*
X185265152Y-47604761D01*
X185265152Y-47604761D02*
X185722295Y-48061904D01*
X185722295Y-48061904D02*
X185722295Y-47566666D01*
X196347976Y-59092295D02*
X196347976Y-59739914D01*
X196347976Y-59739914D02*
X196386071Y-59816104D01*
X196386071Y-59816104D02*
X196424166Y-59854200D01*
X196424166Y-59854200D02*
X196500357Y-59892295D01*
X196500357Y-59892295D02*
X196652738Y-59892295D01*
X196652738Y-59892295D02*
X196728928Y-59854200D01*
X196728928Y-59854200D02*
X196767023Y-59816104D01*
X196767023Y-59816104D02*
X196805119Y-59739914D01*
X196805119Y-59739914D02*
X196805119Y-59092295D01*
X197528928Y-59358961D02*
X197528928Y-59892295D01*
X197338452Y-59054200D02*
X197147975Y-59625628D01*
X197147975Y-59625628D02*
X197643214Y-59625628D01*
X196626104Y-64413332D02*
X196664200Y-64451428D01*
X196664200Y-64451428D02*
X196702295Y-64565713D01*
X196702295Y-64565713D02*
X196702295Y-64641904D01*
X196702295Y-64641904D02*
X196664200Y-64756190D01*
X196664200Y-64756190D02*
X196588009Y-64832380D01*
X196588009Y-64832380D02*
X196511819Y-64870475D01*
X196511819Y-64870475D02*
X196359438Y-64908571D01*
X196359438Y-64908571D02*
X196245152Y-64908571D01*
X196245152Y-64908571D02*
X196092771Y-64870475D01*
X196092771Y-64870475D02*
X196016580Y-64832380D01*
X196016580Y-64832380D02*
X195940390Y-64756190D01*
X195940390Y-64756190D02*
X195902295Y-64641904D01*
X195902295Y-64641904D02*
X195902295Y-64565713D01*
X195902295Y-64565713D02*
X195940390Y-64451428D01*
X195940390Y-64451428D02*
X195978485Y-64413332D01*
X195902295Y-64146666D02*
X195902295Y-63651428D01*
X195902295Y-63651428D02*
X196207057Y-63918094D01*
X196207057Y-63918094D02*
X196207057Y-63803809D01*
X196207057Y-63803809D02*
X196245152Y-63727618D01*
X196245152Y-63727618D02*
X196283247Y-63689523D01*
X196283247Y-63689523D02*
X196359438Y-63651428D01*
X196359438Y-63651428D02*
X196549914Y-63651428D01*
X196549914Y-63651428D02*
X196626104Y-63689523D01*
X196626104Y-63689523D02*
X196664200Y-63727618D01*
X196664200Y-63727618D02*
X196702295Y-63803809D01*
X196702295Y-63803809D02*
X196702295Y-64032380D01*
X196702295Y-64032380D02*
X196664200Y-64108571D01*
X196664200Y-64108571D02*
X196626104Y-64146666D01*
X187226667Y-69146104D02*
X187188571Y-69184200D01*
X187188571Y-69184200D02*
X187074286Y-69222295D01*
X187074286Y-69222295D02*
X186998095Y-69222295D01*
X186998095Y-69222295D02*
X186883809Y-69184200D01*
X186883809Y-69184200D02*
X186807619Y-69108009D01*
X186807619Y-69108009D02*
X186769524Y-69031819D01*
X186769524Y-69031819D02*
X186731428Y-68879438D01*
X186731428Y-68879438D02*
X186731428Y-68765152D01*
X186731428Y-68765152D02*
X186769524Y-68612771D01*
X186769524Y-68612771D02*
X186807619Y-68536580D01*
X186807619Y-68536580D02*
X186883809Y-68460390D01*
X186883809Y-68460390D02*
X186998095Y-68422295D01*
X186998095Y-68422295D02*
X187074286Y-68422295D01*
X187074286Y-68422295D02*
X187188571Y-68460390D01*
X187188571Y-68460390D02*
X187226667Y-68498485D01*
X187912381Y-68688961D02*
X187912381Y-69222295D01*
X187721905Y-68384200D02*
X187531428Y-68955628D01*
X187531428Y-68955628D02*
X188026667Y-68955628D01*
X191066667Y-61126104D02*
X191028571Y-61164200D01*
X191028571Y-61164200D02*
X190914286Y-61202295D01*
X190914286Y-61202295D02*
X190838095Y-61202295D01*
X190838095Y-61202295D02*
X190723809Y-61164200D01*
X190723809Y-61164200D02*
X190647619Y-61088009D01*
X190647619Y-61088009D02*
X190609524Y-61011819D01*
X190609524Y-61011819D02*
X190571428Y-60859438D01*
X190571428Y-60859438D02*
X190571428Y-60745152D01*
X190571428Y-60745152D02*
X190609524Y-60592771D01*
X190609524Y-60592771D02*
X190647619Y-60516580D01*
X190647619Y-60516580D02*
X190723809Y-60440390D01*
X190723809Y-60440390D02*
X190838095Y-60402295D01*
X190838095Y-60402295D02*
X190914286Y-60402295D01*
X190914286Y-60402295D02*
X191028571Y-60440390D01*
X191028571Y-60440390D02*
X191066667Y-60478485D01*
X191828571Y-61202295D02*
X191371428Y-61202295D01*
X191600000Y-61202295D02*
X191600000Y-60402295D01*
X191600000Y-60402295D02*
X191523809Y-60516580D01*
X191523809Y-60516580D02*
X191447619Y-60592771D01*
X191447619Y-60592771D02*
X191371428Y-60630866D01*
D11*
X184325580Y-50780000D02*
X184044420Y-50780000D01*
X184325580Y-51800000D02*
X184044420Y-51800000D01*
D12*
X197637801Y-67393602D02*
X197637801Y-65514002D01*
X199822201Y-66403002D02*
X199822201Y-65387002D01*
D11*
X192844420Y-52090000D02*
X193125580Y-52090000D01*
X192844420Y-53110000D02*
X193125580Y-53110000D01*
D13*
X189639000Y-72647700D02*
X189639000Y-74298700D01*
X190652460Y-72647700D02*
X189639000Y-72647700D01*
X190977580Y-74298700D02*
X191602420Y-74298700D01*
X192941000Y-72647700D02*
X191927540Y-72647700D01*
X192941000Y-74298700D02*
X192941000Y-72647700D01*
X190416240Y-76114800D02*
G75*
G02*
X190263840Y-76114800I-76200J0D01*
G01*
X190263840Y-76114800D02*
G75*
G02*
X190416240Y-76114800I76200J0D01*
G01*
D11*
X197207742Y-71767500D02*
X197682258Y-71767500D01*
X197207742Y-72812500D02*
X197682258Y-72812500D01*
X182757500Y-62857742D02*
X182757500Y-63332258D01*
X183802500Y-62857742D02*
X183802500Y-63332258D01*
X183926248Y-55480000D02*
X184448752Y-55480000D01*
X183926248Y-57700000D02*
X184448752Y-57700000D01*
X192844420Y-53800000D02*
X193125580Y-53800000D01*
X192844420Y-54820000D02*
X193125580Y-54820000D01*
X186784420Y-74040000D02*
X187065580Y-74040000D01*
X186784420Y-75060000D02*
X187065580Y-75060000D01*
X192854420Y-50340000D02*
X193135580Y-50340000D01*
X192854420Y-51360000D02*
X193135580Y-51360000D01*
D12*
X185845000Y-61895000D02*
X190045002Y-61895000D01*
X188245000Y-66895000D02*
X190045002Y-66895000D01*
D11*
X199877500Y-56432258D02*
X199877500Y-55957742D01*
X200922500Y-56432258D02*
X200922500Y-55957742D01*
X197237742Y-74177500D02*
X197712258Y-74177500D01*
X197237742Y-75222500D02*
X197712258Y-75222500D01*
X197257500Y-61837742D02*
X197257500Y-62312258D01*
X198302500Y-61837742D02*
X198302500Y-62312258D01*
D12*
X187250003Y-54250000D02*
X187250003Y-52275000D01*
X190350001Y-53024998D02*
X190350001Y-52249996D01*
D11*
X194320000Y-66855580D02*
X194320000Y-66574420D01*
X195340000Y-66855580D02*
X195340000Y-66574420D01*
X187434420Y-59020000D02*
X187715580Y-59020000D01*
X187434420Y-60040000D02*
X187715580Y-60040000D01*
D13*
X188023800Y-55773000D02*
X188023800Y-56041460D01*
X188023800Y-57158540D02*
X188023800Y-57427000D01*
X188023800Y-57427000D02*
X190077800Y-57427000D01*
X190077800Y-55773000D02*
X188023800Y-55773000D01*
X190077800Y-56041460D02*
X190077800Y-55773000D01*
X190077800Y-57427000D02*
X190077800Y-57158540D01*
D11*
X193190000Y-57174420D02*
X193190000Y-57455580D01*
X194210000Y-57174420D02*
X194210000Y-57455580D01*
X186360000Y-49430000D02*
X186360000Y-48100000D01*
X187690000Y-49430000D02*
X186360000Y-49430000D01*
X188960000Y-46770000D02*
X196640000Y-46770000D01*
X188960000Y-49430000D02*
X188960000Y-46770000D01*
X188960000Y-49430000D02*
X196640000Y-49430000D01*
X196640000Y-49430000D02*
X196640000Y-46770000D01*
X196957500Y-55570000D02*
X196157500Y-55570000D01*
X196957500Y-55570000D02*
X197757500Y-55570000D01*
X196957500Y-58690000D02*
X196157500Y-58690000D01*
X196957500Y-58690000D02*
X197757500Y-58690000D01*
X198497500Y-58970000D02*
X198017500Y-58970000D01*
X198257500Y-58640000D01*
X198497500Y-58970000D01*
G36*
X198497500Y-58970000D02*
G01*
X198017500Y-58970000D01*
X198257500Y-58640000D01*
X198497500Y-58970000D01*
G37*
X194400000Y-63094420D02*
X194400000Y-63375580D01*
X195420000Y-63094420D02*
X195420000Y-63375580D01*
X189684420Y-68170000D02*
X189965580Y-68170000D01*
X189684420Y-69190000D02*
X189965580Y-69190000D01*
X191034420Y-59010000D02*
X191315580Y-59010000D01*
X191034420Y-60030000D02*
X191315580Y-60030000D01*
%LPC*%
D14*
X184960000Y-51290000D03*
X183410000Y-51290000D03*
D15*
X198080000Y-67020001D03*
X198730001Y-67020001D03*
X199380000Y-67020001D03*
X199380000Y-64770000D03*
X198730001Y-64770000D03*
X198080000Y-64770000D03*
D16*
X192210000Y-52600000D03*
X193760000Y-52600000D03*
D17*
X190340040Y-74540000D03*
X192239960Y-74540000D03*
X191290000Y-72406400D03*
D18*
X196620000Y-72290000D03*
X198270000Y-72290000D03*
D19*
X183280000Y-62270000D03*
X183280000Y-63920000D03*
D20*
X183025000Y-56590000D03*
X185350000Y-56590000D03*
D16*
X192210000Y-54310000D03*
X193760000Y-54310000D03*
X186150000Y-74550000D03*
X187700000Y-74550000D03*
X192220000Y-50850000D03*
X193770000Y-50850000D03*
D21*
X186320000Y-62490000D03*
X186320000Y-63760000D03*
X186320000Y-65030000D03*
X186320000Y-66300000D03*
X191969999Y-66300000D03*
X191969999Y-65030000D03*
X191969999Y-63760000D03*
X191969999Y-62490000D03*
D22*
X200400000Y-57020000D03*
X200400000Y-55370000D03*
D18*
X196650000Y-74700000D03*
X198300000Y-74700000D03*
D19*
X197780000Y-61250000D03*
X197780000Y-62900000D03*
D23*
X187850001Y-54000000D03*
X188800002Y-54000000D03*
X189750000Y-54000000D03*
X189750000Y-51250000D03*
X187850001Y-51250000D03*
D24*
X194830000Y-67490000D03*
X194830000Y-65940000D03*
D16*
X186800000Y-59530000D03*
X188350000Y-59530000D03*
D25*
X190251600Y-56600000D03*
X187850000Y-56600000D03*
D26*
X193700000Y-56540000D03*
X193700000Y-58090000D03*
D27*
X187690000Y-48100000D03*
D28*
X190230000Y-48100000D03*
X192770000Y-48100000D03*
X195310000Y-48100000D03*
D29*
X198095000Y-58080000D03*
X198095000Y-57130000D03*
X198095000Y-56180000D03*
X195820000Y-56180000D03*
X195820000Y-58080000D03*
D26*
X194910000Y-62460000D03*
X194910000Y-64010000D03*
D16*
X189050000Y-68680000D03*
X190600000Y-68680000D03*
X190400000Y-59520000D03*
X191950000Y-59520000D03*
%LPD*%
M02*
