%TF.GenerationSoftware,KiCad,Pcbnew,8.0.1*%
%TF.CreationDate,2025-01-22T20:29:26-07:00*%
%TF.ProjectId,IRRemote,49525265-6d6f-4746-952e-6b696361645f,rev?*%
%TF.SameCoordinates,Original*%
%TF.FileFunction,Copper,L1,Top*%
%TF.FilePolarity,Positive*%
%FSLAX46Y46*%
G04 Gerber Fmt 4.6, Leading zero omitted, Abs format (unit mm)*
G04 Created by KiCad (PCBNEW 8.0.1) date 2025-01-22 20:29:26*
%MOMM*%
%LPD*%
G01*
G04 APERTURE LIST*
G04 Aperture macros list*
%AMRoundRect*
0 Rectangle with rounded corners*
0 $1 Rounding radius*
0 $2 $3 $4 $5 $6 $7 $8 $9 X,Y pos of 4 corners*
0 Add a 4 corners polygon primitive as box body*
4,1,4,$2,$3,$4,$5,$6,$7,$8,$9,$2,$3,0*
0 Add four circle primitives for the rounded corners*
1,1,$1+$1,$2,$3*
1,1,$1+$1,$4,$5*
1,1,$1+$1,$6,$7*
1,1,$1+$1,$8,$9*
0 Add four rect primitives between the rounded corners*
20,1,$1+$1,$2,$3,$4,$5,0*
20,1,$1+$1,$4,$5,$6,$7,0*
20,1,$1+$1,$6,$7,$8,$9,0*
20,1,$1+$1,$8,$9,$2,$3,0*%
G04 Aperture macros list end*
%TA.AperFunction,ComponentPad*%
%ADD10R,1.700000X1.700000*%
%TD*%
%TA.AperFunction,ComponentPad*%
%ADD11O,1.700000X1.700000*%
%TD*%
%TA.AperFunction,SMDPad,CuDef*%
%ADD12RoundRect,0.250000X0.450000X-0.262500X0.450000X0.262500X-0.450000X0.262500X-0.450000X-0.262500X0*%
%TD*%
%TA.AperFunction,ComponentPad*%
%ADD13C,2.500000*%
%TD*%
%TA.AperFunction,SMDPad,CuDef*%
%ADD14R,1.700000X0.650000*%
%TD*%
%TA.AperFunction,SMDPad,CuDef*%
%ADD15RoundRect,0.175000X-0.525000X-0.825000X0.525000X-0.825000X0.525000X0.825000X-0.525000X0.825000X0*%
%TD*%
%TA.AperFunction,SMDPad,CuDef*%
%ADD16RoundRect,0.150000X-0.550000X-0.450000X0.550000X-0.450000X0.550000X0.450000X-0.550000X0.450000X0*%
%TD*%
%TA.AperFunction,ViaPad*%
%ADD17C,0.600000*%
%TD*%
%TA.AperFunction,Conductor*%
%ADD18C,0.152400*%
%TD*%
%TA.AperFunction,Conductor*%
%ADD19C,0.200000*%
%TD*%
G04 APERTURE END LIST*
D10*
%TO.P,J1,1,Pin_1*%
%TO.N,GND*%
X139660000Y-67830000D03*
D11*
%TO.P,J1,2,Pin_2*%
%TO.N,Vcc*%
X137120000Y-67830000D03*
%TD*%
D12*
%TO.P,R2,1*%
%TO.N,Net-(D2-A)*%
X133810000Y-70840000D03*
%TO.P,R2,2*%
%TO.N,GND*%
X133810000Y-69015000D03*
%TD*%
D13*
%TO.P,H1,1,1*%
%TO.N,Vcc*%
X133620000Y-66340000D03*
%TD*%
%TO.P,H2,1,1*%
%TO.N,GND*%
X143100000Y-66240000D03*
%TD*%
D14*
%TO.P,U1,1,~{RESET}/PB5*%
%TO.N,unconnected-(U1-~{RESET}{slash}PB5-Pad1)*%
X134830000Y-72850000D03*
%TO.P,U1,2,XTAL1/PB3*%
%TO.N,Net-(D2-A)*%
X134830000Y-74120000D03*
%TO.P,U1,3,XTAL2/PB4*%
%TO.N,unconnected-(U1-XTAL2{slash}PB4-Pad3)*%
X134830000Y-75390000D03*
%TO.P,U1,4,GND*%
%TO.N,GND*%
X134830000Y-76660000D03*
%TO.P,U1,5,AREF/PB0*%
%TO.N,unconnected-(U1-AREF{slash}PB0-Pad5)*%
X142130000Y-76660000D03*
%TO.P,U1,6,PB1*%
%TO.N,Net-(U1-PB1)*%
X142130000Y-75390000D03*
%TO.P,U1,7,PB2*%
%TO.N,unconnected-(U1-PB2-Pad7)*%
X142130000Y-74120000D03*
%TO.P,U1,8,VCC*%
%TO.N,Vout*%
X142130000Y-72850000D03*
%TD*%
D15*
%TO.P,D2,1,K*%
%TO.N,GND*%
X141300000Y-80080000D03*
D16*
%TO.P,D2,2,A*%
%TO.N,Net-(D2-A)*%
X135200000Y-80080000D03*
%TD*%
D17*
%TO.N,GND*%
X138390000Y-75080000D03*
X141560000Y-78130000D03*
X133730000Y-78260000D03*
%TO.N,Net-(U1-PB1)*%
X143880000Y-74830000D03*
%TO.N,Vout*%
X139380000Y-76140000D03*
%TD*%
D18*
%TO.N,Net-(D2-A)*%
X135940000Y-74120000D02*
X136770000Y-74950000D01*
X136910000Y-74950000D02*
X136910000Y-77340000D01*
X135670000Y-70840000D02*
X133810000Y-70840000D01*
X136910000Y-74950000D02*
X136910000Y-72080000D01*
X136770000Y-74950000D02*
X136910000Y-74950000D01*
X134830000Y-74120000D02*
X135940000Y-74120000D01*
X136910000Y-72080000D02*
X135670000Y-70840000D01*
X135200000Y-79050000D02*
X135200000Y-80080000D01*
X136910000Y-77340000D02*
X135200000Y-79050000D01*
D19*
%TO.N,Net-(U1-PB1)*%
X142130000Y-75390000D02*
X143320000Y-75390000D01*
X143320000Y-75390000D02*
X143880000Y-74830000D01*
D18*
%TO.N,Vout*%
X139380000Y-74240000D02*
X140770000Y-72850000D01*
X140770000Y-72850000D02*
X142130000Y-72850000D01*
X139380000Y-76140000D02*
X139380000Y-74240000D01*
%TD*%
%TA.AperFunction,Conductor*%
%TO.N,GND*%
G36*
X141790167Y-64958093D02*
G01*
X141815887Y-65002642D01*
X141806954Y-65053300D01*
X141800623Y-65062586D01*
X141650028Y-65251426D01*
X141650025Y-65251429D01*
X141518885Y-65478569D01*
X141518879Y-65478581D01*
X141423061Y-65722725D01*
X141364694Y-65978442D01*
X141345093Y-66240000D01*
X141364694Y-66501557D01*
X141423061Y-66757274D01*
X141518879Y-67001418D01*
X141518885Y-67001430D01*
X141650025Y-67228570D01*
X141650028Y-67228573D01*
X141697873Y-67288571D01*
X141697874Y-67288572D01*
X142237426Y-66749020D01*
X142323249Y-66877463D01*
X142462537Y-67016751D01*
X142590978Y-67102572D01*
X142050831Y-67642719D01*
X142050831Y-67642722D01*
X142222541Y-67759791D01*
X142222544Y-67759792D01*
X142458861Y-67873597D01*
X142709492Y-67950906D01*
X142709505Y-67950909D01*
X142968858Y-67990000D01*
X143231142Y-67990000D01*
X143490494Y-67950909D01*
X143490507Y-67950906D01*
X143741138Y-67873597D01*
X143977454Y-67759793D01*
X144149167Y-67642721D01*
X144149167Y-67642719D01*
X143609021Y-67102573D01*
X143737463Y-67016751D01*
X143876751Y-66877463D01*
X143962573Y-66749020D01*
X144502124Y-67288571D01*
X144502125Y-67288571D01*
X144549969Y-67228578D01*
X144549971Y-67228574D01*
X144559175Y-67212634D01*
X144598580Y-67179569D01*
X144650020Y-67179569D01*
X144689425Y-67212634D01*
X144699500Y-67250234D01*
X144699500Y-82064300D01*
X144681907Y-82112638D01*
X144637358Y-82138358D01*
X144624300Y-82139500D01*
X132265700Y-82139500D01*
X132217362Y-82121907D01*
X132191642Y-82077358D01*
X132190500Y-82064300D01*
X132190500Y-76910000D01*
X133480000Y-76910000D01*
X133480000Y-77032831D01*
X133486401Y-77092374D01*
X133486402Y-77092377D01*
X133536648Y-77227090D01*
X133536649Y-77227092D01*
X133622810Y-77342189D01*
X133737907Y-77428350D01*
X133737909Y-77428351D01*
X133872622Y-77478597D01*
X133872625Y-77478598D01*
X133932168Y-77484999D01*
X133932180Y-77485000D01*
X134580000Y-77485000D01*
X134580000Y-76910000D01*
X135080000Y-76910000D01*
X135080000Y-77485000D01*
X135727820Y-77485000D01*
X135727831Y-77484999D01*
X135787374Y-77478598D01*
X135787377Y-77478597D01*
X135922090Y-77428351D01*
X135922092Y-77428350D01*
X136037189Y-77342189D01*
X136123350Y-77227092D01*
X136123351Y-77227090D01*
X136173597Y-77092377D01*
X136173598Y-77092374D01*
X136179999Y-77032831D01*
X136180000Y-77032820D01*
X136180000Y-76910000D01*
X135080000Y-76910000D01*
X134580000Y-76910000D01*
X133480000Y-76910000D01*
X132190500Y-76910000D01*
X132190500Y-76410000D01*
X133480000Y-76410000D01*
X136180000Y-76410000D01*
X136180000Y-76287180D01*
X136179999Y-76287168D01*
X136173598Y-76227625D01*
X136173597Y-76227622D01*
X136123351Y-76092909D01*
X136123350Y-76092907D01*
X136037189Y-75977810D01*
X135922092Y-75891649D01*
X135922088Y-75891647D01*
X135913699Y-75888518D01*
X135874557Y-75855142D01*
X135866026Y-75804414D01*
X135867906Y-75798057D01*
X135868865Y-75793233D01*
X135868867Y-75793231D01*
X135880500Y-75734748D01*
X135880500Y-75045252D01*
X135880015Y-75042816D01*
X135868867Y-74986770D01*
X135868866Y-74986768D01*
X135860143Y-74973713D01*
X135824552Y-74920448D01*
X135758231Y-74876133D01*
X135758229Y-74876132D01*
X135699749Y-74864500D01*
X135699748Y-74864500D01*
X133960252Y-74864500D01*
X133960251Y-74864500D01*
X133901770Y-74876132D01*
X133901768Y-74876133D01*
X133835448Y-74920448D01*
X133791133Y-74986768D01*
X133791132Y-74986770D01*
X133779500Y-75045251D01*
X133779500Y-75734748D01*
X133792578Y-75800495D01*
X133790008Y-75801006D01*
X133791741Y-75840669D01*
X133760428Y-75881480D01*
X133746306Y-75888514D01*
X133737918Y-75891643D01*
X133737907Y-75891649D01*
X133622810Y-75977810D01*
X133536649Y-76092907D01*
X133536648Y-76092909D01*
X133486402Y-76227622D01*
X133486401Y-76227625D01*
X133480000Y-76287168D01*
X133480000Y-76410000D01*
X132190500Y-76410000D01*
X132190500Y-73194748D01*
X133779500Y-73194748D01*
X133791132Y-73253229D01*
X133791133Y-73253231D01*
X133835448Y-73319552D01*
X133901769Y-73363867D01*
X133931010Y-73369683D01*
X133960251Y-73375500D01*
X133960252Y-73375500D01*
X135699749Y-73375500D01*
X135719242Y-73371622D01*
X135758231Y-73363867D01*
X135824552Y-73319552D01*
X135868867Y-73253231D01*
X135880500Y-73194748D01*
X135880500Y-72505252D01*
X135868867Y-72446769D01*
X135824552Y-72380448D01*
X135758231Y-72336133D01*
X135758229Y-72336132D01*
X135699749Y-72324500D01*
X135699748Y-72324500D01*
X133960252Y-72324500D01*
X133960251Y-72324500D01*
X133901770Y-72336132D01*
X133901768Y-72336133D01*
X133835448Y-72380448D01*
X133791133Y-72446768D01*
X133791132Y-72446770D01*
X133779500Y-72505251D01*
X133779500Y-73194748D01*
X132190500Y-73194748D01*
X132190500Y-69265000D01*
X132610001Y-69265000D01*
X132610001Y-69327473D01*
X132620494Y-69430194D01*
X132620495Y-69430197D01*
X132675642Y-69596622D01*
X132767681Y-69745842D01*
X132767686Y-69745848D01*
X132891651Y-69869813D01*
X132891657Y-69869818D01*
X133040877Y-69961857D01*
X133198298Y-70014021D01*
X133238648Y-70045926D01*
X133249050Y-70096303D01*
X133224637Y-70141580D01*
X133199481Y-70156384D01*
X133147120Y-70174705D01*
X133147117Y-70174707D01*
X133037850Y-70255350D01*
X132957207Y-70364617D01*
X132957205Y-70364620D01*
X132912355Y-70492798D01*
X132912353Y-70492807D01*
X132909500Y-70523226D01*
X132909500Y-71156773D01*
X132912353Y-71187192D01*
X132912354Y-71187199D01*
X132912355Y-71187201D01*
X132957205Y-71315379D01*
X132957207Y-71315382D01*
X133037850Y-71424650D01*
X133147117Y-71505292D01*
X133147120Y-71505294D01*
X133177889Y-71516060D01*
X133275301Y-71550146D01*
X133289347Y-71551463D01*
X133305727Y-71553000D01*
X133305734Y-71553000D01*
X134314272Y-71553000D01*
X134328312Y-71551682D01*
X134344699Y-71550146D01*
X134472882Y-71505293D01*
X134582150Y-71424650D01*
X134662793Y-71315382D01*
X134707646Y-71187199D01*
X134709073Y-71171982D01*
X134710500Y-71156773D01*
X134710500Y-71118900D01*
X134728093Y-71070562D01*
X134772642Y-71044842D01*
X134785700Y-71043700D01*
X135554477Y-71043700D01*
X135602815Y-71061293D01*
X135607651Y-71065726D01*
X136684274Y-72142349D01*
X136706014Y-72188969D01*
X136706300Y-72195523D01*
X136706300Y-74416676D01*
X136688707Y-74465014D01*
X136644158Y-74490734D01*
X136593500Y-74481801D01*
X136577926Y-74469850D01*
X136123266Y-74015191D01*
X136123265Y-74015189D01*
X136123265Y-74015190D01*
X136112689Y-74004613D01*
X136055387Y-73947311D01*
X135980519Y-73916300D01*
X135980518Y-73916300D01*
X135955700Y-73916300D01*
X135907362Y-73898707D01*
X135881642Y-73854158D01*
X135880500Y-73841100D01*
X135880500Y-73775251D01*
X135868867Y-73716770D01*
X135868866Y-73716768D01*
X135824552Y-73650448D01*
X135758231Y-73606133D01*
X135758229Y-73606132D01*
X135699749Y-73594500D01*
X135699748Y-73594500D01*
X133960252Y-73594500D01*
X133960251Y-73594500D01*
X133901770Y-73606132D01*
X133901768Y-73606133D01*
X133835448Y-73650448D01*
X133791133Y-73716768D01*
X133791132Y-73716770D01*
X133779500Y-73775251D01*
X133779500Y-74464748D01*
X133791132Y-74523229D01*
X133791133Y-74523231D01*
X133835448Y-74589552D01*
X133901769Y-74633867D01*
X133931010Y-74639683D01*
X133960251Y-74645500D01*
X133960252Y-74645500D01*
X135699749Y-74645500D01*
X135719242Y-74641622D01*
X135758231Y-74633867D01*
X135824552Y-74589552D01*
X135868867Y-74523231D01*
X135872327Y-74505834D01*
X135899012Y-74461858D01*
X135947721Y-74445323D01*
X135995664Y-74463966D01*
X135999253Y-74467328D01*
X136597310Y-75065386D01*
X136597311Y-75065387D01*
X136654613Y-75122689D01*
X136659874Y-75124868D01*
X136697801Y-75159617D01*
X136706300Y-75194345D01*
X136706300Y-77224476D01*
X136688707Y-77272814D01*
X136684274Y-77277650D01*
X135084614Y-78877310D01*
X135084613Y-78877311D01*
X135055963Y-78905961D01*
X135027313Y-78934610D01*
X135027312Y-78934612D01*
X135027311Y-78934613D01*
X134996300Y-79009481D01*
X134996300Y-79009482D01*
X134996300Y-79204300D01*
X134978707Y-79252638D01*
X134934158Y-79278358D01*
X134921100Y-79279500D01*
X134616731Y-79279500D01*
X134548606Y-79289427D01*
X134443514Y-79340803D01*
X134360803Y-79423514D01*
X134309427Y-79528606D01*
X134299500Y-79596731D01*
X134299500Y-80563268D01*
X134309427Y-80631393D01*
X134360803Y-80736485D01*
X134443514Y-80819196D01*
X134443515Y-80819196D01*
X134443517Y-80819198D01*
X134548607Y-80870573D01*
X134598536Y-80877847D01*
X134616731Y-80880499D01*
X134616736Y-80880499D01*
X134616740Y-80880500D01*
X134616742Y-80880500D01*
X135783258Y-80880500D01*
X135783260Y-80880500D01*
X135783264Y-80880499D01*
X135783268Y-80880499D01*
X135792946Y-80879088D01*
X135851393Y-80870573D01*
X135956483Y-80819198D01*
X136039198Y-80736483D01*
X136090573Y-80631393D01*
X136100500Y-80563260D01*
X136100500Y-80330000D01*
X140100001Y-80330000D01*
X140100001Y-80959568D01*
X140106180Y-81027566D01*
X140154944Y-81184060D01*
X140239750Y-81324346D01*
X140355653Y-81440249D01*
X140495939Y-81525055D01*
X140652431Y-81573819D01*
X140652435Y-81573820D01*
X140720432Y-81579999D01*
X141050000Y-81579999D01*
X141050000Y-80330000D01*
X141550000Y-80330000D01*
X141550000Y-81579999D01*
X141879565Y-81579999D01*
X141879568Y-81579998D01*
X141947566Y-81573819D01*
X142104060Y-81525055D01*
X142244346Y-81440249D01*
X142360249Y-81324346D01*
X142445055Y-81184060D01*
X142493819Y-81027568D01*
X142493820Y-81027564D01*
X142500000Y-80959567D01*
X142500000Y-80330000D01*
X141550000Y-80330000D01*
X141050000Y-80330000D01*
X140100001Y-80330000D01*
X136100500Y-80330000D01*
X136100500Y-79830000D01*
X140100000Y-79830000D01*
X141050000Y-79830000D01*
X141050000Y-78580000D01*
X141550000Y-78580000D01*
X141550000Y-79830000D01*
X142499999Y-79830000D01*
X142499999Y-79200435D01*
X142499998Y-79200431D01*
X142493819Y-79132433D01*
X142445055Y-78975939D01*
X142360249Y-78835653D01*
X142244346Y-78719750D01*
X142104060Y-78634944D01*
X141947568Y-78586180D01*
X141947564Y-78586179D01*
X141879567Y-78580000D01*
X141550000Y-78580000D01*
X141050000Y-78580000D01*
X140720435Y-78580000D01*
X140720431Y-78580001D01*
X140652433Y-78586180D01*
X140495939Y-78634944D01*
X140355653Y-78719750D01*
X140239750Y-78835653D01*
X140154944Y-78975939D01*
X140106180Y-79132431D01*
X140106179Y-79132435D01*
X140100000Y-79200432D01*
X140100000Y-79830000D01*
X136100500Y-79830000D01*
X136100500Y-79596740D01*
X136090573Y-79528607D01*
X136039198Y-79423517D01*
X136039196Y-79423515D01*
X136039196Y-79423514D01*
X135956485Y-79340803D01*
X135956483Y-79340802D01*
X135851393Y-79289427D01*
X135783268Y-79279500D01*
X135783260Y-79279500D01*
X135478900Y-79279500D01*
X135430562Y-79261907D01*
X135404842Y-79217358D01*
X135403700Y-79204300D01*
X135403700Y-79165523D01*
X135421293Y-79117185D01*
X135425726Y-79112349D01*
X137082684Y-77455392D01*
X137082684Y-77455391D01*
X137082689Y-77455387D01*
X137113700Y-77380519D01*
X137113700Y-77299482D01*
X137113700Y-77004748D01*
X141079500Y-77004748D01*
X141091132Y-77063229D01*
X141091133Y-77063231D01*
X141135448Y-77129552D01*
X141201769Y-77173867D01*
X141231010Y-77179683D01*
X141260251Y-77185500D01*
X141260252Y-77185500D01*
X142999749Y-77185500D01*
X143019242Y-77181622D01*
X143058231Y-77173867D01*
X143124552Y-77129552D01*
X143168867Y-77063231D01*
X143180500Y-77004748D01*
X143180500Y-76315252D01*
X143168867Y-76256769D01*
X143124552Y-76190448D01*
X143058231Y-76146133D01*
X143058229Y-76146132D01*
X142999749Y-76134500D01*
X142999748Y-76134500D01*
X141260252Y-76134500D01*
X141260251Y-76134500D01*
X141201770Y-76146132D01*
X141201768Y-76146133D01*
X141135448Y-76190448D01*
X141091133Y-76256768D01*
X141091132Y-76256770D01*
X141079500Y-76315251D01*
X141079500Y-77004748D01*
X137113700Y-77004748D01*
X137113700Y-76140000D01*
X138824750Y-76140000D01*
X138843670Y-76283709D01*
X138843671Y-76283711D01*
X138899139Y-76417626D01*
X138987378Y-76532621D01*
X139102373Y-76620860D01*
X139102374Y-76620860D01*
X139102375Y-76620861D01*
X139236291Y-76676330D01*
X139380000Y-76695250D01*
X139523709Y-76676330D01*
X139657625Y-76620861D01*
X139772621Y-76532621D01*
X139860861Y-76417625D01*
X139916330Y-76283709D01*
X139935250Y-76140000D01*
X139916330Y-75996291D01*
X139860861Y-75862375D01*
X139860860Y-75862374D01*
X139860860Y-75862373D01*
X139772621Y-75747378D01*
X139756161Y-75734748D01*
X141079500Y-75734748D01*
X141091132Y-75793229D01*
X141091133Y-75793231D01*
X141135448Y-75859552D01*
X141201769Y-75903867D01*
X141231010Y-75909683D01*
X141260251Y-75915500D01*
X141260252Y-75915500D01*
X142999749Y-75915500D01*
X143019242Y-75911622D01*
X143058231Y-75903867D01*
X143124552Y-75859552D01*
X143168867Y-75793231D01*
X143180500Y-75734748D01*
X143180500Y-75692700D01*
X143198093Y-75644362D01*
X143242642Y-75618642D01*
X143255700Y-75617500D01*
X143365251Y-75617500D01*
X143365253Y-75617500D01*
X143448868Y-75582865D01*
X143650636Y-75381095D01*
X143697255Y-75359357D01*
X143732590Y-75364797D01*
X143736291Y-75366330D01*
X143880000Y-75385250D01*
X144023709Y-75366330D01*
X144157625Y-75310861D01*
X144272621Y-75222621D01*
X144360861Y-75107625D01*
X144416330Y-74973709D01*
X144435250Y-74830000D01*
X144416330Y-74686291D01*
X144360861Y-74552375D01*
X144360860Y-74552374D01*
X144360860Y-74552373D01*
X144272621Y-74437378D01*
X144157626Y-74349139D01*
X144023711Y-74293671D01*
X144023709Y-74293670D01*
X143880000Y-74274750D01*
X143736291Y-74293670D01*
X143736288Y-74293670D01*
X143736288Y-74293671D01*
X143602373Y-74349139D01*
X143487378Y-74437378D01*
X143399139Y-74552373D01*
X143365384Y-74633867D01*
X143343670Y-74686291D01*
X143324750Y-74830000D01*
X143343671Y-74973713D01*
X143345205Y-74977417D01*
X143347445Y-75028808D01*
X143328901Y-75059363D01*
X143306944Y-75081320D01*
X143260324Y-75103060D01*
X143210637Y-75089746D01*
X143181132Y-75047609D01*
X143180015Y-75042816D01*
X143176239Y-75023834D01*
X143168867Y-74986769D01*
X143124552Y-74920448D01*
X143058231Y-74876133D01*
X143058229Y-74876132D01*
X142999749Y-74864500D01*
X142999748Y-74864500D01*
X141260252Y-74864500D01*
X141260251Y-74864500D01*
X141201770Y-74876132D01*
X141201768Y-74876133D01*
X141135448Y-74920448D01*
X141091133Y-74986768D01*
X141091132Y-74986770D01*
X141079500Y-75045251D01*
X141079500Y-75734748D01*
X139756161Y-75734748D01*
X139657627Y-75659140D01*
X139657626Y-75659139D01*
X139630121Y-75647746D01*
X139592196Y-75612994D01*
X139583700Y-75578271D01*
X139583700Y-74464748D01*
X141079500Y-74464748D01*
X141091132Y-74523229D01*
X141091133Y-74523231D01*
X141135448Y-74589552D01*
X141201769Y-74633867D01*
X141231010Y-74639683D01*
X141260251Y-74645500D01*
X141260252Y-74645500D01*
X142999749Y-74645500D01*
X143019242Y-74641622D01*
X143058231Y-74633867D01*
X143124552Y-74589552D01*
X143168867Y-74523231D01*
X143180500Y-74464748D01*
X143180500Y-73775252D01*
X143168867Y-73716769D01*
X143124552Y-73650448D01*
X143058231Y-73606133D01*
X143058229Y-73606132D01*
X142999749Y-73594500D01*
X142999748Y-73594500D01*
X141260252Y-73594500D01*
X141260251Y-73594500D01*
X141201770Y-73606132D01*
X141201768Y-73606133D01*
X141135448Y-73650448D01*
X141091133Y-73716768D01*
X141091132Y-73716770D01*
X141079500Y-73775251D01*
X141079500Y-74464748D01*
X139583700Y-74464748D01*
X139583700Y-74355523D01*
X139601293Y-74307185D01*
X139605726Y-74302349D01*
X140832349Y-73075726D01*
X140878969Y-73053986D01*
X140885523Y-73053700D01*
X141004300Y-73053700D01*
X141052638Y-73071293D01*
X141078358Y-73115842D01*
X141079500Y-73128900D01*
X141079500Y-73194748D01*
X141091132Y-73253229D01*
X141091133Y-73253231D01*
X141135448Y-73319552D01*
X141201769Y-73363867D01*
X141231010Y-73369683D01*
X141260251Y-73375500D01*
X141260252Y-73375500D01*
X142999749Y-73375500D01*
X143019242Y-73371622D01*
X143058231Y-73363867D01*
X143124552Y-73319552D01*
X143168867Y-73253231D01*
X143180500Y-73194748D01*
X143180500Y-72505252D01*
X143168867Y-72446769D01*
X143124552Y-72380448D01*
X143058231Y-72336133D01*
X143058229Y-72336132D01*
X142999749Y-72324500D01*
X142999748Y-72324500D01*
X141260252Y-72324500D01*
X141260251Y-72324500D01*
X141201770Y-72336132D01*
X141201768Y-72336133D01*
X141135448Y-72380448D01*
X141091133Y-72446768D01*
X141091132Y-72446770D01*
X141079500Y-72505251D01*
X141079500Y-72571100D01*
X141061907Y-72619438D01*
X141017358Y-72645158D01*
X141004300Y-72646300D01*
X140819279Y-72646300D01*
X140819271Y-72646299D01*
X140810519Y-72646299D01*
X140729481Y-72646299D01*
X140676541Y-72668226D01*
X140676541Y-72668227D01*
X140665577Y-72672769D01*
X140654612Y-72677311D01*
X140625962Y-72705962D01*
X140597311Y-72734613D01*
X140597310Y-72734614D01*
X139264614Y-74067310D01*
X139264613Y-74067311D01*
X139235963Y-74095961D01*
X139207313Y-74124610D01*
X139207312Y-74124612D01*
X139207311Y-74124613D01*
X139176300Y-74199481D01*
X139176300Y-74199482D01*
X139176300Y-75578271D01*
X139158707Y-75626609D01*
X139129879Y-75647746D01*
X139102373Y-75659139D01*
X139102372Y-75659140D01*
X138987378Y-75747378D01*
X138899139Y-75862373D01*
X138877134Y-75915500D01*
X138843670Y-75996291D01*
X138824750Y-76140000D01*
X137113700Y-76140000D01*
X137113700Y-74909481D01*
X137113700Y-72129279D01*
X137113701Y-72129270D01*
X137113701Y-72039480D01*
X137113700Y-72039479D01*
X137082689Y-71964614D01*
X137082689Y-71964613D01*
X137025387Y-71907311D01*
X137025386Y-71907310D01*
X137021100Y-71903024D01*
X137021093Y-71903018D01*
X135853266Y-70735191D01*
X135853265Y-70735189D01*
X135853265Y-70735190D01*
X135842689Y-70724613D01*
X135785387Y-70667311D01*
X135710519Y-70636300D01*
X135710518Y-70636300D01*
X134785700Y-70636300D01*
X134737362Y-70618707D01*
X134711642Y-70574158D01*
X134710500Y-70561100D01*
X134710500Y-70523226D01*
X134708869Y-70505843D01*
X134707646Y-70492801D01*
X134662793Y-70364618D01*
X134582150Y-70255350D01*
X134472882Y-70174707D01*
X134472879Y-70174705D01*
X134420518Y-70156384D01*
X134380704Y-70123813D01*
X134371140Y-70073270D01*
X134396303Y-70028405D01*
X134421701Y-70014021D01*
X134579122Y-69961857D01*
X134728342Y-69869818D01*
X134728348Y-69869813D01*
X134852313Y-69745848D01*
X134852318Y-69745842D01*
X134944357Y-69596622D01*
X134999505Y-69430197D01*
X135010000Y-69327472D01*
X135010000Y-69265000D01*
X132610001Y-69265000D01*
X132190500Y-69265000D01*
X132190500Y-68765000D01*
X132610000Y-68765000D01*
X133560000Y-68765000D01*
X133560000Y-68002500D01*
X134060000Y-68002500D01*
X134060000Y-68765000D01*
X135009999Y-68765000D01*
X135009999Y-68702526D01*
X134999505Y-68599805D01*
X134999504Y-68599802D01*
X134944357Y-68433377D01*
X134852318Y-68284157D01*
X134852313Y-68284151D01*
X134728348Y-68160186D01*
X134728342Y-68160181D01*
X134579122Y-68068142D01*
X134412697Y-68012994D01*
X134412698Y-68012994D01*
X134309973Y-68002500D01*
X134060000Y-68002500D01*
X133560000Y-68002500D01*
X133310026Y-68002500D01*
X133207305Y-68012994D01*
X133207302Y-68012995D01*
X133040877Y-68068142D01*
X132891657Y-68160181D01*
X132891651Y-68160186D01*
X132767686Y-68284151D01*
X132767681Y-68284157D01*
X132675642Y-68433377D01*
X132620494Y-68599802D01*
X132610000Y-68702527D01*
X132610000Y-68765000D01*
X132190500Y-68765000D01*
X132190500Y-67830000D01*
X136064417Y-67830000D01*
X136084699Y-68035932D01*
X136144765Y-68233947D01*
X136144770Y-68233959D01*
X136171599Y-68284151D01*
X136242315Y-68416450D01*
X136373590Y-68576410D01*
X136533550Y-68707685D01*
X136716046Y-68805232D01*
X136716050Y-68805233D01*
X136716052Y-68805234D01*
X136789778Y-68827598D01*
X136914066Y-68865300D01*
X137120000Y-68885583D01*
X137325934Y-68865300D01*
X137523954Y-68805232D01*
X137706450Y-68707685D01*
X137866410Y-68576410D01*
X137997685Y-68416450D01*
X138095232Y-68233954D01*
X138155300Y-68035934D01*
X138159962Y-67988599D01*
X138182209Y-67942220D01*
X138229063Y-67920990D01*
X138278602Y-67934845D01*
X138307646Y-67977301D01*
X138310000Y-67995971D01*
X138310000Y-68727831D01*
X138316401Y-68787374D01*
X138316402Y-68787377D01*
X138366648Y-68922090D01*
X138366649Y-68922092D01*
X138452810Y-69037189D01*
X138567907Y-69123350D01*
X138567909Y-69123351D01*
X138702622Y-69173597D01*
X138702625Y-69173598D01*
X138762168Y-69179999D01*
X138762180Y-69180000D01*
X139410000Y-69180000D01*
X139410000Y-68263012D01*
X139467007Y-68295925D01*
X139594174Y-68330000D01*
X139725826Y-68330000D01*
X139852993Y-68295925D01*
X139910000Y-68263012D01*
X139910000Y-69180000D01*
X140557820Y-69180000D01*
X140557831Y-69179999D01*
X140617374Y-69173598D01*
X140617377Y-69173597D01*
X140752090Y-69123351D01*
X140752092Y-69123350D01*
X140867189Y-69037189D01*
X140953350Y-68922092D01*
X140953351Y-68922090D01*
X141003597Y-68787377D01*
X141003598Y-68787374D01*
X141009999Y-68727831D01*
X141010000Y-68727820D01*
X141010000Y-68080000D01*
X140093012Y-68080000D01*
X140125925Y-68022993D01*
X140160000Y-67895826D01*
X140160000Y-67764174D01*
X140125925Y-67637007D01*
X140093012Y-67580000D01*
X141010000Y-67580000D01*
X141010000Y-66932180D01*
X141009999Y-66932168D01*
X141003598Y-66872625D01*
X141003597Y-66872622D01*
X140953351Y-66737909D01*
X140953350Y-66737907D01*
X140867189Y-66622810D01*
X140752092Y-66536649D01*
X140752090Y-66536648D01*
X140617377Y-66486402D01*
X140617374Y-66486401D01*
X140557831Y-66480000D01*
X139910000Y-66480000D01*
X139910000Y-67396988D01*
X139852993Y-67364075D01*
X139725826Y-67330000D01*
X139594174Y-67330000D01*
X139467007Y-67364075D01*
X139410000Y-67396988D01*
X139410000Y-66480000D01*
X138762168Y-66480000D01*
X138702625Y-66486401D01*
X138702622Y-66486402D01*
X138567909Y-66536648D01*
X138567907Y-66536649D01*
X138452810Y-66622810D01*
X138366649Y-66737907D01*
X138366648Y-66737909D01*
X138316402Y-66872622D01*
X138316401Y-66872625D01*
X138310000Y-66932168D01*
X138310000Y-67664028D01*
X138292407Y-67712366D01*
X138247858Y-67738086D01*
X138197200Y-67729153D01*
X138164135Y-67689748D01*
X138159962Y-67671399D01*
X138155300Y-67624067D01*
X138135402Y-67558472D01*
X138117598Y-67499778D01*
X138095234Y-67426052D01*
X138095229Y-67426040D01*
X137997687Y-67243554D01*
X137997684Y-67243549D01*
X137866410Y-67083590D01*
X137706450Y-66952315D01*
X137706445Y-66952312D01*
X137523959Y-66854770D01*
X137523947Y-66854765D01*
X137325932Y-66794699D01*
X137120000Y-66774417D01*
X136914067Y-66794699D01*
X136716052Y-66854765D01*
X136716040Y-66854770D01*
X136533554Y-66952312D01*
X136533549Y-66952315D01*
X136373590Y-67083590D01*
X136242315Y-67243549D01*
X136242312Y-67243554D01*
X136144770Y-67426040D01*
X136144765Y-67426052D01*
X136084699Y-67624067D01*
X136064417Y-67830000D01*
X132190500Y-67830000D01*
X132190500Y-67050660D01*
X132208093Y-67002322D01*
X132252642Y-66976602D01*
X132303300Y-66985535D01*
X132334566Y-67020453D01*
X132339948Y-67032722D01*
X132339948Y-67032724D01*
X132471429Y-67233969D01*
X132634233Y-67410822D01*
X132634237Y-67410826D01*
X132823934Y-67558473D01*
X133035338Y-67672879D01*
X133035344Y-67672882D01*
X133262703Y-67750934D01*
X133499808Y-67790500D01*
X133499811Y-67790500D01*
X133740189Y-67790500D01*
X133740192Y-67790500D01*
X133977297Y-67750934D01*
X134204656Y-67672882D01*
X134416067Y-67558472D01*
X134605764Y-67410825D01*
X134768571Y-67233969D01*
X134900049Y-67032728D01*
X134996610Y-66812591D01*
X135055620Y-66579563D01*
X135075471Y-66340000D01*
X135055620Y-66100437D01*
X134996610Y-65867409D01*
X134900049Y-65647272D01*
X134768571Y-65446031D01*
X134605764Y-65269175D01*
X134605762Y-65269173D01*
X134416065Y-65121526D01*
X134342724Y-65081836D01*
X134308586Y-65043357D01*
X134307168Y-64991937D01*
X134339135Y-64951636D01*
X134378515Y-64940500D01*
X141741829Y-64940500D01*
X141790167Y-64958093D01*
G37*
%TD.AperFunction*%
%TD*%
M02*
