%TF.GenerationSoftware,KiCad,Pcbnew,8.0.1*%
%TF.CreationDate,2025-01-22T20:29:26-07:00*%
%TF.ProjectId,IRRemote,49525265-6d6f-4746-952e-6b696361645f,rev?*%
%TF.SameCoordinates,Original*%
%TF.FileFunction,Copper,L2,Bot*%
%TF.FilePolarity,Positive*%
%FSLAX46Y46*%
G04 Gerber Fmt 4.6, Leading zero omitted, Abs format (unit mm)*
G04 Created by KiCad (PCBNEW 8.0.1) date 2025-01-22 20:29:26*
%MOMM*%
%LPD*%
G01*
G04 APERTURE LIST*
G04 Aperture macros list*
%AMRoundRect*
0 Rectangle with rounded corners*
0 $1 Rounding radius*
0 $2 $3 $4 $5 $6 $7 $8 $9 X,Y pos of 4 corners*
0 Add a 4 corners polygon primitive as box body*
4,1,4,$2,$3,$4,$5,$6,$7,$8,$9,$2,$3,0*
0 Add four circle primitives for the rounded corners*
1,1,$1+$1,$2,$3*
1,1,$1+$1,$4,$5*
1,1,$1+$1,$6,$7*
1,1,$1+$1,$8,$9*
0 Add four rect primitives between the rounded corners*
20,1,$1+$1,$2,$3,$4,$5,0*
20,1,$1+$1,$4,$5,$6,$7,0*
20,1,$1+$1,$6,$7,$8,$9,0*
20,1,$1+$1,$8,$9,$2,$3,0*%
G04 Aperture macros list end*
%TA.AperFunction,SMDPad,CuDef*%
%ADD10R,1.800000X1.800000*%
%TD*%
%TA.AperFunction,SMDPad,CuDef*%
%ADD11C,1.800000*%
%TD*%
%TA.AperFunction,ComponentPad*%
%ADD12R,1.700000X1.700000*%
%TD*%
%TA.AperFunction,ComponentPad*%
%ADD13O,1.700000X1.700000*%
%TD*%
%TA.AperFunction,ComponentPad*%
%ADD14C,2.500000*%
%TD*%
%TA.AperFunction,SMDPad,CuDef*%
%ADD15RoundRect,0.150000X-0.512500X-0.150000X0.512500X-0.150000X0.512500X0.150000X-0.512500X0.150000X0*%
%TD*%
%TA.AperFunction,SMDPad,CuDef*%
%ADD16RoundRect,0.225000X-0.250000X0.225000X-0.250000X-0.225000X0.250000X-0.225000X0.250000X0.225000X0*%
%TD*%
%TA.AperFunction,SMDPad,CuDef*%
%ADD17RoundRect,0.237500X0.237500X-0.250000X0.237500X0.250000X-0.237500X0.250000X-0.237500X-0.250000X0*%
%TD*%
%TA.AperFunction,SMDPad,CuDef*%
%ADD18RoundRect,0.225000X0.250000X-0.225000X0.250000X0.225000X-0.250000X0.225000X-0.250000X-0.225000X0*%
%TD*%
%TA.AperFunction,ViaPad*%
%ADD19C,0.600000*%
%TD*%
%TA.AperFunction,Conductor*%
%ADD20C,0.152400*%
%TD*%
%TA.AperFunction,Conductor*%
%ADD21C,0.200000*%
%TD*%
G04 APERTURE END LIST*
D10*
%TO.P,D1,1,K*%
%TO.N,GND*%
X139440000Y-72780000D03*
D11*
%TO.P,D1,2,A*%
%TO.N,Net-(D1-A)*%
X136900000Y-72780000D03*
%TD*%
D12*
%TO.P,J1,1,Pin_1*%
%TO.N,GND*%
X139660000Y-67830000D03*
D13*
%TO.P,J1,2,Pin_2*%
%TO.N,Vcc*%
X137120000Y-67830000D03*
%TD*%
D14*
%TO.P,H1,1,1*%
%TO.N,Vcc*%
X133620000Y-66340000D03*
%TD*%
%TO.P,H2,1,1*%
%TO.N,GND*%
X143100000Y-66240000D03*
%TD*%
D15*
%TO.P,U2,1,VIN*%
%TO.N,Vcc*%
X137200000Y-80640000D03*
%TO.P,U2,2,GND*%
%TO.N,GND*%
X137200000Y-79690000D03*
%TO.P,U2,3,EN*%
%TO.N,Vcc*%
X137200000Y-78740000D03*
%TO.P,U2,4,NC*%
%TO.N,unconnected-(U2-NC-Pad4)*%
X139475000Y-78740000D03*
%TO.P,U2,5,VOUT*%
%TO.N,Vout*%
X139475000Y-80640000D03*
%TD*%
D16*
%TO.P,C1,1*%
%TO.N,GND*%
X134870000Y-79030000D03*
%TO.P,C1,2*%
%TO.N,Vcc*%
X134870000Y-80580000D03*
%TD*%
D17*
%TO.P,R1,1*%
%TO.N,Net-(U1-PB1)*%
X142640000Y-71125000D03*
%TO.P,R1,2*%
%TO.N,Net-(D1-A)*%
X142640000Y-69300000D03*
%TD*%
D18*
%TO.P,C2,1*%
%TO.N,Vout*%
X142310000Y-80510000D03*
%TO.P,C2,2*%
%TO.N,GND*%
X142310000Y-78960000D03*
%TD*%
D19*
%TO.N,GND*%
X138390000Y-75080000D03*
X141560000Y-78130000D03*
X133730000Y-78260000D03*
%TO.N,Net-(U1-PB1)*%
X143880000Y-74830000D03*
%TO.N,Vout*%
X139380000Y-76140000D03*
%TD*%
D20*
%TO.N,GND*%
X141560000Y-78130000D02*
X142350000Y-78920000D01*
X139440000Y-72780000D02*
X139440000Y-73510000D01*
D21*
X134870000Y-79030000D02*
X134060000Y-79030000D01*
D20*
X138390000Y-74560000D02*
X138390000Y-75080000D01*
X139440000Y-73510000D02*
X138390000Y-74560000D01*
D21*
X134060000Y-79030000D02*
X133730000Y-78700000D01*
D20*
X137200000Y-79690000D02*
X137916994Y-79690000D01*
X142350000Y-78920000D02*
X142350000Y-79185000D01*
D21*
X133730000Y-78700000D02*
X133730000Y-78260000D01*
D20*
X138390000Y-79216994D02*
X138390000Y-75080000D01*
X137916994Y-79690000D02*
X138390000Y-79216994D01*
%TO.N,Net-(D1-A)*%
X139870000Y-71400000D02*
X141970000Y-69300000D01*
X136900000Y-72780000D02*
X136900000Y-72530000D01*
X136900000Y-72530000D02*
X138030000Y-71400000D01*
X138030000Y-71400000D02*
X139870000Y-71400000D01*
X141970000Y-69300000D02*
X142640000Y-69300000D01*
%TO.N,Vcc*%
X134400000Y-66820000D02*
X134400000Y-66500000D01*
X135880000Y-78740000D02*
X137200000Y-78740000D01*
X137140000Y-80580000D02*
X137200000Y-80640000D01*
X135880000Y-78740000D02*
X135880000Y-78140000D01*
X134620000Y-76880000D02*
X134620000Y-71610000D01*
X135880000Y-80560000D02*
X135880000Y-78740000D01*
X135900000Y-80580000D02*
X135880000Y-80560000D01*
X135880000Y-78140000D02*
X134620000Y-76880000D01*
X136890000Y-69340000D02*
X137440000Y-69340000D01*
X134870000Y-80580000D02*
X135900000Y-80580000D01*
X135900000Y-80580000D02*
X137140000Y-80580000D01*
D21*
%TO.N,Net-(U1-PB1)*%
X142640000Y-73590000D02*
X142640000Y-71125000D01*
X143880000Y-74830000D02*
X142640000Y-73590000D01*
D20*
%TO.N,Vout*%
X140410000Y-80640000D02*
X139475000Y-80640000D01*
X139380000Y-76140000D02*
X139890000Y-76140000D01*
X140580000Y-80630000D02*
X142190000Y-80630000D01*
X140910000Y-80300000D02*
X140570000Y-80640000D01*
X140410000Y-80640000D02*
X140570000Y-80640000D01*
X140570000Y-80640000D02*
X140580000Y-80630000D01*
X138830000Y-80640000D02*
X139475000Y-80640000D01*
X140910000Y-77160000D02*
X140910000Y-80300000D01*
X139890000Y-76140000D02*
X140910000Y-77160000D01*
X142190000Y-80630000D02*
X142310000Y-80510000D01*
%TD*%
%TA.AperFunction,Conductor*%
%TO.N,Vcc*%
G36*
X142113877Y-64960185D02*
G01*
X142159632Y-65012989D01*
X142169576Y-65082147D01*
X142140551Y-65145703D01*
X142123000Y-65162353D01*
X142114242Y-65169169D01*
X142114239Y-65169172D01*
X141951430Y-65346029D01*
X141951427Y-65346033D01*
X141819951Y-65547270D01*
X141723389Y-65767410D01*
X141664379Y-66000440D01*
X141644529Y-66239994D01*
X141644529Y-66240005D01*
X141664379Y-66479559D01*
X141723389Y-66712589D01*
X141819951Y-66932729D01*
X141930167Y-67101426D01*
X141951429Y-67133969D01*
X142114236Y-67310825D01*
X142114239Y-67310827D01*
X142114242Y-67310830D01*
X142303924Y-67458466D01*
X142303930Y-67458470D01*
X142303933Y-67458472D01*
X142515344Y-67572882D01*
X142515347Y-67572883D01*
X142742699Y-67650933D01*
X142742701Y-67650933D01*
X142742703Y-67650934D01*
X142979808Y-67690500D01*
X142979809Y-67690500D01*
X143220191Y-67690500D01*
X143220192Y-67690500D01*
X143457297Y-67650934D01*
X143684656Y-67572882D01*
X143896067Y-67458472D01*
X144085764Y-67310825D01*
X144248571Y-67133969D01*
X144380049Y-66932728D01*
X144461945Y-66746023D01*
X144506900Y-66692539D01*
X144573636Y-66671849D01*
X144640964Y-66690523D01*
X144687507Y-66742634D01*
X144699500Y-66795835D01*
X144699500Y-82015500D01*
X144679815Y-82082539D01*
X144627011Y-82128294D01*
X144575500Y-82139500D01*
X132314500Y-82139500D01*
X132247461Y-82119815D01*
X132201706Y-82067011D01*
X132190500Y-82015500D01*
X132190500Y-80830000D01*
X133895001Y-80830000D01*
X133895001Y-80853322D01*
X133905144Y-80952607D01*
X133958452Y-81113481D01*
X133958457Y-81113492D01*
X134047424Y-81257728D01*
X134047427Y-81257732D01*
X134167267Y-81377572D01*
X134167271Y-81377575D01*
X134311507Y-81466542D01*
X134311518Y-81466547D01*
X134472393Y-81519855D01*
X134571683Y-81529999D01*
X134619999Y-81529998D01*
X134620000Y-81529998D01*
X134620000Y-80830000D01*
X133895001Y-80830000D01*
X132190500Y-80830000D01*
X132190500Y-78260000D01*
X133174750Y-78260000D01*
X133192560Y-78395281D01*
X133193670Y-78403708D01*
X133193671Y-78403712D01*
X133249137Y-78537622D01*
X133249138Y-78537624D01*
X133249139Y-78537625D01*
X133337379Y-78652621D01*
X133379902Y-78685250D01*
X133452373Y-78740860D01*
X133463230Y-78745357D01*
X133517635Y-78789197D01*
X133530340Y-78812464D01*
X133537135Y-78828868D01*
X133537136Y-78828870D01*
X133867135Y-79158868D01*
X133931132Y-79222865D01*
X134014747Y-79257500D01*
X134083686Y-79257500D01*
X134150725Y-79277185D01*
X134196480Y-79329989D01*
X134206160Y-79362104D01*
X134210280Y-79388124D01*
X134210280Y-79388125D01*
X134210281Y-79388126D01*
X134250312Y-79466692D01*
X134271473Y-79508221D01*
X134271476Y-79508225D01*
X134290424Y-79527173D01*
X134323909Y-79588496D01*
X134318925Y-79658188D01*
X134277053Y-79714121D01*
X134267841Y-79720392D01*
X134167268Y-79782426D01*
X134047427Y-79902267D01*
X134047424Y-79902271D01*
X133958457Y-80046507D01*
X133958452Y-80046518D01*
X133905144Y-80207393D01*
X133895000Y-80306677D01*
X133895000Y-80330000D01*
X134996000Y-80330000D01*
X135063039Y-80349685D01*
X135108794Y-80402489D01*
X135120000Y-80454000D01*
X135120000Y-81529999D01*
X135168308Y-81529999D01*
X135168322Y-81529998D01*
X135267607Y-81519855D01*
X135428481Y-81466547D01*
X135428492Y-81466542D01*
X135572728Y-81377575D01*
X135572732Y-81377572D01*
X135692572Y-81257732D01*
X135692575Y-81257728D01*
X135781542Y-81113492D01*
X135781548Y-81113479D01*
X135828199Y-80972695D01*
X135867971Y-80915250D01*
X135932487Y-80888426D01*
X136001263Y-80900741D01*
X136052463Y-80948283D01*
X136064981Y-80977103D01*
X136086215Y-81050193D01*
X136086217Y-81050196D01*
X136169814Y-81191552D01*
X136169821Y-81191561D01*
X136285938Y-81307678D01*
X136285947Y-81307685D01*
X136427303Y-81391282D01*
X136427306Y-81391283D01*
X136585004Y-81437099D01*
X136585010Y-81437100D01*
X136621850Y-81439999D01*
X136621866Y-81440000D01*
X136950000Y-81440000D01*
X136950000Y-80890000D01*
X137450000Y-80890000D01*
X137450000Y-81440000D01*
X137778134Y-81440000D01*
X137778149Y-81439999D01*
X137814989Y-81437100D01*
X137814995Y-81437099D01*
X137972693Y-81391283D01*
X137972696Y-81391282D01*
X138114052Y-81307685D01*
X138114061Y-81307678D01*
X138230178Y-81191561D01*
X138230185Y-81191552D01*
X138313781Y-81050198D01*
X138359600Y-80892486D01*
X138359795Y-80890001D01*
X138359795Y-80890000D01*
X137450000Y-80890000D01*
X136950000Y-80890000D01*
X136950000Y-80514000D01*
X136969685Y-80446961D01*
X137022489Y-80401206D01*
X137074000Y-80390000D01*
X138359795Y-80390000D01*
X138359795Y-80389998D01*
X138359600Y-80387513D01*
X138313781Y-80229801D01*
X138230185Y-80088447D01*
X138230178Y-80088438D01*
X138108540Y-79966800D01*
X138110300Y-79965039D01*
X138076556Y-79918331D01*
X138072754Y-79848565D01*
X138105807Y-79789261D01*
X138107122Y-79787946D01*
X138487945Y-79407123D01*
X138487948Y-79407121D01*
X138505386Y-79389683D01*
X138505387Y-79389683D01*
X138562689Y-79332381D01*
X138580870Y-79288488D01*
X138593701Y-79257512D01*
X138593701Y-79257510D01*
X138597519Y-79248293D01*
X138641360Y-79193889D01*
X138707654Y-79171823D01*
X138766541Y-79184343D01*
X138861107Y-79230573D01*
X138895173Y-79235536D01*
X138929239Y-79240500D01*
X138929240Y-79240500D01*
X140020761Y-79240500D01*
X140043471Y-79237191D01*
X140088893Y-79230573D01*
X140193983Y-79179198D01*
X140276698Y-79096483D01*
X140328073Y-78991393D01*
X140338000Y-78923260D01*
X140338000Y-78556740D01*
X140337276Y-78551774D01*
X140328073Y-78488608D01*
X140327538Y-78487513D01*
X140276698Y-78383517D01*
X140276696Y-78383515D01*
X140276696Y-78383514D01*
X140193985Y-78300803D01*
X140088891Y-78249426D01*
X140020761Y-78239500D01*
X140020760Y-78239500D01*
X138929240Y-78239500D01*
X138929239Y-78239500D01*
X138861108Y-78249426D01*
X138772160Y-78292910D01*
X138703287Y-78304668D01*
X138638990Y-78277325D01*
X138599683Y-78219560D01*
X138593700Y-78181509D01*
X138593700Y-76276871D01*
X138613385Y-76209832D01*
X138666189Y-76164077D01*
X138735347Y-76154133D01*
X138798903Y-76183158D01*
X138836677Y-76241936D01*
X138840639Y-76260685D01*
X138843670Y-76283708D01*
X138843671Y-76283712D01*
X138899137Y-76417622D01*
X138899138Y-76417624D01*
X138899139Y-76417625D01*
X138987379Y-76532621D01*
X139102375Y-76620861D01*
X139236291Y-76676330D01*
X139363280Y-76693048D01*
X139379999Y-76695250D01*
X139380000Y-76695250D01*
X139380001Y-76695250D01*
X139394977Y-76693278D01*
X139523709Y-76676330D01*
X139657625Y-76620861D01*
X139772621Y-76532621D01*
X139782899Y-76519225D01*
X139839327Y-76478023D01*
X139909073Y-76473868D01*
X139968956Y-76507031D01*
X140669981Y-77208056D01*
X140703466Y-77269379D01*
X140706300Y-77295737D01*
X140706300Y-80164263D01*
X140686615Y-80231302D01*
X140669981Y-80251944D01*
X140521944Y-80399981D01*
X140460621Y-80433466D01*
X140434263Y-80436300D01*
X140428794Y-80436300D01*
X140361755Y-80416615D01*
X140317394Y-80366761D01*
X140276697Y-80283515D01*
X140193985Y-80200803D01*
X140088891Y-80149426D01*
X140020761Y-80139500D01*
X140020760Y-80139500D01*
X138929240Y-80139500D01*
X138929239Y-80139500D01*
X138861108Y-80149426D01*
X138756014Y-80200803D01*
X138673303Y-80283514D01*
X138621926Y-80388608D01*
X138612000Y-80456739D01*
X138612000Y-80823260D01*
X138621926Y-80891391D01*
X138621927Y-80891393D01*
X138669262Y-80988220D01*
X138673303Y-80996485D01*
X138756014Y-81079196D01*
X138756015Y-81079196D01*
X138756017Y-81079198D01*
X138861107Y-81130573D01*
X138895173Y-81135536D01*
X138929239Y-81140500D01*
X138929240Y-81140500D01*
X140020761Y-81140500D01*
X140043471Y-81137191D01*
X140088893Y-81130573D01*
X140193983Y-81079198D01*
X140276698Y-80996483D01*
X140298148Y-80952607D01*
X140317394Y-80913239D01*
X140364522Y-80861657D01*
X140428794Y-80843700D01*
X140610518Y-80843700D01*
X140610519Y-80843700D01*
X140611873Y-80843138D01*
X140659327Y-80833700D01*
X141556753Y-80833700D01*
X141623792Y-80853385D01*
X141667236Y-80901403D01*
X141711472Y-80988220D01*
X141711474Y-80988222D01*
X141711476Y-80988225D01*
X141806774Y-81083523D01*
X141806778Y-81083526D01*
X141806780Y-81083528D01*
X141926874Y-81144719D01*
X141926876Y-81144719D01*
X141926878Y-81144720D01*
X142026507Y-81160500D01*
X142026512Y-81160500D01*
X142593493Y-81160500D01*
X142693121Y-81144720D01*
X142693121Y-81144719D01*
X142693126Y-81144719D01*
X142813220Y-81083528D01*
X142908528Y-80988220D01*
X142969719Y-80868126D01*
X142976825Y-80823260D01*
X142985500Y-80768493D01*
X142985500Y-80251506D01*
X142969720Y-80151878D01*
X142969719Y-80151876D01*
X142969719Y-80151874D01*
X142908528Y-80031780D01*
X142908526Y-80031778D01*
X142908523Y-80031774D01*
X142813225Y-79936476D01*
X142813221Y-79936473D01*
X142813220Y-79936472D01*
X142693126Y-79875281D01*
X142693124Y-79875280D01*
X142693121Y-79875279D01*
X142593493Y-79859500D01*
X142593488Y-79859500D01*
X142026512Y-79859500D01*
X142026507Y-79859500D01*
X141926878Y-79875279D01*
X141806778Y-79936473D01*
X141806774Y-79936476D01*
X141711476Y-80031774D01*
X141711473Y-80031778D01*
X141650279Y-80151878D01*
X141634500Y-80251506D01*
X141634500Y-80302300D01*
X141614815Y-80369339D01*
X141562011Y-80415094D01*
X141510500Y-80426300D01*
X141237701Y-80426300D01*
X141170662Y-80406615D01*
X141124907Y-80353811D01*
X141113701Y-80302300D01*
X141113701Y-80249492D01*
X141113700Y-80249478D01*
X141113700Y-78726572D01*
X141133385Y-78659533D01*
X141186189Y-78613778D01*
X141255347Y-78603834D01*
X141285150Y-78612010D01*
X141416291Y-78666330D01*
X141526687Y-78680864D01*
X141590581Y-78709129D01*
X141629053Y-78767453D01*
X141634500Y-78803802D01*
X141634500Y-79218493D01*
X141650279Y-79318121D01*
X141650280Y-79318124D01*
X141650281Y-79318126D01*
X141711472Y-79438220D01*
X141711473Y-79438221D01*
X141711476Y-79438225D01*
X141806774Y-79533523D01*
X141806778Y-79533526D01*
X141806780Y-79533528D01*
X141926874Y-79594719D01*
X141926876Y-79594719D01*
X141926878Y-79594720D01*
X142026507Y-79610500D01*
X142026512Y-79610500D01*
X142593493Y-79610500D01*
X142693121Y-79594720D01*
X142693121Y-79594719D01*
X142693126Y-79594719D01*
X142813220Y-79533528D01*
X142908528Y-79438220D01*
X142969719Y-79318126D01*
X142969720Y-79318121D01*
X142985500Y-79218493D01*
X142985500Y-78701506D01*
X142969720Y-78601878D01*
X142969719Y-78601876D01*
X142969719Y-78601874D01*
X142908528Y-78481780D01*
X142908526Y-78481778D01*
X142908523Y-78481774D01*
X142813225Y-78386476D01*
X142813221Y-78386473D01*
X142813220Y-78386472D01*
X142693126Y-78325281D01*
X142693124Y-78325280D01*
X142693121Y-78325279D01*
X142593493Y-78309500D01*
X142593488Y-78309500D01*
X142233013Y-78309500D01*
X142165974Y-78289815D01*
X142120219Y-78237011D01*
X142110074Y-78169314D01*
X142115250Y-78130000D01*
X142115250Y-78129999D01*
X142107655Y-78072314D01*
X142096330Y-77986291D01*
X142040861Y-77852375D01*
X141952621Y-77737379D01*
X141837625Y-77649139D01*
X141837624Y-77649138D01*
X141837622Y-77649137D01*
X141703712Y-77593671D01*
X141703710Y-77593670D01*
X141703709Y-77593670D01*
X141631854Y-77584210D01*
X141560001Y-77574750D01*
X141559999Y-77574750D01*
X141416291Y-77593670D01*
X141416287Y-77593671D01*
X141285152Y-77647988D01*
X141215682Y-77655457D01*
X141153203Y-77624181D01*
X141117551Y-77564092D01*
X141113700Y-77533427D01*
X141113700Y-77214961D01*
X141113701Y-77214952D01*
X141113701Y-77119482D01*
X141113700Y-77119478D01*
X141092129Y-77067403D01*
X141092128Y-77067400D01*
X141092128Y-77067401D01*
X141082689Y-77044614D01*
X141082689Y-77044613D01*
X141025387Y-76987311D01*
X141018322Y-76980246D01*
X141018315Y-76980240D01*
X140080130Y-76042055D01*
X140080128Y-76042052D01*
X140005384Y-75967308D01*
X139930849Y-75936436D01*
X139876445Y-75892596D01*
X139863741Y-75869329D01*
X139860861Y-75862375D01*
X139772621Y-75747379D01*
X139657625Y-75659139D01*
X139657624Y-75659138D01*
X139657622Y-75659137D01*
X139523712Y-75603671D01*
X139523710Y-75603670D01*
X139523709Y-75603670D01*
X139431126Y-75591481D01*
X139380001Y-75584750D01*
X139379999Y-75584750D01*
X139236291Y-75603670D01*
X139236287Y-75603671D01*
X139102377Y-75659137D01*
X138987379Y-75747379D01*
X138899137Y-75862377D01*
X138843671Y-75996287D01*
X138843670Y-75996292D01*
X138840639Y-76019314D01*
X138812372Y-76083211D01*
X138754047Y-76121681D01*
X138684183Y-76122512D01*
X138624959Y-76085439D01*
X138595181Y-76022233D01*
X138593700Y-76003128D01*
X138593700Y-75674335D01*
X138613385Y-75607296D01*
X138661152Y-75565905D01*
X138660586Y-75564925D01*
X138665673Y-75561987D01*
X138666189Y-75561541D01*
X138667238Y-75561084D01*
X138667620Y-75560863D01*
X138667619Y-75560863D01*
X138667625Y-75560861D01*
X138782621Y-75472621D01*
X138870861Y-75357625D01*
X138926330Y-75223709D01*
X138945250Y-75080000D01*
X138926330Y-74936291D01*
X138889350Y-74847013D01*
X138870862Y-74802377D01*
X138870861Y-74802376D01*
X138870861Y-74802375D01*
X138782621Y-74687379D01*
X138763564Y-74672756D01*
X138722363Y-74616328D01*
X138718209Y-74546582D01*
X138751370Y-74486703D01*
X139321257Y-73916819D01*
X139382580Y-73883334D01*
X139408938Y-73880500D01*
X140359750Y-73880500D01*
X140359751Y-73880499D01*
X140374568Y-73877552D01*
X140418229Y-73868868D01*
X140418229Y-73868867D01*
X140418231Y-73868867D01*
X140484552Y-73824552D01*
X140528867Y-73758231D01*
X140528867Y-73758229D01*
X140528868Y-73758229D01*
X140540499Y-73699752D01*
X140540500Y-73699750D01*
X140540500Y-71860249D01*
X140540499Y-71860247D01*
X140528868Y-71801770D01*
X140528867Y-71801769D01*
X140484552Y-71735447D01*
X140418230Y-71691132D01*
X140418229Y-71691131D01*
X140359752Y-71679500D01*
X140359748Y-71679500D01*
X140177936Y-71679500D01*
X140110897Y-71659815D01*
X140065142Y-71607011D01*
X140055198Y-71537853D01*
X140084223Y-71474297D01*
X140090255Y-71467819D01*
X140130314Y-71427760D01*
X141964500Y-71427760D01*
X141967274Y-71457349D01*
X142010884Y-71581976D01*
X142089288Y-71688210D01*
X142089289Y-71688211D01*
X142195523Y-71766615D01*
X142195524Y-71766615D01*
X142195525Y-71766616D01*
X142231205Y-71779101D01*
X142327274Y-71812718D01*
X142326358Y-71815333D01*
X142376232Y-71842605D01*
X142409682Y-71903948D01*
X142412500Y-71930235D01*
X142412500Y-73635253D01*
X142447136Y-73718870D01*
X143308677Y-74580410D01*
X143342162Y-74641733D01*
X143343935Y-74684277D01*
X143324750Y-74829999D01*
X143324750Y-74830000D01*
X143343670Y-74973708D01*
X143343671Y-74973712D01*
X143399137Y-75107622D01*
X143399138Y-75107624D01*
X143399139Y-75107625D01*
X143487379Y-75222621D01*
X143602375Y-75310861D01*
X143736291Y-75366330D01*
X143863280Y-75383048D01*
X143879999Y-75385250D01*
X143880000Y-75385250D01*
X143880001Y-75385250D01*
X143894977Y-75383278D01*
X144023709Y-75366330D01*
X144157625Y-75310861D01*
X144272621Y-75222621D01*
X144360861Y-75107625D01*
X144416330Y-74973709D01*
X144435250Y-74830000D01*
X144416330Y-74686291D01*
X144372473Y-74580410D01*
X144360862Y-74552377D01*
X144360861Y-74552376D01*
X144360861Y-74552375D01*
X144272621Y-74437379D01*
X144157625Y-74349139D01*
X144157624Y-74349138D01*
X144157622Y-74349137D01*
X144023712Y-74293671D01*
X144023710Y-74293670D01*
X144023709Y-74293670D01*
X143943955Y-74283170D01*
X143880001Y-74274750D01*
X143879999Y-74274750D01*
X143734277Y-74293935D01*
X143665241Y-74283170D01*
X143630410Y-74258677D01*
X142903819Y-73532085D01*
X142870334Y-73470762D01*
X142867500Y-73444404D01*
X142867500Y-71930235D01*
X142887185Y-71863196D01*
X142939989Y-71817441D01*
X142952876Y-71813147D01*
X142952726Y-71812718D01*
X143015788Y-71790651D01*
X143084475Y-71766616D01*
X143190711Y-71688211D01*
X143269116Y-71581975D01*
X143312725Y-71457349D01*
X143315500Y-71427756D01*
X143315500Y-70822244D01*
X143312725Y-70792651D01*
X143269116Y-70668025D01*
X143190711Y-70561789D01*
X143190710Y-70561788D01*
X143084476Y-70483384D01*
X142959848Y-70439774D01*
X142959849Y-70439774D01*
X142930260Y-70437000D01*
X142930256Y-70437000D01*
X142349744Y-70437000D01*
X142349740Y-70437000D01*
X142320150Y-70439774D01*
X142195523Y-70483384D01*
X142089289Y-70561788D01*
X142089288Y-70561789D01*
X142010884Y-70668023D01*
X141967274Y-70792650D01*
X141964500Y-70822239D01*
X141964500Y-71427760D01*
X140130314Y-71427760D01*
X140996286Y-70561788D01*
X141819916Y-69738158D01*
X141881237Y-69704675D01*
X141950929Y-69709659D01*
X142006862Y-69751531D01*
X142007365Y-69752207D01*
X142010884Y-69756975D01*
X142089288Y-69863210D01*
X142089290Y-69863212D01*
X142195523Y-69941615D01*
X142195524Y-69941615D01*
X142195525Y-69941616D01*
X142320151Y-69985225D01*
X142320150Y-69985225D01*
X142349740Y-69988000D01*
X142349744Y-69988000D01*
X142930260Y-69988000D01*
X142959849Y-69985225D01*
X143084475Y-69941616D01*
X143190711Y-69863211D01*
X143269116Y-69756975D01*
X143312725Y-69632349D01*
X143315500Y-69602756D01*
X143315500Y-68997244D01*
X143312725Y-68967651D01*
X143269116Y-68843025D01*
X143255482Y-68824552D01*
X143190711Y-68736789D01*
X143190710Y-68736788D01*
X143084476Y-68658384D01*
X142959848Y-68614774D01*
X142959849Y-68614774D01*
X142930260Y-68612000D01*
X142930256Y-68612000D01*
X142349744Y-68612000D01*
X142349740Y-68612000D01*
X142320150Y-68614774D01*
X142195523Y-68658384D01*
X142089289Y-68736788D01*
X142089288Y-68736789D01*
X142010884Y-68843023D01*
X141967274Y-68967650D01*
X141964500Y-68997239D01*
X141964500Y-68998939D01*
X141964405Y-68999262D01*
X141964364Y-69000140D01*
X141964150Y-69000130D01*
X141944815Y-69065978D01*
X141892011Y-69111733D01*
X141887954Y-69113500D01*
X141854613Y-69127310D01*
X139821944Y-71159981D01*
X139760621Y-71193466D01*
X139734263Y-71196300D01*
X138070518Y-71196300D01*
X137989481Y-71196300D01*
X137989479Y-71196300D01*
X137989477Y-71196301D01*
X137914615Y-71227308D01*
X137419955Y-71721968D01*
X137358632Y-71755453D01*
X137288940Y-71750469D01*
X137287481Y-71749914D01*
X137202460Y-71716977D01*
X137202457Y-71716976D01*
X137202456Y-71716976D01*
X137001976Y-71679500D01*
X136798024Y-71679500D01*
X136597544Y-71716976D01*
X136597541Y-71716976D01*
X136597541Y-71716977D01*
X136407364Y-71790651D01*
X136407357Y-71790655D01*
X136233960Y-71898017D01*
X136233958Y-71898019D01*
X136083237Y-72035418D01*
X135960327Y-72198178D01*
X135869422Y-72380739D01*
X135869417Y-72380752D01*
X135813602Y-72576917D01*
X135794785Y-72779999D01*
X135794785Y-72780000D01*
X135813602Y-72983082D01*
X135869417Y-73179247D01*
X135869422Y-73179260D01*
X135960327Y-73361821D01*
X136083237Y-73524581D01*
X136233958Y-73661980D01*
X136233960Y-73661982D01*
X136294955Y-73699748D01*
X136407363Y-73769348D01*
X136597544Y-73843024D01*
X136798024Y-73880500D01*
X136798026Y-73880500D01*
X137001974Y-73880500D01*
X137001976Y-73880500D01*
X137202456Y-73843024D01*
X137392637Y-73769348D01*
X137566041Y-73661981D01*
X137716764Y-73524579D01*
X137839673Y-73361821D01*
X137930582Y-73179250D01*
X137986397Y-72983083D01*
X138005215Y-72780000D01*
X137986397Y-72576917D01*
X137930582Y-72380750D01*
X137839673Y-72198179D01*
X137767114Y-72102095D01*
X137742422Y-72036733D01*
X137756987Y-71968399D01*
X137778382Y-71939691D01*
X138078058Y-71640017D01*
X138139380Y-71606534D01*
X138165738Y-71603700D01*
X138251491Y-71603700D01*
X138318530Y-71623385D01*
X138364285Y-71676189D01*
X138374229Y-71745347D01*
X138354592Y-71796593D01*
X138351131Y-71801771D01*
X138339500Y-71860247D01*
X138339500Y-73699752D01*
X138351131Y-73758229D01*
X138351132Y-73758230D01*
X138395447Y-73824552D01*
X138461769Y-73868867D01*
X138461770Y-73868868D01*
X138510562Y-73878573D01*
X138572473Y-73910957D01*
X138607047Y-73971673D01*
X138603308Y-74041442D01*
X138574052Y-74087871D01*
X138274614Y-74387310D01*
X138217310Y-74444613D01*
X138217308Y-74444615D01*
X138181626Y-74530764D01*
X138177540Y-74529071D01*
X138156166Y-74569877D01*
X138119343Y-74594945D01*
X138119417Y-74595073D01*
X138117702Y-74596062D01*
X138114446Y-74598280D01*
X138112380Y-74599135D01*
X138112378Y-74599136D01*
X137997379Y-74687379D01*
X137909137Y-74802377D01*
X137853671Y-74936287D01*
X137853670Y-74936291D01*
X137834750Y-75079999D01*
X137834750Y-75080000D01*
X137853670Y-75223708D01*
X137853671Y-75223712D01*
X137909137Y-75357622D01*
X137909138Y-75357624D01*
X137909139Y-75357625D01*
X137997379Y-75472621D01*
X138112375Y-75560861D01*
X138112378Y-75560862D01*
X138112379Y-75560863D01*
X138119414Y-75564925D01*
X138118374Y-75566725D01*
X138164146Y-75603600D01*
X138186220Y-75669891D01*
X138186300Y-75674335D01*
X138186300Y-77897646D01*
X138166615Y-77964685D01*
X138113811Y-78010440D01*
X138044653Y-78020384D01*
X137999181Y-78004380D01*
X137972693Y-77988715D01*
X137814995Y-77942900D01*
X137814989Y-77942899D01*
X137778149Y-77940000D01*
X137450000Y-77940000D01*
X137450000Y-78866000D01*
X137430315Y-78933039D01*
X137377511Y-78978794D01*
X137326000Y-78990000D01*
X136040205Y-78990000D01*
X136040204Y-78990001D01*
X136040399Y-78992486D01*
X136086218Y-79150198D01*
X136169814Y-79291552D01*
X136169821Y-79291561D01*
X136285939Y-79407679D01*
X136288997Y-79410051D01*
X136290780Y-79412520D01*
X136291460Y-79413200D01*
X136291350Y-79413309D01*
X136329906Y-79466692D01*
X136337000Y-79508033D01*
X136337000Y-79871967D01*
X136317315Y-79939006D01*
X136289004Y-79969944D01*
X136285945Y-79972316D01*
X136169818Y-80088442D01*
X136169814Y-80088447D01*
X136086217Y-80229803D01*
X136086214Y-80229809D01*
X136079642Y-80252431D01*
X136042034Y-80311316D01*
X135978561Y-80340520D01*
X135909375Y-80330773D01*
X135856442Y-80285167D01*
X135837209Y-80230431D01*
X135834856Y-80207393D01*
X135781547Y-80046518D01*
X135781542Y-80046507D01*
X135692575Y-79902271D01*
X135692572Y-79902267D01*
X135572732Y-79782427D01*
X135572728Y-79782424D01*
X135472159Y-79720392D01*
X135425434Y-79668444D01*
X135414213Y-79599482D01*
X135442056Y-79535400D01*
X135449565Y-79527182D01*
X135468528Y-79508220D01*
X135529719Y-79388126D01*
X135529720Y-79388121D01*
X135545500Y-79288491D01*
X135545500Y-78771506D01*
X135529720Y-78671878D01*
X135529719Y-78671876D01*
X135529719Y-78671874D01*
X135468528Y-78551780D01*
X135468526Y-78551778D01*
X135468523Y-78551774D01*
X135406747Y-78489998D01*
X136040204Y-78489998D01*
X136040205Y-78490000D01*
X136950000Y-78490000D01*
X136950000Y-77940000D01*
X136621850Y-77940000D01*
X136585010Y-77942899D01*
X136585004Y-77942900D01*
X136427306Y-77988716D01*
X136427303Y-77988717D01*
X136285947Y-78072314D01*
X136285938Y-78072321D01*
X136169821Y-78188438D01*
X136169814Y-78188447D01*
X136086218Y-78329801D01*
X136040399Y-78487513D01*
X136040204Y-78489998D01*
X135406747Y-78489998D01*
X135373225Y-78456476D01*
X135373221Y-78456473D01*
X135373220Y-78456472D01*
X135253126Y-78395281D01*
X135253124Y-78395280D01*
X135253121Y-78395279D01*
X135153493Y-78379500D01*
X135153488Y-78379500D01*
X134586512Y-78379500D01*
X134586507Y-78379500D01*
X134486876Y-78395280D01*
X134461655Y-78408130D01*
X134392986Y-78421025D01*
X134328246Y-78394747D01*
X134287990Y-78337639D01*
X134282424Y-78281460D01*
X134285250Y-78260000D01*
X134266330Y-78116291D01*
X134213488Y-77988717D01*
X134210862Y-77982377D01*
X134210861Y-77982376D01*
X134210861Y-77982375D01*
X134122621Y-77867379D01*
X134007625Y-77779139D01*
X134007624Y-77779138D01*
X134007622Y-77779137D01*
X133873712Y-77723671D01*
X133873710Y-77723670D01*
X133873709Y-77723670D01*
X133801854Y-77714210D01*
X133730001Y-77704750D01*
X133729999Y-77704750D01*
X133586291Y-77723670D01*
X133586287Y-77723671D01*
X133452377Y-77779137D01*
X133337379Y-77867379D01*
X133249137Y-77982377D01*
X133193671Y-78116287D01*
X133193670Y-78116291D01*
X133174751Y-78259996D01*
X133174750Y-78260000D01*
X132190500Y-78260000D01*
X132190500Y-67467308D01*
X132210185Y-67400269D01*
X132226819Y-67379627D01*
X132757426Y-66849020D01*
X132843249Y-66977463D01*
X132982537Y-67116751D01*
X133110978Y-67202573D01*
X132570830Y-67742720D01*
X132742546Y-67859793D01*
X132742550Y-67859795D01*
X132978854Y-67973594D01*
X132978858Y-67973595D01*
X133229494Y-68050907D01*
X133229500Y-68050909D01*
X133488848Y-68089999D01*
X133488857Y-68090000D01*
X133751143Y-68090000D01*
X133751151Y-68089999D01*
X133817491Y-68080000D01*
X135789364Y-68080000D01*
X135846567Y-68293486D01*
X135846570Y-68293492D01*
X135946399Y-68507578D01*
X136081894Y-68701082D01*
X136248917Y-68868105D01*
X136442421Y-69003600D01*
X136656507Y-69103429D01*
X136656516Y-69103433D01*
X136870000Y-69160634D01*
X136870000Y-68263012D01*
X136927007Y-68295925D01*
X137054174Y-68330000D01*
X137185826Y-68330000D01*
X137312993Y-68295925D01*
X137370000Y-68263012D01*
X137370000Y-69160633D01*
X137583483Y-69103433D01*
X137583492Y-69103429D01*
X137797578Y-69003600D01*
X137991082Y-68868105D01*
X138158105Y-68701082D01*
X138293599Y-68507578D01*
X138373118Y-68337051D01*
X138419290Y-68284612D01*
X138486484Y-68265460D01*
X138553365Y-68285676D01*
X138598699Y-68338841D01*
X138609500Y-68389456D01*
X138609500Y-68699752D01*
X138621131Y-68758229D01*
X138621132Y-68758230D01*
X138665447Y-68824552D01*
X138731769Y-68868867D01*
X138731770Y-68868868D01*
X138790247Y-68880499D01*
X138790250Y-68880500D01*
X138790252Y-68880500D01*
X140529750Y-68880500D01*
X140529751Y-68880499D01*
X140544568Y-68877552D01*
X140588229Y-68868868D01*
X140588229Y-68868867D01*
X140588231Y-68868867D01*
X140654552Y-68824552D01*
X140698867Y-68758231D01*
X140698867Y-68758229D01*
X140698868Y-68758229D01*
X140707552Y-68714568D01*
X140710500Y-68699748D01*
X140710500Y-66960252D01*
X140710500Y-66960249D01*
X140710499Y-66960247D01*
X140698868Y-66901770D01*
X140698867Y-66901769D01*
X140654552Y-66835447D01*
X140588230Y-66791132D01*
X140588229Y-66791131D01*
X140529752Y-66779500D01*
X140529748Y-66779500D01*
X138790252Y-66779500D01*
X138790247Y-66779500D01*
X138731770Y-66791131D01*
X138731769Y-66791132D01*
X138665447Y-66835447D01*
X138621132Y-66901769D01*
X138621131Y-66901770D01*
X138609500Y-66960247D01*
X138609500Y-67270543D01*
X138589815Y-67337582D01*
X138537011Y-67383337D01*
X138467853Y-67393281D01*
X138404297Y-67364256D01*
X138373118Y-67322948D01*
X138293600Y-67152422D01*
X138293599Y-67152420D01*
X138158113Y-66958926D01*
X138158108Y-66958920D01*
X137991082Y-66791894D01*
X137797578Y-66656399D01*
X137583492Y-66556570D01*
X137583486Y-66556567D01*
X137370000Y-66499364D01*
X137370000Y-67396988D01*
X137312993Y-67364075D01*
X137185826Y-67330000D01*
X137054174Y-67330000D01*
X136927007Y-67364075D01*
X136870000Y-67396988D01*
X136870000Y-66499364D01*
X136869999Y-66499364D01*
X136656513Y-66556567D01*
X136656507Y-66556570D01*
X136442422Y-66656399D01*
X136442420Y-66656400D01*
X136248926Y-66791886D01*
X136248920Y-66791891D01*
X136081891Y-66958920D01*
X136081886Y-66958926D01*
X135946400Y-67152420D01*
X135946399Y-67152422D01*
X135846570Y-67366507D01*
X135846567Y-67366513D01*
X135789364Y-67579999D01*
X135789364Y-67580000D01*
X136686988Y-67580000D01*
X136654075Y-67637007D01*
X136620000Y-67764174D01*
X136620000Y-67895826D01*
X136654075Y-68022993D01*
X136686988Y-68080000D01*
X135789364Y-68080000D01*
X133817491Y-68080000D01*
X134010499Y-68050909D01*
X134010505Y-68050907D01*
X134261143Y-67973595D01*
X134497445Y-67859798D01*
X134497447Y-67859797D01*
X134669168Y-67742720D01*
X134129020Y-67202573D01*
X134257463Y-67116751D01*
X134396751Y-66977463D01*
X134482573Y-66849020D01*
X135022125Y-67388572D01*
X135069971Y-67328573D01*
X135201116Y-67101426D01*
X135296941Y-66857270D01*
X135355306Y-66601550D01*
X135355307Y-66601545D01*
X135374907Y-66340004D01*
X135374907Y-66339995D01*
X135355307Y-66078454D01*
X135355306Y-66078449D01*
X135296941Y-65822729D01*
X135201116Y-65578573D01*
X135201117Y-65578573D01*
X135069972Y-65351426D01*
X135022124Y-65291427D01*
X134482573Y-65830978D01*
X134396751Y-65702537D01*
X134257463Y-65563249D01*
X134129020Y-65477426D01*
X134629628Y-64976819D01*
X134690951Y-64943334D01*
X134717309Y-64940500D01*
X142046838Y-64940500D01*
X142113877Y-64960185D01*
G37*
%TD.AperFunction*%
%TD*%
M02*
