G04 #@! TF.GenerationSoftware,KiCad,Pcbnew,8.0.1*
G04 #@! TF.CreationDate,2025-03-18T21:29:45-06:00*
G04 #@! TF.ProjectId,ColorSensing_Rev3,436f6c6f-7253-4656-9e73-696e675f5265,rev?*
G04 #@! TF.SameCoordinates,Original*
G04 #@! TF.FileFunction,Legend,Top*
G04 #@! TF.FilePolarity,Positive*
%FSLAX46Y46*%
G04 Gerber Fmt 4.6, Leading zero omitted, Abs format (unit mm)*
G04 Created by KiCad (PCBNEW 8.0.1) date 2025-03-18 21:29:45*
%MOMM*%
%LPD*%
G01*
G04 APERTURE LIST*
G04 Aperture macros list*
%AMRoundRect*
0 Rectangle with rounded corners*
0 $1 Rounding radius*
0 $2 $3 $4 $5 $6 $7 $8 $9 X,Y pos of 4 corners*
0 Add a 4 corners polygon primitive as box body*
4,1,4,$2,$3,$4,$5,$6,$7,$8,$9,$2,$3,0*
0 Add four circle primitives for the rounded corners*
1,1,$1+$1,$2,$3*
1,1,$1+$1,$4,$5*
1,1,$1+$1,$6,$7*
1,1,$1+$1,$8,$9*
0 Add four rect primitives between the rounded corners*
20,1,$1+$1,$2,$3,$4,$5,0*
20,1,$1+$1,$4,$5,$6,$7,0*
20,1,$1+$1,$6,$7,$8,$9,0*
20,1,$1+$1,$8,$9,$2,$3,0*%
G04 Aperture macros list end*
%ADD10C,0.150000*%
%ADD11C,0.100000*%
%ADD12C,0.120000*%
%ADD13C,0.152400*%
%ADD14RoundRect,0.237500X0.250000X0.237500X-0.250000X0.237500X-0.250000X-0.237500X0.250000X-0.237500X0*%
%ADD15C,2.500000*%
%ADD16RoundRect,0.237500X0.237500X-0.300000X0.237500X0.300000X-0.237500X0.300000X-0.237500X-0.300000X0*%
%ADD17C,1.524000*%
%ADD18R,0.508000X1.320800*%
%ADD19R,1.700000X1.700000*%
%ADD20O,1.700000X1.700000*%
%ADD21RoundRect,0.250000X-0.325000X-0.450000X0.325000X-0.450000X0.325000X0.450000X-0.325000X0.450000X0*%
%ADD22R,1.700000X0.650000*%
G04 APERTURE END LIST*
D10*
X133136667Y-80932295D02*
X132870000Y-80551342D01*
X132679524Y-80932295D02*
X132679524Y-80132295D01*
X132679524Y-80132295D02*
X132984286Y-80132295D01*
X132984286Y-80132295D02*
X133060476Y-80170390D01*
X133060476Y-80170390D02*
X133098571Y-80208485D01*
X133098571Y-80208485D02*
X133136667Y-80284676D01*
X133136667Y-80284676D02*
X133136667Y-80398961D01*
X133136667Y-80398961D02*
X133098571Y-80475152D01*
X133098571Y-80475152D02*
X133060476Y-80513247D01*
X133060476Y-80513247D02*
X132984286Y-80551342D01*
X132984286Y-80551342D02*
X132679524Y-80551342D01*
X133441428Y-80208485D02*
X133479524Y-80170390D01*
X133479524Y-80170390D02*
X133555714Y-80132295D01*
X133555714Y-80132295D02*
X133746190Y-80132295D01*
X133746190Y-80132295D02*
X133822381Y-80170390D01*
X133822381Y-80170390D02*
X133860476Y-80208485D01*
X133860476Y-80208485D02*
X133898571Y-80284676D01*
X133898571Y-80284676D02*
X133898571Y-80360866D01*
X133898571Y-80360866D02*
X133860476Y-80475152D01*
X133860476Y-80475152D02*
X133403333Y-80932295D01*
X133403333Y-80932295D02*
X133898571Y-80932295D01*
X136370476Y-94932295D02*
X136370476Y-94132295D01*
X136370476Y-94513247D02*
X136827619Y-94513247D01*
X136827619Y-94932295D02*
X136827619Y-94132295D01*
X137551428Y-94398961D02*
X137551428Y-94932295D01*
X137360952Y-94094200D02*
X137170475Y-94665628D01*
X137170475Y-94665628D02*
X137665714Y-94665628D01*
X133206667Y-85552295D02*
X132940000Y-85171342D01*
X132749524Y-85552295D02*
X132749524Y-84752295D01*
X132749524Y-84752295D02*
X133054286Y-84752295D01*
X133054286Y-84752295D02*
X133130476Y-84790390D01*
X133130476Y-84790390D02*
X133168571Y-84828485D01*
X133168571Y-84828485D02*
X133206667Y-84904676D01*
X133206667Y-84904676D02*
X133206667Y-85018961D01*
X133206667Y-85018961D02*
X133168571Y-85095152D01*
X133168571Y-85095152D02*
X133130476Y-85133247D01*
X133130476Y-85133247D02*
X133054286Y-85171342D01*
X133054286Y-85171342D02*
X132749524Y-85171342D01*
X133930476Y-84752295D02*
X133549524Y-84752295D01*
X133549524Y-84752295D02*
X133511428Y-85133247D01*
X133511428Y-85133247D02*
X133549524Y-85095152D01*
X133549524Y-85095152D02*
X133625714Y-85057057D01*
X133625714Y-85057057D02*
X133816190Y-85057057D01*
X133816190Y-85057057D02*
X133892381Y-85095152D01*
X133892381Y-85095152D02*
X133930476Y-85133247D01*
X133930476Y-85133247D02*
X133968571Y-85209438D01*
X133968571Y-85209438D02*
X133968571Y-85399914D01*
X133968571Y-85399914D02*
X133930476Y-85476104D01*
X133930476Y-85476104D02*
X133892381Y-85514200D01*
X133892381Y-85514200D02*
X133816190Y-85552295D01*
X133816190Y-85552295D02*
X133625714Y-85552295D01*
X133625714Y-85552295D02*
X133549524Y-85514200D01*
X133549524Y-85514200D02*
X133511428Y-85476104D01*
X133946667Y-93842295D02*
X133680000Y-93461342D01*
X133489524Y-93842295D02*
X133489524Y-93042295D01*
X133489524Y-93042295D02*
X133794286Y-93042295D01*
X133794286Y-93042295D02*
X133870476Y-93080390D01*
X133870476Y-93080390D02*
X133908571Y-93118485D01*
X133908571Y-93118485D02*
X133946667Y-93194676D01*
X133946667Y-93194676D02*
X133946667Y-93308961D01*
X133946667Y-93308961D02*
X133908571Y-93385152D01*
X133908571Y-93385152D02*
X133870476Y-93423247D01*
X133870476Y-93423247D02*
X133794286Y-93461342D01*
X133794286Y-93461342D02*
X133489524Y-93461342D01*
X134708571Y-93842295D02*
X134251428Y-93842295D01*
X134480000Y-93842295D02*
X134480000Y-93042295D01*
X134480000Y-93042295D02*
X134403809Y-93156580D01*
X134403809Y-93156580D02*
X134327619Y-93232771D01*
X134327619Y-93232771D02*
X134251428Y-93270866D01*
D11*
X113208095Y-73867419D02*
X113208095Y-74676942D01*
X113208095Y-74676942D02*
X113255714Y-74772180D01*
X113255714Y-74772180D02*
X113303333Y-74819800D01*
X113303333Y-74819800D02*
X113398571Y-74867419D01*
X113398571Y-74867419D02*
X113589047Y-74867419D01*
X113589047Y-74867419D02*
X113684285Y-74819800D01*
X113684285Y-74819800D02*
X113731904Y-74772180D01*
X113731904Y-74772180D02*
X113779523Y-74676942D01*
X113779523Y-74676942D02*
X113779523Y-73867419D01*
X114779523Y-74867419D02*
X114208095Y-74867419D01*
X114493809Y-74867419D02*
X114493809Y-73867419D01*
X114493809Y-73867419D02*
X114398571Y-74010276D01*
X114398571Y-74010276D02*
X114303333Y-74105514D01*
X114303333Y-74105514D02*
X114208095Y-74153133D01*
D10*
X125512295Y-78019523D02*
X126159914Y-78019523D01*
X126159914Y-78019523D02*
X126236104Y-77981428D01*
X126236104Y-77981428D02*
X126274200Y-77943333D01*
X126274200Y-77943333D02*
X126312295Y-77867142D01*
X126312295Y-77867142D02*
X126312295Y-77714761D01*
X126312295Y-77714761D02*
X126274200Y-77638571D01*
X126274200Y-77638571D02*
X126236104Y-77600476D01*
X126236104Y-77600476D02*
X126159914Y-77562380D01*
X126159914Y-77562380D02*
X125512295Y-77562380D01*
X125512295Y-77257619D02*
X125512295Y-76762381D01*
X125512295Y-76762381D02*
X125817057Y-77029047D01*
X125817057Y-77029047D02*
X125817057Y-76914762D01*
X125817057Y-76914762D02*
X125855152Y-76838571D01*
X125855152Y-76838571D02*
X125893247Y-76800476D01*
X125893247Y-76800476D02*
X125969438Y-76762381D01*
X125969438Y-76762381D02*
X126159914Y-76762381D01*
X126159914Y-76762381D02*
X126236104Y-76800476D01*
X126236104Y-76800476D02*
X126274200Y-76838571D01*
X126274200Y-76838571D02*
X126312295Y-76914762D01*
X126312295Y-76914762D02*
X126312295Y-77143333D01*
X126312295Y-77143333D02*
X126274200Y-77219524D01*
X126274200Y-77219524D02*
X126236104Y-77257619D01*
X120456666Y-71064819D02*
X120456666Y-71779104D01*
X120456666Y-71779104D02*
X120409047Y-71921961D01*
X120409047Y-71921961D02*
X120313809Y-72017200D01*
X120313809Y-72017200D02*
X120170952Y-72064819D01*
X120170952Y-72064819D02*
X120075714Y-72064819D01*
X120885238Y-71160057D02*
X120932857Y-71112438D01*
X120932857Y-71112438D02*
X121028095Y-71064819D01*
X121028095Y-71064819D02*
X121266190Y-71064819D01*
X121266190Y-71064819D02*
X121361428Y-71112438D01*
X121361428Y-71112438D02*
X121409047Y-71160057D01*
X121409047Y-71160057D02*
X121456666Y-71255295D01*
X121456666Y-71255295D02*
X121456666Y-71350533D01*
X121456666Y-71350533D02*
X121409047Y-71493390D01*
X121409047Y-71493390D02*
X120837619Y-72064819D01*
X120837619Y-72064819D02*
X121456666Y-72064819D01*
X122236667Y-78706104D02*
X122198571Y-78744200D01*
X122198571Y-78744200D02*
X122084286Y-78782295D01*
X122084286Y-78782295D02*
X122008095Y-78782295D01*
X122008095Y-78782295D02*
X121893809Y-78744200D01*
X121893809Y-78744200D02*
X121817619Y-78668009D01*
X121817619Y-78668009D02*
X121779524Y-78591819D01*
X121779524Y-78591819D02*
X121741428Y-78439438D01*
X121741428Y-78439438D02*
X121741428Y-78325152D01*
X121741428Y-78325152D02*
X121779524Y-78172771D01*
X121779524Y-78172771D02*
X121817619Y-78096580D01*
X121817619Y-78096580D02*
X121893809Y-78020390D01*
X121893809Y-78020390D02*
X122008095Y-77982295D01*
X122008095Y-77982295D02*
X122084286Y-77982295D01*
X122084286Y-77982295D02*
X122198571Y-78020390D01*
X122198571Y-78020390D02*
X122236667Y-78058485D01*
X122998571Y-78782295D02*
X122541428Y-78782295D01*
X122770000Y-78782295D02*
X122770000Y-77982295D01*
X122770000Y-77982295D02*
X122693809Y-78096580D01*
X122693809Y-78096580D02*
X122617619Y-78172771D01*
X122617619Y-78172771D02*
X122541428Y-78210866D01*
X129176667Y-78046104D02*
X129138571Y-78084200D01*
X129138571Y-78084200D02*
X129024286Y-78122295D01*
X129024286Y-78122295D02*
X128948095Y-78122295D01*
X128948095Y-78122295D02*
X128833809Y-78084200D01*
X128833809Y-78084200D02*
X128757619Y-78008009D01*
X128757619Y-78008009D02*
X128719524Y-77931819D01*
X128719524Y-77931819D02*
X128681428Y-77779438D01*
X128681428Y-77779438D02*
X128681428Y-77665152D01*
X128681428Y-77665152D02*
X128719524Y-77512771D01*
X128719524Y-77512771D02*
X128757619Y-77436580D01*
X128757619Y-77436580D02*
X128833809Y-77360390D01*
X128833809Y-77360390D02*
X128948095Y-77322295D01*
X128948095Y-77322295D02*
X129024286Y-77322295D01*
X129024286Y-77322295D02*
X129138571Y-77360390D01*
X129138571Y-77360390D02*
X129176667Y-77398485D01*
X129481428Y-77398485D02*
X129519524Y-77360390D01*
X129519524Y-77360390D02*
X129595714Y-77322295D01*
X129595714Y-77322295D02*
X129786190Y-77322295D01*
X129786190Y-77322295D02*
X129862381Y-77360390D01*
X129862381Y-77360390D02*
X129900476Y-77398485D01*
X129900476Y-77398485D02*
X129938571Y-77474676D01*
X129938571Y-77474676D02*
X129938571Y-77550866D01*
X129938571Y-77550866D02*
X129900476Y-77665152D01*
X129900476Y-77665152D02*
X129443333Y-78122295D01*
X129443333Y-78122295D02*
X129938571Y-78122295D01*
X133086667Y-79002295D02*
X132820000Y-78621342D01*
X132629524Y-79002295D02*
X132629524Y-78202295D01*
X132629524Y-78202295D02*
X132934286Y-78202295D01*
X132934286Y-78202295D02*
X133010476Y-78240390D01*
X133010476Y-78240390D02*
X133048571Y-78278485D01*
X133048571Y-78278485D02*
X133086667Y-78354676D01*
X133086667Y-78354676D02*
X133086667Y-78468961D01*
X133086667Y-78468961D02*
X133048571Y-78545152D01*
X133048571Y-78545152D02*
X133010476Y-78583247D01*
X133010476Y-78583247D02*
X132934286Y-78621342D01*
X132934286Y-78621342D02*
X132629524Y-78621342D01*
X133353333Y-78202295D02*
X133848571Y-78202295D01*
X133848571Y-78202295D02*
X133581905Y-78507057D01*
X133581905Y-78507057D02*
X133696190Y-78507057D01*
X133696190Y-78507057D02*
X133772381Y-78545152D01*
X133772381Y-78545152D02*
X133810476Y-78583247D01*
X133810476Y-78583247D02*
X133848571Y-78659438D01*
X133848571Y-78659438D02*
X133848571Y-78849914D01*
X133848571Y-78849914D02*
X133810476Y-78926104D01*
X133810476Y-78926104D02*
X133772381Y-78964200D01*
X133772381Y-78964200D02*
X133696190Y-79002295D01*
X133696190Y-79002295D02*
X133467619Y-79002295D01*
X133467619Y-79002295D02*
X133391428Y-78964200D01*
X133391428Y-78964200D02*
X133353333Y-78926104D01*
X133396666Y-70924819D02*
X133396666Y-71639104D01*
X133396666Y-71639104D02*
X133349047Y-71781961D01*
X133349047Y-71781961D02*
X133253809Y-71877200D01*
X133253809Y-71877200D02*
X133110952Y-71924819D01*
X133110952Y-71924819D02*
X133015714Y-71924819D01*
X133777619Y-70924819D02*
X134396666Y-70924819D01*
X134396666Y-70924819D02*
X134063333Y-71305771D01*
X134063333Y-71305771D02*
X134206190Y-71305771D01*
X134206190Y-71305771D02*
X134301428Y-71353390D01*
X134301428Y-71353390D02*
X134349047Y-71401009D01*
X134349047Y-71401009D02*
X134396666Y-71496247D01*
X134396666Y-71496247D02*
X134396666Y-71734342D01*
X134396666Y-71734342D02*
X134349047Y-71829580D01*
X134349047Y-71829580D02*
X134301428Y-71877200D01*
X134301428Y-71877200D02*
X134206190Y-71924819D01*
X134206190Y-71924819D02*
X133920476Y-71924819D01*
X133920476Y-71924819D02*
X133825238Y-71877200D01*
X133825238Y-71877200D02*
X133777619Y-71829580D01*
X115970476Y-69222295D02*
X115970476Y-68422295D01*
X115970476Y-68803247D02*
X116427619Y-68803247D01*
X116427619Y-69222295D02*
X116427619Y-68422295D01*
X117227618Y-69222295D02*
X116770475Y-69222295D01*
X116999047Y-69222295D02*
X116999047Y-68422295D01*
X116999047Y-68422295D02*
X116922856Y-68536580D01*
X116922856Y-68536580D02*
X116846666Y-68612771D01*
X116846666Y-68612771D02*
X116770475Y-68650866D01*
X123229524Y-93862295D02*
X123229524Y-93062295D01*
X123229524Y-93062295D02*
X123420000Y-93062295D01*
X123420000Y-93062295D02*
X123534286Y-93100390D01*
X123534286Y-93100390D02*
X123610476Y-93176580D01*
X123610476Y-93176580D02*
X123648571Y-93252771D01*
X123648571Y-93252771D02*
X123686667Y-93405152D01*
X123686667Y-93405152D02*
X123686667Y-93519438D01*
X123686667Y-93519438D02*
X123648571Y-93671819D01*
X123648571Y-93671819D02*
X123610476Y-93748009D01*
X123610476Y-93748009D02*
X123534286Y-93824200D01*
X123534286Y-93824200D02*
X123420000Y-93862295D01*
X123420000Y-93862295D02*
X123229524Y-93862295D01*
X124410476Y-93062295D02*
X124029524Y-93062295D01*
X124029524Y-93062295D02*
X123991428Y-93443247D01*
X123991428Y-93443247D02*
X124029524Y-93405152D01*
X124029524Y-93405152D02*
X124105714Y-93367057D01*
X124105714Y-93367057D02*
X124296190Y-93367057D01*
X124296190Y-93367057D02*
X124372381Y-93405152D01*
X124372381Y-93405152D02*
X124410476Y-93443247D01*
X124410476Y-93443247D02*
X124448571Y-93519438D01*
X124448571Y-93519438D02*
X124448571Y-93709914D01*
X124448571Y-93709914D02*
X124410476Y-93786104D01*
X124410476Y-93786104D02*
X124372381Y-93824200D01*
X124372381Y-93824200D02*
X124296190Y-93862295D01*
X124296190Y-93862295D02*
X124105714Y-93862295D01*
X124105714Y-93862295D02*
X124029524Y-93824200D01*
X124029524Y-93824200D02*
X123991428Y-93786104D01*
X116100476Y-94992295D02*
X116100476Y-94192295D01*
X116100476Y-94573247D02*
X116557619Y-94573247D01*
X116557619Y-94992295D02*
X116557619Y-94192295D01*
X116862380Y-94192295D02*
X117357618Y-94192295D01*
X117357618Y-94192295D02*
X117090952Y-94497057D01*
X117090952Y-94497057D02*
X117205237Y-94497057D01*
X117205237Y-94497057D02*
X117281428Y-94535152D01*
X117281428Y-94535152D02*
X117319523Y-94573247D01*
X117319523Y-94573247D02*
X117357618Y-94649438D01*
X117357618Y-94649438D02*
X117357618Y-94839914D01*
X117357618Y-94839914D02*
X117319523Y-94916104D01*
X117319523Y-94916104D02*
X117281428Y-94954200D01*
X117281428Y-94954200D02*
X117205237Y-94992295D01*
X117205237Y-94992295D02*
X116976666Y-94992295D01*
X116976666Y-94992295D02*
X116900475Y-94954200D01*
X116900475Y-94954200D02*
X116862380Y-94916104D01*
X133206667Y-83412295D02*
X132940000Y-83031342D01*
X132749524Y-83412295D02*
X132749524Y-82612295D01*
X132749524Y-82612295D02*
X133054286Y-82612295D01*
X133054286Y-82612295D02*
X133130476Y-82650390D01*
X133130476Y-82650390D02*
X133168571Y-82688485D01*
X133168571Y-82688485D02*
X133206667Y-82764676D01*
X133206667Y-82764676D02*
X133206667Y-82878961D01*
X133206667Y-82878961D02*
X133168571Y-82955152D01*
X133168571Y-82955152D02*
X133130476Y-82993247D01*
X133130476Y-82993247D02*
X133054286Y-83031342D01*
X133054286Y-83031342D02*
X132749524Y-83031342D01*
X133892381Y-82878961D02*
X133892381Y-83412295D01*
X133701905Y-82574200D02*
X133511428Y-83145628D01*
X133511428Y-83145628D02*
X134006667Y-83145628D01*
X135670476Y-69402295D02*
X135670476Y-68602295D01*
X135670476Y-68983247D02*
X136127619Y-68983247D01*
X136127619Y-69402295D02*
X136127619Y-68602295D01*
X136470475Y-68678485D02*
X136508571Y-68640390D01*
X136508571Y-68640390D02*
X136584761Y-68602295D01*
X136584761Y-68602295D02*
X136775237Y-68602295D01*
X136775237Y-68602295D02*
X136851428Y-68640390D01*
X136851428Y-68640390D02*
X136889523Y-68678485D01*
X136889523Y-68678485D02*
X136927618Y-68754676D01*
X136927618Y-68754676D02*
X136927618Y-68830866D01*
X136927618Y-68830866D02*
X136889523Y-68945152D01*
X136889523Y-68945152D02*
X136432380Y-69402295D01*
X136432380Y-69402295D02*
X136927618Y-69402295D01*
X122410476Y-86922295D02*
X122410476Y-87569914D01*
X122410476Y-87569914D02*
X122448571Y-87646104D01*
X122448571Y-87646104D02*
X122486666Y-87684200D01*
X122486666Y-87684200D02*
X122562857Y-87722295D01*
X122562857Y-87722295D02*
X122715238Y-87722295D01*
X122715238Y-87722295D02*
X122791428Y-87684200D01*
X122791428Y-87684200D02*
X122829523Y-87646104D01*
X122829523Y-87646104D02*
X122867619Y-87569914D01*
X122867619Y-87569914D02*
X122867619Y-86922295D01*
X123210475Y-86998485D02*
X123248571Y-86960390D01*
X123248571Y-86960390D02*
X123324761Y-86922295D01*
X123324761Y-86922295D02*
X123515237Y-86922295D01*
X123515237Y-86922295D02*
X123591428Y-86960390D01*
X123591428Y-86960390D02*
X123629523Y-86998485D01*
X123629523Y-86998485D02*
X123667618Y-87074676D01*
X123667618Y-87074676D02*
X123667618Y-87150866D01*
X123667618Y-87150866D02*
X123629523Y-87265152D01*
X123629523Y-87265152D02*
X123172380Y-87722295D01*
X123172380Y-87722295D02*
X123667618Y-87722295D01*
D12*
X136017224Y-80057500D02*
X135507776Y-80057500D01*
X136017224Y-81102500D02*
X135507776Y-81102500D01*
X128840000Y-84583767D02*
X128840000Y-84291233D01*
X129860000Y-84583767D02*
X129860000Y-84291233D01*
X136132224Y-84687500D02*
X135622776Y-84687500D01*
X136132224Y-85732500D02*
X135622776Y-85732500D01*
X131632224Y-92927500D02*
X131122776Y-92927500D01*
X131632224Y-93972500D02*
X131122776Y-93972500D01*
D11*
X112315850Y-67445000D02*
X141315850Y-67445000D01*
X141315850Y-96445000D01*
X112315850Y-96445000D01*
X112315850Y-67445000D01*
D13*
X124189449Y-79620900D02*
X124189449Y-81678300D01*
X125502588Y-81678300D02*
X126229110Y-81678300D01*
X127542249Y-81678300D02*
X127542249Y-79620900D01*
D12*
X116720000Y-72910000D02*
X116720000Y-75570000D01*
X124400000Y-72910000D02*
X116720000Y-72910000D01*
X124400000Y-72910000D02*
X124400000Y-75570000D01*
X124400000Y-75570000D02*
X116720000Y-75570000D01*
X125670000Y-72910000D02*
X127000000Y-72910000D01*
X127000000Y-72910000D02*
X127000000Y-74240000D01*
X121870000Y-80903767D02*
X121870000Y-80611233D01*
X122890000Y-80903767D02*
X122890000Y-80611233D01*
X128800000Y-80518767D02*
X128800000Y-80226233D01*
X129820000Y-80518767D02*
X129820000Y-80226233D01*
X136047224Y-78227500D02*
X135537776Y-78227500D01*
X136047224Y-79272500D02*
X135537776Y-79272500D01*
X128930000Y-75540000D02*
X128930000Y-74210000D01*
X130260000Y-75540000D02*
X128930000Y-75540000D01*
X131530000Y-72880000D02*
X139210000Y-72880000D01*
X131530000Y-75540000D02*
X131530000Y-72880000D01*
X131530000Y-75540000D02*
X139210000Y-75540000D01*
X139210000Y-75540000D02*
X139210000Y-72880000D01*
X125065000Y-92470000D02*
X125065000Y-94390000D01*
X125065000Y-94390000D02*
X127925000Y-94390000D01*
X127925000Y-92470000D02*
X125065000Y-92470000D01*
X136112224Y-82517500D02*
X135602776Y-82517500D01*
X136112224Y-83562500D02*
X135602776Y-83562500D01*
D10*
X120210000Y-84430000D02*
X120210000Y-84635000D01*
X120210000Y-84430000D02*
X125710000Y-84430000D01*
X120210000Y-89940000D02*
X120210000Y-89735000D01*
X120210000Y-89940000D02*
X125710000Y-89940000D01*
X125710000Y-84430000D02*
X125710000Y-84635000D01*
X125710000Y-89940000D02*
X125710000Y-89735000D01*
D12*
X119660000Y-84685000D02*
X119420000Y-84355000D01*
X119900000Y-84355000D01*
X119660000Y-84685000D01*
G36*
X119660000Y-84685000D02*
G01*
X119420000Y-84355000D01*
X119900000Y-84355000D01*
X119660000Y-84685000D01*
G37*
%LPC*%
D14*
X136675000Y-80580000D03*
X134850000Y-80580000D03*
D15*
X139320000Y-94360000D03*
D16*
X129350000Y-85300000D03*
X129350000Y-83575000D03*
D14*
X136790000Y-85210000D03*
X134965000Y-85210000D03*
X132290000Y-93450000D03*
X130465000Y-93450000D03*
D17*
X114115850Y-76865000D03*
X114115850Y-79405000D03*
X114115850Y-81945000D03*
X114115850Y-84485000D03*
X114115850Y-87025000D03*
X139515850Y-87025000D03*
X139515850Y-84485000D03*
X139515850Y-81945000D03*
X139515850Y-79405000D03*
X139515850Y-76865000D03*
D18*
X126815850Y-79354200D03*
X125865849Y-79354200D03*
X124915848Y-79354200D03*
X124915848Y-81945000D03*
X126815850Y-81945000D03*
D19*
X125670000Y-74240000D03*
D20*
X123130000Y-74240000D03*
X120590000Y-74240000D03*
X118050000Y-74240000D03*
D16*
X122380000Y-81620000D03*
X122380000Y-79895000D03*
X129310000Y-81235000D03*
X129310000Y-79510000D03*
D14*
X136705000Y-78750000D03*
X134880000Y-78750000D03*
D19*
X130260000Y-74210000D03*
D20*
X132800000Y-74210000D03*
X135340000Y-74210000D03*
X137880000Y-74210000D03*
D15*
X114300000Y-69600000D03*
D21*
X125900000Y-93430000D03*
X127950000Y-93430000D03*
D15*
X114480000Y-94420000D03*
D14*
X136770000Y-83040000D03*
X134945000Y-83040000D03*
D15*
X138850000Y-69550000D03*
D22*
X119310000Y-85280000D03*
X119310000Y-86550000D03*
X119310000Y-87820000D03*
X119310000Y-89090000D03*
X126610000Y-89090000D03*
X126610000Y-87820000D03*
X126610000Y-86550000D03*
X126610000Y-85280000D03*
D19*
X128300000Y-69720000D03*
D20*
X125760000Y-69720000D03*
%LPD*%
M02*
