G04 #@! TF.GenerationSoftware,KiCad,Pcbnew,8.0.1*
G04 #@! TF.CreationDate,2025-03-18T21:29:45-06:00*
G04 #@! TF.ProjectId,ColorSensing_Rev3,436f6c6f-7253-4656-9e73-696e675f5265,rev?*
G04 #@! TF.SameCoordinates,Original*
G04 #@! TF.FileFunction,Soldermask,Top*
G04 #@! TF.FilePolarity,Negative*
%FSLAX46Y46*%
G04 Gerber Fmt 4.6, Leading zero omitted, Abs format (unit mm)*
G04 Created by KiCad (PCBNEW 8.0.1) date 2025-03-18 21:29:45*
%MOMM*%
%LPD*%
G01*
G04 APERTURE LIST*
G04 Aperture macros list*
%AMRoundRect*
0 Rectangle with rounded corners*
0 $1 Rounding radius*
0 $2 $3 $4 $5 $6 $7 $8 $9 X,Y pos of 4 corners*
0 Add a 4 corners polygon primitive as box body*
4,1,4,$2,$3,$4,$5,$6,$7,$8,$9,$2,$3,0*
0 Add four circle primitives for the rounded corners*
1,1,$1+$1,$2,$3*
1,1,$1+$1,$4,$5*
1,1,$1+$1,$6,$7*
1,1,$1+$1,$8,$9*
0 Add four rect primitives between the rounded corners*
20,1,$1+$1,$2,$3,$4,$5,0*
20,1,$1+$1,$4,$5,$6,$7,0*
20,1,$1+$1,$6,$7,$8,$9,0*
20,1,$1+$1,$8,$9,$2,$3,0*%
G04 Aperture macros list end*
%ADD10RoundRect,0.237500X0.250000X0.237500X-0.250000X0.237500X-0.250000X-0.237500X0.250000X-0.237500X0*%
%ADD11C,2.500000*%
%ADD12RoundRect,0.237500X0.237500X-0.300000X0.237500X0.300000X-0.237500X0.300000X-0.237500X-0.300000X0*%
%ADD13C,1.524000*%
%ADD14R,0.508000X1.320800*%
%ADD15R,1.700000X1.700000*%
%ADD16O,1.700000X1.700000*%
%ADD17RoundRect,0.250000X-0.325000X-0.450000X0.325000X-0.450000X0.325000X0.450000X-0.325000X0.450000X0*%
%ADD18R,1.700000X0.650000*%
G04 APERTURE END LIST*
D10*
X136675000Y-80580000D03*
X134850000Y-80580000D03*
D11*
X139320000Y-94360000D03*
D12*
X129350000Y-85300000D03*
X129350000Y-83575000D03*
D10*
X136790000Y-85210000D03*
X134965000Y-85210000D03*
X132290000Y-93450000D03*
X130465000Y-93450000D03*
D13*
X114115850Y-76865000D03*
X114115850Y-79405000D03*
X114115850Y-81945000D03*
X114115850Y-84485000D03*
X114115850Y-87025000D03*
X139515850Y-87025000D03*
X139515850Y-84485000D03*
X139515850Y-81945000D03*
X139515850Y-79405000D03*
X139515850Y-76865000D03*
D14*
X126815850Y-79354200D03*
X125865849Y-79354200D03*
X124915848Y-79354200D03*
X124915848Y-81945000D03*
X126815850Y-81945000D03*
D15*
X125670000Y-74240000D03*
D16*
X123130000Y-74240000D03*
X120590000Y-74240000D03*
X118050000Y-74240000D03*
D12*
X122380000Y-81620000D03*
X122380000Y-79895000D03*
X129310000Y-81235000D03*
X129310000Y-79510000D03*
D10*
X136705000Y-78750000D03*
X134880000Y-78750000D03*
D15*
X130260000Y-74210000D03*
D16*
X132800000Y-74210000D03*
X135340000Y-74210000D03*
X137880000Y-74210000D03*
D11*
X114300000Y-69600000D03*
D17*
X125900000Y-93430000D03*
X127950000Y-93430000D03*
D11*
X114480000Y-94420000D03*
D10*
X136770000Y-83040000D03*
X134945000Y-83040000D03*
D11*
X138850000Y-69550000D03*
D18*
X119310000Y-85280000D03*
X119310000Y-86550000D03*
X119310000Y-87820000D03*
X119310000Y-89090000D03*
X126610000Y-89090000D03*
X126610000Y-87820000D03*
X126610000Y-86550000D03*
X126610000Y-85280000D03*
D15*
X128300000Y-69720000D03*
D16*
X125760000Y-69720000D03*
M02*
