G04 #@! TF.GenerationSoftware,KiCad,Pcbnew,8.0.1*
G04 #@! TF.CreationDate,2025-03-18T21:29:45-06:00*
G04 #@! TF.ProjectId,ColorSensing_Rev3,436f6c6f-7253-4656-9e73-696e675f5265,rev?*
G04 #@! TF.SameCoordinates,Original*
G04 #@! TF.FileFunction,Copper,L1,Top*
G04 #@! TF.FilePolarity,Positive*
%FSLAX46Y46*%
G04 Gerber Fmt 4.6, Leading zero omitted, Abs format (unit mm)*
G04 Created by KiCad (PCBNEW 8.0.1) date 2025-03-18 21:29:45*
%MOMM*%
%LPD*%
G01*
G04 APERTURE LIST*
G04 Aperture macros list*
%AMRoundRect*
0 Rectangle with rounded corners*
0 $1 Rounding radius*
0 $2 $3 $4 $5 $6 $7 $8 $9 X,Y pos of 4 corners*
0 Add a 4 corners polygon primitive as box body*
4,1,4,$2,$3,$4,$5,$6,$7,$8,$9,$2,$3,0*
0 Add four circle primitives for the rounded corners*
1,1,$1+$1,$2,$3*
1,1,$1+$1,$4,$5*
1,1,$1+$1,$6,$7*
1,1,$1+$1,$8,$9*
0 Add four rect primitives between the rounded corners*
20,1,$1+$1,$2,$3,$4,$5,0*
20,1,$1+$1,$4,$5,$6,$7,0*
20,1,$1+$1,$6,$7,$8,$9,0*
20,1,$1+$1,$8,$9,$2,$3,0*%
G04 Aperture macros list end*
G04 #@! TA.AperFunction,SMDPad,CuDef*
%ADD10RoundRect,0.237500X0.250000X0.237500X-0.250000X0.237500X-0.250000X-0.237500X0.250000X-0.237500X0*%
G04 #@! TD*
G04 #@! TA.AperFunction,ComponentPad*
%ADD11C,2.500000*%
G04 #@! TD*
G04 #@! TA.AperFunction,SMDPad,CuDef*
%ADD12RoundRect,0.237500X0.237500X-0.300000X0.237500X0.300000X-0.237500X0.300000X-0.237500X-0.300000X0*%
G04 #@! TD*
G04 #@! TA.AperFunction,ComponentPad*
%ADD13C,1.524000*%
G04 #@! TD*
G04 #@! TA.AperFunction,SMDPad,CuDef*
%ADD14R,0.508000X1.320800*%
G04 #@! TD*
G04 #@! TA.AperFunction,ComponentPad*
%ADD15R,1.700000X1.700000*%
G04 #@! TD*
G04 #@! TA.AperFunction,ComponentPad*
%ADD16O,1.700000X1.700000*%
G04 #@! TD*
G04 #@! TA.AperFunction,SMDPad,CuDef*
%ADD17RoundRect,0.250000X-0.325000X-0.450000X0.325000X-0.450000X0.325000X0.450000X-0.325000X0.450000X0*%
G04 #@! TD*
G04 #@! TA.AperFunction,SMDPad,CuDef*
%ADD18R,1.700000X0.650000*%
G04 #@! TD*
G04 #@! TA.AperFunction,ViaPad*
%ADD19C,0.600000*%
G04 #@! TD*
G04 #@! TA.AperFunction,Conductor*
%ADD20C,0.152400*%
G04 #@! TD*
G04 APERTURE END LIST*
D10*
X136675000Y-80580000D03*
X134850000Y-80580000D03*
D11*
X139320000Y-94360000D03*
D12*
X129350000Y-85300000D03*
X129350000Y-83575000D03*
D10*
X136790000Y-85210000D03*
X134965000Y-85210000D03*
X132290000Y-93450000D03*
X130465000Y-93450000D03*
D13*
X114115850Y-76865000D03*
X114115850Y-79405000D03*
X114115850Y-81945000D03*
X114115850Y-84485000D03*
X114115850Y-87025000D03*
X139515850Y-87025000D03*
X139515850Y-84485000D03*
X139515850Y-81945000D03*
X139515850Y-79405000D03*
X139515850Y-76865000D03*
D14*
X126815850Y-79354200D03*
X125865849Y-79354200D03*
X124915848Y-79354200D03*
X124915848Y-81945000D03*
X126815850Y-81945000D03*
D15*
X125670000Y-74240000D03*
D16*
X123130000Y-74240000D03*
X120590000Y-74240000D03*
X118050000Y-74240000D03*
D12*
X122380000Y-81620000D03*
X122380000Y-79895000D03*
X129310000Y-81235000D03*
X129310000Y-79510000D03*
D10*
X136705000Y-78750000D03*
X134880000Y-78750000D03*
D15*
X130260000Y-74210000D03*
D16*
X132800000Y-74210000D03*
X135340000Y-74210000D03*
X137880000Y-74210000D03*
D11*
X114300000Y-69600000D03*
D17*
X125900000Y-93430000D03*
X127950000Y-93430000D03*
D11*
X114480000Y-94420000D03*
D10*
X136770000Y-83040000D03*
X134945000Y-83040000D03*
D11*
X138850000Y-69550000D03*
D18*
X119310000Y-85280000D03*
X119310000Y-86550000D03*
X119310000Y-87820000D03*
X119310000Y-89090000D03*
X126610000Y-89090000D03*
X126610000Y-87820000D03*
X126610000Y-86550000D03*
X126610000Y-85280000D03*
D15*
X128300000Y-69720000D03*
D16*
X125760000Y-69720000D03*
D19*
X120660000Y-83230000D03*
X133110000Y-80880000D03*
X123570000Y-91520000D03*
X133170000Y-86800000D03*
X131020850Y-90440000D03*
D20*
X129350000Y-85300000D02*
X126630000Y-85300000D01*
X126630000Y-85300000D02*
X126610000Y-85280000D01*
X126610000Y-85280000D02*
X122710000Y-85280000D01*
X134850000Y-80580000D02*
X134850000Y-82945000D01*
X127835000Y-81945000D02*
X126815850Y-81945000D01*
X122710000Y-85280000D02*
X120660000Y-83230000D01*
X134850000Y-82945000D02*
X134945000Y-83040000D01*
X126815850Y-81945000D02*
X126815850Y-85074150D01*
X133410000Y-80580000D02*
X133110000Y-80880000D01*
X129310000Y-81235000D02*
X128545000Y-81235000D01*
X134850000Y-80580000D02*
X133410000Y-80580000D01*
X126815850Y-85074150D02*
X126610000Y-85280000D01*
X128545000Y-81235000D02*
X127835000Y-81945000D01*
X127970000Y-76720000D02*
X127970000Y-70050000D01*
X123535000Y-79895000D02*
X124075800Y-79354200D01*
X125620000Y-76720000D02*
X127970000Y-76720000D01*
X127970000Y-70050000D02*
X128300000Y-69720000D01*
X124075800Y-79354200D02*
X124915848Y-79354200D01*
X124915848Y-77424152D02*
X125620000Y-76720000D01*
X126815850Y-79354200D02*
X126815850Y-78554150D01*
X127970000Y-77400000D02*
X127970000Y-76720000D01*
X126815850Y-78554150D02*
X127970000Y-77400000D01*
X124915848Y-79354200D02*
X124915848Y-77424152D01*
X122380000Y-79895000D02*
X123535000Y-79895000D01*
X136705000Y-78750000D02*
X136705000Y-78095000D01*
X136675000Y-80580000D02*
X136675000Y-78780000D01*
X136675000Y-78780000D02*
X136705000Y-78750000D01*
X137935000Y-76865000D02*
X139515850Y-76865000D01*
X136705000Y-78095000D02*
X137935000Y-76865000D01*
X136790000Y-83060000D02*
X136770000Y-83040000D01*
X136790000Y-85210000D02*
X136790000Y-83060000D01*
X139515850Y-79405000D02*
X138735000Y-79405000D01*
X138020000Y-80120000D02*
X138020000Y-81230000D01*
X138020000Y-81230000D02*
X136770000Y-82480000D01*
X138735000Y-79405000D02*
X138020000Y-80120000D01*
X136770000Y-82480000D02*
X136770000Y-83040000D01*
X132800000Y-76730000D02*
X132800000Y-74210000D01*
X124360000Y-86550000D02*
X126610000Y-86550000D01*
X130250000Y-86550000D02*
X130830000Y-85970000D01*
X126610000Y-86550000D02*
X130250000Y-86550000D01*
X130830000Y-85970000D02*
X130830000Y-78700000D01*
X130830000Y-78700000D02*
X132800000Y-76730000D01*
X123570000Y-91520000D02*
X122630000Y-90580000D01*
X122630000Y-88280000D02*
X124360000Y-86550000D01*
X122630000Y-90580000D02*
X122630000Y-88280000D01*
X116140000Y-82460000D02*
X116140000Y-79280000D01*
X117450850Y-87820000D02*
X114115850Y-84485000D01*
X115410000Y-83190000D02*
X116140000Y-82460000D01*
X114305000Y-84485000D02*
X114115850Y-84485000D01*
X116140000Y-79280000D02*
X120590000Y-74830000D01*
X120590000Y-74830000D02*
X120590000Y-74240000D01*
X119310000Y-87820000D02*
X117450850Y-87820000D01*
X115410000Y-83190850D02*
X115410000Y-83190000D01*
X114115850Y-84485000D02*
X115410000Y-83190850D01*
X127950000Y-93430000D02*
X130445000Y-93430000D01*
X130445000Y-93430000D02*
X130465000Y-93450000D01*
X131880000Y-88500000D02*
X131880000Y-79330000D01*
X126610000Y-89090000D02*
X129170000Y-89090000D01*
X132290000Y-93450000D02*
X132290000Y-90000000D01*
X136800000Y-76850000D02*
X137880000Y-75770000D01*
X129170000Y-89090000D02*
X131290000Y-89090000D01*
X131880000Y-79330000D02*
X134360000Y-76850000D01*
X132290000Y-90000000D02*
X131380000Y-89090000D01*
X131290000Y-89090000D02*
X131880000Y-88500000D01*
X134360000Y-76850000D02*
X136800000Y-76850000D01*
X137880000Y-75770000D02*
X137880000Y-74210000D01*
X131380000Y-89090000D02*
X129170000Y-89090000D01*
X119790000Y-76610000D02*
X121790000Y-76610000D01*
X119310000Y-86550000D02*
X117660000Y-86550000D01*
X116900000Y-82610000D02*
X116880000Y-82590000D01*
X116880000Y-79520000D02*
X119790000Y-76610000D01*
X133170000Y-86800000D02*
X133940000Y-87570000D01*
X116900000Y-85790000D02*
X116900000Y-82610000D01*
X117660000Y-86550000D02*
X116900000Y-85790000D01*
X123130000Y-75270000D02*
X123130000Y-74240000D01*
X116880000Y-82590000D02*
X116880000Y-79520000D01*
X136430850Y-87570000D02*
X139515850Y-84485000D01*
X121790000Y-76610000D02*
X123130000Y-75270000D01*
X133940000Y-87570000D02*
X136430850Y-87570000D01*
X119310000Y-85280000D02*
X118220000Y-85280000D01*
X122610000Y-77300000D02*
X125670000Y-74240000D01*
X119930000Y-77300000D02*
X122610000Y-77300000D01*
X118220000Y-85280000D02*
X117490000Y-84550000D01*
X117490000Y-79740000D02*
X119930000Y-77300000D01*
X117490000Y-84550000D02*
X117490000Y-79740000D01*
X124800000Y-90970000D02*
X123630000Y-89800000D01*
X123630000Y-89800000D02*
X123630000Y-88630000D01*
X135340000Y-74940000D02*
X135340000Y-74210000D01*
X131330000Y-86400000D02*
X131330000Y-78950000D01*
X131020850Y-90440000D02*
X130490850Y-90970000D01*
X129910000Y-87820000D02*
X131330000Y-86400000D01*
X130490850Y-90970000D02*
X124800000Y-90970000D01*
X124440000Y-87820000D02*
X126610000Y-87820000D01*
X123630000Y-88630000D02*
X124440000Y-87820000D01*
X131330000Y-78950000D02*
X135340000Y-74940000D01*
X126610000Y-87820000D02*
X129910000Y-87820000D01*
G04 #@! TA.AperFunction,Conductor*
G36*
X140952539Y-67850185D02*
G01*
X140998294Y-67902989D01*
X141009500Y-67954500D01*
X141009500Y-96035500D01*
X140989815Y-96102539D01*
X140937011Y-96148294D01*
X140885500Y-96159500D01*
X112764500Y-96159500D01*
X112697461Y-96139815D01*
X112651706Y-96087011D01*
X112640500Y-96035500D01*
X112640500Y-94420005D01*
X113046805Y-94420005D01*
X113066351Y-94655892D01*
X113124458Y-94885355D01*
X113219543Y-95102126D01*
X113349003Y-95300281D01*
X113349006Y-95300285D01*
X113349008Y-95300287D01*
X113509323Y-95474436D01*
X113509326Y-95474438D01*
X113509329Y-95474441D01*
X113696108Y-95619817D01*
X113696114Y-95619821D01*
X113696117Y-95619823D01*
X113904292Y-95732482D01*
X114128171Y-95809340D01*
X114361648Y-95848300D01*
X114598352Y-95848300D01*
X114831829Y-95809340D01*
X115055708Y-95732482D01*
X115263883Y-95619823D01*
X115450677Y-95474436D01*
X115610992Y-95300287D01*
X115740457Y-95102125D01*
X115835541Y-94885358D01*
X115893648Y-94655896D01*
X115913195Y-94420000D01*
X115908223Y-94360000D01*
X115900163Y-94262736D01*
X115893648Y-94184104D01*
X115835541Y-93954642D01*
X115740457Y-93737875D01*
X115728925Y-93720224D01*
X115702646Y-93680000D01*
X124825001Y-93680000D01*
X124825001Y-93929986D01*
X124835494Y-94032697D01*
X124890641Y-94199119D01*
X124890643Y-94199124D01*
X124982684Y-94348345D01*
X125106654Y-94472315D01*
X125255875Y-94564356D01*
X125255880Y-94564358D01*
X125422302Y-94619505D01*
X125422309Y-94619506D01*
X125525019Y-94629999D01*
X125649999Y-94629999D01*
X125650000Y-94629998D01*
X125650000Y-93680000D01*
X124825001Y-93680000D01*
X115702646Y-93680000D01*
X115610996Y-93539718D01*
X115610993Y-93539715D01*
X115610992Y-93539713D01*
X115450677Y-93365564D01*
X115450672Y-93365560D01*
X115450670Y-93365558D01*
X115263891Y-93220182D01*
X115263885Y-93220178D01*
X115189643Y-93180000D01*
X124825000Y-93180000D01*
X125650000Y-93180000D01*
X125650000Y-92230000D01*
X126150000Y-92230000D01*
X126150000Y-94629999D01*
X126274972Y-94629999D01*
X126274986Y-94629998D01*
X126377697Y-94619505D01*
X126544119Y-94564358D01*
X126544124Y-94564356D01*
X126693345Y-94472315D01*
X126805655Y-94360005D01*
X137886805Y-94360005D01*
X137906351Y-94595892D01*
X137906351Y-94595895D01*
X137906352Y-94595896D01*
X137964459Y-94825358D01*
X137990778Y-94885358D01*
X138059543Y-95042126D01*
X138189003Y-95240281D01*
X138189006Y-95240285D01*
X138189008Y-95240287D01*
X138349323Y-95414436D01*
X138349326Y-95414438D01*
X138349329Y-95414441D01*
X138536108Y-95559817D01*
X138536114Y-95559821D01*
X138536117Y-95559823D01*
X138744292Y-95672482D01*
X138968171Y-95749340D01*
X139201648Y-95788300D01*
X139438352Y-95788300D01*
X139671829Y-95749340D01*
X139895708Y-95672482D01*
X140103883Y-95559823D01*
X140290677Y-95414436D01*
X140450992Y-95240287D01*
X140580457Y-95042125D01*
X140675541Y-94825358D01*
X140733648Y-94595896D01*
X140753195Y-94360000D01*
X140752229Y-94348345D01*
X140733648Y-94124107D01*
X140733648Y-94124104D01*
X140675541Y-93894642D01*
X140580457Y-93677875D01*
X140580456Y-93677873D01*
X140450996Y-93479718D01*
X140450993Y-93479715D01*
X140450992Y-93479713D01*
X140290677Y-93305564D01*
X140290672Y-93305560D01*
X140290670Y-93305558D01*
X140103891Y-93160182D01*
X140103885Y-93160178D01*
X139895709Y-93047518D01*
X139895700Y-93047515D01*
X139671831Y-92970660D01*
X139438352Y-92931700D01*
X139201648Y-92931700D01*
X138968168Y-92970660D01*
X138744299Y-93047515D01*
X138744290Y-93047518D01*
X138536114Y-93160178D01*
X138536108Y-93160182D01*
X138349329Y-93305558D01*
X138349326Y-93305561D01*
X138189003Y-93479718D01*
X138059543Y-93677873D01*
X137964458Y-93894644D01*
X137906351Y-94124107D01*
X137886805Y-94359994D01*
X137886805Y-94360005D01*
X126805655Y-94360005D01*
X126817315Y-94348345D01*
X126909356Y-94199124D01*
X126909358Y-94199119D01*
X126964505Y-94032697D01*
X126964507Y-94032688D01*
X126966729Y-94010932D01*
X126993123Y-93946240D01*
X127050302Y-93906087D01*
X127120113Y-93903221D01*
X127180391Y-93938553D01*
X127207128Y-93982576D01*
X127242055Y-94082390D01*
X127242056Y-94082392D01*
X127318725Y-94186275D01*
X127422608Y-94262944D01*
X127459712Y-94275927D01*
X127544467Y-94305585D01*
X127544471Y-94305585D01*
X127544475Y-94305587D01*
X127573407Y-94308300D01*
X128326592Y-94308299D01*
X128355525Y-94305587D01*
X128477392Y-94262944D01*
X128581275Y-94186275D01*
X128657944Y-94082392D01*
X128700587Y-93960525D01*
X128702094Y-93944451D01*
X128703300Y-93931597D01*
X128703300Y-93808500D01*
X128722985Y-93741461D01*
X128775789Y-93695706D01*
X128827300Y-93684500D01*
X129687636Y-93684500D01*
X129754675Y-93704185D01*
X129800430Y-93756989D01*
X129810108Y-93789100D01*
X129814621Y-93817591D01*
X129874418Y-93934948D01*
X129874420Y-93934950D01*
X129874422Y-93934953D01*
X129967546Y-94028077D01*
X129967555Y-94028084D01*
X130084906Y-94087878D01*
X130084911Y-94087880D01*
X130182269Y-94103299D01*
X130182275Y-94103300D01*
X130747724Y-94103299D01*
X130845091Y-94087879D01*
X130962448Y-94028082D01*
X131055582Y-93934948D01*
X131115379Y-93817591D01*
X131115379Y-93817590D01*
X131115380Y-93817588D01*
X131127437Y-93741461D01*
X131130800Y-93720225D01*
X131130799Y-93179776D01*
X131115379Y-93082409D01*
X131055582Y-92965052D01*
X131055578Y-92965048D01*
X131055577Y-92965046D01*
X130962453Y-92871922D01*
X130962444Y-92871915D01*
X130845093Y-92812121D01*
X130845088Y-92812119D01*
X130747730Y-92796700D01*
X130182276Y-92796700D01*
X130105904Y-92808796D01*
X130084909Y-92812121D01*
X129967552Y-92871918D01*
X129967551Y-92871919D01*
X129967546Y-92871922D01*
X129874422Y-92965046D01*
X129874415Y-92965055D01*
X129814620Y-93082409D01*
X129812211Y-93089823D01*
X129772772Y-93147497D01*
X129708412Y-93174692D01*
X129694282Y-93175500D01*
X128827299Y-93175500D01*
X128760260Y-93155815D01*
X128714505Y-93103011D01*
X128703299Y-93051500D01*
X128703299Y-92928409D01*
X128700587Y-92899479D01*
X128700587Y-92899475D01*
X128657944Y-92777608D01*
X128581275Y-92673725D01*
X128477392Y-92597056D01*
X128477390Y-92597055D01*
X128355532Y-92554414D01*
X128355520Y-92554412D01*
X128326597Y-92551700D01*
X127573409Y-92551700D01*
X127544479Y-92554412D01*
X127544476Y-92554412D01*
X127544475Y-92554413D01*
X127422608Y-92597056D01*
X127422607Y-92597056D01*
X127422606Y-92597057D01*
X127318725Y-92673725D01*
X127242056Y-92777608D01*
X127207128Y-92877424D01*
X127166406Y-92934199D01*
X127101453Y-92959946D01*
X127032892Y-92946489D01*
X126982489Y-92898102D01*
X126966729Y-92849067D01*
X126964506Y-92827303D01*
X126909358Y-92660880D01*
X126909356Y-92660875D01*
X126817315Y-92511654D01*
X126693345Y-92387684D01*
X126544124Y-92295643D01*
X126544119Y-92295641D01*
X126377697Y-92240494D01*
X126377690Y-92240493D01*
X126274986Y-92230000D01*
X126150000Y-92230000D01*
X125650000Y-92230000D01*
X125525027Y-92230000D01*
X125525012Y-92230001D01*
X125422302Y-92240494D01*
X125255880Y-92295641D01*
X125255875Y-92295643D01*
X125106654Y-92387684D01*
X124982684Y-92511654D01*
X124890643Y-92660875D01*
X124890641Y-92660880D01*
X124835494Y-92827302D01*
X124835493Y-92827309D01*
X124825000Y-92930013D01*
X124825000Y-93180000D01*
X115189643Y-93180000D01*
X115055709Y-93107518D01*
X115055700Y-93107515D01*
X114831831Y-93030660D01*
X114598352Y-92991700D01*
X114361648Y-92991700D01*
X114128168Y-93030660D01*
X113904299Y-93107515D01*
X113904290Y-93107518D01*
X113696114Y-93220178D01*
X113696108Y-93220182D01*
X113509329Y-93365558D01*
X113509326Y-93365561D01*
X113349003Y-93539718D01*
X113219543Y-93737873D01*
X113124458Y-93954644D01*
X113066351Y-94184107D01*
X113046805Y-94419994D01*
X113046805Y-94420005D01*
X112640500Y-94420005D01*
X112640500Y-90630621D01*
X122375500Y-90630621D01*
X122375501Y-90630626D01*
X122414242Y-90724160D01*
X122994234Y-91304152D01*
X123027719Y-91365475D01*
X123029492Y-91408018D01*
X123014750Y-91519997D01*
X123014750Y-91520000D01*
X123033670Y-91663708D01*
X123033671Y-91663712D01*
X123089137Y-91797622D01*
X123089138Y-91797624D01*
X123089139Y-91797625D01*
X123177379Y-91912621D01*
X123292375Y-92000861D01*
X123426291Y-92056330D01*
X123553280Y-92073048D01*
X123569999Y-92075250D01*
X123570000Y-92075250D01*
X123570001Y-92075250D01*
X123584977Y-92073278D01*
X123713709Y-92056330D01*
X123847625Y-92000861D01*
X123962621Y-91912621D01*
X124050861Y-91797625D01*
X124106330Y-91663709D01*
X124125250Y-91520000D01*
X124106330Y-91376291D01*
X124050861Y-91242375D01*
X123962621Y-91127379D01*
X123847625Y-91039139D01*
X123847624Y-91039138D01*
X123847622Y-91039137D01*
X123713712Y-90983671D01*
X123713710Y-90983670D01*
X123713709Y-90983670D01*
X123641854Y-90974210D01*
X123570001Y-90964750D01*
X123569998Y-90964750D01*
X123458018Y-90979492D01*
X123388983Y-90968726D01*
X123354152Y-90944234D01*
X122920819Y-90510901D01*
X122887334Y-90449578D01*
X122884500Y-90423220D01*
X122884500Y-88436779D01*
X122904185Y-88369740D01*
X122920819Y-88349098D01*
X124429098Y-86840819D01*
X124490421Y-86807334D01*
X124516779Y-86804500D01*
X125462421Y-86804500D01*
X125529460Y-86824185D01*
X125575215Y-86876989D01*
X125584037Y-86904306D01*
X125592045Y-86944569D01*
X125631453Y-87003547D01*
X125690431Y-87042955D01*
X125690432Y-87042955D01*
X125690433Y-87042956D01*
X125721578Y-87049150D01*
X125742439Y-87053300D01*
X127477560Y-87053299D01*
X127529569Y-87042955D01*
X127588547Y-87003547D01*
X127627955Y-86944569D01*
X127631896Y-86924753D01*
X127635964Y-86904308D01*
X127668349Y-86842397D01*
X127729065Y-86807823D01*
X127757581Y-86804500D01*
X130266220Y-86804500D01*
X130333259Y-86824185D01*
X130379014Y-86876989D01*
X130388958Y-86946147D01*
X130359933Y-87009703D01*
X130353901Y-87016181D01*
X129840901Y-87529181D01*
X129779578Y-87562666D01*
X129753220Y-87565500D01*
X127757579Y-87565500D01*
X127690540Y-87545815D01*
X127644785Y-87493011D01*
X127635962Y-87465692D01*
X127627955Y-87425431D01*
X127588547Y-87366453D01*
X127529569Y-87327045D01*
X127529568Y-87327044D01*
X127529567Y-87327044D01*
X127529566Y-87327043D01*
X127477563Y-87316700D01*
X125742441Y-87316700D01*
X125690430Y-87327045D01*
X125654173Y-87351272D01*
X125631455Y-87366452D01*
X125631452Y-87366454D01*
X125592044Y-87425432D01*
X125592044Y-87425433D01*
X125584036Y-87465692D01*
X125551651Y-87527603D01*
X125490935Y-87562177D01*
X125462419Y-87565500D01*
X124490623Y-87565500D01*
X124389377Y-87565500D01*
X124389375Y-87565500D01*
X124389373Y-87565501D01*
X124295839Y-87604242D01*
X123414242Y-88485839D01*
X123375501Y-88579373D01*
X123375500Y-88579378D01*
X123375500Y-89850621D01*
X123375501Y-89850626D01*
X123414242Y-89944160D01*
X123414245Y-89944163D01*
X124655837Y-91185755D01*
X124749377Y-91224501D01*
X124749378Y-91224501D01*
X124865057Y-91224501D01*
X124865065Y-91224500D01*
X130541471Y-91224500D01*
X130541473Y-91224500D01*
X130588243Y-91205127D01*
X130635010Y-91185757D01*
X130635011Y-91185755D01*
X130635013Y-91185755D01*
X130805002Y-91015764D01*
X130866325Y-90982280D01*
X130908868Y-90980507D01*
X130968128Y-90988309D01*
X131020849Y-90995250D01*
X131020850Y-90995250D01*
X131020851Y-90995250D01*
X131036056Y-90993248D01*
X131164559Y-90976330D01*
X131298475Y-90920861D01*
X131413471Y-90832621D01*
X131501711Y-90717625D01*
X131557180Y-90583709D01*
X131576100Y-90440000D01*
X131557180Y-90296291D01*
X131501711Y-90162375D01*
X131413471Y-90047379D01*
X131298475Y-89959139D01*
X131298474Y-89959138D01*
X131298472Y-89959137D01*
X131164562Y-89903671D01*
X131164560Y-89903670D01*
X131164559Y-89903670D01*
X131092704Y-89894210D01*
X131020851Y-89884750D01*
X131020849Y-89884750D01*
X130877141Y-89903670D01*
X130877137Y-89903671D01*
X130743227Y-89959137D01*
X130628229Y-90047379D01*
X130539987Y-90162377D01*
X130484521Y-90296287D01*
X130484520Y-90296291D01*
X130465600Y-90439999D01*
X130465600Y-90440002D01*
X130480342Y-90551979D01*
X130469576Y-90621014D01*
X130445088Y-90655841D01*
X130421754Y-90679177D01*
X130360432Y-90712665D01*
X130334069Y-90715500D01*
X124956780Y-90715500D01*
X124889741Y-90695815D01*
X124869099Y-90679181D01*
X123920819Y-89730901D01*
X123887334Y-89669578D01*
X123884500Y-89643220D01*
X123884500Y-88786780D01*
X123904185Y-88719741D01*
X123920819Y-88699099D01*
X124509099Y-88110819D01*
X124570422Y-88077334D01*
X124596780Y-88074500D01*
X125462421Y-88074500D01*
X125529460Y-88094185D01*
X125575215Y-88146989D01*
X125584037Y-88174306D01*
X125592045Y-88214569D01*
X125631453Y-88273547D01*
X125690431Y-88312955D01*
X125690432Y-88312955D01*
X125690433Y-88312956D01*
X125717322Y-88318304D01*
X125742439Y-88323300D01*
X127477560Y-88323299D01*
X127529569Y-88312955D01*
X127588547Y-88273547D01*
X127627955Y-88214569D01*
X127633779Y-88185289D01*
X127635964Y-88174308D01*
X127668349Y-88112397D01*
X127729065Y-88077823D01*
X127757581Y-88074500D01*
X129960621Y-88074500D01*
X129960623Y-88074500D01*
X130007393Y-88055127D01*
X130054160Y-88035757D01*
X130054161Y-88035755D01*
X130054163Y-88035755D01*
X131413819Y-86676096D01*
X131475142Y-86642612D01*
X131544833Y-86647596D01*
X131600767Y-86689467D01*
X131625184Y-86754932D01*
X131625500Y-86763778D01*
X131625500Y-88343220D01*
X131605815Y-88410259D01*
X131589181Y-88430901D01*
X131220901Y-88799181D01*
X131159578Y-88832666D01*
X131133220Y-88835500D01*
X127757579Y-88835500D01*
X127690540Y-88815815D01*
X127644785Y-88763011D01*
X127635962Y-88735693D01*
X127627955Y-88695431D01*
X127588547Y-88636453D01*
X127529569Y-88597045D01*
X127529568Y-88597044D01*
X127529567Y-88597044D01*
X127529566Y-88597043D01*
X127477563Y-88586700D01*
X125742441Y-88586700D01*
X125690430Y-88597045D01*
X125651022Y-88623377D01*
X125631455Y-88636452D01*
X125631452Y-88636454D01*
X125592044Y-88695432D01*
X125592043Y-88695433D01*
X125581700Y-88747434D01*
X125581700Y-89432558D01*
X125587721Y-89462827D01*
X125592045Y-89484569D01*
X125631453Y-89543547D01*
X125690431Y-89582955D01*
X125690432Y-89582955D01*
X125690433Y-89582956D01*
X125721578Y-89589150D01*
X125742439Y-89593300D01*
X127477560Y-89593299D01*
X127529569Y-89582955D01*
X127588547Y-89543547D01*
X127627955Y-89484569D01*
X127632280Y-89462827D01*
X127635964Y-89444308D01*
X127668349Y-89382397D01*
X127729065Y-89347823D01*
X127757581Y-89344500D01*
X129119377Y-89344500D01*
X131223220Y-89344500D01*
X131290259Y-89364185D01*
X131310901Y-89380819D01*
X131999181Y-90069098D01*
X132032666Y-90130421D01*
X132035500Y-90156779D01*
X132035500Y-92686323D01*
X132015815Y-92753362D01*
X131963011Y-92799117D01*
X131930898Y-92808796D01*
X131909913Y-92812119D01*
X131909912Y-92812119D01*
X131880113Y-92827303D01*
X131792552Y-92871918D01*
X131792551Y-92871919D01*
X131792546Y-92871922D01*
X131699422Y-92965046D01*
X131699415Y-92965055D01*
X131639621Y-93082406D01*
X131639619Y-93082411D01*
X131624200Y-93179769D01*
X131624200Y-93720223D01*
X131635404Y-93790965D01*
X131639621Y-93817591D01*
X131699418Y-93934948D01*
X131699420Y-93934950D01*
X131699422Y-93934953D01*
X131792546Y-94028077D01*
X131792555Y-94028084D01*
X131909906Y-94087878D01*
X131909911Y-94087880D01*
X132007269Y-94103299D01*
X132007275Y-94103300D01*
X132572724Y-94103299D01*
X132670091Y-94087879D01*
X132787448Y-94028082D01*
X132880582Y-93934948D01*
X132940379Y-93817591D01*
X132940379Y-93817590D01*
X132940380Y-93817588D01*
X132952437Y-93741461D01*
X132955800Y-93720225D01*
X132955799Y-93179776D01*
X132940379Y-93082409D01*
X132880582Y-92965052D01*
X132880578Y-92965048D01*
X132880577Y-92965046D01*
X132787453Y-92871922D01*
X132787444Y-92871915D01*
X132670093Y-92812121D01*
X132670088Y-92812119D01*
X132649102Y-92808796D01*
X132585967Y-92778867D01*
X132549036Y-92719555D01*
X132544500Y-92686323D01*
X132544500Y-89949378D01*
X132544498Y-89949373D01*
X132505757Y-89855839D01*
X132427098Y-89777180D01*
X132427091Y-89777174D01*
X131782598Y-89132681D01*
X131749113Y-89071358D01*
X131754097Y-89001666D01*
X131782598Y-88957319D01*
X132095755Y-88644163D01*
X132095755Y-88644161D01*
X132095757Y-88644160D01*
X132119556Y-88586701D01*
X132134500Y-88550623D01*
X132134500Y-88449377D01*
X132134500Y-86800000D01*
X132614750Y-86800000D01*
X132633670Y-86943708D01*
X132633671Y-86943712D01*
X132689137Y-87077622D01*
X132689138Y-87077624D01*
X132689139Y-87077625D01*
X132777379Y-87192621D01*
X132892375Y-87280861D01*
X133026291Y-87336330D01*
X133139785Y-87351272D01*
X133169999Y-87355250D01*
X133170000Y-87355250D01*
X133170001Y-87355250D01*
X133205845Y-87350530D01*
X133281980Y-87340507D01*
X133351015Y-87351272D01*
X133385847Y-87375765D01*
X133717174Y-87707091D01*
X133717177Y-87707095D01*
X133724245Y-87714163D01*
X133795837Y-87785755D01*
X133845919Y-87806499D01*
X133845920Y-87806500D01*
X133889373Y-87824499D01*
X133889374Y-87824499D01*
X133889376Y-87824500D01*
X133889377Y-87824500D01*
X136481471Y-87824500D01*
X136481473Y-87824500D01*
X136528243Y-87805127D01*
X136575010Y-87785757D01*
X136575011Y-87785755D01*
X136575013Y-87785755D01*
X137335767Y-87025000D01*
X138570371Y-87025000D01*
X138591032Y-87221578D01*
X138591033Y-87221580D01*
X138652112Y-87409562D01*
X138750939Y-87580737D01*
X138750941Y-87580739D01*
X138883201Y-87727628D01*
X139043110Y-87843809D01*
X139223681Y-87924204D01*
X139417021Y-87965300D01*
X139614679Y-87965300D01*
X139808019Y-87924204D01*
X139988590Y-87843809D01*
X140148499Y-87727628D01*
X140280759Y-87580739D01*
X140379588Y-87409561D01*
X140440668Y-87221576D01*
X140461329Y-87025000D01*
X140440668Y-86828424D01*
X140379588Y-86640439D01*
X140365337Y-86615755D01*
X140280760Y-86469262D01*
X140148500Y-86322373D01*
X140148498Y-86322371D01*
X139988590Y-86206191D01*
X139808019Y-86125796D01*
X139808017Y-86125795D01*
X139614679Y-86084700D01*
X139417021Y-86084700D01*
X139223681Y-86125795D01*
X139223676Y-86125797D01*
X139043111Y-86206191D01*
X139043106Y-86206193D01*
X138883201Y-86322371D01*
X138750939Y-86469262D01*
X138652112Y-86640437D01*
X138591033Y-86828419D01*
X138591032Y-86828421D01*
X138570371Y-87025000D01*
X137335767Y-87025000D01*
X138992432Y-85368334D01*
X139053753Y-85334851D01*
X139123445Y-85339835D01*
X139130547Y-85342738D01*
X139223676Y-85384202D01*
X139223681Y-85384204D01*
X139417021Y-85425300D01*
X139614679Y-85425300D01*
X139808019Y-85384204D01*
X139988590Y-85303809D01*
X140148499Y-85187628D01*
X140280759Y-85040739D01*
X140379588Y-84869561D01*
X140440668Y-84681576D01*
X140461329Y-84485000D01*
X140440668Y-84288424D01*
X140379588Y-84100439D01*
X140336917Y-84026530D01*
X140280760Y-83929262D01*
X140148500Y-83782373D01*
X140148498Y-83782371D01*
X139988590Y-83666191D01*
X139808019Y-83585796D01*
X139808017Y-83585795D01*
X139614679Y-83544700D01*
X139417021Y-83544700D01*
X139223681Y-83585795D01*
X139223676Y-83585797D01*
X139043111Y-83666191D01*
X139043106Y-83666193D01*
X138883201Y-83782371D01*
X138750939Y-83929262D01*
X138652112Y-84100437D01*
X138591033Y-84288419D01*
X138591032Y-84288421D01*
X138570371Y-84485000D01*
X138591032Y-84681578D01*
X138591033Y-84681580D01*
X138652112Y-84869563D01*
X138654191Y-84874232D01*
X138663471Y-84943483D01*
X138633838Y-85006758D01*
X138628589Y-85012341D01*
X136361751Y-87279181D01*
X136300428Y-87312666D01*
X136274070Y-87315500D01*
X134096779Y-87315500D01*
X134029740Y-87295815D01*
X134009098Y-87279181D01*
X133745765Y-87015847D01*
X133712280Y-86954524D01*
X133710507Y-86911980D01*
X133725250Y-86800000D01*
X133725250Y-86799999D01*
X133720481Y-86763778D01*
X133706330Y-86656291D01*
X133650861Y-86522375D01*
X133562621Y-86407379D01*
X133447625Y-86319139D01*
X133447624Y-86319138D01*
X133447622Y-86319137D01*
X133313712Y-86263671D01*
X133313710Y-86263670D01*
X133313709Y-86263670D01*
X133241854Y-86254210D01*
X133170001Y-86244750D01*
X133169999Y-86244750D01*
X133026291Y-86263670D01*
X133026287Y-86263671D01*
X132892377Y-86319137D01*
X132777379Y-86407379D01*
X132689137Y-86522377D01*
X132633671Y-86656287D01*
X132633670Y-86656291D01*
X132614750Y-86799999D01*
X132614750Y-86800000D01*
X132134500Y-86800000D01*
X132134500Y-85460000D01*
X133977501Y-85460000D01*
X133977501Y-85496654D01*
X133987819Y-85597652D01*
X134042046Y-85761300D01*
X134042051Y-85761311D01*
X134132552Y-85908034D01*
X134132555Y-85908038D01*
X134254461Y-86029944D01*
X134254465Y-86029947D01*
X134401188Y-86120448D01*
X134401199Y-86120453D01*
X134564847Y-86174680D01*
X134665851Y-86184999D01*
X135215000Y-86184999D01*
X135264140Y-86184999D01*
X135264154Y-86184998D01*
X135365152Y-86174680D01*
X135528800Y-86120453D01*
X135528811Y-86120448D01*
X135675534Y-86029947D01*
X135675538Y-86029944D01*
X135797444Y-85908038D01*
X135797447Y-85908034D01*
X135887948Y-85761311D01*
X135887954Y-85761298D01*
X135930619Y-85632542D01*
X135970391Y-85575097D01*
X136034907Y-85548273D01*
X136103682Y-85560588D01*
X136154883Y-85608130D01*
X136158802Y-85615236D01*
X136199418Y-85694948D01*
X136199420Y-85694950D01*
X136199422Y-85694953D01*
X136292546Y-85788077D01*
X136292555Y-85788084D01*
X136409906Y-85847878D01*
X136409911Y-85847880D01*
X136507269Y-85863299D01*
X136507275Y-85863300D01*
X137072724Y-85863299D01*
X137170091Y-85847879D01*
X137287448Y-85788082D01*
X137380582Y-85694948D01*
X137440379Y-85577591D01*
X137440379Y-85577590D01*
X137440380Y-85577588D01*
X137455799Y-85480230D01*
X137455800Y-85480225D01*
X137455799Y-84939776D01*
X137440379Y-84842409D01*
X137380582Y-84725052D01*
X137380578Y-84725048D01*
X137380577Y-84725046D01*
X137287453Y-84631922D01*
X137287444Y-84631915D01*
X137170093Y-84572121D01*
X137170088Y-84572119D01*
X137149102Y-84568796D01*
X137085967Y-84538867D01*
X137049036Y-84479555D01*
X137044500Y-84446323D01*
X137044500Y-83800509D01*
X137064185Y-83733470D01*
X137116989Y-83687715D01*
X137149101Y-83678035D01*
X137150091Y-83677879D01*
X137267448Y-83618082D01*
X137360582Y-83524948D01*
X137420379Y-83407591D01*
X137420379Y-83407590D01*
X137420380Y-83407588D01*
X137435799Y-83310230D01*
X137435800Y-83310225D01*
X137435799Y-82769776D01*
X137420379Y-82672409D01*
X137360582Y-82555052D01*
X137360578Y-82555048D01*
X137360577Y-82555046D01*
X137295405Y-82489874D01*
X137261920Y-82428551D01*
X137266904Y-82358859D01*
X137295405Y-82314512D01*
X137664917Y-81945000D01*
X138570371Y-81945000D01*
X138591032Y-82141578D01*
X138591033Y-82141580D01*
X138652112Y-82329562D01*
X138750939Y-82500737D01*
X138882798Y-82647180D01*
X138883201Y-82647628D01*
X139043110Y-82763809D01*
X139223681Y-82844204D01*
X139417021Y-82885300D01*
X139614679Y-82885300D01*
X139808019Y-82844204D01*
X139988590Y-82763809D01*
X140148499Y-82647628D01*
X140280759Y-82500739D01*
X140379588Y-82329561D01*
X140440668Y-82141576D01*
X140461329Y-81945000D01*
X140440668Y-81748424D01*
X140379588Y-81560439D01*
X140307311Y-81435250D01*
X140280760Y-81389262D01*
X140148500Y-81242373D01*
X140148498Y-81242371D01*
X139988590Y-81126191D01*
X139808019Y-81045796D01*
X139808017Y-81045795D01*
X139614679Y-81004700D01*
X139417021Y-81004700D01*
X139223681Y-81045795D01*
X139223676Y-81045797D01*
X139043111Y-81126191D01*
X139043106Y-81126193D01*
X138883201Y-81242371D01*
X138750939Y-81389262D01*
X138652112Y-81560437D01*
X138591033Y-81748419D01*
X138591032Y-81748421D01*
X138570371Y-81945000D01*
X137664917Y-81945000D01*
X137674539Y-81935378D01*
X138235755Y-81374163D01*
X138235755Y-81374161D01*
X138235757Y-81374160D01*
X138255127Y-81327393D01*
X138274500Y-81280623D01*
X138274500Y-81179377D01*
X138274500Y-80276779D01*
X138294185Y-80209740D01*
X138310815Y-80189102D01*
X138559169Y-79940747D01*
X138620490Y-79907264D01*
X138690181Y-79912248D01*
X138746115Y-79954119D01*
X138747161Y-79955537D01*
X138750938Y-79960734D01*
X138750941Y-79960739D01*
X138820883Y-80038417D01*
X138871876Y-80095051D01*
X138883201Y-80107628D01*
X139043110Y-80223809D01*
X139223681Y-80304204D01*
X139417021Y-80345300D01*
X139614679Y-80345300D01*
X139808019Y-80304204D01*
X139988590Y-80223809D01*
X140148499Y-80107628D01*
X140280759Y-79960739D01*
X140379588Y-79789561D01*
X140440668Y-79601576D01*
X140461329Y-79405000D01*
X140440668Y-79208424D01*
X140379588Y-79020439D01*
X140379467Y-79020230D01*
X140280760Y-78849262D01*
X140148500Y-78702373D01*
X140148498Y-78702371D01*
X139988590Y-78586191D01*
X139808019Y-78505796D01*
X139808017Y-78505795D01*
X139614679Y-78464700D01*
X139417021Y-78464700D01*
X139223681Y-78505795D01*
X139223676Y-78505797D01*
X139043111Y-78586191D01*
X139043106Y-78586193D01*
X138883201Y-78702371D01*
X138750939Y-78849262D01*
X138652112Y-79020436D01*
X138609555Y-79151414D01*
X138579305Y-79200776D01*
X137875837Y-79904245D01*
X137804244Y-79975837D01*
X137804242Y-79975839D01*
X137765501Y-80069373D01*
X137765500Y-80069378D01*
X137765500Y-81073220D01*
X137745815Y-81140259D01*
X137729181Y-81160901D01*
X136625837Y-82264245D01*
X136579535Y-82310547D01*
X136545609Y-82344473D01*
X136544817Y-82343681D01*
X136500674Y-82380569D01*
X136470590Y-82389342D01*
X136389913Y-82402119D01*
X136389912Y-82402119D01*
X136338038Y-82428551D01*
X136272552Y-82461918D01*
X136272551Y-82461919D01*
X136272546Y-82461922D01*
X136179422Y-82555046D01*
X136179415Y-82555055D01*
X136119621Y-82672406D01*
X136119619Y-82672411D01*
X136104200Y-82769769D01*
X136104200Y-83310223D01*
X136109230Y-83341980D01*
X136119621Y-83407591D01*
X136179418Y-83524948D01*
X136179420Y-83524950D01*
X136179422Y-83524953D01*
X136272546Y-83618077D01*
X136272555Y-83618084D01*
X136389906Y-83677878D01*
X136389907Y-83677878D01*
X136389909Y-83677879D01*
X136430897Y-83684370D01*
X136494031Y-83714299D01*
X136530963Y-83773610D01*
X136535500Y-83806844D01*
X136535500Y-84446323D01*
X136515815Y-84513362D01*
X136463011Y-84559117D01*
X136430898Y-84568796D01*
X136409913Y-84572119D01*
X136409912Y-84572119D01*
X136383828Y-84585410D01*
X136292552Y-84631918D01*
X136292551Y-84631919D01*
X136292546Y-84631922D01*
X136199422Y-84725046D01*
X136199417Y-84725053D01*
X136158809Y-84804749D01*
X136110834Y-84855545D01*
X136043013Y-84872339D01*
X135976878Y-84849801D01*
X135933427Y-84795085D01*
X135930619Y-84787457D01*
X135887953Y-84658699D01*
X135887948Y-84658688D01*
X135797447Y-84511965D01*
X135797444Y-84511961D01*
X135675538Y-84390055D01*
X135675534Y-84390052D01*
X135528811Y-84299551D01*
X135528800Y-84299546D01*
X135365152Y-84245319D01*
X135264154Y-84235000D01*
X135215000Y-84235000D01*
X135215000Y-86184999D01*
X134665851Y-86184999D01*
X134714999Y-86184998D01*
X134715000Y-86184998D01*
X134715000Y-85460000D01*
X133977501Y-85460000D01*
X132134500Y-85460000D01*
X132134500Y-84960000D01*
X133977500Y-84960000D01*
X134715000Y-84960000D01*
X134715000Y-84235000D01*
X134714999Y-84234999D01*
X134665861Y-84235000D01*
X134665843Y-84235001D01*
X134564847Y-84245319D01*
X134401199Y-84299546D01*
X134401188Y-84299551D01*
X134254465Y-84390052D01*
X134254461Y-84390055D01*
X134132555Y-84511961D01*
X134132552Y-84511965D01*
X134042051Y-84658688D01*
X134042046Y-84658699D01*
X133987819Y-84822347D01*
X133977500Y-84923345D01*
X133977500Y-84960000D01*
X132134500Y-84960000D01*
X132134500Y-80880000D01*
X132554750Y-80880000D01*
X132573082Y-81019246D01*
X132573670Y-81023708D01*
X132573671Y-81023712D01*
X132629137Y-81157622D01*
X132629138Y-81157624D01*
X132629139Y-81157625D01*
X132717379Y-81272621D01*
X132832375Y-81360861D01*
X132966291Y-81416330D01*
X133093280Y-81433048D01*
X133109999Y-81435250D01*
X133110000Y-81435250D01*
X133110001Y-81435250D01*
X133124977Y-81433278D01*
X133253709Y-81416330D01*
X133387625Y-81360861D01*
X133502621Y-81272621D01*
X133590861Y-81157625D01*
X133646330Y-81023709D01*
X133657046Y-80942313D01*
X133685313Y-80878418D01*
X133743637Y-80839947D01*
X133779985Y-80834500D01*
X134075803Y-80834500D01*
X134142842Y-80854185D01*
X134188597Y-80906989D01*
X134198276Y-80939102D01*
X134199619Y-80947587D01*
X134199620Y-80947590D01*
X134199621Y-80947591D01*
X134259418Y-81064948D01*
X134259420Y-81064950D01*
X134259422Y-81064953D01*
X134352546Y-81158077D01*
X134352555Y-81158084D01*
X134464323Y-81215033D01*
X134469909Y-81217879D01*
X134490896Y-81221202D01*
X134554030Y-81251130D01*
X134590963Y-81310440D01*
X134595500Y-81343676D01*
X134595500Y-82310547D01*
X134575815Y-82377586D01*
X134527796Y-82421031D01*
X134447553Y-82461917D01*
X134447546Y-82461922D01*
X134354422Y-82555046D01*
X134354415Y-82555055D01*
X134294621Y-82672406D01*
X134294619Y-82672411D01*
X134279200Y-82769769D01*
X134279200Y-83310223D01*
X134284230Y-83341980D01*
X134294621Y-83407591D01*
X134354418Y-83524948D01*
X134354420Y-83524950D01*
X134354422Y-83524953D01*
X134447546Y-83618077D01*
X134447555Y-83618084D01*
X134564906Y-83677878D01*
X134564911Y-83677880D01*
X134662269Y-83693299D01*
X134662275Y-83693300D01*
X135227724Y-83693299D01*
X135325091Y-83677879D01*
X135442448Y-83618082D01*
X135535582Y-83524948D01*
X135595379Y-83407591D01*
X135595379Y-83407590D01*
X135595380Y-83407588D01*
X135610799Y-83310230D01*
X135610800Y-83310225D01*
X135610799Y-82769776D01*
X135595379Y-82672409D01*
X135535582Y-82555052D01*
X135535578Y-82555048D01*
X135535577Y-82555046D01*
X135442453Y-82461922D01*
X135442444Y-82461915D01*
X135325093Y-82402121D01*
X135325088Y-82402119D01*
X135227728Y-82386699D01*
X135222875Y-82386318D01*
X135222972Y-82385076D01*
X135161461Y-82367015D01*
X135115706Y-82314211D01*
X135104500Y-82262700D01*
X135104500Y-81343676D01*
X135124185Y-81276637D01*
X135176989Y-81230882D01*
X135209101Y-81221203D01*
X135230091Y-81217879D01*
X135347448Y-81158082D01*
X135440582Y-81064948D01*
X135500379Y-80947591D01*
X135500379Y-80947590D01*
X135500380Y-80947588D01*
X135511734Y-80875897D01*
X135515800Y-80850225D01*
X135515799Y-80309776D01*
X135500379Y-80212409D01*
X135440582Y-80095052D01*
X135440578Y-80095048D01*
X135440577Y-80095046D01*
X135347453Y-80001922D01*
X135347449Y-80001919D01*
X135347448Y-80001918D01*
X135266627Y-79960737D01*
X135241620Y-79947995D01*
X135190825Y-79900021D01*
X135174030Y-79832200D01*
X135196568Y-79766065D01*
X135251283Y-79722614D01*
X135273734Y-79717036D01*
X135273534Y-79716098D01*
X135280148Y-79714682D01*
X135443800Y-79660453D01*
X135443811Y-79660448D01*
X135590534Y-79569947D01*
X135590538Y-79569944D01*
X135712444Y-79448038D01*
X135712447Y-79448034D01*
X135802948Y-79301311D01*
X135802954Y-79301298D01*
X135845619Y-79172542D01*
X135885391Y-79115097D01*
X135949907Y-79088273D01*
X136018682Y-79100588D01*
X136069883Y-79148130D01*
X136073802Y-79155236D01*
X136114418Y-79234948D01*
X136114420Y-79234950D01*
X136114422Y-79234953D01*
X136207546Y-79328077D01*
X136207555Y-79328084D01*
X136324903Y-79387877D01*
X136334192Y-79390895D01*
X136332998Y-79394566D01*
X136378988Y-79416342D01*
X136415948Y-79475636D01*
X136420500Y-79508925D01*
X136420500Y-79816323D01*
X136400815Y-79883362D01*
X136348011Y-79929117D01*
X136315898Y-79938796D01*
X136294913Y-79942119D01*
X136294912Y-79942119D01*
X136258373Y-79960737D01*
X136177552Y-80001918D01*
X136177551Y-80001919D01*
X136177546Y-80001922D01*
X136084422Y-80095046D01*
X136084415Y-80095055D01*
X136024621Y-80212406D01*
X136024619Y-80212411D01*
X136009200Y-80309769D01*
X136009200Y-80850223D01*
X136017444Y-80902275D01*
X136024621Y-80947591D01*
X136084418Y-81064948D01*
X136084420Y-81064950D01*
X136084422Y-81064953D01*
X136177546Y-81158077D01*
X136177555Y-81158084D01*
X136294906Y-81217878D01*
X136294911Y-81217880D01*
X136392269Y-81233299D01*
X136392275Y-81233300D01*
X136957724Y-81233299D01*
X137055091Y-81217879D01*
X137172448Y-81158082D01*
X137265582Y-81064948D01*
X137325379Y-80947591D01*
X137325379Y-80947590D01*
X137325380Y-80947588D01*
X137336734Y-80875897D01*
X137340800Y-80850225D01*
X137340799Y-80309776D01*
X137325379Y-80212409D01*
X137265582Y-80095052D01*
X137265578Y-80095048D01*
X137265577Y-80095046D01*
X137172453Y-80001922D01*
X137172444Y-80001915D01*
X137055093Y-79942121D01*
X137055088Y-79942119D01*
X137034102Y-79938796D01*
X136970967Y-79908867D01*
X136934036Y-79849555D01*
X136929500Y-79816323D01*
X136929500Y-79518427D01*
X136949185Y-79451388D01*
X137001989Y-79405633D01*
X137034100Y-79395954D01*
X137085091Y-79387879D01*
X137202448Y-79328082D01*
X137295582Y-79234948D01*
X137355379Y-79117591D01*
X137355379Y-79117590D01*
X137355380Y-79117588D01*
X137370766Y-79020437D01*
X137370800Y-79020225D01*
X137370799Y-78479776D01*
X137355379Y-78382409D01*
X137295582Y-78265052D01*
X137295578Y-78265048D01*
X137295577Y-78265046D01*
X137202451Y-78171920D01*
X137195697Y-78167013D01*
X137153032Y-78111683D01*
X137147053Y-78042069D01*
X137179659Y-77980275D01*
X137180823Y-77979093D01*
X138004099Y-77155819D01*
X138065422Y-77122334D01*
X138091780Y-77119500D01*
X138519762Y-77119500D01*
X138586801Y-77139185D01*
X138632556Y-77191989D01*
X138637693Y-77205183D01*
X138652111Y-77249560D01*
X138652113Y-77249564D01*
X138750939Y-77420737D01*
X138871379Y-77554498D01*
X138883201Y-77567628D01*
X139043110Y-77683809D01*
X139223681Y-77764204D01*
X139417021Y-77805300D01*
X139614679Y-77805300D01*
X139808019Y-77764204D01*
X139988590Y-77683809D01*
X140148499Y-77567628D01*
X140280759Y-77420739D01*
X140379588Y-77249561D01*
X140440668Y-77061576D01*
X140461329Y-76865000D01*
X140440668Y-76668424D01*
X140379588Y-76480439D01*
X140329824Y-76394245D01*
X140280760Y-76309262D01*
X140148500Y-76162373D01*
X140148498Y-76162371D01*
X139988590Y-76046191D01*
X139808019Y-75965796D01*
X139808017Y-75965795D01*
X139614679Y-75924700D01*
X139417021Y-75924700D01*
X139223681Y-75965795D01*
X139223676Y-75965797D01*
X139043111Y-76046191D01*
X139043106Y-76046193D01*
X138883201Y-76162371D01*
X138750939Y-76309262D01*
X138652113Y-76480435D01*
X138652111Y-76480439D01*
X138637693Y-76524817D01*
X138598257Y-76582493D01*
X138533898Y-76609692D01*
X138519762Y-76610500D01*
X138000065Y-76610500D01*
X138000057Y-76610499D01*
X137985623Y-76610499D01*
X137884377Y-76610499D01*
X137884376Y-76610499D01*
X137790835Y-76649246D01*
X136489243Y-77950838D01*
X136455861Y-78031432D01*
X136412020Y-78085835D01*
X136360698Y-78106452D01*
X136324912Y-78112119D01*
X136273768Y-78138179D01*
X136207552Y-78171918D01*
X136207551Y-78171919D01*
X136207546Y-78171922D01*
X136114422Y-78265046D01*
X136114417Y-78265053D01*
X136073809Y-78344749D01*
X136025834Y-78395545D01*
X135958013Y-78412339D01*
X135891878Y-78389801D01*
X135848427Y-78335085D01*
X135845619Y-78327457D01*
X135802953Y-78198699D01*
X135802948Y-78198688D01*
X135712447Y-78051965D01*
X135712444Y-78051961D01*
X135590538Y-77930055D01*
X135590534Y-77930052D01*
X135443811Y-77839551D01*
X135443800Y-77839546D01*
X135280152Y-77785319D01*
X135179154Y-77775000D01*
X135130000Y-77775000D01*
X135130000Y-78876000D01*
X135110315Y-78943039D01*
X135057511Y-78988794D01*
X135006000Y-79000000D01*
X133892501Y-79000000D01*
X133892501Y-79036654D01*
X133902819Y-79137652D01*
X133957046Y-79301300D01*
X133957051Y-79301311D01*
X134047552Y-79448034D01*
X134047555Y-79448038D01*
X134169461Y-79569944D01*
X134169465Y-79569947D01*
X134316188Y-79660448D01*
X134316199Y-79660453D01*
X134462777Y-79709024D01*
X134520222Y-79748796D01*
X134547045Y-79813312D01*
X134534730Y-79882088D01*
X134487187Y-79933288D01*
X134478393Y-79937275D01*
X134478605Y-79937691D01*
X134469911Y-79942120D01*
X134469909Y-79942121D01*
X134352552Y-80001918D01*
X134352551Y-80001919D01*
X134352546Y-80001922D01*
X134259422Y-80095046D01*
X134259415Y-80095055D01*
X134199621Y-80212406D01*
X134198277Y-80220897D01*
X134168348Y-80284032D01*
X134109037Y-80320964D01*
X134075803Y-80325500D01*
X133359377Y-80325500D01*
X133359375Y-80325500D01*
X133359372Y-80325501D01*
X133330117Y-80337618D01*
X133260648Y-80345084D01*
X133255211Y-80343868D01*
X133253709Y-80343670D01*
X133159537Y-80331271D01*
X133110001Y-80324750D01*
X133109999Y-80324750D01*
X132966291Y-80343670D01*
X132966287Y-80343671D01*
X132832377Y-80399137D01*
X132717379Y-80487379D01*
X132629137Y-80602377D01*
X132573671Y-80736287D01*
X132573670Y-80736291D01*
X132557454Y-80859465D01*
X132554750Y-80880000D01*
X132134500Y-80880000D01*
X132134500Y-79486780D01*
X132154185Y-79419741D01*
X132170819Y-79399099D01*
X133069918Y-78500000D01*
X133892500Y-78500000D01*
X134630000Y-78500000D01*
X134630000Y-77775000D01*
X134629999Y-77774999D01*
X134580861Y-77775000D01*
X134580843Y-77775001D01*
X134479847Y-77785319D01*
X134316199Y-77839546D01*
X134316188Y-77839551D01*
X134169465Y-77930052D01*
X134169461Y-77930055D01*
X134047555Y-78051961D01*
X134047552Y-78051965D01*
X133957051Y-78198688D01*
X133957046Y-78198699D01*
X133902819Y-78362347D01*
X133892500Y-78463345D01*
X133892500Y-78500000D01*
X133069918Y-78500000D01*
X134429099Y-77140819D01*
X134490422Y-77107334D01*
X134516780Y-77104500D01*
X136850621Y-77104500D01*
X136850623Y-77104500D01*
X136899524Y-77084245D01*
X136944160Y-77065757D01*
X136944161Y-77065755D01*
X136944163Y-77065755D01*
X138095755Y-75914163D01*
X138134501Y-75820623D01*
X138134501Y-75719377D01*
X138134501Y-75709388D01*
X138134500Y-75709374D01*
X138134500Y-75299334D01*
X138154185Y-75232295D01*
X138206989Y-75186540D01*
X138222496Y-75180676D01*
X138275418Y-75164623D01*
X138454057Y-75069138D01*
X138610636Y-74940636D01*
X138739138Y-74784057D01*
X138834623Y-74605418D01*
X138893422Y-74411582D01*
X138913276Y-74210000D01*
X138893422Y-74008418D01*
X138834623Y-73814582D01*
X138739138Y-73635943D01*
X138739135Y-73635939D01*
X138610636Y-73479363D01*
X138454060Y-73350864D01*
X138454058Y-73350863D01*
X138454057Y-73350862D01*
X138286785Y-73261453D01*
X138275420Y-73255378D01*
X138275419Y-73255377D01*
X138275418Y-73255377D01*
X138165530Y-73222043D01*
X138081580Y-73196577D01*
X137880000Y-73176724D01*
X137678419Y-73196577D01*
X137484579Y-73255378D01*
X137305939Y-73350864D01*
X137149363Y-73479363D01*
X137020864Y-73635939D01*
X136925378Y-73814579D01*
X136866577Y-74008419D01*
X136846724Y-74210000D01*
X136866577Y-74411580D01*
X136875678Y-74441582D01*
X136925377Y-74605418D01*
X136979099Y-74705925D01*
X137020864Y-74784060D01*
X137149363Y-74940636D01*
X137305939Y-75069135D01*
X137305943Y-75069138D01*
X137484582Y-75164623D01*
X137537496Y-75180674D01*
X137595934Y-75218971D01*
X137624390Y-75282783D01*
X137625500Y-75299334D01*
X137625500Y-75613220D01*
X137605815Y-75680259D01*
X137589181Y-75700901D01*
X136730901Y-76559181D01*
X136669578Y-76592666D01*
X136643220Y-76595500D01*
X134425065Y-76595500D01*
X134425057Y-76595499D01*
X134410623Y-76595499D01*
X134343779Y-76595499D01*
X134276740Y-76575814D01*
X134230985Y-76523010D01*
X134221041Y-76453852D01*
X134250066Y-76390296D01*
X134256098Y-76383818D01*
X134725753Y-75914163D01*
X135371457Y-75268458D01*
X135432778Y-75234975D01*
X135446976Y-75232739D01*
X135541582Y-75223422D01*
X135735418Y-75164623D01*
X135914057Y-75069138D01*
X136070636Y-74940636D01*
X136199138Y-74784057D01*
X136294623Y-74605418D01*
X136353422Y-74411582D01*
X136373276Y-74210000D01*
X136353422Y-74008418D01*
X136294623Y-73814582D01*
X136199138Y-73635943D01*
X136199135Y-73635939D01*
X136070636Y-73479363D01*
X135914060Y-73350864D01*
X135914058Y-73350863D01*
X135914057Y-73350862D01*
X135746785Y-73261453D01*
X135735420Y-73255378D01*
X135735419Y-73255377D01*
X135735418Y-73255377D01*
X135625530Y-73222043D01*
X135541580Y-73196577D01*
X135340000Y-73176724D01*
X135138419Y-73196577D01*
X134944579Y-73255378D01*
X134765939Y-73350864D01*
X134609363Y-73479363D01*
X134480864Y-73635939D01*
X134385378Y-73814579D01*
X134326577Y-74008419D01*
X134306724Y-74210000D01*
X134326577Y-74411580D01*
X134335678Y-74441582D01*
X134385377Y-74605418D01*
X134439099Y-74705925D01*
X134480864Y-74784060D01*
X134609363Y-74940636D01*
X134706872Y-75020659D01*
X134746206Y-75078404D01*
X134748077Y-75148249D01*
X134715888Y-75204193D01*
X133266181Y-76653900D01*
X133204858Y-76687385D01*
X133135166Y-76682401D01*
X133079233Y-76640529D01*
X133054816Y-76575065D01*
X133054500Y-76566219D01*
X133054500Y-75299334D01*
X133074185Y-75232295D01*
X133126989Y-75186540D01*
X133142496Y-75180676D01*
X133195418Y-75164623D01*
X133374057Y-75069138D01*
X133530636Y-74940636D01*
X133659138Y-74784057D01*
X133754623Y-74605418D01*
X133813422Y-74411582D01*
X133833276Y-74210000D01*
X133813422Y-74008418D01*
X133754623Y-73814582D01*
X133659138Y-73635943D01*
X133659135Y-73635939D01*
X133530636Y-73479363D01*
X133374060Y-73350864D01*
X133374058Y-73350863D01*
X133374057Y-73350862D01*
X133206785Y-73261453D01*
X133195420Y-73255378D01*
X133195419Y-73255377D01*
X133195418Y-73255377D01*
X133085530Y-73222043D01*
X133001580Y-73196577D01*
X132800000Y-73176724D01*
X132598419Y-73196577D01*
X132404579Y-73255378D01*
X132225939Y-73350864D01*
X132069363Y-73479363D01*
X131940864Y-73635939D01*
X131845378Y-73814579D01*
X131786577Y-74008419D01*
X131766724Y-74210000D01*
X131786577Y-74411580D01*
X131795678Y-74441582D01*
X131845377Y-74605418D01*
X131899099Y-74705925D01*
X131940864Y-74784060D01*
X132069363Y-74940636D01*
X132225939Y-75069135D01*
X132225943Y-75069138D01*
X132404582Y-75164623D01*
X132457496Y-75180674D01*
X132515934Y-75218971D01*
X132544390Y-75282783D01*
X132545500Y-75299334D01*
X132545500Y-76573220D01*
X132525815Y-76640259D01*
X132509181Y-76660901D01*
X130614244Y-78555837D01*
X130614242Y-78555839D01*
X130575501Y-78649373D01*
X130575500Y-78649378D01*
X130575500Y-85813220D01*
X130555815Y-85880259D01*
X130539181Y-85900901D01*
X130180901Y-86259181D01*
X130119578Y-86292666D01*
X130093220Y-86295500D01*
X127757579Y-86295500D01*
X127690540Y-86275815D01*
X127644785Y-86223011D01*
X127635962Y-86195692D01*
X127627955Y-86155431D01*
X127588547Y-86096453D01*
X127529569Y-86057045D01*
X127529568Y-86057044D01*
X127529567Y-86057044D01*
X127529566Y-86057043D01*
X127477563Y-86046700D01*
X125742441Y-86046700D01*
X125690430Y-86057045D01*
X125651022Y-86083377D01*
X125631455Y-86096452D01*
X125631452Y-86096454D01*
X125592044Y-86155432D01*
X125592044Y-86155433D01*
X125584036Y-86195692D01*
X125551651Y-86257603D01*
X125490935Y-86292177D01*
X125462419Y-86295500D01*
X124309374Y-86295500D01*
X124291111Y-86303065D01*
X124281979Y-86306848D01*
X124252311Y-86319137D01*
X124215836Y-86334245D01*
X124215835Y-86334246D01*
X124158496Y-86391586D01*
X124144245Y-86405837D01*
X124144244Y-86405838D01*
X123307009Y-87243073D01*
X122468396Y-88081685D01*
X122468395Y-88081685D01*
X122468396Y-88081686D01*
X122414242Y-88135839D01*
X122375501Y-88229373D01*
X122375500Y-88229378D01*
X122375500Y-90630621D01*
X112640500Y-90630621D01*
X112640500Y-89340000D01*
X117960000Y-89340000D01*
X117960000Y-89462844D01*
X117966401Y-89522372D01*
X117966403Y-89522379D01*
X118016645Y-89657086D01*
X118016649Y-89657093D01*
X118102809Y-89772187D01*
X118102812Y-89772190D01*
X118217906Y-89858350D01*
X118217913Y-89858354D01*
X118352620Y-89908596D01*
X118352627Y-89908598D01*
X118412155Y-89914999D01*
X118412172Y-89915000D01*
X119060000Y-89915000D01*
X119060000Y-89340000D01*
X119560000Y-89340000D01*
X119560000Y-89915000D01*
X120207828Y-89915000D01*
X120207844Y-89914999D01*
X120267372Y-89908598D01*
X120267379Y-89908596D01*
X120402086Y-89858354D01*
X120402093Y-89858350D01*
X120517187Y-89772190D01*
X120517190Y-89772187D01*
X120603350Y-89657093D01*
X120603354Y-89657086D01*
X120653596Y-89522379D01*
X120653598Y-89522372D01*
X120659999Y-89462844D01*
X120660000Y-89462827D01*
X120660000Y-89340000D01*
X119560000Y-89340000D01*
X119060000Y-89340000D01*
X117960000Y-89340000D01*
X112640500Y-89340000D01*
X112640500Y-87336786D01*
X112660185Y-87269747D01*
X112712989Y-87223992D01*
X112782147Y-87214048D01*
X112845703Y-87243073D01*
X112883477Y-87301851D01*
X112884275Y-87304693D01*
X112925425Y-87458270D01*
X112925430Y-87458284D01*
X113018748Y-87658405D01*
X113018751Y-87658411D01*
X113064108Y-87723187D01*
X113064109Y-87723188D01*
X113734850Y-87052447D01*
X113734850Y-87075160D01*
X113760814Y-87172061D01*
X113810974Y-87258940D01*
X113881910Y-87329876D01*
X113968789Y-87380036D01*
X114065690Y-87406000D01*
X114088403Y-87406000D01*
X113417660Y-88076740D01*
X113482440Y-88122099D01*
X113482442Y-88122100D01*
X113682565Y-88215419D01*
X113682579Y-88215424D01*
X113895863Y-88272573D01*
X113895873Y-88272575D01*
X114115849Y-88291821D01*
X114115851Y-88291821D01*
X114335826Y-88272575D01*
X114335836Y-88272573D01*
X114549120Y-88215424D01*
X114549134Y-88215419D01*
X114749257Y-88122100D01*
X114749267Y-88122094D01*
X114814038Y-88076741D01*
X114143298Y-87406000D01*
X114166010Y-87406000D01*
X114262911Y-87380036D01*
X114349790Y-87329876D01*
X114420726Y-87258940D01*
X114470886Y-87172061D01*
X114496850Y-87075160D01*
X114496850Y-87052447D01*
X115167591Y-87723188D01*
X115212944Y-87658417D01*
X115212950Y-87658407D01*
X115306269Y-87458284D01*
X115306274Y-87458270D01*
X115363423Y-87244986D01*
X115363425Y-87244976D01*
X115382671Y-87025000D01*
X115382671Y-87024999D01*
X115363425Y-86805023D01*
X115363423Y-86805013D01*
X115306274Y-86591729D01*
X115306270Y-86591720D01*
X115212946Y-86391586D01*
X115167591Y-86326811D01*
X115167590Y-86326810D01*
X114496850Y-86997551D01*
X114496850Y-86974840D01*
X114470886Y-86877939D01*
X114420726Y-86791060D01*
X114349790Y-86720124D01*
X114262911Y-86669964D01*
X114166010Y-86644000D01*
X114143298Y-86644000D01*
X114814038Y-85973259D01*
X114814037Y-85973258D01*
X114749261Y-85927901D01*
X114749255Y-85927898D01*
X114549134Y-85834580D01*
X114549120Y-85834575D01*
X114335836Y-85777426D01*
X114335826Y-85777424D01*
X114115851Y-85758179D01*
X114115849Y-85758179D01*
X113895873Y-85777424D01*
X113895863Y-85777426D01*
X113682579Y-85834575D01*
X113682570Y-85834579D01*
X113482440Y-85927901D01*
X113417661Y-85973258D01*
X114088403Y-86644000D01*
X114065690Y-86644000D01*
X113968789Y-86669964D01*
X113881910Y-86720124D01*
X113810974Y-86791060D01*
X113760814Y-86877939D01*
X113734850Y-86974840D01*
X113734850Y-86997553D01*
X113064108Y-86326811D01*
X113018751Y-86391590D01*
X112925429Y-86591720D01*
X112925426Y-86591726D01*
X112884275Y-86745307D01*
X112847910Y-86804967D01*
X112785063Y-86835496D01*
X112715687Y-86827201D01*
X112661810Y-86782716D01*
X112640535Y-86716164D01*
X112640500Y-86713213D01*
X112640500Y-84485000D01*
X113170371Y-84485000D01*
X113191032Y-84681578D01*
X113191033Y-84681580D01*
X113252112Y-84869562D01*
X113350939Y-85040737D01*
X113351144Y-85040964D01*
X113483201Y-85187628D01*
X113643110Y-85303809D01*
X113823681Y-85384204D01*
X114017021Y-85425300D01*
X114214679Y-85425300D01*
X114408019Y-85384204D01*
X114501153Y-85342737D01*
X114570401Y-85333453D01*
X114633678Y-85363081D01*
X114639252Y-85368320D01*
X115911370Y-86640437D01*
X117228024Y-87957091D01*
X117228027Y-87957095D01*
X117306689Y-88035757D01*
X117375466Y-88064244D01*
X117400227Y-88074500D01*
X118162421Y-88074500D01*
X118229460Y-88094185D01*
X118275215Y-88146989D01*
X118284037Y-88174309D01*
X118286222Y-88185289D01*
X118279990Y-88254880D01*
X118237124Y-88310055D01*
X118224032Y-88318304D01*
X118217909Y-88321647D01*
X118102812Y-88407809D01*
X118102809Y-88407812D01*
X118016649Y-88522906D01*
X118016645Y-88522913D01*
X117966403Y-88657620D01*
X117966401Y-88657627D01*
X117960000Y-88717155D01*
X117960000Y-88840000D01*
X120660000Y-88840000D01*
X120660000Y-88717172D01*
X120659999Y-88717155D01*
X120653598Y-88657627D01*
X120653596Y-88657620D01*
X120603354Y-88522913D01*
X120603350Y-88522906D01*
X120517190Y-88407812D01*
X120517187Y-88407809D01*
X120402090Y-88321647D01*
X120395968Y-88318304D01*
X120346564Y-88268898D01*
X120331713Y-88200624D01*
X120333779Y-88185289D01*
X120338300Y-88162561D01*
X120338299Y-87477440D01*
X120327955Y-87425431D01*
X120288547Y-87366453D01*
X120229569Y-87327045D01*
X120229568Y-87327044D01*
X120229567Y-87327044D01*
X120229566Y-87327043D01*
X120177563Y-87316700D01*
X118442441Y-87316700D01*
X118390430Y-87327045D01*
X118354173Y-87351272D01*
X118331455Y-87366452D01*
X118331452Y-87366454D01*
X118292044Y-87425432D01*
X118292044Y-87425433D01*
X118284036Y-87465692D01*
X118251651Y-87527603D01*
X118190935Y-87562177D01*
X118162419Y-87565500D01*
X117607629Y-87565500D01*
X117540590Y-87545815D01*
X117519948Y-87529181D01*
X115003109Y-85012341D01*
X114969624Y-84951018D01*
X114974608Y-84881326D01*
X114977517Y-84874211D01*
X114979589Y-84869558D01*
X114993594Y-84826454D01*
X115040668Y-84681576D01*
X115061329Y-84485000D01*
X115040668Y-84288424D01*
X114979588Y-84100439D01*
X114979584Y-84100432D01*
X114977513Y-84095779D01*
X114968225Y-84026530D01*
X114997850Y-83963252D01*
X115003095Y-83957671D01*
X115554161Y-83406605D01*
X115554163Y-83406605D01*
X115625755Y-83335013D01*
X115625755Y-83335011D01*
X115632219Y-83328548D01*
X115636105Y-83323811D01*
X116355755Y-82604163D01*
X116386939Y-82528876D01*
X116430781Y-82474475D01*
X116497075Y-82452411D01*
X116564774Y-82469691D01*
X116612384Y-82520828D01*
X116625500Y-82576332D01*
X116625500Y-82640621D01*
X116625501Y-82640627D01*
X116636060Y-82666118D01*
X116645500Y-82713572D01*
X116645500Y-85840621D01*
X116645501Y-85840626D01*
X116684242Y-85934160D01*
X116684244Y-85934162D01*
X117437174Y-86687091D01*
X117437177Y-86687095D01*
X117515839Y-86765757D01*
X117588182Y-86795721D01*
X117609377Y-86804500D01*
X117710623Y-86804500D01*
X118162421Y-86804500D01*
X118229460Y-86824185D01*
X118275215Y-86876989D01*
X118284037Y-86904306D01*
X118292045Y-86944569D01*
X118331453Y-87003547D01*
X118390431Y-87042955D01*
X118390432Y-87042955D01*
X118390433Y-87042956D01*
X118421578Y-87049150D01*
X118442439Y-87053300D01*
X120177560Y-87053299D01*
X120229569Y-87042955D01*
X120288547Y-87003547D01*
X120327955Y-86944569D01*
X120328126Y-86943712D01*
X120338299Y-86892565D01*
X120338300Y-86892561D01*
X120338299Y-86207440D01*
X120327955Y-86155431D01*
X120288547Y-86096453D01*
X120229569Y-86057045D01*
X120229568Y-86057044D01*
X120229567Y-86057044D01*
X120229566Y-86057043D01*
X120177563Y-86046700D01*
X118442441Y-86046700D01*
X118390430Y-86057045D01*
X118351022Y-86083377D01*
X118331455Y-86096452D01*
X118331452Y-86096454D01*
X118292044Y-86155432D01*
X118292044Y-86155433D01*
X118284036Y-86195692D01*
X118251651Y-86257603D01*
X118190935Y-86292177D01*
X118162419Y-86295500D01*
X117816779Y-86295500D01*
X117749740Y-86275815D01*
X117729098Y-86259181D01*
X117190819Y-85720901D01*
X117157334Y-85659578D01*
X117154500Y-85633220D01*
X117154500Y-84873780D01*
X117174185Y-84806741D01*
X117226989Y-84760986D01*
X117296147Y-84751042D01*
X117359703Y-84780067D01*
X117366181Y-84786099D01*
X118075837Y-85495755D01*
X118169377Y-85534501D01*
X118169381Y-85534501D01*
X118181354Y-85536883D01*
X118180756Y-85539885D01*
X118229460Y-85554186D01*
X118275215Y-85606990D01*
X118284037Y-85634309D01*
X118292045Y-85674569D01*
X118331453Y-85733547D01*
X118390431Y-85772955D01*
X118390432Y-85772955D01*
X118390433Y-85772956D01*
X118421578Y-85779150D01*
X118442439Y-85783300D01*
X120177560Y-85783299D01*
X120229569Y-85772955D01*
X120288547Y-85733547D01*
X120327955Y-85674569D01*
X120338300Y-85622561D01*
X120338299Y-84937440D01*
X120327955Y-84885431D01*
X120288547Y-84826453D01*
X120229569Y-84787045D01*
X120229568Y-84787044D01*
X120229567Y-84787044D01*
X120229566Y-84787043D01*
X120177563Y-84776700D01*
X118442441Y-84776700D01*
X118390430Y-84787045D01*
X118331450Y-84826455D01*
X118322817Y-84835089D01*
X118321396Y-84833668D01*
X118279639Y-84868566D01*
X118210314Y-84877273D01*
X118147287Y-84847118D01*
X118142469Y-84842551D01*
X117780819Y-84480901D01*
X117747334Y-84419578D01*
X117744500Y-84393220D01*
X117744500Y-83230000D01*
X120104750Y-83230000D01*
X120118575Y-83335013D01*
X120123670Y-83373708D01*
X120123671Y-83373712D01*
X120179137Y-83507622D01*
X120179138Y-83507624D01*
X120179139Y-83507625D01*
X120267379Y-83622621D01*
X120382375Y-83710861D01*
X120516291Y-83766330D01*
X120643280Y-83783048D01*
X120659999Y-83785250D01*
X120660000Y-83785250D01*
X120660001Y-83785250D01*
X120695845Y-83780530D01*
X120771980Y-83770507D01*
X120841015Y-83781272D01*
X120875847Y-83805765D01*
X122565837Y-85495755D01*
X122659377Y-85534501D01*
X122659378Y-85534501D01*
X122775057Y-85534501D01*
X122775065Y-85534500D01*
X125462421Y-85534500D01*
X125529460Y-85554185D01*
X125575215Y-85606989D01*
X125584037Y-85634306D01*
X125592045Y-85674569D01*
X125631453Y-85733547D01*
X125690431Y-85772955D01*
X125690432Y-85772955D01*
X125690433Y-85772956D01*
X125721578Y-85779150D01*
X125742439Y-85783300D01*
X127477560Y-85783299D01*
X127529569Y-85772955D01*
X127588547Y-85733547D01*
X127627955Y-85674569D01*
X127631984Y-85654309D01*
X127664368Y-85592399D01*
X127725083Y-85557824D01*
X127753602Y-85554500D01*
X128578405Y-85554500D01*
X128645444Y-85574185D01*
X128691199Y-85626989D01*
X128700878Y-85659102D01*
X128712121Y-85730091D01*
X128771918Y-85847448D01*
X128771920Y-85847450D01*
X128771922Y-85847453D01*
X128865046Y-85940577D01*
X128865055Y-85940584D01*
X128982406Y-86000378D01*
X128982411Y-86000380D01*
X129079769Y-86015799D01*
X129079775Y-86015800D01*
X129620224Y-86015799D01*
X129717591Y-86000379D01*
X129834948Y-85940582D01*
X129928082Y-85847448D01*
X129973567Y-85758179D01*
X129987878Y-85730093D01*
X129987880Y-85730088D01*
X130003048Y-85634313D01*
X130003300Y-85632725D01*
X130003299Y-84967276D01*
X129987879Y-84869909D01*
X129928082Y-84752552D01*
X129928078Y-84752548D01*
X129928077Y-84752546D01*
X129902212Y-84726681D01*
X129868727Y-84665358D01*
X129873711Y-84595666D01*
X129915583Y-84539733D01*
X129924796Y-84533461D01*
X130048039Y-84457443D01*
X130169944Y-84335538D01*
X130169947Y-84335534D01*
X130260448Y-84188811D01*
X130260453Y-84188800D01*
X130314680Y-84025152D01*
X130324999Y-83924154D01*
X130325000Y-83924141D01*
X130325000Y-83825000D01*
X128375001Y-83825000D01*
X128375001Y-83924154D01*
X128385319Y-84025152D01*
X128439546Y-84188800D01*
X128439551Y-84188811D01*
X128530052Y-84335534D01*
X128530055Y-84335538D01*
X128651961Y-84457444D01*
X128651965Y-84457447D01*
X128775203Y-84533462D01*
X128821928Y-84585410D01*
X128833149Y-84654372D01*
X128805306Y-84718454D01*
X128797789Y-84726680D01*
X128771920Y-84752549D01*
X128771915Y-84752555D01*
X128712121Y-84869906D01*
X128712119Y-84869911D01*
X128700877Y-84940898D01*
X128670948Y-85004032D01*
X128611637Y-85040964D01*
X128578404Y-85045500D01*
X127761329Y-85045500D01*
X127694290Y-85025815D01*
X127648535Y-84973011D01*
X127640502Y-84943213D01*
X127639487Y-84943415D01*
X127638299Y-84937440D01*
X127627955Y-84885431D01*
X127588547Y-84826453D01*
X127529569Y-84787045D01*
X127529568Y-84787044D01*
X127529567Y-84787044D01*
X127529566Y-84787043D01*
X127477565Y-84776700D01*
X127477561Y-84776700D01*
X127194350Y-84776700D01*
X127127311Y-84757015D01*
X127081556Y-84704211D01*
X127070350Y-84652700D01*
X127070350Y-83325000D01*
X128375000Y-83325000D01*
X129100000Y-83325000D01*
X129100000Y-82537500D01*
X129600000Y-82537500D01*
X129600000Y-83325000D01*
X130324999Y-83325000D01*
X130324999Y-83225860D01*
X130324998Y-83225845D01*
X130314680Y-83124847D01*
X130260453Y-82961199D01*
X130260448Y-82961188D01*
X130169947Y-82814465D01*
X130169944Y-82814461D01*
X130048038Y-82692555D01*
X130048034Y-82692552D01*
X129901311Y-82602051D01*
X129901300Y-82602046D01*
X129737652Y-82547819D01*
X129636654Y-82537500D01*
X129600000Y-82537500D01*
X129100000Y-82537500D01*
X129063361Y-82537500D01*
X129063343Y-82537501D01*
X128962347Y-82547819D01*
X128798699Y-82602046D01*
X128798688Y-82602051D01*
X128651965Y-82692552D01*
X128651961Y-82692555D01*
X128530055Y-82814461D01*
X128530052Y-82814465D01*
X128439551Y-82961188D01*
X128439546Y-82961199D01*
X128385319Y-83124847D01*
X128375000Y-83225845D01*
X128375000Y-83325000D01*
X127070350Y-83325000D01*
X127070350Y-82884818D01*
X127090035Y-82817779D01*
X127130806Y-82782450D01*
X127129263Y-82780141D01*
X127139418Y-82773355D01*
X127139419Y-82773355D01*
X127198397Y-82733947D01*
X127237805Y-82674969D01*
X127238315Y-82672409D01*
X127248149Y-82622965D01*
X127248150Y-82622962D01*
X127248150Y-82323500D01*
X127267835Y-82256461D01*
X127320639Y-82210706D01*
X127372150Y-82199500D01*
X127885621Y-82199500D01*
X127885623Y-82199500D01*
X127932393Y-82180127D01*
X127979160Y-82160757D01*
X127979161Y-82160755D01*
X127979163Y-82160755D01*
X128484845Y-81655072D01*
X128546166Y-81621589D01*
X128615857Y-81626573D01*
X128671791Y-81668444D01*
X128683008Y-81686459D01*
X128731917Y-81782446D01*
X128731922Y-81782453D01*
X128825046Y-81875577D01*
X128825055Y-81875584D01*
X128942406Y-81935378D01*
X128942411Y-81935380D01*
X129039769Y-81950799D01*
X129039775Y-81950800D01*
X129580224Y-81950799D01*
X129677591Y-81935379D01*
X129794948Y-81875582D01*
X129888082Y-81782448D01*
X129947879Y-81665091D01*
X129947879Y-81665090D01*
X129947880Y-81665088D01*
X129963299Y-81567730D01*
X129963300Y-81567725D01*
X129963299Y-80902276D01*
X129947879Y-80804909D01*
X129888082Y-80687552D01*
X129888078Y-80687548D01*
X129888077Y-80687546D01*
X129862212Y-80661681D01*
X129828727Y-80600358D01*
X129833711Y-80530666D01*
X129875583Y-80474733D01*
X129884796Y-80468461D01*
X130008039Y-80392443D01*
X130129944Y-80270538D01*
X130129947Y-80270534D01*
X130220448Y-80123811D01*
X130220453Y-80123800D01*
X130274680Y-79960152D01*
X130284999Y-79859154D01*
X130285000Y-79859141D01*
X130285000Y-79760000D01*
X128335001Y-79760000D01*
X128335001Y-79859154D01*
X128345319Y-79960152D01*
X128399546Y-80123800D01*
X128399551Y-80123811D01*
X128490052Y-80270534D01*
X128490055Y-80270538D01*
X128611961Y-80392444D01*
X128611965Y-80392447D01*
X128735203Y-80468462D01*
X128781928Y-80520410D01*
X128793149Y-80589372D01*
X128765306Y-80653454D01*
X128757789Y-80661680D01*
X128731920Y-80687549D01*
X128731915Y-80687555D01*
X128672121Y-80804906D01*
X128672119Y-80804911D01*
X128660877Y-80875897D01*
X128630948Y-80939032D01*
X128571636Y-80975963D01*
X128538404Y-80980499D01*
X128494376Y-80980499D01*
X128400835Y-81019246D01*
X127765901Y-81654181D01*
X127704578Y-81687666D01*
X127678220Y-81690500D01*
X127372149Y-81690500D01*
X127305110Y-81670815D01*
X127259355Y-81618011D01*
X127248149Y-81566500D01*
X127248149Y-81267041D01*
X127248148Y-81267034D01*
X127237805Y-81215031D01*
X127198397Y-81156053D01*
X127139419Y-81116645D01*
X127139418Y-81116644D01*
X127139417Y-81116644D01*
X127139416Y-81116643D01*
X127087413Y-81106300D01*
X126544291Y-81106300D01*
X126492280Y-81116645D01*
X126477991Y-81126193D01*
X126433305Y-81156052D01*
X126433302Y-81156054D01*
X126393894Y-81215032D01*
X126393893Y-81215033D01*
X126383550Y-81267034D01*
X126383550Y-82622958D01*
X126388457Y-82647628D01*
X126393895Y-82674969D01*
X126433303Y-82733947D01*
X126492281Y-82773355D01*
X126502436Y-82780140D01*
X126500556Y-82782952D01*
X126539205Y-82814096D01*
X126561271Y-82880390D01*
X126561350Y-82884818D01*
X126561350Y-84652700D01*
X126541665Y-84719739D01*
X126488861Y-84765494D01*
X126437350Y-84776700D01*
X125742441Y-84776700D01*
X125690430Y-84787045D01*
X125678398Y-84795085D01*
X125631455Y-84826452D01*
X125631452Y-84826454D01*
X125592044Y-84885432D01*
X125592044Y-84885433D01*
X125584036Y-84925692D01*
X125551651Y-84987603D01*
X125490935Y-85022177D01*
X125462419Y-85025500D01*
X122866780Y-85025500D01*
X122799741Y-85005815D01*
X122779099Y-84989181D01*
X121235765Y-83445847D01*
X121202280Y-83384524D01*
X121200507Y-83341980D01*
X121201425Y-83335013D01*
X121215250Y-83230000D01*
X121196330Y-83086291D01*
X121144516Y-82961199D01*
X121140862Y-82952377D01*
X121140861Y-82952376D01*
X121140861Y-82952375D01*
X121052621Y-82837379D01*
X120937625Y-82749139D01*
X120937624Y-82749138D01*
X120937622Y-82749137D01*
X120803712Y-82693671D01*
X120803710Y-82693670D01*
X120803709Y-82693670D01*
X120731854Y-82684210D01*
X120660001Y-82674750D01*
X120659999Y-82674750D01*
X120516291Y-82693670D01*
X120516287Y-82693671D01*
X120382377Y-82749137D01*
X120267379Y-82837379D01*
X120179137Y-82952377D01*
X120123671Y-83086287D01*
X120123670Y-83086291D01*
X120104750Y-83230000D01*
X117744500Y-83230000D01*
X117744500Y-81870000D01*
X121405001Y-81870000D01*
X121405001Y-81969154D01*
X121415319Y-82070152D01*
X121469546Y-82233800D01*
X121469551Y-82233811D01*
X121560052Y-82380534D01*
X121560055Y-82380538D01*
X121681961Y-82502444D01*
X121681965Y-82502447D01*
X121828688Y-82592948D01*
X121828699Y-82592953D01*
X121992347Y-82647180D01*
X122093352Y-82657499D01*
X122130000Y-82657499D01*
X122130000Y-81870000D01*
X122630000Y-81870000D01*
X122630000Y-82657499D01*
X122666640Y-82657499D01*
X122666654Y-82657498D01*
X122767652Y-82647180D01*
X122840750Y-82622958D01*
X124483548Y-82622958D01*
X124488455Y-82647628D01*
X124493893Y-82674969D01*
X124533301Y-82733947D01*
X124592279Y-82773355D01*
X124592280Y-82773355D01*
X124592281Y-82773356D01*
X124623426Y-82779550D01*
X124644287Y-82783700D01*
X125187408Y-82783699D01*
X125239417Y-82773355D01*
X125298395Y-82733947D01*
X125337803Y-82674969D01*
X125338313Y-82672409D01*
X125348147Y-82622965D01*
X125348148Y-82622961D01*
X125348147Y-81267040D01*
X125337803Y-81215031D01*
X125298395Y-81156053D01*
X125239417Y-81116645D01*
X125239416Y-81116644D01*
X125239415Y-81116644D01*
X125239414Y-81116643D01*
X125187411Y-81106300D01*
X124644289Y-81106300D01*
X124592278Y-81116645D01*
X124577989Y-81126193D01*
X124533303Y-81156052D01*
X124533300Y-81156054D01*
X124493892Y-81215032D01*
X124493891Y-81215033D01*
X124483548Y-81267034D01*
X124483548Y-82622958D01*
X122840750Y-82622958D01*
X122931300Y-82592953D01*
X122931311Y-82592948D01*
X123078034Y-82502447D01*
X123078038Y-82502444D01*
X123199944Y-82380538D01*
X123199947Y-82380534D01*
X123290448Y-82233811D01*
X123290453Y-82233800D01*
X123344680Y-82070152D01*
X123354999Y-81969154D01*
X123355000Y-81969141D01*
X123355000Y-81870000D01*
X122630000Y-81870000D01*
X122130000Y-81870000D01*
X121405001Y-81870000D01*
X117744500Y-81870000D01*
X117744500Y-81370000D01*
X121405000Y-81370000D01*
X123354999Y-81370000D01*
X123354999Y-81270860D01*
X123354998Y-81270845D01*
X123344680Y-81169847D01*
X123290453Y-81006199D01*
X123290448Y-81006188D01*
X123199947Y-80859465D01*
X123199944Y-80859461D01*
X123078038Y-80737555D01*
X123078034Y-80737552D01*
X122954796Y-80661537D01*
X122908071Y-80609589D01*
X122896850Y-80540626D01*
X122924693Y-80476544D01*
X122932202Y-80468327D01*
X122958082Y-80442448D01*
X123017879Y-80325091D01*
X123017879Y-80325090D01*
X123017880Y-80325088D01*
X123029123Y-80254102D01*
X123059052Y-80190968D01*
X123118363Y-80154036D01*
X123151596Y-80149500D01*
X123585621Y-80149500D01*
X123585623Y-80149500D01*
X123647643Y-80123811D01*
X123679160Y-80110757D01*
X123679161Y-80110755D01*
X123679163Y-80110755D01*
X124144899Y-79645019D01*
X124206222Y-79611534D01*
X124232580Y-79608700D01*
X124359549Y-79608700D01*
X124426588Y-79628385D01*
X124472343Y-79681189D01*
X124483549Y-79732700D01*
X124483549Y-80032160D01*
X124493893Y-80084169D01*
X124533301Y-80143147D01*
X124592279Y-80182555D01*
X124592280Y-80182555D01*
X124592281Y-80182556D01*
X124623426Y-80188750D01*
X124644287Y-80192900D01*
X125060091Y-80192899D01*
X125127130Y-80212583D01*
X125162243Y-80250291D01*
X125163182Y-80249589D01*
X125254662Y-80371790D01*
X125369755Y-80457950D01*
X125369762Y-80457954D01*
X125504469Y-80508196D01*
X125504476Y-80508198D01*
X125564004Y-80514599D01*
X125564021Y-80514600D01*
X125615849Y-80514600D01*
X125615849Y-78193800D01*
X125564004Y-78193800D01*
X125504476Y-78200201D01*
X125504469Y-78200203D01*
X125369762Y-78250445D01*
X125369756Y-78250448D01*
X125368657Y-78251272D01*
X125367370Y-78251751D01*
X125361977Y-78254697D01*
X125361553Y-78253921D01*
X125303192Y-78275688D01*
X125234919Y-78260835D01*
X125185515Y-78211429D01*
X125170348Y-78152004D01*
X125170348Y-77580931D01*
X125190033Y-77513892D01*
X125206667Y-77493250D01*
X125689098Y-77010819D01*
X125750421Y-76977334D01*
X125776779Y-76974500D01*
X127591500Y-76974500D01*
X127658539Y-76994185D01*
X127704294Y-77046989D01*
X127715500Y-77098500D01*
X127715500Y-77243220D01*
X127695815Y-77310259D01*
X127679181Y-77330901D01*
X126671687Y-78338395D01*
X126665333Y-78344749D01*
X126662318Y-78347764D01*
X126600993Y-78381246D01*
X126531301Y-78376257D01*
X126484768Y-78341422D01*
X126483309Y-78342882D01*
X126477036Y-78336609D01*
X126361942Y-78250449D01*
X126361935Y-78250445D01*
X126227228Y-78200203D01*
X126227221Y-78200201D01*
X126167693Y-78193800D01*
X126115849Y-78193800D01*
X126115849Y-80514600D01*
X126167677Y-80514600D01*
X126167693Y-80514599D01*
X126227221Y-80508198D01*
X126227228Y-80508196D01*
X126361935Y-80457954D01*
X126361942Y-80457950D01*
X126477036Y-80371790D01*
X126477039Y-80371787D01*
X126568518Y-80249589D01*
X126569741Y-80250504D01*
X126612182Y-80208066D01*
X126671604Y-80192899D01*
X127087410Y-80192899D01*
X127139419Y-80182555D01*
X127198397Y-80143147D01*
X127237805Y-80084169D01*
X127240748Y-80069377D01*
X127244670Y-80049653D01*
X127248150Y-80032161D01*
X127248149Y-79260000D01*
X128335000Y-79260000D01*
X129060000Y-79260000D01*
X129060000Y-78472500D01*
X129560000Y-78472500D01*
X129560000Y-79260000D01*
X130284999Y-79260000D01*
X130284999Y-79160860D01*
X130284998Y-79160845D01*
X130274680Y-79059847D01*
X130220453Y-78896199D01*
X130220448Y-78896188D01*
X130129947Y-78749465D01*
X130129944Y-78749461D01*
X130008038Y-78627555D01*
X130008034Y-78627552D01*
X129861311Y-78537051D01*
X129861300Y-78537046D01*
X129697652Y-78482819D01*
X129596654Y-78472500D01*
X129560000Y-78472500D01*
X129060000Y-78472500D01*
X129023361Y-78472500D01*
X129023343Y-78472501D01*
X128922347Y-78482819D01*
X128758699Y-78537046D01*
X128758688Y-78537051D01*
X128611965Y-78627552D01*
X128611961Y-78627555D01*
X128490055Y-78749461D01*
X128490052Y-78749465D01*
X128399551Y-78896188D01*
X128399546Y-78896199D01*
X128345319Y-79059847D01*
X128335000Y-79160845D01*
X128335000Y-79260000D01*
X127248149Y-79260000D01*
X127248149Y-78676240D01*
X127237805Y-78624231D01*
X127237804Y-78624229D01*
X127233130Y-78612944D01*
X127235841Y-78611820D01*
X127220545Y-78562970D01*
X127239028Y-78495590D01*
X127256844Y-78473073D01*
X127685541Y-78044377D01*
X128185755Y-77544163D01*
X128224501Y-77450623D01*
X128224501Y-77349377D01*
X128224501Y-77339388D01*
X128224500Y-77339374D01*
X128224500Y-75077558D01*
X129231700Y-75077558D01*
X129238368Y-75111082D01*
X129242045Y-75129569D01*
X129281453Y-75188547D01*
X129340431Y-75227955D01*
X129340432Y-75227955D01*
X129340433Y-75227956D01*
X129371578Y-75234150D01*
X129392439Y-75238300D01*
X131127560Y-75238299D01*
X131179569Y-75227955D01*
X131238547Y-75188547D01*
X131277955Y-75129569D01*
X131288300Y-75077561D01*
X131288299Y-73342440D01*
X131277955Y-73290431D01*
X131238547Y-73231453D01*
X131179569Y-73192045D01*
X131179568Y-73192044D01*
X131179567Y-73192044D01*
X131179566Y-73192043D01*
X131127563Y-73181700D01*
X129392441Y-73181700D01*
X129340430Y-73192045D01*
X129318462Y-73206724D01*
X129281455Y-73231452D01*
X129281452Y-73231454D01*
X129242044Y-73290432D01*
X129242043Y-73290433D01*
X129231700Y-73342434D01*
X129231700Y-75077558D01*
X128224500Y-75077558D01*
X128224500Y-70872299D01*
X128244185Y-70805260D01*
X128296989Y-70759505D01*
X128348500Y-70748299D01*
X129167558Y-70748299D01*
X129167560Y-70748299D01*
X129219569Y-70737955D01*
X129278547Y-70698547D01*
X129317955Y-70639569D01*
X129328300Y-70587561D01*
X129328299Y-69550005D01*
X137416805Y-69550005D01*
X137436351Y-69785892D01*
X137494458Y-70015355D01*
X137589543Y-70232126D01*
X137719003Y-70430281D01*
X137719006Y-70430285D01*
X137719008Y-70430287D01*
X137879323Y-70604436D01*
X137879326Y-70604438D01*
X137879329Y-70604441D01*
X138066108Y-70749817D01*
X138066114Y-70749821D01*
X138066117Y-70749823D01*
X138274292Y-70862482D01*
X138498171Y-70939340D01*
X138731648Y-70978300D01*
X138968352Y-70978300D01*
X139201829Y-70939340D01*
X139425708Y-70862482D01*
X139633883Y-70749823D01*
X139649133Y-70737954D01*
X139699765Y-70698545D01*
X139820677Y-70604436D01*
X139980992Y-70430287D01*
X140110457Y-70232125D01*
X140205541Y-70015358D01*
X140263648Y-69785896D01*
X140279052Y-69599999D01*
X140283195Y-69550005D01*
X140283195Y-69549994D01*
X140263648Y-69314107D01*
X140263648Y-69314104D01*
X140205541Y-69084642D01*
X140110457Y-68867875D01*
X140100373Y-68852440D01*
X139980996Y-68669718D01*
X139980993Y-68669715D01*
X139980992Y-68669713D01*
X139820677Y-68495564D01*
X139820672Y-68495560D01*
X139820670Y-68495558D01*
X139633891Y-68350182D01*
X139633885Y-68350178D01*
X139425709Y-68237518D01*
X139425700Y-68237515D01*
X139201831Y-68160660D01*
X138968352Y-68121700D01*
X138731648Y-68121700D01*
X138498168Y-68160660D01*
X138274299Y-68237515D01*
X138274290Y-68237518D01*
X138066114Y-68350178D01*
X138066108Y-68350182D01*
X137879329Y-68495558D01*
X137879326Y-68495561D01*
X137719003Y-68669718D01*
X137589543Y-68867873D01*
X137494458Y-69084644D01*
X137436351Y-69314107D01*
X137416805Y-69549994D01*
X137416805Y-69550005D01*
X129328299Y-69550005D01*
X129328299Y-68852440D01*
X129317955Y-68800431D01*
X129278547Y-68741453D01*
X129219569Y-68702045D01*
X129219568Y-68702044D01*
X129219567Y-68702044D01*
X129219566Y-68702043D01*
X129167563Y-68691700D01*
X127432441Y-68691700D01*
X127380430Y-68702045D01*
X127341022Y-68728377D01*
X127321455Y-68741452D01*
X127321452Y-68741454D01*
X127282044Y-68800432D01*
X127282043Y-68800433D01*
X127271700Y-68852434D01*
X127271700Y-69208151D01*
X127252015Y-69275190D01*
X127199211Y-69320945D01*
X127130053Y-69330889D01*
X127066497Y-69301864D01*
X127035318Y-69260556D01*
X126933600Y-69042422D01*
X126933599Y-69042420D01*
X126798113Y-68848926D01*
X126798108Y-68848920D01*
X126631082Y-68681894D01*
X126437578Y-68546399D01*
X126223492Y-68446570D01*
X126223486Y-68446567D01*
X126010000Y-68389364D01*
X126010000Y-69286988D01*
X125952993Y-69254075D01*
X125825826Y-69220000D01*
X125694174Y-69220000D01*
X125567007Y-69254075D01*
X125510000Y-69286988D01*
X125510000Y-68389364D01*
X125509999Y-68389364D01*
X125296513Y-68446567D01*
X125296507Y-68446570D01*
X125082422Y-68546399D01*
X125082420Y-68546400D01*
X124888926Y-68681886D01*
X124888920Y-68681891D01*
X124721891Y-68848920D01*
X124721886Y-68848926D01*
X124586400Y-69042420D01*
X124586399Y-69042422D01*
X124486570Y-69256507D01*
X124486567Y-69256513D01*
X124429364Y-69469999D01*
X124429364Y-69470000D01*
X125326988Y-69470000D01*
X125294075Y-69527007D01*
X125260000Y-69654174D01*
X125260000Y-69785826D01*
X125294075Y-69912993D01*
X125326988Y-69970000D01*
X124429364Y-69970000D01*
X124486567Y-70183486D01*
X124486570Y-70183492D01*
X124586399Y-70397578D01*
X124721894Y-70591082D01*
X124888917Y-70758105D01*
X125082421Y-70893600D01*
X125296507Y-70993429D01*
X125296516Y-70993433D01*
X125510000Y-71050634D01*
X125510000Y-70153012D01*
X125567007Y-70185925D01*
X125694174Y-70220000D01*
X125825826Y-70220000D01*
X125952993Y-70185925D01*
X126010000Y-70153012D01*
X126010000Y-71050633D01*
X126223483Y-70993433D01*
X126223492Y-70993429D01*
X126437578Y-70893600D01*
X126631082Y-70758105D01*
X126798105Y-70591082D01*
X126933600Y-70397577D01*
X126933601Y-70397575D01*
X127035318Y-70179443D01*
X127081490Y-70127003D01*
X127148683Y-70107851D01*
X127215565Y-70128067D01*
X127260899Y-70181232D01*
X127271700Y-70231847D01*
X127271700Y-70587558D01*
X127282044Y-70639566D01*
X127282045Y-70639569D01*
X127321453Y-70698547D01*
X127380431Y-70737955D01*
X127380432Y-70737955D01*
X127380433Y-70737956D01*
X127411578Y-70744150D01*
X127432439Y-70748300D01*
X127591500Y-70748299D01*
X127658539Y-70767983D01*
X127704294Y-70820787D01*
X127715500Y-70872299D01*
X127715500Y-76341500D01*
X127695815Y-76408539D01*
X127643011Y-76454294D01*
X127591500Y-76465500D01*
X125569377Y-76465500D01*
X125569375Y-76465500D01*
X125569373Y-76465501D01*
X125475839Y-76504242D01*
X125475837Y-76504244D01*
X125404244Y-76575838D01*
X124754244Y-77225837D01*
X124754243Y-77225837D01*
X124754244Y-77225838D01*
X124700090Y-77279991D01*
X124661349Y-77373525D01*
X124661348Y-77373530D01*
X124661348Y-78414381D01*
X124641663Y-78481420D01*
X124600891Y-78516748D01*
X124602435Y-78519059D01*
X124533300Y-78565254D01*
X124493892Y-78624232D01*
X124493891Y-78624233D01*
X124483548Y-78676234D01*
X124483548Y-78975700D01*
X124463863Y-79042739D01*
X124411059Y-79088494D01*
X124359548Y-79099700D01*
X124140865Y-79099700D01*
X124140857Y-79099699D01*
X124126423Y-79099699D01*
X124025177Y-79099699D01*
X124025176Y-79099699D01*
X123959031Y-79127097D01*
X123933552Y-79137652D01*
X123931635Y-79138446D01*
X123465901Y-79604181D01*
X123404578Y-79637666D01*
X123378220Y-79640500D01*
X123151595Y-79640500D01*
X123084556Y-79620815D01*
X123038801Y-79568011D01*
X123029121Y-79535896D01*
X123027276Y-79524244D01*
X123017879Y-79464909D01*
X122958082Y-79347552D01*
X122958078Y-79347548D01*
X122958077Y-79347546D01*
X122864953Y-79254422D01*
X122864944Y-79254415D01*
X122747593Y-79194621D01*
X122747588Y-79194619D01*
X122650230Y-79179200D01*
X122109776Y-79179200D01*
X122025721Y-79192512D01*
X122012409Y-79194621D01*
X121895052Y-79254418D01*
X121895051Y-79254419D01*
X121895046Y-79254422D01*
X121801922Y-79347546D01*
X121801915Y-79347555D01*
X121742121Y-79464906D01*
X121742119Y-79464911D01*
X121726700Y-79562269D01*
X121726700Y-80227723D01*
X121733481Y-80270538D01*
X121742121Y-80325091D01*
X121801918Y-80442448D01*
X121801920Y-80442450D01*
X121801922Y-80442453D01*
X121827787Y-80468318D01*
X121861272Y-80529641D01*
X121856288Y-80599333D01*
X121814416Y-80655266D01*
X121805204Y-80661537D01*
X121681962Y-80737554D01*
X121560055Y-80859461D01*
X121560052Y-80859465D01*
X121469551Y-81006188D01*
X121469546Y-81006199D01*
X121415319Y-81169847D01*
X121405000Y-81270845D01*
X121405000Y-81370000D01*
X117744500Y-81370000D01*
X117744500Y-79896779D01*
X117764185Y-79829740D01*
X117780819Y-79809098D01*
X119999098Y-77590819D01*
X120060421Y-77557334D01*
X120086779Y-77554500D01*
X122660621Y-77554500D01*
X122660623Y-77554500D01*
X122720813Y-77529569D01*
X122754160Y-77515757D01*
X122754161Y-77515755D01*
X122754163Y-77515755D01*
X124965298Y-75304617D01*
X125026621Y-75271133D01*
X125052979Y-75268299D01*
X126537558Y-75268299D01*
X126537560Y-75268299D01*
X126589569Y-75257955D01*
X126648547Y-75218547D01*
X126687955Y-75159569D01*
X126688978Y-75154429D01*
X126696791Y-75115146D01*
X126698300Y-75107561D01*
X126698299Y-73372440D01*
X126687955Y-73320431D01*
X126648547Y-73261453D01*
X126589569Y-73222045D01*
X126589568Y-73222044D01*
X126589567Y-73222044D01*
X126589566Y-73222043D01*
X126537563Y-73211700D01*
X124802441Y-73211700D01*
X124750430Y-73222045D01*
X124736349Y-73231454D01*
X124691455Y-73261452D01*
X124691452Y-73261454D01*
X124652044Y-73320432D01*
X124652043Y-73320433D01*
X124641700Y-73372434D01*
X124641700Y-74857019D01*
X124622015Y-74924058D01*
X124605381Y-74944700D01*
X122540901Y-77009181D01*
X122479578Y-77042666D01*
X122453220Y-77045500D01*
X122013780Y-77045500D01*
X121946741Y-77025815D01*
X121900986Y-76973011D01*
X121891042Y-76903853D01*
X121920067Y-76840297D01*
X121926099Y-76833819D01*
X122135336Y-76624582D01*
X123256721Y-75503194D01*
X123256724Y-75503193D01*
X123274162Y-75485755D01*
X123274163Y-75485755D01*
X123345755Y-75414163D01*
X123345755Y-75414161D01*
X123345757Y-75414160D01*
X123371724Y-75351468D01*
X123384500Y-75320623D01*
X123384500Y-75320615D01*
X123386882Y-75308646D01*
X123390370Y-75309339D01*
X123404185Y-75262295D01*
X123456989Y-75216540D01*
X123472496Y-75210676D01*
X123525418Y-75194623D01*
X123704057Y-75099138D01*
X123860636Y-74970636D01*
X123989138Y-74814057D01*
X124084623Y-74635418D01*
X124143422Y-74441582D01*
X124163276Y-74240000D01*
X124143422Y-74038418D01*
X124084623Y-73844582D01*
X123989138Y-73665943D01*
X123989135Y-73665939D01*
X123860636Y-73509363D01*
X123704060Y-73380864D01*
X123704058Y-73380863D01*
X123704057Y-73380862D01*
X123534873Y-73290431D01*
X123525420Y-73285378D01*
X123525419Y-73285377D01*
X123525418Y-73285377D01*
X123426520Y-73255377D01*
X123331580Y-73226577D01*
X123130000Y-73206724D01*
X122928419Y-73226577D01*
X122734579Y-73285378D01*
X122555939Y-73380864D01*
X122399363Y-73509363D01*
X122270864Y-73665939D01*
X122175378Y-73844579D01*
X122116577Y-74038419D01*
X122096724Y-74240000D01*
X122116577Y-74441580D01*
X122131265Y-74490000D01*
X122175377Y-74635418D01*
X122254828Y-74784060D01*
X122270864Y-74814060D01*
X122399363Y-74970636D01*
X122555941Y-75099137D01*
X122659385Y-75154429D01*
X122709230Y-75203391D01*
X122724690Y-75271529D01*
X122700858Y-75337209D01*
X122688613Y-75351468D01*
X121720901Y-76319181D01*
X121659578Y-76352666D01*
X121633220Y-76355500D01*
X119727163Y-76355500D01*
X119727163Y-76352172D01*
X119677527Y-76347726D01*
X119622354Y-76304858D01*
X119599115Y-76238966D01*
X119615190Y-76170970D01*
X119635253Y-76144663D01*
X120472646Y-75307270D01*
X120533967Y-75273787D01*
X120572477Y-75271550D01*
X120590000Y-75273276D01*
X120791582Y-75253422D01*
X120985418Y-75194623D01*
X121164057Y-75099138D01*
X121320636Y-74970636D01*
X121449138Y-74814057D01*
X121544623Y-74635418D01*
X121603422Y-74441582D01*
X121623276Y-74240000D01*
X121603422Y-74038418D01*
X121544623Y-73844582D01*
X121449138Y-73665943D01*
X121449135Y-73665939D01*
X121320636Y-73509363D01*
X121164060Y-73380864D01*
X121164058Y-73380863D01*
X121164057Y-73380862D01*
X120994873Y-73290431D01*
X120985420Y-73285378D01*
X120985419Y-73285377D01*
X120985418Y-73285377D01*
X120886520Y-73255377D01*
X120791580Y-73226577D01*
X120590000Y-73206724D01*
X120388419Y-73226577D01*
X120194579Y-73285378D01*
X120015939Y-73380864D01*
X119859363Y-73509363D01*
X119730864Y-73665939D01*
X119635376Y-73844582D01*
X119605473Y-73943158D01*
X119567175Y-74001597D01*
X119503363Y-74030053D01*
X119434296Y-74019492D01*
X119381903Y-73973267D01*
X119367038Y-73939255D01*
X119323433Y-73776516D01*
X119323429Y-73776507D01*
X119223600Y-73562422D01*
X119223599Y-73562420D01*
X119088113Y-73368926D01*
X119088108Y-73368920D01*
X118921082Y-73201894D01*
X118727578Y-73066399D01*
X118513492Y-72966570D01*
X118513486Y-72966567D01*
X118300000Y-72909364D01*
X118300000Y-73806988D01*
X118242993Y-73774075D01*
X118115826Y-73740000D01*
X117984174Y-73740000D01*
X117857007Y-73774075D01*
X117800000Y-73806988D01*
X117800000Y-72909364D01*
X117799999Y-72909364D01*
X117586513Y-72966567D01*
X117586507Y-72966570D01*
X117372422Y-73066399D01*
X117372420Y-73066400D01*
X117178926Y-73201886D01*
X117178920Y-73201891D01*
X117011891Y-73368920D01*
X117011886Y-73368926D01*
X116876400Y-73562420D01*
X116876399Y-73562422D01*
X116776570Y-73776507D01*
X116776567Y-73776513D01*
X116719364Y-73989999D01*
X116719364Y-73990000D01*
X117616988Y-73990000D01*
X117584075Y-74047007D01*
X117550000Y-74174174D01*
X117550000Y-74305826D01*
X117584075Y-74432993D01*
X117616988Y-74490000D01*
X116719364Y-74490000D01*
X116776567Y-74703486D01*
X116776570Y-74703492D01*
X116876399Y-74917578D01*
X117011894Y-75111082D01*
X117178917Y-75278105D01*
X117372421Y-75413600D01*
X117586507Y-75513429D01*
X117586516Y-75513433D01*
X117800000Y-75570634D01*
X117800000Y-74673012D01*
X117857007Y-74705925D01*
X117984174Y-74740000D01*
X118115826Y-74740000D01*
X118242993Y-74705925D01*
X118300000Y-74673012D01*
X118300000Y-75570633D01*
X118513483Y-75513433D01*
X118513492Y-75513429D01*
X118727578Y-75413600D01*
X118921082Y-75278105D01*
X119088105Y-75111082D01*
X119223600Y-74917578D01*
X119323429Y-74703492D01*
X119323433Y-74703483D01*
X119367038Y-74540744D01*
X119403402Y-74481084D01*
X119466249Y-74450554D01*
X119535625Y-74458848D01*
X119589503Y-74503333D01*
X119605473Y-74536841D01*
X119635376Y-74635417D01*
X119730864Y-74814060D01*
X119859362Y-74970634D01*
X119879979Y-74987555D01*
X119919312Y-75045302D01*
X119921181Y-75115146D01*
X119888993Y-75171088D01*
X115978395Y-79081685D01*
X115978396Y-79081686D01*
X115924242Y-79135839D01*
X115885501Y-79229373D01*
X115885500Y-79229378D01*
X115885500Y-82303220D01*
X115865815Y-82370259D01*
X115849181Y-82390901D01*
X115265837Y-82974245D01*
X115226815Y-83013266D01*
X115187794Y-83052287D01*
X115183900Y-83057031D01*
X114639268Y-83601662D01*
X114577945Y-83635147D01*
X114508253Y-83630163D01*
X114501152Y-83627261D01*
X114443655Y-83601662D01*
X114408019Y-83585796D01*
X114408017Y-83585795D01*
X114214679Y-83544700D01*
X114017021Y-83544700D01*
X113823681Y-83585795D01*
X113823676Y-83585797D01*
X113643111Y-83666191D01*
X113643106Y-83666193D01*
X113483201Y-83782371D01*
X113350939Y-83929262D01*
X113252112Y-84100437D01*
X113191033Y-84288419D01*
X113191032Y-84288421D01*
X113170371Y-84485000D01*
X112640500Y-84485000D01*
X112640500Y-81945000D01*
X113170371Y-81945000D01*
X113191032Y-82141578D01*
X113191033Y-82141580D01*
X113252112Y-82329562D01*
X113350939Y-82500737D01*
X113482798Y-82647180D01*
X113483201Y-82647628D01*
X113643110Y-82763809D01*
X113823681Y-82844204D01*
X114017021Y-82885300D01*
X114214679Y-82885300D01*
X114408019Y-82844204D01*
X114588590Y-82763809D01*
X114748499Y-82647628D01*
X114880759Y-82500739D01*
X114979588Y-82329561D01*
X115040668Y-82141576D01*
X115061329Y-81945000D01*
X115040668Y-81748424D01*
X114979588Y-81560439D01*
X114907311Y-81435250D01*
X114880760Y-81389262D01*
X114748500Y-81242373D01*
X114748498Y-81242371D01*
X114588590Y-81126191D01*
X114408019Y-81045796D01*
X114408017Y-81045795D01*
X114214679Y-81004700D01*
X114017021Y-81004700D01*
X113823681Y-81045795D01*
X113823676Y-81045797D01*
X113643111Y-81126191D01*
X113643106Y-81126193D01*
X113483201Y-81242371D01*
X113350939Y-81389262D01*
X113252112Y-81560437D01*
X113191033Y-81748419D01*
X113191032Y-81748421D01*
X113170371Y-81945000D01*
X112640500Y-81945000D01*
X112640500Y-79716786D01*
X112660185Y-79649747D01*
X112712989Y-79603992D01*
X112782147Y-79594048D01*
X112845703Y-79623073D01*
X112883477Y-79681851D01*
X112884275Y-79684693D01*
X112925425Y-79838270D01*
X112925430Y-79838284D01*
X113018748Y-80038405D01*
X113018751Y-80038411D01*
X113064108Y-80103187D01*
X113064109Y-80103188D01*
X113734850Y-79432447D01*
X113734850Y-79455160D01*
X113760814Y-79552061D01*
X113810974Y-79638940D01*
X113881910Y-79709876D01*
X113968789Y-79760036D01*
X114065690Y-79786000D01*
X114088403Y-79786000D01*
X113417660Y-80456740D01*
X113482440Y-80502099D01*
X113482442Y-80502100D01*
X113682565Y-80595419D01*
X113682579Y-80595424D01*
X113895863Y-80652573D01*
X113895873Y-80652575D01*
X114115849Y-80671821D01*
X114115851Y-80671821D01*
X114335826Y-80652575D01*
X114335836Y-80652573D01*
X114549120Y-80595424D01*
X114549134Y-80595419D01*
X114749257Y-80502100D01*
X114749267Y-80502094D01*
X114814038Y-80456741D01*
X114143298Y-79786000D01*
X114166010Y-79786000D01*
X114262911Y-79760036D01*
X114349790Y-79709876D01*
X114420726Y-79638940D01*
X114470886Y-79552061D01*
X114496850Y-79455160D01*
X114496850Y-79432447D01*
X115167591Y-80103188D01*
X115212944Y-80038417D01*
X115212950Y-80038407D01*
X115306269Y-79838284D01*
X115306274Y-79838270D01*
X115363423Y-79624986D01*
X115363425Y-79624976D01*
X115382671Y-79405000D01*
X115382671Y-79404999D01*
X115363425Y-79185023D01*
X115363423Y-79185013D01*
X115306274Y-78971729D01*
X115306270Y-78971720D01*
X115212946Y-78771586D01*
X115167591Y-78706811D01*
X115167590Y-78706810D01*
X114496850Y-79377551D01*
X114496850Y-79354840D01*
X114470886Y-79257939D01*
X114420726Y-79171060D01*
X114349790Y-79100124D01*
X114262911Y-79049964D01*
X114166010Y-79024000D01*
X114143298Y-79024000D01*
X114814038Y-78353259D01*
X114814037Y-78353258D01*
X114749261Y-78307901D01*
X114749255Y-78307898D01*
X114549134Y-78214580D01*
X114549120Y-78214575D01*
X114335836Y-78157426D01*
X114335826Y-78157424D01*
X114115851Y-78138179D01*
X114115849Y-78138179D01*
X113895873Y-78157424D01*
X113895863Y-78157426D01*
X113682579Y-78214575D01*
X113682570Y-78214579D01*
X113482440Y-78307901D01*
X113417661Y-78353258D01*
X114088403Y-79024000D01*
X114065690Y-79024000D01*
X113968789Y-79049964D01*
X113881910Y-79100124D01*
X113810974Y-79171060D01*
X113760814Y-79257939D01*
X113734850Y-79354840D01*
X113734850Y-79377553D01*
X113064108Y-78706811D01*
X113018751Y-78771590D01*
X112925429Y-78971720D01*
X112925426Y-78971726D01*
X112884275Y-79125307D01*
X112847910Y-79184967D01*
X112785063Y-79215496D01*
X112715687Y-79207201D01*
X112661810Y-79162716D01*
X112640535Y-79096164D01*
X112640500Y-79093213D01*
X112640500Y-76865000D01*
X113170371Y-76865000D01*
X113191032Y-77061578D01*
X113191033Y-77061580D01*
X113252112Y-77249562D01*
X113350939Y-77420737D01*
X113471379Y-77554498D01*
X113483201Y-77567628D01*
X113643110Y-77683809D01*
X113823681Y-77764204D01*
X114017021Y-77805300D01*
X114214679Y-77805300D01*
X114408019Y-77764204D01*
X114588590Y-77683809D01*
X114748499Y-77567628D01*
X114880759Y-77420739D01*
X114979588Y-77249561D01*
X115040668Y-77061576D01*
X115061329Y-76865000D01*
X115040668Y-76668424D01*
X114979588Y-76480439D01*
X114929824Y-76394245D01*
X114880760Y-76309262D01*
X114748500Y-76162373D01*
X114748498Y-76162371D01*
X114588590Y-76046191D01*
X114408019Y-75965796D01*
X114408017Y-75965795D01*
X114214679Y-75924700D01*
X114017021Y-75924700D01*
X113823681Y-75965795D01*
X113823676Y-75965797D01*
X113643111Y-76046191D01*
X113643106Y-76046193D01*
X113483201Y-76162371D01*
X113350939Y-76309262D01*
X113252112Y-76480437D01*
X113191033Y-76668419D01*
X113191032Y-76668421D01*
X113170371Y-76865000D01*
X112640500Y-76865000D01*
X112640500Y-70680205D01*
X112660185Y-70613166D01*
X112712989Y-70567411D01*
X112782147Y-70557467D01*
X112845703Y-70586492D01*
X112861448Y-70602894D01*
X112897873Y-70648571D01*
X112897874Y-70648571D01*
X113437425Y-70109020D01*
X113523249Y-70237463D01*
X113662537Y-70376751D01*
X113790978Y-70462573D01*
X113250830Y-71002720D01*
X113422546Y-71119793D01*
X113422550Y-71119795D01*
X113658854Y-71233594D01*
X113658858Y-71233595D01*
X113909494Y-71310907D01*
X113909500Y-71310909D01*
X114168848Y-71349999D01*
X114168857Y-71350000D01*
X114431143Y-71350000D01*
X114431151Y-71349999D01*
X114690499Y-71310909D01*
X114690505Y-71310907D01*
X114941143Y-71233595D01*
X115177445Y-71119798D01*
X115177447Y-71119797D01*
X115349168Y-71002720D01*
X114809020Y-70462573D01*
X114937463Y-70376751D01*
X115076751Y-70237463D01*
X115162573Y-70109020D01*
X115702125Y-70648572D01*
X115749971Y-70588573D01*
X115881116Y-70361426D01*
X115976941Y-70117270D01*
X116035306Y-69861550D01*
X116035307Y-69861545D01*
X116054907Y-69600004D01*
X116054907Y-69599995D01*
X116035307Y-69338454D01*
X116035306Y-69338449D01*
X115976941Y-69082729D01*
X115881116Y-68838573D01*
X115881117Y-68838573D01*
X115749972Y-68611426D01*
X115702124Y-68551427D01*
X115162573Y-69090978D01*
X115076751Y-68962537D01*
X114937463Y-68823249D01*
X114809020Y-68737426D01*
X115349168Y-68197278D01*
X115177454Y-68080206D01*
X115177450Y-68080204D01*
X115148412Y-68066220D01*
X115096553Y-68019397D01*
X115078240Y-67951970D01*
X115099288Y-67885346D01*
X115153014Y-67840678D01*
X115202214Y-67830500D01*
X140885500Y-67830500D01*
X140952539Y-67850185D01*
G37*
G04 #@! TD.AperFunction*
G04 #@! TA.AperFunction,Conductor*
G36*
X113464826Y-67850185D02*
G01*
X113510581Y-67902989D01*
X113520525Y-67972147D01*
X113491500Y-68035703D01*
X113451589Y-68066220D01*
X113422547Y-68080205D01*
X113422539Y-68080210D01*
X113250830Y-68197277D01*
X113790979Y-68737426D01*
X113662537Y-68823249D01*
X113523249Y-68962537D01*
X113437426Y-69090978D01*
X112897875Y-68551427D01*
X112897874Y-68551427D01*
X112861448Y-68597105D01*
X112804260Y-68637246D01*
X112734448Y-68640096D01*
X112674178Y-68604751D01*
X112642584Y-68542433D01*
X112640500Y-68519793D01*
X112640500Y-67954500D01*
X112660185Y-67887461D01*
X112712989Y-67841706D01*
X112764500Y-67830500D01*
X113397787Y-67830500D01*
X113464826Y-67850185D01*
G37*
G04 #@! TD.AperFunction*
M02*
