M48
; DRILL file {KiCad 8.0.1} date 2025-03-18T21:29:49-0600
; FORMAT={-:-/ absolute / metric / decimal}
; #@! TF.CreationDate,2025-03-18T21:29:49-06:00
; #@! TF.GenerationSoftware,Kicad,Pcbnew,8.0.1
; #@! TF.FileFunction,Plated,1,2,PTH
FMAT,2
METRIC
; #@! TA.AperFunction,Plated,PTH,ViaDrill
T1C0.300
; #@! TA.AperFunction,Plated,PTH,ComponentDrill
T2C0.762
; #@! TA.AperFunction,Plated,PTH,ComponentDrill
T3C1.000
; #@! TA.AperFunction,Plated,PTH,ComponentDrill
T4C2.000
%
G90
G05
T1
X120.66Y-83.23
X123.57Y-91.52
X131.021Y-90.44
X133.11Y-80.88
X133.17Y-86.8
T2
X114.116Y-76.865
X114.116Y-79.405
X114.116Y-81.945
X114.116Y-84.485
X114.116Y-87.025
X139.516Y-76.865
X139.516Y-79.405
X139.516Y-81.945
X139.516Y-84.485
X139.516Y-87.025
T3
X118.05Y-74.24
X120.59Y-74.24
X123.13Y-74.24
X125.67Y-74.24
X125.76Y-69.72
X128.3Y-69.72
X130.26Y-74.21
X132.8Y-74.21
X135.34Y-74.21
X137.88Y-74.21
T4
X114.3Y-69.6
X114.48Y-94.42
X138.85Y-69.55
X139.32Y-94.36
M30
