%TF.GenerationSoftware,KiCad,Pcbnew,8.0.1*%
%TF.CreationDate,2025-01-22T18:21:47-07:00*%
%TF.ProjectId,AlcoholSensor_MQ,416c636f-686f-46c5-9365-6e736f725f4d,rev?*%
%TF.SameCoordinates,Original*%
%TF.FileFunction,Legend,Top*%
%TF.FilePolarity,Positive*%
%FSLAX46Y46*%
G04 Gerber Fmt 4.6, Leading zero omitted, Abs format (unit mm)*
G04 Created by KiCad (PCBNEW 8.0.1) date 2025-01-22 18:21:47*
%MOMM*%
%LPD*%
G01*
G04 APERTURE LIST*
G04 Aperture macros list*
%AMRoundRect*
0 Rectangle with rounded corners*
0 $1 Rounding radius*
0 $2 $3 $4 $5 $6 $7 $8 $9 X,Y pos of 4 corners*
0 Add a 4 corners polygon primitive as box body*
4,1,4,$2,$3,$4,$5,$6,$7,$8,$9,$2,$3,0*
0 Add four circle primitives for the rounded corners*
1,1,$1+$1,$2,$3*
1,1,$1+$1,$4,$5*
1,1,$1+$1,$6,$7*
1,1,$1+$1,$8,$9*
0 Add four rect primitives between the rounded corners*
20,1,$1+$1,$2,$3,$4,$5,0*
20,1,$1+$1,$4,$5,$6,$7,0*
20,1,$1+$1,$6,$7,$8,$9,0*
20,1,$1+$1,$8,$9,$2,$3,0*%
G04 Aperture macros list end*
%ADD10C,0.100000*%
%ADD11C,0.150000*%
%ADD12C,0.120000*%
%ADD13C,2.500000*%
%ADD14C,2.600000*%
%ADD15RoundRect,0.237500X0.237500X-0.250000X0.237500X0.250000X-0.237500X0.250000X-0.237500X-0.250000X0*%
%ADD16R,1.700000X1.700000*%
%ADD17O,1.700000X1.700000*%
%ADD18RoundRect,0.237500X-0.237500X0.250000X-0.237500X-0.250000X0.237500X-0.250000X0.237500X0.250000X0*%
%ADD19R,1.700000X0.650000*%
%ADD20RoundRect,0.250000X0.325000X0.450000X-0.325000X0.450000X-0.325000X-0.450000X0.325000X-0.450000X0*%
G04 APERTURE END LIST*
D10*
X180618095Y-89777419D02*
X180618095Y-88777419D01*
X180618095Y-89253609D02*
X181189523Y-89253609D01*
X181189523Y-89777419D02*
X181189523Y-88777419D01*
X181618095Y-88872657D02*
X181665714Y-88825038D01*
X181665714Y-88825038D02*
X181760952Y-88777419D01*
X181760952Y-88777419D02*
X181999047Y-88777419D01*
X181999047Y-88777419D02*
X182094285Y-88825038D01*
X182094285Y-88825038D02*
X182141904Y-88872657D01*
X182141904Y-88872657D02*
X182189523Y-88967895D01*
X182189523Y-88967895D02*
X182189523Y-89063133D01*
X182189523Y-89063133D02*
X182141904Y-89205990D01*
X182141904Y-89205990D02*
X181570476Y-89777419D01*
X181570476Y-89777419D02*
X182189523Y-89777419D01*
X167148095Y-89847419D02*
X167148095Y-88847419D01*
X167148095Y-89323609D02*
X167719523Y-89323609D01*
X167719523Y-89847419D02*
X167719523Y-88847419D01*
X168719523Y-89847419D02*
X168148095Y-89847419D01*
X168433809Y-89847419D02*
X168433809Y-88847419D01*
X168433809Y-88847419D02*
X168338571Y-88990276D01*
X168338571Y-88990276D02*
X168243333Y-89085514D01*
X168243333Y-89085514D02*
X168148095Y-89133133D01*
D11*
X181194819Y-96669047D02*
X180718628Y-97002380D01*
X181194819Y-97240475D02*
X180194819Y-97240475D01*
X180194819Y-97240475D02*
X180194819Y-96859523D01*
X180194819Y-96859523D02*
X180242438Y-96764285D01*
X180242438Y-96764285D02*
X180290057Y-96716666D01*
X180290057Y-96716666D02*
X180385295Y-96669047D01*
X180385295Y-96669047D02*
X180528152Y-96669047D01*
X180528152Y-96669047D02*
X180623390Y-96716666D01*
X180623390Y-96716666D02*
X180671009Y-96764285D01*
X180671009Y-96764285D02*
X180718628Y-96859523D01*
X180718628Y-96859523D02*
X180718628Y-97240475D01*
X181194819Y-96240475D02*
X180194819Y-96240475D01*
X181194819Y-95811904D02*
X180671009Y-95811904D01*
X180671009Y-95811904D02*
X180575771Y-95859523D01*
X180575771Y-95859523D02*
X180528152Y-95954761D01*
X180528152Y-95954761D02*
X180528152Y-96097618D01*
X180528152Y-96097618D02*
X180575771Y-96192856D01*
X180575771Y-96192856D02*
X180623390Y-96240475D01*
X181194819Y-94811904D02*
X181194819Y-95383332D01*
X181194819Y-95097618D02*
X180194819Y-95097618D01*
X180194819Y-95097618D02*
X180337676Y-95192856D01*
X180337676Y-95192856D02*
X180432914Y-95288094D01*
X180432914Y-95288094D02*
X180480533Y-95383332D01*
X167271428Y-95194819D02*
X166938095Y-94718628D01*
X166700000Y-95194819D02*
X166700000Y-94194819D01*
X166700000Y-94194819D02*
X167080952Y-94194819D01*
X167080952Y-94194819D02*
X167176190Y-94242438D01*
X167176190Y-94242438D02*
X167223809Y-94290057D01*
X167223809Y-94290057D02*
X167271428Y-94385295D01*
X167271428Y-94385295D02*
X167271428Y-94528152D01*
X167271428Y-94528152D02*
X167223809Y-94623390D01*
X167223809Y-94623390D02*
X167176190Y-94671009D01*
X167176190Y-94671009D02*
X167080952Y-94718628D01*
X167080952Y-94718628D02*
X166700000Y-94718628D01*
X167842857Y-95194819D02*
X167747619Y-95147200D01*
X167747619Y-95147200D02*
X167700000Y-95051961D01*
X167700000Y-95051961D02*
X167700000Y-94194819D01*
X168747619Y-95194819D02*
X168176191Y-95194819D01*
X168461905Y-95194819D02*
X168461905Y-94194819D01*
X168461905Y-94194819D02*
X168366667Y-94337676D01*
X168366667Y-94337676D02*
X168271429Y-94432914D01*
X168271429Y-94432914D02*
X168176191Y-94480533D01*
X170282295Y-108543809D02*
X169901342Y-108810476D01*
X170282295Y-109000952D02*
X169482295Y-109000952D01*
X169482295Y-109000952D02*
X169482295Y-108696190D01*
X169482295Y-108696190D02*
X169520390Y-108620000D01*
X169520390Y-108620000D02*
X169558485Y-108581905D01*
X169558485Y-108581905D02*
X169634676Y-108543809D01*
X169634676Y-108543809D02*
X169748961Y-108543809D01*
X169748961Y-108543809D02*
X169825152Y-108581905D01*
X169825152Y-108581905D02*
X169863247Y-108620000D01*
X169863247Y-108620000D02*
X169901342Y-108696190D01*
X169901342Y-108696190D02*
X169901342Y-109000952D01*
X170358485Y-108391429D02*
X170358485Y-107781905D01*
X170282295Y-107210476D02*
X170282295Y-107591428D01*
X170282295Y-107591428D02*
X169482295Y-107591428D01*
X169863247Y-106943809D02*
X169863247Y-106677143D01*
X170282295Y-106562857D02*
X170282295Y-106943809D01*
X170282295Y-106943809D02*
X169482295Y-106943809D01*
X169482295Y-106943809D02*
X169482295Y-106562857D01*
X170282295Y-106219999D02*
X169482295Y-106219999D01*
X169482295Y-106219999D02*
X169482295Y-106029523D01*
X169482295Y-106029523D02*
X169520390Y-105915237D01*
X169520390Y-105915237D02*
X169596580Y-105839047D01*
X169596580Y-105839047D02*
X169672771Y-105800952D01*
X169672771Y-105800952D02*
X169825152Y-105762856D01*
X169825152Y-105762856D02*
X169939438Y-105762856D01*
X169939438Y-105762856D02*
X170091819Y-105800952D01*
X170091819Y-105800952D02*
X170168009Y-105839047D01*
X170168009Y-105839047D02*
X170244200Y-105915237D01*
X170244200Y-105915237D02*
X170282295Y-106029523D01*
X170282295Y-106029523D02*
X170282295Y-106219999D01*
X170282295Y-105000952D02*
X170282295Y-105458095D01*
X170282295Y-105229523D02*
X169482295Y-105229523D01*
X169482295Y-105229523D02*
X169596580Y-105305714D01*
X169596580Y-105305714D02*
X169672771Y-105381904D01*
X169672771Y-105381904D02*
X169710866Y-105458095D01*
X173448095Y-89569819D02*
X173448095Y-90379342D01*
X173448095Y-90379342D02*
X173495714Y-90474580D01*
X173495714Y-90474580D02*
X173543333Y-90522200D01*
X173543333Y-90522200D02*
X173638571Y-90569819D01*
X173638571Y-90569819D02*
X173829047Y-90569819D01*
X173829047Y-90569819D02*
X173924285Y-90522200D01*
X173924285Y-90522200D02*
X173971904Y-90474580D01*
X173971904Y-90474580D02*
X174019523Y-90379342D01*
X174019523Y-90379342D02*
X174019523Y-89569819D01*
X175019523Y-90569819D02*
X174448095Y-90569819D01*
X174733809Y-90569819D02*
X174733809Y-89569819D01*
X174733809Y-89569819D02*
X174638571Y-89712676D01*
X174638571Y-89712676D02*
X174543333Y-89807914D01*
X174543333Y-89807914D02*
X174448095Y-89855533D01*
X176091905Y-109154819D02*
X176091905Y-108154819D01*
X176091905Y-108154819D02*
X176330000Y-108154819D01*
X176330000Y-108154819D02*
X176472857Y-108202438D01*
X176472857Y-108202438D02*
X176568095Y-108297676D01*
X176568095Y-108297676D02*
X176615714Y-108392914D01*
X176615714Y-108392914D02*
X176663333Y-108583390D01*
X176663333Y-108583390D02*
X176663333Y-108726247D01*
X176663333Y-108726247D02*
X176615714Y-108916723D01*
X176615714Y-108916723D02*
X176568095Y-109011961D01*
X176568095Y-109011961D02*
X176472857Y-109107200D01*
X176472857Y-109107200D02*
X176330000Y-109154819D01*
X176330000Y-109154819D02*
X176091905Y-109154819D01*
X177615714Y-109154819D02*
X177044286Y-109154819D01*
X177330000Y-109154819D02*
X177330000Y-108154819D01*
X177330000Y-108154819D02*
X177234762Y-108297676D01*
X177234762Y-108297676D02*
X177139524Y-108392914D01*
X177139524Y-108392914D02*
X177044286Y-108440533D01*
D12*
%TO.C,Rh1*%
X180177500Y-93324724D02*
X180177500Y-92815276D01*
X181222500Y-93324724D02*
X181222500Y-92815276D01*
%TO.C,Rl1*%
X167257500Y-92242224D02*
X167257500Y-91732776D01*
X168302500Y-92242224D02*
X168302500Y-91732776D01*
%TO.C,J1*%
X171825000Y-88710000D02*
X171825000Y-87380000D01*
X173155000Y-88710000D02*
X171825000Y-88710000D01*
X174425000Y-86050000D02*
X177025000Y-86050000D01*
X174425000Y-88710000D02*
X174425000Y-86050000D01*
X174425000Y-88710000D02*
X177025000Y-88710000D01*
X177025000Y-88710000D02*
X177025000Y-86050000D01*
%TO.C,R_LED1*%
X168037500Y-107175276D02*
X168037500Y-107684724D01*
X169082500Y-107175276D02*
X169082500Y-107684724D01*
D11*
%TO.C,U1*%
X171460000Y-91040000D02*
X171460000Y-91245000D01*
X171460000Y-91040000D02*
X176960000Y-91040000D01*
X171460000Y-96550000D02*
X171460000Y-96345000D01*
X171460000Y-96550000D02*
X176960000Y-96550000D01*
X176960000Y-91040000D02*
X176960000Y-91245000D01*
X176960000Y-96550000D02*
X176960000Y-96345000D01*
D12*
X170910000Y-91295000D02*
X170670000Y-90965000D01*
X171150000Y-90965000D01*
X170910000Y-91295000D01*
G36*
X170910000Y-91295000D02*
G01*
X170670000Y-90965000D01*
X171150000Y-90965000D01*
X170910000Y-91295000D01*
G37*
%TO.C,D1*%
X172925000Y-109380000D02*
X175785000Y-109380000D01*
X175785000Y-107460000D02*
X172925000Y-107460000D01*
X175785000Y-109380000D02*
X175785000Y-107460000D01*
%TD*%
%LPC*%
D13*
%TO.C,H2*%
X180090000Y-87300000D03*
%TD*%
%TO.C,H1*%
X168500000Y-87300000D03*
%TD*%
D14*
%TO.C,U3*%
X174380000Y-99610000D03*
X176580000Y-101830000D03*
X174370000Y-104010000D03*
%TD*%
D15*
%TO.C,Rh1*%
X180700000Y-93982500D03*
X180700000Y-92157500D03*
%TD*%
%TO.C,Rl1*%
X167780000Y-92900000D03*
X167780000Y-91075000D03*
%TD*%
D16*
%TO.C,J1*%
X173155000Y-87380000D03*
D17*
X175695000Y-87380000D03*
%TD*%
D18*
%TO.C,R_LED1*%
X168560000Y-106517500D03*
X168560000Y-108342500D03*
%TD*%
D19*
%TO.C,U1*%
X170560000Y-91890000D03*
X170560000Y-93160000D03*
X170560000Y-94430000D03*
X170560000Y-95700000D03*
X177860000Y-95700000D03*
X177860000Y-94430000D03*
X177860000Y-93160000D03*
X177860000Y-91890000D03*
%TD*%
D20*
%TO.C,D1*%
X174950000Y-108420000D03*
X172900000Y-108420000D03*
%TD*%
%LPD*%
M02*
