%TF.GenerationSoftware,KiCad,Pcbnew,8.0.1*%
%TF.CreationDate,2025-01-22T18:21:47-07:00*%
%TF.ProjectId,AlcoholSensor_MQ,416c636f-686f-46c5-9365-6e736f725f4d,rev?*%
%TF.SameCoordinates,Original*%
%TF.FileFunction,Copper,L1,Top*%
%TF.FilePolarity,Positive*%
%FSLAX46Y46*%
G04 Gerber Fmt 4.6, Leading zero omitted, Abs format (unit mm)*
G04 Created by KiCad (PCBNEW 8.0.1) date 2025-01-22 18:21:47*
%MOMM*%
%LPD*%
G01*
G04 APERTURE LIST*
G04 Aperture macros list*
%AMRoundRect*
0 Rectangle with rounded corners*
0 $1 Rounding radius*
0 $2 $3 $4 $5 $6 $7 $8 $9 X,Y pos of 4 corners*
0 Add a 4 corners polygon primitive as box body*
4,1,4,$2,$3,$4,$5,$6,$7,$8,$9,$2,$3,0*
0 Add four circle primitives for the rounded corners*
1,1,$1+$1,$2,$3*
1,1,$1+$1,$4,$5*
1,1,$1+$1,$6,$7*
1,1,$1+$1,$8,$9*
0 Add four rect primitives between the rounded corners*
20,1,$1+$1,$2,$3,$4,$5,0*
20,1,$1+$1,$4,$5,$6,$7,0*
20,1,$1+$1,$6,$7,$8,$9,0*
20,1,$1+$1,$8,$9,$2,$3,0*%
G04 Aperture macros list end*
%TA.AperFunction,ComponentPad*%
%ADD10C,2.500000*%
%TD*%
%TA.AperFunction,SMDPad,CuDef*%
%ADD11RoundRect,0.237500X0.237500X-0.250000X0.237500X0.250000X-0.237500X0.250000X-0.237500X-0.250000X0*%
%TD*%
%TA.AperFunction,ComponentPad*%
%ADD12R,1.700000X1.700000*%
%TD*%
%TA.AperFunction,ComponentPad*%
%ADD13O,1.700000X1.700000*%
%TD*%
%TA.AperFunction,SMDPad,CuDef*%
%ADD14RoundRect,0.237500X-0.237500X0.250000X-0.237500X-0.250000X0.237500X-0.250000X0.237500X0.250000X0*%
%TD*%
%TA.AperFunction,SMDPad,CuDef*%
%ADD15R,1.700000X0.650000*%
%TD*%
%TA.AperFunction,SMDPad,CuDef*%
%ADD16RoundRect,0.250000X0.325000X0.450000X-0.325000X0.450000X-0.325000X-0.450000X0.325000X-0.450000X0*%
%TD*%
%TA.AperFunction,ViaPad*%
%ADD17C,0.600000*%
%TD*%
%TA.AperFunction,Conductor*%
%ADD18C,0.152400*%
%TD*%
G04 APERTURE END LIST*
D10*
%TO.P,H2,1,1*%
%TO.N,GND*%
X180090000Y-87300000D03*
%TD*%
%TO.P,H1,1,1*%
%TO.N,VCC*%
X168500000Y-87300000D03*
%TD*%
%TO.P,U3,1,Vh+*%
%TO.N,Net-(U3-Vh+)*%
X174380000Y-99610000D03*
%TO.P,U3,2,Vc*%
%TO.N,Alcohol_out*%
X176580000Y-101830000D03*
%TO.P,U3,3,Vh-*%
%TO.N,GND*%
X174370000Y-104010000D03*
%TD*%
D11*
%TO.P,Rh1,1*%
%TO.N,Net-(U3-Vh+)*%
X180700000Y-93982500D03*
%TO.P,Rh1,2*%
%TO.N,VDD_1.8V*%
X180700000Y-92157500D03*
%TD*%
%TO.P,Rl1,1*%
%TO.N,Alcohol_out*%
X167780000Y-92900000D03*
%TO.P,Rl1,2*%
%TO.N,VDD_1.8V*%
X167780000Y-91075000D03*
%TD*%
D12*
%TO.P,J1,1,Pin_1*%
%TO.N,VCC*%
X173155000Y-87380000D03*
D13*
%TO.P,J1,2,Pin_2*%
%TO.N,GND*%
X175695000Y-87380000D03*
%TD*%
D14*
%TO.P,R_LED1,1*%
%TO.N,Net-(U1-AREF{slash}PB0)*%
X168560000Y-106517500D03*
%TO.P,R_LED1,2*%
%TO.N,Net-(D1-A)*%
X168560000Y-108342500D03*
%TD*%
D15*
%TO.P,U1,1,~{RESET}/PB5*%
%TO.N,unconnected-(U1-~{RESET}{slash}PB5-Pad1)*%
X170560000Y-91890000D03*
%TO.P,U1,2,XTAL1/PB3*%
%TO.N,Alcohol_out*%
X170560000Y-93160000D03*
%TO.P,U1,3,XTAL2/PB4*%
%TO.N,unconnected-(U1-XTAL2{slash}PB4-Pad3)*%
X170560000Y-94430000D03*
%TO.P,U1,4,GND*%
%TO.N,GND*%
X170560000Y-95700000D03*
%TO.P,U1,5,AREF/PB0*%
%TO.N,Net-(U1-AREF{slash}PB0)*%
X177860000Y-95700000D03*
%TO.P,U1,6,PB1*%
%TO.N,unconnected-(U1-PB1-Pad6)*%
X177860000Y-94430000D03*
%TO.P,U1,7,PB2*%
%TO.N,unconnected-(U1-PB2-Pad7)*%
X177860000Y-93160000D03*
%TO.P,U1,8,VCC*%
%TO.N,VDD_1.8V*%
X177860000Y-91890000D03*
%TD*%
D16*
%TO.P,D1,1,K*%
%TO.N,GND*%
X174950000Y-108420000D03*
%TO.P,D1,2,A*%
%TO.N,Net-(D1-A)*%
X172900000Y-108420000D03*
%TD*%
D17*
%TO.N,GND*%
X172550000Y-94160000D03*
X179870000Y-89980000D03*
%TO.N,Alcohol_out*%
X168130000Y-96220000D03*
X171620000Y-100650000D03*
%TO.N,VDD_1.8V*%
X168570000Y-89600000D03*
X181370000Y-90450000D03*
%TD*%
D18*
%TO.N,Alcohol_out*%
X170560000Y-93160000D02*
X169120000Y-93160000D01*
X168850000Y-92890000D02*
X168840000Y-92900000D01*
X168840000Y-92900000D02*
X167780000Y-92900000D01*
X168130000Y-95160000D02*
X167780000Y-94810000D01*
X167780000Y-94810000D02*
X167780000Y-92900000D01*
X168130000Y-96220000D02*
X168130000Y-95160000D01*
X172800000Y-101830000D02*
X171620000Y-100650000D01*
X176580000Y-101830000D02*
X172800000Y-101830000D01*
X169120000Y-93160000D02*
X168850000Y-92890000D01*
%TO.N,Net-(D1-A)*%
X172822500Y-108342500D02*
X172900000Y-108420000D01*
X168560000Y-108342500D02*
X172822500Y-108342500D01*
%TO.N,Net-(U1-AREF{slash}PB0)*%
X168560000Y-101690000D02*
X174550000Y-95700000D01*
X168560000Y-106430000D02*
X168560000Y-101690000D01*
X174550000Y-95700000D02*
X177860000Y-95700000D01*
%TO.N,VCC*%
X168630000Y-87390000D02*
X168240000Y-87000000D01*
X172890000Y-87620000D02*
X172660000Y-87390000D01*
%TO.N,Net-(U3-Vh+)*%
X178310000Y-99610000D02*
X180700000Y-97220000D01*
X180700000Y-94070000D02*
X180700000Y-97220000D01*
X174380000Y-99610000D02*
X178310000Y-99610000D01*
%TO.N,VDD_1.8V*%
X179450000Y-91890000D02*
X177860000Y-91890000D01*
X179717500Y-92157500D02*
X179450000Y-91890000D01*
X181370000Y-90450000D02*
X180700000Y-91120000D01*
X177860000Y-91890000D02*
X177950000Y-91980000D01*
X180700000Y-92157500D02*
X179717500Y-92157500D01*
X167780000Y-90390000D02*
X168570000Y-89600000D01*
X180700000Y-92070000D02*
X180610000Y-91980000D01*
X167780000Y-91075000D02*
X167780000Y-90390000D01*
X180700000Y-91120000D02*
X180700000Y-92070000D01*
%TD*%
%TA.AperFunction,Conductor*%
%TO.N,GND*%
G36*
X167969245Y-85828093D02*
G01*
X167994965Y-85872642D01*
X167986032Y-85923300D01*
X167946627Y-85956365D01*
X167945324Y-85956826D01*
X167915340Y-85967119D01*
X167915338Y-85967120D01*
X167703934Y-86081526D01*
X167514237Y-86229173D01*
X167514233Y-86229177D01*
X167351429Y-86406030D01*
X167219949Y-86607274D01*
X167123391Y-86827404D01*
X167064380Y-87060437D01*
X167064379Y-87060440D01*
X167044529Y-87299998D01*
X167044529Y-87300001D01*
X167064379Y-87539559D01*
X167064379Y-87539561D01*
X167064380Y-87539563D01*
X167120525Y-87761278D01*
X167123391Y-87772595D01*
X167219949Y-87992725D01*
X167351429Y-88193969D01*
X167514233Y-88370822D01*
X167514237Y-88370826D01*
X167703934Y-88518473D01*
X167915338Y-88632879D01*
X167915344Y-88632882D01*
X168142703Y-88710934D01*
X168379808Y-88750500D01*
X168379811Y-88750500D01*
X168620189Y-88750500D01*
X168620192Y-88750500D01*
X168857297Y-88710934D01*
X169084656Y-88632882D01*
X169296067Y-88518472D01*
X169485764Y-88370825D01*
X169597223Y-88249748D01*
X172104500Y-88249748D01*
X172116132Y-88308229D01*
X172116133Y-88308231D01*
X172160448Y-88374552D01*
X172226769Y-88418867D01*
X172256010Y-88424683D01*
X172285251Y-88430500D01*
X172285252Y-88430500D01*
X174024749Y-88430500D01*
X174044242Y-88426622D01*
X174083231Y-88418867D01*
X174149552Y-88374552D01*
X174193867Y-88308231D01*
X174205500Y-88249748D01*
X174205500Y-87566817D01*
X174223093Y-87518479D01*
X174267642Y-87492759D01*
X174318300Y-87501692D01*
X174351365Y-87541097D01*
X174355614Y-87560263D01*
X174360430Y-87615316D01*
X174421569Y-87843490D01*
X174421570Y-87843494D01*
X174521398Y-88057576D01*
X174656885Y-88251072D01*
X174656896Y-88251085D01*
X174823914Y-88418103D01*
X174823927Y-88418114D01*
X175017423Y-88553601D01*
X175017423Y-88553602D01*
X175231505Y-88653429D01*
X175445000Y-88710634D01*
X175445000Y-87813012D01*
X175502007Y-87845925D01*
X175629174Y-87880000D01*
X175760826Y-87880000D01*
X175887993Y-87845925D01*
X175945000Y-87813012D01*
X175945000Y-88710634D01*
X176158494Y-88653429D01*
X176372576Y-88553602D01*
X176372576Y-88553601D01*
X176566072Y-88418114D01*
X176566085Y-88418103D01*
X176733103Y-88251085D01*
X176733114Y-88251072D01*
X176868601Y-88057576D01*
X176868602Y-88057576D01*
X176968429Y-87843494D01*
X176968431Y-87843490D01*
X177025636Y-87630000D01*
X176128012Y-87630000D01*
X176160925Y-87572993D01*
X176195000Y-87445826D01*
X176195000Y-87314174D01*
X176160925Y-87187007D01*
X176128012Y-87130000D01*
X177025636Y-87130000D01*
X176968431Y-86916509D01*
X176968429Y-86916505D01*
X176868603Y-86702427D01*
X176733107Y-86508918D01*
X176566085Y-86341896D01*
X176566072Y-86341885D01*
X176372576Y-86206398D01*
X176372576Y-86206397D01*
X176158494Y-86106570D01*
X176158490Y-86106568D01*
X175945000Y-86049364D01*
X175945000Y-86946988D01*
X175887993Y-86914075D01*
X175760826Y-86880000D01*
X175629174Y-86880000D01*
X175502007Y-86914075D01*
X175445000Y-86946988D01*
X175445000Y-86049364D01*
X175231509Y-86106568D01*
X175231505Y-86106570D01*
X175017427Y-86206396D01*
X174823918Y-86341892D01*
X174656892Y-86508918D01*
X174521396Y-86702427D01*
X174421570Y-86916505D01*
X174421569Y-86916509D01*
X174360430Y-87144683D01*
X174355614Y-87199736D01*
X174333874Y-87246356D01*
X174287254Y-87268096D01*
X174237567Y-87254782D01*
X174208062Y-87212645D01*
X174205500Y-87193182D01*
X174205500Y-86510251D01*
X174193867Y-86451770D01*
X174193866Y-86451768D01*
X174149552Y-86385448D01*
X174083231Y-86341133D01*
X174083229Y-86341132D01*
X174024749Y-86329500D01*
X174024748Y-86329500D01*
X172285252Y-86329500D01*
X172285251Y-86329500D01*
X172226770Y-86341132D01*
X172226768Y-86341133D01*
X172160448Y-86385448D01*
X172116133Y-86451768D01*
X172116132Y-86451770D01*
X172104500Y-86510251D01*
X172104500Y-88249748D01*
X169597223Y-88249748D01*
X169648571Y-88193969D01*
X169780049Y-87992728D01*
X169876610Y-87772591D01*
X169935620Y-87539563D01*
X169951500Y-87347912D01*
X169955471Y-87300001D01*
X169955471Y-87299998D01*
X169935620Y-87060440D01*
X169935620Y-87060437D01*
X169876610Y-86827409D01*
X169804290Y-86662537D01*
X169780050Y-86607274D01*
X169780049Y-86607272D01*
X169648571Y-86406031D01*
X169506248Y-86251427D01*
X169485766Y-86229177D01*
X169485762Y-86229173D01*
X169296065Y-86081526D01*
X169084661Y-85967120D01*
X169084659Y-85967119D01*
X169054676Y-85956826D01*
X169014670Y-85924490D01*
X169004808Y-85874005D01*
X169029705Y-85828991D01*
X169077711Y-85810513D01*
X169079093Y-85810500D01*
X178966387Y-85810500D01*
X179014725Y-85828093D01*
X179040445Y-85872642D01*
X179041259Y-85892721D01*
X179040831Y-85897279D01*
X179580978Y-86437426D01*
X179452537Y-86523249D01*
X179313249Y-86662537D01*
X179227426Y-86790978D01*
X178687874Y-86251426D01*
X178687873Y-86251427D01*
X178640029Y-86311422D01*
X178640029Y-86311423D01*
X178508885Y-86538569D01*
X178508879Y-86538581D01*
X178413061Y-86782725D01*
X178354694Y-87038442D01*
X178335093Y-87300000D01*
X178354694Y-87561557D01*
X178413061Y-87817274D01*
X178508879Y-88061418D01*
X178508885Y-88061430D01*
X178640025Y-88288570D01*
X178640028Y-88288573D01*
X178687873Y-88348571D01*
X178687874Y-88348572D01*
X179227426Y-87809020D01*
X179313249Y-87937463D01*
X179452537Y-88076751D01*
X179580978Y-88162572D01*
X179040831Y-88702719D01*
X179040831Y-88702722D01*
X179212541Y-88819791D01*
X179212544Y-88819792D01*
X179448861Y-88933597D01*
X179699492Y-89010906D01*
X179699505Y-89010909D01*
X179958858Y-89050000D01*
X180221142Y-89050000D01*
X180480494Y-89010909D01*
X180480507Y-89010906D01*
X180731138Y-88933597D01*
X180967454Y-88819793D01*
X181139167Y-88702721D01*
X181139167Y-88702719D01*
X180599021Y-88162573D01*
X180727463Y-88076751D01*
X180866751Y-87937463D01*
X180952573Y-87809020D01*
X181492124Y-88348571D01*
X181492125Y-88348571D01*
X181539969Y-88288578D01*
X181539971Y-88288574D01*
X181671114Y-88061430D01*
X181671120Y-88061418D01*
X181764298Y-87824002D01*
X181798335Y-87785433D01*
X181849200Y-87777766D01*
X181893094Y-87804588D01*
X181909500Y-87851475D01*
X181909500Y-90027262D01*
X181891907Y-90075600D01*
X181847358Y-90101320D01*
X181796700Y-90092387D01*
X181774641Y-90073043D01*
X181762620Y-90057378D01*
X181647626Y-89969139D01*
X181513711Y-89913671D01*
X181513709Y-89913670D01*
X181370000Y-89894750D01*
X181226291Y-89913670D01*
X181226288Y-89913670D01*
X181226288Y-89913671D01*
X181092373Y-89969139D01*
X180977378Y-90057378D01*
X180889139Y-90172373D01*
X180843235Y-90283198D01*
X180833670Y-90306291D01*
X180820233Y-90408357D01*
X180814750Y-90450000D01*
X180828981Y-90558097D01*
X180817847Y-90608317D01*
X180807599Y-90621086D01*
X180478584Y-90950102D01*
X180442155Y-91013196D01*
X180442156Y-91013197D01*
X180423300Y-91083573D01*
X180423300Y-91403819D01*
X180405707Y-91452157D01*
X180372937Y-91474799D01*
X180255527Y-91515882D01*
X180255524Y-91515884D01*
X180149289Y-91594289D01*
X180070884Y-91700524D01*
X180070882Y-91700527D01*
X180025764Y-91829470D01*
X180023571Y-91828702D01*
X180000550Y-91865107D01*
X179954573Y-91880800D01*
X179863261Y-91880800D01*
X179814923Y-91863207D01*
X179810087Y-91858774D01*
X179619899Y-91668586D01*
X179619898Y-91668585D01*
X179556803Y-91632156D01*
X179556800Y-91632155D01*
X179556801Y-91632155D01*
X179512183Y-91620200D01*
X179486428Y-91613300D01*
X179486427Y-91613300D01*
X178985360Y-91613300D01*
X178937022Y-91595707D01*
X178911302Y-91551158D01*
X178910523Y-91545478D01*
X178910501Y-91545257D01*
X178898867Y-91486770D01*
X178898866Y-91486768D01*
X178854552Y-91420448D01*
X178788231Y-91376133D01*
X178788229Y-91376132D01*
X178729749Y-91364500D01*
X178729748Y-91364500D01*
X176990252Y-91364500D01*
X176990251Y-91364500D01*
X176931770Y-91376132D01*
X176931768Y-91376133D01*
X176865448Y-91420448D01*
X176821133Y-91486768D01*
X176821132Y-91486770D01*
X176809500Y-91545251D01*
X176809500Y-92234748D01*
X176821132Y-92293229D01*
X176821133Y-92293231D01*
X176865448Y-92359552D01*
X176931769Y-92403867D01*
X176961010Y-92409683D01*
X176990251Y-92415500D01*
X176990252Y-92415500D01*
X178729749Y-92415500D01*
X178749242Y-92411622D01*
X178788231Y-92403867D01*
X178854552Y-92359552D01*
X178898867Y-92293231D01*
X178910500Y-92234748D01*
X178910500Y-92234747D01*
X178910501Y-92234742D01*
X178910523Y-92234522D01*
X178910560Y-92234443D01*
X178911221Y-92231124D01*
X178912072Y-92231293D01*
X178932774Y-92188144D01*
X178979631Y-92166919D01*
X178985360Y-92166700D01*
X179304239Y-92166700D01*
X179352577Y-92184293D01*
X179357413Y-92188726D01*
X179547602Y-92378915D01*
X179610697Y-92415344D01*
X179681072Y-92434200D01*
X179954573Y-92434200D01*
X180002911Y-92451793D01*
X180023734Y-92486240D01*
X180025764Y-92485530D01*
X180070882Y-92614472D01*
X180070884Y-92614475D01*
X180149289Y-92720711D01*
X180255524Y-92799115D01*
X180255527Y-92799117D01*
X180285442Y-92809584D01*
X180380151Y-92842725D01*
X180409735Y-92845499D01*
X180409738Y-92845500D01*
X180409744Y-92845500D01*
X180990262Y-92845500D01*
X180990263Y-92845499D01*
X181019849Y-92842725D01*
X181144475Y-92799116D01*
X181250711Y-92720711D01*
X181329116Y-92614475D01*
X181372725Y-92489849D01*
X181375499Y-92460263D01*
X181375500Y-92460262D01*
X181375500Y-91854738D01*
X181375499Y-91854735D01*
X181372725Y-91825151D01*
X181329116Y-91700525D01*
X181250711Y-91594289D01*
X181144475Y-91515884D01*
X181144472Y-91515882D01*
X181027063Y-91474799D01*
X180987249Y-91442228D01*
X180976700Y-91403819D01*
X180976700Y-91265761D01*
X180994293Y-91217423D01*
X180998715Y-91212597D01*
X181198913Y-91012399D01*
X181245532Y-90990660D01*
X181261889Y-90991016D01*
X181370000Y-91005250D01*
X181513709Y-90986330D01*
X181647625Y-90930861D01*
X181762621Y-90842621D01*
X181774640Y-90826958D01*
X181818024Y-90799319D01*
X181869024Y-90806034D01*
X181903776Y-90843959D01*
X181909500Y-90872737D01*
X181909500Y-109334300D01*
X181891907Y-109382638D01*
X181847358Y-109408358D01*
X181834300Y-109409500D01*
X175958166Y-109409500D01*
X175909828Y-109391907D01*
X175884108Y-109347358D01*
X175893041Y-109296700D01*
X175894162Y-109294822D01*
X175959357Y-109189122D01*
X176014505Y-109022697D01*
X176025000Y-108919972D01*
X176025000Y-108670000D01*
X173875001Y-108670000D01*
X173875001Y-108919973D01*
X173885494Y-109022694D01*
X173885495Y-109022697D01*
X173940642Y-109189122D01*
X174005838Y-109294822D01*
X174016240Y-109345199D01*
X173991826Y-109390477D01*
X173944021Y-109409468D01*
X173941834Y-109409500D01*
X173481180Y-109409500D01*
X173432842Y-109391907D01*
X173407122Y-109347358D01*
X173416055Y-109296700D01*
X173436525Y-109273794D01*
X173437880Y-109272793D01*
X173437882Y-109272793D01*
X173547150Y-109192150D01*
X173627793Y-109082882D01*
X173672646Y-108954699D01*
X173674073Y-108939482D01*
X173675500Y-108924273D01*
X173675500Y-108170000D01*
X173875000Y-108170000D01*
X174700000Y-108170000D01*
X174700000Y-107220000D01*
X175200000Y-107220000D01*
X175200000Y-108170000D01*
X176024999Y-108170000D01*
X176024999Y-107920026D01*
X176014505Y-107817305D01*
X176014504Y-107817302D01*
X175959357Y-107650877D01*
X175867318Y-107501657D01*
X175867313Y-107501651D01*
X175743348Y-107377686D01*
X175743342Y-107377681D01*
X175594122Y-107285642D01*
X175427697Y-107230494D01*
X175427698Y-107230494D01*
X175324973Y-107220000D01*
X175200000Y-107220000D01*
X174700000Y-107220000D01*
X174575027Y-107220000D01*
X174472305Y-107230494D01*
X174472302Y-107230495D01*
X174305877Y-107285642D01*
X174156657Y-107377681D01*
X174156651Y-107377686D01*
X174032686Y-107501651D01*
X174032681Y-107501657D01*
X173940642Y-107650877D01*
X173885494Y-107817302D01*
X173875000Y-107920027D01*
X173875000Y-108170000D01*
X173675500Y-108170000D01*
X173675500Y-107915726D01*
X173672667Y-107885527D01*
X173672646Y-107885301D01*
X173627793Y-107757118D01*
X173547150Y-107647850D01*
X173437882Y-107567207D01*
X173437879Y-107567205D01*
X173340470Y-107533121D01*
X173309699Y-107522354D01*
X173309694Y-107522353D01*
X173309692Y-107522353D01*
X173279273Y-107519500D01*
X173279266Y-107519500D01*
X172520734Y-107519500D01*
X172520727Y-107519500D01*
X172490307Y-107522353D01*
X172490303Y-107522353D01*
X172490301Y-107522354D01*
X172490298Y-107522354D01*
X172490298Y-107522355D01*
X172362120Y-107567205D01*
X172362117Y-107567207D01*
X172252850Y-107647850D01*
X172172207Y-107757117D01*
X172172205Y-107757120D01*
X172127355Y-107885298D01*
X172127353Y-107885307D01*
X172124500Y-107915726D01*
X172124500Y-107990600D01*
X172106907Y-108038938D01*
X172062358Y-108064658D01*
X172049300Y-108065800D01*
X169305427Y-108065800D01*
X169257089Y-108048207D01*
X169236265Y-108013759D01*
X169234236Y-108014470D01*
X169189117Y-107885527D01*
X169189115Y-107885524D01*
X169188955Y-107885307D01*
X169110711Y-107779289D01*
X169004475Y-107700884D01*
X169004472Y-107700882D01*
X168909766Y-107667743D01*
X168879849Y-107657275D01*
X168879844Y-107657274D01*
X168879842Y-107657274D01*
X168850264Y-107654500D01*
X168850256Y-107654500D01*
X168269744Y-107654500D01*
X168269735Y-107654500D01*
X168240157Y-107657274D01*
X168240153Y-107657274D01*
X168240151Y-107657275D01*
X168240148Y-107657275D01*
X168240148Y-107657276D01*
X168115527Y-107700882D01*
X168115524Y-107700884D01*
X168009289Y-107779289D01*
X167930884Y-107885524D01*
X167930882Y-107885527D01*
X167887276Y-108010148D01*
X167887274Y-108010157D01*
X167884500Y-108039735D01*
X167884500Y-108645264D01*
X167886820Y-108670000D01*
X167887275Y-108674849D01*
X167887276Y-108674851D01*
X167930882Y-108799472D01*
X167930884Y-108799475D01*
X168009289Y-108905711D01*
X168075669Y-108954701D01*
X168115524Y-108984115D01*
X168115527Y-108984117D01*
X168145442Y-108994584D01*
X168240151Y-109027725D01*
X168269735Y-109030499D01*
X168269738Y-109030500D01*
X168269744Y-109030500D01*
X168850262Y-109030500D01*
X168850263Y-109030499D01*
X168879849Y-109027725D01*
X169004475Y-108984116D01*
X169110711Y-108905711D01*
X169189116Y-108799475D01*
X169232725Y-108674849D01*
X169232725Y-108674847D01*
X169234236Y-108670530D01*
X169236428Y-108671297D01*
X169259450Y-108634893D01*
X169305427Y-108619200D01*
X172049300Y-108619200D01*
X172097638Y-108636793D01*
X172123358Y-108681342D01*
X172124500Y-108694400D01*
X172124500Y-108924273D01*
X172127353Y-108954692D01*
X172127354Y-108954699D01*
X172127355Y-108954701D01*
X172172205Y-109082879D01*
X172172207Y-109082882D01*
X172252850Y-109192150D01*
X172362118Y-109272793D01*
X172362119Y-109272793D01*
X172363475Y-109273794D01*
X172391920Y-109316654D01*
X172386161Y-109367770D01*
X172348892Y-109403225D01*
X172318820Y-109409500D01*
X166625700Y-109409500D01*
X166577362Y-109391907D01*
X166551642Y-109347358D01*
X166550500Y-109334300D01*
X166550500Y-106820264D01*
X167884500Y-106820264D01*
X167887274Y-106849842D01*
X167887275Y-106849849D01*
X167887276Y-106849851D01*
X167930882Y-106974472D01*
X167930884Y-106974475D01*
X168009289Y-107080711D01*
X168115524Y-107159115D01*
X168115527Y-107159117D01*
X168145442Y-107169584D01*
X168240151Y-107202725D01*
X168269735Y-107205499D01*
X168269738Y-107205500D01*
X168269744Y-107205500D01*
X168850262Y-107205500D01*
X168850263Y-107205499D01*
X168879849Y-107202725D01*
X169004475Y-107159116D01*
X169110711Y-107080711D01*
X169189116Y-106974475D01*
X169232725Y-106849849D01*
X169235499Y-106820263D01*
X169235500Y-106820262D01*
X169235500Y-106214738D01*
X169235499Y-106214735D01*
X169232725Y-106185151D01*
X169189116Y-106060525D01*
X169110711Y-105954289D01*
X169004475Y-105875884D01*
X169004472Y-105875882D01*
X168887063Y-105834799D01*
X168847249Y-105802228D01*
X168836700Y-105763819D01*
X168836700Y-101835761D01*
X168854293Y-101787423D01*
X168858726Y-101782587D01*
X169991313Y-100650000D01*
X171064750Y-100650000D01*
X171083670Y-100793709D01*
X171083671Y-100793711D01*
X171139139Y-100927626D01*
X171227378Y-101042621D01*
X171342373Y-101130860D01*
X171342374Y-101130860D01*
X171342375Y-101130861D01*
X171476291Y-101186330D01*
X171620000Y-101205250D01*
X171728101Y-101191017D01*
X171778317Y-101202150D01*
X171791087Y-101212400D01*
X172630102Y-102051415D01*
X172693197Y-102087844D01*
X172763572Y-102106700D01*
X175095253Y-102106700D01*
X175143591Y-102124293D01*
X175168152Y-102163439D01*
X175202503Y-102299090D01*
X175203391Y-102302593D01*
X175203394Y-102302602D01*
X175214265Y-102327386D01*
X175217570Y-102378720D01*
X175187105Y-102420168D01*
X175137126Y-102432337D01*
X175112771Y-102425346D01*
X175011138Y-102376402D01*
X174760500Y-102299090D01*
X174620000Y-102277913D01*
X174620000Y-103040136D01*
X174468491Y-103010000D01*
X174271509Y-103010000D01*
X174120000Y-103040136D01*
X174120000Y-102277913D01*
X173979499Y-102299090D01*
X173728861Y-102376402D01*
X173492546Y-102490206D01*
X173275835Y-102637956D01*
X173083564Y-102816357D01*
X172920028Y-103021426D01*
X172920025Y-103021429D01*
X172788885Y-103248569D01*
X172788879Y-103248581D01*
X172693061Y-103492725D01*
X172634694Y-103748442D01*
X172633829Y-103760000D01*
X173400137Y-103760000D01*
X173370000Y-103911509D01*
X173370000Y-104108491D01*
X173400137Y-104260000D01*
X172633829Y-104260000D01*
X172634694Y-104271557D01*
X172693061Y-104527274D01*
X172788879Y-104771418D01*
X172788885Y-104771430D01*
X172920025Y-104998570D01*
X172920028Y-104998573D01*
X173083564Y-105203642D01*
X173275835Y-105382043D01*
X173492546Y-105529793D01*
X173728861Y-105643597D01*
X173979492Y-105720906D01*
X173979505Y-105720909D01*
X174119999Y-105742085D01*
X174120000Y-105742085D01*
X174120000Y-104979863D01*
X174271509Y-105010000D01*
X174468491Y-105010000D01*
X174620000Y-104979863D01*
X174620000Y-105742085D01*
X174760494Y-105720909D01*
X174760507Y-105720906D01*
X175011138Y-105643597D01*
X175247454Y-105529793D01*
X175464164Y-105382043D01*
X175656435Y-105203642D01*
X175819971Y-104998573D01*
X175819974Y-104998570D01*
X175951114Y-104771430D01*
X175951120Y-104771418D01*
X176046938Y-104527274D01*
X176105305Y-104271557D01*
X176106171Y-104260000D01*
X175339863Y-104260000D01*
X175370000Y-104108491D01*
X175370000Y-103911509D01*
X175339863Y-103760000D01*
X176106171Y-103760000D01*
X176105305Y-103748442D01*
X176046938Y-103492725D01*
X175964787Y-103283404D01*
X175963505Y-103231980D01*
X175995577Y-103191763D01*
X176045997Y-103181571D01*
X176059206Y-103184806D01*
X176154698Y-103217588D01*
X176222703Y-103240934D01*
X176459808Y-103280500D01*
X176459811Y-103280500D01*
X176700189Y-103280500D01*
X176700192Y-103280500D01*
X176937297Y-103240934D01*
X177164656Y-103162882D01*
X177376067Y-103048472D01*
X177565764Y-102900825D01*
X177728571Y-102723969D01*
X177860049Y-102522728D01*
X177956610Y-102302591D01*
X178015620Y-102069563D01*
X178035471Y-101830000D01*
X178015620Y-101590437D01*
X177956610Y-101357409D01*
X177889866Y-101205249D01*
X177860050Y-101137274D01*
X177733047Y-100942882D01*
X177728571Y-100936031D01*
X177565764Y-100759175D01*
X177565762Y-100759173D01*
X177376065Y-100611526D01*
X177164661Y-100497120D01*
X177164659Y-100497119D01*
X177144859Y-100490322D01*
X176937297Y-100419066D01*
X176937293Y-100419065D01*
X176937289Y-100419064D01*
X176700195Y-100379500D01*
X176700192Y-100379500D01*
X176459808Y-100379500D01*
X176459804Y-100379500D01*
X176222710Y-100419064D01*
X176222700Y-100419067D01*
X175995340Y-100497119D01*
X175995338Y-100497120D01*
X175783934Y-100611526D01*
X175594237Y-100759173D01*
X175594233Y-100759177D01*
X175431429Y-100936030D01*
X175299949Y-101137274D01*
X175203392Y-101357402D01*
X175203391Y-101357406D01*
X175168152Y-101496561D01*
X175139230Y-101539100D01*
X175095253Y-101553300D01*
X172945761Y-101553300D01*
X172897423Y-101535707D01*
X172892587Y-101531274D01*
X172182400Y-100821087D01*
X172160660Y-100774467D01*
X172161016Y-100758110D01*
X172175250Y-100650000D01*
X172156330Y-100506291D01*
X172100861Y-100372375D01*
X172100860Y-100372374D01*
X172100860Y-100372373D01*
X172012621Y-100257378D01*
X171897626Y-100169139D01*
X171763711Y-100113671D01*
X171763709Y-100113670D01*
X171620000Y-100094750D01*
X171476291Y-100113670D01*
X171476288Y-100113670D01*
X171476288Y-100113671D01*
X171342373Y-100169139D01*
X171227378Y-100257378D01*
X171139139Y-100372373D01*
X171084632Y-100503969D01*
X171083670Y-100506291D01*
X171064750Y-100650000D01*
X169991313Y-100650000D01*
X171031312Y-99610001D01*
X172924529Y-99610001D01*
X172944379Y-99849559D01*
X172944379Y-99849561D01*
X172944380Y-99849563D01*
X172953784Y-99886700D01*
X173003391Y-100082595D01*
X173099949Y-100302725D01*
X173231429Y-100503969D01*
X173394233Y-100680822D01*
X173394237Y-100680826D01*
X173583934Y-100828473D01*
X173782684Y-100936031D01*
X173795344Y-100942882D01*
X174022703Y-101020934D01*
X174259808Y-101060500D01*
X174259811Y-101060500D01*
X174500189Y-101060500D01*
X174500192Y-101060500D01*
X174737297Y-101020934D01*
X174964656Y-100942882D01*
X175176067Y-100828472D01*
X175365764Y-100680825D01*
X175528571Y-100503969D01*
X175660049Y-100302728D01*
X175756610Y-100082591D01*
X175791848Y-99943439D01*
X175820770Y-99900900D01*
X175864747Y-99886700D01*
X178346427Y-99886700D01*
X178346428Y-99886700D01*
X178416803Y-99867844D01*
X178479898Y-99831415D01*
X180921415Y-97389898D01*
X180957843Y-97326803D01*
X180957844Y-97326802D01*
X180976700Y-97256428D01*
X180976700Y-94736180D01*
X180994293Y-94687842D01*
X181027060Y-94665201D01*
X181144475Y-94624116D01*
X181250711Y-94545711D01*
X181329116Y-94439475D01*
X181372725Y-94314849D01*
X181375499Y-94285263D01*
X181375500Y-94285262D01*
X181375500Y-93679738D01*
X181375499Y-93679735D01*
X181374949Y-93673866D01*
X181372725Y-93650151D01*
X181329116Y-93525525D01*
X181250711Y-93419289D01*
X181144475Y-93340884D01*
X181144472Y-93340882D01*
X181049766Y-93307743D01*
X181019849Y-93297275D01*
X181019844Y-93297274D01*
X181019842Y-93297274D01*
X180990264Y-93294500D01*
X180990256Y-93294500D01*
X180409744Y-93294500D01*
X180409735Y-93294500D01*
X180380157Y-93297274D01*
X180380153Y-93297274D01*
X180380151Y-93297275D01*
X180380148Y-93297275D01*
X180380148Y-93297276D01*
X180255527Y-93340882D01*
X180255524Y-93340884D01*
X180149289Y-93419289D01*
X180070884Y-93525524D01*
X180070882Y-93525527D01*
X180027276Y-93650148D01*
X180027274Y-93650157D01*
X180024500Y-93679735D01*
X180024500Y-94285264D01*
X180027274Y-94314842D01*
X180027275Y-94314849D01*
X180027276Y-94314851D01*
X180070882Y-94439472D01*
X180070884Y-94439475D01*
X180149289Y-94545711D01*
X180255524Y-94624115D01*
X180255527Y-94624117D01*
X180291312Y-94636638D01*
X180372938Y-94665201D01*
X180412751Y-94697771D01*
X180423300Y-94736180D01*
X180423300Y-97074239D01*
X180405707Y-97122577D01*
X180401274Y-97127413D01*
X178217413Y-99311274D01*
X178170793Y-99333014D01*
X178164239Y-99333300D01*
X175864747Y-99333300D01*
X175816409Y-99315707D01*
X175791848Y-99276561D01*
X175787640Y-99259944D01*
X175756610Y-99137409D01*
X175660049Y-98917272D01*
X175528571Y-98716031D01*
X175365764Y-98539175D01*
X175365762Y-98539173D01*
X175176065Y-98391526D01*
X174964661Y-98277120D01*
X174964659Y-98277119D01*
X174944859Y-98270322D01*
X174737297Y-98199066D01*
X174737293Y-98199065D01*
X174737289Y-98199064D01*
X174500195Y-98159500D01*
X174500192Y-98159500D01*
X174259808Y-98159500D01*
X174259804Y-98159500D01*
X174022710Y-98199064D01*
X174022700Y-98199067D01*
X173795340Y-98277119D01*
X173795338Y-98277120D01*
X173583934Y-98391526D01*
X173394237Y-98539173D01*
X173394233Y-98539177D01*
X173231429Y-98716030D01*
X173099949Y-98917274D01*
X173003391Y-99137404D01*
X172944380Y-99370437D01*
X172944379Y-99370440D01*
X172924529Y-99609998D01*
X172924529Y-99610001D01*
X171031312Y-99610001D01*
X174642587Y-95998726D01*
X174689207Y-95976986D01*
X174695761Y-95976700D01*
X176734640Y-95976700D01*
X176782978Y-95994293D01*
X176808698Y-96038842D01*
X176809477Y-96044522D01*
X176809498Y-96044742D01*
X176821132Y-96103229D01*
X176821133Y-96103231D01*
X176865448Y-96169552D01*
X176931769Y-96213867D01*
X176961010Y-96219683D01*
X176990251Y-96225500D01*
X176990252Y-96225500D01*
X178729749Y-96225500D01*
X178757398Y-96220000D01*
X178788231Y-96213867D01*
X178854552Y-96169552D01*
X178898867Y-96103231D01*
X178910500Y-96044748D01*
X178910500Y-95355252D01*
X178898867Y-95296769D01*
X178854552Y-95230448D01*
X178788231Y-95186133D01*
X178788229Y-95186132D01*
X178729749Y-95174500D01*
X178729748Y-95174500D01*
X176990252Y-95174500D01*
X176990251Y-95174500D01*
X176931770Y-95186132D01*
X176931768Y-95186133D01*
X176865448Y-95230448D01*
X176821133Y-95296768D01*
X176821132Y-95296770D01*
X176809498Y-95355257D01*
X176809477Y-95355478D01*
X176809439Y-95355556D01*
X176808779Y-95358876D01*
X176807927Y-95358706D01*
X176787226Y-95401856D01*
X176740369Y-95423081D01*
X176734640Y-95423300D01*
X174513572Y-95423300D01*
X174494717Y-95428352D01*
X174443199Y-95442155D01*
X174443197Y-95442156D01*
X174380099Y-95478586D01*
X168338585Y-101520101D01*
X168338583Y-101520103D01*
X168302155Y-101583196D01*
X168302156Y-101583197D01*
X168283300Y-101653573D01*
X168283300Y-105763819D01*
X168265707Y-105812157D01*
X168232937Y-105834799D01*
X168115527Y-105875882D01*
X168115524Y-105875884D01*
X168009289Y-105954289D01*
X167930884Y-106060524D01*
X167930882Y-106060527D01*
X167887276Y-106185148D01*
X167887274Y-106185157D01*
X167884500Y-106214735D01*
X167884500Y-106820264D01*
X166550500Y-106820264D01*
X166550500Y-93202764D01*
X167104500Y-93202764D01*
X167106870Y-93228030D01*
X167107275Y-93232349D01*
X167107276Y-93232351D01*
X167150882Y-93356972D01*
X167150884Y-93356975D01*
X167229289Y-93463211D01*
X167335524Y-93541615D01*
X167335527Y-93541617D01*
X167371312Y-93554138D01*
X167452938Y-93582701D01*
X167492751Y-93615271D01*
X167503300Y-93653680D01*
X167503300Y-94773572D01*
X167503300Y-94846428D01*
X167522156Y-94916803D01*
X167558585Y-94979898D01*
X167558586Y-94979899D01*
X167831274Y-95252587D01*
X167853014Y-95299207D01*
X167853300Y-95305761D01*
X167853300Y-95701344D01*
X167835707Y-95749682D01*
X167823879Y-95761004D01*
X167737378Y-95827378D01*
X167649139Y-95942373D01*
X167595103Y-96072831D01*
X167593670Y-96076291D01*
X167574750Y-96220000D01*
X167593670Y-96363709D01*
X167593671Y-96363711D01*
X167649139Y-96497626D01*
X167737378Y-96612621D01*
X167852373Y-96700860D01*
X167852374Y-96700860D01*
X167852375Y-96700861D01*
X167986291Y-96756330D01*
X168130000Y-96775250D01*
X168273709Y-96756330D01*
X168407625Y-96700861D01*
X168522621Y-96612621D01*
X168610861Y-96497625D01*
X168666330Y-96363709D01*
X168685250Y-96220000D01*
X168666330Y-96076291D01*
X168614019Y-95950000D01*
X169210000Y-95950000D01*
X169210000Y-96072831D01*
X169216401Y-96132374D01*
X169216402Y-96132377D01*
X169266648Y-96267090D01*
X169266649Y-96267092D01*
X169352810Y-96382189D01*
X169467907Y-96468350D01*
X169467909Y-96468351D01*
X169602622Y-96518597D01*
X169602625Y-96518598D01*
X169662168Y-96524999D01*
X169662180Y-96525000D01*
X170310000Y-96525000D01*
X170310000Y-95950000D01*
X170810000Y-95950000D01*
X170810000Y-96525000D01*
X171457820Y-96525000D01*
X171457831Y-96524999D01*
X171517374Y-96518598D01*
X171517377Y-96518597D01*
X171652090Y-96468351D01*
X171652092Y-96468350D01*
X171767189Y-96382189D01*
X171853350Y-96267092D01*
X171853351Y-96267090D01*
X171903597Y-96132377D01*
X171903598Y-96132374D01*
X171909999Y-96072831D01*
X171910000Y-96072820D01*
X171910000Y-95950000D01*
X170810000Y-95950000D01*
X170310000Y-95950000D01*
X169210000Y-95950000D01*
X168614019Y-95950000D01*
X168610861Y-95942375D01*
X168610860Y-95942374D01*
X168610860Y-95942373D01*
X168522621Y-95827378D01*
X168436121Y-95761004D01*
X168408482Y-95717620D01*
X168406700Y-95701344D01*
X168406700Y-95450000D01*
X169210000Y-95450000D01*
X171910000Y-95450000D01*
X171910000Y-95327180D01*
X171909999Y-95327168D01*
X171903598Y-95267625D01*
X171903597Y-95267622D01*
X171853351Y-95132909D01*
X171853350Y-95132907D01*
X171767189Y-95017810D01*
X171652092Y-94931649D01*
X171652088Y-94931647D01*
X171643699Y-94928518D01*
X171604557Y-94895142D01*
X171596026Y-94844414D01*
X171597906Y-94838057D01*
X171598865Y-94833233D01*
X171598867Y-94833231D01*
X171610500Y-94774748D01*
X176809500Y-94774748D01*
X176821132Y-94833229D01*
X176821133Y-94833231D01*
X176865448Y-94899552D01*
X176931769Y-94943867D01*
X176961010Y-94949683D01*
X176990251Y-94955500D01*
X176990252Y-94955500D01*
X178729749Y-94955500D01*
X178749242Y-94951622D01*
X178788231Y-94943867D01*
X178854552Y-94899552D01*
X178898867Y-94833231D01*
X178910500Y-94774748D01*
X178910500Y-94085252D01*
X178898867Y-94026769D01*
X178854552Y-93960448D01*
X178788231Y-93916133D01*
X178788229Y-93916132D01*
X178729749Y-93904500D01*
X178729748Y-93904500D01*
X176990252Y-93904500D01*
X176990251Y-93904500D01*
X176931770Y-93916132D01*
X176931768Y-93916133D01*
X176865448Y-93960448D01*
X176821133Y-94026768D01*
X176821132Y-94026770D01*
X176809500Y-94085251D01*
X176809500Y-94774748D01*
X171610500Y-94774748D01*
X171610500Y-94085252D01*
X171598867Y-94026769D01*
X171554552Y-93960448D01*
X171488231Y-93916133D01*
X171488229Y-93916132D01*
X171429749Y-93904500D01*
X171429748Y-93904500D01*
X169690252Y-93904500D01*
X169690251Y-93904500D01*
X169631770Y-93916132D01*
X169631768Y-93916133D01*
X169565448Y-93960448D01*
X169521133Y-94026768D01*
X169521132Y-94026770D01*
X169509500Y-94085251D01*
X169509500Y-94774748D01*
X169522578Y-94840495D01*
X169520008Y-94841006D01*
X169521741Y-94880669D01*
X169490428Y-94921480D01*
X169476306Y-94928514D01*
X169467918Y-94931643D01*
X169467907Y-94931649D01*
X169352810Y-95017810D01*
X169266649Y-95132907D01*
X169266648Y-95132909D01*
X169216402Y-95267622D01*
X169216401Y-95267625D01*
X169210000Y-95327168D01*
X169210000Y-95450000D01*
X168406700Y-95450000D01*
X168406700Y-95123573D01*
X168387844Y-95053197D01*
X168387844Y-95053196D01*
X168351416Y-94990103D01*
X168078726Y-94717413D01*
X168056986Y-94670793D01*
X168056700Y-94664239D01*
X168056700Y-93653680D01*
X168074293Y-93605342D01*
X168107060Y-93582701D01*
X168224475Y-93541616D01*
X168330711Y-93463211D01*
X168409116Y-93356975D01*
X168452725Y-93232349D01*
X168452725Y-93232347D01*
X168454236Y-93228030D01*
X168456428Y-93228797D01*
X168479450Y-93192393D01*
X168525427Y-93176700D01*
X168714239Y-93176700D01*
X168762577Y-93194293D01*
X168767413Y-93198726D01*
X168950102Y-93381415D01*
X169013197Y-93417844D01*
X169083572Y-93436700D01*
X169156428Y-93436700D01*
X169434640Y-93436700D01*
X169482978Y-93454293D01*
X169508698Y-93498842D01*
X169509477Y-93504522D01*
X169509498Y-93504742D01*
X169521132Y-93563229D01*
X169521133Y-93563231D01*
X169565448Y-93629552D01*
X169631769Y-93673867D01*
X169661010Y-93679683D01*
X169690251Y-93685500D01*
X169690252Y-93685500D01*
X171429749Y-93685500D01*
X171458685Y-93679744D01*
X171488231Y-93673867D01*
X171554552Y-93629552D01*
X171598867Y-93563231D01*
X171610500Y-93504748D01*
X176809500Y-93504748D01*
X176821132Y-93563229D01*
X176821133Y-93563231D01*
X176865448Y-93629552D01*
X176931769Y-93673867D01*
X176961010Y-93679683D01*
X176990251Y-93685500D01*
X176990252Y-93685500D01*
X178729749Y-93685500D01*
X178758685Y-93679744D01*
X178788231Y-93673867D01*
X178854552Y-93629552D01*
X178898867Y-93563231D01*
X178910500Y-93504748D01*
X178910500Y-92815252D01*
X178898867Y-92756769D01*
X178854552Y-92690448D01*
X178788231Y-92646133D01*
X178788229Y-92646132D01*
X178729749Y-92634500D01*
X178729748Y-92634500D01*
X176990252Y-92634500D01*
X176990251Y-92634500D01*
X176931770Y-92646132D01*
X176931768Y-92646133D01*
X176865448Y-92690448D01*
X176821133Y-92756768D01*
X176821132Y-92756770D01*
X176809500Y-92815251D01*
X176809500Y-93504748D01*
X171610500Y-93504748D01*
X171610500Y-92815252D01*
X171598867Y-92756769D01*
X171554552Y-92690448D01*
X171488231Y-92646133D01*
X171488229Y-92646132D01*
X171429749Y-92634500D01*
X171429748Y-92634500D01*
X169690252Y-92634500D01*
X169690251Y-92634500D01*
X169631770Y-92646132D01*
X169631768Y-92646133D01*
X169565448Y-92690448D01*
X169521133Y-92756768D01*
X169521132Y-92756770D01*
X169509498Y-92815257D01*
X169509477Y-92815478D01*
X169509439Y-92815556D01*
X169508779Y-92818876D01*
X169507927Y-92818706D01*
X169487226Y-92861856D01*
X169440369Y-92883081D01*
X169434640Y-92883300D01*
X169265761Y-92883300D01*
X169217423Y-92865707D01*
X169212587Y-92861274D01*
X169019899Y-92668586D01*
X169019898Y-92668585D01*
X168956803Y-92632156D01*
X168956800Y-92632155D01*
X168956801Y-92632155D01*
X168890813Y-92614475D01*
X168886428Y-92613300D01*
X168813572Y-92613300D01*
X168785812Y-92620738D01*
X168766350Y-92623300D01*
X168525427Y-92623300D01*
X168477089Y-92605707D01*
X168456265Y-92571259D01*
X168454236Y-92571970D01*
X168409117Y-92443027D01*
X168409115Y-92443024D01*
X168402603Y-92434200D01*
X168330711Y-92336789D01*
X168224475Y-92258384D01*
X168224472Y-92258382D01*
X168156930Y-92234748D01*
X169509500Y-92234748D01*
X169521132Y-92293229D01*
X169521133Y-92293231D01*
X169565448Y-92359552D01*
X169631769Y-92403867D01*
X169661010Y-92409683D01*
X169690251Y-92415500D01*
X169690252Y-92415500D01*
X171429749Y-92415500D01*
X171449242Y-92411622D01*
X171488231Y-92403867D01*
X171554552Y-92359552D01*
X171598867Y-92293231D01*
X171610500Y-92234748D01*
X171610500Y-91545252D01*
X171607858Y-91531972D01*
X171598867Y-91486770D01*
X171598866Y-91486768D01*
X171554552Y-91420448D01*
X171488231Y-91376133D01*
X171488229Y-91376132D01*
X171429749Y-91364500D01*
X171429748Y-91364500D01*
X169690252Y-91364500D01*
X169690251Y-91364500D01*
X169631770Y-91376132D01*
X169631768Y-91376133D01*
X169565448Y-91420448D01*
X169521133Y-91486768D01*
X169521132Y-91486770D01*
X169509500Y-91545251D01*
X169509500Y-92234748D01*
X168156930Y-92234748D01*
X168129766Y-92225243D01*
X168099849Y-92214775D01*
X168099844Y-92214774D01*
X168099842Y-92214774D01*
X168070264Y-92212000D01*
X168070256Y-92212000D01*
X167489744Y-92212000D01*
X167489735Y-92212000D01*
X167460157Y-92214774D01*
X167460153Y-92214774D01*
X167460151Y-92214775D01*
X167460148Y-92214775D01*
X167460148Y-92214776D01*
X167335527Y-92258382D01*
X167335524Y-92258384D01*
X167229289Y-92336789D01*
X167150884Y-92443024D01*
X167150882Y-92443027D01*
X167107276Y-92567648D01*
X167107274Y-92567657D01*
X167104500Y-92597235D01*
X167104500Y-93202764D01*
X166550500Y-93202764D01*
X166550500Y-91377764D01*
X167104500Y-91377764D01*
X167106944Y-91403819D01*
X167107275Y-91407349D01*
X167107276Y-91407351D01*
X167150882Y-91531972D01*
X167150884Y-91531975D01*
X167229289Y-91638211D01*
X167335524Y-91716615D01*
X167335527Y-91716617D01*
X167365442Y-91727084D01*
X167460151Y-91760225D01*
X167489735Y-91762999D01*
X167489738Y-91763000D01*
X167489744Y-91763000D01*
X168070262Y-91763000D01*
X168070263Y-91762999D01*
X168099849Y-91760225D01*
X168224475Y-91716616D01*
X168330711Y-91638211D01*
X168409116Y-91531975D01*
X168452725Y-91407349D01*
X168455499Y-91377763D01*
X168455500Y-91377762D01*
X168455500Y-90772238D01*
X168455499Y-90772235D01*
X168452725Y-90742651D01*
X168409116Y-90618025D01*
X168330711Y-90511789D01*
X168239232Y-90444275D01*
X168210789Y-90401416D01*
X168216548Y-90350300D01*
X168230712Y-90330599D01*
X168398912Y-90162399D01*
X168445531Y-90140660D01*
X168461889Y-90141016D01*
X168570000Y-90155250D01*
X168713709Y-90136330D01*
X168847625Y-90080861D01*
X168962621Y-89992621D01*
X169050861Y-89877625D01*
X169106330Y-89743709D01*
X169125250Y-89600000D01*
X169106330Y-89456291D01*
X169050861Y-89322375D01*
X169050860Y-89322374D01*
X169050860Y-89322373D01*
X168962621Y-89207378D01*
X168847626Y-89119139D01*
X168713711Y-89063671D01*
X168713709Y-89063670D01*
X168570000Y-89044750D01*
X168426291Y-89063670D01*
X168426288Y-89063670D01*
X168426288Y-89063671D01*
X168292373Y-89119139D01*
X168177378Y-89207378D01*
X168089139Y-89322373D01*
X168033671Y-89456288D01*
X168033670Y-89456291D01*
X168014750Y-89600000D01*
X168028981Y-89708098D01*
X168017847Y-89758318D01*
X168007598Y-89771087D01*
X167558584Y-90220101D01*
X167522155Y-90283196D01*
X167522155Y-90283197D01*
X167522156Y-90283198D01*
X167507346Y-90338470D01*
X167477841Y-90380607D01*
X167459545Y-90389987D01*
X167335527Y-90433382D01*
X167335524Y-90433384D01*
X167229289Y-90511789D01*
X167150884Y-90618024D01*
X167150882Y-90618027D01*
X167107276Y-90742648D01*
X167107274Y-90742657D01*
X167104500Y-90772235D01*
X167104500Y-91377764D01*
X166550500Y-91377764D01*
X166550500Y-85885700D01*
X166568093Y-85837362D01*
X166612642Y-85811642D01*
X166625700Y-85810500D01*
X167920907Y-85810500D01*
X167969245Y-85828093D01*
G37*
%TD.AperFunction*%
%TA.AperFunction,Conductor*%
G36*
X181882638Y-85828093D02*
G01*
X181908358Y-85872642D01*
X181909500Y-85885700D01*
X181909500Y-86748524D01*
X181891907Y-86796862D01*
X181847358Y-86822582D01*
X181796700Y-86813649D01*
X181764298Y-86775997D01*
X181671120Y-86538581D01*
X181671114Y-86538569D01*
X181539974Y-86311429D01*
X181539971Y-86311426D01*
X181492125Y-86251427D01*
X181492124Y-86251426D01*
X180952572Y-86790977D01*
X180866751Y-86662537D01*
X180727463Y-86523249D01*
X180599020Y-86437426D01*
X181139167Y-85897279D01*
X181138740Y-85892721D01*
X181151744Y-85842952D01*
X181193696Y-85813185D01*
X181213612Y-85810500D01*
X181834300Y-85810500D01*
X181882638Y-85828093D01*
G37*
%TD.AperFunction*%
%TD*%
M02*
