%TF.GenerationSoftware,KiCad,Pcbnew,8.0.1*%
%TF.CreationDate,2025-01-22T18:21:47-07:00*%
%TF.ProjectId,AlcoholSensor_MQ,416c636f-686f-46c5-9365-6e736f725f4d,rev?*%
%TF.SameCoordinates,Original*%
%TF.FileFunction,Copper,L2,Bot*%
%TF.FilePolarity,Positive*%
%FSLAX46Y46*%
G04 Gerber Fmt 4.6, Leading zero omitted, Abs format (unit mm)*
G04 Created by KiCad (PCBNEW 8.0.1) date 2025-01-22 18:21:47*
%MOMM*%
%LPD*%
G01*
G04 APERTURE LIST*
G04 Aperture macros list*
%AMRoundRect*
0 Rectangle with rounded corners*
0 $1 Rounding radius*
0 $2 $3 $4 $5 $6 $7 $8 $9 X,Y pos of 4 corners*
0 Add a 4 corners polygon primitive as box body*
4,1,4,$2,$3,$4,$5,$6,$7,$8,$9,$2,$3,0*
0 Add four circle primitives for the rounded corners*
1,1,$1+$1,$2,$3*
1,1,$1+$1,$4,$5*
1,1,$1+$1,$6,$7*
1,1,$1+$1,$8,$9*
0 Add four rect primitives between the rounded corners*
20,1,$1+$1,$2,$3,$4,$5,0*
20,1,$1+$1,$4,$5,$6,$7,0*
20,1,$1+$1,$6,$7,$8,$9,0*
20,1,$1+$1,$8,$9,$2,$3,0*%
G04 Aperture macros list end*
%TA.AperFunction,ComponentPad*%
%ADD10C,2.500000*%
%TD*%
%TA.AperFunction,ComponentPad*%
%ADD11R,1.700000X1.700000*%
%TD*%
%TA.AperFunction,ComponentPad*%
%ADD12O,1.700000X1.700000*%
%TD*%
%TA.AperFunction,SMDPad,CuDef*%
%ADD13RoundRect,0.237500X-0.237500X0.300000X-0.237500X-0.300000X0.237500X-0.300000X0.237500X0.300000X0*%
%TD*%
%TA.AperFunction,SMDPad,CuDef*%
%ADD14R,1.003300X0.508000*%
%TD*%
%TA.AperFunction,ViaPad*%
%ADD15C,0.600000*%
%TD*%
%TA.AperFunction,Conductor*%
%ADD16C,0.152400*%
%TD*%
%TA.AperFunction,Conductor*%
%ADD17C,0.200000*%
%TD*%
G04 APERTURE END LIST*
D10*
%TO.P,H2,1,1*%
%TO.N,GND*%
X180090000Y-87300000D03*
%TD*%
%TO.P,H1,1,1*%
%TO.N,VCC*%
X168500000Y-87300000D03*
%TD*%
%TO.P,U3,1,Vh+*%
%TO.N,Net-(U3-Vh+)*%
X174380000Y-99610000D03*
%TO.P,U3,2,Vc*%
%TO.N,Alcohol_out*%
X176580000Y-101830000D03*
%TO.P,U3,3,Vh-*%
%TO.N,GND*%
X174370000Y-104010000D03*
%TD*%
D11*
%TO.P,J1,1,Pin_1*%
%TO.N,VCC*%
X173155000Y-87380000D03*
D12*
%TO.P,J1,2,Pin_2*%
%TO.N,GND*%
X175695000Y-87380000D03*
%TD*%
D13*
%TO.P,C1,1*%
%TO.N,VCC*%
X177950000Y-90630000D03*
%TO.P,C1,2*%
%TO.N,GND*%
X177950000Y-92355000D03*
%TD*%
D14*
%TO.P,U4,1,VIN*%
%TO.N,VCC*%
X175450000Y-90129998D03*
%TO.P,U4,2,GND*%
%TO.N,GND*%
X175450000Y-91079999D03*
%TO.P,U4,3,EN*%
%TO.N,VCC*%
X175450000Y-92030000D03*
%TO.P,U4,4,NC*%
%TO.N,unconnected-(U4-NC-Pad4)*%
X172744900Y-92030000D03*
%TO.P,U4,5,VOUT*%
%TO.N,VDD_1.8V*%
X172744900Y-90129998D03*
%TD*%
D13*
%TO.P,C2,1*%
%TO.N,VDD_1.8V*%
X170440000Y-90455000D03*
%TO.P,C2,2*%
%TO.N,GND*%
X170440000Y-92180000D03*
%TD*%
D15*
%TO.N,GND*%
X172550000Y-94160000D03*
X179870000Y-89980000D03*
%TO.N,Alcohol_out*%
X168130000Y-96220000D03*
X171620000Y-100650000D03*
%TO.N,VDD_1.8V*%
X168570000Y-89600000D03*
X181370000Y-90450000D03*
%TD*%
D16*
%TO.N,GND*%
X174110000Y-91820000D02*
X174110000Y-93040000D01*
X179870000Y-89980000D02*
X180610000Y-90720000D01*
X175450000Y-91079999D02*
X174850001Y-91079999D01*
X174850001Y-91079999D02*
X174110000Y-91820000D01*
X180610000Y-91370000D02*
X179450000Y-92530000D01*
X174110000Y-93040000D02*
X172990000Y-94160000D01*
X180610000Y-90720000D02*
X180610000Y-91370000D01*
X172990000Y-94160000D02*
X172550000Y-94160000D01*
X170745000Y-92355000D02*
X172550000Y-94160000D01*
X179450000Y-92530000D02*
X177950000Y-92530000D01*
X170440000Y-92355000D02*
X170745000Y-92355000D01*
%TO.N,Alcohol_out*%
X170510000Y-100650000D02*
X171620000Y-100650000D01*
X168130000Y-96220000D02*
X168130000Y-98270000D01*
X168130000Y-98270000D02*
X170510000Y-100650000D01*
D17*
%TO.N,VCC*%
X173075000Y-87300000D02*
X173155000Y-87380000D01*
D16*
X174430000Y-90129998D02*
X173155000Y-88854998D01*
X177950000Y-90455000D02*
X176675000Y-90455000D01*
X176675000Y-90455000D02*
X176349998Y-90129998D01*
X173155000Y-88854998D02*
X173155000Y-87380000D01*
X176675000Y-91725000D02*
X176675000Y-90455000D01*
X174430000Y-90129998D02*
X175450000Y-90129998D01*
X176349998Y-90129998D02*
X175450000Y-90129998D01*
X176370000Y-92030000D02*
X176675000Y-91725000D01*
X175450000Y-92030000D02*
X176370000Y-92030000D01*
D17*
X168500000Y-87300000D02*
X173075000Y-87300000D01*
D16*
%TO.N,VDD_1.8V*%
X168570000Y-89600000D02*
X169400000Y-90430000D01*
X170290000Y-90430000D02*
X170580000Y-90140000D01*
X170580000Y-90140000D02*
X172734898Y-90140000D01*
X172734898Y-90140000D02*
X172744900Y-90129998D01*
X169400000Y-90430000D02*
X170290000Y-90430000D01*
%TD*%
%TA.AperFunction,Conductor*%
%TO.N,VDD_1.8V*%
G36*
X167969245Y-85828093D02*
G01*
X167994965Y-85872642D01*
X167986032Y-85923300D01*
X167946627Y-85956365D01*
X167945324Y-85956826D01*
X167915340Y-85967119D01*
X167915338Y-85967120D01*
X167703934Y-86081526D01*
X167514237Y-86229173D01*
X167514233Y-86229177D01*
X167351429Y-86406030D01*
X167219949Y-86607274D01*
X167123391Y-86827404D01*
X167064380Y-87060437D01*
X167064379Y-87060440D01*
X167044529Y-87299998D01*
X167044529Y-87300001D01*
X167064379Y-87539559D01*
X167064379Y-87539561D01*
X167064380Y-87539563D01*
X167098854Y-87675700D01*
X167123391Y-87772595D01*
X167219949Y-87992725D01*
X167351429Y-88193969D01*
X167514233Y-88370822D01*
X167514237Y-88370826D01*
X167703934Y-88518473D01*
X167915338Y-88632879D01*
X167915344Y-88632882D01*
X168142703Y-88710934D01*
X168379808Y-88750500D01*
X168379811Y-88750500D01*
X168620189Y-88750500D01*
X168620192Y-88750500D01*
X168857297Y-88710934D01*
X169084656Y-88632882D01*
X169296067Y-88518472D01*
X169485764Y-88370825D01*
X169648571Y-88193969D01*
X169780049Y-87992728D01*
X169876610Y-87772591D01*
X169905821Y-87657239D01*
X169934743Y-87614700D01*
X169978720Y-87600500D01*
X172029300Y-87600500D01*
X172077638Y-87618093D01*
X172103358Y-87662642D01*
X172104500Y-87675700D01*
X172104500Y-88249748D01*
X172116132Y-88308229D01*
X172116133Y-88308231D01*
X172160448Y-88374552D01*
X172226769Y-88418867D01*
X172256010Y-88424683D01*
X172285251Y-88430500D01*
X172285252Y-88430500D01*
X172803100Y-88430500D01*
X172851438Y-88448093D01*
X172877158Y-88492642D01*
X172878300Y-88505700D01*
X172878300Y-88818570D01*
X172878300Y-88891426D01*
X172897156Y-88961801D01*
X172933585Y-89024896D01*
X172933586Y-89024897D01*
X173156313Y-89247624D01*
X173178053Y-89294244D01*
X173164739Y-89343931D01*
X173122602Y-89373436D01*
X173103139Y-89375998D01*
X172994900Y-89375998D01*
X172994900Y-89879998D01*
X173757539Y-89879998D01*
X173805877Y-89897591D01*
X173810713Y-89902024D01*
X174208585Y-90299896D01*
X174260102Y-90351413D01*
X174323198Y-90387842D01*
X174393572Y-90406698D01*
X174686722Y-90406698D01*
X174735060Y-90424291D01*
X174754095Y-90456443D01*
X174756649Y-90455386D01*
X174759483Y-90462229D01*
X174803798Y-90528550D01*
X174824634Y-90542472D01*
X174855051Y-90583955D01*
X174851686Y-90635285D01*
X174824635Y-90667523D01*
X174803798Y-90681447D01*
X174789094Y-90703452D01*
X174759483Y-90747767D01*
X174759482Y-90747769D01*
X174751526Y-90787768D01*
X174724839Y-90831744D01*
X174715371Y-90838221D01*
X174680102Y-90858583D01*
X173888585Y-91650101D01*
X173888583Y-91650103D01*
X173852157Y-91713194D01*
X173852156Y-91713196D01*
X173852156Y-91713197D01*
X173852156Y-91713198D01*
X173840621Y-91756251D01*
X173833300Y-91783573D01*
X173833300Y-92894238D01*
X173815707Y-92942576D01*
X173811274Y-92947412D01*
X173016801Y-93741884D01*
X172970181Y-93763624D01*
X172920494Y-93750310D01*
X172917848Y-93748370D01*
X172827626Y-93679139D01*
X172732936Y-93639918D01*
X172693709Y-93623670D01*
X172550000Y-93604750D01*
X172549999Y-93604750D01*
X172441900Y-93618981D01*
X172391680Y-93607847D01*
X172378911Y-93597598D01*
X171137526Y-92356213D01*
X171115786Y-92309593D01*
X171115531Y-92303748D01*
X172042750Y-92303748D01*
X172054382Y-92362229D01*
X172054383Y-92362231D01*
X172098698Y-92428552D01*
X172165019Y-92472867D01*
X172194260Y-92478683D01*
X172223501Y-92484500D01*
X172223502Y-92484500D01*
X173266299Y-92484500D01*
X173285792Y-92480622D01*
X173324781Y-92472867D01*
X173391102Y-92428552D01*
X173435417Y-92362231D01*
X173447050Y-92303748D01*
X173447050Y-91756252D01*
X173435417Y-91697769D01*
X173391102Y-91631448D01*
X173324781Y-91587133D01*
X173324779Y-91587132D01*
X173266299Y-91575500D01*
X173266298Y-91575500D01*
X172223502Y-91575500D01*
X172223501Y-91575500D01*
X172165020Y-91587132D01*
X172165018Y-91587133D01*
X172098698Y-91631448D01*
X172054383Y-91697768D01*
X172054382Y-91697770D01*
X172042750Y-91756251D01*
X172042750Y-92303748D01*
X171115531Y-92303748D01*
X171115500Y-92303039D01*
X171115500Y-91827238D01*
X171115499Y-91827235D01*
X171112725Y-91797651D01*
X171074556Y-91688572D01*
X171069117Y-91673027D01*
X171069115Y-91673024D01*
X171062001Y-91663384D01*
X170990711Y-91566789D01*
X170977503Y-91557041D01*
X170949060Y-91514182D01*
X170954820Y-91463066D01*
X170987909Y-91430794D01*
X170987575Y-91430252D01*
X170989997Y-91428757D01*
X170990386Y-91428379D01*
X170991309Y-91427948D01*
X171138034Y-91337447D01*
X171138038Y-91337444D01*
X171259944Y-91215538D01*
X171259947Y-91215534D01*
X171350451Y-91068805D01*
X171404679Y-90905152D01*
X171404680Y-90905150D01*
X171415000Y-90804140D01*
X171415000Y-90705000D01*
X169465001Y-90705000D01*
X169465001Y-90804141D01*
X169475320Y-90905155D01*
X169529548Y-91068805D01*
X169620052Y-91215534D01*
X169620055Y-91215538D01*
X169741961Y-91337444D01*
X169741965Y-91337447D01*
X169888697Y-91427952D01*
X169889618Y-91428382D01*
X169889979Y-91428743D01*
X169892425Y-91430252D01*
X169892067Y-91430831D01*
X169925992Y-91464754D01*
X169930477Y-91515998D01*
X169902497Y-91557041D01*
X169889289Y-91566789D01*
X169810884Y-91673024D01*
X169810882Y-91673027D01*
X169767276Y-91797648D01*
X169767274Y-91797657D01*
X169764500Y-91827235D01*
X169764500Y-92532764D01*
X169767274Y-92562342D01*
X169767275Y-92562349D01*
X169767276Y-92562351D01*
X169810882Y-92686972D01*
X169810884Y-92686975D01*
X169889289Y-92793211D01*
X169982458Y-92861972D01*
X169995524Y-92871615D01*
X169995527Y-92871617D01*
X170025442Y-92882084D01*
X170120151Y-92915225D01*
X170149735Y-92917999D01*
X170149738Y-92918000D01*
X170149744Y-92918000D01*
X170730262Y-92918000D01*
X170730263Y-92917999D01*
X170759849Y-92915225D01*
X170829377Y-92890895D01*
X170880812Y-92891536D01*
X170907388Y-92908701D01*
X171987598Y-93988911D01*
X172009338Y-94035531D01*
X172008981Y-94051900D01*
X171994750Y-94159999D01*
X171994750Y-94160000D01*
X172013670Y-94303709D01*
X172013671Y-94303711D01*
X172069139Y-94437626D01*
X172157378Y-94552621D01*
X172272373Y-94640860D01*
X172272374Y-94640860D01*
X172272375Y-94640861D01*
X172406291Y-94696330D01*
X172550000Y-94715250D01*
X172693709Y-94696330D01*
X172827625Y-94640861D01*
X172942621Y-94552621D01*
X173017363Y-94455215D01*
X173057559Y-94428358D01*
X173096803Y-94417844D01*
X173159898Y-94381415D01*
X174331415Y-93209898D01*
X174367844Y-93146803D01*
X174386700Y-93076428D01*
X174386700Y-93003572D01*
X174386700Y-92707764D01*
X177274500Y-92707764D01*
X177277274Y-92737342D01*
X177277275Y-92737349D01*
X177277276Y-92737351D01*
X177320882Y-92861972D01*
X177320884Y-92861975D01*
X177399289Y-92968211D01*
X177505524Y-93046615D01*
X177505527Y-93046617D01*
X177535442Y-93057084D01*
X177630151Y-93090225D01*
X177659735Y-93092999D01*
X177659738Y-93093000D01*
X177659744Y-93093000D01*
X178240262Y-93093000D01*
X178240263Y-93092999D01*
X178269849Y-93090225D01*
X178394475Y-93046616D01*
X178500711Y-92968211D01*
X178579116Y-92861975D01*
X178580835Y-92857063D01*
X178613406Y-92817249D01*
X178651815Y-92806700D01*
X179486427Y-92806700D01*
X179486428Y-92806700D01*
X179556803Y-92787844D01*
X179619898Y-92751415D01*
X180831415Y-91539898D01*
X180867844Y-91476803D01*
X180886700Y-91406428D01*
X180886700Y-91333572D01*
X180886700Y-90683572D01*
X180867844Y-90613198D01*
X180867844Y-90613197D01*
X180867844Y-90613196D01*
X180831416Y-90550103D01*
X180432400Y-90151087D01*
X180410660Y-90104467D01*
X180411016Y-90088110D01*
X180425250Y-89980000D01*
X180406330Y-89836291D01*
X180350861Y-89702375D01*
X180350860Y-89702374D01*
X180350860Y-89702373D01*
X180262621Y-89587378D01*
X180147626Y-89499139D01*
X180013711Y-89443671D01*
X180013709Y-89443670D01*
X179870000Y-89424750D01*
X179726291Y-89443670D01*
X179726288Y-89443670D01*
X179726288Y-89443671D01*
X179592373Y-89499139D01*
X179477378Y-89587378D01*
X179389139Y-89702373D01*
X179333671Y-89836288D01*
X179333670Y-89836291D01*
X179314750Y-89980000D01*
X179333670Y-90123709D01*
X179333671Y-90123711D01*
X179389139Y-90257626D01*
X179477378Y-90372621D01*
X179592373Y-90460860D01*
X179592374Y-90460860D01*
X179592375Y-90460861D01*
X179726291Y-90516330D01*
X179870000Y-90535250D01*
X179978101Y-90521017D01*
X180028317Y-90532150D01*
X180041087Y-90542400D01*
X180311274Y-90812587D01*
X180333014Y-90859207D01*
X180333300Y-90865761D01*
X180333300Y-91224239D01*
X180315707Y-91272577D01*
X180311274Y-91277413D01*
X179357413Y-92231274D01*
X179310793Y-92253014D01*
X179304239Y-92253300D01*
X178700700Y-92253300D01*
X178652362Y-92235707D01*
X178626642Y-92191158D01*
X178625500Y-92178100D01*
X178625500Y-92002238D01*
X178625499Y-92002235D01*
X178622725Y-91972651D01*
X178579116Y-91848025D01*
X178500711Y-91741789D01*
X178394475Y-91663384D01*
X178394472Y-91663382D01*
X178299766Y-91630243D01*
X178269849Y-91619775D01*
X178269844Y-91619774D01*
X178269842Y-91619774D01*
X178240264Y-91617000D01*
X178240256Y-91617000D01*
X177659744Y-91617000D01*
X177659735Y-91617000D01*
X177630157Y-91619774D01*
X177630153Y-91619774D01*
X177630151Y-91619775D01*
X177630148Y-91619775D01*
X177630148Y-91619776D01*
X177505527Y-91663382D01*
X177505524Y-91663384D01*
X177399289Y-91741789D01*
X177320884Y-91848024D01*
X177320882Y-91848027D01*
X177277276Y-91972648D01*
X177277274Y-91972657D01*
X177274500Y-92002235D01*
X177274500Y-92707764D01*
X174386700Y-92707764D01*
X174386700Y-91965760D01*
X174404293Y-91917422D01*
X174408715Y-91912597D01*
X174619476Y-91701835D01*
X174666096Y-91680096D01*
X174715783Y-91693410D01*
X174745288Y-91735547D01*
X174747850Y-91755010D01*
X174747850Y-92303748D01*
X174759482Y-92362229D01*
X174759483Y-92362231D01*
X174803798Y-92428552D01*
X174870119Y-92472867D01*
X174899360Y-92478683D01*
X174928601Y-92484500D01*
X174928602Y-92484500D01*
X175971399Y-92484500D01*
X175990892Y-92480622D01*
X176029881Y-92472867D01*
X176096202Y-92428552D01*
X176140517Y-92362231D01*
X176140517Y-92362226D01*
X176143351Y-92355388D01*
X176146032Y-92356498D01*
X176166215Y-92323247D01*
X176213278Y-92306700D01*
X176406427Y-92306700D01*
X176406428Y-92306700D01*
X176476803Y-92287844D01*
X176539898Y-92251415D01*
X176896415Y-91894898D01*
X176932844Y-91831803D01*
X176951700Y-91761428D01*
X176951700Y-91688572D01*
X176951700Y-90806900D01*
X176969293Y-90758562D01*
X177013842Y-90732842D01*
X177026900Y-90731700D01*
X177199300Y-90731700D01*
X177247638Y-90749293D01*
X177273358Y-90793842D01*
X177274500Y-90806900D01*
X177274500Y-90982764D01*
X177277274Y-91012342D01*
X177277275Y-91012349D01*
X177277276Y-91012351D01*
X177320882Y-91136972D01*
X177320884Y-91136975D01*
X177399289Y-91243211D01*
X177505524Y-91321615D01*
X177505527Y-91321617D01*
X177535442Y-91332084D01*
X177630151Y-91365225D01*
X177659735Y-91367999D01*
X177659738Y-91368000D01*
X177659744Y-91368000D01*
X178240262Y-91368000D01*
X178240263Y-91367999D01*
X178269849Y-91365225D01*
X178394475Y-91321616D01*
X178500711Y-91243211D01*
X178579116Y-91136975D01*
X178622725Y-91012349D01*
X178625499Y-90982763D01*
X178625500Y-90982762D01*
X178625500Y-90277238D01*
X178625499Y-90277235D01*
X178623660Y-90257625D01*
X178622725Y-90247651D01*
X178579356Y-90123711D01*
X178579117Y-90123027D01*
X178579115Y-90123024D01*
X178566446Y-90105858D01*
X178500711Y-90016789D01*
X178394475Y-89938384D01*
X178394472Y-89938382D01*
X178290565Y-89902024D01*
X178269849Y-89894775D01*
X178269844Y-89894774D01*
X178269842Y-89894774D01*
X178240264Y-89892000D01*
X178240256Y-89892000D01*
X177659744Y-89892000D01*
X177659735Y-89892000D01*
X177630157Y-89894774D01*
X177630153Y-89894774D01*
X177630151Y-89894775D01*
X177630148Y-89894775D01*
X177630148Y-89894776D01*
X177505527Y-89938382D01*
X177505524Y-89938384D01*
X177399289Y-90016789D01*
X177320884Y-90123024D01*
X177320882Y-90123027D01*
X177319165Y-90127937D01*
X177286594Y-90167751D01*
X177248185Y-90178300D01*
X176820761Y-90178300D01*
X176772423Y-90160707D01*
X176767587Y-90156274D01*
X176519897Y-89908584D01*
X176519896Y-89908583D01*
X176456801Y-89872154D01*
X176456798Y-89872153D01*
X176456799Y-89872153D01*
X176412181Y-89860198D01*
X176386426Y-89853298D01*
X176386425Y-89853298D01*
X176213278Y-89853298D01*
X176164940Y-89835705D01*
X176145904Y-89803552D01*
X176143351Y-89804610D01*
X176140517Y-89797769D01*
X176140517Y-89797767D01*
X176096202Y-89731446D01*
X176029881Y-89687131D01*
X176029879Y-89687130D01*
X175971399Y-89675498D01*
X175971398Y-89675498D01*
X174928602Y-89675498D01*
X174928601Y-89675498D01*
X174870120Y-89687130D01*
X174870118Y-89687131D01*
X174803798Y-89731446D01*
X174759483Y-89797766D01*
X174756649Y-89804610D01*
X174753967Y-89803499D01*
X174733785Y-89836751D01*
X174686722Y-89853298D01*
X174575761Y-89853298D01*
X174527423Y-89835705D01*
X174522587Y-89831272D01*
X173453726Y-88762411D01*
X173431986Y-88715791D01*
X173431700Y-88709237D01*
X173431700Y-88505700D01*
X173449293Y-88457362D01*
X173493842Y-88431642D01*
X173506900Y-88430500D01*
X174024749Y-88430500D01*
X174044242Y-88426622D01*
X174083231Y-88418867D01*
X174149552Y-88374552D01*
X174193867Y-88308231D01*
X174205500Y-88249748D01*
X174205500Y-87380000D01*
X174639417Y-87380000D01*
X174659699Y-87585932D01*
X174719765Y-87783947D01*
X174719770Y-87783959D01*
X174817312Y-87966445D01*
X174817315Y-87966450D01*
X174948590Y-88126410D01*
X175108550Y-88257685D01*
X175291046Y-88355232D01*
X175291050Y-88355233D01*
X175291052Y-88355234D01*
X175342440Y-88370822D01*
X175489066Y-88415300D01*
X175695000Y-88435583D01*
X175900934Y-88415300D01*
X176098954Y-88355232D01*
X176281450Y-88257685D01*
X176441410Y-88126410D01*
X176572685Y-87966450D01*
X176670232Y-87783954D01*
X176730300Y-87585934D01*
X176750583Y-87380000D01*
X176730300Y-87174066D01*
X176670232Y-86976046D01*
X176668410Y-86972638D01*
X176590783Y-86827409D01*
X176572685Y-86793550D01*
X176441410Y-86633590D01*
X176281450Y-86502315D01*
X176281445Y-86502312D01*
X176098959Y-86404770D01*
X176098947Y-86404765D01*
X175900932Y-86344699D01*
X175695000Y-86324417D01*
X175489067Y-86344699D01*
X175291052Y-86404765D01*
X175291040Y-86404770D01*
X175108554Y-86502312D01*
X175108549Y-86502315D01*
X174948590Y-86633590D01*
X174817315Y-86793549D01*
X174817312Y-86793554D01*
X174719770Y-86976040D01*
X174719765Y-86976052D01*
X174659699Y-87174067D01*
X174639417Y-87380000D01*
X174205500Y-87380000D01*
X174205500Y-86510252D01*
X174193867Y-86451769D01*
X174149552Y-86385448D01*
X174083231Y-86341133D01*
X174083229Y-86341132D01*
X174024749Y-86329500D01*
X174024748Y-86329500D01*
X172285252Y-86329500D01*
X172285251Y-86329500D01*
X172226770Y-86341132D01*
X172226768Y-86341133D01*
X172160448Y-86385448D01*
X172116133Y-86451768D01*
X172116132Y-86451770D01*
X172104500Y-86510251D01*
X172104500Y-86924300D01*
X172086907Y-86972638D01*
X172042358Y-86998358D01*
X172029300Y-86999500D01*
X169978720Y-86999500D01*
X169930382Y-86981907D01*
X169905821Y-86942761D01*
X169901146Y-86924300D01*
X169876610Y-86827409D01*
X169780049Y-86607272D01*
X169648571Y-86406031D01*
X169485764Y-86229175D01*
X169485762Y-86229173D01*
X169296065Y-86081526D01*
X169084661Y-85967120D01*
X169084659Y-85967119D01*
X169054676Y-85956826D01*
X169014670Y-85924490D01*
X169004808Y-85874005D01*
X169029705Y-85828991D01*
X169077711Y-85810513D01*
X169079093Y-85810500D01*
X179510907Y-85810500D01*
X179559245Y-85828093D01*
X179584965Y-85872642D01*
X179576032Y-85923300D01*
X179536627Y-85956365D01*
X179535324Y-85956826D01*
X179505340Y-85967119D01*
X179505338Y-85967120D01*
X179293934Y-86081526D01*
X179104237Y-86229173D01*
X179104233Y-86229177D01*
X178941429Y-86406030D01*
X178809949Y-86607274D01*
X178713391Y-86827404D01*
X178654380Y-87060437D01*
X178654379Y-87060440D01*
X178634529Y-87299998D01*
X178634529Y-87300001D01*
X178654379Y-87539559D01*
X178654379Y-87539561D01*
X178654380Y-87539563D01*
X178688854Y-87675700D01*
X178713391Y-87772595D01*
X178809949Y-87992725D01*
X178941429Y-88193969D01*
X179104233Y-88370822D01*
X179104237Y-88370826D01*
X179293934Y-88518473D01*
X179505338Y-88632879D01*
X179505344Y-88632882D01*
X179732703Y-88710934D01*
X179969808Y-88750500D01*
X179969811Y-88750500D01*
X180210189Y-88750500D01*
X180210192Y-88750500D01*
X180447297Y-88710934D01*
X180674656Y-88632882D01*
X180886067Y-88518472D01*
X181075764Y-88370825D01*
X181238571Y-88193969D01*
X181370049Y-87992728D01*
X181466610Y-87772591D01*
X181525620Y-87539563D01*
X181545471Y-87300000D01*
X181525620Y-87060437D01*
X181466610Y-86827409D01*
X181370049Y-86607272D01*
X181238571Y-86406031D01*
X181075764Y-86229175D01*
X181075762Y-86229173D01*
X180886065Y-86081526D01*
X180674661Y-85967120D01*
X180674659Y-85967119D01*
X180644676Y-85956826D01*
X180604670Y-85924490D01*
X180594808Y-85874005D01*
X180619705Y-85828991D01*
X180667711Y-85810513D01*
X180669093Y-85810500D01*
X181834300Y-85810500D01*
X181882638Y-85828093D01*
X181908358Y-85872642D01*
X181909500Y-85885700D01*
X181909500Y-109334300D01*
X181891907Y-109382638D01*
X181847358Y-109408358D01*
X181834300Y-109409500D01*
X166625700Y-109409500D01*
X166577362Y-109391907D01*
X166551642Y-109347358D01*
X166550500Y-109334300D01*
X166550500Y-104010001D01*
X172914529Y-104010001D01*
X172934379Y-104249559D01*
X172934380Y-104249562D01*
X172993391Y-104482595D01*
X173089949Y-104702725D01*
X173221429Y-104903969D01*
X173384233Y-105080822D01*
X173384237Y-105080826D01*
X173573934Y-105228473D01*
X173785338Y-105342879D01*
X173785344Y-105342882D01*
X174012703Y-105420934D01*
X174249808Y-105460500D01*
X174249811Y-105460500D01*
X174490189Y-105460500D01*
X174490192Y-105460500D01*
X174727297Y-105420934D01*
X174954656Y-105342882D01*
X175166067Y-105228472D01*
X175355764Y-105080825D01*
X175518571Y-104903969D01*
X175650049Y-104702728D01*
X175746610Y-104482591D01*
X175805620Y-104249563D01*
X175825471Y-104010000D01*
X175805620Y-103770437D01*
X175746610Y-103537409D01*
X175650049Y-103317272D01*
X175518571Y-103116031D01*
X175355764Y-102939175D01*
X175355762Y-102939173D01*
X175166065Y-102791526D01*
X174954661Y-102677120D01*
X174954659Y-102677119D01*
X174934859Y-102670322D01*
X174727297Y-102599066D01*
X174727293Y-102599065D01*
X174727289Y-102599064D01*
X174490195Y-102559500D01*
X174490192Y-102559500D01*
X174249808Y-102559500D01*
X174249804Y-102559500D01*
X174012710Y-102599064D01*
X174012700Y-102599067D01*
X173785340Y-102677119D01*
X173785338Y-102677120D01*
X173573934Y-102791526D01*
X173384237Y-102939173D01*
X173384233Y-102939177D01*
X173221429Y-103116030D01*
X173089949Y-103317274D01*
X172993391Y-103537404D01*
X172934380Y-103770437D01*
X172934379Y-103770440D01*
X172914529Y-104009998D01*
X172914529Y-104010001D01*
X166550500Y-104010001D01*
X166550500Y-101830001D01*
X175124529Y-101830001D01*
X175144379Y-102069559D01*
X175144380Y-102069562D01*
X175203391Y-102302595D01*
X175299949Y-102522725D01*
X175431429Y-102723969D01*
X175594233Y-102900822D01*
X175594237Y-102900826D01*
X175783934Y-103048473D01*
X175995338Y-103162879D01*
X175995344Y-103162882D01*
X176222703Y-103240934D01*
X176459808Y-103280500D01*
X176459811Y-103280500D01*
X176700189Y-103280500D01*
X176700192Y-103280500D01*
X176937297Y-103240934D01*
X177164656Y-103162882D01*
X177376067Y-103048472D01*
X177565764Y-102900825D01*
X177728571Y-102723969D01*
X177860049Y-102522728D01*
X177956610Y-102302591D01*
X178015620Y-102069563D01*
X178035471Y-101830000D01*
X178015620Y-101590437D01*
X177956610Y-101357409D01*
X177889866Y-101205249D01*
X177860050Y-101137274D01*
X177784040Y-101020932D01*
X177728571Y-100936031D01*
X177565764Y-100759175D01*
X177565762Y-100759173D01*
X177376065Y-100611526D01*
X177164661Y-100497120D01*
X177164659Y-100497119D01*
X177144859Y-100490322D01*
X176937297Y-100419066D01*
X176937293Y-100419065D01*
X176937289Y-100419064D01*
X176700195Y-100379500D01*
X176700192Y-100379500D01*
X176459808Y-100379500D01*
X176459804Y-100379500D01*
X176222710Y-100419064D01*
X176222700Y-100419067D01*
X175995340Y-100497119D01*
X175995338Y-100497120D01*
X175783934Y-100611526D01*
X175594237Y-100759173D01*
X175594233Y-100759177D01*
X175431429Y-100936030D01*
X175299949Y-101137274D01*
X175203391Y-101357404D01*
X175144380Y-101590437D01*
X175144379Y-101590440D01*
X175124529Y-101829998D01*
X175124529Y-101830001D01*
X166550500Y-101830001D01*
X166550500Y-96220000D01*
X167574750Y-96220000D01*
X167593670Y-96363709D01*
X167593671Y-96363711D01*
X167649139Y-96497626D01*
X167737378Y-96612621D01*
X167823879Y-96678995D01*
X167851517Y-96722379D01*
X167853300Y-96738655D01*
X167853300Y-98233572D01*
X167853300Y-98306428D01*
X167872156Y-98376803D01*
X167908585Y-98439898D01*
X170288585Y-100819898D01*
X170340102Y-100871415D01*
X170403198Y-100907844D01*
X170473572Y-100926700D01*
X170546428Y-100926700D01*
X171101345Y-100926700D01*
X171149683Y-100944293D01*
X171161005Y-100956121D01*
X171227378Y-101042621D01*
X171342373Y-101130860D01*
X171342374Y-101130860D01*
X171342375Y-101130861D01*
X171476291Y-101186330D01*
X171620000Y-101205250D01*
X171763709Y-101186330D01*
X171897625Y-101130861D01*
X172012621Y-101042621D01*
X172100861Y-100927625D01*
X172156330Y-100793709D01*
X172175250Y-100650000D01*
X172156330Y-100506291D01*
X172100861Y-100372375D01*
X172100860Y-100372374D01*
X172100860Y-100372373D01*
X172012621Y-100257378D01*
X171897626Y-100169139D01*
X171763711Y-100113671D01*
X171763709Y-100113670D01*
X171620000Y-100094750D01*
X171476291Y-100113670D01*
X171476288Y-100113670D01*
X171476288Y-100113671D01*
X171342373Y-100169139D01*
X171227378Y-100257378D01*
X171161005Y-100343879D01*
X171117621Y-100371517D01*
X171101345Y-100373300D01*
X170655761Y-100373300D01*
X170607423Y-100355707D01*
X170602587Y-100351274D01*
X169861314Y-99610001D01*
X172924529Y-99610001D01*
X172944379Y-99849559D01*
X172944380Y-99849562D01*
X173003391Y-100082595D01*
X173099949Y-100302725D01*
X173231429Y-100503969D01*
X173394233Y-100680822D01*
X173394237Y-100680826D01*
X173583934Y-100828473D01*
X173782684Y-100936031D01*
X173795344Y-100942882D01*
X174022703Y-101020934D01*
X174259808Y-101060500D01*
X174259811Y-101060500D01*
X174500189Y-101060500D01*
X174500192Y-101060500D01*
X174737297Y-101020934D01*
X174964656Y-100942882D01*
X175176067Y-100828472D01*
X175365764Y-100680825D01*
X175528571Y-100503969D01*
X175660049Y-100302728D01*
X175756610Y-100082591D01*
X175815620Y-99849563D01*
X175835471Y-99610000D01*
X175815620Y-99370437D01*
X175756610Y-99137409D01*
X175660049Y-98917272D01*
X175528571Y-98716031D01*
X175365764Y-98539175D01*
X175365762Y-98539173D01*
X175176065Y-98391526D01*
X174964661Y-98277120D01*
X174964659Y-98277119D01*
X174837810Y-98233572D01*
X174737297Y-98199066D01*
X174737293Y-98199065D01*
X174737289Y-98199064D01*
X174500195Y-98159500D01*
X174500192Y-98159500D01*
X174259808Y-98159500D01*
X174259804Y-98159500D01*
X174022710Y-98199064D01*
X174022700Y-98199067D01*
X173795340Y-98277119D01*
X173795338Y-98277120D01*
X173583934Y-98391526D01*
X173394237Y-98539173D01*
X173394233Y-98539177D01*
X173231429Y-98716030D01*
X173099949Y-98917274D01*
X173003391Y-99137404D01*
X172944380Y-99370437D01*
X172944379Y-99370440D01*
X172924529Y-99609998D01*
X172924529Y-99610001D01*
X169861314Y-99610001D01*
X168428726Y-98177413D01*
X168406986Y-98130793D01*
X168406700Y-98124239D01*
X168406700Y-96738655D01*
X168424293Y-96690317D01*
X168436121Y-96678995D01*
X168522621Y-96612621D01*
X168610860Y-96497626D01*
X168610859Y-96497626D01*
X168610861Y-96497625D01*
X168666330Y-96363709D01*
X168685250Y-96220000D01*
X168666330Y-96076291D01*
X168610861Y-95942375D01*
X168610860Y-95942374D01*
X168610860Y-95942373D01*
X168522621Y-95827378D01*
X168407626Y-95739139D01*
X168273711Y-95683671D01*
X168273709Y-95683670D01*
X168130000Y-95664750D01*
X167986291Y-95683670D01*
X167986288Y-95683670D01*
X167986288Y-95683671D01*
X167852373Y-95739139D01*
X167737378Y-95827378D01*
X167649139Y-95942373D01*
X167593671Y-96076288D01*
X167593670Y-96076291D01*
X167574750Y-96220000D01*
X166550500Y-96220000D01*
X166550500Y-90379998D01*
X171743250Y-90379998D01*
X171743250Y-90431829D01*
X171749651Y-90491372D01*
X171749652Y-90491375D01*
X171799898Y-90626088D01*
X171799899Y-90626090D01*
X171886060Y-90741187D01*
X172001157Y-90827348D01*
X172001159Y-90827349D01*
X172135872Y-90877595D01*
X172135875Y-90877596D01*
X172195418Y-90883997D01*
X172195430Y-90883998D01*
X172494900Y-90883998D01*
X172494900Y-90379998D01*
X172994900Y-90379998D01*
X172994900Y-90883998D01*
X173294370Y-90883998D01*
X173294381Y-90883997D01*
X173353924Y-90877596D01*
X173353927Y-90877595D01*
X173488640Y-90827349D01*
X173488642Y-90827348D01*
X173603739Y-90741187D01*
X173689900Y-90626090D01*
X173689901Y-90626088D01*
X173740147Y-90491375D01*
X173740148Y-90491372D01*
X173746549Y-90431829D01*
X173746550Y-90431818D01*
X173746550Y-90379998D01*
X172994900Y-90379998D01*
X172494900Y-90379998D01*
X171743250Y-90379998D01*
X166550500Y-90379998D01*
X166550500Y-90205000D01*
X169465000Y-90205000D01*
X170190000Y-90205000D01*
X170190000Y-89417500D01*
X170690000Y-89417500D01*
X170690000Y-90205000D01*
X171414999Y-90205000D01*
X171414999Y-90105858D01*
X171404679Y-90004844D01*
X171363309Y-89879998D01*
X171743250Y-89879998D01*
X172494900Y-89879998D01*
X172494900Y-89375998D01*
X172195418Y-89375998D01*
X172135875Y-89382399D01*
X172135872Y-89382400D01*
X172001159Y-89432646D01*
X172001157Y-89432647D01*
X171886060Y-89518808D01*
X171799899Y-89633905D01*
X171799898Y-89633907D01*
X171749652Y-89768620D01*
X171749651Y-89768623D01*
X171743250Y-89828166D01*
X171743250Y-89879998D01*
X171363309Y-89879998D01*
X171350451Y-89841194D01*
X171259947Y-89694465D01*
X171259944Y-89694461D01*
X171138038Y-89572555D01*
X171138034Y-89572552D01*
X170991304Y-89482048D01*
X170991305Y-89482048D01*
X170827652Y-89427820D01*
X170827650Y-89427819D01*
X170726641Y-89417500D01*
X170690000Y-89417500D01*
X170190000Y-89417500D01*
X170189999Y-89417499D01*
X170153359Y-89417500D01*
X170052344Y-89427820D01*
X169888694Y-89482048D01*
X169741965Y-89572552D01*
X169741961Y-89572555D01*
X169620055Y-89694461D01*
X169620052Y-89694465D01*
X169529548Y-89841194D01*
X169475320Y-90004847D01*
X169475319Y-90004849D01*
X169465000Y-90105859D01*
X169465000Y-90205000D01*
X166550500Y-90205000D01*
X166550500Y-85885700D01*
X166568093Y-85837362D01*
X166612642Y-85811642D01*
X166625700Y-85810500D01*
X167920907Y-85810500D01*
X167969245Y-85828093D01*
G37*
%TD.AperFunction*%
%TD*%
M02*
