%TF.GenerationSoftware,KiCad,Pcbnew,8.0.1*%
%TF.CreationDate,2025-01-22T19:40:40-07:00*%
%TF.ProjectId,Button,42757474-6f6e-42e6-9b69-6361645f7063,rev?*%
%TF.SameCoordinates,Original*%
%TF.FileFunction,Copper,L1,Top*%
%TF.FilePolarity,Positive*%
%FSLAX46Y46*%
G04 Gerber Fmt 4.6, Leading zero omitted, Abs format (unit mm)*
G04 Created by KiCad (PCBNEW 8.0.1) date 2025-01-22 19:40:40*
%MOMM*%
%LPD*%
G01*
G04 APERTURE LIST*
G04 Aperture macros list*
%AMRoundRect*
0 Rectangle with rounded corners*
0 $1 Rounding radius*
0 $2 $3 $4 $5 $6 $7 $8 $9 X,Y pos of 4 corners*
0 Add a 4 corners polygon primitive as box body*
4,1,4,$2,$3,$4,$5,$6,$7,$8,$9,$2,$3,0*
0 Add four circle primitives for the rounded corners*
1,1,$1+$1,$2,$3*
1,1,$1+$1,$4,$5*
1,1,$1+$1,$6,$7*
1,1,$1+$1,$8,$9*
0 Add four rect primitives between the rounded corners*
20,1,$1+$1,$2,$3,$4,$5,0*
20,1,$1+$1,$4,$5,$6,$7,0*
20,1,$1+$1,$6,$7,$8,$9,0*
20,1,$1+$1,$8,$9,$2,$3,0*%
G04 Aperture macros list end*
%TA.AperFunction,SMDPad,CuDef*%
%ADD10R,0.609600X1.320800*%
%TD*%
%TA.AperFunction,SMDPad,CuDef*%
%ADD11RoundRect,0.225000X-0.225000X-0.250000X0.225000X-0.250000X0.225000X0.250000X-0.225000X0.250000X0*%
%TD*%
%TA.AperFunction,SMDPad,CuDef*%
%ADD12R,1.549908X1.400048*%
%TD*%
%TA.AperFunction,SMDPad,CuDef*%
%ADD13RoundRect,0.200000X0.275000X-0.200000X0.275000X0.200000X-0.275000X0.200000X-0.275000X-0.200000X0*%
%TD*%
%TA.AperFunction,SMDPad,CuDef*%
%ADD14R,1.400048X1.549908*%
%TD*%
%TA.AperFunction,ComponentPad*%
%ADD15R,1.700000X1.700000*%
%TD*%
%TA.AperFunction,ComponentPad*%
%ADD16O,1.700000X1.700000*%
%TD*%
%TA.AperFunction,ViaPad*%
%ADD17C,0.600000*%
%TD*%
%TA.AperFunction,Conductor*%
%ADD18C,0.152400*%
%TD*%
G04 APERTURE END LIST*
D10*
%TO.P,U1,1,GND*%
%TO.N,GND*%
X189619999Y-70830400D03*
%TO.P,U1,2,VOUT*%
%TO.N,VDD_2.5V*%
X191520001Y-70830400D03*
%TO.P,U1,3,VIN*%
%TO.N,VCC*%
X190570000Y-68800000D03*
%TD*%
D11*
%TO.P,C2,1*%
%TO.N,VDD_2.5V*%
X194410001Y-71310400D03*
%TO.P,C2,2*%
%TO.N,GND*%
X195960001Y-71310400D03*
%TD*%
D12*
%TO.P,SW1,1,1*%
%TO.N,unconnected-(SW1-Pad1)*%
X188885002Y-74329999D03*
%TO.P,SW1,2,2*%
%TO.N,VDD_2.5V*%
X188885002Y-78830001D03*
%TO.P,SW1,3,3*%
%TO.N,Net-(R1-Pad1)*%
X196834998Y-74329999D03*
%TO.P,SW1,4,4*%
%TO.N,unconnected-(SW1-Pad4)*%
X196834998Y-78830001D03*
%TD*%
D13*
%TO.P,R3,1*%
%TO.N,Net-(R3-Pad1)*%
X199420000Y-79770000D03*
%TO.P,R3,2*%
%TO.N,LED1*%
X199420000Y-78120000D03*
%TD*%
D11*
%TO.P,C1,1*%
%TO.N,VCC*%
X194420001Y-68830400D03*
%TO.P,C1,2*%
%TO.N,GND*%
X195970001Y-68830400D03*
%TD*%
D14*
%TO.P,SW3,1,1*%
%TO.N,unconnected-(SW3-Pad1)*%
X194990000Y-90500000D03*
%TO.P,SW3,2,2*%
%TO.N,VDD_2.5V*%
X199490002Y-90500000D03*
%TO.P,SW3,3,3*%
%TO.N,Net-(R3-Pad1)*%
X194990000Y-82550004D03*
%TO.P,SW3,4,4*%
%TO.N,unconnected-(SW3-Pad4)*%
X199490002Y-82550004D03*
%TD*%
D13*
%TO.P,R2,1*%
%TO.N,Net-(R2-Pad1)*%
X186270000Y-76390000D03*
%TO.P,R2,2*%
%TO.N,LED1*%
X186270000Y-74740000D03*
%TD*%
D15*
%TO.P,J1,1,Pin_1*%
%TO.N,VCC*%
X189260000Y-65430000D03*
D16*
%TO.P,J1,2,Pin_2*%
%TO.N,GND*%
X191800000Y-65430000D03*
%TO.P,J1,3,Pin_3*%
%TO.N,LED1*%
X194340000Y-65430000D03*
%TO.P,J1,4,Pin_4*%
%TO.N,GND*%
X196880000Y-65430000D03*
%TD*%
D13*
%TO.P,R1,1*%
%TO.N,Net-(R1-Pad1)*%
X199580000Y-75320000D03*
%TO.P,R1,2*%
%TO.N,LED1*%
X199580000Y-73670000D03*
%TD*%
D12*
%TO.P,SW4,1,1*%
%TO.N,unconnected-(SW4-Pad1)*%
X197160000Y-98890002D03*
%TO.P,SW4,2,2*%
%TO.N,VDD_2.5V*%
X197160000Y-94390000D03*
%TO.P,SW4,3,3*%
%TO.N,Net-(R4-Pad1)*%
X189210004Y-98890002D03*
%TO.P,SW4,4,4*%
%TO.N,unconnected-(SW4-Pad4)*%
X189210004Y-94390000D03*
%TD*%
D14*
%TO.P,SW2,1,1*%
%TO.N,unconnected-(SW2-Pad1)*%
X186529998Y-90520000D03*
%TO.P,SW2,2,2*%
%TO.N,VDD_2.5V*%
X191030000Y-90520000D03*
%TO.P,SW2,3,3*%
%TO.N,Net-(R2-Pad1)*%
X186529998Y-82570004D03*
%TO.P,SW2,4,4*%
%TO.N,unconnected-(SW2-Pad4)*%
X191030000Y-82570004D03*
%TD*%
D13*
%TO.P,R4,1*%
%TO.N,Net-(R4-Pad1)*%
X186180000Y-98890000D03*
%TO.P,R4,2*%
%TO.N,LED1*%
X186180000Y-97240000D03*
%TD*%
D17*
%TO.N,GND*%
X187470000Y-70130000D03*
%TO.N,LED1*%
X186540000Y-72510000D03*
X186520000Y-95390000D03*
X198850000Y-71870000D03*
X195770000Y-76440000D03*
%TD*%
D18*
%TO.N,VCC*%
X190570000Y-67860000D02*
X189260000Y-66550000D01*
X194420001Y-68830400D02*
X190600400Y-68830400D01*
X190570000Y-68800000D02*
X190570000Y-67860000D01*
X190600400Y-68830400D02*
X190570000Y-68800000D01*
X189260000Y-66550000D02*
X189260000Y-65430000D01*
%TO.N,VDD_2.5V*%
X194410001Y-71310400D02*
X192750001Y-71310400D01*
X192270001Y-70830400D02*
X191520001Y-70830400D01*
X192750001Y-71310400D02*
X192270001Y-70830400D01*
%TO.N,Net-(R1-Pad1)*%
X199580000Y-75320000D02*
X198980000Y-75320000D01*
X196834998Y-74329999D02*
X197989999Y-74329999D01*
X198980000Y-75320000D02*
X197989999Y-74329999D01*
%TO.N,Net-(R2-Pad1)*%
X186330000Y-82370006D02*
X186330000Y-76450000D01*
X186529998Y-82570004D02*
X186330000Y-82370006D01*
X186330000Y-76450000D02*
X186270000Y-76390000D01*
%TO.N,Net-(R3-Pad1)*%
X194990000Y-81470000D02*
X195600000Y-80860000D01*
X198810000Y-80860000D02*
X199420000Y-80250000D01*
X194990000Y-82550004D02*
X194990000Y-81470000D01*
X198460000Y-80860000D02*
X198810000Y-80860000D01*
X195600000Y-80860000D02*
X198460000Y-80860000D01*
X199420000Y-80250000D02*
X199420000Y-79770000D01*
%TO.N,Net-(R4-Pad1)*%
X189210004Y-98890002D02*
X186180002Y-98890002D01*
X186180002Y-98890002D02*
X186180000Y-98890000D01*
%TO.N,GND*%
X188170400Y-70830400D02*
X187470000Y-70130000D01*
X196659600Y-68830400D02*
X196880000Y-68610000D01*
X195970001Y-68830400D02*
X196659600Y-68830400D01*
X195960001Y-71310400D02*
X195960001Y-68840400D01*
X189619999Y-70830400D02*
X188170400Y-70830400D01*
X196880000Y-68610000D02*
X196880000Y-65430000D01*
X195960001Y-68840400D02*
X195970001Y-68830400D01*
%TO.N,LED1*%
X186180000Y-95730000D02*
X186520000Y-95390000D01*
X186270000Y-74740000D02*
X186270000Y-73030000D01*
X199420000Y-77390000D02*
X198470000Y-76440000D01*
X198470000Y-76440000D02*
X195770000Y-76440000D01*
X186180000Y-97240000D02*
X186180000Y-95730000D01*
X186270000Y-73030000D02*
X186270000Y-72780000D01*
X199580000Y-72600000D02*
X198850000Y-71870000D01*
X186270000Y-72780000D02*
X186540000Y-72510000D01*
X199420000Y-78120000D02*
X199420000Y-77390000D01*
X199580000Y-73670000D02*
X199580000Y-72600000D01*
%TD*%
%TA.AperFunction,Conductor*%
%TO.N,VDD_2.5V*%
G36*
X201022638Y-63338093D02*
G01*
X201048358Y-63382642D01*
X201049500Y-63395700D01*
X201049500Y-100664300D01*
X201031907Y-100712638D01*
X200987358Y-100738358D01*
X200974300Y-100739500D01*
X184715700Y-100739500D01*
X184667362Y-100721907D01*
X184641642Y-100677358D01*
X184640500Y-100664300D01*
X184640500Y-99121512D01*
X185504500Y-99121512D01*
X185504501Y-99121524D01*
X185519352Y-99215301D01*
X185576951Y-99328344D01*
X185666655Y-99418048D01*
X185666657Y-99418049D01*
X185666658Y-99418050D01*
X185779694Y-99475645D01*
X185779696Y-99475646D01*
X185873481Y-99490500D01*
X186486518Y-99490499D01*
X186494646Y-99489211D01*
X186580301Y-99475647D01*
X186580302Y-99475646D01*
X186580304Y-99475646D01*
X186693342Y-99418050D01*
X186783050Y-99328342D01*
X186840646Y-99215304D01*
X186840645Y-99215304D01*
X186843333Y-99210031D01*
X186845456Y-99211112D01*
X186871218Y-99178133D01*
X186911074Y-99166702D01*
X188159350Y-99166702D01*
X188207688Y-99184295D01*
X188233408Y-99228844D01*
X188234550Y-99241902D01*
X188234550Y-99609774D01*
X188246182Y-99668255D01*
X188246183Y-99668257D01*
X188290498Y-99734578D01*
X188356819Y-99778893D01*
X188386060Y-99784709D01*
X188415301Y-99790526D01*
X188415302Y-99790526D01*
X190004707Y-99790526D01*
X190024200Y-99786648D01*
X190063189Y-99778893D01*
X190129510Y-99734578D01*
X190173825Y-99668257D01*
X190185458Y-99609774D01*
X196184546Y-99609774D01*
X196196178Y-99668255D01*
X196196179Y-99668257D01*
X196240494Y-99734578D01*
X196306815Y-99778893D01*
X196336056Y-99784709D01*
X196365297Y-99790526D01*
X196365298Y-99790526D01*
X197954703Y-99790526D01*
X197974196Y-99786648D01*
X198013185Y-99778893D01*
X198079506Y-99734578D01*
X198123821Y-99668257D01*
X198135454Y-99609774D01*
X198135454Y-98170230D01*
X198123821Y-98111747D01*
X198079506Y-98045426D01*
X198013185Y-98001111D01*
X198013183Y-98001110D01*
X197954703Y-97989478D01*
X197954702Y-97989478D01*
X196365298Y-97989478D01*
X196365297Y-97989478D01*
X196306816Y-98001110D01*
X196306814Y-98001111D01*
X196240494Y-98045426D01*
X196196179Y-98111746D01*
X196196178Y-98111748D01*
X196184546Y-98170229D01*
X196184546Y-99609774D01*
X190185458Y-99609774D01*
X190185458Y-98170230D01*
X190173825Y-98111747D01*
X190129510Y-98045426D01*
X190063189Y-98001111D01*
X190063187Y-98001110D01*
X190004707Y-97989478D01*
X190004706Y-97989478D01*
X188415302Y-97989478D01*
X188415301Y-97989478D01*
X188356820Y-98001110D01*
X188356818Y-98001111D01*
X188290498Y-98045426D01*
X188246183Y-98111746D01*
X188246182Y-98111748D01*
X188234550Y-98170229D01*
X188234550Y-98538102D01*
X188216957Y-98586440D01*
X188172408Y-98612160D01*
X188159350Y-98613302D01*
X186911075Y-98613302D01*
X186862737Y-98595709D01*
X186844856Y-98569192D01*
X186843333Y-98569969D01*
X186783048Y-98451655D01*
X186693344Y-98361951D01*
X186580304Y-98304354D01*
X186580306Y-98304354D01*
X186533411Y-98296927D01*
X186486519Y-98289500D01*
X186486517Y-98289500D01*
X185873487Y-98289500D01*
X185873475Y-98289501D01*
X185779698Y-98304352D01*
X185666655Y-98361951D01*
X185576951Y-98451655D01*
X185519354Y-98564694D01*
X185504500Y-98658479D01*
X185504500Y-99121512D01*
X184640500Y-99121512D01*
X184640500Y-97471512D01*
X185504500Y-97471512D01*
X185504501Y-97471524D01*
X185519352Y-97565301D01*
X185576951Y-97678344D01*
X185666655Y-97768048D01*
X185666657Y-97768049D01*
X185666658Y-97768050D01*
X185779694Y-97825645D01*
X185779696Y-97825646D01*
X185873481Y-97840500D01*
X186486518Y-97840499D01*
X186494646Y-97839211D01*
X186580301Y-97825647D01*
X186580302Y-97825646D01*
X186580304Y-97825646D01*
X186693342Y-97768050D01*
X186783050Y-97678342D01*
X186840646Y-97565304D01*
X186855500Y-97471519D01*
X186855499Y-97008482D01*
X186855498Y-97008475D01*
X186840647Y-96914698D01*
X186783048Y-96801655D01*
X186693344Y-96711951D01*
X186580304Y-96654354D01*
X186580305Y-96654354D01*
X186520136Y-96644824D01*
X186475145Y-96619885D01*
X186456711Y-96571862D01*
X186456700Y-96570550D01*
X186456700Y-95965700D01*
X186474293Y-95917362D01*
X186518842Y-95891642D01*
X186531900Y-95890500D01*
X186591958Y-95890500D01*
X186591961Y-95890500D01*
X186730053Y-95849953D01*
X186851128Y-95772143D01*
X186945377Y-95663373D01*
X187005165Y-95532457D01*
X187025647Y-95390000D01*
X187005165Y-95247543D01*
X186982264Y-95197398D01*
X186945377Y-95116627D01*
X186945375Y-95116624D01*
X186939438Y-95109772D01*
X188234550Y-95109772D01*
X188246182Y-95168253D01*
X188246183Y-95168255D01*
X188290498Y-95234576D01*
X188356819Y-95278891D01*
X188386060Y-95284707D01*
X188415301Y-95290524D01*
X188415302Y-95290524D01*
X190004707Y-95290524D01*
X190024200Y-95286646D01*
X190063189Y-95278891D01*
X190129510Y-95234576D01*
X190173825Y-95168255D01*
X190185458Y-95109772D01*
X190185458Y-94640000D01*
X195885046Y-94640000D01*
X195885046Y-95137855D01*
X195891447Y-95197398D01*
X195891448Y-95197401D01*
X195941694Y-95332114D01*
X195941695Y-95332116D01*
X196027856Y-95447213D01*
X196142953Y-95533374D01*
X196142955Y-95533375D01*
X196277668Y-95583621D01*
X196277671Y-95583622D01*
X196337214Y-95590023D01*
X196337226Y-95590024D01*
X196910000Y-95590024D01*
X196910000Y-94640000D01*
X197410000Y-94640000D01*
X197410000Y-95590024D01*
X197982774Y-95590024D01*
X197982785Y-95590023D01*
X198042328Y-95583622D01*
X198042331Y-95583621D01*
X198177044Y-95533375D01*
X198177046Y-95533374D01*
X198292143Y-95447213D01*
X198378304Y-95332116D01*
X198378305Y-95332114D01*
X198428551Y-95197401D01*
X198428552Y-95197398D01*
X198434953Y-95137855D01*
X198434954Y-95137844D01*
X198434954Y-94640000D01*
X197410000Y-94640000D01*
X196910000Y-94640000D01*
X195885046Y-94640000D01*
X190185458Y-94640000D01*
X190185458Y-94140000D01*
X195885046Y-94140000D01*
X196910000Y-94140000D01*
X196910000Y-93189976D01*
X197410000Y-93189976D01*
X197410000Y-94140000D01*
X198434954Y-94140000D01*
X198434954Y-93642156D01*
X198434953Y-93642144D01*
X198428552Y-93582601D01*
X198428551Y-93582598D01*
X198378305Y-93447885D01*
X198378304Y-93447883D01*
X198292143Y-93332786D01*
X198177046Y-93246625D01*
X198177044Y-93246624D01*
X198042331Y-93196378D01*
X198042328Y-93196377D01*
X197982785Y-93189976D01*
X197410000Y-93189976D01*
X196910000Y-93189976D01*
X196337214Y-93189976D01*
X196277671Y-93196377D01*
X196277668Y-93196378D01*
X196142955Y-93246624D01*
X196142953Y-93246625D01*
X196027856Y-93332786D01*
X195941695Y-93447883D01*
X195941694Y-93447885D01*
X195891448Y-93582598D01*
X195891447Y-93582601D01*
X195885046Y-93642144D01*
X195885046Y-94140000D01*
X190185458Y-94140000D01*
X190185458Y-93670228D01*
X190173825Y-93611745D01*
X190129510Y-93545424D01*
X190063189Y-93501109D01*
X190063187Y-93501108D01*
X190004707Y-93489476D01*
X190004706Y-93489476D01*
X188415302Y-93489476D01*
X188415301Y-93489476D01*
X188356820Y-93501108D01*
X188356818Y-93501109D01*
X188290498Y-93545424D01*
X188246183Y-93611744D01*
X188246182Y-93611746D01*
X188234550Y-93670227D01*
X188234550Y-95109772D01*
X186939438Y-95109772D01*
X186851127Y-95007856D01*
X186851125Y-95007855D01*
X186730051Y-94930046D01*
X186730052Y-94930046D01*
X186591963Y-94889500D01*
X186591961Y-94889500D01*
X186448039Y-94889500D01*
X186448036Y-94889500D01*
X186309948Y-94930046D01*
X186188874Y-95007855D01*
X186188872Y-95007856D01*
X186094624Y-95116624D01*
X186094622Y-95116627D01*
X186034835Y-95247540D01*
X186014353Y-95390000D01*
X186023368Y-95452703D01*
X186012832Y-95503052D01*
X186002108Y-95516578D01*
X185958586Y-95560099D01*
X185922155Y-95623199D01*
X185903300Y-95693573D01*
X185903300Y-96570550D01*
X185885707Y-96618888D01*
X185841158Y-96644608D01*
X185839863Y-96644824D01*
X185779697Y-96654352D01*
X185666655Y-96711951D01*
X185576951Y-96801655D01*
X185519354Y-96914694D01*
X185504500Y-97008479D01*
X185504500Y-97471512D01*
X184640500Y-97471512D01*
X184640500Y-91314702D01*
X185629474Y-91314702D01*
X185641106Y-91373183D01*
X185641107Y-91373185D01*
X185685422Y-91439506D01*
X185751743Y-91483821D01*
X185780984Y-91489637D01*
X185810225Y-91495454D01*
X185810226Y-91495454D01*
X187249771Y-91495454D01*
X187269264Y-91491576D01*
X187308253Y-91483821D01*
X187374574Y-91439506D01*
X187418889Y-91373185D01*
X187430522Y-91314702D01*
X187430522Y-90770000D01*
X189829976Y-90770000D01*
X189829976Y-91342785D01*
X189836377Y-91402328D01*
X189836378Y-91402331D01*
X189886624Y-91537044D01*
X189886625Y-91537046D01*
X189972786Y-91652143D01*
X190087883Y-91738304D01*
X190087885Y-91738305D01*
X190222598Y-91788551D01*
X190222601Y-91788552D01*
X190282144Y-91794953D01*
X190282156Y-91794954D01*
X190780000Y-91794954D01*
X190780000Y-90770000D01*
X191280000Y-90770000D01*
X191280000Y-91794954D01*
X191777844Y-91794954D01*
X191777855Y-91794953D01*
X191837398Y-91788552D01*
X191837401Y-91788551D01*
X191972114Y-91738305D01*
X191972116Y-91738304D01*
X192087213Y-91652143D01*
X192173374Y-91537046D01*
X192173375Y-91537044D01*
X192223621Y-91402331D01*
X192223622Y-91402328D01*
X192230023Y-91342785D01*
X192230024Y-91342774D01*
X192230024Y-91294702D01*
X194089476Y-91294702D01*
X194101108Y-91353183D01*
X194101109Y-91353185D01*
X194145424Y-91419506D01*
X194211745Y-91463821D01*
X194240986Y-91469637D01*
X194270227Y-91475454D01*
X194270228Y-91475454D01*
X195709773Y-91475454D01*
X195729266Y-91471576D01*
X195768255Y-91463821D01*
X195834576Y-91419506D01*
X195878891Y-91353185D01*
X195890524Y-91294702D01*
X195890524Y-90750000D01*
X198289978Y-90750000D01*
X198289978Y-91322785D01*
X198296379Y-91382328D01*
X198296380Y-91382331D01*
X198346626Y-91517044D01*
X198346627Y-91517046D01*
X198432788Y-91632143D01*
X198547885Y-91718304D01*
X198547887Y-91718305D01*
X198682600Y-91768551D01*
X198682603Y-91768552D01*
X198742146Y-91774953D01*
X198742158Y-91774954D01*
X199240002Y-91774954D01*
X199240002Y-90750000D01*
X199740002Y-90750000D01*
X199740002Y-91774954D01*
X200237846Y-91774954D01*
X200237857Y-91774953D01*
X200297400Y-91768552D01*
X200297403Y-91768551D01*
X200432116Y-91718305D01*
X200432118Y-91718304D01*
X200547215Y-91632143D01*
X200633376Y-91517046D01*
X200633377Y-91517044D01*
X200683623Y-91382331D01*
X200683624Y-91382328D01*
X200690025Y-91322785D01*
X200690026Y-91322774D01*
X200690026Y-90750000D01*
X199740002Y-90750000D01*
X199240002Y-90750000D01*
X198289978Y-90750000D01*
X195890524Y-90750000D01*
X195890524Y-90250000D01*
X198289978Y-90250000D01*
X199240002Y-90250000D01*
X199240002Y-89225046D01*
X199740002Y-89225046D01*
X199740002Y-90250000D01*
X200690026Y-90250000D01*
X200690026Y-89677226D01*
X200690025Y-89677214D01*
X200683624Y-89617671D01*
X200683623Y-89617668D01*
X200633377Y-89482955D01*
X200633376Y-89482953D01*
X200547215Y-89367856D01*
X200432118Y-89281695D01*
X200432116Y-89281694D01*
X200297403Y-89231448D01*
X200297400Y-89231447D01*
X200237857Y-89225046D01*
X199740002Y-89225046D01*
X199240002Y-89225046D01*
X198742146Y-89225046D01*
X198682603Y-89231447D01*
X198682600Y-89231448D01*
X198547887Y-89281694D01*
X198547885Y-89281695D01*
X198432788Y-89367856D01*
X198346627Y-89482953D01*
X198346626Y-89482955D01*
X198296380Y-89617668D01*
X198296379Y-89617671D01*
X198289978Y-89677214D01*
X198289978Y-90250000D01*
X195890524Y-90250000D01*
X195890524Y-89705298D01*
X195888918Y-89697226D01*
X195878891Y-89646816D01*
X195878890Y-89646814D01*
X195859415Y-89617668D01*
X195834576Y-89580494D01*
X195768255Y-89536179D01*
X195768253Y-89536178D01*
X195709773Y-89524546D01*
X195709772Y-89524546D01*
X194270228Y-89524546D01*
X194270227Y-89524546D01*
X194211746Y-89536178D01*
X194211744Y-89536179D01*
X194145424Y-89580494D01*
X194101109Y-89646814D01*
X194101108Y-89646816D01*
X194089476Y-89705297D01*
X194089476Y-91294702D01*
X192230024Y-91294702D01*
X192230024Y-90770000D01*
X191280000Y-90770000D01*
X190780000Y-90770000D01*
X189829976Y-90770000D01*
X187430522Y-90770000D01*
X187430522Y-90270000D01*
X189829976Y-90270000D01*
X190780000Y-90270000D01*
X190780000Y-89245046D01*
X191280000Y-89245046D01*
X191280000Y-90270000D01*
X192230024Y-90270000D01*
X192230024Y-89697226D01*
X192230023Y-89697214D01*
X192223622Y-89637671D01*
X192223621Y-89637668D01*
X192173375Y-89502955D01*
X192173374Y-89502953D01*
X192087213Y-89387856D01*
X191972116Y-89301695D01*
X191972114Y-89301694D01*
X191837401Y-89251448D01*
X191837398Y-89251447D01*
X191777855Y-89245046D01*
X191280000Y-89245046D01*
X190780000Y-89245046D01*
X190282144Y-89245046D01*
X190222601Y-89251447D01*
X190222598Y-89251448D01*
X190087885Y-89301694D01*
X190087883Y-89301695D01*
X189972786Y-89387856D01*
X189886625Y-89502953D01*
X189886624Y-89502955D01*
X189836378Y-89637668D01*
X189836377Y-89637671D01*
X189829976Y-89697214D01*
X189829976Y-90270000D01*
X187430522Y-90270000D01*
X187430522Y-89725298D01*
X187418889Y-89666815D01*
X187374574Y-89600494D01*
X187308253Y-89556179D01*
X187308251Y-89556178D01*
X187249771Y-89544546D01*
X187249770Y-89544546D01*
X185810226Y-89544546D01*
X185810225Y-89544546D01*
X185751744Y-89556178D01*
X185751742Y-89556179D01*
X185685422Y-89600494D01*
X185641107Y-89666814D01*
X185641106Y-89666816D01*
X185629474Y-89725297D01*
X185629474Y-91314702D01*
X184640500Y-91314702D01*
X184640500Y-76621512D01*
X185594500Y-76621512D01*
X185594501Y-76621524D01*
X185609352Y-76715301D01*
X185666951Y-76828344D01*
X185756655Y-76918048D01*
X185756657Y-76918049D01*
X185756658Y-76918050D01*
X185869694Y-76975645D01*
X185869696Y-76975646D01*
X185963481Y-76990500D01*
X185978098Y-76990499D01*
X186026434Y-77008090D01*
X186052157Y-77052636D01*
X186053300Y-77065699D01*
X186053300Y-81519350D01*
X186035707Y-81567688D01*
X185991158Y-81593408D01*
X185978100Y-81594550D01*
X185810225Y-81594550D01*
X185751744Y-81606182D01*
X185751742Y-81606183D01*
X185685422Y-81650498D01*
X185641107Y-81716818D01*
X185641106Y-81716820D01*
X185629474Y-81775301D01*
X185629474Y-83364706D01*
X185641106Y-83423187D01*
X185641107Y-83423189D01*
X185685422Y-83489510D01*
X185751743Y-83533825D01*
X185780984Y-83539641D01*
X185810225Y-83545458D01*
X185810226Y-83545458D01*
X187249771Y-83545458D01*
X187269264Y-83541580D01*
X187308253Y-83533825D01*
X187374574Y-83489510D01*
X187418889Y-83423189D01*
X187430522Y-83364706D01*
X190129476Y-83364706D01*
X190141108Y-83423187D01*
X190141109Y-83423189D01*
X190185424Y-83489510D01*
X190251745Y-83533825D01*
X190280986Y-83539641D01*
X190310227Y-83545458D01*
X190310228Y-83545458D01*
X191749773Y-83545458D01*
X191769266Y-83541580D01*
X191808255Y-83533825D01*
X191874576Y-83489510D01*
X191918891Y-83423189D01*
X191930524Y-83364706D01*
X191930524Y-83344706D01*
X194089476Y-83344706D01*
X194101108Y-83403187D01*
X194101109Y-83403189D01*
X194145424Y-83469510D01*
X194211745Y-83513825D01*
X194240986Y-83519641D01*
X194270227Y-83525458D01*
X194270228Y-83525458D01*
X195709773Y-83525458D01*
X195729266Y-83521580D01*
X195768255Y-83513825D01*
X195834576Y-83469510D01*
X195878891Y-83403189D01*
X195890524Y-83344706D01*
X198589478Y-83344706D01*
X198601110Y-83403187D01*
X198601111Y-83403189D01*
X198645426Y-83469510D01*
X198711747Y-83513825D01*
X198740988Y-83519641D01*
X198770229Y-83525458D01*
X198770230Y-83525458D01*
X200209775Y-83525458D01*
X200229268Y-83521580D01*
X200268257Y-83513825D01*
X200334578Y-83469510D01*
X200378893Y-83403189D01*
X200390526Y-83344706D01*
X200390526Y-81755302D01*
X200378893Y-81696819D01*
X200334578Y-81630498D01*
X200268257Y-81586183D01*
X200268255Y-81586182D01*
X200209775Y-81574550D01*
X200209774Y-81574550D01*
X198770230Y-81574550D01*
X198770229Y-81574550D01*
X198711748Y-81586182D01*
X198711746Y-81586183D01*
X198645426Y-81630498D01*
X198601111Y-81696818D01*
X198601110Y-81696820D01*
X198589478Y-81755301D01*
X198589478Y-83344706D01*
X195890524Y-83344706D01*
X195890524Y-81755302D01*
X195878891Y-81696819D01*
X195834576Y-81630498D01*
X195768255Y-81586183D01*
X195768253Y-81586182D01*
X195709773Y-81574550D01*
X195709772Y-81574550D01*
X195458311Y-81574550D01*
X195409973Y-81556957D01*
X195384253Y-81512408D01*
X195393186Y-81461750D01*
X195405137Y-81446176D01*
X195692587Y-81158726D01*
X195739207Y-81136986D01*
X195745761Y-81136700D01*
X198846427Y-81136700D01*
X198846428Y-81136700D01*
X198916803Y-81117844D01*
X198979898Y-81081415D01*
X199641415Y-80419898D01*
X199648226Y-80408099D01*
X199687631Y-80375034D01*
X199713352Y-80370499D01*
X199726513Y-80370499D01*
X199726518Y-80370499D01*
X199734646Y-80369211D01*
X199820301Y-80355647D01*
X199820302Y-80355646D01*
X199820304Y-80355646D01*
X199933342Y-80298050D01*
X200023050Y-80208342D01*
X200080646Y-80095304D01*
X200095500Y-80001519D01*
X200095499Y-79538482D01*
X200095498Y-79538475D01*
X200080647Y-79444698D01*
X200023048Y-79331655D01*
X199933344Y-79241951D01*
X199820304Y-79184354D01*
X199820306Y-79184354D01*
X199773411Y-79176927D01*
X199726519Y-79169500D01*
X199726517Y-79169500D01*
X199113487Y-79169500D01*
X199113475Y-79169501D01*
X199019698Y-79184352D01*
X198906655Y-79241951D01*
X198816951Y-79331655D01*
X198759354Y-79444694D01*
X198744500Y-79538479D01*
X198744500Y-80001512D01*
X198744501Y-80001524D01*
X198759352Y-80095301D01*
X198816951Y-80208344D01*
X198890472Y-80281865D01*
X198912212Y-80328485D01*
X198898898Y-80378172D01*
X198890473Y-80388213D01*
X198717413Y-80561274D01*
X198670792Y-80583014D01*
X198664238Y-80583300D01*
X198496428Y-80583300D01*
X195563572Y-80583300D01*
X195544717Y-80588352D01*
X195493199Y-80602155D01*
X195493197Y-80602156D01*
X195430099Y-80638586D01*
X194768585Y-81300101D01*
X194768583Y-81300103D01*
X194732155Y-81363196D01*
X194732156Y-81363197D01*
X194713300Y-81433573D01*
X194713300Y-81499350D01*
X194695707Y-81547688D01*
X194651158Y-81573408D01*
X194638100Y-81574550D01*
X194270227Y-81574550D01*
X194211746Y-81586182D01*
X194211744Y-81586183D01*
X194145424Y-81630498D01*
X194101109Y-81696818D01*
X194101108Y-81696820D01*
X194089476Y-81755301D01*
X194089476Y-83344706D01*
X191930524Y-83344706D01*
X191930524Y-81775302D01*
X191918891Y-81716819D01*
X191874576Y-81650498D01*
X191808255Y-81606183D01*
X191808253Y-81606182D01*
X191749773Y-81594550D01*
X191749772Y-81594550D01*
X190310228Y-81594550D01*
X190310227Y-81594550D01*
X190251746Y-81606182D01*
X190251744Y-81606183D01*
X190185424Y-81650498D01*
X190141109Y-81716818D01*
X190141108Y-81716820D01*
X190129476Y-81775301D01*
X190129476Y-83364706D01*
X187430522Y-83364706D01*
X187430522Y-81775302D01*
X187418889Y-81716819D01*
X187374574Y-81650498D01*
X187308253Y-81606183D01*
X187308251Y-81606182D01*
X187249771Y-81594550D01*
X187249770Y-81594550D01*
X186681900Y-81594550D01*
X186633562Y-81576957D01*
X186607842Y-81532408D01*
X186606700Y-81519350D01*
X186606700Y-79080001D01*
X187610048Y-79080001D01*
X187610048Y-79577856D01*
X187616449Y-79637399D01*
X187616450Y-79637402D01*
X187666696Y-79772115D01*
X187666697Y-79772117D01*
X187752858Y-79887214D01*
X187867955Y-79973375D01*
X187867957Y-79973376D01*
X188002670Y-80023622D01*
X188002673Y-80023623D01*
X188062216Y-80030024D01*
X188062228Y-80030025D01*
X188635002Y-80030025D01*
X188635002Y-79080001D01*
X189135002Y-79080001D01*
X189135002Y-80030025D01*
X189707776Y-80030025D01*
X189707787Y-80030024D01*
X189767330Y-80023623D01*
X189767333Y-80023622D01*
X189902046Y-79973376D01*
X189902048Y-79973375D01*
X190017145Y-79887214D01*
X190103306Y-79772117D01*
X190103307Y-79772115D01*
X190153553Y-79637402D01*
X190153554Y-79637399D01*
X190159955Y-79577856D01*
X190159956Y-79577845D01*
X190159956Y-79549773D01*
X195859544Y-79549773D01*
X195871176Y-79608254D01*
X195871177Y-79608256D01*
X195915492Y-79674577D01*
X195981813Y-79718892D01*
X196011054Y-79724708D01*
X196040295Y-79730525D01*
X196040296Y-79730525D01*
X197629701Y-79730525D01*
X197649194Y-79726647D01*
X197688183Y-79718892D01*
X197754504Y-79674577D01*
X197798819Y-79608256D01*
X197810452Y-79549773D01*
X197810452Y-78110229D01*
X197798819Y-78051746D01*
X197754504Y-77985425D01*
X197688183Y-77941110D01*
X197688181Y-77941109D01*
X197629701Y-77929477D01*
X197629700Y-77929477D01*
X196040296Y-77929477D01*
X196040295Y-77929477D01*
X195981814Y-77941109D01*
X195981812Y-77941110D01*
X195915492Y-77985425D01*
X195871177Y-78051745D01*
X195871176Y-78051747D01*
X195859544Y-78110228D01*
X195859544Y-79549773D01*
X190159956Y-79549773D01*
X190159956Y-79080001D01*
X189135002Y-79080001D01*
X188635002Y-79080001D01*
X187610048Y-79080001D01*
X186606700Y-79080001D01*
X186606700Y-78580001D01*
X187610048Y-78580001D01*
X188635002Y-78580001D01*
X188635002Y-77629977D01*
X189135002Y-77629977D01*
X189135002Y-78580001D01*
X190159956Y-78580001D01*
X190159956Y-78082157D01*
X190159955Y-78082145D01*
X190153554Y-78022602D01*
X190153553Y-78022599D01*
X190103307Y-77887886D01*
X190103306Y-77887884D01*
X190017145Y-77772787D01*
X189902048Y-77686626D01*
X189902046Y-77686625D01*
X189767333Y-77636379D01*
X189767330Y-77636378D01*
X189707787Y-77629977D01*
X189135002Y-77629977D01*
X188635002Y-77629977D01*
X188062216Y-77629977D01*
X188002673Y-77636378D01*
X188002670Y-77636379D01*
X187867957Y-77686625D01*
X187867955Y-77686626D01*
X187752858Y-77772787D01*
X187666697Y-77887884D01*
X187666696Y-77887886D01*
X187616450Y-78022599D01*
X187616449Y-78022602D01*
X187610048Y-78082145D01*
X187610048Y-78580001D01*
X186606700Y-78580001D01*
X186606700Y-77049947D01*
X186624293Y-77001609D01*
X186664899Y-76978165D01*
X186664675Y-76977476D01*
X186667918Y-76976422D01*
X186668842Y-76975889D01*
X186670141Y-76975672D01*
X186670304Y-76975646D01*
X186670306Y-76975645D01*
X186783342Y-76918050D01*
X186873050Y-76828342D01*
X186930646Y-76715304D01*
X186945500Y-76621519D01*
X186945500Y-76440000D01*
X195264353Y-76440000D01*
X195284835Y-76582459D01*
X195344622Y-76713372D01*
X195344624Y-76713375D01*
X195438869Y-76822140D01*
X195438872Y-76822143D01*
X195559947Y-76899953D01*
X195698039Y-76940500D01*
X195698042Y-76940500D01*
X195841958Y-76940500D01*
X195841961Y-76940500D01*
X195980053Y-76899953D01*
X196101128Y-76822143D01*
X196128321Y-76790760D01*
X196170005Y-76742655D01*
X196214955Y-76717645D01*
X196226837Y-76716700D01*
X198324239Y-76716700D01*
X198372577Y-76734293D01*
X198377413Y-76738726D01*
X199048662Y-77409975D01*
X199070402Y-77456595D01*
X199057088Y-77506282D01*
X199024370Y-77530493D01*
X199024969Y-77531667D01*
X198906655Y-77591951D01*
X198816951Y-77681655D01*
X198759354Y-77794694D01*
X198744500Y-77888479D01*
X198744500Y-78351512D01*
X198744501Y-78351524D01*
X198759352Y-78445301D01*
X198816951Y-78558344D01*
X198906655Y-78648048D01*
X198906657Y-78648049D01*
X198906658Y-78648050D01*
X199019694Y-78705645D01*
X199019696Y-78705646D01*
X199113481Y-78720500D01*
X199726518Y-78720499D01*
X199734646Y-78719211D01*
X199820301Y-78705647D01*
X199820302Y-78705646D01*
X199820304Y-78705646D01*
X199933342Y-78648050D01*
X200023050Y-78558342D01*
X200080646Y-78445304D01*
X200095500Y-78351519D01*
X200095499Y-77888482D01*
X200095404Y-77887884D01*
X200080647Y-77794698D01*
X200025581Y-77686626D01*
X200023050Y-77681658D01*
X200023049Y-77681657D01*
X200023048Y-77681655D01*
X199933344Y-77591951D01*
X199820304Y-77534354D01*
X199820305Y-77534354D01*
X199760136Y-77524824D01*
X199715145Y-77499885D01*
X199696711Y-77451862D01*
X199696700Y-77450550D01*
X199696700Y-77353573D01*
X199677844Y-77283197D01*
X199677844Y-77283196D01*
X199641416Y-77220103D01*
X198639899Y-76218586D01*
X198639898Y-76218585D01*
X198576803Y-76182156D01*
X198576800Y-76182155D01*
X198576801Y-76182155D01*
X198518845Y-76166627D01*
X198506428Y-76163300D01*
X198506427Y-76163300D01*
X196226837Y-76163300D01*
X196178499Y-76145707D01*
X196170005Y-76137345D01*
X196101130Y-76057859D01*
X196101125Y-76057855D01*
X195980051Y-75980046D01*
X195980052Y-75980046D01*
X195841963Y-75939500D01*
X195841961Y-75939500D01*
X195698039Y-75939500D01*
X195698036Y-75939500D01*
X195559948Y-75980046D01*
X195438874Y-76057855D01*
X195438872Y-76057856D01*
X195344624Y-76166624D01*
X195344622Y-76166627D01*
X195284835Y-76297540D01*
X195264353Y-76440000D01*
X186945500Y-76440000D01*
X186945499Y-76158482D01*
X186942152Y-76137345D01*
X186930647Y-76064698D01*
X186873048Y-75951655D01*
X186783344Y-75861951D01*
X186670304Y-75804354D01*
X186670306Y-75804354D01*
X186623411Y-75796927D01*
X186576519Y-75789500D01*
X186576517Y-75789500D01*
X185963487Y-75789500D01*
X185963475Y-75789501D01*
X185869698Y-75804352D01*
X185756655Y-75861951D01*
X185666951Y-75951655D01*
X185609354Y-76064694D01*
X185594500Y-76158479D01*
X185594500Y-76621512D01*
X184640500Y-76621512D01*
X184640500Y-74971512D01*
X185594500Y-74971512D01*
X185594501Y-74971524D01*
X185609352Y-75065301D01*
X185666951Y-75178344D01*
X185756655Y-75268048D01*
X185756657Y-75268049D01*
X185756658Y-75268050D01*
X185869694Y-75325645D01*
X185869696Y-75325646D01*
X185963481Y-75340500D01*
X186576518Y-75340499D01*
X186584646Y-75339211D01*
X186670301Y-75325647D01*
X186670302Y-75325646D01*
X186670304Y-75325646D01*
X186783342Y-75268050D01*
X186873050Y-75178342D01*
X186930646Y-75065304D01*
X186933106Y-75049771D01*
X187909548Y-75049771D01*
X187921180Y-75108252D01*
X187921181Y-75108254D01*
X187965496Y-75174575D01*
X188031817Y-75218890D01*
X188061058Y-75224706D01*
X188090299Y-75230523D01*
X188090300Y-75230523D01*
X189679705Y-75230523D01*
X189699198Y-75226645D01*
X189738187Y-75218890D01*
X189804508Y-75174575D01*
X189848823Y-75108254D01*
X189860456Y-75049771D01*
X195859544Y-75049771D01*
X195871176Y-75108252D01*
X195871177Y-75108254D01*
X195915492Y-75174575D01*
X195981813Y-75218890D01*
X196011054Y-75224706D01*
X196040295Y-75230523D01*
X196040296Y-75230523D01*
X197629701Y-75230523D01*
X197649194Y-75226645D01*
X197688183Y-75218890D01*
X197754504Y-75174575D01*
X197798819Y-75108254D01*
X197810452Y-75049771D01*
X197810452Y-74723313D01*
X197828045Y-74674975D01*
X197872594Y-74649255D01*
X197923252Y-74658188D01*
X197938826Y-74670139D01*
X198810102Y-75541415D01*
X198827602Y-75551519D01*
X198877467Y-75580310D01*
X198876739Y-75581569D01*
X198910170Y-75612190D01*
X198917748Y-75635163D01*
X198919354Y-75645305D01*
X198976951Y-75758344D01*
X199066655Y-75848048D01*
X199066657Y-75848049D01*
X199066658Y-75848050D01*
X199179694Y-75905645D01*
X199179696Y-75905646D01*
X199273481Y-75920500D01*
X199886518Y-75920499D01*
X199894646Y-75919211D01*
X199980301Y-75905647D01*
X199980302Y-75905646D01*
X199980304Y-75905646D01*
X200093342Y-75848050D01*
X200183050Y-75758342D01*
X200240646Y-75645304D01*
X200255500Y-75551519D01*
X200255499Y-75088482D01*
X200255498Y-75088475D01*
X200240647Y-74994698D01*
X200228833Y-74971512D01*
X200183050Y-74881658D01*
X200183049Y-74881657D01*
X200183048Y-74881655D01*
X200093344Y-74791951D01*
X199980304Y-74734354D01*
X199980306Y-74734354D01*
X199933411Y-74726927D01*
X199886519Y-74719500D01*
X199886517Y-74719500D01*
X199273487Y-74719500D01*
X199273475Y-74719501D01*
X199179698Y-74734352D01*
X199066655Y-74791951D01*
X199008134Y-74850473D01*
X198961514Y-74872213D01*
X198911827Y-74858899D01*
X198901786Y-74850473D01*
X198159898Y-74108585D01*
X198159897Y-74108584D01*
X198096802Y-74072155D01*
X198096799Y-74072154D01*
X198096800Y-74072154D01*
X198052182Y-74060199D01*
X198026427Y-74053299D01*
X198026426Y-74053299D01*
X197885652Y-74053299D01*
X197837314Y-74035706D01*
X197811594Y-73991157D01*
X197810452Y-73978099D01*
X197810452Y-73610226D01*
X197798819Y-73551745D01*
X197798818Y-73551743D01*
X197754504Y-73485423D01*
X197688183Y-73441108D01*
X197688181Y-73441107D01*
X197629701Y-73429475D01*
X197629700Y-73429475D01*
X196040296Y-73429475D01*
X196040295Y-73429475D01*
X195981814Y-73441107D01*
X195981812Y-73441108D01*
X195915492Y-73485423D01*
X195871177Y-73551743D01*
X195871176Y-73551745D01*
X195859544Y-73610226D01*
X195859544Y-75049771D01*
X189860456Y-75049771D01*
X189860456Y-73610227D01*
X189848823Y-73551744D01*
X189804508Y-73485423D01*
X189738187Y-73441108D01*
X189738185Y-73441107D01*
X189679705Y-73429475D01*
X189679704Y-73429475D01*
X188090300Y-73429475D01*
X188090299Y-73429475D01*
X188031818Y-73441107D01*
X188031816Y-73441108D01*
X187965496Y-73485423D01*
X187921181Y-73551743D01*
X187921180Y-73551745D01*
X187909548Y-73610226D01*
X187909548Y-75049771D01*
X186933106Y-75049771D01*
X186945500Y-74971519D01*
X186945499Y-74508482D01*
X186945498Y-74508475D01*
X186930647Y-74414698D01*
X186873048Y-74301655D01*
X186783344Y-74211951D01*
X186670304Y-74154354D01*
X186670305Y-74154354D01*
X186610136Y-74144824D01*
X186565145Y-74119885D01*
X186546711Y-74071862D01*
X186546700Y-74070550D01*
X186546700Y-73085044D01*
X186564293Y-73036706D01*
X186606838Y-73012142D01*
X186606801Y-73012015D01*
X186607327Y-73011860D01*
X186608842Y-73010986D01*
X186611200Y-73010609D01*
X186611956Y-73010500D01*
X186611961Y-73010500D01*
X186750053Y-72969953D01*
X186871128Y-72892143D01*
X186965377Y-72783373D01*
X187025165Y-72652457D01*
X187045647Y-72510000D01*
X187025165Y-72367543D01*
X187022656Y-72362050D01*
X186965377Y-72236627D01*
X186965375Y-72236624D01*
X186871127Y-72127856D01*
X186871125Y-72127855D01*
X186750051Y-72050046D01*
X186750052Y-72050046D01*
X186611963Y-72009500D01*
X186611961Y-72009500D01*
X186468039Y-72009500D01*
X186468036Y-72009500D01*
X186329948Y-72050046D01*
X186208874Y-72127855D01*
X186208872Y-72127856D01*
X186114624Y-72236624D01*
X186114622Y-72236627D01*
X186054835Y-72367540D01*
X186034353Y-72510000D01*
X186045009Y-72584118D01*
X186035699Y-72632419D01*
X186012155Y-72673196D01*
X186012156Y-72673197D01*
X185993300Y-72743573D01*
X185993300Y-74070550D01*
X185975707Y-74118888D01*
X185931158Y-74144608D01*
X185929863Y-74144824D01*
X185869697Y-74154352D01*
X185756655Y-74211951D01*
X185666951Y-74301655D01*
X185609354Y-74414694D01*
X185594500Y-74508479D01*
X185594500Y-74971512D01*
X184640500Y-74971512D01*
X184640500Y-70130000D01*
X186964353Y-70130000D01*
X186984835Y-70272459D01*
X187044622Y-70403372D01*
X187044624Y-70403375D01*
X187117802Y-70487827D01*
X187138872Y-70512143D01*
X187259947Y-70589953D01*
X187398039Y-70630500D01*
X187398042Y-70630500D01*
X187547340Y-70630500D01*
X187547340Y-70633292D01*
X187587583Y-70641703D01*
X187601125Y-70652438D01*
X188000502Y-71051815D01*
X188063597Y-71088244D01*
X188133972Y-71107100D01*
X189039499Y-71107100D01*
X189087837Y-71124693D01*
X189113557Y-71169242D01*
X189114699Y-71182300D01*
X189114699Y-71510548D01*
X189126331Y-71569029D01*
X189126332Y-71569031D01*
X189170647Y-71635352D01*
X189236968Y-71679667D01*
X189266209Y-71685483D01*
X189295450Y-71691300D01*
X189295451Y-71691300D01*
X189944548Y-71691300D01*
X189964041Y-71687422D01*
X190003030Y-71679667D01*
X190069351Y-71635352D01*
X190113666Y-71569031D01*
X190125299Y-71510548D01*
X190125299Y-71080400D01*
X190715201Y-71080400D01*
X190715201Y-71538631D01*
X190721602Y-71598174D01*
X190721603Y-71598177D01*
X190771849Y-71732890D01*
X190771850Y-71732892D01*
X190858011Y-71847989D01*
X190973108Y-71934150D01*
X190973110Y-71934151D01*
X191107823Y-71984397D01*
X191107826Y-71984398D01*
X191167369Y-71990799D01*
X191167381Y-71990800D01*
X191270001Y-71990800D01*
X191270001Y-71080400D01*
X191770001Y-71080400D01*
X191770001Y-71990800D01*
X191872621Y-71990800D01*
X191872632Y-71990799D01*
X191932175Y-71984398D01*
X191932178Y-71984397D01*
X192066891Y-71934151D01*
X192066893Y-71934150D01*
X192181990Y-71847989D01*
X192268151Y-71732892D01*
X192268152Y-71732890D01*
X192318398Y-71598177D01*
X192318399Y-71598174D01*
X192322460Y-71560400D01*
X193460002Y-71560400D01*
X193460002Y-71608709D01*
X193470146Y-71708010D01*
X193523455Y-71868886D01*
X193612425Y-72013128D01*
X193612428Y-72013132D01*
X193732268Y-72132972D01*
X193732272Y-72132975D01*
X193876515Y-72221945D01*
X193876514Y-72221945D01*
X194037393Y-72275255D01*
X194037392Y-72275255D01*
X194136691Y-72285399D01*
X194160000Y-72285399D01*
X194660001Y-72285399D01*
X194683310Y-72285399D01*
X194782611Y-72275254D01*
X194943487Y-72221945D01*
X195087729Y-72132975D01*
X195087733Y-72132972D01*
X195207573Y-72013132D01*
X195207576Y-72013128D01*
X195296544Y-71868890D01*
X195297327Y-71867211D01*
X195297987Y-71866550D01*
X195298847Y-71865157D01*
X195299176Y-71865360D01*
X195333695Y-71830832D01*
X195384938Y-71826341D01*
X195418660Y-71845808D01*
X195481778Y-71908926D01*
X195481780Y-71908927D01*
X195481781Y-71908928D01*
X195601873Y-71970118D01*
X195601875Y-71970119D01*
X195701513Y-71985900D01*
X195701517Y-71985900D01*
X196218485Y-71985900D01*
X196218489Y-71985900D01*
X196318127Y-71970119D01*
X196438221Y-71908928D01*
X196477149Y-71870000D01*
X198344353Y-71870000D01*
X198364835Y-72012459D01*
X198424622Y-72143372D01*
X198424624Y-72143375D01*
X198492705Y-72221945D01*
X198518872Y-72252143D01*
X198639947Y-72329953D01*
X198778039Y-72370500D01*
X198778042Y-72370500D01*
X198927340Y-72370500D01*
X198927340Y-72373292D01*
X198967583Y-72381703D01*
X198981125Y-72392438D01*
X199281274Y-72692587D01*
X199303014Y-72739207D01*
X199303300Y-72745761D01*
X199303300Y-73000550D01*
X199285707Y-73048888D01*
X199241158Y-73074608D01*
X199239863Y-73074824D01*
X199179697Y-73084352D01*
X199066655Y-73141951D01*
X198976951Y-73231655D01*
X198919354Y-73344694D01*
X198904500Y-73438479D01*
X198904500Y-73901512D01*
X198904501Y-73901524D01*
X198919352Y-73995301D01*
X198976951Y-74108344D01*
X199066655Y-74198048D01*
X199066657Y-74198049D01*
X199066658Y-74198050D01*
X199179694Y-74255645D01*
X199179696Y-74255646D01*
X199273481Y-74270500D01*
X199886518Y-74270499D01*
X199894646Y-74269211D01*
X199980301Y-74255647D01*
X199980302Y-74255646D01*
X199980304Y-74255646D01*
X200093342Y-74198050D01*
X200183050Y-74108342D01*
X200240646Y-73995304D01*
X200255500Y-73901519D01*
X200255499Y-73438482D01*
X200254073Y-73429475D01*
X200240647Y-73344698D01*
X200183048Y-73231655D01*
X200093344Y-73141951D01*
X199980304Y-73084354D01*
X199980305Y-73084354D01*
X199920136Y-73074824D01*
X199875145Y-73049885D01*
X199856711Y-73001862D01*
X199856700Y-73000550D01*
X199856700Y-72563572D01*
X199855364Y-72558585D01*
X199837844Y-72493197D01*
X199801415Y-72430102D01*
X199367891Y-71996578D01*
X199346151Y-71949958D01*
X199346630Y-71932705D01*
X199355647Y-71870000D01*
X199335165Y-71727543D01*
X199326244Y-71708010D01*
X199275377Y-71596627D01*
X199275375Y-71596624D01*
X199181127Y-71487856D01*
X199181125Y-71487855D01*
X199060051Y-71410046D01*
X199060052Y-71410046D01*
X198921963Y-71369500D01*
X198921961Y-71369500D01*
X198778039Y-71369500D01*
X198778036Y-71369500D01*
X198639948Y-71410046D01*
X198518874Y-71487855D01*
X198518872Y-71487856D01*
X198424624Y-71596624D01*
X198424622Y-71596627D01*
X198364835Y-71727540D01*
X198344353Y-71870000D01*
X196477149Y-71870000D01*
X196533529Y-71813620D01*
X196594720Y-71693526D01*
X196610501Y-71593888D01*
X196610501Y-71026912D01*
X196594720Y-70927274D01*
X196533529Y-70807180D01*
X196533528Y-70807179D01*
X196533527Y-70807177D01*
X196438223Y-70711873D01*
X196318130Y-70650682D01*
X196318127Y-70650681D01*
X196311336Y-70649605D01*
X196300135Y-70647831D01*
X196255145Y-70622891D01*
X196236712Y-70574867D01*
X196236701Y-70573557D01*
X196236701Y-69568825D01*
X196254294Y-69520487D01*
X196298843Y-69494767D01*
X196300051Y-69494565D01*
X196328127Y-69490119D01*
X196448221Y-69428928D01*
X196543529Y-69333620D01*
X196604720Y-69213526D01*
X196611529Y-69170536D01*
X196636468Y-69125546D01*
X196684491Y-69107111D01*
X196685803Y-69107100D01*
X196696027Y-69107100D01*
X196696028Y-69107100D01*
X196766403Y-69088244D01*
X196829498Y-69051815D01*
X197101415Y-68779898D01*
X197137844Y-68716803D01*
X197156700Y-68646428D01*
X197156700Y-68573572D01*
X197156700Y-66499605D01*
X197174293Y-66451267D01*
X197210071Y-66427643D01*
X197237578Y-66419299D01*
X197283952Y-66405233D01*
X197283954Y-66405232D01*
X197466450Y-66307685D01*
X197626410Y-66176410D01*
X197757685Y-66016450D01*
X197855232Y-65833954D01*
X197915300Y-65635934D01*
X197935583Y-65430000D01*
X197915300Y-65224066D01*
X197855232Y-65026046D01*
X197757685Y-64843550D01*
X197626410Y-64683590D01*
X197466450Y-64552315D01*
X197466445Y-64552312D01*
X197283959Y-64454770D01*
X197283947Y-64454765D01*
X197085932Y-64394699D01*
X196880000Y-64374417D01*
X196674067Y-64394699D01*
X196476052Y-64454765D01*
X196476040Y-64454770D01*
X196293554Y-64552312D01*
X196293549Y-64552315D01*
X196133590Y-64683590D01*
X196002315Y-64843549D01*
X196002312Y-64843554D01*
X195904770Y-65026040D01*
X195904765Y-65026052D01*
X195844699Y-65224067D01*
X195824417Y-65430000D01*
X195844699Y-65635932D01*
X195904765Y-65833947D01*
X195904770Y-65833959D01*
X196002312Y-66016445D01*
X196002315Y-66016450D01*
X196133590Y-66176410D01*
X196293550Y-66307685D01*
X196293554Y-66307687D01*
X196476044Y-66405231D01*
X196476047Y-66405233D01*
X196531393Y-66422021D01*
X196549928Y-66427643D01*
X196591078Y-66458510D01*
X196603300Y-66499605D01*
X196603300Y-68205402D01*
X196585707Y-68253740D01*
X196541158Y-68279460D01*
X196490500Y-68270527D01*
X196474926Y-68258576D01*
X196448223Y-68231873D01*
X196328127Y-68170681D01*
X196328129Y-68170681D01*
X196228491Y-68154900D01*
X196228489Y-68154900D01*
X195711513Y-68154900D01*
X195711510Y-68154900D01*
X195611873Y-68170681D01*
X195491778Y-68231873D01*
X195396474Y-68327177D01*
X195335282Y-68447272D01*
X195319501Y-68546909D01*
X195319501Y-69113890D01*
X195335282Y-69213527D01*
X195396474Y-69333622D01*
X195491778Y-69428926D01*
X195491780Y-69428927D01*
X195491781Y-69428928D01*
X195611875Y-69490119D01*
X195619864Y-69491384D01*
X195664854Y-69516321D01*
X195683290Y-69564344D01*
X195683301Y-69565658D01*
X195683301Y-70573557D01*
X195665708Y-70621895D01*
X195621159Y-70647615D01*
X195619867Y-70647831D01*
X195601875Y-70650681D01*
X195601871Y-70650682D01*
X195481780Y-70711872D01*
X195418660Y-70774992D01*
X195372040Y-70796731D01*
X195322353Y-70783417D01*
X195298980Y-70755560D01*
X195298847Y-70755643D01*
X195298283Y-70754730D01*
X195297329Y-70753592D01*
X195296546Y-70751912D01*
X195207576Y-70607671D01*
X195207573Y-70607667D01*
X195087733Y-70487827D01*
X195087729Y-70487824D01*
X194943486Y-70398854D01*
X194943487Y-70398854D01*
X194782608Y-70345544D01*
X194782609Y-70345544D01*
X194683310Y-70335400D01*
X194660001Y-70335400D01*
X194660001Y-72285399D01*
X194160000Y-72285399D01*
X194160001Y-72285398D01*
X194160001Y-71560400D01*
X193460002Y-71560400D01*
X192322460Y-71560400D01*
X192324800Y-71538631D01*
X192324801Y-71538620D01*
X192324801Y-71080400D01*
X191770001Y-71080400D01*
X191270001Y-71080400D01*
X190715201Y-71080400D01*
X190125299Y-71080400D01*
X190125299Y-71060400D01*
X193460001Y-71060400D01*
X194160001Y-71060400D01*
X194160001Y-70335400D01*
X194136691Y-70335400D01*
X194037390Y-70345545D01*
X193876514Y-70398854D01*
X193732272Y-70487824D01*
X193732268Y-70487827D01*
X193612428Y-70607667D01*
X193612425Y-70607671D01*
X193523455Y-70751913D01*
X193470145Y-70912792D01*
X193460001Y-71012091D01*
X193460001Y-71060400D01*
X190125299Y-71060400D01*
X190125299Y-70150252D01*
X190113666Y-70091769D01*
X190069351Y-70025448D01*
X190003030Y-69981133D01*
X190003028Y-69981132D01*
X189944548Y-69969500D01*
X189944547Y-69969500D01*
X189295451Y-69969500D01*
X189295450Y-69969500D01*
X189236969Y-69981132D01*
X189236967Y-69981133D01*
X189170647Y-70025448D01*
X189126332Y-70091768D01*
X189126331Y-70091770D01*
X189114699Y-70150251D01*
X189114699Y-70478500D01*
X189097106Y-70526838D01*
X189052557Y-70552558D01*
X189039499Y-70553700D01*
X188316161Y-70553700D01*
X188267823Y-70536107D01*
X188262987Y-70531674D01*
X187987891Y-70256578D01*
X187966151Y-70209958D01*
X187966630Y-70192705D01*
X187975647Y-70130000D01*
X187955165Y-69987543D01*
X187952237Y-69981132D01*
X187895377Y-69856627D01*
X187895375Y-69856624D01*
X187801127Y-69747856D01*
X187801125Y-69747855D01*
X187693195Y-69678493D01*
X187680053Y-69670047D01*
X187680052Y-69670046D01*
X187541963Y-69629500D01*
X187541961Y-69629500D01*
X187398039Y-69629500D01*
X187398036Y-69629500D01*
X187259948Y-69670046D01*
X187138874Y-69747855D01*
X187138872Y-69747856D01*
X187044624Y-69856624D01*
X187044622Y-69856627D01*
X186984835Y-69987540D01*
X186964353Y-70130000D01*
X184640500Y-70130000D01*
X184640500Y-66299748D01*
X188209500Y-66299748D01*
X188221132Y-66358229D01*
X188221133Y-66358231D01*
X188265448Y-66424552D01*
X188331769Y-66468867D01*
X188361010Y-66474683D01*
X188390251Y-66480500D01*
X188390252Y-66480500D01*
X188908100Y-66480500D01*
X188956438Y-66498093D01*
X188982158Y-66542642D01*
X188983300Y-66555700D01*
X188983300Y-66586428D01*
X189002156Y-66656803D01*
X189038585Y-66719898D01*
X189038586Y-66719899D01*
X190171602Y-67852915D01*
X190193342Y-67899535D01*
X190180028Y-67949222D01*
X190160209Y-67968613D01*
X190120648Y-67995048D01*
X190076333Y-68061368D01*
X190076332Y-68061370D01*
X190064700Y-68119851D01*
X190064700Y-69480148D01*
X190076332Y-69538629D01*
X190076333Y-69538631D01*
X190120648Y-69604952D01*
X190186969Y-69649267D01*
X190216210Y-69655083D01*
X190245451Y-69660900D01*
X190835001Y-69660900D01*
X190883339Y-69678493D01*
X190909059Y-69723042D01*
X190900126Y-69773700D01*
X190880067Y-69796300D01*
X190858011Y-69812810D01*
X190771850Y-69927907D01*
X190771849Y-69927909D01*
X190721603Y-70062622D01*
X190721602Y-70062625D01*
X190715201Y-70122168D01*
X190715201Y-70580400D01*
X191270001Y-70580400D01*
X191270001Y-69670000D01*
X191770001Y-69670000D01*
X191770001Y-70580400D01*
X192324801Y-70580400D01*
X192324801Y-70122180D01*
X192324800Y-70122168D01*
X192318399Y-70062625D01*
X192318398Y-70062622D01*
X192268152Y-69927909D01*
X192268151Y-69927907D01*
X192181990Y-69812810D01*
X192066893Y-69726649D01*
X192066891Y-69726648D01*
X191932178Y-69676402D01*
X191932175Y-69676401D01*
X191872632Y-69670000D01*
X191770001Y-69670000D01*
X191270001Y-69670000D01*
X191167369Y-69670000D01*
X191120996Y-69674986D01*
X191071055Y-69662660D01*
X191040721Y-69621116D01*
X191044187Y-69569794D01*
X191050428Y-69558444D01*
X191063667Y-69538631D01*
X191075300Y-69480148D01*
X191075300Y-69182300D01*
X191092893Y-69133962D01*
X191137442Y-69108242D01*
X191150500Y-69107100D01*
X193704199Y-69107100D01*
X193752537Y-69124693D01*
X193778257Y-69169242D01*
X193778473Y-69170536D01*
X193785282Y-69213527D01*
X193846474Y-69333622D01*
X193941778Y-69428926D01*
X193941780Y-69428927D01*
X193941781Y-69428928D01*
X194061873Y-69490118D01*
X194061875Y-69490119D01*
X194161513Y-69505900D01*
X194161517Y-69505900D01*
X194678485Y-69505900D01*
X194678489Y-69505900D01*
X194778127Y-69490119D01*
X194898221Y-69428928D01*
X194993529Y-69333620D01*
X195054720Y-69213526D01*
X195070501Y-69113888D01*
X195070501Y-68546912D01*
X195054720Y-68447274D01*
X194993529Y-68327180D01*
X194993528Y-68327179D01*
X194993527Y-68327177D01*
X194898223Y-68231873D01*
X194778127Y-68170681D01*
X194778129Y-68170681D01*
X194678491Y-68154900D01*
X194678489Y-68154900D01*
X194161513Y-68154900D01*
X194161510Y-68154900D01*
X194061873Y-68170681D01*
X193941778Y-68231873D01*
X193846474Y-68327177D01*
X193785282Y-68447272D01*
X193778473Y-68490264D01*
X193753534Y-68535254D01*
X193705511Y-68553689D01*
X193704199Y-68553700D01*
X191150500Y-68553700D01*
X191102162Y-68536107D01*
X191076442Y-68491558D01*
X191075300Y-68478500D01*
X191075300Y-68119851D01*
X191063667Y-68061370D01*
X191063666Y-68061368D01*
X191019352Y-67995048D01*
X190953031Y-67950733D01*
X190953028Y-67950732D01*
X190907229Y-67941622D01*
X190863252Y-67914936D01*
X190846700Y-67867867D01*
X190846700Y-67823573D01*
X190827844Y-67753197D01*
X190827844Y-67753196D01*
X190791416Y-67690103D01*
X189710187Y-66608874D01*
X189688447Y-66562254D01*
X189701761Y-66512567D01*
X189743898Y-66483062D01*
X189763361Y-66480500D01*
X190129749Y-66480500D01*
X190149242Y-66476622D01*
X190188231Y-66468867D01*
X190254552Y-66424552D01*
X190298867Y-66358231D01*
X190310500Y-66299748D01*
X190310500Y-65430000D01*
X190744417Y-65430000D01*
X190764699Y-65635932D01*
X190824765Y-65833947D01*
X190824770Y-65833959D01*
X190922312Y-66016445D01*
X190922315Y-66016450D01*
X191053590Y-66176410D01*
X191213550Y-66307685D01*
X191396046Y-66405232D01*
X191396050Y-66405233D01*
X191396052Y-66405234D01*
X191459733Y-66424551D01*
X191594066Y-66465300D01*
X191800000Y-66485583D01*
X192005934Y-66465300D01*
X192203954Y-66405232D01*
X192386450Y-66307685D01*
X192546410Y-66176410D01*
X192677685Y-66016450D01*
X192775232Y-65833954D01*
X192835300Y-65635934D01*
X192855583Y-65430000D01*
X193284417Y-65430000D01*
X193304699Y-65635932D01*
X193364765Y-65833947D01*
X193364770Y-65833959D01*
X193462312Y-66016445D01*
X193462315Y-66016450D01*
X193593590Y-66176410D01*
X193753550Y-66307685D01*
X193936046Y-66405232D01*
X193936050Y-66405233D01*
X193936052Y-66405234D01*
X193999733Y-66424551D01*
X194134066Y-66465300D01*
X194340000Y-66485583D01*
X194545934Y-66465300D01*
X194743954Y-66405232D01*
X194926450Y-66307685D01*
X195086410Y-66176410D01*
X195217685Y-66016450D01*
X195315232Y-65833954D01*
X195375300Y-65635934D01*
X195395583Y-65430000D01*
X195375300Y-65224066D01*
X195315232Y-65026046D01*
X195217685Y-64843550D01*
X195086410Y-64683590D01*
X194926450Y-64552315D01*
X194926445Y-64552312D01*
X194743959Y-64454770D01*
X194743947Y-64454765D01*
X194545932Y-64394699D01*
X194340000Y-64374417D01*
X194134067Y-64394699D01*
X193936052Y-64454765D01*
X193936040Y-64454770D01*
X193753554Y-64552312D01*
X193753549Y-64552315D01*
X193593590Y-64683590D01*
X193462315Y-64843549D01*
X193462312Y-64843554D01*
X193364770Y-65026040D01*
X193364765Y-65026052D01*
X193304699Y-65224067D01*
X193284417Y-65430000D01*
X192855583Y-65430000D01*
X192835300Y-65224066D01*
X192775232Y-65026046D01*
X192677685Y-64843550D01*
X192546410Y-64683590D01*
X192386450Y-64552315D01*
X192386445Y-64552312D01*
X192203959Y-64454770D01*
X192203947Y-64454765D01*
X192005932Y-64394699D01*
X191800000Y-64374417D01*
X191594067Y-64394699D01*
X191396052Y-64454765D01*
X191396040Y-64454770D01*
X191213554Y-64552312D01*
X191213549Y-64552315D01*
X191053590Y-64683590D01*
X190922315Y-64843549D01*
X190922312Y-64843554D01*
X190824770Y-65026040D01*
X190824765Y-65026052D01*
X190764699Y-65224067D01*
X190744417Y-65430000D01*
X190310500Y-65430000D01*
X190310500Y-64560252D01*
X190298867Y-64501769D01*
X190254552Y-64435448D01*
X190188231Y-64391133D01*
X190188229Y-64391132D01*
X190129749Y-64379500D01*
X190129748Y-64379500D01*
X188390252Y-64379500D01*
X188390251Y-64379500D01*
X188331770Y-64391132D01*
X188331768Y-64391133D01*
X188265448Y-64435448D01*
X188221133Y-64501768D01*
X188221132Y-64501770D01*
X188209500Y-64560251D01*
X188209500Y-66299748D01*
X184640500Y-66299748D01*
X184640500Y-63395700D01*
X184658093Y-63347362D01*
X184702642Y-63321642D01*
X184715700Y-63320500D01*
X200974300Y-63320500D01*
X201022638Y-63338093D01*
G37*
%TD.AperFunction*%
%TD*%
M02*
