%TF.GenerationSoftware,KiCad,Pcbnew,8.0.1*%
%TF.CreationDate,2025-01-22T19:40:40-07:00*%
%TF.ProjectId,Button,42757474-6f6e-42e6-9b69-6361645f7063,rev?*%
%TF.SameCoordinates,Original*%
%TF.FileFunction,Legend,Top*%
%TF.FilePolarity,Positive*%
%FSLAX46Y46*%
G04 Gerber Fmt 4.6, Leading zero omitted, Abs format (unit mm)*
G04 Created by KiCad (PCBNEW 8.0.1) date 2025-01-22 19:40:40*
%MOMM*%
%LPD*%
G01*
G04 APERTURE LIST*
G04 Aperture macros list*
%AMRoundRect*
0 Rectangle with rounded corners*
0 $1 Rounding radius*
0 $2 $3 $4 $5 $6 $7 $8 $9 X,Y pos of 4 corners*
0 Add a 4 corners polygon primitive as box body*
4,1,4,$2,$3,$4,$5,$6,$7,$8,$9,$2,$3,0*
0 Add four circle primitives for the rounded corners*
1,1,$1+$1,$2,$3*
1,1,$1+$1,$4,$5*
1,1,$1+$1,$6,$7*
1,1,$1+$1,$8,$9*
0 Add four rect primitives between the rounded corners*
20,1,$1+$1,$2,$3,$4,$5,0*
20,1,$1+$1,$4,$5,$6,$7,0*
20,1,$1+$1,$6,$7,$8,$9,0*
20,1,$1+$1,$8,$9,$2,$3,0*%
G04 Aperture macros list end*
%ADD10C,0.100000*%
%ADD11C,0.150000*%
%ADD12C,0.152400*%
%ADD13C,0.120000*%
%ADD14R,0.609600X1.320800*%
%ADD15RoundRect,0.225000X-0.225000X-0.250000X0.225000X-0.250000X0.225000X0.250000X-0.225000X0.250000X0*%
%ADD16R,1.549908X1.400048*%
%ADD17RoundRect,0.200000X0.275000X-0.200000X0.275000X0.200000X-0.275000X0.200000X-0.275000X-0.200000X0*%
%ADD18R,1.400048X1.549908*%
%ADD19R,1.700000X1.700000*%
%ADD20O,1.700000X1.700000*%
G04 APERTURE END LIST*
D10*
X205627419Y-86696665D02*
X205627419Y-86077618D01*
X205627419Y-86077618D02*
X206008371Y-86410951D01*
X206008371Y-86410951D02*
X206008371Y-86268094D01*
X206008371Y-86268094D02*
X206055990Y-86172856D01*
X206055990Y-86172856D02*
X206103609Y-86125237D01*
X206103609Y-86125237D02*
X206198847Y-86077618D01*
X206198847Y-86077618D02*
X206436942Y-86077618D01*
X206436942Y-86077618D02*
X206532180Y-86125237D01*
X206532180Y-86125237D02*
X206579800Y-86172856D01*
X206579800Y-86172856D02*
X206627419Y-86268094D01*
X206627419Y-86268094D02*
X206627419Y-86553808D01*
X206627419Y-86553808D02*
X206579800Y-86649046D01*
X206579800Y-86649046D02*
X206532180Y-86696665D01*
X206055990Y-85506189D02*
X206008371Y-85601427D01*
X206008371Y-85601427D02*
X205960752Y-85649046D01*
X205960752Y-85649046D02*
X205865514Y-85696665D01*
X205865514Y-85696665D02*
X205817895Y-85696665D01*
X205817895Y-85696665D02*
X205722657Y-85649046D01*
X205722657Y-85649046D02*
X205675038Y-85601427D01*
X205675038Y-85601427D02*
X205627419Y-85506189D01*
X205627419Y-85506189D02*
X205627419Y-85315713D01*
X205627419Y-85315713D02*
X205675038Y-85220475D01*
X205675038Y-85220475D02*
X205722657Y-85172856D01*
X205722657Y-85172856D02*
X205817895Y-85125237D01*
X205817895Y-85125237D02*
X205865514Y-85125237D01*
X205865514Y-85125237D02*
X205960752Y-85172856D01*
X205960752Y-85172856D02*
X206008371Y-85220475D01*
X206008371Y-85220475D02*
X206055990Y-85315713D01*
X206055990Y-85315713D02*
X206055990Y-85506189D01*
X206055990Y-85506189D02*
X206103609Y-85601427D01*
X206103609Y-85601427D02*
X206151228Y-85649046D01*
X206151228Y-85649046D02*
X206246466Y-85696665D01*
X206246466Y-85696665D02*
X206436942Y-85696665D01*
X206436942Y-85696665D02*
X206532180Y-85649046D01*
X206532180Y-85649046D02*
X206579800Y-85601427D01*
X206579800Y-85601427D02*
X206627419Y-85506189D01*
X206627419Y-85506189D02*
X206627419Y-85315713D01*
X206627419Y-85315713D02*
X206579800Y-85220475D01*
X206579800Y-85220475D02*
X206532180Y-85172856D01*
X206532180Y-85172856D02*
X206436942Y-85125237D01*
X206436942Y-85125237D02*
X206246466Y-85125237D01*
X206246466Y-85125237D02*
X206151228Y-85172856D01*
X206151228Y-85172856D02*
X206103609Y-85220475D01*
X206103609Y-85220475D02*
X206055990Y-85315713D01*
X206532180Y-84696665D02*
X206579800Y-84649046D01*
X206579800Y-84649046D02*
X206627419Y-84696665D01*
X206627419Y-84696665D02*
X206579800Y-84744284D01*
X206579800Y-84744284D02*
X206532180Y-84696665D01*
X206532180Y-84696665D02*
X206627419Y-84696665D01*
X205960752Y-83791904D02*
X206627419Y-83791904D01*
X205579800Y-84029999D02*
X206294085Y-84268094D01*
X206294085Y-84268094D02*
X206294085Y-83649047D01*
X205722657Y-83315713D02*
X205675038Y-83268094D01*
X205675038Y-83268094D02*
X205627419Y-83172856D01*
X205627419Y-83172856D02*
X205627419Y-82934761D01*
X205627419Y-82934761D02*
X205675038Y-82839523D01*
X205675038Y-82839523D02*
X205722657Y-82791904D01*
X205722657Y-82791904D02*
X205817895Y-82744285D01*
X205817895Y-82744285D02*
X205913133Y-82744285D01*
X205913133Y-82744285D02*
X206055990Y-82791904D01*
X206055990Y-82791904D02*
X206627419Y-83363332D01*
X206627419Y-83363332D02*
X206627419Y-82744285D01*
X205627419Y-82125237D02*
X205627419Y-82029999D01*
X205627419Y-82029999D02*
X205675038Y-81934761D01*
X205675038Y-81934761D02*
X205722657Y-81887142D01*
X205722657Y-81887142D02*
X205817895Y-81839523D01*
X205817895Y-81839523D02*
X206008371Y-81791904D01*
X206008371Y-81791904D02*
X206246466Y-81791904D01*
X206246466Y-81791904D02*
X206436942Y-81839523D01*
X206436942Y-81839523D02*
X206532180Y-81887142D01*
X206532180Y-81887142D02*
X206579800Y-81934761D01*
X206579800Y-81934761D02*
X206627419Y-82029999D01*
X206627419Y-82029999D02*
X206627419Y-82125237D01*
X206627419Y-82125237D02*
X206579800Y-82220475D01*
X206579800Y-82220475D02*
X206532180Y-82268094D01*
X206532180Y-82268094D02*
X206436942Y-82315713D01*
X206436942Y-82315713D02*
X206246466Y-82363332D01*
X206246466Y-82363332D02*
X206008371Y-82363332D01*
X206008371Y-82363332D02*
X205817895Y-82315713D01*
X205817895Y-82315713D02*
X205722657Y-82268094D01*
X205722657Y-82268094D02*
X205675038Y-82220475D01*
X205675038Y-82220475D02*
X205627419Y-82125237D01*
X205627419Y-81172856D02*
X205627419Y-81077618D01*
X205627419Y-81077618D02*
X205675038Y-80982380D01*
X205675038Y-80982380D02*
X205722657Y-80934761D01*
X205722657Y-80934761D02*
X205817895Y-80887142D01*
X205817895Y-80887142D02*
X206008371Y-80839523D01*
X206008371Y-80839523D02*
X206246466Y-80839523D01*
X206246466Y-80839523D02*
X206436942Y-80887142D01*
X206436942Y-80887142D02*
X206532180Y-80934761D01*
X206532180Y-80934761D02*
X206579800Y-80982380D01*
X206579800Y-80982380D02*
X206627419Y-81077618D01*
X206627419Y-81077618D02*
X206627419Y-81172856D01*
X206627419Y-81172856D02*
X206579800Y-81268094D01*
X206579800Y-81268094D02*
X206532180Y-81315713D01*
X206532180Y-81315713D02*
X206436942Y-81363332D01*
X206436942Y-81363332D02*
X206246466Y-81410951D01*
X206246466Y-81410951D02*
X206008371Y-81410951D01*
X206008371Y-81410951D02*
X205817895Y-81363332D01*
X205817895Y-81363332D02*
X205722657Y-81315713D01*
X205722657Y-81315713D02*
X205675038Y-81268094D01*
X205675038Y-81268094D02*
X205627419Y-81172856D01*
X206627419Y-79649046D02*
X205960752Y-79649046D01*
X206055990Y-79649046D02*
X206008371Y-79601427D01*
X206008371Y-79601427D02*
X205960752Y-79506189D01*
X205960752Y-79506189D02*
X205960752Y-79363332D01*
X205960752Y-79363332D02*
X206008371Y-79268094D01*
X206008371Y-79268094D02*
X206103609Y-79220475D01*
X206103609Y-79220475D02*
X206627419Y-79220475D01*
X206103609Y-79220475D02*
X206008371Y-79172856D01*
X206008371Y-79172856D02*
X205960752Y-79077618D01*
X205960752Y-79077618D02*
X205960752Y-78934761D01*
X205960752Y-78934761D02*
X206008371Y-78839522D01*
X206008371Y-78839522D02*
X206103609Y-78791903D01*
X206103609Y-78791903D02*
X206627419Y-78791903D01*
X206627419Y-78315713D02*
X205960752Y-78315713D01*
X206055990Y-78315713D02*
X206008371Y-78268094D01*
X206008371Y-78268094D02*
X205960752Y-78172856D01*
X205960752Y-78172856D02*
X205960752Y-78029999D01*
X205960752Y-78029999D02*
X206008371Y-77934761D01*
X206008371Y-77934761D02*
X206103609Y-77887142D01*
X206103609Y-77887142D02*
X206627419Y-77887142D01*
X206103609Y-77887142D02*
X206008371Y-77839523D01*
X206008371Y-77839523D02*
X205960752Y-77744285D01*
X205960752Y-77744285D02*
X205960752Y-77601428D01*
X205960752Y-77601428D02*
X206008371Y-77506189D01*
X206008371Y-77506189D02*
X206103609Y-77458570D01*
X206103609Y-77458570D02*
X206627419Y-77458570D01*
X202050000Y-62820000D02*
X207856420Y-62820000D01*
X202050000Y-101240000D02*
X207856420Y-101240000D01*
X207270000Y-62820000D02*
X207270000Y-101240000D01*
X207270000Y-62820000D02*
X207270000Y-101240000D01*
X207270000Y-62820000D02*
X207856421Y-63946504D01*
X207270000Y-62820000D02*
X206683579Y-63946504D01*
X207270000Y-101240000D02*
X206683579Y-100113496D01*
X207270000Y-101240000D02*
X207856421Y-100113496D01*
X188797381Y-59317419D02*
X188225953Y-59317419D01*
X188511667Y-59317419D02*
X188511667Y-58317419D01*
X188511667Y-58317419D02*
X188416429Y-58460276D01*
X188416429Y-58460276D02*
X188321191Y-58555514D01*
X188321191Y-58555514D02*
X188225953Y-58603133D01*
X189130715Y-58317419D02*
X189797381Y-58317419D01*
X189797381Y-58317419D02*
X189368810Y-59317419D01*
X190178334Y-59222180D02*
X190225953Y-59269800D01*
X190225953Y-59269800D02*
X190178334Y-59317419D01*
X190178334Y-59317419D02*
X190130715Y-59269800D01*
X190130715Y-59269800D02*
X190178334Y-59222180D01*
X190178334Y-59222180D02*
X190178334Y-59317419D01*
X191083095Y-58650752D02*
X191083095Y-59317419D01*
X190845000Y-58269800D02*
X190606905Y-58984085D01*
X190606905Y-58984085D02*
X191225952Y-58984085D01*
X192130714Y-59317419D02*
X191559286Y-59317419D01*
X191845000Y-59317419D02*
X191845000Y-58317419D01*
X191845000Y-58317419D02*
X191749762Y-58460276D01*
X191749762Y-58460276D02*
X191654524Y-58555514D01*
X191654524Y-58555514D02*
X191559286Y-58603133D01*
X192749762Y-58317419D02*
X192845000Y-58317419D01*
X192845000Y-58317419D02*
X192940238Y-58365038D01*
X192940238Y-58365038D02*
X192987857Y-58412657D01*
X192987857Y-58412657D02*
X193035476Y-58507895D01*
X193035476Y-58507895D02*
X193083095Y-58698371D01*
X193083095Y-58698371D02*
X193083095Y-58936466D01*
X193083095Y-58936466D02*
X193035476Y-59126942D01*
X193035476Y-59126942D02*
X192987857Y-59222180D01*
X192987857Y-59222180D02*
X192940238Y-59269800D01*
X192940238Y-59269800D02*
X192845000Y-59317419D01*
X192845000Y-59317419D02*
X192749762Y-59317419D01*
X192749762Y-59317419D02*
X192654524Y-59269800D01*
X192654524Y-59269800D02*
X192606905Y-59222180D01*
X192606905Y-59222180D02*
X192559286Y-59126942D01*
X192559286Y-59126942D02*
X192511667Y-58936466D01*
X192511667Y-58936466D02*
X192511667Y-58698371D01*
X192511667Y-58698371D02*
X192559286Y-58507895D01*
X192559286Y-58507895D02*
X192606905Y-58412657D01*
X192606905Y-58412657D02*
X192654524Y-58365038D01*
X192654524Y-58365038D02*
X192749762Y-58317419D01*
X193702143Y-58317419D02*
X193797381Y-58317419D01*
X193797381Y-58317419D02*
X193892619Y-58365038D01*
X193892619Y-58365038D02*
X193940238Y-58412657D01*
X193940238Y-58412657D02*
X193987857Y-58507895D01*
X193987857Y-58507895D02*
X194035476Y-58698371D01*
X194035476Y-58698371D02*
X194035476Y-58936466D01*
X194035476Y-58936466D02*
X193987857Y-59126942D01*
X193987857Y-59126942D02*
X193940238Y-59222180D01*
X193940238Y-59222180D02*
X193892619Y-59269800D01*
X193892619Y-59269800D02*
X193797381Y-59317419D01*
X193797381Y-59317419D02*
X193702143Y-59317419D01*
X193702143Y-59317419D02*
X193606905Y-59269800D01*
X193606905Y-59269800D02*
X193559286Y-59222180D01*
X193559286Y-59222180D02*
X193511667Y-59126942D01*
X193511667Y-59126942D02*
X193464048Y-58936466D01*
X193464048Y-58936466D02*
X193464048Y-58698371D01*
X193464048Y-58698371D02*
X193511667Y-58507895D01*
X193511667Y-58507895D02*
X193559286Y-58412657D01*
X193559286Y-58412657D02*
X193606905Y-58365038D01*
X193606905Y-58365038D02*
X193702143Y-58317419D01*
X195225953Y-59317419D02*
X195225953Y-58650752D01*
X195225953Y-58745990D02*
X195273572Y-58698371D01*
X195273572Y-58698371D02*
X195368810Y-58650752D01*
X195368810Y-58650752D02*
X195511667Y-58650752D01*
X195511667Y-58650752D02*
X195606905Y-58698371D01*
X195606905Y-58698371D02*
X195654524Y-58793609D01*
X195654524Y-58793609D02*
X195654524Y-59317419D01*
X195654524Y-58793609D02*
X195702143Y-58698371D01*
X195702143Y-58698371D02*
X195797381Y-58650752D01*
X195797381Y-58650752D02*
X195940238Y-58650752D01*
X195940238Y-58650752D02*
X196035477Y-58698371D01*
X196035477Y-58698371D02*
X196083096Y-58793609D01*
X196083096Y-58793609D02*
X196083096Y-59317419D01*
X196559286Y-59317419D02*
X196559286Y-58650752D01*
X196559286Y-58745990D02*
X196606905Y-58698371D01*
X196606905Y-58698371D02*
X196702143Y-58650752D01*
X196702143Y-58650752D02*
X196845000Y-58650752D01*
X196845000Y-58650752D02*
X196940238Y-58698371D01*
X196940238Y-58698371D02*
X196987857Y-58793609D01*
X196987857Y-58793609D02*
X196987857Y-59317419D01*
X196987857Y-58793609D02*
X197035476Y-58698371D01*
X197035476Y-58698371D02*
X197130714Y-58650752D01*
X197130714Y-58650752D02*
X197273571Y-58650752D01*
X197273571Y-58650752D02*
X197368810Y-58698371D01*
X197368810Y-58698371D02*
X197416429Y-58793609D01*
X197416429Y-58793609D02*
X197416429Y-59317419D01*
X184140000Y-62320000D02*
X184140000Y-59373580D01*
X201550000Y-62320000D02*
X201550000Y-59373580D01*
X184140000Y-59960000D02*
X201550000Y-59960000D01*
X184140000Y-59960000D02*
X201550000Y-59960000D01*
X184140000Y-59960000D02*
X185266504Y-59373579D01*
X184140000Y-59960000D02*
X185266504Y-60546421D01*
X201550000Y-59960000D02*
X200423496Y-60546421D01*
X201550000Y-59960000D02*
X200423496Y-59373579D01*
D11*
X186988095Y-67734819D02*
X186988095Y-68544342D01*
X186988095Y-68544342D02*
X187035714Y-68639580D01*
X187035714Y-68639580D02*
X187083333Y-68687200D01*
X187083333Y-68687200D02*
X187178571Y-68734819D01*
X187178571Y-68734819D02*
X187369047Y-68734819D01*
X187369047Y-68734819D02*
X187464285Y-68687200D01*
X187464285Y-68687200D02*
X187511904Y-68639580D01*
X187511904Y-68639580D02*
X187559523Y-68544342D01*
X187559523Y-68544342D02*
X187559523Y-67734819D01*
X188559523Y-68734819D02*
X187988095Y-68734819D01*
X188273809Y-68734819D02*
X188273809Y-67734819D01*
X188273809Y-67734819D02*
X188178571Y-67877676D01*
X188178571Y-67877676D02*
X188083333Y-67972914D01*
X188083333Y-67972914D02*
X187988095Y-68020533D01*
X197456667Y-71646104D02*
X197418571Y-71684200D01*
X197418571Y-71684200D02*
X197304286Y-71722295D01*
X197304286Y-71722295D02*
X197228095Y-71722295D01*
X197228095Y-71722295D02*
X197113809Y-71684200D01*
X197113809Y-71684200D02*
X197037619Y-71608009D01*
X197037619Y-71608009D02*
X196999524Y-71531819D01*
X196999524Y-71531819D02*
X196961428Y-71379438D01*
X196961428Y-71379438D02*
X196961428Y-71265152D01*
X196961428Y-71265152D02*
X196999524Y-71112771D01*
X196999524Y-71112771D02*
X197037619Y-71036580D01*
X197037619Y-71036580D02*
X197113809Y-70960390D01*
X197113809Y-70960390D02*
X197228095Y-70922295D01*
X197228095Y-70922295D02*
X197304286Y-70922295D01*
X197304286Y-70922295D02*
X197418571Y-70960390D01*
X197418571Y-70960390D02*
X197456667Y-70998485D01*
X197761428Y-70998485D02*
X197799524Y-70960390D01*
X197799524Y-70960390D02*
X197875714Y-70922295D01*
X197875714Y-70922295D02*
X198066190Y-70922295D01*
X198066190Y-70922295D02*
X198142381Y-70960390D01*
X198142381Y-70960390D02*
X198180476Y-70998485D01*
X198180476Y-70998485D02*
X198218571Y-71074676D01*
X198218571Y-71074676D02*
X198218571Y-71150866D01*
X198218571Y-71150866D02*
X198180476Y-71265152D01*
X198180476Y-71265152D02*
X197723333Y-71722295D01*
X197723333Y-71722295D02*
X198218571Y-71722295D01*
X191793332Y-76904200D02*
X191907618Y-76942295D01*
X191907618Y-76942295D02*
X192098094Y-76942295D01*
X192098094Y-76942295D02*
X192174285Y-76904200D01*
X192174285Y-76904200D02*
X192212380Y-76866104D01*
X192212380Y-76866104D02*
X192250475Y-76789914D01*
X192250475Y-76789914D02*
X192250475Y-76713723D01*
X192250475Y-76713723D02*
X192212380Y-76637533D01*
X192212380Y-76637533D02*
X192174285Y-76599438D01*
X192174285Y-76599438D02*
X192098094Y-76561342D01*
X192098094Y-76561342D02*
X191945713Y-76523247D01*
X191945713Y-76523247D02*
X191869523Y-76485152D01*
X191869523Y-76485152D02*
X191831428Y-76447057D01*
X191831428Y-76447057D02*
X191793332Y-76370866D01*
X191793332Y-76370866D02*
X191793332Y-76294676D01*
X191793332Y-76294676D02*
X191831428Y-76218485D01*
X191831428Y-76218485D02*
X191869523Y-76180390D01*
X191869523Y-76180390D02*
X191945713Y-76142295D01*
X191945713Y-76142295D02*
X192136190Y-76142295D01*
X192136190Y-76142295D02*
X192250475Y-76180390D01*
X192517142Y-76142295D02*
X192707618Y-76942295D01*
X192707618Y-76942295D02*
X192859999Y-76370866D01*
X192859999Y-76370866D02*
X193012380Y-76942295D01*
X193012380Y-76942295D02*
X193202857Y-76142295D01*
X193926666Y-76942295D02*
X193469523Y-76942295D01*
X193698095Y-76942295D02*
X193698095Y-76142295D01*
X193698095Y-76142295D02*
X193621904Y-76256580D01*
X193621904Y-76256580D02*
X193545714Y-76332771D01*
X193545714Y-76332771D02*
X193469523Y-76370866D01*
X199296667Y-81432295D02*
X199030000Y-81051342D01*
X198839524Y-81432295D02*
X198839524Y-80632295D01*
X198839524Y-80632295D02*
X199144286Y-80632295D01*
X199144286Y-80632295D02*
X199220476Y-80670390D01*
X199220476Y-80670390D02*
X199258571Y-80708485D01*
X199258571Y-80708485D02*
X199296667Y-80784676D01*
X199296667Y-80784676D02*
X199296667Y-80898961D01*
X199296667Y-80898961D02*
X199258571Y-80975152D01*
X199258571Y-80975152D02*
X199220476Y-81013247D01*
X199220476Y-81013247D02*
X199144286Y-81051342D01*
X199144286Y-81051342D02*
X198839524Y-81051342D01*
X199563333Y-80632295D02*
X200058571Y-80632295D01*
X200058571Y-80632295D02*
X199791905Y-80937057D01*
X199791905Y-80937057D02*
X199906190Y-80937057D01*
X199906190Y-80937057D02*
X199982381Y-80975152D01*
X199982381Y-80975152D02*
X200020476Y-81013247D01*
X200020476Y-81013247D02*
X200058571Y-81089438D01*
X200058571Y-81089438D02*
X200058571Y-81279914D01*
X200058571Y-81279914D02*
X200020476Y-81356104D01*
X200020476Y-81356104D02*
X199982381Y-81394200D01*
X199982381Y-81394200D02*
X199906190Y-81432295D01*
X199906190Y-81432295D02*
X199677619Y-81432295D01*
X199677619Y-81432295D02*
X199601428Y-81394200D01*
X199601428Y-81394200D02*
X199563333Y-81356104D01*
X198356667Y-69006104D02*
X198318571Y-69044200D01*
X198318571Y-69044200D02*
X198204286Y-69082295D01*
X198204286Y-69082295D02*
X198128095Y-69082295D01*
X198128095Y-69082295D02*
X198013809Y-69044200D01*
X198013809Y-69044200D02*
X197937619Y-68968009D01*
X197937619Y-68968009D02*
X197899524Y-68891819D01*
X197899524Y-68891819D02*
X197861428Y-68739438D01*
X197861428Y-68739438D02*
X197861428Y-68625152D01*
X197861428Y-68625152D02*
X197899524Y-68472771D01*
X197899524Y-68472771D02*
X197937619Y-68396580D01*
X197937619Y-68396580D02*
X198013809Y-68320390D01*
X198013809Y-68320390D02*
X198128095Y-68282295D01*
X198128095Y-68282295D02*
X198204286Y-68282295D01*
X198204286Y-68282295D02*
X198318571Y-68320390D01*
X198318571Y-68320390D02*
X198356667Y-68358485D01*
X199118571Y-69082295D02*
X198661428Y-69082295D01*
X198890000Y-69082295D02*
X198890000Y-68282295D01*
X198890000Y-68282295D02*
X198813809Y-68396580D01*
X198813809Y-68396580D02*
X198737619Y-68472771D01*
X198737619Y-68472771D02*
X198661428Y-68510866D01*
X197564201Y-87591669D02*
X197602296Y-87477383D01*
X197602296Y-87477383D02*
X197602296Y-87286907D01*
X197602296Y-87286907D02*
X197564201Y-87210716D01*
X197564201Y-87210716D02*
X197526105Y-87172621D01*
X197526105Y-87172621D02*
X197449915Y-87134526D01*
X197449915Y-87134526D02*
X197373724Y-87134526D01*
X197373724Y-87134526D02*
X197297534Y-87172621D01*
X197297534Y-87172621D02*
X197259439Y-87210716D01*
X197259439Y-87210716D02*
X197221343Y-87286907D01*
X197221343Y-87286907D02*
X197183248Y-87439288D01*
X197183248Y-87439288D02*
X197145153Y-87515478D01*
X197145153Y-87515478D02*
X197107058Y-87553573D01*
X197107058Y-87553573D02*
X197030867Y-87591669D01*
X197030867Y-87591669D02*
X196954677Y-87591669D01*
X196954677Y-87591669D02*
X196878486Y-87553573D01*
X196878486Y-87553573D02*
X196840391Y-87515478D01*
X196840391Y-87515478D02*
X196802296Y-87439288D01*
X196802296Y-87439288D02*
X196802296Y-87248811D01*
X196802296Y-87248811D02*
X196840391Y-87134526D01*
X196802296Y-86867859D02*
X197602296Y-86677383D01*
X197602296Y-86677383D02*
X197030867Y-86525002D01*
X197030867Y-86525002D02*
X197602296Y-86372621D01*
X197602296Y-86372621D02*
X196802296Y-86182145D01*
X196802296Y-85953573D02*
X196802296Y-85458335D01*
X196802296Y-85458335D02*
X197107058Y-85725001D01*
X197107058Y-85725001D02*
X197107058Y-85610716D01*
X197107058Y-85610716D02*
X197145153Y-85534525D01*
X197145153Y-85534525D02*
X197183248Y-85496430D01*
X197183248Y-85496430D02*
X197259439Y-85458335D01*
X197259439Y-85458335D02*
X197449915Y-85458335D01*
X197449915Y-85458335D02*
X197526105Y-85496430D01*
X197526105Y-85496430D02*
X197564201Y-85534525D01*
X197564201Y-85534525D02*
X197602296Y-85610716D01*
X197602296Y-85610716D02*
X197602296Y-85839287D01*
X197602296Y-85839287D02*
X197564201Y-85915478D01*
X197564201Y-85915478D02*
X197526105Y-85953573D01*
X186452295Y-79103332D02*
X186071342Y-79369999D01*
X186452295Y-79560475D02*
X185652295Y-79560475D01*
X185652295Y-79560475D02*
X185652295Y-79255713D01*
X185652295Y-79255713D02*
X185690390Y-79179523D01*
X185690390Y-79179523D02*
X185728485Y-79141428D01*
X185728485Y-79141428D02*
X185804676Y-79103332D01*
X185804676Y-79103332D02*
X185918961Y-79103332D01*
X185918961Y-79103332D02*
X185995152Y-79141428D01*
X185995152Y-79141428D02*
X186033247Y-79179523D01*
X186033247Y-79179523D02*
X186071342Y-79255713D01*
X186071342Y-79255713D02*
X186071342Y-79560475D01*
X185728485Y-78798571D02*
X185690390Y-78760475D01*
X185690390Y-78760475D02*
X185652295Y-78684285D01*
X185652295Y-78684285D02*
X185652295Y-78493809D01*
X185652295Y-78493809D02*
X185690390Y-78417618D01*
X185690390Y-78417618D02*
X185728485Y-78379523D01*
X185728485Y-78379523D02*
X185804676Y-78341428D01*
X185804676Y-78341428D02*
X185880866Y-78341428D01*
X185880866Y-78341428D02*
X185995152Y-78379523D01*
X185995152Y-78379523D02*
X186452295Y-78836666D01*
X186452295Y-78836666D02*
X186452295Y-78341428D01*
X186492295Y-65696666D02*
X187063723Y-65696666D01*
X187063723Y-65696666D02*
X187178009Y-65734761D01*
X187178009Y-65734761D02*
X187254200Y-65810952D01*
X187254200Y-65810952D02*
X187292295Y-65925237D01*
X187292295Y-65925237D02*
X187292295Y-66001428D01*
X187292295Y-64896666D02*
X187292295Y-65353809D01*
X187292295Y-65125237D02*
X186492295Y-65125237D01*
X186492295Y-65125237D02*
X186606580Y-65201428D01*
X186606580Y-65201428D02*
X186682771Y-65277618D01*
X186682771Y-65277618D02*
X186720866Y-65353809D01*
X199872295Y-76733332D02*
X199491342Y-76999999D01*
X199872295Y-77190475D02*
X199072295Y-77190475D01*
X199072295Y-77190475D02*
X199072295Y-76885713D01*
X199072295Y-76885713D02*
X199110390Y-76809523D01*
X199110390Y-76809523D02*
X199148485Y-76771428D01*
X199148485Y-76771428D02*
X199224676Y-76733332D01*
X199224676Y-76733332D02*
X199338961Y-76733332D01*
X199338961Y-76733332D02*
X199415152Y-76771428D01*
X199415152Y-76771428D02*
X199453247Y-76809523D01*
X199453247Y-76809523D02*
X199491342Y-76885713D01*
X199491342Y-76885713D02*
X199491342Y-77190475D01*
X199872295Y-75971428D02*
X199872295Y-76428571D01*
X199872295Y-76199999D02*
X199072295Y-76199999D01*
X199072295Y-76199999D02*
X199186580Y-76276190D01*
X199186580Y-76276190D02*
X199262771Y-76352380D01*
X199262771Y-76352380D02*
X199300866Y-76428571D01*
X194251669Y-96315801D02*
X194137383Y-96277705D01*
X194137383Y-96277705D02*
X193946907Y-96277705D01*
X193946907Y-96277705D02*
X193870716Y-96315801D01*
X193870716Y-96315801D02*
X193832621Y-96353896D01*
X193832621Y-96353896D02*
X193794526Y-96430086D01*
X193794526Y-96430086D02*
X193794526Y-96506277D01*
X193794526Y-96506277D02*
X193832621Y-96582467D01*
X193832621Y-96582467D02*
X193870716Y-96620562D01*
X193870716Y-96620562D02*
X193946907Y-96658658D01*
X193946907Y-96658658D02*
X194099288Y-96696753D01*
X194099288Y-96696753D02*
X194175478Y-96734848D01*
X194175478Y-96734848D02*
X194213573Y-96772943D01*
X194213573Y-96772943D02*
X194251669Y-96849134D01*
X194251669Y-96849134D02*
X194251669Y-96925324D01*
X194251669Y-96925324D02*
X194213573Y-97001515D01*
X194213573Y-97001515D02*
X194175478Y-97039610D01*
X194175478Y-97039610D02*
X194099288Y-97077705D01*
X194099288Y-97077705D02*
X193908811Y-97077705D01*
X193908811Y-97077705D02*
X193794526Y-97039610D01*
X193527859Y-97077705D02*
X193337383Y-96277705D01*
X193337383Y-96277705D02*
X193185002Y-96849134D01*
X193185002Y-96849134D02*
X193032621Y-96277705D01*
X193032621Y-96277705D02*
X192842145Y-97077705D01*
X192194525Y-96811039D02*
X192194525Y-96277705D01*
X192385001Y-97115801D02*
X192575478Y-96544372D01*
X192575478Y-96544372D02*
X192080239Y-96544372D01*
X189104199Y-87611669D02*
X189142294Y-87497383D01*
X189142294Y-87497383D02*
X189142294Y-87306907D01*
X189142294Y-87306907D02*
X189104199Y-87230716D01*
X189104199Y-87230716D02*
X189066103Y-87192621D01*
X189066103Y-87192621D02*
X188989913Y-87154526D01*
X188989913Y-87154526D02*
X188913722Y-87154526D01*
X188913722Y-87154526D02*
X188837532Y-87192621D01*
X188837532Y-87192621D02*
X188799437Y-87230716D01*
X188799437Y-87230716D02*
X188761341Y-87306907D01*
X188761341Y-87306907D02*
X188723246Y-87459288D01*
X188723246Y-87459288D02*
X188685151Y-87535478D01*
X188685151Y-87535478D02*
X188647056Y-87573573D01*
X188647056Y-87573573D02*
X188570865Y-87611669D01*
X188570865Y-87611669D02*
X188494675Y-87611669D01*
X188494675Y-87611669D02*
X188418484Y-87573573D01*
X188418484Y-87573573D02*
X188380389Y-87535478D01*
X188380389Y-87535478D02*
X188342294Y-87459288D01*
X188342294Y-87459288D02*
X188342294Y-87268811D01*
X188342294Y-87268811D02*
X188380389Y-87154526D01*
X188342294Y-86887859D02*
X189142294Y-86697383D01*
X189142294Y-86697383D02*
X188570865Y-86545002D01*
X188570865Y-86545002D02*
X189142294Y-86392621D01*
X189142294Y-86392621D02*
X188342294Y-86202145D01*
X188418484Y-85935478D02*
X188380389Y-85897382D01*
X188380389Y-85897382D02*
X188342294Y-85821192D01*
X188342294Y-85821192D02*
X188342294Y-85630716D01*
X188342294Y-85630716D02*
X188380389Y-85554525D01*
X188380389Y-85554525D02*
X188418484Y-85516430D01*
X188418484Y-85516430D02*
X188494675Y-85478335D01*
X188494675Y-85478335D02*
X188570865Y-85478335D01*
X188570865Y-85478335D02*
X188685151Y-85516430D01*
X188685151Y-85516430D02*
X189142294Y-85973573D01*
X189142294Y-85973573D02*
X189142294Y-85478335D01*
X186422295Y-95273332D02*
X186041342Y-95539999D01*
X186422295Y-95730475D02*
X185622295Y-95730475D01*
X185622295Y-95730475D02*
X185622295Y-95425713D01*
X185622295Y-95425713D02*
X185660390Y-95349523D01*
X185660390Y-95349523D02*
X185698485Y-95311428D01*
X185698485Y-95311428D02*
X185774676Y-95273332D01*
X185774676Y-95273332D02*
X185888961Y-95273332D01*
X185888961Y-95273332D02*
X185965152Y-95311428D01*
X185965152Y-95311428D02*
X186003247Y-95349523D01*
X186003247Y-95349523D02*
X186041342Y-95425713D01*
X186041342Y-95425713D02*
X186041342Y-95730475D01*
X185888961Y-94587618D02*
X186422295Y-94587618D01*
X185584200Y-94778094D02*
X186155628Y-94968571D01*
X186155628Y-94968571D02*
X186155628Y-94473332D01*
D12*
%TO.C,U1*%
X187902000Y-71135200D02*
G75*
G02*
X187648000Y-71135200I-127000J0D01*
G01*
X187648000Y-71135200D02*
G75*
G02*
X187902000Y-71135200I127000J0D01*
G01*
X190257539Y-70642200D02*
X190882461Y-70642200D01*
X192222000Y-70642200D02*
X192222000Y-68988200D01*
X192222000Y-68988200D02*
X191207540Y-68988200D01*
X188918000Y-68988200D02*
X188918000Y-70642200D01*
X189932460Y-68988200D02*
X188918000Y-68988200D01*
D13*
%TO.C,C2*%
X195044421Y-70800400D02*
X195325581Y-70800400D01*
X195044421Y-71820400D02*
X195325581Y-71820400D01*
D12*
%TO.C,SW1*%
X189532600Y-75362763D02*
X189532600Y-77797237D01*
X189532600Y-79907400D02*
X196187400Y-79907400D01*
X196187400Y-73252600D02*
X189532600Y-73252600D01*
X196187400Y-77797237D02*
X196187400Y-75362763D01*
X187424201Y-74329999D02*
G75*
G02*
X187017801Y-74329999I-203200J0D01*
G01*
X187017801Y-74329999D02*
G75*
G02*
X187424201Y-74329999I203200J0D01*
G01*
D13*
%TO.C,R3*%
X198897500Y-79182258D02*
X198897500Y-78707742D01*
X199942500Y-79182258D02*
X199942500Y-78707742D01*
%TO.C,C1*%
X195054421Y-68320400D02*
X195335581Y-68320400D01*
X195054421Y-69340400D02*
X195335581Y-69340400D01*
D12*
%TO.C,SW3*%
X193912601Y-83197602D02*
X193912601Y-89852402D01*
X196022764Y-89852402D02*
X198457238Y-89852402D01*
X198457238Y-83197602D02*
X196022764Y-83197602D01*
X200567401Y-89852402D02*
X200567401Y-83197602D01*
X195193200Y-92164001D02*
G75*
G02*
X194786800Y-92164001I-203200J0D01*
G01*
X194786800Y-92164001D02*
G75*
G02*
X195193200Y-92164001I203200J0D01*
G01*
D13*
%TO.C,R2*%
X185747500Y-75802258D02*
X185747500Y-75327742D01*
X186792500Y-75802258D02*
X186792500Y-75327742D01*
%TO.C,J1*%
X187930000Y-66760000D02*
X187930000Y-65430000D01*
X189260000Y-66760000D02*
X187930000Y-66760000D01*
X190530000Y-64100000D02*
X198210000Y-64100000D01*
X190530000Y-66760000D02*
X190530000Y-64100000D01*
X190530000Y-66760000D02*
X198210000Y-66760000D01*
X198210000Y-66760000D02*
X198210000Y-64100000D01*
%TO.C,R1*%
X199057500Y-74732258D02*
X199057500Y-74257742D01*
X200102500Y-74732258D02*
X200102500Y-74257742D01*
D12*
%TO.C,SW4*%
X189857602Y-95422764D02*
X189857602Y-97857238D01*
X189857602Y-99967401D02*
X196512402Y-99967401D01*
X196512402Y-93312601D02*
X189857602Y-93312601D01*
X196512402Y-97857238D02*
X196512402Y-95422764D01*
X199027201Y-98890002D02*
G75*
G02*
X198620801Y-98890002I-203200J0D01*
G01*
X198620801Y-98890002D02*
G75*
G02*
X199027201Y-98890002I203200J0D01*
G01*
%TO.C,SW2*%
X185452599Y-83217602D02*
X185452599Y-89872402D01*
X187562762Y-89872402D02*
X189997236Y-89872402D01*
X189997236Y-83217602D02*
X187562762Y-83217602D01*
X192107399Y-89872402D02*
X192107399Y-83217602D01*
X186733198Y-92184001D02*
G75*
G02*
X186326798Y-92184001I-203200J0D01*
G01*
X186326798Y-92184001D02*
G75*
G02*
X186733198Y-92184001I203200J0D01*
G01*
D13*
%TO.C,R4*%
X185657500Y-98302258D02*
X185657500Y-97827742D01*
X186702500Y-98302258D02*
X186702500Y-97827742D01*
%TD*%
%LPC*%
D14*
%TO.C,U1*%
X189619999Y-70830400D03*
X191520001Y-70830400D03*
X190570000Y-68800000D03*
%TD*%
D15*
%TO.C,C2*%
X194410001Y-71310400D03*
X195960001Y-71310400D03*
%TD*%
D16*
%TO.C,SW1*%
X188885002Y-74329999D03*
X188885002Y-78830001D03*
X196834998Y-74329999D03*
X196834998Y-78830001D03*
%TD*%
D17*
%TO.C,R3*%
X199420000Y-79770000D03*
X199420000Y-78120000D03*
%TD*%
D15*
%TO.C,C1*%
X194420001Y-68830400D03*
X195970001Y-68830400D03*
%TD*%
D18*
%TO.C,SW3*%
X194990000Y-90500000D03*
X199490002Y-90500000D03*
X194990000Y-82550004D03*
X199490002Y-82550004D03*
%TD*%
D17*
%TO.C,R2*%
X186270000Y-76390000D03*
X186270000Y-74740000D03*
%TD*%
D19*
%TO.C,J1*%
X189260000Y-65430000D03*
D20*
X191800000Y-65430000D03*
X194340000Y-65430000D03*
X196880000Y-65430000D03*
%TD*%
D17*
%TO.C,R1*%
X199580000Y-75320000D03*
X199580000Y-73670000D03*
%TD*%
D16*
%TO.C,SW4*%
X197160000Y-98890002D03*
X197160000Y-94390000D03*
X189210004Y-98890002D03*
X189210004Y-94390000D03*
%TD*%
D18*
%TO.C,SW2*%
X186529998Y-90520000D03*
X191030000Y-90520000D03*
X186529998Y-82570004D03*
X191030000Y-82570004D03*
%TD*%
D17*
%TO.C,R4*%
X186180000Y-98890000D03*
X186180000Y-97240000D03*
%TD*%
%LPD*%
M02*
