%TF.GenerationSoftware,KiCad,Pcbnew,8.0.1*%
%TF.CreationDate,2025-01-22T19:40:40-07:00*%
%TF.ProjectId,Button,42757474-6f6e-42e6-9b69-6361645f7063,rev?*%
%TF.SameCoordinates,Original*%
%TF.FileFunction,Copper,L2,Bot*%
%TF.FilePolarity,Positive*%
%FSLAX46Y46*%
G04 Gerber Fmt 4.6, Leading zero omitted, Abs format (unit mm)*
G04 Created by KiCad (PCBNEW 8.0.1) date 2025-01-22 19:40:40*
%MOMM*%
%LPD*%
G01*
G04 APERTURE LIST*
%TA.AperFunction,ComponentPad*%
%ADD10R,1.700000X1.700000*%
%TD*%
%TA.AperFunction,ComponentPad*%
%ADD11O,1.700000X1.700000*%
%TD*%
%TA.AperFunction,ViaPad*%
%ADD12C,0.600000*%
%TD*%
%TA.AperFunction,Conductor*%
%ADD13C,0.152400*%
%TD*%
G04 APERTURE END LIST*
D10*
%TO.P,J1,1,Pin_1*%
%TO.N,VCC*%
X189260000Y-65430000D03*
D11*
%TO.P,J1,2,Pin_2*%
%TO.N,GND*%
X191800000Y-65430000D03*
%TO.P,J1,3,Pin_3*%
%TO.N,LED1*%
X194340000Y-65430000D03*
%TO.P,J1,4,Pin_4*%
%TO.N,GND*%
X196880000Y-65430000D03*
%TD*%
D12*
%TO.N,GND*%
X187470000Y-70130000D03*
%TO.N,LED1*%
X186540000Y-72510000D03*
X186520000Y-95390000D03*
X198850000Y-71870000D03*
X195770000Y-76440000D03*
%TD*%
D13*
%TO.N,LED1*%
X193910000Y-67600000D02*
X193910000Y-65860000D01*
X194790000Y-67810000D02*
X194790000Y-65880000D01*
X194340000Y-75010000D02*
X194340000Y-65430000D01*
X193910000Y-65860000D02*
X194340000Y-65430000D01*
X195770000Y-83550000D02*
X195770000Y-76440000D01*
X195770000Y-76440000D02*
X194340000Y-75010000D01*
X194790000Y-65880000D02*
X194340000Y-65430000D01*
X193760000Y-85560000D02*
X195770000Y-83550000D01*
X189000000Y-72510000D02*
X193910000Y-67600000D01*
X193760000Y-85660000D02*
X193760000Y-85560000D01*
X186520000Y-92900000D02*
X193760000Y-85660000D01*
X198850000Y-71870000D02*
X194790000Y-67810000D01*
X186520000Y-95390000D02*
X186520000Y-92900000D01*
X186540000Y-72510000D02*
X189000000Y-72510000D01*
%TD*%
%TA.AperFunction,Conductor*%
%TO.N,GND*%
G36*
X201022638Y-63338093D02*
G01*
X201048358Y-63382642D01*
X201049500Y-63395700D01*
X201049500Y-100664300D01*
X201031907Y-100712638D01*
X200987358Y-100738358D01*
X200974300Y-100739500D01*
X184715700Y-100739500D01*
X184667362Y-100721907D01*
X184641642Y-100677358D01*
X184640500Y-100664300D01*
X184640500Y-95390000D01*
X186014353Y-95390000D01*
X186034835Y-95532459D01*
X186094622Y-95663372D01*
X186094624Y-95663375D01*
X186188872Y-95772143D01*
X186309947Y-95849953D01*
X186448039Y-95890500D01*
X186448042Y-95890500D01*
X186591958Y-95890500D01*
X186591961Y-95890500D01*
X186730053Y-95849953D01*
X186851128Y-95772143D01*
X186945377Y-95663373D01*
X187005165Y-95532457D01*
X187025647Y-95390000D01*
X187005165Y-95247543D01*
X186945377Y-95116627D01*
X186945375Y-95116624D01*
X186910050Y-95075857D01*
X186851128Y-95007857D01*
X186831242Y-94995077D01*
X186800091Y-94954144D01*
X186796700Y-94931816D01*
X186796700Y-93045761D01*
X186814293Y-92997423D01*
X186818726Y-92992587D01*
X187081211Y-92730102D01*
X193981415Y-85829898D01*
X194017844Y-85766803D01*
X194036700Y-85696428D01*
X194036700Y-85696426D01*
X194037975Y-85691668D01*
X194038980Y-85691937D01*
X194058057Y-85653255D01*
X195991415Y-83719898D01*
X196027843Y-83656803D01*
X196027844Y-83656802D01*
X196046700Y-83586428D01*
X196046700Y-76898184D01*
X196064293Y-76849846D01*
X196081244Y-76834922D01*
X196101125Y-76822145D01*
X196101125Y-76822144D01*
X196101128Y-76822143D01*
X196195377Y-76713373D01*
X196255165Y-76582457D01*
X196275647Y-76440000D01*
X196255165Y-76297543D01*
X196195377Y-76166627D01*
X196195375Y-76166624D01*
X196101127Y-76057856D01*
X196101125Y-76057855D01*
X195980051Y-75980046D01*
X195980052Y-75980046D01*
X195841963Y-75939500D01*
X195841961Y-75939500D01*
X195698039Y-75939500D01*
X195692661Y-75939500D01*
X195692661Y-75936710D01*
X195652402Y-75928288D01*
X195638875Y-75917562D01*
X194638726Y-74917413D01*
X194616986Y-74870793D01*
X194616700Y-74864239D01*
X194616700Y-68209561D01*
X194634293Y-68161223D01*
X194678842Y-68135503D01*
X194729500Y-68144436D01*
X194745074Y-68156387D01*
X198332107Y-71743420D01*
X198353847Y-71790040D01*
X198353368Y-71807295D01*
X198344353Y-71869999D01*
X198364835Y-72012459D01*
X198424622Y-72143372D01*
X198424624Y-72143375D01*
X198505425Y-72236624D01*
X198518872Y-72252143D01*
X198639947Y-72329953D01*
X198778039Y-72370500D01*
X198778042Y-72370500D01*
X198921958Y-72370500D01*
X198921961Y-72370500D01*
X199060053Y-72329953D01*
X199181128Y-72252143D01*
X199275377Y-72143373D01*
X199335165Y-72012457D01*
X199355647Y-71870000D01*
X199335165Y-71727543D01*
X199275377Y-71596627D01*
X199275375Y-71596624D01*
X199181127Y-71487856D01*
X199181125Y-71487855D01*
X199060051Y-71410046D01*
X199060052Y-71410046D01*
X198921963Y-71369500D01*
X198921961Y-71369500D01*
X198778039Y-71369500D01*
X198772661Y-71369500D01*
X198772661Y-71366710D01*
X198732402Y-71358288D01*
X198718875Y-71347562D01*
X195088726Y-67717413D01*
X195066986Y-67670793D01*
X195066700Y-67664239D01*
X195066700Y-66227268D01*
X195084146Y-66179332D01*
X195084066Y-66179266D01*
X195084254Y-66179036D01*
X195084293Y-66178930D01*
X195084752Y-66178429D01*
X195086406Y-66176412D01*
X195086410Y-66176410D01*
X195217685Y-66016450D01*
X195315232Y-65833954D01*
X195375300Y-65635934D01*
X195384768Y-65539797D01*
X195407014Y-65493418D01*
X195453869Y-65472188D01*
X195503408Y-65486043D01*
X195532451Y-65528499D01*
X195534520Y-65540615D01*
X195545430Y-65665316D01*
X195606569Y-65893490D01*
X195606570Y-65893494D01*
X195706398Y-66107576D01*
X195841885Y-66301072D01*
X195841896Y-66301085D01*
X196008914Y-66468103D01*
X196008927Y-66468114D01*
X196202423Y-66603601D01*
X196202423Y-66603602D01*
X196416505Y-66703429D01*
X196630000Y-66760634D01*
X196630000Y-65863012D01*
X196687007Y-65895925D01*
X196814174Y-65930000D01*
X196945826Y-65930000D01*
X197072993Y-65895925D01*
X197130000Y-65863012D01*
X197130000Y-66760634D01*
X197343494Y-66703429D01*
X197557576Y-66603602D01*
X197557576Y-66603601D01*
X197751072Y-66468114D01*
X197751085Y-66468103D01*
X197918103Y-66301085D01*
X197918114Y-66301072D01*
X198053601Y-66107576D01*
X198053602Y-66107576D01*
X198153429Y-65893494D01*
X198153431Y-65893490D01*
X198210636Y-65680000D01*
X197313012Y-65680000D01*
X197345925Y-65622993D01*
X197380000Y-65495826D01*
X197380000Y-65364174D01*
X197345925Y-65237007D01*
X197313012Y-65180000D01*
X198210636Y-65180000D01*
X198153431Y-64966509D01*
X198153429Y-64966505D01*
X198053603Y-64752427D01*
X197918107Y-64558918D01*
X197751085Y-64391896D01*
X197751072Y-64391885D01*
X197557576Y-64256398D01*
X197557576Y-64256397D01*
X197343494Y-64156570D01*
X197343490Y-64156568D01*
X197130000Y-64099364D01*
X197130000Y-64996988D01*
X197072993Y-64964075D01*
X196945826Y-64930000D01*
X196814174Y-64930000D01*
X196687007Y-64964075D01*
X196630000Y-64996988D01*
X196630000Y-64099364D01*
X196416509Y-64156568D01*
X196416505Y-64156570D01*
X196202427Y-64256396D01*
X196008918Y-64391892D01*
X195841892Y-64558918D01*
X195706396Y-64752427D01*
X195606570Y-64966505D01*
X195606569Y-64966509D01*
X195545430Y-65194683D01*
X195534520Y-65319384D01*
X195512780Y-65366005D01*
X195466160Y-65387744D01*
X195416473Y-65374430D01*
X195386968Y-65332293D01*
X195384769Y-65320205D01*
X195375300Y-65224066D01*
X195337598Y-65099778D01*
X195315234Y-65026052D01*
X195315229Y-65026040D01*
X195217687Y-64843554D01*
X195217684Y-64843549D01*
X195086410Y-64683590D01*
X194926450Y-64552315D01*
X194926445Y-64552312D01*
X194743959Y-64454770D01*
X194743947Y-64454765D01*
X194545932Y-64394699D01*
X194340000Y-64374417D01*
X194134067Y-64394699D01*
X193936052Y-64454765D01*
X193936040Y-64454770D01*
X193753554Y-64552312D01*
X193753549Y-64552315D01*
X193593590Y-64683590D01*
X193462315Y-64843549D01*
X193462312Y-64843554D01*
X193364770Y-65026040D01*
X193364765Y-65026052D01*
X193304699Y-65224067D01*
X193295231Y-65320201D01*
X193272984Y-65366582D01*
X193226129Y-65387811D01*
X193176590Y-65373956D01*
X193147547Y-65331499D01*
X193145479Y-65319384D01*
X193134569Y-65194683D01*
X193073430Y-64966509D01*
X193073429Y-64966505D01*
X192973603Y-64752427D01*
X192838107Y-64558918D01*
X192671085Y-64391896D01*
X192671072Y-64391885D01*
X192477576Y-64256398D01*
X192477576Y-64256397D01*
X192263494Y-64156570D01*
X192263490Y-64156568D01*
X192050000Y-64099364D01*
X192050000Y-64996988D01*
X191992993Y-64964075D01*
X191865826Y-64930000D01*
X191734174Y-64930000D01*
X191607007Y-64964075D01*
X191550000Y-64996988D01*
X191550000Y-64099364D01*
X191336509Y-64156568D01*
X191336505Y-64156570D01*
X191122427Y-64256396D01*
X190928918Y-64391892D01*
X190761892Y-64558918D01*
X190626396Y-64752427D01*
X190526570Y-64966505D01*
X190526569Y-64966509D01*
X190465430Y-65194683D01*
X190460614Y-65249736D01*
X190438874Y-65296356D01*
X190392254Y-65318096D01*
X190342567Y-65304782D01*
X190313062Y-65262645D01*
X190310500Y-65243182D01*
X190310500Y-64560251D01*
X190298867Y-64501770D01*
X190298866Y-64501768D01*
X190254552Y-64435448D01*
X190188231Y-64391133D01*
X190188229Y-64391132D01*
X190129749Y-64379500D01*
X190129748Y-64379500D01*
X188390252Y-64379500D01*
X188390251Y-64379500D01*
X188331770Y-64391132D01*
X188331768Y-64391133D01*
X188265448Y-64435448D01*
X188221133Y-64501768D01*
X188221132Y-64501770D01*
X188209500Y-64560251D01*
X188209500Y-66299748D01*
X188221132Y-66358229D01*
X188221133Y-66358231D01*
X188265448Y-66424552D01*
X188331769Y-66468867D01*
X188361010Y-66474683D01*
X188390251Y-66480500D01*
X188390252Y-66480500D01*
X190129749Y-66480500D01*
X190149242Y-66476622D01*
X190188231Y-66468867D01*
X190254552Y-66424552D01*
X190298867Y-66358231D01*
X190310500Y-66299748D01*
X190310500Y-65616817D01*
X190328093Y-65568479D01*
X190372642Y-65542759D01*
X190423300Y-65551692D01*
X190456365Y-65591097D01*
X190460614Y-65610263D01*
X190465430Y-65665316D01*
X190526569Y-65893490D01*
X190526570Y-65893494D01*
X190626398Y-66107576D01*
X190761885Y-66301072D01*
X190761896Y-66301085D01*
X190928914Y-66468103D01*
X190928927Y-66468114D01*
X191122423Y-66603601D01*
X191122423Y-66603602D01*
X191336505Y-66703429D01*
X191550000Y-66760634D01*
X191550000Y-65863012D01*
X191607007Y-65895925D01*
X191734174Y-65930000D01*
X191865826Y-65930000D01*
X191992993Y-65895925D01*
X192050000Y-65863012D01*
X192050000Y-66760634D01*
X192263494Y-66703429D01*
X192477576Y-66603602D01*
X192477576Y-66603601D01*
X192671072Y-66468114D01*
X192671085Y-66468103D01*
X192838103Y-66301085D01*
X192838114Y-66301072D01*
X192973601Y-66107576D01*
X192973602Y-66107576D01*
X193073429Y-65893494D01*
X193073430Y-65893490D01*
X193134569Y-65665316D01*
X193145479Y-65540615D01*
X193167218Y-65493995D01*
X193213839Y-65472255D01*
X193263526Y-65485569D01*
X193293031Y-65527706D01*
X193295231Y-65539798D01*
X193304699Y-65635932D01*
X193364765Y-65833947D01*
X193364770Y-65833959D01*
X193462312Y-66016445D01*
X193462315Y-66016450D01*
X193593588Y-66176408D01*
X193593591Y-66176411D01*
X193605805Y-66186434D01*
X193632010Y-66230698D01*
X193633300Y-66244565D01*
X193633300Y-67454239D01*
X193615707Y-67502577D01*
X193611274Y-67507413D01*
X188907413Y-72211274D01*
X188860793Y-72233014D01*
X188854239Y-72233300D01*
X186996837Y-72233300D01*
X186948499Y-72215707D01*
X186940005Y-72207345D01*
X186871130Y-72127859D01*
X186871125Y-72127855D01*
X186750051Y-72050046D01*
X186750052Y-72050046D01*
X186611963Y-72009500D01*
X186611961Y-72009500D01*
X186468039Y-72009500D01*
X186468036Y-72009500D01*
X186329948Y-72050046D01*
X186208874Y-72127855D01*
X186208872Y-72127856D01*
X186114624Y-72236624D01*
X186114622Y-72236627D01*
X186054835Y-72367540D01*
X186034353Y-72510000D01*
X186054835Y-72652459D01*
X186114622Y-72783372D01*
X186114624Y-72783375D01*
X186208869Y-72892140D01*
X186208872Y-72892143D01*
X186329947Y-72969953D01*
X186468039Y-73010500D01*
X186468042Y-73010500D01*
X186611958Y-73010500D01*
X186611961Y-73010500D01*
X186750053Y-72969953D01*
X186871128Y-72892143D01*
X186898321Y-72860760D01*
X186940005Y-72812655D01*
X186984955Y-72787645D01*
X186996837Y-72786700D01*
X189036427Y-72786700D01*
X189036428Y-72786700D01*
X189106803Y-72767844D01*
X189169898Y-72731415D01*
X193934926Y-67966387D01*
X193981546Y-67944647D01*
X194031233Y-67957961D01*
X194060738Y-68000098D01*
X194063300Y-68019561D01*
X194063300Y-74973572D01*
X194063300Y-75046428D01*
X194082156Y-75116803D01*
X194118585Y-75179898D01*
X194118586Y-75179899D01*
X195252107Y-76313420D01*
X195273847Y-76360040D01*
X195273368Y-76377295D01*
X195264353Y-76439999D01*
X195284835Y-76582459D01*
X195344622Y-76713372D01*
X195344624Y-76713375D01*
X195384488Y-76759380D01*
X195438872Y-76822143D01*
X195438873Y-76822143D01*
X195438874Y-76822145D01*
X195458756Y-76834922D01*
X195489909Y-76875855D01*
X195493300Y-76898184D01*
X195493300Y-83404239D01*
X195475707Y-83452577D01*
X195471274Y-83457413D01*
X193538585Y-85390101D01*
X193538583Y-85390103D01*
X193502155Y-85453196D01*
X193502156Y-85453197D01*
X193482025Y-85528332D01*
X193481022Y-85528063D01*
X193461941Y-85566745D01*
X186298583Y-92730103D01*
X186262155Y-92793196D01*
X186262156Y-92793197D01*
X186243300Y-92863573D01*
X186243300Y-94931816D01*
X186225707Y-94980154D01*
X186208758Y-94995076D01*
X186188872Y-95007857D01*
X186094624Y-95116624D01*
X186094622Y-95116627D01*
X186034835Y-95247540D01*
X186014353Y-95390000D01*
X184640500Y-95390000D01*
X184640500Y-63395700D01*
X184658093Y-63347362D01*
X184702642Y-63321642D01*
X184715700Y-63320500D01*
X200974300Y-63320500D01*
X201022638Y-63338093D01*
G37*
%TD.AperFunction*%
%TD*%
M02*
